<?xml version="1.0" encoding="UTF-8"?>
<!--Generator: Apple Native CoreSVG 149-->
<!DOCTYPE svg
PUBLIC "-//W3C//DTD SVG 1.1//EN"
       "http://www.w3.org/Graphics/SVG/1.1/DTD/svg11.dtd">
<svg version="1.1" xmlns="http://www.w3.org/2000/svg" xmlns:xlink="http://www.w3.org/1999/xlink" width="3300" height="2200">
 <!--glyph: "uni10079C.medium", point size: 100.000000, font version: "Version 16.0d18e1", template writer version: "8"-->
 <g id="Notes">
  <rect height="2200" id="artboard" style="fill:white;opacity:1" width="3300" x="0" y="0"/>
  <line id="" style="fill:none;stroke:black;opacity:1;stroke-width:0.5;" x1="263" x2="3036" y1="292" y2="292"/>
  <text style="stroke:none;fill:black;font-family:-apple-system,&quot;SF Pro Display&quot;,&quot;SF Pro Text&quot;,Helvetica,sans-serif;font-weight:bold;" transform="matrix(1 0 0 1 263 322)">Weight/Scale Variations</text>
  <text style="stroke:none;fill:black;font-family:-apple-system,&quot;SF Pro Display&quot;,&quot;SF Pro Text&quot;,Helvetica,sans-serif;text-anchor:middle;" transform="matrix(1 0 0 1 559.711 322)">Ultralight</text>
  <text style="stroke:none;fill:black;font-family:-apple-system,&quot;SF Pro Display&quot;,&quot;SF Pro Text&quot;,Helvetica,sans-serif;text-anchor:middle;" transform="matrix(1 0 0 1 856.422 322)">Thin</text>
  <text style="stroke:none;fill:black;font-family:-apple-system,&quot;SF Pro Display&quot;,&quot;SF Pro Text&quot;,Helvetica,sans-serif;text-anchor:middle;" transform="matrix(1 0 0 1 1153.13 322)">Light</text>
  <text style="stroke:none;fill:black;font-family:-apple-system,&quot;SF Pro Display&quot;,&quot;SF Pro Text&quot;,Helvetica,sans-serif;text-anchor:middle;" transform="matrix(1 0 0 1 1449.84 322)">Regular</text>
  <text style="stroke:none;fill:black;font-family:-apple-system,&quot;SF Pro Display&quot;,&quot;SF Pro Text&quot;,Helvetica,sans-serif;text-anchor:middle;" transform="matrix(1 0 0 1 1746.56 322)">Medium</text>
  <text style="stroke:none;fill:black;font-family:-apple-system,&quot;SF Pro Display&quot;,&quot;SF Pro Text&quot;,Helvetica,sans-serif;text-anchor:middle;" transform="matrix(1 0 0 1 2043.27 322)">Semibold</text>
  <text style="stroke:none;fill:black;font-family:-apple-system,&quot;SF Pro Display&quot;,&quot;SF Pro Text&quot;,Helvetica,sans-serif;text-anchor:middle;" transform="matrix(1 0 0 1 2339.98 322)">Bold</text>
  <text style="stroke:none;fill:black;font-family:-apple-system,&quot;SF Pro Display&quot;,&quot;SF Pro Text&quot;,Helvetica,sans-serif;text-anchor:middle;" transform="matrix(1 0 0 1 2636.69 322)">Heavy</text>
  <text style="stroke:none;fill:black;font-family:-apple-system,&quot;SF Pro Display&quot;,&quot;SF Pro Text&quot;,Helvetica,sans-serif;text-anchor:middle;" transform="matrix(1 0 0 1 2933.4 322)">Black</text>
  <line id="" style="fill:none;stroke:black;opacity:1;stroke-width:0.5;" x1="263" x2="3036" y1="1903" y2="1903"/>
  <g id="" transform="matrix(1 0 0 1 263 1933)">
   <path d="M9.24805 0.830078C13.5547 0.830078 17.1387-2.74414 17.1387-7.05078C17.1387-11.3574 13.5449-14.9316 9.23828-14.9316C4.94141-14.9316 1.36719-11.3574 1.36719-7.05078C1.36719-2.74414 4.95117 0.830078 9.24805 0.830078ZM9.24805-0.654297C5.70312-0.654297 2.87109-3.49609 2.87109-7.05078C2.87109-10.6055 5.69336-13.4473 9.23828-13.4473C12.793-13.4473 15.6348-10.6055 15.6445-7.05078C15.6543-3.49609 12.8027-0.654297 9.24805-0.654297ZM6.39648-6.31836L8.50586-6.31836L8.50586-4.19922C8.50586-3.75977 8.79883-3.45703 9.22852-3.45703C9.67773-3.45703 9.9707-3.75977 9.9707-4.19922L9.9707-6.31836L12.0996-6.31836C12.5391-6.31836 12.8418-6.61133 12.8418-7.04102C12.8418-7.48047 12.5391-7.7832 12.0996-7.7832L9.9707-7.7832L9.9707-9.89258C9.9707-10.3418 9.67773-10.6445 9.22852-10.6445C8.79883-10.6445 8.50586-10.3418 8.50586-9.89258L8.50586-7.7832L6.39648-7.7832C5.94727-7.7832 5.64453-7.48047 5.64453-7.04102C5.64453-6.61133 5.94727-6.31836 6.39648-6.31836Z"/>
  </g>
  <g id="" transform="matrix(1 0 0 1 281.506 1933)">
   <path d="M11.709 2.91016C17.1582 2.91016 21.6699-1.61133 21.6699-7.05078C21.6699-12.5 17.1484-17.0117 11.6992-17.0117C6.25977-17.0117 1.74805-12.5 1.74805-7.05078C1.74805-1.61133 6.26953 2.91016 11.709 2.91016ZM11.709 1.25C7.09961 1.25 3.41797-2.44141 3.41797-7.05078C3.41797-11.6602 7.08984-15.3516 11.6992-15.3516C16.3086-15.3516 20-11.6602 20.0098-7.05078C20.0195-2.44141 16.3184 1.25 11.709 1.25ZM7.98828-6.23047L10.8789-6.23047L10.8789-3.32031C10.8789-2.83203 11.2109-2.5 11.6895-2.5C12.1777-2.5 12.5195-2.83203 12.5195-3.32031L12.5195-6.23047L15.4297-6.23047C15.918-6.23047 16.25-6.5625 16.25-7.04102C16.25-7.5293 15.918-7.87109 15.4297-7.87109L12.5195-7.87109L12.5195-10.7617C12.5195-11.2695 12.1777-11.6016 11.6895-11.6016C11.2109-11.6016 10.8789-11.2598 10.8789-10.7617L10.8789-7.87109L7.98828-7.87109C7.48047-7.87109 7.14844-7.5293 7.14844-7.04102C7.14844-6.5625 7.49023-6.23047 7.98828-6.23047Z"/>
  </g>
  <g id="" transform="matrix(1 0 0 1 304.924 1933)">
   <path d="M14.9707 5.66406C21.9336 5.66406 27.6953-0.0976562 27.6953-7.05078C27.6953-14.0137 21.9238-19.7754 14.9609-19.7754C8.00781-19.7754 2.25586-14.0137 2.25586-7.05078C2.25586-0.0976562 8.01758 5.66406 14.9707 5.66406ZM14.9707 3.84766C8.93555 3.84766 4.08203-1.01562 4.08203-7.05078C4.08203-13.0957 8.92578-17.9492 14.9609-17.9492C21.0059-17.9492 25.8594-13.0957 25.8691-7.05078C25.8789-1.01562 21.0156 3.84766 14.9707 3.84766ZM10.0586-6.14258L14.0625-6.14258L14.0625-2.12891C14.0625-1.5918 14.4336-1.2207 14.9512-1.2207C15.4883-1.2207 15.8594-1.5918 15.8594-2.12891L15.8594-6.14258L19.8828-6.14258C20.4102-6.14258 20.791-6.51367 20.791-7.03125C20.791-7.56836 20.4199-7.94922 19.8828-7.94922L15.8594-7.94922L15.8594-11.9531C15.8594-12.5098 15.4883-12.8809 14.9512-12.8809C14.4336-12.8809 14.0625-12.5 14.0625-11.9531L14.0625-7.94922L10.0586-7.94922C9.50195-7.94922 9.13086-7.56836 9.13086-7.03125C9.13086-6.51367 9.51172-6.14258 10.0586-6.14258Z"/>
  </g>
  <text style="stroke:none;fill:black;font-family:-apple-system,&quot;SF Pro Display&quot;,&quot;SF Pro Text&quot;,Helvetica,sans-serif;font-weight:bold;" transform="matrix(1 0 0 1 263 1953)">Design Variations</text>
  <text style="stroke:none;fill:black;font-family:-apple-system,&quot;SF Pro Display&quot;,&quot;SF Pro Text&quot;,Helvetica,sans-serif;" transform="matrix(1 0 0 1 263 1971)">Symbols are supported in up to nine weights and three scales.</text>
  <text style="stroke:none;fill:black;font-family:-apple-system,&quot;SF Pro Display&quot;,&quot;SF Pro Text&quot;,Helvetica,sans-serif;" transform="matrix(1 0 0 1 263 1989)">For optimal layout with text and other symbols, vertically align</text>
  <text style="stroke:none;fill:black;font-family:-apple-system,&quot;SF Pro Display&quot;,&quot;SF Pro Text&quot;,Helvetica,sans-serif;" transform="matrix(1 0 0 1 263 2007)">symbols with the adjacent text.</text>
  <line id="" style="fill:none;stroke:#00AEEF;stroke-width:0.5;opacity:1.0;" x1="776" x2="776" y1="1919" y2="1933"/>
  <g id="" transform="matrix(1 0 0 1 776 1933)">
   <path d="M3.31055 0.126953C3.82812 0.126953 4.08203-0.0683594 4.26758-0.605469L5.52734-4.0625L11.2891-4.0625L12.5488-0.605469C12.7344-0.0683594 12.9883 0.126953 13.4961 0.126953C14.0137 0.126953 14.3457-0.185547 14.3457-0.673828C14.3457-0.839844 14.3164-0.986328 14.2383-1.20117L9.6582-13.3887C9.43359-13.9941 9.0332-14.2871 8.4082-14.2871C7.80273-14.2871 7.39258-13.9941 7.17773-13.3984L2.59766-1.19141C2.51953-0.976562 2.49023-0.830078 2.49023-0.664062C2.49023-0.175781 2.80273 0.126953 3.31055 0.126953ZM6.00586-5.53711L8.37891-12.1094L8.42773-12.1094L10.8008-5.53711Z"/>
  </g>
  <line id="" style="fill:none;stroke:#00AEEF;stroke-width:0.5;opacity:1.0;" x1="792.836" x2="792.836" y1="1919" y2="1933"/>
  <text style="stroke:none;fill:black;font-family:-apple-system,&quot;SF Pro Display&quot;,&quot;SF Pro Text&quot;,Helvetica,sans-serif;font-weight:bold;" transform="matrix(1 0 0 1 776 1953)">Margins</text>
  <text style="stroke:none;fill:black;font-family:-apple-system,&quot;SF Pro Display&quot;,&quot;SF Pro Text&quot;,Helvetica,sans-serif;" transform="matrix(1 0 0 1 776 1971)">Leading and trailing margins on the left and right side of each symbol</text>
  <text style="stroke:none;fill:black;font-family:-apple-system,&quot;SF Pro Display&quot;,&quot;SF Pro Text&quot;,Helvetica,sans-serif;" transform="matrix(1 0 0 1 776 1989)">can be adjusted by modifying the x-location of the margin guidelines.</text>
  <text style="stroke:none;fill:black;font-family:-apple-system,&quot;SF Pro Display&quot;,&quot;SF Pro Text&quot;,Helvetica,sans-serif;" transform="matrix(1 0 0 1 776 2007)">Modifications are automatically applied proportionally to all</text>
  <text style="stroke:none;fill:black;font-family:-apple-system,&quot;SF Pro Display&quot;,&quot;SF Pro Text&quot;,Helvetica,sans-serif;" transform="matrix(1 0 0 1 776 2025)">scales and weights.</text>
  <g id="" transform="matrix(1 0 0 1 1289 1933)">
   <path d="M2.8418 1.86523L4.54102 3.57422C5.40039 4.44336 6.38672 4.38477 7.31445 3.35938L17.4902-7.85156C17.7539-7.76367 18.0273-7.7832 18.3398-7.8418L19.4043-8.03711L20.0684-7.36328L20.0293-6.80664C19.9902-6.30859 20.1172-5.92773 20.6055-5.44922L21.3672-4.70703C21.8457-4.22852 22.4609-4.19922 22.9297-4.66797L25.8398-7.58789C26.3086-8.05664 26.2891-8.65234 25.8105-9.13086L25.0391-9.89258C24.5605-10.3711 24.1895-10.5273 23.7109-10.4883L23.1348-10.4395L22.4902-11.0742L22.7344-12.1973C22.8613-12.7637 22.7051-13.2031 22.1191-13.7891L19.9219-15.9766C16.582-19.2969 12.1484-19.2188 9.25781-16.3281C8.83789-15.918 8.80859-15.3418 9.04297-14.9512C9.27734-14.5898 9.73633-14.3555 10.3809-14.5215C11.8457-14.8633 13.3691-14.9219 14.7949-13.9844L14.209-12.5293C14.0137-12.0508 13.9844-11.6504 14.1113-11.2891L3.04688-0.898438C2.06055 0.0195312 1.98242 0.996094 2.8418 1.86523ZM10.752-15.957C13.1836-17.7344 16.4746-17.4316 18.7012-15.2051L21.1328-12.793C21.3672-12.5586 21.4062-12.373 21.3379-12.0312L21.0156-10.5469L22.5195-9.0625L23.5059-9.12109C23.7598-9.13086 23.8379-9.11133 24.0332-8.91602L24.6094-8.33984L22.168-5.89844L21.5918-6.47461C21.3965-6.66992 21.3672-6.74805 21.377-7.01172L21.4453-7.98828L19.9512-9.47266L18.4277-9.21875C18.1055-9.15039 17.959-9.17969 17.7148-9.41406L15.7129-11.416C15.459-11.6504 15.4297-11.8164 15.5859-12.1875L16.4648-14.2773C14.9023-15.7324 12.8711-16.3574 10.8398-15.7617C10.6836-15.7227 10.625-15.8496 10.752-15.957ZM5.27344 2.30469L4.10156 1.14258C3.63281 0.683594 3.74023 0.341797 4.14062-0.0195312L14.9512-10.1953L16.416-8.71094L6.42578 2.27539C6.07422 2.67578 5.74219 2.77344 5.27344 2.30469Z"/>
  </g>
  <text style="stroke:none;fill:black;font-family:-apple-system,&quot;SF Pro Display&quot;,&quot;SF Pro Text&quot;,Helvetica,sans-serif;font-weight:bold;" transform="matrix(1 0 0 1 1289 1953)">Exporting</text>
  <text style="stroke:none;fill:black;font-family:-apple-system,&quot;SF Pro Display&quot;,&quot;SF Pro Text&quot;,Helvetica,sans-serif;" transform="matrix(1 0 0 1 1289 1971)">Symbols should be outlined when exporting to ensure the</text>
  <text style="stroke:none;fill:black;font-family:-apple-system,&quot;SF Pro Display&quot;,&quot;SF Pro Text&quot;,Helvetica,sans-serif;" transform="matrix(1 0 0 1 1289 1989)">design is preserved when submitting to Xcode.</text>
  <text id="template-version" style="stroke:none;fill:black;font-family:-apple-system,&quot;SF Pro Display&quot;,&quot;SF Pro Text&quot;,Helvetica,sans-serif;text-anchor:end;" transform="matrix(1 0 0 1 3036 1933)">Template v.2.0</text>
  <text style="stroke:none;fill:black;font-family:-apple-system,&quot;SF Pro Display&quot;,&quot;SF Pro Text&quot;,Helvetica,sans-serif;text-anchor:end;" transform="matrix(1 0 0 1 3036 1951)">Requires Xcode 12 or greater</text>
  <text style="stroke:none;fill:black;font-family:-apple-system,&quot;SF Pro Display&quot;,&quot;SF Pro Text&quot;,Helvetica,sans-serif;text-anchor:end;" transform="matrix(1 0 0 1 3036 1969)">Generated from checkmark.shield.fill</text>
  <text style="stroke:none;fill:black;font-family:-apple-system,&quot;SF Pro Display&quot;,&quot;SF Pro Text&quot;,Helvetica,sans-serif;text-anchor:end;" transform="matrix(1 0 0 1 3036 1987)">Typeset at 100 points</text>
  <text style="stroke:none;fill:black;font-family:-apple-system,&quot;SF Pro Display&quot;,&quot;SF Pro Text&quot;,Helvetica,sans-serif;" transform="matrix(1 0 0 1 263 726)">Small</text>
  <text style="stroke:none;fill:black;font-family:-apple-system,&quot;SF Pro Display&quot;,&quot;SF Pro Text&quot;,Helvetica,sans-serif;" transform="matrix(1 0 0 1 263 1156)">Medium</text>
  <text style="stroke:none;fill:black;font-family:-apple-system,&quot;SF Pro Display&quot;,&quot;SF Pro Text&quot;,Helvetica,sans-serif;" transform="matrix(1 0 0 1 263 1586)">Large</text>
 </g>
 <g id="Guides">
  <g id="H-reference" style="fill:#27AAE1;stroke:none;" transform="matrix(1 0 0 1 339 696)">
   <path d="M0.976562 0L3.66211 0L12.9883-24.4629L45.752-24.4629L55.127 0L57.7637 0L30.6152-70.459L28.125-70.459ZM29.3457-67.1387L29.4434-67.1387L44.873-26.709L13.8672-26.709Z"/>
  </g>
  <line id="Baseline-S" style="fill:none;stroke:#27AAE1;opacity:1;stroke-width:0.5;" x1="263" x2="3036" y1="696" y2="696"/>
  <line id="Capline-S" style="fill:none;stroke:#27AAE1;opacity:1;stroke-width:0.5;" x1="263" x2="3036" y1="625.541" y2="625.541"/>
  <g id="H-reference" style="fill:#27AAE1;stroke:none;" transform="matrix(1 0 0 1 339 1126)">
   <path d="M0.976562 0L3.66211 0L12.9883-24.4629L45.752-24.4629L55.127 0L57.7637 0L30.6152-70.459L28.125-70.459ZM29.3457-67.1387L29.4434-67.1387L44.873-26.709L13.8672-26.709Z"/>
  </g>
  <line id="Baseline-M" style="fill:none;stroke:#27AAE1;opacity:1;stroke-width:0.5;" x1="263" x2="3036" y1="1126" y2="1126"/>
  <line id="Capline-M" style="fill:none;stroke:#27AAE1;opacity:1;stroke-width:0.5;" x1="263" x2="3036" y1="1055.54" y2="1055.54"/>
  <g id="H-reference" style="fill:#27AAE1;stroke:none;" transform="matrix(1 0 0 1 339 1556)">
   <path d="M0.976562 0L3.66211 0L12.9883-24.4629L45.752-24.4629L55.127 0L57.7637 0L30.6152-70.459L28.125-70.459ZM29.3457-67.1387L29.4434-67.1387L44.873-26.709L13.8672-26.709Z"/>
  </g>
  <line id="Baseline-L" style="fill:none;stroke:#27AAE1;opacity:1;stroke-width:0.5;" x1="263" x2="3036" y1="1556" y2="1556"/>
  <line id="Capline-L" style="fill:none;stroke:#27AAE1;opacity:1;stroke-width:0.5;" x1="263" x2="3036" y1="1485.54" y2="1485.54"/>
  <line id="left-margin" style="fill:none;stroke:#00AEEF;stroke-width:0.5;opacity:1.0;" x1="1390.47" x2="1390.47" y1="1030.79" y2="1150.12"/>
  <line id="right-margin" style="fill:none;stroke:#00AEEF;stroke-width:0.5;opacity:1.0;" x1="1509.22" x2="1509.22" y1="1030.79" y2="1150.12"/>
 </g>
 <g id="Symbols">
  <g id="Black-L" transform="matrix(1 0 0 1 2856.81 1556)">
   <path d="M79.0527 30.1758C80.4688 30.1758 82.3242 29.5898 84.0332 28.7598C121.094 10.8887 134.277-0.341797 134.277-23.0469L134.277-67.8711C134.277-78.0273 131.201-82.5684 122.07-86.377C116.992-88.5742 94.4336-95.8496 89.8438-97.2168C86.5234-98.1934 82.2754-98.877 79.0527-98.877C75.7812-98.877 71.5332-98.1934 68.2129-97.2168C63.623-95.9473 41.1133-88.5742 35.9863-86.377C26.9043-82.5684 23.8281-78.0273 23.8281-67.8711L23.8281-23.0469C23.8281-0.341797 37.207 10.5469 74.0234 28.7598C75.7324 29.5898 77.6367 30.1758 79.0527 30.1758ZM72.168-6.20117C68.8965-6.20117 66.2598-7.76367 64.0137-10.4492L50.0488-26.9043C48.291-29.0039 47.6562-30.7129 47.6562-32.9102C47.6562-37.5 51.4648-41.1133 56.0059-41.1133C58.6426-41.1133 60.5957-40.0391 62.4512-37.8906L72.0703-26.4648L94.873-62.5977C96.875-65.7227 99.2188-67.334 102.197-67.334C106.738-67.334 110.791-63.9648 110.791-59.375C110.791-57.6172 110.156-55.7129 108.838-53.8086L80.0781-10.5957C78.1738-7.91016 75.293-6.20117 72.168-6.20117Z"/>
  </g>
  <g id="Heavy-L" transform="matrix(1 0 0 1 2560.42 1556)">
   <path d="M77.9297 29.6875C79.248 29.6875 81.0547 29.1504 82.7148 28.3203C119.385 10.1074 132.129-0.488281 132.129-23.0469L132.129-68.457C132.129-77.7832 129.15-81.7383 120.898-85.2051C115.039-87.6953 92.8223-95.0684 87.3535-96.8262C84.4238-97.6562 80.8105-98.291 77.9297-98.291C75.0488-98.291 71.3867-97.6562 68.457-96.8262C62.9883-95.166 40.8203-87.6465 34.9121-85.2051C26.6602-81.7871 23.7305-77.7832 23.7305-68.457L23.7305-23.0469C23.7305-0.488281 36.7188 9.61914 73.0957 28.3203C74.7559 29.1504 76.5625 29.6875 77.9297 29.6875ZM70.9961-6.15234C68.0664-6.15234 65.7227-7.56836 63.6719-10.0098L49.0723-27.3438C47.5586-29.1992 46.9238-30.8105 46.9238-32.7148C46.9238-36.8164 50.293-40.0879 54.3457-40.0879C56.6895-40.0879 58.4961-39.1113 60.2539-37.0605L70.8984-24.2188L94.9707-62.4023C96.7285-65.1855 98.877-66.6016 101.514-66.6016C105.518-66.6016 109.131-63.623 109.131-59.5703C109.131-57.959 108.496-56.1523 107.324-54.4922L78.125-10.1562C76.416-7.66602 73.8281-6.15234 70.9961-6.15234Z"/>
  </g>
  <g id="Bold-L" transform="matrix(1 0 0 1 2264.05 1556)">
   <path d="M76.6602 29.1504C77.9297 29.1504 79.6387 28.6133 81.25 27.832C117.48 9.27734 129.736-0.683594 129.736-22.998L129.736-69.1406C129.736-77.5391 126.904-80.8594 119.58-83.8867C112.842-86.6699 91.0156-94.2383 84.5703-96.3379C82.0801-97.0703 79.1504-97.6074 76.6602-97.6074C74.1699-97.6074 71.1914-97.0703 68.7012-96.3379C62.2559-94.2383 40.4785-86.6699 33.7402-83.8867C26.416-80.9082 23.584-77.5391 23.584-69.1406L23.584-22.998C23.584-0.683594 36.1816 8.59375 72.0703 27.832C73.6816 28.6621 75.3906 29.1504 76.6602 29.1504ZM69.7266-6.15234C67.1875-6.15234 65.1367-7.27539 63.2812-9.52148L47.998-27.832C46.7285-29.3945 46.1426-30.8594 46.1426-32.5684C46.1426-36.084 48.9746-38.916 52.4902-38.916C54.5898-38.916 56.1523-38.0859 57.7637-36.1816L69.5801-21.6797L95.0684-62.1582C96.582-64.5508 98.4375-65.7715 100.684-65.7715C104.102-65.7715 107.227-63.2812 107.227-59.7168C107.227-58.3008 106.592-56.6895 105.615-55.2246L75.9277-9.61914C74.4141-7.42188 72.2168-6.15234 69.7266-6.15234Z"/>
  </g>
  <g id="Semibold-L" transform="matrix(1 0 0 1 1967.58 1556)">
   <path d="M75.7812 28.7598C77.002 28.7598 78.6621 28.2715 80.2246 27.4414C116.211 8.64258 128.076-0.830078 128.076-22.9492L128.076-69.5801C128.076-77.3438 125.342-80.2246 118.652-83.0078C111.328-85.9863 89.7949-93.6035 82.666-95.9961C80.4688-96.6797 77.9785-97.1191 75.7812-97.1191C73.584-97.1191 71.0938-96.6309 68.8965-95.9961C61.7676-93.6523 40.2344-85.9375 32.9102-83.0078C26.2207-80.2734 23.4863-77.3438 23.4863-69.5801L23.4863-22.9492C23.4863-0.830078 35.8398 7.86133 71.3867 27.4414C72.9492 28.3203 74.6094 28.7598 75.7812 28.7598ZM68.8477-6.10352C66.5527-6.10352 64.7461-7.08008 63.0371-9.17969L47.2656-28.125C46.1426-29.541 45.6055-30.957 45.6055-32.4707C45.6055-35.5957 48.0957-38.0859 51.2207-38.0859C53.0762-38.0859 54.541-37.4023 56.0059-35.5469L68.6523-19.9219L95.166-62.0117C96.4844-64.1113 98.1934-65.1855 100.146-65.1855C103.174-65.1855 105.957-63.0371 105.957-59.8633C105.957-58.4961 105.322-57.0312 104.443-55.7129L74.4141-9.27734C73.0469-7.22656 71.0938-6.10352 68.8477-6.10352Z"/>
  </g>
  <g id="Medium-L" transform="matrix(1 0 0 1 1671.07 1556)">
   <path d="M75.1465 28.4668C76.2695 28.4668 77.8809 27.9785 79.4434 27.1973C115.186 8.20312 126.807-0.927734 126.807-22.9492L126.807-69.9707C126.807-77.1973 124.17-79.7363 117.969-82.3242C110.205-85.4492 88.8672-93.1641 81.2012-95.752C79.248-96.3867 77.1484-96.7773 75.1465-96.7773C73.1445-96.7773 70.9961-96.3379 69.043-95.752C61.377-93.1641 40.0391-85.4492 32.2754-82.3242C26.0742-79.834 23.4375-77.1973 23.4375-69.9707L23.4375-22.9492C23.4375-0.927734 35.5469 7.32422 70.8008 27.1973C72.3633 28.0273 73.9746 28.4668 75.1465 28.4668ZM68.1641-6.05469C66.0645-6.05469 64.4043-6.98242 62.8418-8.93555L46.6797-28.418C45.7031-29.6387 45.166-30.957 45.166-32.373C45.166-35.2051 47.4121-37.5 50.2441-37.5C51.9531-37.5 53.3203-36.8652 54.7363-35.0586L67.9688-18.6035L95.2148-61.9141C96.3867-63.7695 97.998-64.7949 99.707-64.7949C102.441-64.7949 104.98-62.8418 104.98-59.9609C104.98-58.6914 104.297-57.2754 103.564-56.1035L73.291-8.98438C72.0215-7.08008 70.2637-6.05469 68.1641-6.05469Z"/>
  </g>
  <g id="Regular-L" transform="matrix(1 0 0 1 1374.58 1556)">
   <path d="M74.2676 28.125C75.3906 28.125 76.9043 27.6367 78.418 26.8555C113.916 7.61719 125.195-1.07422 125.195-22.9004L125.195-70.4102C125.195-77.002 122.607-79.1504 117.041-81.4453C108.691-84.7656 87.6465-92.5781 79.2969-95.4102C77.6367-95.9473 75.9766-96.3379 74.2676-96.3379C72.5586-96.3379 70.8984-95.8984 69.2383-95.4102C60.8887-92.5781 39.8438-84.7168 31.4941-81.4453C25.9277-79.248 23.3398-77.002 23.3398-70.4102L23.3398-22.9004C23.3398-1.07422 35.2051 6.64062 70.1172 26.8555C71.582 27.6855 73.1445 28.125 74.2676 28.125ZM67.334-6.05469C65.4297-6.05469 64.0137-6.78711 62.5977-8.64258L45.9473-28.7109C45.1172-29.7852 44.6289-31.0547 44.6289-32.2754C44.6289-34.7168 46.5332-36.6699 48.9746-36.6699C50.4883-36.6699 51.709-36.1328 53.0273-34.4238L67.0898-16.8457L95.3125-61.7676C96.2891-63.3789 97.7051-64.209 99.1699-64.209C101.514-64.209 103.711-62.5488 103.711-60.1074C103.711-58.9355 103.027-57.666 102.393-56.5918L71.7773-8.64258C70.6543-6.88477 69.1406-6.05469 67.334-6.05469Z"/>
  </g>
  <g id="Light-L" transform="matrix(1 0 0 1 1079.7 1556)">
   <path d="M72.8027 27.7832C74.0234 27.7832 75.6348 27.1973 76.9531 26.4648C111.963 6.54297 122.9-1.2207 122.9-22.0215L122.9-69.4336C122.9-76.2207 120.654-78.418 114.648-80.8105C104.932-84.5703 87.3535-91.3086 77.6367-94.6289C76.0254-95.2148 74.4629-95.5566 72.8027-95.5566C71.1426-95.5566 69.6289-95.166 67.9688-94.6289C58.3008-91.1621 40.6738-84.5703 31.0059-80.8105C25-78.4668 22.7539-76.2207 22.7539-69.4336L22.7539-22.0215C22.7539-1.2207 34.1309 5.71289 68.7012 26.4648C70.0195 27.1973 71.582 27.7832 72.8027 27.7832ZM65.9668-6.34766C64.5508-6.34766 63.4766-6.88477 62.4023-8.25195L44.6289-29.3457C43.9941-30.1758 43.6035-31.1523 43.6035-32.0801C43.6035-33.9844 45.0684-35.4492 46.9238-35.4492C48.0957-35.4492 49.0723-35.0098 50-33.7891L65.7715-14.7461L95.8008-61.9629C96.582-63.1348 97.6562-63.8184 98.7793-63.8184C100.537-63.8184 102.197-62.5 102.197-60.6445C102.197-59.8145 101.758-58.8379 101.27-58.0078L69.3848-8.25195C68.5059-7.03125 67.334-6.34766 65.9668-6.34766Z"/>
  </g>
  <g id="Thin-L" transform="matrix(1 0 0 1 785.402 1556)">
   <path d="M70.8984 27.3438C72.2656 27.3438 73.877 26.5625 75 25.9277C109.424 5.07812 119.824-1.36719 119.824-20.8496L119.824-68.1641C119.824-75.0977 118.018-77.4414 111.426-79.9805C100-84.3262 86.9629-89.5996 75.4395-93.6035C73.8281-94.1895 72.4609-94.5801 70.8984-94.5801C69.3359-94.5801 67.9199-94.1406 66.3086-93.6035C54.8828-89.3066 41.7969-84.3262 30.3223-79.9805C23.7305-77.4902 21.9238-75.0977 21.9238-68.1641L21.9238-20.8496C21.9238-1.36719 32.7148 4.54102 66.7969 25.9277C67.8711 26.5625 69.4824 27.3438 70.8984 27.3438ZM64.1602-6.78711C63.3301-6.78711 62.793-7.08008 62.1582-7.8125L42.8711-30.127C42.4805-30.7129 42.1875-31.2988 42.1875-31.8848C42.1875-33.0078 43.1641-33.8379 44.1895-33.8379C44.9219-33.8379 45.5078-33.5449 46.0449-32.9102L64.0625-11.9629L96.4355-62.207C96.9238-62.8418 97.6074-63.3301 98.2422-63.3301C99.2676-63.3301 100.244-62.4023 100.244-61.377C100.244-60.9375 100.049-60.3516 99.8047-59.9121L66.1621-7.8125C65.5762-7.17773 64.9902-6.78711 64.1602-6.78711Z"/>
  </g>
  <g id="Ultralight-L" transform="matrix(1 0 0 1 489.936 1556)">
   <path d="M69.9219 27.0996C71.3867 27.0996 72.998 26.2695 73.9746 25.6348C108.105 4.3457 118.262-1.46484 118.262-20.2637L118.262-67.5293C118.262-74.5605 116.699-76.9043 109.814-79.541C97.4609-84.1797 86.7676-88.7207 74.3164-93.0664C72.7539-93.6523 71.3867-94.043 69.9219-94.043C68.4082-94.043 67.041-93.6523 65.4785-93.0664C53.125-88.3789 42.334-84.1797 29.9805-79.541C23.0957-77.002 21.5332-74.5605 21.5332-67.5293L21.5332-20.2637C21.5332-1.46484 31.9824 3.90625 65.8203 25.6348C66.7969 26.2695 68.4082 27.0996 69.9219 27.0996ZM63.2812-6.98242C62.6953-6.98242 62.4023-7.17773 62.0605-7.56836L41.9434-30.5664C41.6992-30.957 41.5039-31.3477 41.5039-31.7383C41.5039-32.5195 42.1387-33.0078 42.7734-33.0078C43.3105-33.0078 43.7012-32.8125 43.9941-32.4707L63.1836-10.5469L96.7773-62.3535C97.0703-62.6953 97.5586-63.0371 97.998-63.0371C98.6328-63.0371 99.2676-62.3535 99.2676-61.7676C99.2676-61.5234 99.1699-61.1328 99.0723-60.8887L64.502-7.56836C64.1113-7.22656 63.7695-6.98242 63.2812-6.98242Z"/>
  </g>
  <g id="Black-M" transform="matrix(1 0 0 1 2874.61 1126)">
   <path d="M62.0117 15.9668C63.2812 15.9668 64.8438 15.3809 66.1621 14.7461C95.0684 0.976562 105.713-8.00781 105.713-25.3906L105.713-59.2285C105.713-68.2617 103.369-72.6074 94.9707-76.123C91.3086-77.6855 75.1953-82.6172 72.1191-83.4473C69.043-84.3262 64.9902-84.9609 62.0117-84.9609C59.0332-84.9609 54.9805-84.3262 51.9043-83.4473C48.8281-82.5684 32.7148-77.6855 29.1016-76.123C20.6543-72.6074 18.3105-68.2617 18.3105-59.2285L18.3105-25.3906C18.3105-8.00781 28.9062 1.02539 57.8613 14.7461C59.1797 15.3809 60.7422 15.9668 62.0117 15.9668ZM56.7383-12.9883C53.9551-12.9883 51.7578-14.3555 49.9512-16.4062L39.4043-28.5156C37.8418-30.3223 37.3047-31.6895 37.3047-33.5449C37.3047-37.5 40.6738-40.5762 44.5312-40.5762C46.7285-40.5762 48.3887-39.5996 49.8047-38.0859L56.7383-30.3711L73.6328-56.7871C75.3906-59.4727 77.3438-60.8887 79.9805-60.8887C83.8867-60.8887 87.3535-57.9102 87.3535-54.0039C87.3535-52.6367 86.9629-51.0742 85.8398-49.5117L63.3789-16.6016C61.8164-14.4043 59.375-12.9883 56.7383-12.9883Z"/>
  </g>
  <g id="Heavy-M" transform="matrix(1 0 0 1 2577.75 1126)">
   <path d="M61.1816 15.4785C62.3047 15.4785 63.7695 14.9902 65.0879 14.3555C93.75 0.439453 103.955-8.1543 103.955-25.5859L103.955-60.1074C103.955-68.2129 101.66-71.9238 94.2871-75C90.1367-76.7578 73.5352-82.0801 69.8242-83.2031C67.1875-83.9355 63.7695-84.5215 61.1816-84.5215C58.5938-84.5215 55.1758-83.9355 52.4902-83.2031C48.7793-82.0801 32.1777-76.7578 28.0273-75C20.6543-71.9238 18.3594-68.2129 18.3594-60.1074L18.3594-25.5859C18.3594-8.1543 28.6621 0.244141 57.2266 14.3555C58.5449 14.9902 60.0098 15.4785 61.1816 15.4785ZM55.8594-12.8418C53.3203-12.8418 51.3184-14.0625 49.6582-16.0156L38.6719-28.8086C37.3047-30.4688 36.8164-31.7383 36.8164-33.3984C36.8164-36.9629 39.7461-39.7461 43.2617-39.7461C45.2637-39.7461 46.7773-38.916 48.1445-37.3535L55.8105-28.418L73.6328-56.543C75.1953-58.9355 76.9531-60.1562 79.2969-60.1562C82.7637-60.1562 85.8887-57.5684 85.8887-54.0527C85.8887-52.7344 85.4492-51.2695 84.4727-49.8535L61.8652-16.1621C60.4492-14.1113 58.252-12.8418 55.8594-12.8418Z"/>
  </g>
  <g id="Bold-M" transform="matrix(1 0 0 1 2280.9 1126)">
   <path d="M60.2051 14.9902C61.2305 14.9902 62.5977 14.5508 63.8672 13.916C92.2363-0.195312 102.051-8.34961 102.051-25.7812L102.051-61.1328C102.051-68.1641 99.7559-71.1426 93.5059-73.7305C88.8672-75.7324 71.6797-81.4941 67.2852-82.8613C65.0879-83.5449 62.4023-83.9844 60.2051-83.9844C58.0566-83.9844 55.3223-83.4961 53.125-82.8613C48.7305-81.543 31.5918-75.6836 26.9043-73.7305C20.6543-71.1426 18.4082-68.1641 18.4082-61.1328L18.4082-25.7812C18.4082-8.34961 28.418-0.634766 56.543 13.916C57.8125 14.5996 59.1797 14.9902 60.2051 14.9902ZM54.834-12.6953C52.6367-12.6953 50.8301-13.7207 49.3164-15.625L37.8906-29.1992C36.7188-30.5664 36.2793-31.7871 36.2793-33.252C36.2793-36.377 38.7695-38.8184 41.8457-38.8184C43.6523-38.8184 45.0195-38.0859 46.2891-36.5234L54.7363-26.2695L73.6328-56.25C74.9512-58.3496 76.5625-59.375 78.5156-59.375C81.543-59.375 84.2773-57.1777 84.2773-54.1016C84.2773-52.8809 83.7891-51.5137 82.9102-50.2441L60.2051-15.7227C58.9355-13.8184 56.9824-12.6953 54.834-12.6953Z"/>
  </g>
  <g id="Semibold-M" transform="matrix(1 0 0 1 1984.09 1126)">
   <path d="M59.5703 14.6484C60.498 14.6484 61.8164 14.2578 63.0859 13.623C91.2109-0.634766 100.684-8.44727 100.684-25.9277L100.684-61.8164C100.684-68.1152 98.4375-70.6055 93.0176-72.9004C87.9395-75 70.3613-81.1035 65.5273-82.666C63.6719-83.252 61.4258-83.6426 59.5703-83.6426C57.666-83.6426 55.4688-83.2031 53.6133-82.666C48.7305-81.1523 31.1523-74.9512 26.0742-72.9004C20.6543-70.6543 18.4082-68.1152 18.4082-61.8164L18.4082-25.9277C18.4082-8.44727 28.2227-1.2207 56.0547 13.623C57.3242 14.3066 58.6426 14.6484 59.5703 14.6484ZM54.1504-12.5977C52.0996-12.5977 50.5371-13.5254 49.0723-15.332L37.3535-29.4434C36.3281-30.6641 35.8887-31.8359 35.8887-33.2031C35.8887-35.9375 38.0859-38.1836 40.8691-38.1836C42.4805-38.1836 43.75-37.5488 45.0195-35.9375L54.0039-24.8047L73.6328-56.0059C74.8047-57.9102 76.2695-58.8379 77.9785-58.8379C80.7129-58.8379 83.1543-56.9336 83.1543-54.1504C83.1543-52.9785 82.6172-51.6602 81.8359-50.4883L59.0332-15.3809C57.8613-13.5742 56.1035-12.5977 54.1504-12.5977Z"/>
  </g>
  <g id="Medium-M" transform="matrix(1 0 0 1 1687.3 1126)">
   <path d="M59.0332 14.4043C59.9121 14.4043 61.1816 14.0625 62.4512 13.4277C90.4297-0.976562 99.707-8.54492 99.707-26.0742L99.707-62.3535C99.707-68.1152 97.4609-70.2148 92.627-72.2168C87.2559-74.4629 69.3848-80.7617 64.1602-82.5195C62.5488-83.0078 60.7422-83.3496 59.0332-83.3496C57.373-83.3496 55.5664-83.0078 53.9551-82.5195C48.6816-80.8594 30.8105-74.4141 25.4883-72.2168C20.6543-70.2637 18.4082-68.1152 18.4082-62.3535L18.4082-26.0742C18.4082-8.54492 28.0762-1.66016 55.6641 13.4277C56.9336 14.1113 58.2031 14.4043 59.0332 14.4043ZM53.6133-12.5488C51.7578-12.5488 50.2441-13.3301 48.877-15.0879L36.9141-29.5898C36.0352-30.7129 35.5957-31.8848 35.5957-33.1055C35.5957-35.6445 37.5977-37.6953 40.0879-37.6953C41.6504-37.6953 42.8223-37.1094 44.0918-35.5469L53.4668-23.6816L73.584-55.8594C74.6582-57.5684 76.0254-58.4473 77.5879-58.4473C80.0293-58.4473 82.3242-56.7383 82.3242-54.1504C82.3242-53.0273 81.7383-51.8066 81.0547-50.6836L58.1543-15.1367C57.0312-13.4277 55.4688-12.5488 53.6133-12.5488Z"/>
  </g>
  <g id="Regular-M" transform="matrix(1 0 0 1 1390.47 1126)">
   <path d="M58.3984 14.0625C59.1797 14.0625 60.4004 13.7695 61.6211 13.1348C89.4043-1.41602 98.3398-8.69141 98.3398-26.2207L98.3398-63.0371C98.3398-68.0664 96.1914-69.6777 92.0898-71.3867C86.377-73.7305 68.1152-80.3711 62.4512-82.3242C61.1328-82.7637 59.7656-83.0078 58.3984-83.0078C57.0312-83.0078 55.6641-82.7148 54.3945-82.3242C48.6816-80.4688 30.4199-73.6816 24.707-71.3867C20.6543-69.7266 18.457-68.0664 18.457-63.0371L18.457-26.2207C18.457-8.69141 27.8809-2.24609 55.1758 13.1348C56.4453 13.8184 57.6172 14.0625 58.3984 14.0625ZM52.9297-12.4512C51.2695-12.4512 49.9023-13.0859 48.6328-14.7949L36.377-29.834C35.6445-30.8105 35.2051-31.9336 35.2051-33.0078C35.2051-35.2539 36.9141-37.0605 39.1602-37.0605C40.5273-37.0605 41.6016-36.5723 42.8223-34.9609L52.7344-22.168L73.584-55.6641C74.5117-57.1777 75.7812-57.9102 77.0996-57.9102C79.1992-57.9102 81.2012-56.4453 81.2012-54.1992C81.2012-53.0762 80.6152-51.9531 79.9805-50.9766L57.0312-14.7949C56.0059-13.2324 54.5898-12.4512 52.9297-12.4512Z"/>
  </g>
  <g id="Light-M" transform="matrix(1 0 0 1 1095.42 1126)">
   <path d="M57.0801 13.7695C57.959 13.7695 59.1797 13.3301 60.3027 12.7441C87.6465-2.39258 96.2891-8.78906 96.2891-25.3906L96.2891-62.1582C96.2891-67.334 94.3848-69.043 89.9414-70.8008C83.0078-73.584 67.8223-79.248 60.9375-81.5918C59.668-82.0312 58.3984-82.3242 57.0801-82.3242C55.7617-82.3242 54.541-82.0312 53.2227-81.5918C46.3379-79.1992 31.1523-73.5352 24.2676-70.8008C19.7754-69.0918 17.9199-67.334 17.9199-62.1582L17.9199-25.3906C17.9199-8.78906 26.9531-3.07617 53.8574 12.7441C54.9805 13.3789 56.2012 13.7695 57.0801 13.7695ZM51.709-12.6953C50.4395-12.6953 49.4629-13.2324 48.4375-14.502L35.2051-30.3711C34.6191-31.1523 34.2773-32.0312 34.2773-32.8613C34.2773-34.5703 35.5957-35.9375 37.3047-35.9375C38.3789-35.9375 39.209-35.5957 40.0879-34.375L51.5625-20.3125L74.0234-55.8594C74.707-56.9824 75.7324-57.5684 76.709-57.5684C78.3691-57.5684 79.8828-56.3965 79.8828-54.6875C79.8828-53.8574 79.4434-52.9785 79.0039-52.2461L54.834-14.502C54.0527-13.3301 53.0273-12.6953 51.709-12.6953Z"/>
  </g>
  <g id="Thin-M" transform="matrix(1 0 0 1 800.856 1126)">
   <path d="M55.3223 13.3301C56.3965 13.3301 57.6172 12.793 58.5449 12.2559C85.3516-3.66211 93.5059-8.93555 93.5059-24.3652L93.5059-61.0352C93.5059-66.3574 92.041-68.1641 87.0117-70.0684C78.5645-73.3398 67.4805-77.7344 58.9355-80.7129C57.666-81.1523 56.543-81.4453 55.3223-81.4453C54.1016-81.4453 52.9785-81.1035 51.709-80.7129C43.2617-77.5391 32.1289-73.3398 23.6328-70.0684C18.6523-68.2129 17.1387-66.3574 17.1387-61.0352L17.1387-24.3652C17.1387-8.93555 25.6348-4.15039 52.1484 12.2559C53.0273 12.793 54.2969 13.3301 55.3223 13.3301ZM50.1465-13.0859C49.3164-13.0859 48.8281-13.3789 48.2422-14.0625L33.5938-31.1035C33.252-31.6406 33.0078-32.1289 33.0078-32.666C33.0078-33.7402 33.8867-34.5215 34.8145-34.5215C35.498-34.5215 36.0352-34.2773 36.5234-33.6426L50.0488-17.8223L74.6094-56.1035C75.0488-56.6895 75.6348-57.0801 76.2695-57.0801C77.1973-57.0801 78.125-56.2988 78.125-55.3223C78.125-54.8828 77.8809-54.3457 77.6855-53.9551L51.9531-14.0625C51.4648-13.4277 50.8789-13.0859 50.1465-13.0859Z"/>
  </g>
  <g id="Ultralight-M" transform="matrix(1 0 0 1 505.268 1126)">
   <path d="M54.4434 13.1348C55.5664 13.1348 56.8359 12.5 57.6172 12.0117C84.1309-4.3457 92.0898-9.0332 92.0898-23.8281L92.0898-60.4492C92.0898-65.8691 90.8203-67.6758 85.5469-69.6777C76.2695-73.1934 67.2852-76.9531 57.9102-80.2246C56.6895-80.6641 55.6152-80.957 54.4434-80.957C53.2715-80.957 52.1973-80.6641 50.9766-80.2246C41.6504-76.709 32.6172-73.1934 23.3398-69.6777C18.0664-67.7734 16.7969-65.8691 16.7969-60.4492L16.7969-23.8281C16.7969-9.0332 25-4.6875 51.2695 12.0117C52.0508 12.5 53.3203 13.1348 54.4434 13.1348ZM49.3164-13.2812C48.7793-13.2812 48.4863-13.4766 48.1445-13.8672L32.8125-31.4941C32.5684-31.8359 32.373-32.2266 32.373-32.5684C32.373-33.3008 32.959-33.7891 33.5938-33.7891C34.0332-33.7891 34.4238-33.5938 34.7168-33.252L49.2676-16.5039L74.9023-56.2012C75.1953-56.543 75.6348-56.8848 76.0254-56.8848C76.6113-56.8848 77.2461-56.25 77.2461-55.6641C77.2461-55.4199 77.0996-55.0781 77.002-54.834L50.4883-13.8672C50.1465-13.5254 49.8047-13.2812 49.3164-13.2812Z"/>
  </g>
  <g id="Black-S" transform="matrix(1 0 0 1 2887.31 696)">
   <path d="M48.5352 4.83398C49.5117 4.83398 50.7324 4.39453 51.7578 3.90625C74.4141-6.88477 82.7148-13.916 82.7148-27.5391L82.7148-54.1016C82.7148-61.1328 80.8594-64.4531 74.3652-67.1875C71.4844-68.4082 58.7891-72.3145 56.3477-72.998C53.9551-73.6816 50.8301-74.1699 48.5352-74.1699C46.2402-74.1699 43.1152-73.6816 40.7227-72.998C38.2812-72.3145 25.5859-68.4082 22.7051-67.1875C16.2109-64.4531 14.3555-61.1328 14.3555-54.1016L14.3555-27.5391C14.3555-13.916 22.6562-6.88477 45.3125 3.90625C46.3379 4.39453 47.5586 4.83398 48.5352 4.83398ZM44.3848-17.7734C42.2363-17.7734 40.5273-18.8477 39.1113-20.459L30.8105-29.9805C29.5898-31.3965 29.1992-32.4707 29.1992-33.8867C29.1992-36.9629 31.7871-39.3555 34.8145-39.3555C36.5234-39.3555 37.793-38.623 38.916-37.4023L44.3848-31.2988L57.666-52.0996C59.0332-54.1992 60.5469-55.2734 62.5977-55.2734C65.625-55.2734 68.3105-52.9785 68.3105-49.9512C68.3105-48.877 68.0176-47.6562 67.1387-46.4355L49.5605-20.6055C48.3398-18.8965 46.4355-17.7734 44.3848-17.7734Z"/>
  </g>
  <g id="Heavy-S" transform="matrix(1 0 0 1 2590.3 696)">
   <path d="M48.0469 4.54102C48.877 4.54102 50.0488 4.15039 51.0742 3.66211C73.584-7.22656 81.5918-14.0137 81.5918-27.7832L81.5918-54.8828C81.5918-61.1816 79.7363-64.0137 74.0723-66.4062C70.9473-67.7246 57.5195-72.0215 54.7363-72.8516C52.6855-73.4863 50.0488-73.877 48.0469-73.877C45.9961-73.877 43.3594-73.4375 41.3086-72.8516C38.5254-72.0703 25.0977-67.7246 21.9727-66.4062C16.3086-64.0137 14.4531-61.1816 14.4531-54.8828L14.4531-27.7832C14.4531-14.0137 22.5586-7.37305 44.9707 3.66211C45.9961 4.15039 47.168 4.54102 48.0469 4.54102ZM43.8477-17.627C41.8457-17.627 40.2344-18.6035 38.8672-20.2148L30.4199-30.1758C29.2969-31.4453 28.9062-32.5195 28.9062-33.7891C28.9062-36.6211 31.25-38.8672 34.0332-38.8672C35.6445-38.8672 36.8164-38.1836 37.9395-36.9141L43.7988-30.0293L57.6172-51.8555C58.8379-53.8086 60.2539-54.7852 62.1094-54.7852C64.8926-54.7852 67.334-52.7344 67.334-49.9023C67.334-48.877 66.9922-47.7051 66.2109-46.5332L48.6328-20.3125C47.5098-18.6523 45.752-17.627 43.8477-17.627Z"/>
  </g>
  <g id="Bold-S" transform="matrix(1 0 0 1 2293.27 696)">
   <path d="M47.4609 4.19922C48.1934 4.19922 49.3164 3.85742 50.3418 3.36914C72.6562-7.56836 80.3711-14.1602 80.3711-28.0273L80.3711-55.7617C80.3711-61.2305 78.5156-63.4766 73.7793-65.5273C70.4102-66.9434 56.1035-71.7285 52.9785-72.7051C51.2695-73.2422 49.1699-73.584 47.4609-73.584C45.752-73.584 43.6523-73.1934 41.9434-72.7051C38.7695-71.8262 24.5117-66.9434 21.1426-65.5273C16.4062-63.5254 14.5508-61.2305 14.5508-55.7617L14.5508-28.0273C14.5508-14.1602 22.4609-7.95898 44.5801 3.36914C45.6055 3.90625 46.6797 4.19922 47.4609 4.19922ZM43.2129-17.4805C41.4062-17.4805 39.9414-18.3594 38.623-19.9219L29.9316-30.3711C29.0039-31.4941 28.6133-32.5195 28.6133-33.7402C28.6133-36.2305 30.6641-38.2812 33.2031-38.2812C34.668-38.2812 35.791-37.6953 36.8652-36.377L43.1152-28.6133L57.5684-51.6113C58.6426-53.3691 59.9609-54.1992 61.5723-54.1992C64.0625-54.1992 66.2598-52.4414 66.2598-49.9023C66.2598-48.877 65.8691-47.7539 65.1367-46.6797L47.6562-20.0195C46.582-18.4082 44.9707-17.4805 43.2129-17.4805Z"/>
  </g>
  <g id="Semibold-S" transform="matrix(1 0 0 1 1996.34 696)">
   <path d="M47.0703 3.95508C47.7539 3.95508 48.7793 3.66211 49.8047 3.17383C71.9727-7.8125 79.541-14.209 79.541-28.2227L79.541-56.3965C79.541-61.2793 77.6855-63.1348 73.584-64.8926C69.9707-66.4062 55.1758-71.5332 51.7578-72.6074C50.293-73.0957 48.5352-73.3887 47.0703-73.3887C45.5566-73.3887 43.7988-73.0469 42.3828-72.6074C38.916-71.6309 24.1211-66.4062 20.5566-64.8926C16.4551-63.1836 14.5996-61.2793 14.5996-56.3965L14.5996-28.2227C14.5996-14.209 22.4121-8.34961 44.2871 3.17383C45.3613 3.71094 46.3867 3.95508 47.0703 3.95508ZM42.7734-17.3828C41.0645-17.3828 39.6973-18.1641 38.4766-19.7266L29.6387-30.5176C28.7598-31.543 28.418-32.5684 28.418-33.6914C28.418-35.9863 30.2734-37.8906 32.5684-37.8906C33.9844-37.8906 35.0586-37.3535 36.1328-35.9863L42.6758-27.6367L57.5195-51.4648C58.4961-53.0273 59.7656-53.8574 61.1816-53.8574C63.4766-53.8574 65.5273-52.2461 65.5273-49.8535C65.5273-48.877 65.0879-47.7539 64.4043-46.7773L46.9238-19.7754C45.9473-18.2617 44.4824-17.3828 42.7734-17.3828Z"/>
  </g>
  <g id="Medium-S" transform="matrix(1 0 0 1 1699.46 696)">
   <path d="M46.7773 3.75977C47.3633 3.75977 48.3887 3.56445 49.4141 3.02734C71.4844-8.00781 78.8574-14.3066 78.8574-28.3691L78.8574-56.8359C78.8574-61.2793 77.002-62.8906 73.3887-64.4531C69.6777-66.0156 54.4434-71.3867 50.8301-72.5586C49.5605-72.9492 48.0957-73.1934 46.7773-73.1934C45.4102-73.1934 43.9453-72.9004 42.6758-72.5586C39.0625-71.4844 23.8281-65.9668 20.1172-64.4531C16.5039-62.9395 14.6484-61.2793 14.6484-56.8359L14.6484-28.3691C14.6484-14.3066 22.3633-8.64258 44.0918 3.02734C45.166 3.56445 46.1426 3.75977 46.7773 3.75977ZM42.4805-17.334C40.8691-17.334 39.5508-18.0176 38.3301-19.5801L29.3945-30.6152C28.6133-31.543 28.2227-32.5684 28.2227-33.6426C28.2227-35.791 29.9316-37.5977 32.1289-37.5977C33.4473-37.5977 34.4727-37.1094 35.5469-35.6934L42.334-26.9043L57.4707-51.3184C58.3984-52.832 59.5703-53.5645 60.8887-53.5645C63.0371-53.5645 64.9902-52.0996 64.9902-49.8535C64.9902-48.877 64.4531-47.8027 63.8672-46.8262L46.3867-19.6289C45.459-18.1152 44.0918-17.334 42.4805-17.334Z"/>
  </g>
  <g id="Regular-S" transform="matrix(1 0 0 1 1402.53 696)">
   <path d="M46.3867 3.51562C46.9238 3.51562 47.8516 3.36914 48.9258 2.83203C70.8496-8.25195 78.0273-14.3555 78.0273-28.5156L78.0273-57.4219C78.0273-61.3281 76.1719-62.5488 73.1934-63.8184C69.2871-65.4785 53.4668-71.1426 49.6094-72.4609C48.584-72.8027 47.4609-72.998 46.3867-72.998C45.2637-72.998 44.1406-72.7539 43.1152-72.4609C39.209-71.2891 23.4375-65.4297 19.5312-63.8184C16.5527-62.5977 14.6973-61.3281 14.6973-57.4219L14.6973-28.5156C14.6973-14.3555 22.3145-9.0332 43.8477 2.83203C44.873 3.41797 45.8008 3.51562 46.3867 3.51562ZM42.041-17.2363C40.5273-17.2363 39.3066-17.8223 38.1348-19.3848L29.0527-30.7617C28.418-31.5918 28.0273-32.5684 28.0273-33.5938C28.0273-35.5469 29.541-37.207 31.543-37.207C32.7637-37.207 33.7402-36.7676 34.8145-35.3027L41.8457-25.9277L57.4219-51.1719C58.252-52.4902 59.375-53.1738 60.5469-53.1738C62.4512-53.1738 64.2578-51.9043 64.2578-49.8535C64.2578-48.8281 63.6719-47.8027 63.1348-46.9238L45.7031-19.3848C44.8242-17.9199 43.5547-17.2363 42.041-17.2363Z"/>
  </g>
  <g id="Light-S" transform="matrix(1 0 0 1 1107.28 696)">
   <path d="M45.2148 3.27148C45.8496 3.27148 46.8262 2.97852 47.7051 2.49023C69.3359-9.13086 76.2207-14.4531 76.2207-27.832L76.2207-56.6895C76.2207-60.6445 74.6094-61.9629 71.2891-63.3301C66.3086-65.332 53.2227-70.166 48.291-71.8262C47.2656-72.168 46.2402-72.4121 45.2148-72.4121C44.1406-72.4121 43.1152-72.168 42.1387-71.8262C37.1582-70.166 24.1211-65.2832 19.1406-63.3301C15.8203-62.0117 14.209-60.6445 14.209-56.6895L14.209-27.832C14.209-14.4531 21.4355-9.7168 42.6758 2.49023C43.6035 3.02734 44.5312 3.27148 45.2148 3.27148ZM40.9668-17.4805C39.7949-17.4805 38.916-17.9199 37.9883-19.0918L28.0273-31.25C27.4902-31.8848 27.1973-32.666 27.1973-33.4473C27.1973-34.9609 28.3691-36.2305 29.8828-36.2305C30.8594-36.2305 31.6406-35.8887 32.4219-34.8145L40.8203-24.2676L57.8125-51.3184C58.4473-52.3438 59.3262-52.8809 60.2539-52.8809C61.7188-52.8809 63.0859-51.8555 63.0859-50.293C63.0859-49.5605 62.6465-48.7305 62.2559-48.0957L43.7988-19.0918C43.0664-18.0176 42.1387-17.4805 40.9668-17.4805Z"/>
  </g>
  <g id="Thin-S" transform="matrix(1 0 0 1 812.477 696)">
   <path d="M43.6523 2.92969C44.4824 2.92969 45.4102 2.49023 46.1914 2.09961C67.2852-10.2539 73.7793-14.5996 73.7793-26.9043L73.7793-55.6641C73.7793-59.8145 72.5098-61.1816 68.7012-62.6953C62.3535-65.1367 52.9297-68.7988 46.5332-71.0449C45.5566-71.3867 44.6289-71.582 43.6523-71.582C42.6758-71.582 41.7969-71.3379 40.8203-71.0449C34.4727-68.7012 24.9512-65.1367 18.6035-62.6953C14.7949-61.2305 13.5742-59.8145 13.5742-55.6641L13.5742-26.9043C13.5742-14.5996 20.3125-10.6934 41.1621 2.09961C41.8945 2.53906 42.8711 2.92969 43.6523 2.92969ZM39.5508-17.8223C38.8672-17.8223 38.3301-18.0664 37.8418-18.75L26.6113-31.8848C26.3184-32.3242 26.0742-32.7637 26.0742-33.252C26.0742-34.2285 26.8555-34.9609 27.7344-34.9609C28.3691-34.9609 28.8086-34.7168 29.2969-34.1309L39.502-22.0703L58.3008-51.5137C58.6914-52.0996 59.2773-52.4414 59.8145-52.4414C60.6934-52.4414 61.5234-51.7578 61.5234-50.8301C61.5234-50.4395 61.3281-49.9512 61.084-49.5605L41.2598-18.75C40.8203-18.1152 40.2344-17.8223 39.5508-17.8223Z"/>
  </g>
  <g id="Ultralight-S" transform="matrix(1 0 0 1 516.767 696)">
   <path d="M42.8711 2.73438C43.75 2.73438 44.7266 2.24609 45.3613 1.85547C66.2598-10.8398 72.5586-14.6973 72.5586-26.416L72.5586-55.127C72.5586-59.375 71.4844-60.791 67.4316-62.3535C60.3516-65.0391 52.7344-68.1152 45.6543-70.6055C44.6777-70.9473 43.8477-71.1914 42.8711-71.1914C41.9434-71.1914 41.1133-70.9473 40.1367-70.6055C33.0566-67.9688 25.4395-64.9902 18.3594-62.3535C14.3066-60.8398 13.2324-59.375 13.2324-55.127L13.2324-26.416C13.2324-14.6973 19.7266-11.1816 40.3809 1.85547C41.0645 2.24609 42.041 2.73438 42.8711 2.73438ZM38.8184-17.9688C38.3301-17.9688 38.0371-18.1641 37.6953-18.5547L25.8789-32.1777C25.6836-32.5195 25.5371-32.8613 25.5371-33.1543C25.5371-33.8379 26.0742-34.2773 26.6113-34.2773C27.0508-34.2773 27.3926-34.1309 27.6855-33.7891L38.7695-20.8984L58.5938-51.6113C58.8379-52.002 59.2285-52.2461 59.6191-52.2461C60.1562-52.2461 60.7422-51.709 60.7422-51.1719C60.7422-50.9277 60.5957-50.5859 60.498-50.3418L39.9414-18.5547C39.6484-18.2129 39.3066-17.9688 38.8184-17.9688Z"/>
  </g>
 </g>
</svg>
