<?xml version="1.0" encoding="UTF-8"?>
<!--Generator: Apple Native CoreSVG 123-->
<!DOCTYPE svg
PUBLIC "-//W3C//DTD SVG 1.1//EN"
       "http://www.w3.org/Graphics/SVG/1.1/DTD/svg11.dtd">
<svg version="1.1" xmlns="http://www.w3.org/2000/svg" xmlns:xlink="http://www.w3.org/1999/xlink" width="3300" height="2200">
 <!--glyph: "uni1004A6.medium", point size: 100.000000, font version: "Version 15.0d7e11", template writer version: "5"-->
 <g id="Notes">
  <rect height="2200" id="artboard" style="fill:white;opacity:1" width="3300" x="0" y="0"/>
  <line id="" style="fill:none;stroke:black;opacity:1;stroke-width:0.5;" x1="263" x2="3036" y1="292" y2="292"/>
  <text style="stroke:none;fill:black;font-family:-apple-system,&quot;SF Pro Display&quot;,&quot;SF Pro Text&quot;,Helvetica,sans-serif;font-weight:bold;" transform="matrix(1 0 0 1 263 322)">Weight/Scale Variations</text>
  <text style="stroke:none;fill:black;font-family:-apple-system,&quot;SF Pro Display&quot;,&quot;SF Pro Text&quot;,Helvetica,sans-serif;text-anchor:middle;" transform="matrix(1 0 0 1 559.711 322)">Ultralight</text>
  <text style="stroke:none;fill:black;font-family:-apple-system,&quot;SF Pro Display&quot;,&quot;SF Pro Text&quot;,Helvetica,sans-serif;text-anchor:middle;" transform="matrix(1 0 0 1 856.422 322)">Thin</text>
  <text style="stroke:none;fill:black;font-family:-apple-system,&quot;SF Pro Display&quot;,&quot;SF Pro Text&quot;,Helvetica,sans-serif;text-anchor:middle;" transform="matrix(1 0 0 1 1153.13 322)">Light</text>
  <text style="stroke:none;fill:black;font-family:-apple-system,&quot;SF Pro Display&quot;,&quot;SF Pro Text&quot;,Helvetica,sans-serif;text-anchor:middle;" transform="matrix(1 0 0 1 1449.84 322)">Regular</text>
  <text style="stroke:none;fill:black;font-family:-apple-system,&quot;SF Pro Display&quot;,&quot;SF Pro Text&quot;,Helvetica,sans-serif;text-anchor:middle;" transform="matrix(1 0 0 1 1746.56 322)">Medium</text>
  <text style="stroke:none;fill:black;font-family:-apple-system,&quot;SF Pro Display&quot;,&quot;SF Pro Text&quot;,Helvetica,sans-serif;text-anchor:middle;" transform="matrix(1 0 0 1 2043.27 322)">Semibold</text>
  <text style="stroke:none;fill:black;font-family:-apple-system,&quot;SF Pro Display&quot;,&quot;SF Pro Text&quot;,Helvetica,sans-serif;text-anchor:middle;" transform="matrix(1 0 0 1 2339.98 322)">Bold</text>
  <text style="stroke:none;fill:black;font-family:-apple-system,&quot;SF Pro Display&quot;,&quot;SF Pro Text&quot;,Helvetica,sans-serif;text-anchor:middle;" transform="matrix(1 0 0 1 2636.69 322)">Heavy</text>
  <text style="stroke:none;fill:black;font-family:-apple-system,&quot;SF Pro Display&quot;,&quot;SF Pro Text&quot;,Helvetica,sans-serif;text-anchor:middle;" transform="matrix(1 0 0 1 2933.4 322)">Black</text>
  <line id="" style="fill:none;stroke:black;opacity:1;stroke-width:0.5;" x1="263" x2="3036" y1="1903" y2="1903"/>
  <g id="" transform="matrix(1 0 0 1 263 1933)">
   <path d="M 9.24805 0.830078 C 13.5547 0.830078 17.1387 -2.74414 17.1387 -7.05078 C 17.1387 -11.3574 13.5449 -14.9316 9.23828 -14.9316 C 4.94141 -14.9316 1.36719 -11.3574 1.36719 -7.05078 C 1.36719 -2.74414 4.95117 0.830078 9.24805 0.830078 Z M 9.24805 -0.654297 C 5.70312 -0.654297 2.87109 -3.49609 2.87109 -7.05078 C 2.87109 -10.6055 5.69336 -13.4473 9.23828 -13.4473 C 12.793 -13.4473 15.6348 -10.6055 15.6445 -7.05078 C 15.6543 -3.49609 12.8027 -0.654297 9.24805 -0.654297 Z M 9.22852 -3.42773 C 9.69727 -3.42773 9.9707 -3.74023 9.9707 -4.25781 L 9.9707 -6.31836 L 12.1973 -6.31836 C 12.6953 -6.31836 13.0371 -6.57227 13.0371 -7.04102 C 13.0371 -7.51953 12.7148 -7.7832 12.1973 -7.7832 L 9.9707 -7.7832 L 9.9707 -10.0098 C 9.9707 -10.5273 9.69727 -10.8496 9.22852 -10.8496 C 8.75977 -10.8496 8.50586 -10.5078 8.50586 -10.0098 L 8.50586 -7.7832 L 6.29883 -7.7832 C 5.78125 -7.7832 5.44922 -7.51953 5.44922 -7.04102 C 5.44922 -6.57227 5.80078 -6.31836 6.29883 -6.31836 L 8.50586 -6.31836 L 8.50586 -4.25781 C 8.50586 -3.75977 8.75977 -3.42773 9.22852 -3.42773 Z"/>
  </g>
  <g id="" transform="matrix(1 0 0 1 281.506 1933)">
   <path d="M 11.709 2.91016 C 17.1582 2.91016 21.6699 -1.60156 21.6699 -7.05078 C 21.6699 -12.4902 17.1484 -17.0117 11.6992 -17.0117 C 6.25977 -17.0117 1.74805 -12.4902 1.74805 -7.05078 C 1.74805 -1.60156 6.26953 2.91016 11.709 2.91016 Z M 11.709 1.25 C 7.09961 1.25 3.41797 -2.44141 3.41797 -7.05078 C 3.41797 -11.6504 7.08984 -15.3516 11.6992 -15.3516 C 16.3086 -15.3516 20 -11.6504 20.0098 -7.05078 C 20.0195 -2.44141 16.3184 1.25 11.709 1.25 Z M 11.6895 -2.41211 C 12.207 -2.41211 12.5195 -2.77344 12.5195 -3.33984 L 12.5195 -6.23047 L 15.5762 -6.23047 C 16.123 -6.23047 16.5039 -6.51367 16.5039 -7.03125 C 16.5039 -7.55859 16.1426 -7.86133 15.5762 -7.86133 L 12.5195 -7.86133 L 12.5195 -10.9277 C 12.5195 -11.5039 12.207 -11.8555 11.6895 -11.8555 C 11.1719 -11.8555 10.8789 -11.4844 10.8789 -10.9277 L 10.8789 -7.86133 L 7.83203 -7.86133 C 7.26562 -7.86133 6.89453 -7.55859 6.89453 -7.03125 C 6.89453 -6.51367 7.28516 -6.23047 7.83203 -6.23047 L 10.8789 -6.23047 L 10.8789 -3.33984 C 10.8789 -2.79297 11.1719 -2.41211 11.6895 -2.41211 Z"/>
  </g>
  <g id="" transform="matrix(1 0 0 1 304.924 1933)">
   <path d="M 14.9707 5.67383 C 21.9336 5.67383 27.6953 -0.078125 27.6953 -7.04102 C 27.6953 -14.0039 21.9238 -19.7559 14.9609 -19.7559 C 8.00781 -19.7559 2.25586 -14.0039 2.25586 -7.04102 C 2.25586 -0.078125 8.01758 5.67383 14.9707 5.67383 Z M 14.9707 3.85742 C 8.93555 3.85742 4.08203 -1.00586 4.08203 -7.04102 C 4.08203 -13.0762 8.92578 -17.9395 14.9609 -17.9395 C 21.0059 -17.9395 25.8594 -13.0762 25.8691 -7.04102 C 25.8789 -1.00586 21.0156 3.85742 14.9707 3.85742 Z M 14.9512 -1.06445 C 15.5176 -1.06445 15.8691 -1.45508 15.8691 -2.06055 L 15.8691 -6.13281 L 20.1074 -6.13281 C 20.6934 -6.13281 21.1133 -6.46484 21.1133 -7.02148 C 21.1133 -7.59766 20.7227 -7.93945 20.1074 -7.93945 L 15.8691 -7.93945 L 15.8691 -12.1875 C 15.8691 -12.8027 15.5176 -13.1934 14.9512 -13.1934 C 14.3848 -13.1934 14.0625 -12.7832 14.0625 -12.1875 L 14.0625 -7.93945 L 9.83398 -7.93945 C 9.21875 -7.93945 8.80859 -7.59766 8.80859 -7.02148 C 8.80859 -6.46484 9.23828 -6.13281 9.83398 -6.13281 L 14.0625 -6.13281 L 14.0625 -2.06055 C 14.0625 -1.47461 14.3848 -1.06445 14.9512 -1.06445 Z"/>
  </g>
  <text style="stroke:none;fill:black;font-family:-apple-system,&quot;SF Pro Display&quot;,&quot;SF Pro Text&quot;,Helvetica,sans-serif;font-weight:bold;" transform="matrix(1 0 0 1 263 1953)">Design Variations</text>
  <text style="stroke:none;fill:black;font-family:-apple-system,&quot;SF Pro Display&quot;,&quot;SF Pro Text&quot;,Helvetica,sans-serif;" transform="matrix(1 0 0 1 263 1971)">Symbols are supported in up to nine weights and three scales.</text>
  <text style="stroke:none;fill:black;font-family:-apple-system,&quot;SF Pro Display&quot;,&quot;SF Pro Text&quot;,Helvetica,sans-serif;" transform="matrix(1 0 0 1 263 1989)">For optimal layout with text and other symbols, vertically align</text>
  <text style="stroke:none;fill:black;font-family:-apple-system,&quot;SF Pro Display&quot;,&quot;SF Pro Text&quot;,Helvetica,sans-serif;" transform="matrix(1 0 0 1 263 2007)">symbols with the adjacent text.</text>
  <rect height="14" id="" style="fill:#00AEEF;stroke:none;opacity:0.4;" width="3" x="776" y="1919"/>
  <g id="" transform="matrix(1 0 0 1 779 1933)">
   <path d="M 10.5273 0 L 12.373 0 L 7.17773 -14.0918 L 5.43945 -14.0918 L 0.244141 0 L 2.08984 0 L 3.50586 -4.0332 L 9.11133 -4.0332 Z M 6.2793 -11.9531 L 6.33789 -11.9531 L 8.59375 -5.52734 L 4.02344 -5.52734 Z"/>
  </g>
  <rect height="14" id="" style="fill:#00AEEF;stroke:none;opacity:0.4;" width="3" x="791.617" y="1919"/>
  <text style="stroke:none;fill:black;font-family:-apple-system,&quot;SF Pro Display&quot;,&quot;SF Pro Text&quot;,Helvetica,sans-serif;font-weight:bold;" transform="matrix(1 0 0 1 776 1953)">Margins</text>
  <text style="stroke:none;fill:black;font-family:-apple-system,&quot;SF Pro Display&quot;,&quot;SF Pro Text&quot;,Helvetica,sans-serif;" transform="matrix(1 0 0 1 776 1971)">Leading and trailing margins on the left and right side of each symbol</text>
  <text style="stroke:none;fill:black;font-family:-apple-system,&quot;SF Pro Display&quot;,&quot;SF Pro Text&quot;,Helvetica,sans-serif;" transform="matrix(1 0 0 1 776 1989)">can be adjusted by modifying the width of the blue rectangles.</text>
  <text style="stroke:none;fill:black;font-family:-apple-system,&quot;SF Pro Display&quot;,&quot;SF Pro Text&quot;,Helvetica,sans-serif;" transform="matrix(1 0 0 1 776 2007)">Modifications are automatically applied proportionally to all</text>
  <text style="stroke:none;fill:black;font-family:-apple-system,&quot;SF Pro Display&quot;,&quot;SF Pro Text&quot;,Helvetica,sans-serif;" transform="matrix(1 0 0 1 776 2025)">scales and weights.</text>
  <g id="" transform="matrix(1 0 0 1 1289 1933)">
   <path d="M 2.83203 3.11523 L 4.375 4.6582 C 5.22461 5.48828 6.19141 5.41992 7.06055 4.46289 L 17.2754 -6.66016 C 17.7051 -6.36719 18.0957 -6.37695 18.5645 -6.47461 L 19.6094 -6.68945 L 20.3027 -5.99609 L 20.2539 -5.47852 C 20.1855 -4.95117 20.3516 -4.53125 20.8496 -4.0332 L 21.6602 -3.22266 C 22.168 -2.71484 22.8223 -2.68555 23.3008 -3.16406 L 26.5527 -6.41602 C 27.0312 -6.89453 27.0117 -7.54883 26.5039 -8.05664 L 25.6836 -8.87695 C 25.1855 -9.375 24.7754 -9.55078 24.2383 -9.47266 L 23.7109 -9.41406 L 23.0566 -10.0781 L 23.3398 -11.2207 C 23.4863 -11.7871 23.3398 -12.2559 22.7148 -12.8613 L 20.3027 -15.2539 C 16.7578 -18.7793 12.2266 -18.6719 9.11133 -15.5371 C 8.69141 -15.1074 8.64258 -14.5215 8.91602 -14.0918 C 9.15039 -13.7207 9.62891 -13.4961 10.2734 -13.6621 C 11.7871 -14.043 13.3008 -13.9258 14.7852 -12.9199 L 14.1602 -11.3379 C 13.9258 -10.752 13.9453 -10.2734 14.1797 -9.83398 L 3.01758 0.439453 C 2.08008 1.30859 1.97266 2.25586 2.83203 3.11523 Z M 10.6738 -15.1465 C 13.3398 -17.1387 16.6504 -16.8262 19.0527 -14.4141 L 21.6797 -11.8066 C 21.9141 -11.5723 21.9434 -11.3867 21.8848 -11.0938 L 21.5039 -9.53125 L 23.0762 -7.95898 L 24.043 -8.04688 C 24.3262 -8.07617 24.4141 -8.05664 24.6387 -7.83203 L 25.2637 -7.20703 L 22.5098 -4.46289 L 21.8848 -5.07812 C 21.6602 -5.30273 21.6406 -5.40039 21.6699 -5.68359 L 21.7578 -6.64062 L 20.1953 -8.20312 L 18.5742 -7.89062 C 18.291 -7.83203 18.1445 -7.83203 17.9102 -8.07617 L 15.7324 -10.2539 C 15.5078 -10.4883 15.4785 -10.625 15.6055 -10.9473 L 16.5527 -13.2227 C 14.9512 -14.7559 12.8418 -15.6055 10.8008 -14.9512 C 10.7129 -14.9219 10.6445 -14.9414 10.6152 -14.9805 C 10.5859 -15.0293 10.5859 -15.0781 10.6738 -15.1465 Z M 4.10156 2.41211 C 3.61328 1.91406 3.78906 1.61133 4.12109 1.30859 L 15.0781 -8.80859 L 16.3086 -7.57812 L 6.15234 3.34961 C 5.84961 3.68164 5.46875 3.7793 5.06836 3.37891 Z"/>
  </g>
  <text style="stroke:none;fill:black;font-family:-apple-system,&quot;SF Pro Display&quot;,&quot;SF Pro Text&quot;,Helvetica,sans-serif;font-weight:bold;" transform="matrix(1 0 0 1 1289 1953)">Exporting</text>
  <text style="stroke:none;fill:black;font-family:-apple-system,&quot;SF Pro Display&quot;,&quot;SF Pro Text&quot;,Helvetica,sans-serif;" transform="matrix(1 0 0 1 1289 1971)">Symbols should be outlined when exporting to ensure the</text>
  <text style="stroke:none;fill:black;font-family:-apple-system,&quot;SF Pro Display&quot;,&quot;SF Pro Text&quot;,Helvetica,sans-serif;" transform="matrix(1 0 0 1 1289 1989)">design is preserved when submitting to Xcode.</text>
  <text id="template-version" style="stroke:none;fill:black;font-family:-apple-system,&quot;SF Pro Display&quot;,&quot;SF Pro Text&quot;,Helvetica,sans-serif;text-anchor:end;" transform="matrix(1 0 0 1 3036 1933)">Template v.1.0</text>
  <text style="stroke:none;fill:black;font-family:-apple-system,&quot;SF Pro Display&quot;,&quot;SF Pro Text&quot;,Helvetica,sans-serif;text-anchor:end;" transform="matrix(1 0 0 1 3036 1951)">Generated from phone.circle.fill</text>
  <text style="stroke:none;fill:black;font-family:-apple-system,&quot;SF Pro Display&quot;,&quot;SF Pro Text&quot;,Helvetica,sans-serif;text-anchor:end;" transform="matrix(1 0 0 1 3036 1969)">Typeset at 100 points</text>
  <text style="stroke:none;fill:black;font-family:-apple-system,&quot;SF Pro Display&quot;,&quot;SF Pro Text&quot;,Helvetica,sans-serif;" transform="matrix(1 0 0 1 263 726)">Small</text>
  <text style="stroke:none;fill:black;font-family:-apple-system,&quot;SF Pro Display&quot;,&quot;SF Pro Text&quot;,Helvetica,sans-serif;" transform="matrix(1 0 0 1 263 1156)">Medium</text>
  <text style="stroke:none;fill:black;font-family:-apple-system,&quot;SF Pro Display&quot;,&quot;SF Pro Text&quot;,Helvetica,sans-serif;" transform="matrix(1 0 0 1 263 1586)">Large</text>
 </g>
 <g id="Guides">
  <g id="H-reference" style="fill:#27AAE1;stroke:none;" transform="matrix(1 0 0 1 339 696)">
   <path d="M 54.9316 0 L 57.666 0 L 30.5664 -70.459 L 28.0762 -70.459 L 0.976562 0 L 3.66211 0 L 12.9395 -24.4629 L 45.7031 -24.4629 Z M 29.1992 -67.0898 L 29.4434 -67.0898 L 44.8242 -26.709 L 13.8184 -26.709 Z"/>
  </g>
  <line id="Baseline-S" style="fill:none;stroke:#27AAE1;opacity:1;stroke-width:0.577;" x1="263" x2="3036" y1="696" y2="696"/>
  <line id="Capline-S" style="fill:none;stroke:#27AAE1;opacity:1;stroke-width:0.577;" x1="263" x2="3036" y1="625.541" y2="625.541"/>
  <g id="H-reference" style="fill:#27AAE1;stroke:none;" transform="matrix(1 0 0 1 339 1126)">
   <path d="M 54.9316 0 L 57.666 0 L 30.5664 -70.459 L 28.0762 -70.459 L 0.976562 0 L 3.66211 0 L 12.9395 -24.4629 L 45.7031 -24.4629 Z M 29.1992 -67.0898 L 29.4434 -67.0898 L 44.8242 -26.709 L 13.8184 -26.709 Z"/>
  </g>
  <line id="Baseline-M" style="fill:none;stroke:#27AAE1;opacity:1;stroke-width:0.577;" x1="263" x2="3036" y1="1126" y2="1126"/>
  <line id="Capline-M" style="fill:none;stroke:#27AAE1;opacity:1;stroke-width:0.577;" x1="263" x2="3036" y1="1055.54" y2="1055.54"/>
  <g id="H-reference" style="fill:#27AAE1;stroke:none;" transform="matrix(1 0 0 1 339 1556)">
   <path d="M 54.9316 0 L 57.666 0 L 30.5664 -70.459 L 28.0762 -70.459 L 0.976562 0 L 3.66211 0 L 12.9395 -24.4629 L 45.7031 -24.4629 Z M 29.1992 -67.0898 L 29.4434 -67.0898 L 44.8242 -26.709 L 13.8184 -26.709 Z"/>
  </g>
  <line id="Baseline-L" style="fill:none;stroke:#27AAE1;opacity:1;stroke-width:0.577;" x1="263" x2="3036" y1="1556" y2="1556"/>
  <line id="Capline-L" style="fill:none;stroke:#27AAE1;opacity:1;stroke-width:0.577;" x1="263" x2="3036" y1="1485.54" y2="1485.54"/>
  <rect height="119.336" id="left-margin" style="fill:#00AEEF;stroke:none;opacity:0.4;" width="8.74023" x="1391.3" y="1030.79"/>
  <rect height="119.336" id="right-margin" style="fill:#00AEEF;stroke:none;opacity:0.4;" width="8.74023" x="1499.65" y="1030.79"/>
 </g>
 <g id="Symbols">
  <g id="Black-L" transform="matrix(1 0 0 1 2854.05 1556)">
   <path d="M 79.3457 32.9102 C 116.748 32.9102 147.412 2.29492 147.412 -35.1074 C 147.412 -72.5586 116.748 -103.174 79.2969 -103.174 C 41.8945 -103.174 11.2793 -72.5586 11.2793 -35.1074 C 11.2793 2.29492 41.9434 32.9102 79.3457 32.9102 Z M 62.8418 -18.8965 C 46.8262 -34.8145 36.9629 -54.4922 48.7793 -66.3574 C 49.5605 -67.1387 50.4883 -67.9199 51.2695 -68.75 C 55.0293 -72.5098 58.252 -71.3867 61.3281 -67.041 L 69.4336 -55.4688 C 72.5098 -51.0742 71.5332 -48.9746 68.6523 -45.8984 L 66.0645 -43.1641 C 65.0879 -42.1875 65.5762 -40.918 65.9668 -40.1855 C 67.2852 -37.8418 70.752 -33.9355 74.2676 -30.3711 C 77.9785 -26.709 81.6895 -23.3887 84.1797 -22.0215 C 85.0586 -21.5332 86.4258 -21.2891 87.207 -22.1191 L 89.8926 -24.6582 C 92.7734 -27.4902 95.1172 -28.5156 99.4629 -25.4883 C 103.32 -22.7539 107.178 -20.0195 111.035 -17.3828 C 115.381 -14.4043 116.748 -10.8398 112.793 -7.32422 C 111.914 -6.49414 111.084 -5.51758 110.303 -4.73633 C 98.584 7.03125 78.9551 -2.88086 62.8418 -18.8965 Z"/>
  </g>
  <g id="Heavy-L" transform="matrix(1 0 0 1 2558.39 1556)">
   <path d="M 78.2715 31.8848 C 115.088 31.8848 145.312 1.66016 145.312 -35.1074 C 145.312 -71.9238 115.039 -102.148 78.2715 -102.148 C 41.4551 -102.148 11.2793 -71.9238 11.2793 -35.1074 C 11.2793 1.66016 41.5039 31.8848 78.2715 31.8848 Z M 61.8164 -18.9941 C 45.9473 -34.7656 36.0352 -54.541 47.8516 -66.3574 C 48.6328 -67.0898 49.4629 -67.8711 50.1953 -68.6035 C 53.9062 -72.2168 57.2266 -71.4844 60.3027 -67.1387 L 68.457 -55.5176 C 71.3867 -51.2695 70.5566 -49.1211 67.627 -45.9961 L 65.0391 -43.2617 C 64.1113 -42.2852 64.5508 -41.0645 64.9414 -40.332 C 66.2109 -37.9883 69.6289 -34.0332 73.1934 -30.4688 C 76.9531 -26.709 80.7129 -23.4375 83.1543 -22.1191 C 84.0332 -21.6309 85.3516 -21.4355 86.1816 -22.2168 L 88.8184 -24.8047 C 91.7969 -27.6367 94.1895 -28.5645 98.3398 -25.6348 C 102.881 -22.4609 106.494 -19.9219 110.059 -17.4316 C 114.209 -14.502 115.43 -10.9375 111.475 -7.37305 C 110.645 -6.5918 109.912 -5.71289 109.18 -4.98047 C 97.4121 6.78711 77.7344 -3.17383 61.8164 -18.9941 Z"/>
  </g>
  <g id="Bold-L" transform="matrix(1 0 0 1 2262.88 1556)">
   <path d="M 77.0996 30.7129 C 113.232 30.7129 142.92 0.976562 142.92 -35.1074 C 142.92 -71.2402 113.184 -100.977 77.0508 -100.977 C 40.9668 -100.977 11.2793 -71.2402 11.2793 -35.1074 C 11.2793 0.976562 41.0156 30.7129 77.0996 30.7129 Z M 60.6445 -19.0918 C 44.9707 -34.7168 35.0098 -54.541 46.8262 -66.3574 C 47.5586 -67.041 48.291 -67.7734 49.0234 -68.457 C 52.6367 -71.9238 56.1035 -71.6309 59.1309 -67.2852 L 67.334 -55.6152 C 70.166 -51.5625 69.4336 -49.3164 66.5039 -46.1426 L 63.8672 -43.3594 C 62.9395 -42.4316 63.3301 -41.2109 63.7695 -40.4785 C 64.9902 -38.1836 68.3594 -34.1797 72.0215 -30.5176 C 75.7812 -26.7578 79.5898 -23.5352 82.0312 -22.2168 C 82.9102 -21.7285 84.1797 -21.5332 85.0098 -22.3145 L 87.6953 -24.9512 C 90.6738 -27.832 93.1152 -28.6133 97.1191 -25.8301 C 102.393 -22.1191 105.713 -19.7754 108.984 -17.5293 C 112.939 -14.6484 113.965 -11.084 109.961 -7.42188 C 109.229 -6.73828 108.594 -5.95703 107.91 -5.22461 C 96.1426 6.49414 76.3672 -3.4668 60.6445 -19.0918 Z"/>
  </g>
  <g id="Semibold-L" transform="matrix(1 0 0 1 1966.97 1556)">
   <path d="M 76.2695 29.8828 C 111.914 29.8828 141.309 0.488281 141.309 -35.1074 C 141.309 -70.752 111.865 -100.146 76.2695 -100.146 C 40.625 -100.146 11.2793 -70.752 11.2793 -35.1074 C 11.2793 0.488281 40.6738 29.8828 76.2695 29.8828 Z M 59.8633 -19.1895 C 44.2871 -34.668 34.3262 -54.541 46.1426 -66.3574 C 46.7773 -66.9922 47.5098 -67.6758 48.1934 -68.3594 C 51.709 -71.6797 55.3223 -71.6797 58.3496 -67.334 L 66.5527 -55.6152 C 69.2871 -51.709 68.7012 -49.4141 65.7227 -46.2402 L 63.0859 -43.4082 C 62.207 -42.4805 62.5488 -41.3574 62.9395 -40.5273 C 64.1602 -38.2812 67.4805 -34.2773 71.1914 -30.5664 C 75 -26.8066 78.8574 -23.584 81.2012 -22.2656 C 82.1289 -21.7773 83.3984 -21.6309 84.1797 -22.4121 L 86.8652 -25.0488 C 89.9414 -27.9785 92.4316 -28.6621 96.2891 -25.9277 C 102.051 -21.9238 105.176 -19.7266 108.252 -17.5781 C 112.109 -14.6973 112.988 -11.1328 108.984 -7.42188 C 108.252 -6.78711 107.666 -6.05469 107.031 -5.41992 C 95.2637 6.29883 75.4395 -3.66211 59.8633 -19.1895 Z"/>
  </g>
  <g id="Medium-L" transform="matrix(1 0 0 1 1670.87 1556)">
   <path d="M 75.6836 29.248 C 110.938 29.248 140.088 0.146484 140.088 -35.1074 C 140.088 -70.4102 110.889 -99.5117 75.6348 -99.5117 C 40.3809 -99.5117 11.2793 -70.4102 11.2793 -35.1074 C 11.2793 0.146484 40.3809 29.248 75.6836 29.248 Z M 59.2285 -19.2383 C 43.7988 -34.668 33.7891 -54.541 45.6055 -66.3574 C 46.2402 -66.9922 46.9238 -67.627 47.5586 -68.2617 C 51.0742 -71.4844 54.6875 -71.7285 57.7637 -67.3828 L 65.9668 -55.6641 C 68.6523 -51.8555 68.1152 -49.5117 65.0879 -46.2891 L 62.5 -43.457 C 61.5723 -42.5781 61.9141 -41.4062 62.3535 -40.625 C 63.5254 -38.3789 66.8457 -34.3262 70.5566 -30.6152 C 74.3652 -26.8066 78.2715 -23.6328 80.6152 -22.3633 C 81.543 -21.8262 82.7637 -21.7285 83.5938 -22.4609 L 86.2793 -25.0977 C 89.3555 -28.0762 91.8457 -28.6621 95.6543 -26.0254 C 101.758 -21.7285 104.785 -19.6289 107.666 -17.627 C 111.426 -14.7949 112.207 -11.2305 108.203 -7.4707 C 107.52 -6.88477 106.934 -6.20117 106.348 -5.56641 C 94.5801 6.20117 74.707 -3.85742 59.2285 -19.2383 Z"/>
  </g>
  <g id="Regular-L" transform="matrix(1 0 0 1 1374.97 1556)">
   <path d="M 74.8535 28.4668 C 109.668 28.4668 138.477 -0.341797 138.477 -35.1074 C 138.477 -69.9219 109.619 -98.7305 74.8047 -98.7305 C 40.0391 -98.7305 11.2793 -69.9219 11.2793 -35.1074 C 11.2793 -0.341797 40.0879 28.4668 74.8535 28.4668 Z M 58.4473 -19.3359 C 43.1152 -34.6191 33.1055 -54.541 44.9219 -66.3574 C 45.5078 -66.9434 46.1426 -67.5781 46.7773 -68.1641 C 50.1953 -71.2891 53.9062 -71.8262 56.9824 -67.4805 L 65.2344 -55.7129 C 67.7734 -52.0508 67.334 -49.6582 64.3066 -46.3379 L 61.6699 -43.5059 C 60.8398 -42.627 61.1328 -41.5527 61.5723 -40.7227 C 62.6953 -38.4766 65.9668 -34.4238 69.7266 -30.6641 C 73.584 -26.8066 77.4902 -23.6816 79.834 -22.4121 C 80.7617 -21.9238 81.9824 -21.8262 82.7637 -22.5586 L 85.498 -25.1953 C 88.623 -28.1738 91.1621 -28.7109 94.8242 -26.1719 C 101.416 -21.5332 104.297 -19.5801 106.934 -17.6758 C 110.547 -14.8438 111.23 -11.2793 107.178 -7.51953 C 106.592 -6.93359 106.055 -6.34766 105.469 -5.76172 C 93.7012 6.00586 73.7793 -4.05273 58.4473 -19.3359 Z"/>
  </g>
  <g id="Light-L" transform="matrix(1 0 0 1 1079.18 1556)">
   <path d="M 73.9258 27.5879 C 108.301 27.5879 136.621 -0.732422 136.621 -35.1074 C 136.621 -69.4336 108.252 -97.7539 73.9258 -97.7539 C 39.5508 -97.7539 11.2793 -69.4336 11.2793 -35.1074 C 11.2793 -0.732422 39.5996 27.5879 73.9258 27.5879 Z M 57.5684 -19.1895 C 42.627 -34.082 32.5684 -54.1504 44.3359 -65.9668 C 44.7754 -66.4062 45.2637 -66.8945 45.8496 -67.3828 C 49.0234 -70.1172 53.0762 -71.6797 56.1523 -67.334 L 64.4531 -55.4199 C 66.6992 -52.1973 66.6016 -49.6094 63.4766 -46.1914 L 60.8398 -43.2617 C 60.0098 -42.4805 60.2051 -41.4551 60.6445 -40.625 C 61.7188 -38.4277 64.8926 -34.3262 68.7988 -30.4688 C 72.7051 -26.5137 76.7578 -23.4375 79.0039 -22.2168 C 79.9316 -21.6797 81.0547 -21.6797 81.8848 -22.4121 L 84.6191 -25.0977 C 87.8906 -28.1738 90.5273 -28.418 93.7988 -26.123 C 102.051 -20.3613 104.297 -18.8965 106.201 -17.4805 C 109.424 -14.7461 109.668 -11.1328 105.566 -7.22656 C 105.127 -6.78711 104.785 -6.39648 104.346 -5.9082 C 92.5781 5.81055 72.4609 -4.3457 57.5684 -19.1895 Z"/>
  </g>
  <g id="Thin-L" transform="matrix(1 0 0 1 783.693 1556)">
   <path d="M 72.7051 26.416 C 106.494 26.416 134.18 -1.26953 134.18 -35.0586 C 134.18 -68.7988 106.494 -96.4844 72.7051 -96.4844 C 38.9648 -96.4844 11.2793 -68.7988 11.2793 -35.0586 C 11.2793 -1.26953 38.9648 26.416 72.7051 26.416 Z M 56.3965 -18.9941 C 41.9922 -33.3496 31.8359 -53.6621 43.5547 -65.4297 C 43.8477 -65.6738 44.1406 -66.0645 44.5801 -66.3574 C 47.4609 -68.5547 51.9531 -71.4355 54.9805 -67.0898 L 63.4277 -55.0781 C 65.2832 -52.4414 65.5762 -49.6094 62.4023 -45.9961 L 59.668 -42.9688 C 58.9355 -42.2363 58.9844 -41.4062 59.4238 -40.4785 C 60.4492 -38.3301 63.4277 -34.1797 67.5293 -30.127 C 71.582 -26.0742 75.7812 -23.1445 77.9297 -21.9727 C 78.8574 -21.4355 79.8828 -21.5332 80.6641 -22.2168 L 83.4961 -24.9512 C 86.9141 -28.1738 89.7461 -27.9785 92.4805 -26.123 C 102.881 -18.8477 104.297 -17.9688 105.273 -17.1875 C 107.959 -14.5508 107.617 -10.9375 103.418 -6.83594 C 103.223 -6.5918 103.076 -6.44531 102.881 -6.15234 C 91.0645 5.56641 70.7031 -4.6875 56.3965 -18.9941 Z"/>
  </g>
  <g id="Ultralight-L" transform="matrix(1 0 0 1 487.616 1556)">
   <path d="M 72.1191 25.7812 C 105.566 25.7812 132.91 -1.5625 132.91 -35.0098 C 132.91 -68.5059 105.566 -95.8496 72.1191 -95.8496 C 38.623 -95.8496 11.2793 -68.5059 11.2793 -35.0098 C 11.2793 -1.5625 38.623 25.7812 72.1191 25.7812 Z M 55.7617 -18.8965 C 41.6992 -33.0078 31.4453 -53.418 43.1641 -65.1367 C 43.3594 -65.332 43.5547 -65.625 43.9453 -65.8203 C 46.6797 -67.7734 51.3672 -71.3379 54.4434 -66.9922 L 62.8906 -54.8828 C 64.5508 -52.5391 65.0879 -49.5605 61.8164 -45.8984 L 59.082 -42.8223 C 58.3984 -42.1387 58.3496 -41.3574 58.8379 -40.3809 C 59.7656 -38.3301 62.6953 -34.1309 66.8457 -29.9805 C 70.9961 -25.8301 75.293 -22.9492 77.3438 -21.875 C 78.3203 -21.2891 79.248 -21.4844 80.0781 -22.1191 L 82.9102 -24.8535 C 86.377 -28.1738 89.3066 -27.7832 91.748 -26.0742 C 103.32 -18.0664 104.346 -17.5293 104.834 -17.041 C 107.178 -14.502 106.543 -10.8398 102.344 -6.64062 C 102.246 -6.49414 102.197 -6.49414 102.1 -6.29883 C 90.2832 5.41992 69.7754 -4.88281 55.7617 -18.8965 Z"/>
  </g>
  <g id="Black-M" transform="matrix(1 0 0 1 2870.97 1126)">
   <path d="M 62.4023 18.5547 C 91.9922 18.5547 116.113 -5.56641 116.113 -35.1562 C 116.113 -64.7461 91.9922 -88.8184 62.4023 -88.8184 C 32.8125 -88.8184 8.74023 -64.7461 8.74023 -35.1562 C 8.74023 -5.56641 32.8125 18.5547 62.4023 18.5547 Z M 49.6582 -22.3633 C 37.2559 -34.668 29.5898 -49.9512 38.7207 -59.1309 C 39.3555 -59.7168 40.0391 -60.3516 40.6738 -60.9863 C 43.6035 -63.916 46.0938 -63.0371 48.4375 -59.668 L 54.7363 -50.6836 C 57.1289 -47.2656 56.3477 -45.6543 54.1504 -43.2617 L 52.1484 -41.1621 C 51.3672 -40.4297 51.7578 -39.4043 52.0508 -38.8672 C 53.0762 -37.0605 55.7617 -33.9844 58.4961 -31.25 C 61.377 -28.3691 64.209 -25.8301 66.1621 -24.7559 C 66.8457 -24.4141 67.9199 -24.2188 68.5059 -24.8535 L 70.5566 -26.8066 C 72.8027 -29.0039 74.6094 -29.834 77.9785 -27.4414 C 81.0059 -25.3418 83.9844 -23.1934 86.9629 -21.1426 C 90.332 -18.8477 91.4062 -16.1133 88.3301 -13.3789 C 87.6465 -12.7441 87.0117 -12.0117 86.4258 -11.377 C 77.2949 -2.29492 62.1094 -9.96094 49.6582 -22.3633 Z"/>
  </g>
  <g id="Heavy-M" transform="matrix(1 0 0 1 2575.19 1126)">
   <path d="M 61.5234 17.627 C 90.5273 17.627 114.258 -6.10352 114.258 -35.1562 C 114.258 -64.1602 90.5273 -87.8906 61.4746 -87.8906 C 32.4707 -87.8906 8.74023 -64.1602 8.74023 -35.1562 C 8.74023 -6.10352 32.4707 17.627 61.5234 17.627 Z M 48.7305 -22.5098 C 36.377 -34.7656 28.7109 -50.0488 37.8906 -59.2285 C 38.4766 -59.8145 39.1602 -60.4492 39.7461 -61.0352 C 42.627 -63.8672 45.166 -63.1836 47.5586 -59.8145 L 53.8574 -50.8301 C 56.2012 -47.4609 55.4688 -45.8496 53.2227 -43.457 L 51.2207 -41.3086 C 50.4883 -40.5762 50.8301 -39.5996 51.1719 -39.0137 C 52.1484 -37.207 54.7852 -34.1797 57.5684 -31.3965 C 60.4492 -28.5156 63.3301 -25.9766 65.2344 -24.9023 C 65.9668 -24.5605 66.9922 -24.3652 67.627 -25 L 69.6777 -27.002 C 71.9238 -29.1992 73.7793 -29.9316 77.0508 -27.6367 C 80.3223 -25.293 83.252 -23.291 86.084 -21.2891 C 89.4043 -18.9941 90.3809 -16.2598 87.3047 -13.4766 C 86.6699 -12.8906 86.084 -12.207 85.4492 -11.5723 C 76.3672 -2.49023 61.1328 -10.1562 48.7305 -22.5098 Z"/>
  </g>
  <g id="Bold-M" transform="matrix(1 0 0 1 2279.5 1126)">
   <path d="M 60.498 16.6016 C 88.8672 16.6016 112.207 -6.73828 112.207 -35.1562 C 112.207 -63.5742 88.8672 -86.9141 60.4492 -86.9141 C 32.0312 -86.9141 8.74023 -63.5742 8.74023 -35.1562 C 8.74023 -6.73828 32.0801 16.6016 60.498 16.6016 Z M 47.7051 -22.6562 C 35.4492 -34.8633 27.7832 -50.1953 36.9141 -59.3262 C 37.5 -59.9121 38.1348 -60.498 38.7207 -61.084 C 41.5527 -63.8672 44.1895 -63.3789 46.5332 -60.0098 L 52.8809 -50.9766 C 55.127 -47.7051 54.4922 -46.0449 52.2461 -43.6035 L 50.1953 -41.4551 C 49.5117 -40.7227 49.8047 -39.7949 50.1465 -39.209 C 51.123 -37.4023 53.7598 -34.3262 56.543 -31.543 C 59.4238 -28.6621 62.3535 -26.123 64.2578 -25.0977 C 64.9414 -24.707 65.9668 -24.5605 66.6016 -25.1465 L 68.6523 -27.1484 C 70.9473 -29.3945 72.8027 -30.0781 76.0254 -27.832 C 79.6387 -25.293 82.373 -23.3398 85.1074 -21.4355 C 88.3301 -19.1895 89.209 -16.4551 86.1816 -13.623 C 85.5469 -13.0859 84.9609 -12.4023 84.4238 -11.8164 C 75.293 -2.73438 60.0098 -10.4004 47.7051 -22.6562 Z"/>
  </g>
  <g id="Semibold-M" transform="matrix(1 0 0 1 1983.5 1126)">
   <path d="M 59.7656 15.8691 C 87.7441 15.8691 110.791 -7.17773 110.791 -35.1562 C 110.791 -63.1348 87.6953 -86.1816 59.7656 -86.1816 C 31.7871 -86.1816 8.74023 -63.1348 8.74023 -35.1562 C 8.74023 -7.17773 31.7871 15.8691 59.7656 15.8691 Z M 47.0215 -22.8027 C 34.8145 -34.9121 27.0996 -50.293 36.2793 -59.4238 C 36.8164 -60.0098 37.4512 -60.5469 38.0371 -61.1328 C 40.8203 -63.8672 43.5059 -63.4766 45.8496 -60.1074 L 52.1973 -51.0742 C 54.3945 -47.9004 53.8086 -46.1426 51.5137 -43.75 L 49.5117 -41.5527 C 48.7793 -40.8691 49.1211 -39.8926 49.4629 -39.3066 C 50.3906 -37.5488 53.0273 -34.4727 55.8105 -31.6406 C 58.7402 -28.7598 61.6699 -26.2207 63.5742 -25.1953 C 64.2578 -24.8047 65.2832 -24.6582 65.918 -25.293 L 67.9688 -27.2949 C 70.2637 -29.541 72.168 -30.1758 75.293 -27.9785 C 79.1016 -25.293 81.7871 -23.3887 84.4238 -21.582 C 87.5977 -19.2871 88.4277 -16.5527 85.3516 -13.7207 C 84.7656 -13.1836 84.2285 -12.5488 83.6914 -11.9629 C 74.5605 -2.88086 59.2773 -10.5957 47.0215 -22.8027 Z"/>
  </g>
  <g id="Medium-M" transform="matrix(1 0 0 1 1687.3 1126)">
   <path d="M 59.2285 15.332 C 86.9141 15.332 109.766 -7.51953 109.766 -35.1562 C 109.766 -62.793 86.8652 -85.6445 59.1797 -85.6445 C 31.543 -85.6445 8.74023 -62.793 8.74023 -35.1562 C 8.74023 -7.51953 31.5918 15.332 59.2285 15.332 Z M 46.4844 -22.9004 C 34.3262 -35.0098 26.6113 -50.3418 35.791 -59.4727 C 36.3281 -60.0586 36.9141 -60.5957 37.5 -61.1328 C 40.2832 -63.8184 42.9688 -63.5742 45.3125 -60.2051 L 51.6602 -51.1719 C 53.8574 -47.998 53.3203 -46.2891 51.0254 -43.7988 L 48.9746 -41.6504 C 48.291 -40.9668 48.584 -39.9902 48.9258 -39.4043 C 49.8535 -37.6465 52.4902 -34.5703 55.2734 -31.7383 C 58.2031 -28.8086 61.1816 -26.3184 63.0371 -25.293 C 63.7207 -24.9023 64.7461 -24.7559 65.3809 -25.3906 L 67.4316 -27.3926 C 69.7754 -29.6387 71.6309 -30.2734 74.7559 -28.0762 C 78.7598 -25.293 81.3965 -23.4375 83.9355 -21.6309 C 87.0605 -19.3848 87.8418 -16.6504 84.7656 -13.8184 C 84.1797 -13.2812 83.6426 -12.6465 83.1055 -12.1094 C 74.0234 -3.02734 58.6914 -10.7422 46.4844 -22.9004 Z"/>
  </g>
  <g id="Regular-M" transform="matrix(1 0 0 1 1391.3 1126)">
   <path d="M 58.5449 14.6484 C 85.791 14.6484 108.35 -7.95898 108.35 -35.1562 C 108.35 -62.4023 85.7422 -84.9609 58.4961 -84.9609 C 31.2988 -84.9609 8.74023 -62.4023 8.74023 -35.1562 C 8.74023 -7.95898 31.3477 14.6484 58.5449 14.6484 Z M 45.8008 -22.998 C 33.6914 -35.0586 25.9766 -50.4395 35.1074 -59.5703 C 35.6445 -60.1074 36.2305 -60.6445 36.7676 -61.1816 C 39.5508 -63.8184 42.2852 -63.6719 44.6289 -60.3027 L 50.9766 -51.2695 C 53.125 -48.1445 52.6367 -46.3867 50.3418 -43.9453 L 48.291 -41.748 C 47.6074 -41.0645 47.9004 -40.1367 48.1934 -39.5508 C 49.1699 -37.793 51.7578 -34.668 54.5898 -31.8359 C 57.5195 -28.9062 60.498 -26.416 62.3535 -25.3906 C 63.0371 -25 64.0625 -24.9023 64.6484 -25.4883 L 66.748 -27.4902 C 69.0918 -29.7852 70.9961 -30.3711 74.0723 -28.2227 C 78.2715 -25.2441 80.8105 -23.4863 83.252 -21.7773 C 86.3281 -19.5312 87.0605 -16.748 83.9844 -13.916 C 83.3984 -13.3789 82.9102 -12.793 82.373 -12.2559 C 73.291 -3.17383 57.959 -10.8887 45.8008 -22.998 Z"/>
  </g>
  <g id="Light-M" transform="matrix(1 0 0 1 1095.42 1126)">
   <path d="M 57.7148 13.8184 C 84.5215 13.8184 106.689 -8.30078 106.689 -35.1562 C 106.689 -61.9629 84.5215 -84.1309 57.666 -84.1309 C 30.8594 -84.1309 8.74023 -61.9629 8.74023 -35.1562 C 8.74023 -8.30078 30.9082 13.8184 57.7148 13.8184 Z M 45.0195 -22.8516 C 33.252 -34.5703 25.4883 -50.0977 34.6191 -59.2285 C 35.0098 -59.6191 35.4492 -60.0586 35.9375 -60.498 C 38.5254 -62.793 41.5039 -63.5254 43.8965 -60.1562 L 50.293 -51.0254 C 52.1973 -48.291 51.9531 -46.3867 49.5605 -43.7988 L 47.5098 -41.5527 C 46.875 -40.918 47.0703 -40.0879 47.4121 -39.4531 C 48.291 -37.7441 50.7812 -34.5703 53.7109 -31.6406 C 56.7383 -28.6133 59.8145 -26.2207 61.6211 -25.2441 C 62.3047 -24.8535 63.2324 -24.8047 63.8672 -25.3418 L 65.9668 -27.3926 C 68.4082 -29.7852 70.459 -30.0781 73.1445 -28.1738 C 78.8086 -24.2188 80.8105 -22.8516 82.6172 -21.582 C 85.3027 -19.3848 85.6934 -16.6504 82.5195 -13.6719 C 82.1289 -13.2812 81.7871 -12.8418 81.3965 -12.4512 C 72.2656 -3.32031 56.7383 -11.1328 45.0195 -22.8516 Z"/>
  </g>
  <g id="Thin-M" transform="matrix(1 0 0 1 799.806 1126)">
   <path d="M 56.6406 12.793 C 82.9102 12.793 104.492 -8.78906 104.492 -35.1074 C 104.492 -61.377 82.9102 -82.959 56.5918 -82.959 C 30.3223 -82.959 8.74023 -61.377 8.74023 -35.1074 C 8.74023 -8.78906 30.3223 12.793 56.6406 12.793 Z M 43.9453 -22.7051 C 32.7148 -33.9355 24.8047 -49.6094 33.9355 -58.7402 C 34.1797 -58.9844 34.4727 -59.3262 34.8145 -59.5703 C 37.1094 -61.377 40.4785 -63.3301 42.8711 -59.9609 L 49.3652 -50.6836 C 50.9277 -48.4863 51.0254 -46.3867 48.584 -43.6523 L 46.4844 -41.3086 C 45.8984 -40.7227 45.9473 -40.0391 46.3379 -39.3066 C 47.1191 -37.6465 49.4629 -34.4727 52.5879 -31.3477 C 55.7129 -28.2227 58.9355 -25.9277 60.6445 -25 C 61.377 -24.6094 62.1582 -24.6582 62.793 -25.1953 L 64.9414 -27.2949 C 67.5293 -29.7852 69.7266 -29.6875 71.9238 -28.1738 C 79.541 -22.8516 80.8594 -22.0703 81.7871 -21.2891 C 83.9844 -19.2383 83.8379 -16.4551 80.6152 -13.2812 C 80.4199 -13.0859 80.2734 -12.9395 80.0293 -12.6465 C 70.8984 -3.56445 55.1758 -11.4746 43.9453 -22.7051 Z"/>
  </g>
  <g id="Ultralight-M" transform="matrix(1 0 0 1 503.656 1126)">
   <path d="M 56.0547 12.2559 C 82.0801 12.2559 103.369 -9.0332 103.369 -35.0586 C 103.369 -61.084 82.0801 -82.373 56.0547 -82.373 C 30.0293 -82.373 8.74023 -61.084 8.74023 -35.0586 C 8.74023 -9.0332 30.0293 12.2559 56.0547 12.2559 Z M 43.4082 -22.6074 C 32.4219 -33.5938 24.4629 -49.3652 33.5938 -58.4961 C 33.7402 -58.6914 33.9355 -58.9355 34.2285 -59.082 C 36.4258 -60.6934 39.9902 -63.2324 42.334 -59.8633 L 48.877 -50.5371 C 50.2441 -48.584 50.5859 -46.3379 48.0957 -43.5547 L 45.9473 -41.1621 C 45.4102 -40.625 45.4102 -39.9902 45.8008 -39.2578 C 46.5332 -37.6465 48.8281 -34.375 52.002 -31.2012 C 55.1758 -28.0273 58.4961 -25.7812 60.1074 -24.9023 C 60.8887 -24.4629 61.6211 -24.6094 62.2559 -25.0977 L 64.4043 -27.1973 C 67.0898 -29.7852 69.3359 -29.4922 71.3379 -28.1738 C 79.9316 -22.168 80.8594 -21.6309 81.3965 -21.1426 C 83.3008 -19.1895 82.9102 -16.3574 79.6387 -13.1348 C 79.541 -12.9883 79.4922 -12.9395 79.3457 -12.793 C 70.2148 -3.66211 54.3457 -11.6699 43.4082 -22.6074 Z"/>
  </g>
  <g id="Black-S" transform="matrix(1 0 0 1 2884.57 696)">
   <path d="M 48.8281 6.83594 C 71.9727 6.83594 90.8203 -12.0117 90.8203 -35.1562 C 90.8203 -58.3008 71.9727 -77.1484 48.8281 -77.1484 C 25.6836 -77.1484 6.83594 -58.3008 6.83594 -35.1562 C 6.83594 -12.0117 25.6836 6.83594 48.8281 6.83594 Z M 38.8184 -25.1465 C 29.1016 -34.8145 23.0957 -46.7773 30.2734 -53.9551 C 30.7617 -54.4434 31.2988 -54.9316 31.7871 -55.4199 C 34.082 -57.7148 36.0352 -57.0312 37.8906 -54.3945 L 42.8223 -47.3633 C 44.6777 -44.6777 44.0918 -43.4082 42.334 -41.5527 L 40.7715 -39.8926 C 40.1855 -39.3066 40.4785 -38.5254 40.7227 -38.0859 C 41.5039 -36.6699 43.6035 -34.2773 45.752 -32.1289 C 47.998 -29.8828 50.2441 -27.8809 51.7578 -27.0508 C 52.2949 -26.7578 53.125 -26.6113 53.6133 -27.0996 L 55.2246 -28.6621 C 56.9824 -30.3711 58.3984 -31.0059 61.0352 -29.1504 C 63.3789 -27.4902 65.7227 -25.8301 68.0664 -24.2188 C 70.7031 -22.4121 71.5332 -20.2637 69.1406 -18.1152 C 68.6035 -17.627 68.1152 -17.041 67.627 -16.5527 C 60.498 -9.42383 48.584 -15.4297 38.8184 -25.1465 Z"/>
  </g>
  <g id="Heavy-S" transform="matrix(1 0 0 1 2588.47 696)">
   <path d="M 48.2422 6.20117 C 70.9961 6.20117 89.5996 -12.4023 89.5996 -35.1562 C 89.5996 -57.9102 70.9961 -76.5625 48.1934 -76.5625 C 25.4395 -76.5625 6.83594 -57.9102 6.83594 -35.1562 C 6.83594 -12.4023 25.4395 6.20117 48.2422 6.20117 Z M 38.2324 -25.293 C 28.5156 -34.9121 22.5098 -46.9238 29.6875 -54.1016 C 30.1758 -54.541 30.7129 -55.0293 31.2012 -55.5176 C 33.4473 -57.8125 35.4492 -57.1777 37.3047 -54.541 L 42.2363 -47.5098 C 44.043 -44.8242 43.5059 -43.5547 41.748 -41.6992 L 40.1855 -40.0391 C 39.5996 -39.4531 39.8926 -38.6719 40.1367 -38.2324 C 40.918 -36.8164 42.9688 -34.4238 45.166 -32.2754 C 47.4121 -30.0293 49.6582 -28.0273 51.1719 -27.1973 C 51.709 -26.9043 52.5391 -26.7578 53.0273 -27.2461 L 54.6387 -28.8086 C 56.3965 -30.5176 57.8125 -31.1523 60.4492 -29.2969 C 62.8418 -27.5879 65.1367 -25.9277 67.4805 -24.3652 C 70.0684 -22.5586 70.8984 -20.4102 68.5059 -18.2617 C 67.9688 -17.7734 67.4805 -17.1875 66.9922 -16.6992 C 59.8633 -9.57031 47.9492 -15.5762 38.2324 -25.293 Z"/>
  </g>
  <g id="Bold-S" transform="matrix(1 0 0 1 2292.44 696)">
   <path d="M 47.5586 5.51758 C 69.873 5.51758 88.2324 -12.8418 88.2324 -35.1562 C 88.2324 -57.5195 69.873 -75.8789 47.5098 -75.8789 C 25.1953 -75.8789 6.83594 -57.5195 6.83594 -35.1562 C 6.83594 -12.8418 25.1953 5.51758 47.5586 5.51758 Z M 37.5488 -25.4395 C 27.832 -35.0586 21.8262 -47.0215 29.0039 -54.1992 C 29.4922 -54.6875 30.0293 -55.1758 30.5176 -55.6641 C 32.7637 -57.9102 34.7656 -57.3242 36.6211 -54.6875 L 41.5527 -47.6562 C 43.3594 -44.9707 42.8223 -43.7012 41.0645 -41.8457 L 39.502 -40.1855 C 38.916 -39.5996 39.209 -38.8184 39.4531 -38.3789 C 40.2344 -36.9629 42.2852 -34.5703 44.4824 -32.4219 C 46.7285 -30.1758 48.9746 -28.1738 50.4883 -27.3438 C 51.0254 -27.0508 51.8555 -26.9043 52.3438 -27.3926 L 53.9551 -28.9551 C 55.7129 -30.6641 57.1289 -31.2988 59.7656 -29.4434 C 62.207 -27.6855 64.502 -26.0742 66.7969 -24.5117 C 69.3848 -22.7051 70.2148 -20.5566 67.8223 -18.4082 C 67.2852 -17.9199 66.7969 -17.334 66.3086 -16.8457 C 59.1797 -9.7168 47.2656 -15.7227 37.5488 -25.4395 Z"/>
  </g>
  <g id="Semibold-S" transform="matrix(1 0 0 1 1996.2 696)">
   <path d="M 47.0703 5.0293 C 69.0918 5.0293 87.3047 -13.1348 87.3047 -35.2051 C 87.3047 -57.2266 69.0918 -75.4395 47.0215 -75.4395 C 25 -75.4395 6.83594 -57.2266 6.83594 -35.2051 C 6.83594 -13.1348 25.0488 5.0293 47.0703 5.0293 Z M 37.0605 -25.5371 C 27.3926 -35.1562 21.3867 -47.1191 28.5645 -54.2969 C 29.0527 -54.7852 29.541 -55.2734 30.0293 -55.7617 C 32.3242 -58.0078 34.2773 -57.4219 36.1328 -54.7852 L 41.0645 -47.7539 C 42.9199 -45.1172 42.334 -43.7988 40.5762 -41.9434 L 39.0137 -40.2832 C 38.4277 -39.6973 38.7207 -38.916 38.9648 -38.4766 C 39.7461 -37.0605 41.8457 -34.668 43.9941 -32.5195 C 46.2402 -30.2734 48.4863 -28.2715 50 -27.4414 C 50.5371 -27.1484 51.3672 -27.002 51.8555 -27.4902 L 53.4668 -29.0527 C 55.2246 -30.7617 56.6895 -31.3965 59.2773 -29.541 C 61.7676 -27.7832 64.0625 -26.1719 66.3574 -24.6094 C 68.9453 -22.8027 69.7266 -20.6543 67.334 -18.5059 C 66.7969 -18.0176 66.3086 -17.4316 65.8691 -16.9922 C 58.7402 -9.86328 46.7773 -15.8691 37.0605 -25.5371 Z"/>
  </g>
  <g id="Medium-S" transform="matrix(1 0 0 1 1699.83 696)">
   <path d="M 46.7285 4.6875 C 68.5547 4.6875 86.6211 -13.3789 86.6211 -35.2051 C 86.6211 -56.9824 68.5059 -75.0977 46.6797 -75.0977 C 24.8535 -75.0977 6.83594 -56.9824 6.83594 -35.2051 C 6.83594 -13.3789 24.9023 4.6875 46.7285 4.6875 Z M 36.7188 -25.5859 C 27.0508 -35.2539 21.0449 -47.2168 28.2227 -54.3945 C 28.6621 -54.8828 29.1992 -55.3223 29.6875 -55.8105 C 31.9336 -58.0566 33.9355 -57.4707 35.791 -54.834 L 40.7227 -47.8027 C 42.5293 -45.166 41.9922 -43.8965 40.2344 -41.9922 L 38.6719 -40.332 C 38.0859 -39.7461 38.3789 -39.0137 38.623 -38.5742 C 39.4043 -37.1582 41.4551 -34.7656 43.6523 -32.5684 C 45.8984 -30.3223 48.1445 -28.3203 49.6582 -27.4902 C 50.1953 -27.1973 51.0254 -27.0996 51.5137 -27.5391 L 53.125 -29.1504 C 54.8828 -30.8594 56.3477 -31.4453 58.9355 -29.6387 C 61.4258 -27.832 63.7207 -26.2207 65.9668 -24.6582 C 68.5547 -22.9004 69.3359 -20.7031 66.9434 -18.5547 C 66.4551 -18.0664 65.9668 -17.5293 65.4785 -17.041 C 58.3496 -9.91211 46.4355 -15.918 36.7188 -25.5859 Z"/>
  </g>
  <g id="Regular-S" transform="matrix(1 0 0 1 1403.58 696)">
   <path d="M 46.2402 4.19922 C 67.7734 4.19922 85.6934 -13.6719 85.6934 -35.2051 C 85.6934 -56.7383 67.7246 -74.6094 46.1914 -74.6094 C 24.707 -74.6094 6.83594 -56.7383 6.83594 -35.2051 C 6.83594 -13.6719 24.7559 4.19922 46.2402 4.19922 Z M 36.2305 -25.7324 C 26.6113 -35.3027 20.5566 -47.3145 27.7344 -54.4922 C 28.2227 -54.9316 28.7598 -55.4199 29.1992 -55.9082 C 31.4941 -58.1543 33.4961 -57.6172 35.3516 -54.9805 L 40.2832 -47.9004 C 42.0898 -45.2637 41.5527 -43.9941 39.7949 -42.1387 L 38.2324 -40.4297 C 37.6465 -39.8926 37.8906 -39.1113 38.1348 -38.6719 C 38.916 -37.2559 41.0156 -34.8633 43.1641 -32.666 C 45.459 -30.4199 47.7051 -28.418 49.2188 -27.5879 C 49.7559 -27.2949 50.5371 -27.1973 51.0254 -27.6855 L 52.6855 -29.248 C 54.4434 -30.957 55.8594 -31.543 58.4473 -29.7363 C 61.0352 -27.9297 63.2812 -26.3184 65.5273 -24.7559 C 68.1152 -22.998 68.8965 -20.8496 66.4551 -18.6523 C 65.9668 -18.2129 65.4785 -17.627 65.0391 -17.1875 C 57.9102 -10.0586 45.9473 -16.0645 36.2305 -25.7324 Z"/>
  </g>
  <g id="Light-S" transform="matrix(1 0 0 1 1107.6 696)">
   <path d="M 45.5078 3.51562 C 66.6992 3.51562 84.2285 -14.0137 84.2285 -35.1562 C 84.2285 -56.3477 66.6504 -73.877 45.5078 -73.877 C 24.3164 -73.877 6.83594 -56.3477 6.83594 -35.1562 C 6.83594 -14.0137 24.3652 3.51562 45.5078 3.51562 Z M 35.5469 -25.5859 C 26.2207 -34.9121 20.1172 -47.0215 27.2949 -54.1504 C 27.6855 -54.541 28.0762 -54.9316 28.4668 -55.2734 C 30.5664 -57.2266 32.8125 -57.4707 34.668 -54.834 L 39.6484 -47.7051 C 41.2598 -45.4102 40.9668 -43.9941 39.1113 -41.9922 L 37.5 -40.2832 C 36.9629 -39.7461 37.1582 -39.0625 37.4512 -38.5742 C 38.1348 -37.207 40.1367 -34.7656 42.4316 -32.4707 C 44.7266 -30.1758 47.1191 -28.2227 48.5352 -27.4414 C 49.0723 -27.1484 49.8535 -27.0996 50.3418 -27.5391 L 51.9531 -29.1504 C 53.8574 -30.957 55.3711 -31.2988 57.666 -29.7363 C 61.5234 -27.002 63.2812 -25.7812 64.9902 -24.6094 C 67.1875 -22.9004 67.627 -20.7031 65.1855 -18.4082 C 64.7949 -18.0664 64.502 -17.6758 64.1113 -17.334 C 56.9824 -10.2051 44.9219 -16.2598 35.5469 -25.5859 Z"/>
  </g>
  <g id="Thin-S" transform="matrix(1 0 0 1 811.867 696)">
   <path d="M 44.5801 2.58789 C 65.2832 2.58789 82.2754 -14.4043 82.2754 -35.1562 C 82.2754 -55.8594 65.2344 -72.8516 44.5312 -72.8516 C 23.8281 -72.8516 6.83594 -55.8594 6.83594 -35.1562 C 6.83594 -14.4043 23.877 2.58789 44.5801 2.58789 Z M 34.6191 -25.4395 C 25.7324 -34.3262 19.5801 -46.582 26.709 -53.7598 C 26.9531 -53.9551 27.1973 -54.248 27.4902 -54.4922 C 29.3457 -56.0059 31.9336 -57.2754 33.7891 -54.6387 L 38.8672 -47.4121 C 40.1367 -45.6055 40.1367 -43.9453 38.2324 -41.8457 L 36.6211 -40.0391 C 36.1328 -39.5508 36.2305 -39.0137 36.4746 -38.4766 C 37.1094 -37.1582 39.0137 -34.668 41.4062 -32.2266 C 43.8477 -29.834 46.3379 -27.9785 47.6562 -27.2949 C 48.2422 -26.9531 48.877 -27.002 49.3652 -27.3926 L 51.0742 -29.0527 C 53.0762 -30.957 54.7363 -30.957 56.5918 -29.6875 C 62.1582 -25.8301 63.3301 -25.0488 64.2578 -24.3652 C 66.0156 -22.7539 66.0156 -20.5566 63.5254 -18.1152 C 63.3301 -17.9199 63.1348 -17.7246 62.9395 -17.4805 C 55.8105 -10.3516 43.5059 -16.5527 34.6191 -25.4395 Z"/>
  </g>
  <g id="Ultralight-S" transform="matrix(1 0 0 1 515.644 696)">
   <path d="M 44.043 2.09961 C 64.502 2.09961 81.2988 -14.6484 81.2988 -35.1074 C 81.2988 -55.5664 64.502 -72.3145 44.043 -72.3145 C 23.584 -72.3145 6.83594 -55.5664 6.83594 -35.1074 C 6.83594 -14.6484 23.584 2.09961 44.043 2.09961 Z M 34.1309 -25.3418 C 25.4395 -34.0332 19.2383 -46.3867 26.3672 -53.5156 C 26.5625 -53.6621 26.709 -53.9062 26.9531 -54.0527 C 28.7109 -55.3711 31.4453 -57.1777 33.3008 -54.541 L 38.4277 -47.2656 C 39.5508 -45.7031 39.7461 -43.9453 37.793 -41.748 L 36.1328 -39.9414 C 35.6934 -39.4531 35.6934 -38.9648 35.9863 -38.3789 C 36.5723 -37.1094 38.4277 -34.5703 40.8691 -32.1289 C 43.3594 -29.6387 45.9473 -27.8809 47.2168 -27.1484 C 47.8027 -26.8555 48.3887 -26.9043 48.877 -27.2949 L 50.5859 -28.9551 C 52.6855 -30.957 54.4434 -30.8105 56.0547 -29.6875 C 62.5 -25.1953 63.3301 -24.707 63.8672 -24.2676 C 65.4297 -22.6562 65.1855 -20.459 62.6465 -17.9688 C 62.5488 -17.8223 62.4512 -17.7734 62.3535 -17.627 C 55.1758 -10.498 42.7734 -16.6992 34.1309 -25.3418 Z"/>
  </g>
 </g>
</svg>
