<?xml version="1.0" encoding="UTF-8"?>
<!--Generator: Apple Native CoreSVG 149-->
<!DOCTYPE svg
PUBLIC "-//W3C//DTD SVG 1.1//EN"
       "http://www.w3.org/Graphics/SVG/1.1/DTD/svg11.dtd">
<svg version="1.1" xmlns="http://www.w3.org/2000/svg" xmlns:xlink="http://www.w3.org/1999/xlink" width="3300" height="2200">
 <!--glyph: "uni100952.medium", point size: 100.000000, font version: "Version 16.0d18e1", template writer version: "8"-->
 <g id="Notes">
  <rect height="2200" id="artboard" style="fill:white;opacity:1" width="3300" x="0" y="0"/>
  <line id="" style="fill:none;stroke:black;opacity:1;stroke-width:0.5;" x1="263" x2="3036" y1="292" y2="292"/>
  <text style="stroke:none;fill:black;font-family:-apple-system,&quot;SF Pro Display&quot;,&quot;SF Pro Text&quot;,Helvetica,sans-serif;font-weight:bold;" transform="matrix(1 0 0 1 263 322)">Weight/Scale Variations</text>
  <text style="stroke:none;fill:black;font-family:-apple-system,&quot;SF Pro Display&quot;,&quot;SF Pro Text&quot;,Helvetica,sans-serif;text-anchor:middle;" transform="matrix(1 0 0 1 559.711 322)">Ultralight</text>
  <text style="stroke:none;fill:black;font-family:-apple-system,&quot;SF Pro Display&quot;,&quot;SF Pro Text&quot;,Helvetica,sans-serif;text-anchor:middle;" transform="matrix(1 0 0 1 856.422 322)">Thin</text>
  <text style="stroke:none;fill:black;font-family:-apple-system,&quot;SF Pro Display&quot;,&quot;SF Pro Text&quot;,Helvetica,sans-serif;text-anchor:middle;" transform="matrix(1 0 0 1 1153.13 322)">Light</text>
  <text style="stroke:none;fill:black;font-family:-apple-system,&quot;SF Pro Display&quot;,&quot;SF Pro Text&quot;,Helvetica,sans-serif;text-anchor:middle;" transform="matrix(1 0 0 1 1449.84 322)">Regular</text>
  <text style="stroke:none;fill:black;font-family:-apple-system,&quot;SF Pro Display&quot;,&quot;SF Pro Text&quot;,Helvetica,sans-serif;text-anchor:middle;" transform="matrix(1 0 0 1 1746.56 322)">Medium</text>
  <text style="stroke:none;fill:black;font-family:-apple-system,&quot;SF Pro Display&quot;,&quot;SF Pro Text&quot;,Helvetica,sans-serif;text-anchor:middle;" transform="matrix(1 0 0 1 2043.27 322)">Semibold</text>
  <text style="stroke:none;fill:black;font-family:-apple-system,&quot;SF Pro Display&quot;,&quot;SF Pro Text&quot;,Helvetica,sans-serif;text-anchor:middle;" transform="matrix(1 0 0 1 2339.98 322)">Bold</text>
  <text style="stroke:none;fill:black;font-family:-apple-system,&quot;SF Pro Display&quot;,&quot;SF Pro Text&quot;,Helvetica,sans-serif;text-anchor:middle;" transform="matrix(1 0 0 1 2636.69 322)">Heavy</text>
  <text style="stroke:none;fill:black;font-family:-apple-system,&quot;SF Pro Display&quot;,&quot;SF Pro Text&quot;,Helvetica,sans-serif;text-anchor:middle;" transform="matrix(1 0 0 1 2933.4 322)">Black</text>
  <line id="" style="fill:none;stroke:black;opacity:1;stroke-width:0.5;" x1="263" x2="3036" y1="1903" y2="1903"/>
  <g id="" transform="matrix(1 0 0 1 263 1933)">
   <path d="M9.24805 0.830078C13.5547 0.830078 17.1387-2.74414 17.1387-7.05078C17.1387-11.3574 13.5449-14.9316 9.23828-14.9316C4.94141-14.9316 1.36719-11.3574 1.36719-7.05078C1.36719-2.74414 4.95117 0.830078 9.24805 0.830078ZM9.24805-0.654297C5.70312-0.654297 2.87109-3.49609 2.87109-7.05078C2.87109-10.6055 5.69336-13.4473 9.23828-13.4473C12.793-13.4473 15.6348-10.6055 15.6445-7.05078C15.6543-3.49609 12.8027-0.654297 9.24805-0.654297ZM6.39648-6.31836L8.50586-6.31836L8.50586-4.19922C8.50586-3.75977 8.79883-3.45703 9.22852-3.45703C9.67773-3.45703 9.9707-3.75977 9.9707-4.19922L9.9707-6.31836L12.0996-6.31836C12.5391-6.31836 12.8418-6.61133 12.8418-7.04102C12.8418-7.48047 12.5391-7.7832 12.0996-7.7832L9.9707-7.7832L9.9707-9.89258C9.9707-10.3418 9.67773-10.6445 9.22852-10.6445C8.79883-10.6445 8.50586-10.3418 8.50586-9.89258L8.50586-7.7832L6.39648-7.7832C5.94727-7.7832 5.64453-7.48047 5.64453-7.04102C5.64453-6.61133 5.94727-6.31836 6.39648-6.31836Z"/>
  </g>
  <g id="" transform="matrix(1 0 0 1 281.506 1933)">
   <path d="M11.709 2.91016C17.1582 2.91016 21.6699-1.61133 21.6699-7.05078C21.6699-12.5 17.1484-17.0117 11.6992-17.0117C6.25977-17.0117 1.74805-12.5 1.74805-7.05078C1.74805-1.61133 6.26953 2.91016 11.709 2.91016ZM11.709 1.25C7.09961 1.25 3.41797-2.44141 3.41797-7.05078C3.41797-11.6602 7.08984-15.3516 11.6992-15.3516C16.3086-15.3516 20-11.6602 20.0098-7.05078C20.0195-2.44141 16.3184 1.25 11.709 1.25ZM7.98828-6.23047L10.8789-6.23047L10.8789-3.32031C10.8789-2.83203 11.2109-2.5 11.6895-2.5C12.1777-2.5 12.5195-2.83203 12.5195-3.32031L12.5195-6.23047L15.4297-6.23047C15.918-6.23047 16.25-6.5625 16.25-7.04102C16.25-7.5293 15.918-7.87109 15.4297-7.87109L12.5195-7.87109L12.5195-10.7617C12.5195-11.2695 12.1777-11.6016 11.6895-11.6016C11.2109-11.6016 10.8789-11.2598 10.8789-10.7617L10.8789-7.87109L7.98828-7.87109C7.48047-7.87109 7.14844-7.5293 7.14844-7.04102C7.14844-6.5625 7.49023-6.23047 7.98828-6.23047Z"/>
  </g>
  <g id="" transform="matrix(1 0 0 1 304.924 1933)">
   <path d="M14.9707 5.66406C21.9336 5.66406 27.6953-0.0976562 27.6953-7.05078C27.6953-14.0137 21.9238-19.7754 14.9609-19.7754C8.00781-19.7754 2.25586-14.0137 2.25586-7.05078C2.25586-0.0976562 8.01758 5.66406 14.9707 5.66406ZM14.9707 3.84766C8.93555 3.84766 4.08203-1.01562 4.08203-7.05078C4.08203-13.0957 8.92578-17.9492 14.9609-17.9492C21.0059-17.9492 25.8594-13.0957 25.8691-7.05078C25.8789-1.01562 21.0156 3.84766 14.9707 3.84766ZM10.0586-6.14258L14.0625-6.14258L14.0625-2.12891C14.0625-1.5918 14.4336-1.2207 14.9512-1.2207C15.4883-1.2207 15.8594-1.5918 15.8594-2.12891L15.8594-6.14258L19.8828-6.14258C20.4102-6.14258 20.791-6.51367 20.791-7.03125C20.791-7.56836 20.4199-7.94922 19.8828-7.94922L15.8594-7.94922L15.8594-11.9531C15.8594-12.5098 15.4883-12.8809 14.9512-12.8809C14.4336-12.8809 14.0625-12.5 14.0625-11.9531L14.0625-7.94922L10.0586-7.94922C9.50195-7.94922 9.13086-7.56836 9.13086-7.03125C9.13086-6.51367 9.51172-6.14258 10.0586-6.14258Z"/>
  </g>
  <text style="stroke:none;fill:black;font-family:-apple-system,&quot;SF Pro Display&quot;,&quot;SF Pro Text&quot;,Helvetica,sans-serif;font-weight:bold;" transform="matrix(1 0 0 1 263 1953)">Design Variations</text>
  <text style="stroke:none;fill:black;font-family:-apple-system,&quot;SF Pro Display&quot;,&quot;SF Pro Text&quot;,Helvetica,sans-serif;" transform="matrix(1 0 0 1 263 1971)">Symbols are supported in up to nine weights and three scales.</text>
  <text style="stroke:none;fill:black;font-family:-apple-system,&quot;SF Pro Display&quot;,&quot;SF Pro Text&quot;,Helvetica,sans-serif;" transform="matrix(1 0 0 1 263 1989)">For optimal layout with text and other symbols, vertically align</text>
  <text style="stroke:none;fill:black;font-family:-apple-system,&quot;SF Pro Display&quot;,&quot;SF Pro Text&quot;,Helvetica,sans-serif;" transform="matrix(1 0 0 1 263 2007)">symbols with the adjacent text.</text>
  <line id="" style="fill:none;stroke:#00AEEF;stroke-width:0.5;opacity:1.0;" x1="776" x2="776" y1="1919" y2="1933"/>
  <g id="" transform="matrix(1 0 0 1 776 1933)">
   <path d="M3.31055 0.126953C3.82812 0.126953 4.08203-0.0683594 4.26758-0.605469L5.52734-4.0625L11.2891-4.0625L12.5488-0.605469C12.7344-0.0683594 12.9883 0.126953 13.4961 0.126953C14.0137 0.126953 14.3457-0.185547 14.3457-0.673828C14.3457-0.839844 14.3164-0.986328 14.2383-1.20117L9.6582-13.3887C9.43359-13.9941 9.0332-14.2871 8.4082-14.2871C7.80273-14.2871 7.39258-13.9941 7.17773-13.3984L2.59766-1.19141C2.51953-0.976562 2.49023-0.830078 2.49023-0.664062C2.49023-0.175781 2.80273 0.126953 3.31055 0.126953ZM6.00586-5.53711L8.37891-12.1094L8.42773-12.1094L10.8008-5.53711Z"/>
  </g>
  <line id="" style="fill:none;stroke:#00AEEF;stroke-width:0.5;opacity:1.0;" x1="792.836" x2="792.836" y1="1919" y2="1933"/>
  <text style="stroke:none;fill:black;font-family:-apple-system,&quot;SF Pro Display&quot;,&quot;SF Pro Text&quot;,Helvetica,sans-serif;font-weight:bold;" transform="matrix(1 0 0 1 776 1953)">Margins</text>
  <text style="stroke:none;fill:black;font-family:-apple-system,&quot;SF Pro Display&quot;,&quot;SF Pro Text&quot;,Helvetica,sans-serif;" transform="matrix(1 0 0 1 776 1971)">Leading and trailing margins on the left and right side of each symbol</text>
  <text style="stroke:none;fill:black;font-family:-apple-system,&quot;SF Pro Display&quot;,&quot;SF Pro Text&quot;,Helvetica,sans-serif;" transform="matrix(1 0 0 1 776 1989)">can be adjusted by modifying the x-location of the margin guidelines.</text>
  <text style="stroke:none;fill:black;font-family:-apple-system,&quot;SF Pro Display&quot;,&quot;SF Pro Text&quot;,Helvetica,sans-serif;" transform="matrix(1 0 0 1 776 2007)">Modifications are automatically applied proportionally to all</text>
  <text style="stroke:none;fill:black;font-family:-apple-system,&quot;SF Pro Display&quot;,&quot;SF Pro Text&quot;,Helvetica,sans-serif;" transform="matrix(1 0 0 1 776 2025)">scales and weights.</text>
  <g id="" transform="matrix(1 0 0 1 1289 1933)">
   <path d="M2.8418 1.86523L4.54102 3.57422C5.40039 4.44336 6.38672 4.38477 7.31445 3.35938L17.4902-7.85156C17.7539-7.76367 18.0273-7.7832 18.3398-7.8418L19.4043-8.03711L20.0684-7.36328L20.0293-6.80664C19.9902-6.30859 20.1172-5.92773 20.6055-5.44922L21.3672-4.70703C21.8457-4.22852 22.4609-4.19922 22.9297-4.66797L25.8398-7.58789C26.3086-8.05664 26.2891-8.65234 25.8105-9.13086L25.0391-9.89258C24.5605-10.3711 24.1895-10.5273 23.7109-10.4883L23.1348-10.4395L22.4902-11.0742L22.7344-12.1973C22.8613-12.7637 22.7051-13.2031 22.1191-13.7891L19.9219-15.9766C16.582-19.2969 12.1484-19.2188 9.25781-16.3281C8.83789-15.918 8.80859-15.3418 9.04297-14.9512C9.27734-14.5898 9.73633-14.3555 10.3809-14.5215C11.8457-14.8633 13.3691-14.9219 14.7949-13.9844L14.209-12.5293C14.0137-12.0508 13.9844-11.6504 14.1113-11.2891L3.04688-0.898438C2.06055 0.0195312 1.98242 0.996094 2.8418 1.86523ZM10.752-15.957C13.1836-17.7344 16.4746-17.4316 18.7012-15.2051L21.1328-12.793C21.3672-12.5586 21.4062-12.373 21.3379-12.0312L21.0156-10.5469L22.5195-9.0625L23.5059-9.12109C23.7598-9.13086 23.8379-9.11133 24.0332-8.91602L24.6094-8.33984L22.168-5.89844L21.5918-6.47461C21.3965-6.66992 21.3672-6.74805 21.377-7.01172L21.4453-7.98828L19.9512-9.47266L18.4277-9.21875C18.1055-9.15039 17.959-9.17969 17.7148-9.41406L15.7129-11.416C15.459-11.6504 15.4297-11.8164 15.5859-12.1875L16.4648-14.2773C14.9023-15.7324 12.8711-16.3574 10.8398-15.7617C10.6836-15.7227 10.625-15.8496 10.752-15.957ZM5.27344 2.30469L4.10156 1.14258C3.63281 0.683594 3.74023 0.341797 4.14062-0.0195312L14.9512-10.1953L16.416-8.71094L6.42578 2.27539C6.07422 2.67578 5.74219 2.77344 5.27344 2.30469Z"/>
  </g>
  <text style="stroke:none;fill:black;font-family:-apple-system,&quot;SF Pro Display&quot;,&quot;SF Pro Text&quot;,Helvetica,sans-serif;font-weight:bold;" transform="matrix(1 0 0 1 1289 1953)">Exporting</text>
  <text style="stroke:none;fill:black;font-family:-apple-system,&quot;SF Pro Display&quot;,&quot;SF Pro Text&quot;,Helvetica,sans-serif;" transform="matrix(1 0 0 1 1289 1971)">Symbols should be outlined when exporting to ensure the</text>
  <text style="stroke:none;fill:black;font-family:-apple-system,&quot;SF Pro Display&quot;,&quot;SF Pro Text&quot;,Helvetica,sans-serif;" transform="matrix(1 0 0 1 1289 1989)">design is preserved when submitting to Xcode.</text>
  <text id="template-version" style="stroke:none;fill:black;font-family:-apple-system,&quot;SF Pro Display&quot;,&quot;SF Pro Text&quot;,Helvetica,sans-serif;text-anchor:end;" transform="matrix(1 0 0 1 3036 1933)">Template v.2.0</text>
  <text style="stroke:none;fill:black;font-family:-apple-system,&quot;SF Pro Display&quot;,&quot;SF Pro Text&quot;,Helvetica,sans-serif;text-anchor:end;" transform="matrix(1 0 0 1 3036 1951)">Requires Xcode 12 or greater</text>
  <text style="stroke:none;fill:black;font-family:-apple-system,&quot;SF Pro Display&quot;,&quot;SF Pro Text&quot;,Helvetica,sans-serif;text-anchor:end;" transform="matrix(1 0 0 1 3036 1969)">Generated from speaker.wave.2.circle.fill</text>
  <text style="stroke:none;fill:black;font-family:-apple-system,&quot;SF Pro Display&quot;,&quot;SF Pro Text&quot;,Helvetica,sans-serif;text-anchor:end;" transform="matrix(1 0 0 1 3036 1987)">Typeset at 100 points</text>
  <text style="stroke:none;fill:black;font-family:-apple-system,&quot;SF Pro Display&quot;,&quot;SF Pro Text&quot;,Helvetica,sans-serif;" transform="matrix(1 0 0 1 263 726)">Small</text>
  <text style="stroke:none;fill:black;font-family:-apple-system,&quot;SF Pro Display&quot;,&quot;SF Pro Text&quot;,Helvetica,sans-serif;" transform="matrix(1 0 0 1 263 1156)">Medium</text>
  <text style="stroke:none;fill:black;font-family:-apple-system,&quot;SF Pro Display&quot;,&quot;SF Pro Text&quot;,Helvetica,sans-serif;" transform="matrix(1 0 0 1 263 1586)">Large</text>
 </g>
 <g id="Guides">
  <g id="H-reference" style="fill:#27AAE1;stroke:none;" transform="matrix(1 0 0 1 339 696)">
   <path d="M0.976562 0L3.66211 0L12.9883-24.4629L45.752-24.4629L55.127 0L57.7637 0L30.6152-70.459L28.125-70.459ZM29.3457-67.1387L29.4434-67.1387L44.873-26.709L13.8672-26.709Z"/>
  </g>
  <line id="Baseline-S" style="fill:none;stroke:#27AAE1;opacity:1;stroke-width:0.5;" x1="263" x2="3036" y1="696" y2="696"/>
  <line id="Capline-S" style="fill:none;stroke:#27AAE1;opacity:1;stroke-width:0.5;" x1="263" x2="3036" y1="625.541" y2="625.541"/>
  <g id="H-reference" style="fill:#27AAE1;stroke:none;" transform="matrix(1 0 0 1 339 1126)">
   <path d="M0.976562 0L3.66211 0L12.9883-24.4629L45.752-24.4629L55.127 0L57.7637 0L30.6152-70.459L28.125-70.459ZM29.3457-67.1387L29.4434-67.1387L44.873-26.709L13.8672-26.709Z"/>
  </g>
  <line id="Baseline-M" style="fill:none;stroke:#27AAE1;opacity:1;stroke-width:0.5;" x1="263" x2="3036" y1="1126" y2="1126"/>
  <line id="Capline-M" style="fill:none;stroke:#27AAE1;opacity:1;stroke-width:0.5;" x1="263" x2="3036" y1="1055.54" y2="1055.54"/>
  <g id="H-reference" style="fill:#27AAE1;stroke:none;" transform="matrix(1 0 0 1 339 1556)">
   <path d="M0.976562 0L3.66211 0L12.9883-24.4629L45.752-24.4629L55.127 0L57.7637 0L30.6152-70.459L28.125-70.459ZM29.3457-67.1387L29.4434-67.1387L44.873-26.709L13.8672-26.709Z"/>
  </g>
  <line id="Baseline-L" style="fill:none;stroke:#27AAE1;opacity:1;stroke-width:0.5;" x1="263" x2="3036" y1="1556" y2="1556"/>
  <line id="Capline-L" style="fill:none;stroke:#27AAE1;opacity:1;stroke-width:0.5;" x1="263" x2="3036" y1="1485.54" y2="1485.54"/>
  <line id="left-margin" style="fill:none;stroke:#00AEEF;stroke-width:0.5;opacity:1.0;" x1="1391.3" x2="1391.3" y1="1030.79" y2="1150.12"/>
  <line id="right-margin" style="fill:none;stroke:#00AEEF;stroke-width:0.5;opacity:1.0;" x1="1508.39" x2="1508.39" y1="1030.79" y2="1150.12"/>
 </g>
 <g id="Symbols">
  <g id="Black-L" transform="matrix(1 0 0 1 2854.05 1556)">
   <path d="M79.3457 32.9102C116.748 32.9102 147.412 2.29492 147.412-35.1074C147.412-72.5586 116.748-103.174 79.2969-103.174C41.8945-103.174 11.2793-72.5586 11.2793-35.1074C11.2793 2.29492 41.9434 32.9102 79.3457 32.9102ZM74.4141-8.00781C72.4121-8.00781 70.8984-8.83789 68.9941-10.498L57.0801-21.3867C56.9824-21.4844 56.8359-21.5332 56.6406-21.5332L49.3164-21.5332C43.9941-21.5332 41.1133-24.5605 41.1133-30.127L41.1133-40.2344C41.1133-45.8496 43.9941-48.8281 49.3164-48.8281L56.6406-48.8281C56.8359-48.8281 56.9824-48.8281 57.0801-49.0234L68.9941-59.7168C71.0449-61.5234 72.4609-62.3047 74.3652-62.3047C77.3438-62.3047 79.6875-59.9609 79.6875-56.9336L79.6875-13.3301C79.6875-10.3516 77.3438-8.00781 74.4141-8.00781ZM103.418-12.1094C100.977-13.5254 100.732-16.4551 102.295-19.1895C105.225-23.6816 106.738-29.3457 106.738-35.1074C106.738-40.9668 105.225-46.6797 102.295-51.123C100.732-53.7598 100.977-56.7383 103.418-58.1055C105.664-59.4727 108.252-58.8867 109.521-56.7383C113.623-50.4395 115.918-43.1152 115.918-35.1074C115.918-27.2949 113.574-19.9219 109.521-13.5254C108.301-11.4258 105.713-10.8398 103.418-12.1094ZM89.6484-20.459C87.3047-21.9727 86.8164-24.5605 88.6719-27.832C89.9414-29.8828 90.6738-32.5195 90.6738-35.2051C90.6738-37.8906 89.9902-40.5762 88.6719-42.5781C86.7676-45.752 87.3047-48.584 89.6484-49.9512C91.748-51.1719 94.3359-50.5371 95.5566-48.7793C98.2422-45.0684 99.8535-40.2832 99.8535-35.2051C99.8535-30.0293 98.1934-25.2441 95.5566-21.582C94.2871-19.7754 91.6992-19.0918 89.6484-20.459Z"/>
  </g>
  <g id="Heavy-L" transform="matrix(1 0 0 1 2558.39 1556)">
   <path d="M78.2715 31.8848C115.088 31.8848 145.312 1.66016 145.312-35.1562C145.312-71.9238 115.039-102.148 78.2715-102.148C41.4551-102.148 11.2793-71.9238 11.2793-35.1562C11.2793 1.66016 41.5039 31.8848 78.2715 31.8848ZM74.0723-7.56836C72.168-7.56836 70.752-8.34961 68.9941-9.91211L56.4941-21.4844C56.3477-21.582 56.1523-21.6309 55.9082-21.6309L47.998-21.6309C42.9688-21.6309 40.1367-24.5605 40.1367-29.834L40.1367-40.5273C40.1367-45.8008 42.9688-48.6816 47.998-48.6816L55.9082-48.6816C56.1523-48.6816 56.3477-48.6816 56.4941-48.9258L68.9941-60.3516C70.8984-62.0117 72.2168-62.793 74.0234-62.793C76.7578-62.793 78.9062-60.5957 78.9062-57.8613L78.9062-12.4512C78.9062-9.7168 76.7578-7.56836 74.0723-7.56836ZM102.49-12.1094C100.244-13.3789 100.049-16.1133 101.514-18.5059C104.59-23.0957 106.25-29.0527 106.25-35.1562C106.25-41.3086 104.59-47.2168 101.514-51.8555C100.049-54.248 100.293-56.8848 102.49-58.2031C104.541-59.4727 106.934-58.9355 108.154-56.9336C112.354-50.6348 114.648-43.1641 114.648-35.1562C114.648-27.0996 112.256-19.6777 108.154-13.3789C106.982-11.4258 104.59-10.8887 102.49-12.1094ZM89.1602-20.5078C87.0605-21.9238 86.6211-24.3164 88.2812-27.1484C89.6973-29.3945 90.5273-32.2754 90.5273-35.2051C90.5273-38.2324 89.7461-41.1621 88.3301-43.2129C86.5723-45.9961 87.0605-48.6328 89.1602-49.9023C91.1133-51.0742 93.5059-50.4883 94.7266-48.8281C97.3633-45.166 98.9746-40.2832 98.9746-35.2051C98.9746-30.0293 97.3633-25.1953 94.7266-21.5332C93.457-19.873 91.0645-19.2383 89.1602-20.5078Z"/>
  </g>
  <g id="Bold-L" transform="matrix(1 0 0 1 2262.88 1556)">
   <path d="M77.0996 30.6641C113.232 30.6641 142.92 0.927734 142.92-35.1562C142.92-71.2891 113.184-100.977 77.0508-100.977C40.9668-100.977 11.2793-71.2891 11.2793-35.1562C11.2793 0.927734 41.0156 30.6641 77.0996 30.6641ZM73.6816-7.08008C71.9238-7.08008 70.6055-7.76367 68.9941-9.22852L55.8105-21.582C55.6152-21.7285 55.3711-21.7773 55.0781-21.7773L46.4844-21.7773C41.7969-21.7773 39.1113-24.5605 39.1113-29.4922L39.1113-40.8691C39.1113-45.8008 41.7969-48.5352 46.4844-48.5352L55.0781-48.5352C55.3711-48.5352 55.6152-48.584 55.8105-48.7793L68.9941-61.0352C70.752-62.5977 71.9238-63.3301 73.584-63.3301C76.123-63.3301 77.9785-61.3281 77.9785-58.8867L77.9785-11.4258C77.9785-8.98438 76.123-7.08008 73.6816-7.08008ZM101.465-12.1094C99.5117-13.2324 99.2676-15.6738 100.586-17.7734C103.906-22.4121 105.664-28.7109 105.664-35.2051C105.664-41.6504 103.906-47.8027 100.586-52.6855C99.3164-54.7363 99.5605-57.0801 101.465-58.3008C103.271-59.4727 105.469-58.9844 106.592-57.1777C110.938-50.8301 113.281-43.2129 113.281-35.2051C113.281-26.9043 110.791-19.3359 106.592-13.1836C105.469-11.4258 103.32-10.9863 101.465-12.1094ZM88.6719-20.6055C86.7676-21.9238 86.4258-24.0234 87.8418-26.4648C89.4043-28.8086 90.3809-31.9824 90.3809-35.2051C90.3809-38.5742 89.4531-41.7969 87.8906-43.9453C86.377-46.3379 86.8164-48.6328 88.6719-49.8535C90.3809-50.9766 92.627-50.4883 93.75-48.9258C96.3867-45.2637 97.998-40.332 97.998-35.2051C97.998-30.0293 96.3867-25.0977 93.75-21.5332C92.5293-19.9219 90.332-19.4336 88.6719-20.6055Z"/>
  </g>
  <g id="Semibold-L" transform="matrix(1 0 0 1 1966.97 1556)">
   <path d="M76.2695 29.834C111.914 29.834 141.309 0.439453 141.309-35.1562C141.309-70.8008 111.865-100.195 76.2695-100.195C40.625-100.195 11.2793-70.8008 11.2793-35.1562C11.2793 0.439453 40.6738 29.834 76.2695 29.834ZM73.3887-6.73828C71.7773-6.73828 70.5078-7.37305 68.9941-8.78906L55.3223-21.6309C55.127-21.8262 54.834-21.9238 54.541-21.9238L45.459-21.9238C41.0156-21.9238 38.3789-24.5605 38.3789-29.248L38.3789-41.0645C38.3789-45.8008 41.0156-48.4375 45.459-48.4375L54.541-48.4375C54.834-48.4375 55.127-48.4863 55.3223-48.6816L68.9941-61.4746C70.6543-62.9883 71.7773-63.6719 73.3398-63.6719C75.6836-63.6719 77.3926-61.8652 77.3926-59.5703L77.3926-10.7422C77.3926-8.49609 75.6836-6.73828 73.3887-6.73828ZM100.781-12.1094C98.9746-13.1836 98.7305-15.3809 99.9512-17.2363C103.418-21.9727 105.273-28.5156 105.273-35.2051C105.273-41.8945 103.467-48.1934 100-53.2227C98.7793-55.0781 99.0234-57.2266 100.781-58.3984C102.441-59.4727 104.443-59.082 105.566-57.373C109.961-50.9277 112.305-43.2617 112.305-35.2051C112.305-26.7578 109.814-19.1406 105.518-13.0371C104.443-11.4258 102.49-11.0352 100.781-12.1094ZM88.3301-20.6543C86.6211-21.875 86.2793-23.877 87.5488-25.9277C89.209-28.3691 90.2344-31.7383 90.2344-35.2539C90.2344-38.8672 89.2578-42.2363 87.5977-44.4824C86.2305-46.5332 86.6211-48.6328 88.3301-49.8047C89.8438-50.8789 91.9922-50.4395 93.0664-48.9746C95.7031-45.3613 97.2656-40.3809 97.2656-35.2539C97.2656-30.0293 95.752-25.0488 93.0664-21.4844C91.8945-20.0195 89.8438-19.5312 88.3301-20.6543Z"/>
  </g>
  <g id="Medium-L" transform="matrix(1 0 0 1 1670.87 1556)">
   <path d="M75.6836 29.1992C110.938 29.1992 140.088 0.0976562 140.088-35.1562C140.088-70.459 110.889-99.5605 75.6348-99.5605C40.3809-99.5605 11.2793-70.459 11.2793-35.1562C11.2793 0.0976562 40.3809 29.1992 75.6836 29.1992ZM73.1934-6.44531C71.6309-6.44531 70.4102-7.08008 68.9941-8.44727L54.9805-21.6797C54.7363-21.875 54.4434-21.9727 54.1016-21.9727L44.6777-21.9727C40.3809-21.9727 37.8418-24.5605 37.8418-29.1016L37.8418-41.2598C37.8418-45.8008 40.3809-48.3398 44.6777-48.3398L54.1016-48.3398C54.4434-48.3398 54.7363-48.4375 54.9805-48.6328L68.9941-61.8652C70.5566-63.2812 71.6309-63.9648 73.1445-63.9648C75.3418-63.9648 76.9043-62.2559 76.9043-60.1074L76.9043-10.2051C76.9043-8.10547 75.3418-6.44531 73.1934-6.44531ZM100.195-12.1094C98.5352-13.0859 98.3398-15.1855 99.4629-16.8457C103.076-21.6309 104.98-28.3203 104.98-35.2539C104.98-42.041 103.076-48.4863 99.5117-53.6621C98.3887-55.3223 98.6328-57.3242 100.195-58.4473C101.758-59.4727 103.662-59.082 104.736-57.5195C109.18-51.0254 111.572-43.3105 111.572-35.2539C111.572-26.6602 109.033-18.9453 104.688-12.9395C103.662-11.4746 101.855-11.084 100.195-12.1094ZM88.0859-20.7031C86.4746-21.875 86.1328-23.7305 87.3047-25.5371C89.1113-28.0762 90.1855-31.5918 90.1855-35.2539C90.1855-39.0625 89.1113-42.5781 87.3535-44.873C86.1328-46.7285 86.4746-48.6328 88.0859-49.8047C89.4531-50.8301 91.5039-50.4395 92.5781-49.0234C95.2148-45.4102 96.7773-40.3809 96.7773-35.2539C96.7773-30.0293 95.2637-25 92.5781-21.4844C91.4551-20.0684 89.4531-19.6289 88.0859-20.7031Z"/>
  </g>
  <g id="Regular-L" transform="matrix(1 0 0 1 1374.97 1556)">
   <path d="M74.8535 28.418C109.668 28.418 138.477-0.390625 138.477-35.2051C138.477-69.9707 109.619-98.7793 74.8047-98.7793C40.0391-98.7793 11.2793-69.9707 11.2793-35.2051C11.2793-0.390625 40.0879 28.418 74.8535 28.418ZM72.9492-6.10352C71.4844-6.10352 70.3125-6.73828 68.9941-7.95898L54.4922-21.7285C54.248-21.9727 53.9062-22.0703 53.5156-22.0703L43.6523-22.0703C39.5996-22.0703 37.1094-24.5605 37.1094-28.8574L37.1094-41.4551C37.1094-45.8008 39.5996-48.2422 43.6523-48.2422L53.5156-48.2422C53.9062-48.2422 54.248-48.3398 54.4922-48.5352L68.9941-62.3047C70.459-63.6719 71.4355-64.3555 72.8516-64.3555C74.9023-64.3555 76.2695-62.7441 76.2695-60.791L76.2695-9.52148C76.2695-7.61719 74.9023-6.10352 72.9492-6.10352ZM99.5117-12.0605C97.998-12.9883 97.8027-14.8926 98.8281-16.3574C102.588-21.1914 104.639-28.125 104.639-35.2539C104.639-42.2852 102.637-48.9258 98.877-54.1992C97.9004-55.6641 98.1445-57.4707 99.5117-58.4961C100.928-59.4727 102.686-59.1309 103.662-57.666C108.203-51.1719 110.596-43.3105 110.596-35.2539C110.596-26.5625 108.008-18.75 103.613-12.793C102.637-11.4746 100.977-11.1816 99.5117-12.0605ZM87.7441-20.752C86.2793-21.875 85.9863-23.5352 87.0117-25.0488C88.916-27.6855 90.0391-31.3965 90.0391-35.2539C90.0391-39.3066 88.916-43.0176 87.0605-45.3613C85.9863-46.9238 86.3281-48.6816 87.7441-49.7559C88.9648-50.7812 90.8691-50.3906 91.8945-49.0723C94.5312-45.459 96.0938-40.3809 96.0938-35.2539C96.0938-30.0293 94.5801-24.9023 91.8945-21.4355C90.8203-20.1172 88.9648-19.7266 87.7441-20.752Z"/>
  </g>
  <g id="Light-L" transform="matrix(1 0 0 1 1079.18 1556)">
   <path d="M73.9258 27.4902C108.301 27.4902 136.621-0.830078 136.621-35.2051C136.621-69.5312 108.252-97.8516 73.9258-97.8516C39.5508-97.8516 11.2793-69.5312 11.2793-35.2051C11.2793-0.830078 39.5996 27.4902 73.9258 27.4902ZM72.3145-6.34766C71.0449-6.34766 70.0195-6.98242 68.9453-7.95898L54.0039-22.168C53.7109-22.4121 53.3203-22.5586 52.8809-22.5586L42.5781-22.5586C39.0137-22.5586 36.5723-25 36.5723-28.7109L36.5723-41.6016C36.5723-45.3613 39.0137-47.7539 42.5781-47.7539L52.8809-47.7539C53.3203-47.7539 53.7109-47.8516 54.0039-48.1445L68.9453-62.5C70.1172-63.5742 70.9961-64.1602 72.2656-64.1602C74.0723-64.1602 75.1465-62.793 75.1465-61.084L75.1465-9.375C75.1465-7.71484 74.0723-6.34766 72.3145-6.34766ZM99.3652-12.207C98.1445-12.9883 97.9492-14.5508 98.7793-15.6738C102.832-20.6543 104.883-27.7344 104.883-35.3027C104.883-42.4805 102.881-49.1211 98.877-54.9316C98.0957-56.1523 98.291-57.5684 99.3652-58.4473C100.586-59.2285 102.002-58.9844 102.881-57.7637C107.422-50.9766 109.863-43.3105 109.863-35.3027C109.863-26.0742 107.227-18.4082 102.783-12.793C101.904-11.6211 100.586-11.4746 99.3652-12.207ZM87.207-20.9473C86.0352-21.875 85.791-23.1934 86.5723-24.4141C88.6719-27.2461 89.9414-31.1523 89.9414-35.3027C89.9414-39.5996 88.7207-43.6035 86.6699-46.0938C85.791-47.3633 86.084-48.7305 87.207-49.6582C88.2324-50.4883 89.7949-50.1953 90.6738-49.0723C93.4082-45.459 94.9219-40.4297 94.9219-35.3027C94.9219-30.127 93.457-25.0488 90.6738-21.4844C89.7461-20.3613 88.2324-20.1172 87.207-20.9473Z"/>
  </g>
  <g id="Thin-L" transform="matrix(1 0 0 1 783.693 1556)">
   <path d="M72.7051 26.2695C106.494 26.2695 134.18-1.41602 134.18-35.2051C134.18-68.9453 106.494-96.6309 72.7051-96.6309C38.9648-96.6309 11.2793-68.9453 11.2793-35.2051C11.2793-1.41602 38.9648 26.2695 72.7051 26.2695ZM71.4844-6.68945C70.459-6.68945 69.6777-7.27539 68.9453-7.91016L53.3691-22.7539C52.9785-23.0469 52.5879-23.1934 52.0508-23.1934L41.1133-23.1934C38.1836-23.1934 35.8398-25.5371 35.8398-28.5645L35.8398-41.7969C35.8398-44.7754 38.1836-47.1191 41.1133-47.1191L52.0508-47.1191C52.5879-47.1191 52.9785-47.2656 53.3691-47.5586L68.9453-62.6953C69.6777-63.3789 70.459-63.9648 71.4844-63.9648C72.9492-63.9648 73.6816-62.8418 73.6816-61.4746L73.6816-9.17969C73.6816-7.8125 72.9492-6.68945 71.4844-6.68945ZM99.2188-12.4023C98.3398-12.9883 98.1445-14.0625 98.7305-14.7461C103.125-19.9219 105.273-27.1973 105.273-35.3516C105.273-42.6758 103.174-49.4141 98.877-55.8594C98.3887-56.7383 98.4863-57.666 99.2188-58.3496C100.098-58.9355 101.172-58.7891 101.807-57.8613C106.348-50.6836 108.838-43.2617 108.838-35.3516C108.838-25.3906 106.152-17.9199 101.66-12.7441C100.879-11.8652 100.049-11.8652 99.2188-12.4023ZM86.4746-21.1914C85.6934-21.9238 85.5469-22.7539 85.9863-23.5352C88.3789-26.6602 89.7949-30.8594 89.7949-35.3516C89.7949-40.0391 88.4766-44.3359 86.1328-47.0215C85.5469-47.9004 85.7422-48.8281 86.4746-49.4629C87.207-50.0977 88.3789-49.9512 89.0625-49.0723C91.9434-45.459 93.4082-40.4785 93.4082-35.3516C93.4082-30.3223 91.9434-25.1953 89.0625-21.582C88.3789-20.7031 87.207-20.6055 86.4746-21.1914Z"/>
  </g>
  <g id="Ultralight-L" transform="matrix(1 0 0 1 487.616 1556)">
   <path d="M72.1191 25.6348C105.566 25.6348 132.91-1.70898 132.91-35.2051C132.91-68.6523 105.566-95.9961 72.1191-95.9961C38.623-95.9961 11.2793-68.6523 11.2793-35.2051C11.2793-1.70898 38.623 25.6348 72.1191 25.6348ZM71.0449-6.88477C70.166-6.88477 69.4824-7.42188 68.9453-7.91016L53.0273-23.0469C52.5879-23.3398 52.1973-23.5352 51.6113-23.5352L40.332-23.5352C37.793-23.5352 35.4492-25.8301 35.4492-28.4668L35.4492-41.8945C35.4492-44.4336 37.793-46.7773 40.332-46.7773L51.6113-46.7773C52.1973-46.7773 52.5879-46.9238 53.0273-47.2656L68.9453-62.8418C69.4824-63.2812 70.166-63.8672 71.0938-63.8672C72.3633-63.8672 72.9004-62.8418 72.9004-61.6699L72.9004-9.08203C72.9004-7.86133 72.3633-6.88477 71.0449-6.88477ZM99.1211-12.4512C98.3887-12.9883 98.2422-13.8672 98.6816-14.3066C103.271-19.5801 105.469-26.9531 105.469-35.3516C105.469-42.8223 103.369-49.5605 98.8281-56.3477C98.5352-57.0312 98.584-57.7148 99.1211-58.3496C99.8535-58.7402 100.732-58.6914 101.221-57.9102C105.811-50.5859 108.35-43.2129 108.35-35.3516C108.35-25.0488 105.566-17.7246 101.074-12.7441C100.391-12.0117 99.7559-12.0605 99.1211-12.4512ZM86.1328-21.3379C85.498-21.9238 85.4492-22.5586 85.6934-23.0469C88.2324-26.3672 89.7461-30.6641 89.7461-35.3516C89.7461-40.2832 88.3301-44.6777 85.8398-47.4609C85.4492-48.1934 85.5957-48.877 86.1328-49.3652C86.7188-49.9023 87.6465-49.8535 88.2324-49.1211C91.1621-45.459 92.5781-40.5273 92.5781-35.3516C92.5781-30.4199 91.1621-25.2441 88.2324-21.6309C87.6465-20.8984 86.7188-20.8496 86.1328-21.3379Z"/>
  </g>
  <g id="Black-M" transform="matrix(1 0 0 1 2870.97 1126)">
   <path d="M62.4023 18.5547C91.9922 18.5547 116.113-5.56641 116.113-35.1562C116.113-64.7461 91.9922-88.8184 62.4023-88.8184C32.8125-88.8184 8.74023-64.7461 8.74023-35.1562C8.74023-5.56641 32.8125 18.5547 62.4023 18.5547ZM57.8125-14.8926C56.1523-14.8926 54.9805-15.5762 53.5156-16.8945L44.8242-24.6094C44.7754-24.6582 44.6777-24.6582 44.5801-24.6582L39.4531-24.6582C35.2051-24.6582 32.8125-27.1973 32.8125-31.5918L32.8125-38.7695C32.8125-43.2129 35.2051-45.6543 39.4531-45.6543L44.5801-45.6543C44.6777-45.6543 44.7754-45.6543 44.8242-45.8496L53.5156-53.4668C55.0293-54.834 56.25-55.4688 57.8125-55.4688C60.2539-55.4688 62.2559-53.5156 62.2559-51.0254L62.2559-19.3848C62.2559-16.8945 60.2539-14.8926 57.8125-14.8926ZM81.2988-17.3828C79.248-18.5547 79.0527-20.9961 80.3711-23.3398C82.4707-26.7578 83.5449-30.8594 83.5449-35.1562C83.5449-39.3555 82.4707-43.5059 80.3711-46.9238C79.0527-49.2676 79.248-51.709 81.2988-52.832C83.2031-53.9062 85.3516-53.3691 86.3281-51.6113C89.3555-46.6797 91.1133-41.2598 91.1133-35.1562C91.1133-29.0039 89.3555-23.5352 86.3281-18.6523C85.3516-16.8945 83.2031-16.3574 81.2988-17.3828ZM69.7754-23.7793C67.8223-25 67.4805-27.0996 69.043-30.0293C69.9219-31.543 70.4102-33.3496 70.4102-35.2051C70.4102-37.0605 69.9707-38.916 69.043-40.3809C67.3828-43.2129 67.8223-45.6055 69.7754-46.582C71.582-47.5586 73.6816-47.0215 74.6094-45.6543C76.709-42.7246 77.9785-39.1113 77.9785-35.2051C77.9785-31.2988 76.6602-27.6855 74.6094-24.7559C73.584-23.291 71.5332-22.7539 69.7754-23.7793Z"/>
  </g>
  <g id="Heavy-M" transform="matrix(1 0 0 1 2575.19 1126)">
   <path d="M61.5234 17.627C90.5273 17.627 114.258-6.10352 114.258-35.1562C114.258-64.1602 90.5273-87.8906 61.4746-87.8906C32.4707-87.8906 8.74023-64.1602 8.74023-35.1562C8.74023-6.10352 32.4707 17.627 61.5234 17.627ZM57.5684-14.3066C56.0547-14.3066 54.9316-14.9414 53.4668-16.2109L44.2871-24.6094C44.1895-24.6582 44.0918-24.707 43.9453-24.707L38.2812-24.707C34.2285-24.707 31.9336-27.0508 31.9336-31.2988L31.9336-39.0625C31.9336-43.3105 34.2285-45.6543 38.2812-45.6543L43.9453-45.6543C44.0918-45.6543 44.1895-45.6543 44.2871-45.8496L53.4668-54.1016C54.9805-55.4199 56.1035-56.0059 57.5684-56.0059C59.8633-56.0059 61.6699-54.248 61.6699-51.9043L61.6699-18.457C61.6699-16.1621 59.8633-14.3066 57.5684-14.3066ZM80.3711-17.334C78.4668-18.457 78.2715-20.7031 79.4922-22.8027C81.7383-26.2695 82.9102-30.6152 82.9102-35.1562C82.9102-39.6484 81.7383-44.043 79.4922-47.5586C78.2715-49.6094 78.4668-51.8555 80.3711-52.9297C82.0801-53.9551 84.082-53.5156 85.0098-51.8555C88.1836-46.9238 89.9414-41.3086 89.9414-35.1562C89.9414-28.9551 88.1348-23.3398 85.0098-18.457C84.082-16.8457 82.0801-16.4062 80.3711-17.334ZM69.4336-23.8281C67.627-24.9512 67.2852-26.9531 68.7012-29.4922C69.6777-31.1035 70.2637-33.1055 70.2637-35.2051C70.2637-37.3047 69.7266-39.4043 68.7012-40.918C67.2363-43.4082 67.627-45.6055 69.4336-46.582C71.0938-47.5098 73.0469-47.0703 73.9746-45.7031C76.0742-42.8223 77.2949-39.1602 77.2949-35.2051C77.2949-31.25 76.0254-27.5391 73.9746-24.707C72.998-23.291 71.0449-22.8027 69.4336-23.8281Z"/>
  </g>
  <g id="Bold-M" transform="matrix(1 0 0 1 2279.5 1126)">
   <path d="M60.498 16.5527C88.8672 16.5527 112.207-6.73828 112.207-35.1562C112.207-63.5742 88.8672-86.9141 60.4492-86.9141C32.0312-86.9141 8.74023-63.5742 8.74023-35.1562C8.74023-6.73828 32.0801 16.5527 60.498 16.5527ZM57.373-13.7207C55.9082-13.7207 54.834-14.3066 53.4668-15.4785L43.6523-24.5605C43.5547-24.6582 43.4082-24.707 43.2129-24.707L36.9629-24.707C33.1055-24.707 30.957-26.9531 30.957-31.0059L30.957-39.4043C30.957-43.457 33.1055-45.6543 36.9629-45.6543L43.2129-45.6543C43.4082-45.6543 43.5547-45.6543 43.6523-45.8008L53.4668-54.7852C54.9316-56.1035 55.9082-56.6895 57.3242-56.6895C59.375-56.6895 61.0352-55.0293 61.0352-52.9297L61.0352-17.3828C61.0352-15.332 59.375-13.7207 57.373-13.7207ZM79.248-17.2852C77.5879-18.2617 77.3926-20.3613 78.5156-22.168C80.957-25.6836 82.2266-30.3711 82.2266-35.1562C82.2266-39.9902 80.957-44.5801 78.5156-48.2422C77.3926-50.0488 77.5879-52.0508 79.248-53.0762C80.8105-54.0039 82.6172-53.6133 83.5938-52.0996C86.8652-47.2168 88.623-41.4062 88.623-35.1562C88.623-28.9062 86.7676-23.0957 83.5449-18.2617C82.666-16.7969 80.8594-16.4062 79.248-17.2852ZM69.043-23.8281C67.4316-24.9023 67.0898-26.709 68.3594-28.8574C69.4824-30.6152 70.1172-32.8613 70.1172-35.2051C70.1172-37.5977 69.4824-39.9414 68.3594-41.5527C67.0898-43.6523 67.4316-45.6055 69.043-46.582C70.5078-47.5098 72.3633-47.0703 73.2422-45.8008C75.3418-42.9688 76.5625-39.1602 76.5625-35.2051C76.5625-31.2012 75.293-27.4414 73.2422-24.6094C72.3145-23.3398 70.459-22.8516 69.043-23.8281Z"/>
  </g>
  <g id="Semibold-M" transform="matrix(1 0 0 1 1983.5 1126)">
   <path d="M59.7656 15.8691C87.7441 15.8691 110.791-7.22656 110.791-35.1562C110.791-63.1348 87.6953-86.2305 59.7656-86.2305C31.7871-86.2305 8.74023-63.1348 8.74023-35.1562C8.74023-7.22656 31.7871 15.8691 59.7656 15.8691ZM57.1777-13.2812C55.8105-13.2812 54.7852-13.8184 53.4668-14.9902L43.2617-24.5605C43.1152-24.707 42.9199-24.7559 42.7246-24.7559L36.0352-24.7559C32.373-24.7559 30.2734-26.8555 30.2734-30.7617L30.2734-39.5996C30.2734-43.5059 32.373-45.6055 36.0352-45.6055L42.7246-45.6055C42.9199-45.6055 43.1152-45.6543 43.2617-45.8008L53.4668-55.2734C54.8828-56.543 55.8105-57.1289 57.1289-57.1289C59.082-57.1289 60.5469-55.5664 60.5469-53.6133L60.5469-16.6504C60.5469-14.7461 59.082-13.2812 57.1777-13.2812ZM78.5156-17.2852C76.9531-18.1641 76.8066-20.1172 77.832-21.7285C80.3711-25.3418 81.7383-30.2246 81.7383-35.2051C81.7383-40.2344 80.3711-45.0195 77.832-48.7305C76.8066-50.293 77.002-52.1973 78.5156-53.125C79.9316-54.0527 81.6406-53.7109 82.5684-52.2949C85.9375-47.3633 87.7441-41.4551 87.7441-35.2051C87.7441-28.8574 85.8398-22.9492 82.5684-18.1152C81.6895-16.748 79.9805-16.4062 78.5156-17.2852ZM68.7988-23.8281C67.2852-24.9023 66.9922-26.6113 68.1152-28.4668C69.2871-30.2734 70.0195-32.7148 70.0195-35.2051C70.0195-37.8418 69.3359-40.2832 68.1152-41.9434C66.9434-43.7988 67.2852-45.6055 68.7988-46.582C70.1172-47.4609 71.875-47.0703 72.7539-45.8496C74.8047-43.0176 76.0254-39.209 76.0254-35.2051C76.0254-31.1523 74.8047-27.3438 72.7539-24.6094C71.8262-23.3398 70.0684-22.9004 68.7988-23.8281Z"/>
  </g>
  <g id="Medium-M" transform="matrix(1 0 0 1 1687.3 1126)">
   <path d="M59.2285 15.332C86.9141 15.332 109.766-7.51953 109.766-35.2051C109.766-62.8418 86.8652-85.6934 59.1797-85.6934C31.543-85.6934 8.74023-62.8418 8.74023-35.2051C8.74023-7.51953 31.5918 15.332 59.2285 15.332ZM57.0801-12.9395C55.7617-12.9395 54.7363-13.4766 53.4668-14.5996L42.9199-24.5605C42.7734-24.707 42.5781-24.7559 42.334-24.7559L35.3516-24.7559C31.7871-24.7559 29.7852-26.8066 29.7852-30.6152L29.7852-39.7461C29.7852-43.6035 31.7871-45.6055 35.3516-45.6055L42.334-45.6055C42.5781-45.6055 42.7734-45.6543 42.9199-45.8008L53.4668-55.6641C54.834-56.8848 55.7129-57.4707 56.9824-57.4707C58.8379-57.4707 60.2051-56.0059 60.2051-54.1504L60.2051-16.1133C60.2051-14.3066 58.8379-12.9395 57.0801-12.9395ZM77.9297-17.2363C76.5137-18.1152 76.3184-19.9219 77.2949-21.3867C79.9316-25.0488 81.3965-30.0781 81.3965-35.2051C81.3965-40.3809 79.9805-45.3125 77.3438-49.0723C76.3672-50.5371 76.5625-52.2949 77.9297-53.2227C79.2969-54.1016 80.9082-53.7598 81.7871-52.3926C85.2539-47.5098 87.0605-41.4551 87.0605-35.2051C87.0605-28.8086 85.1074-22.8027 81.7871-18.0176C80.957-16.748 79.3457-16.4062 77.9297-17.2363ZM68.5547-23.877C67.1387-24.9023 66.8945-26.5137 67.9199-28.125C69.1895-29.9805 69.9707-32.5684 69.9707-35.2051C69.9707-37.9883 69.1895-40.5762 67.9688-42.2852C66.8945-43.8965 67.1875-45.6055 68.5547-46.582C69.7754-47.4609 71.4844-47.0703 72.4121-45.8984C74.4141-43.1152 75.6348-39.209 75.6348-35.2051C75.6348-31.1523 74.4629-27.2461 72.4121-24.5605C71.4355-23.3398 69.7754-22.9492 68.5547-23.877Z"/>
  </g>
  <g id="Regular-M" transform="matrix(1 0 0 1 1391.3 1126)">
   <path d="M58.5449 14.5996C85.791 14.5996 108.35-7.95898 108.35-35.2051C108.35-62.4023 85.7422-85.0098 58.4961-85.0098C31.2988-85.0098 8.74023-62.4023 8.74023-35.2051C8.74023-7.95898 31.3477 14.5996 58.5449 14.5996ZM56.8848-12.5C55.6641-12.5 54.6387-12.9883 53.4668-14.1113L42.5293-24.5605C42.3828-24.707 42.0898-24.7559 41.8457-24.7559L34.4727-24.7559C31.0547-24.7559 29.1016-26.709 29.1016-30.3711L29.1016-39.9902C29.1016-43.6523 31.0547-45.6055 34.4727-45.6055L41.8457-45.6055C42.0898-45.6055 42.3828-45.6543 42.5293-45.8008L53.4668-56.1523C54.7852-57.373 55.6152-57.9102 56.7871-57.9102C58.5449-57.9102 59.7656-56.543 59.7656-54.8828L59.7656-15.3809C59.7656-13.7695 58.5449-12.5 56.8848-12.5ZM77.1973-17.2363C75.8789-18.0176 75.7324-19.6777 76.6602-20.9961C79.3945-24.6582 80.9082-29.9316 80.9082-35.2051C80.9082-40.625 79.3945-45.7031 76.6602-49.5605C75.7812-50.8301 75.9766-52.3926 77.1973-53.2715C78.418-54.1504 79.9316-53.8574 80.8105-52.5879C84.3262-47.7051 86.1328-41.5527 86.1328-35.2051C86.1328-28.8086 84.1797-22.6562 80.8105-17.8711C79.9805-16.6992 78.5156-16.4062 77.1973-17.2363ZM68.3105-23.877C66.9922-24.8535 66.748-26.3672 67.6758-27.7344C69.043-29.6387 69.873-32.4219 69.873-35.2051C69.873-38.1836 69.043-40.9668 67.7246-42.6758C66.748-44.043 67.041-45.6055 68.3105-46.582C69.3848-47.4609 71.0449-47.0703 71.9238-45.9473C73.9258-43.1641 75.1465-39.209 75.1465-35.2051C75.1465-31.1035 73.9746-27.1973 71.9238-24.5117C70.9961-23.3398 69.3848-22.998 68.3105-23.877Z"/>
  </g>
  <g id="Light-M" transform="matrix(1 0 0 1 1095.42 1126)">
   <path d="M57.7148 13.7695C84.5215 13.7695 106.689-8.34961 106.689-35.2051C106.689-62.0117 84.5215-84.1797 57.666-84.1797C30.8594-84.1797 8.74023-62.0117 8.74023-35.2051C8.74023-8.34961 30.9082 13.7695 57.7148 13.7695ZM56.3477-12.7441C55.2734-12.7441 54.3945-13.2324 53.4668-14.1113L42.0898-24.9023C41.8457-25.0977 41.6016-25.1953 41.2598-25.1953L33.4961-25.1953C30.5176-25.1953 28.6133-27.0996 28.6133-30.2734L28.6133-40.1367C28.6133-43.2617 30.5176-45.166 33.4961-45.166L41.2598-45.166C41.6016-45.166 41.8457-45.2148 42.0898-45.4102L53.4668-56.2988C54.4922-57.2266 55.2246-57.7148 56.25-57.7148C57.7637-57.7148 58.7402-56.5918 58.7402-55.127L58.7402-15.2832C58.7402-13.8672 57.7637-12.7441 56.3477-12.7441ZM77.0996-17.334C76.0254-18.0176 75.8789-19.3359 76.5625-20.3613C79.5898-24.1699 81.2012-29.5898 81.2012-35.2539C81.2012-40.7715 79.6387-45.8984 76.6602-50.1953C75.9277-51.2207 76.123-52.4902 77.0996-53.2227C78.0762-53.9551 79.3457-53.7109 80.0781-52.6367C83.5938-47.5098 85.498-41.5039 85.498-35.2539C85.498-28.3203 83.4473-22.3633 80.0293-17.8223C79.2969-16.8457 78.125-16.6504 77.0996-17.334ZM67.8223-24.0723C66.7969-24.9023 66.6016-26.0742 67.2852-27.1484C68.8477-29.248 69.7754-32.1777 69.7754-35.2539C69.7754-38.4766 68.8477-41.4551 67.334-43.3105C66.6016-44.4336 66.7969-45.6543 67.8223-46.4355C68.7012-47.168 70.0684-46.9238 70.8496-45.9473C72.9004-43.1641 74.0723-39.2578 74.0723-35.2539C74.0723-31.25 72.9492-27.2949 70.8496-24.5605C70.0195-23.584 68.7012-23.3398 67.8223-24.0723Z"/>
  </g>
  <g id="Thin-M" transform="matrix(1 0 0 1 799.806 1126)">
   <path d="M56.6406 12.6953C82.9102 12.6953 104.492-8.88672 104.492-35.2051C104.492-61.4746 82.9102-83.0566 56.5918-83.0566C30.3223-83.0566 8.74023-61.4746 8.74023-35.2051C8.74023-8.88672 30.3223 12.6953 56.6406 12.6953ZM55.5664-13.0371C54.7363-13.0371 54.1016-13.4766 53.418-14.0625L41.5039-25.4395C41.2109-25.6348 40.918-25.7812 40.5273-25.7812L32.1777-25.7812C29.7852-25.7812 27.9297-27.5879 27.9297-30.0781L27.9297-40.2832C27.9297-42.7246 29.7852-44.5801 32.1777-44.5801L40.5273-44.5801C40.918-44.5801 41.2109-44.6777 41.5039-44.9219L53.418-56.4941C54.1016-57.0801 54.7363-57.5195 55.5664-57.5195C56.7871-57.5195 57.4219-56.6406 57.4219-55.4688L57.4219-15.0879C57.4219-13.9648 56.7871-13.0371 55.5664-13.0371ZM76.9531-17.4805C76.1719-18.0176 76.0254-18.9453 76.5137-19.5801C79.834-23.5352 81.4941-29.1016 81.4941-35.3027C81.4941-40.9668 79.9316-46.1914 76.6113-51.0254C76.1719-51.7578 76.2695-52.5879 76.9531-53.1738C77.6855-53.6621 78.6133-53.5645 79.1016-52.7344C82.666-47.2656 84.5703-41.4551 84.5703-35.3027C84.5703-27.7344 82.4707-21.9238 79.0039-17.8223C78.418-17.0898 77.6367-17.041 76.9531-17.4805ZM67.1875-24.3164C66.4551-24.9023 66.3574-25.6836 66.748-26.3672C68.5547-28.7109 69.6289-31.8848 69.6289-35.3027C69.6289-38.8672 68.6035-42.1387 66.8457-44.1406C66.3574-44.9219 66.5039-45.752 67.1875-46.2891C67.8223-46.8262 68.7988-46.7285 69.3848-45.9473C71.582-43.1641 72.7051-39.3066 72.7051-35.3027C72.7051-31.3965 71.582-27.3926 69.3848-24.6582C68.7988-23.877 67.8223-23.7793 67.1875-24.3164Z"/>
  </g>
  <g id="Ultralight-M" transform="matrix(1 0 0 1 503.656 1126)">
   <path d="M56.0547 12.1094C82.0801 12.1094 103.369-9.17969 103.369-35.2051C103.369-61.2305 82.0801-82.5195 56.0547-82.5195C30.0293-82.5195 8.74023-61.2305 8.74023-35.2051C8.74023-9.17969 30.0293 12.1094 56.0547 12.1094ZM55.2246-13.2324C54.4434-13.2324 53.9062-13.623 53.418-14.0625L41.2109-25.6836C40.8691-25.9277 40.5762-26.0742 40.1367-26.0742L31.4941-26.0742C29.3945-26.0742 27.5879-27.8809 27.5879-30.0293L27.5879-40.3809C27.5879-42.4805 29.3945-44.2871 31.4941-44.2871L40.1367-44.2871C40.5762-44.2871 40.8691-44.3848 41.2109-44.6289L53.418-56.5918C53.9062-56.9824 54.4922-57.4219 55.2246-57.4219C56.25-57.4219 56.7383-56.6406 56.7383-55.6641L56.7383-14.9902C56.7383-14.0137 56.25-13.2324 55.2246-13.2324ZM76.8555-17.5781C76.2695-18.0176 76.123-18.75 76.4648-19.1406C79.9805-23.1934 81.6895-28.9062 81.6895-35.3027C81.6895-41.0645 80.0781-46.2891 76.6113-51.416C76.3184-52.0508 76.3672-52.6367 76.8555-53.125C77.4902-53.5156 78.2227-53.4668 78.6133-52.7832C82.1777-47.168 84.1309-41.4062 84.1309-35.3027C84.1309-27.4414 81.9824-21.7285 78.5156-17.8223C77.9297-17.1875 77.3926-17.1875 76.8555-17.5781ZM66.8457-24.4141C66.3086-24.9023 66.2598-25.4395 66.5039-25.9277C68.457-28.4668 69.5801-31.7383 69.5801-35.3027C69.5801-39.0625 68.5059-42.4316 66.6016-44.5801C66.2598-45.2148 66.3574-45.8008 66.8457-46.2402C67.334-46.6309 68.1641-46.582 68.6523-45.9961C70.8984-43.1641 72.0215-39.3066 72.0215-35.3027C72.0215-31.4453 70.8984-27.4902 68.6523-24.6582C68.1641-24.0723 67.334-23.9746 66.8457-24.4141Z"/>
  </g>
  <g id="Black-S" transform="matrix(1 0 0 1 2884.57 696)">
   <path d="M48.8281 6.83594C71.9727 6.83594 90.8203-12.0117 90.8203-35.1562C90.8203-58.3008 71.9727-77.1484 48.8281-77.1484C25.6836-77.1484 6.83594-58.3008 6.83594-35.1562C6.83594-12.0117 25.6836 6.83594 48.8281 6.83594ZM45.2637-19.2383C43.9941-19.2383 43.0664-19.7754 41.8945-20.8008L35.0586-26.9043C35.0098-26.9531 34.9609-26.9531 34.8633-26.9531L30.8105-26.9531C27.4902-26.9531 25.6348-28.9062 25.6348-32.373L25.6348-38.0371C25.6348-41.5039 27.4902-43.4082 30.8105-43.4082L34.8633-43.4082C34.9609-43.4082 35.0098-43.4082 35.0586-43.5547L41.8945-49.5605C43.1152-50.6348 44.043-51.123 45.2637-51.123C47.168-51.123 48.7305-49.6094 48.7305-47.6562L48.7305-22.7539C48.7305-20.8008 47.168-19.2383 45.2637-19.2383ZM63.623-21.2402C62.0117-22.168 61.8652-24.0723 62.8906-25.8789C64.5508-28.5645 65.3809-31.7871 65.3809-35.1562C65.3809-38.4766 64.5508-41.748 62.8906-44.4336C61.8652-46.2402 62.0117-48.1445 63.623-49.0234C65.0879-49.8535 66.748-49.4629 67.5293-48.0957C69.9219-44.2383 71.2891-39.9414 71.2891-35.1562C71.2891-30.3711 69.9219-26.0742 67.5293-22.2168C66.748-20.8496 65.0879-20.459 63.623-21.2402ZM54.6387-26.2695C53.125-27.1973 52.832-28.8574 54.0527-31.1035C54.7363-32.3242 55.127-33.7402 55.127-35.2051C55.127-36.6699 54.7852-38.1348 54.0527-39.3066C52.7832-41.5039 53.125-43.3594 54.6387-44.1406C56.0547-44.873 57.666-44.4824 58.3984-43.4082C60.0586-41.1133 61.0352-38.2812 61.0352-35.2051C61.0352-32.1289 60.0098-29.2969 58.3984-27.002C57.6172-25.8789 56.0059-25.4395 54.6387-26.2695Z"/>
  </g>
  <g id="Heavy-S" transform="matrix(1 0 0 1 2588.47 696)">
   <path d="M48.2422 6.20117C70.9961 6.20117 89.5996-12.4023 89.5996-35.1562C89.5996-57.9102 70.9961-76.5625 48.1934-76.5625C25.4395-76.5625 6.83594-57.9102 6.83594-35.1562C6.83594-12.4023 25.4395 6.20117 48.2422 6.20117ZM45.166-18.7988C43.9453-18.7988 43.0176-19.2871 41.8945-20.3125L34.7168-26.8555C34.6191-26.9043 34.5703-26.9043 34.4238-26.9043L30.0293-26.9043C26.8066-26.9043 25-28.7598 25-32.1777L25-38.2324C25-41.6504 26.8066-43.457 30.0293-43.457L34.4238-43.457C34.5703-43.457 34.6191-43.457 34.7168-43.6035L41.8945-50.0488C43.1152-51.123 43.9941-51.5625 45.1172-51.5625C46.9238-51.5625 48.3887-50.1465 48.3887-48.3398L48.3887-22.0703C48.3887-20.2148 46.9238-18.7988 45.166-18.7988ZM62.8906-21.1914C61.377-22.0703 61.2305-23.877 62.207-25.5371C63.9648-28.2227 64.8926-31.6406 64.8926-35.1562C64.8926-38.6719 63.9648-42.1387 62.207-44.8242C61.2305-46.4844 61.4258-48.2422 62.8906-49.1211C64.2578-49.9023 65.8203-49.5605 66.6016-48.2422C69.0918-44.4336 70.459-39.9902 70.459-35.1562C70.459-30.3711 69.043-25.9277 66.6016-22.0703C65.8691-20.8008 64.2578-20.4102 62.8906-21.1914ZM54.4434-26.2695C52.9785-27.1973 52.7344-28.7598 53.8574-30.7617C54.5898-32.0312 55.0293-33.5938 55.0293-35.2051C55.0293-36.8652 54.6387-38.4766 53.8574-39.6484C52.6855-41.6016 52.9785-43.3594 54.4434-44.1406C55.7129-44.873 57.2754-44.5312 58.0566-43.457C59.668-41.2109 60.6445-38.2812 60.6445-35.2051C60.6445-32.0801 59.6191-29.1992 58.0566-26.9531C57.2266-25.8789 55.7129-25.4395 54.4434-26.2695Z"/>
  </g>
  <g id="Bold-S" transform="matrix(1 0 0 1 2292.44 696)">
   <path d="M47.5586 5.51758C69.873 5.51758 88.2324-12.8418 88.2324-35.2051C88.2324-57.5195 69.873-75.8789 47.5098-75.8789C25.1953-75.8789 6.83594-57.5195 6.83594-35.2051C6.83594-12.8418 25.1953 5.51758 47.5586 5.51758ZM45.0684-18.2617C43.8965-18.2617 43.0176-18.75 41.8945-19.7266L34.2773-26.8066C34.2285-26.8555 34.082-26.9043 33.9844-26.9043L29.1504-26.9043C26.0254-26.9043 24.3164-28.6621 24.3164-31.9336L24.3164-38.4766C24.3164-41.748 26.0254-43.5059 29.1504-43.5059L33.9844-43.5059C34.082-43.5059 34.2285-43.5059 34.2773-43.6035L41.8945-50.5371C43.1152-51.6113 43.8965-52.0996 45.0195-52.0996C46.6797-52.0996 47.998-50.7812 47.998-49.0723L47.998-21.2402C47.998-19.5801 46.6797-18.2617 45.0684-18.2617ZM62.0605-21.1426C60.6934-21.9238 60.5469-23.6328 61.4746-25.1465C63.3301-27.8809 64.3066-31.4941 64.3066-35.2051C64.3066-38.916 63.3301-42.5293 61.4746-45.3125C60.5469-46.7285 60.7422-48.3887 62.0605-49.2188C63.3301-50 64.8438-49.6582 65.5762-48.4375C68.1641-44.6777 69.5312-40.0391 69.5312-35.2051C69.5312-30.3711 68.1152-25.8301 65.5762-21.9238C64.8438-20.752 63.3789-20.4102 62.0605-21.1426ZM54.1992-26.2695C52.8809-27.1484 52.5879-28.6621 53.6133-30.3711C54.4434-31.6895 54.9316-33.4473 54.9316-35.2051C54.9316-37.0117 54.4922-38.8184 53.6133-40.0391C52.5879-41.748 52.8809-43.3594 54.1992-44.1406C55.3711-44.9219 56.8848-44.5312 57.6172-43.5059C59.2285-41.3086 60.2051-38.3301 60.2051-35.2051C60.2051-32.0312 59.2285-29.1016 57.6172-26.9043C56.8359-25.8301 55.3223-25.4883 54.1992-26.2695Z"/>
  </g>
  <g id="Semibold-S" transform="matrix(1 0 0 1 1996.2 696)">
   <path d="M47.0703 5.0293C69.0918 5.0293 87.3047-13.1348 87.3047-35.2051C87.3047-57.2266 69.0918-75.4395 47.0215-75.4395C25-75.4395 6.83594-57.2266 6.83594-35.2051C6.83594-13.1348 25.0488 5.0293 47.0703 5.0293ZM44.9707-17.9199C43.8477-17.9199 42.9688-18.3594 41.8945-19.3848L34.0332-26.7578C33.9355-26.8066 33.7891-26.8555 33.6426-26.8555L28.5645-26.8555C25.4883-26.8555 23.8281-28.5645 23.8281-31.7383L23.8281-38.623C23.8281-41.8457 25.4883-43.5059 28.5645-43.5059L33.6426-43.5059C33.7891-43.5059 33.9355-43.5547 34.0332-43.6523L41.8945-50.9277C43.0664-52.002 43.8477-52.4414 44.9219-52.4414C46.5332-52.4414 47.7539-51.1719 47.7539-49.5605L47.7539-20.7031C47.7539-19.1406 46.5332-17.9199 44.9707-17.9199ZM61.5234-21.1426C60.2051-21.875 60.0586-23.4863 60.9375-24.8535C62.8906-27.6367 63.9648-31.3965 63.9648-35.2051C63.9648-39.1113 62.8906-42.8223 60.9375-45.6055C60.1074-46.9238 60.2539-48.4863 61.5234-49.2676C62.6953-50.0488 64.1113-49.7559 64.8926-48.584C67.5293-44.8242 68.8965-40.0879 68.8965-35.2051C68.8965-30.3711 67.4316-25.6836 64.8926-21.8262C64.1602-20.7031 62.7441-20.4102 61.5234-21.1426ZM54.0039-26.2695C52.7832-27.1484 52.5391-28.5645 53.4668-30.127C54.3457-31.4453 54.8828-33.3008 54.8828-35.2051C54.8828-37.1582 54.3457-39.0625 53.4668-40.2832C52.4902-41.7969 52.7832-43.3105 54.0039-44.1406C55.127-44.9219 56.5918-44.5801 57.373-43.5547C58.9355-41.3574 59.9121-38.3301 59.9121-35.2051C59.9121-32.0312 58.9355-29.0039 57.373-26.8555C56.543-25.8301 55.0781-25.4883 54.0039-26.2695Z"/>
  </g>
  <g id="Medium-S" transform="matrix(1 0 0 1 1699.83 696)">
   <path d="M46.7285 4.6875C68.5547 4.6875 86.6211-13.3789 86.6211-35.2051C86.6211-57.0312 68.5059-75.0977 46.6797-75.0977C24.8535-75.0977 6.83594-57.0312 6.83594-35.2051C6.83594-13.3789 24.9023 4.6875 46.7285 4.6875ZM44.9219-17.6758C43.8477-17.6758 42.9688-18.0664 41.8945-19.0918L33.7891-26.709C33.6914-26.8066 33.5449-26.8555 33.3984-26.8555L28.0762-26.8555C25.0977-26.8555 23.4863-28.4668 23.4863-31.6406L23.4863-38.7207C23.4863-41.9434 25.0977-43.5547 28.0762-43.5547L33.3984-43.5547C33.5449-43.5547 33.6914-43.5547 33.7891-43.6523L41.8945-51.1719C43.0664-52.2461 43.7988-52.6855 44.8242-52.6855C46.3867-52.6855 47.5586-51.5137 47.5586-49.9512L47.5586-20.3125C47.5586-18.7988 46.3867-17.6758 44.9219-17.6758ZM61.084-21.0938C59.8633-21.8262 59.7168-23.3398 60.5469-24.6582C62.5488-27.4414 63.6719-31.3477 63.6719-35.2051C63.6719-39.209 62.5488-43.0664 60.5469-45.8496C59.7168-47.0703 59.9121-48.5352 61.084-49.3164C62.207-50.0977 63.5742-49.8047 64.3555-48.6816C67.041-44.9219 68.457-40.1367 68.457-35.2051C68.457-30.3711 66.9434-25.6348 64.3555-21.7285C63.6719-20.6543 62.2559-20.3613 61.084-21.0938ZM53.9062-26.2695C52.6855-27.0996 52.4414-28.5156 53.3691-29.8828C54.248-31.25 54.834-33.252 54.834-35.2051C54.834-37.2559 54.2969-39.2578 53.3691-40.5273C52.4414-41.8945 52.6855-43.3105 53.9062-44.1895C54.9316-44.9219 56.3965-44.5801 57.1289-43.5547C58.6914-41.4062 59.668-38.3301 59.668-35.2051C59.668-31.9824 58.7402-28.9551 57.1289-26.8555C56.3477-25.8301 54.9316-25.4883 53.9062-26.2695Z"/>
  </g>
  <g id="Regular-S" transform="matrix(1 0 0 1 1403.58 696)">
   <path d="M46.2402 4.19922C67.7734 4.19922 85.6934-13.6719 85.6934-35.2051C85.6934-56.7383 67.7246-74.6094 46.1914-74.6094C24.707-74.6094 6.83594-56.7383 6.83594-35.2051C6.83594-13.6719 24.7559 4.19922 46.2402 4.19922ZM44.8242-17.334C43.7988-17.334 42.9199-17.7246 41.8945-18.7012L33.5449-26.6602C33.3984-26.7578 33.2031-26.8066 33.0566-26.8066L27.4902-26.8066C24.5605-26.8066 22.998-28.3691 22.998-31.4941L22.998-38.8672C22.998-42.041 24.5605-43.6035 27.4902-43.6035L33.0566-43.6035C33.2031-43.6035 33.3984-43.6035 33.5449-43.7012L41.8945-51.5137C43.0664-52.6367 43.75-53.0762 44.7266-53.0762C46.2402-53.0762 47.3145-51.9043 47.3145-50.4883L47.3145-19.7754C47.3145-18.3594 46.2402-17.334 44.8242-17.334ZM60.5469-21.0449C59.375-21.7285 59.2285-23.1934 60.0586-24.3652C62.1094-27.1484 63.2812-31.25 63.2812-35.2051C63.2812-39.3555 62.1094-43.3594 60.0586-46.1426C59.2773-47.2168 59.4238-48.6328 60.5469-49.4141C61.5723-50.1465 62.8906-49.9023 63.6719-48.7793C66.4062-45.0684 67.8223-40.1855 67.8223-35.2051C67.8223-30.4199 66.3086-25.5371 63.6719-21.6309C62.9883-20.6543 61.6699-20.3613 60.5469-21.0449ZM53.7109-26.2695C52.5879-27.0996 52.3438-28.418 53.2227-29.6387C54.1504-31.0547 54.7852-33.1055 54.7852-35.2051C54.7852-37.4023 54.1504-39.502 53.2227-40.7715C52.3438-41.9434 52.5879-43.3105 53.7109-44.1895C54.6875-44.9219 56.1035-44.5801 56.8848-43.6035C58.3984-41.4551 59.375-38.3301 59.375-35.2051C59.375-31.9336 58.4473-28.8574 56.8848-26.8066C56.0547-25.8301 54.6875-25.4883 53.7109-26.2695Z"/>
  </g>
  <g id="Light-S" transform="matrix(1 0 0 1 1107.6 696)">
   <path d="M45.5078 3.4668C66.6992 3.4668 84.2285-14.0137 84.2285-35.2051C84.2285-56.3965 66.6504-73.877 45.5078-73.877C24.3164-73.877 6.83594-56.3965 6.83594-35.2051C6.83594-14.0137 24.3652 3.4668 45.5078 3.4668ZM44.3359-17.5293C43.457-17.5293 42.7246-17.9199 41.8945-18.7012L33.1055-27.002C32.959-27.1484 32.7637-27.1973 32.5684-27.1973L26.6113-27.1973C24.0723-27.1973 22.5586-28.7109 22.5586-31.3965L22.5586-39.0137C22.5586-41.6992 24.0723-43.1641 26.6113-43.1641L32.5684-43.1641C32.7637-43.1641 32.959-43.2129 33.1055-43.3594L41.8945-51.6602C42.8223-52.5391 43.4082-52.9297 44.2871-52.9297C45.5566-52.9297 46.3867-51.9531 46.3867-50.7324L46.3867-19.6289C46.3867-18.457 45.5566-17.5293 44.3359-17.5293ZM60.4492-21.1426C59.4727-21.7285 59.375-22.9004 60.0098-23.8281C62.2559-26.7578 63.4766-30.957 63.4766-35.2539C63.4766-39.502 62.3047-43.5059 60.0586-46.6797C59.4238-47.6074 59.5703-48.7305 60.4492-49.3652C61.2793-49.9512 62.4023-49.7559 62.9883-48.8281C65.7715-44.9219 67.2363-40.1367 67.2363-35.2539C67.2363-29.9805 65.625-25.2441 62.9883-21.6309C62.4023-20.8008 61.3281-20.6055 60.4492-21.1426ZM53.3203-26.416C52.3926-27.0996 52.1973-28.1738 52.8809-29.1016C54.0039-30.7129 54.6875-32.9102 54.6875-35.2539C54.6875-37.6465 54.0039-39.9414 52.8809-41.3086C52.1973-42.2852 52.3926-43.3594 53.3203-44.0918C54.1016-44.6777 55.2734-44.4336 55.9082-43.6035C57.4707-41.4551 58.4473-38.3789 58.4473-35.2539C58.4473-32.0312 57.5195-28.9551 55.9082-26.8555C55.2246-26.0254 54.1016-25.7812 53.3203-26.416Z"/>
  </g>
  <g id="Thin-S" transform="matrix(1 0 0 1 811.867 696)">
   <path d="M44.5801 2.53906C65.2832 2.53906 82.2754-14.502 82.2754-35.2051C82.2754-55.9082 65.2344-72.9492 44.5312-72.9492C23.8281-72.9492 6.83594-55.9082 6.83594-35.2051C6.83594-14.502 23.877 2.53906 44.5801 2.53906ZM43.7012-17.7734C42.9688-17.7734 42.4316-18.1641 41.8457-18.6523L32.6172-27.4414C32.4219-27.6367 32.1777-27.6855 31.8848-27.6855L25.4395-27.6855C23.4375-27.6855 22.0215-29.1504 22.0215-31.25L22.0215-39.1602C22.0215-41.2109 23.4375-42.6758 25.4395-42.6758L31.8848-42.6758C32.1777-42.6758 32.4219-42.7246 32.6172-42.9199L41.8457-51.8555C42.4805-52.3926 42.9688-52.7344 43.6523-52.7344C44.6777-52.7344 45.2148-51.9531 45.2148-51.0254L45.2148-19.4824C45.2148-18.5547 44.6777-17.7734 43.7012-17.7734ZM60.3027-21.2891C59.6191-21.7285 59.5215-22.5586 59.9609-23.0957C62.5-26.1719 63.7695-30.5176 63.7695-35.2539C63.7695-39.6973 62.5488-43.75 60.0098-47.4121C59.6191-48.0957 59.7168-48.8281 60.3027-49.3164C60.9375-49.707 61.7188-49.6094 62.1582-48.9258C64.9414-44.7266 66.4062-40.1367 66.4062-35.2539C66.4062-29.4922 64.7949-24.9023 62.1094-21.582C61.5723-20.9473 60.9375-20.8984 60.3027-21.2891ZM52.7344-26.6113C52.1484-27.1484 52.0508-27.832 52.3926-28.418C53.7598-30.2246 54.5898-32.666 54.5898-35.2539C54.5898-37.9883 53.8086-40.4785 52.4902-42.041C52.0508-42.7246 52.1484-43.457 52.7344-43.9453C53.2715-44.3848 54.1504-44.2871 54.6387-43.6523C56.2988-41.4551 57.2266-38.3789 57.2266-35.2539C57.2266-32.1777 56.3477-29.0527 54.6387-26.9043C54.1016-26.2695 53.2715-26.1719 52.7344-26.6113Z"/>
  </g>
  <g id="Ultralight-S" transform="matrix(1 0 0 1 515.644 696)">
   <path d="M44.043 2.00195C64.502 2.00195 81.2988-14.7461 81.2988-35.2051C81.2988-55.6641 64.502-72.4121 44.043-72.4121C23.584-72.4121 6.83594-55.6641 6.83594-35.2051C6.83594-14.7461 23.584 2.00195 44.043 2.00195ZM43.3594-17.9199C42.7246-17.9199 42.2852-18.2617 41.8457-18.6523L32.3242-27.6855C32.0801-27.8809 31.8359-27.9785 31.543-27.9785L24.8535-27.9785C23.1445-27.9785 21.6797-29.3945 21.6797-31.1523L21.6797-39.2578C21.6797-40.9668 23.1445-42.3828 24.8535-42.3828L31.543-42.3828C31.8359-42.3828 32.0801-42.4805 32.3242-42.6758L41.8457-51.9531C42.2852-52.2949 42.7246-52.6367 43.3105-52.6367C44.1895-52.6367 44.6289-52.002 44.6289-51.1719L44.6289-19.3848C44.6289-18.6035 44.1895-17.9199 43.3594-17.9199ZM60.2051-21.3867C59.7168-21.7285 59.6191-22.3633 59.9121-22.7539C62.5977-25.8789 63.916-30.3223 63.916-35.3027C63.916-39.7949 62.6465-43.8477 60.0098-47.8027C59.7168-48.3398 59.8145-48.877 60.2051-49.2676C60.7422-49.6094 61.377-49.5117 61.7188-48.9746C64.502-44.6289 66.0156-40.0879 66.0156-35.3027C66.0156-29.1992 64.3555-24.707 61.6211-21.582C61.1816-21.0938 60.6934-21.0449 60.2051-21.3867ZM52.4414-26.709C52.002-27.1484 51.9043-27.6367 52.1484-28.0762C53.6621-29.9805 54.4922-32.5684 54.4922-35.3027C54.4922-38.1836 53.7109-40.8203 52.2461-42.4316C51.9043-42.9688 52.0508-43.5059 52.4414-43.8477C52.8809-44.2383 53.5645-44.1406 53.9551-43.6523C55.7129-41.4551 56.5918-38.4277 56.5918-35.3027C56.5918-32.2754 55.7129-29.1504 53.9551-26.9531C53.5645-26.416 52.8809-26.3672 52.4414-26.709Z"/>
  </g>
 </g>
</svg>
