<?xml version="1.0" encoding="UTF-8"?>
<!--Generator: Apple Native CoreSVG 149-->
<!DOCTYPE svg
PUBLIC "-//W3C//DTD SVG 1.1//EN"
       "http://www.w3.org/Graphics/SVG/1.1/DTD/svg11.dtd">
<svg version="1.1" xmlns="http://www.w3.org/2000/svg" xmlns:xlink="http://www.w3.org/1999/xlink" width="3300" height="2200">
 <!--glyph: "uni100AE1.medium", point size: 100.000000, font version: "Version 16.0d18e1", template writer version: "8"-->
 <g id="Notes">
  <rect height="2200" id="artboard" style="fill:white;opacity:1" width="3300" x="0" y="0"/>
  <line id="" style="fill:none;stroke:black;opacity:1;stroke-width:0.5;" x1="263" x2="3036" y1="292" y2="292"/>
  <text style="stroke:none;fill:black;font-family:-apple-system,&quot;SF Pro Display&quot;,&quot;SF Pro Text&quot;,Helvetica,sans-serif;font-weight:bold;" transform="matrix(1 0 0 1 263 322)">Weight/Scale Variations</text>
  <text style="stroke:none;fill:black;font-family:-apple-system,&quot;SF Pro Display&quot;,&quot;SF Pro Text&quot;,Helvetica,sans-serif;text-anchor:middle;" transform="matrix(1 0 0 1 559.711 322)">Ultralight</text>
  <text style="stroke:none;fill:black;font-family:-apple-system,&quot;SF Pro Display&quot;,&quot;SF Pro Text&quot;,Helvetica,sans-serif;text-anchor:middle;" transform="matrix(1 0 0 1 856.422 322)">Thin</text>
  <text style="stroke:none;fill:black;font-family:-apple-system,&quot;SF Pro Display&quot;,&quot;SF Pro Text&quot;,Helvetica,sans-serif;text-anchor:middle;" transform="matrix(1 0 0 1 1153.13 322)">Light</text>
  <text style="stroke:none;fill:black;font-family:-apple-system,&quot;SF Pro Display&quot;,&quot;SF Pro Text&quot;,Helvetica,sans-serif;text-anchor:middle;" transform="matrix(1 0 0 1 1449.84 322)">Regular</text>
  <text style="stroke:none;fill:black;font-family:-apple-system,&quot;SF Pro Display&quot;,&quot;SF Pro Text&quot;,Helvetica,sans-serif;text-anchor:middle;" transform="matrix(1 0 0 1 1746.56 322)">Medium</text>
  <text style="stroke:none;fill:black;font-family:-apple-system,&quot;SF Pro Display&quot;,&quot;SF Pro Text&quot;,Helvetica,sans-serif;text-anchor:middle;" transform="matrix(1 0 0 1 2043.27 322)">Semibold</text>
  <text style="stroke:none;fill:black;font-family:-apple-system,&quot;SF Pro Display&quot;,&quot;SF Pro Text&quot;,Helvetica,sans-serif;text-anchor:middle;" transform="matrix(1 0 0 1 2339.98 322)">Bold</text>
  <text style="stroke:none;fill:black;font-family:-apple-system,&quot;SF Pro Display&quot;,&quot;SF Pro Text&quot;,Helvetica,sans-serif;text-anchor:middle;" transform="matrix(1 0 0 1 2636.69 322)">Heavy</text>
  <text style="stroke:none;fill:black;font-family:-apple-system,&quot;SF Pro Display&quot;,&quot;SF Pro Text&quot;,Helvetica,sans-serif;text-anchor:middle;" transform="matrix(1 0 0 1 2933.4 322)">Black</text>
  <line id="" style="fill:none;stroke:black;opacity:1;stroke-width:0.5;" x1="263" x2="3036" y1="1903" y2="1903"/>
  <g id="" transform="matrix(1 0 0 1 263 1933)">
   <path d="M9.24805 0.830078C13.5547 0.830078 17.1387-2.74414 17.1387-7.05078C17.1387-11.3574 13.5449-14.9316 9.23828-14.9316C4.94141-14.9316 1.36719-11.3574 1.36719-7.05078C1.36719-2.74414 4.95117 0.830078 9.24805 0.830078ZM9.24805-0.654297C5.70312-0.654297 2.87109-3.49609 2.87109-7.05078C2.87109-10.6055 5.69336-13.4473 9.23828-13.4473C12.793-13.4473 15.6348-10.6055 15.6445-7.05078C15.6543-3.49609 12.8027-0.654297 9.24805-0.654297ZM6.39648-6.31836L8.50586-6.31836L8.50586-4.19922C8.50586-3.75977 8.79883-3.45703 9.22852-3.45703C9.67773-3.45703 9.9707-3.75977 9.9707-4.19922L9.9707-6.31836L12.0996-6.31836C12.5391-6.31836 12.8418-6.61133 12.8418-7.04102C12.8418-7.48047 12.5391-7.7832 12.0996-7.7832L9.9707-7.7832L9.9707-9.89258C9.9707-10.3418 9.67773-10.6445 9.22852-10.6445C8.79883-10.6445 8.50586-10.3418 8.50586-9.89258L8.50586-7.7832L6.39648-7.7832C5.94727-7.7832 5.64453-7.48047 5.64453-7.04102C5.64453-6.61133 5.94727-6.31836 6.39648-6.31836Z"/>
  </g>
  <g id="" transform="matrix(1 0 0 1 281.506 1933)">
   <path d="M11.709 2.91016C17.1582 2.91016 21.6699-1.61133 21.6699-7.05078C21.6699-12.5 17.1484-17.0117 11.6992-17.0117C6.25977-17.0117 1.74805-12.5 1.74805-7.05078C1.74805-1.61133 6.26953 2.91016 11.709 2.91016ZM11.709 1.25C7.09961 1.25 3.41797-2.44141 3.41797-7.05078C3.41797-11.6602 7.08984-15.3516 11.6992-15.3516C16.3086-15.3516 20-11.6602 20.0098-7.05078C20.0195-2.44141 16.3184 1.25 11.709 1.25ZM7.98828-6.23047L10.8789-6.23047L10.8789-3.32031C10.8789-2.83203 11.2109-2.5 11.6895-2.5C12.1777-2.5 12.5195-2.83203 12.5195-3.32031L12.5195-6.23047L15.4297-6.23047C15.918-6.23047 16.25-6.5625 16.25-7.04102C16.25-7.5293 15.918-7.87109 15.4297-7.87109L12.5195-7.87109L12.5195-10.7617C12.5195-11.2695 12.1777-11.6016 11.6895-11.6016C11.2109-11.6016 10.8789-11.2598 10.8789-10.7617L10.8789-7.87109L7.98828-7.87109C7.48047-7.87109 7.14844-7.5293 7.14844-7.04102C7.14844-6.5625 7.49023-6.23047 7.98828-6.23047Z"/>
  </g>
  <g id="" transform="matrix(1 0 0 1 304.924 1933)">
   <path d="M14.9707 5.66406C21.9336 5.66406 27.6953-0.0976562 27.6953-7.05078C27.6953-14.0137 21.9238-19.7754 14.9609-19.7754C8.00781-19.7754 2.25586-14.0137 2.25586-7.05078C2.25586-0.0976562 8.01758 5.66406 14.9707 5.66406ZM14.9707 3.84766C8.93555 3.84766 4.08203-1.01562 4.08203-7.05078C4.08203-13.0957 8.92578-17.9492 14.9609-17.9492C21.0059-17.9492 25.8594-13.0957 25.8691-7.05078C25.8789-1.01562 21.0156 3.84766 14.9707 3.84766ZM10.0586-6.14258L14.0625-6.14258L14.0625-2.12891C14.0625-1.5918 14.4336-1.2207 14.9512-1.2207C15.4883-1.2207 15.8594-1.5918 15.8594-2.12891L15.8594-6.14258L19.8828-6.14258C20.4102-6.14258 20.791-6.51367 20.791-7.03125C20.791-7.56836 20.4199-7.94922 19.8828-7.94922L15.8594-7.94922L15.8594-11.9531C15.8594-12.5098 15.4883-12.8809 14.9512-12.8809C14.4336-12.8809 14.0625-12.5 14.0625-11.9531L14.0625-7.94922L10.0586-7.94922C9.50195-7.94922 9.13086-7.56836 9.13086-7.03125C9.13086-6.51367 9.51172-6.14258 10.0586-6.14258Z"/>
  </g>
  <text style="stroke:none;fill:black;font-family:-apple-system,&quot;SF Pro Display&quot;,&quot;SF Pro Text&quot;,Helvetica,sans-serif;font-weight:bold;" transform="matrix(1 0 0 1 263 1953)">Design Variations</text>
  <text style="stroke:none;fill:black;font-family:-apple-system,&quot;SF Pro Display&quot;,&quot;SF Pro Text&quot;,Helvetica,sans-serif;" transform="matrix(1 0 0 1 263 1971)">Symbols are supported in up to nine weights and three scales.</text>
  <text style="stroke:none;fill:black;font-family:-apple-system,&quot;SF Pro Display&quot;,&quot;SF Pro Text&quot;,Helvetica,sans-serif;" transform="matrix(1 0 0 1 263 1989)">For optimal layout with text and other symbols, vertically align</text>
  <text style="stroke:none;fill:black;font-family:-apple-system,&quot;SF Pro Display&quot;,&quot;SF Pro Text&quot;,Helvetica,sans-serif;" transform="matrix(1 0 0 1 263 2007)">symbols with the adjacent text.</text>
  <line id="" style="fill:none;stroke:#00AEEF;stroke-width:0.5;opacity:1.0;" x1="776" x2="776" y1="1919" y2="1933"/>
  <g id="" transform="matrix(1 0 0 1 776 1933)">
   <path d="M3.31055 0.126953C3.82812 0.126953 4.08203-0.0683594 4.26758-0.605469L5.52734-4.0625L11.2891-4.0625L12.5488-0.605469C12.7344-0.0683594 12.9883 0.126953 13.4961 0.126953C14.0137 0.126953 14.3457-0.185547 14.3457-0.673828C14.3457-0.839844 14.3164-0.986328 14.2383-1.20117L9.6582-13.3887C9.43359-13.9941 9.0332-14.2871 8.4082-14.2871C7.80273-14.2871 7.39258-13.9941 7.17773-13.3984L2.59766-1.19141C2.51953-0.976562 2.49023-0.830078 2.49023-0.664062C2.49023-0.175781 2.80273 0.126953 3.31055 0.126953ZM6.00586-5.53711L8.37891-12.1094L8.42773-12.1094L10.8008-5.53711Z"/>
  </g>
  <line id="" style="fill:none;stroke:#00AEEF;stroke-width:0.5;opacity:1.0;" x1="792.836" x2="792.836" y1="1919" y2="1933"/>
  <text style="stroke:none;fill:black;font-family:-apple-system,&quot;SF Pro Display&quot;,&quot;SF Pro Text&quot;,Helvetica,sans-serif;font-weight:bold;" transform="matrix(1 0 0 1 776 1953)">Margins</text>
  <text style="stroke:none;fill:black;font-family:-apple-system,&quot;SF Pro Display&quot;,&quot;SF Pro Text&quot;,Helvetica,sans-serif;" transform="matrix(1 0 0 1 776 1971)">Leading and trailing margins on the left and right side of each symbol</text>
  <text style="stroke:none;fill:black;font-family:-apple-system,&quot;SF Pro Display&quot;,&quot;SF Pro Text&quot;,Helvetica,sans-serif;" transform="matrix(1 0 0 1 776 1989)">can be adjusted by modifying the x-location of the margin guidelines.</text>
  <text style="stroke:none;fill:black;font-family:-apple-system,&quot;SF Pro Display&quot;,&quot;SF Pro Text&quot;,Helvetica,sans-serif;" transform="matrix(1 0 0 1 776 2007)">Modifications are automatically applied proportionally to all</text>
  <text style="stroke:none;fill:black;font-family:-apple-system,&quot;SF Pro Display&quot;,&quot;SF Pro Text&quot;,Helvetica,sans-serif;" transform="matrix(1 0 0 1 776 2025)">scales and weights.</text>
  <g id="" transform="matrix(1 0 0 1 1289 1933)">
   <path d="M2.8418 1.86523L4.54102 3.57422C5.40039 4.44336 6.38672 4.38477 7.31445 3.35938L17.4902-7.85156C17.7539-7.76367 18.0273-7.7832 18.3398-7.8418L19.4043-8.03711L20.0684-7.36328L20.0293-6.80664C19.9902-6.30859 20.1172-5.92773 20.6055-5.44922L21.3672-4.70703C21.8457-4.22852 22.4609-4.19922 22.9297-4.66797L25.8398-7.58789C26.3086-8.05664 26.2891-8.65234 25.8105-9.13086L25.0391-9.89258C24.5605-10.3711 24.1895-10.5273 23.7109-10.4883L23.1348-10.4395L22.4902-11.0742L22.7344-12.1973C22.8613-12.7637 22.7051-13.2031 22.1191-13.7891L19.9219-15.9766C16.582-19.2969 12.1484-19.2188 9.25781-16.3281C8.83789-15.918 8.80859-15.3418 9.04297-14.9512C9.27734-14.5898 9.73633-14.3555 10.3809-14.5215C11.8457-14.8633 13.3691-14.9219 14.7949-13.9844L14.209-12.5293C14.0137-12.0508 13.9844-11.6504 14.1113-11.2891L3.04688-0.898438C2.06055 0.0195312 1.98242 0.996094 2.8418 1.86523ZM10.752-15.957C13.1836-17.7344 16.4746-17.4316 18.7012-15.2051L21.1328-12.793C21.3672-12.5586 21.4062-12.373 21.3379-12.0312L21.0156-10.5469L22.5195-9.0625L23.5059-9.12109C23.7598-9.13086 23.8379-9.11133 24.0332-8.91602L24.6094-8.33984L22.168-5.89844L21.5918-6.47461C21.3965-6.66992 21.3672-6.74805 21.377-7.01172L21.4453-7.98828L19.9512-9.47266L18.4277-9.21875C18.1055-9.15039 17.959-9.17969 17.7148-9.41406L15.7129-11.416C15.459-11.6504 15.4297-11.8164 15.5859-12.1875L16.4648-14.2773C14.9023-15.7324 12.8711-16.3574 10.8398-15.7617C10.6836-15.7227 10.625-15.8496 10.752-15.957ZM5.27344 2.30469L4.10156 1.14258C3.63281 0.683594 3.74023 0.341797 4.14062-0.0195312L14.9512-10.1953L16.416-8.71094L6.42578 2.27539C6.07422 2.67578 5.74219 2.77344 5.27344 2.30469Z"/>
  </g>
  <text style="stroke:none;fill:black;font-family:-apple-system,&quot;SF Pro Display&quot;,&quot;SF Pro Text&quot;,Helvetica,sans-serif;font-weight:bold;" transform="matrix(1 0 0 1 1289 1953)">Exporting</text>
  <text style="stroke:none;fill:black;font-family:-apple-system,&quot;SF Pro Display&quot;,&quot;SF Pro Text&quot;,Helvetica,sans-serif;" transform="matrix(1 0 0 1 1289 1971)">Symbols should be outlined when exporting to ensure the</text>
  <text style="stroke:none;fill:black;font-family:-apple-system,&quot;SF Pro Display&quot;,&quot;SF Pro Text&quot;,Helvetica,sans-serif;" transform="matrix(1 0 0 1 1289 1989)">design is preserved when submitting to Xcode.</text>
  <text id="template-version" style="stroke:none;fill:black;font-family:-apple-system,&quot;SF Pro Display&quot;,&quot;SF Pro Text&quot;,Helvetica,sans-serif;text-anchor:end;" transform="matrix(1 0 0 1 3036 1933)">Template v.2.0</text>
  <text style="stroke:none;fill:black;font-family:-apple-system,&quot;SF Pro Display&quot;,&quot;SF Pro Text&quot;,Helvetica,sans-serif;text-anchor:end;" transform="matrix(1 0 0 1 3036 1951)">Requires Xcode 12 or greater</text>
  <text style="stroke:none;fill:black;font-family:-apple-system,&quot;SF Pro Display&quot;,&quot;SF Pro Text&quot;,Helvetica,sans-serif;text-anchor:end;" transform="matrix(1 0 0 1 3036 1969)">Generated from speaker.slash.circle.fill</text>
  <text style="stroke:none;fill:black;font-family:-apple-system,&quot;SF Pro Display&quot;,&quot;SF Pro Text&quot;,Helvetica,sans-serif;text-anchor:end;" transform="matrix(1 0 0 1 3036 1987)">Typeset at 100 points</text>
  <text style="stroke:none;fill:black;font-family:-apple-system,&quot;SF Pro Display&quot;,&quot;SF Pro Text&quot;,Helvetica,sans-serif;" transform="matrix(1 0 0 1 263 726)">Small</text>
  <text style="stroke:none;fill:black;font-family:-apple-system,&quot;SF Pro Display&quot;,&quot;SF Pro Text&quot;,Helvetica,sans-serif;" transform="matrix(1 0 0 1 263 1156)">Medium</text>
  <text style="stroke:none;fill:black;font-family:-apple-system,&quot;SF Pro Display&quot;,&quot;SF Pro Text&quot;,Helvetica,sans-serif;" transform="matrix(1 0 0 1 263 1586)">Large</text>
 </g>
 <g id="Guides">
  <g id="H-reference" style="fill:#27AAE1;stroke:none;" transform="matrix(1 0 0 1 339 696)">
   <path d="M0.976562 0L3.66211 0L12.9883-24.4629L45.752-24.4629L55.127 0L57.7637 0L30.6152-70.459L28.125-70.459ZM29.3457-67.1387L29.4434-67.1387L44.873-26.709L13.8672-26.709Z"/>
  </g>
  <line id="Baseline-S" style="fill:none;stroke:#27AAE1;opacity:1;stroke-width:0.5;" x1="263" x2="3036" y1="696" y2="696"/>
  <line id="Capline-S" style="fill:none;stroke:#27AAE1;opacity:1;stroke-width:0.5;" x1="263" x2="3036" y1="625.541" y2="625.541"/>
  <g id="H-reference" style="fill:#27AAE1;stroke:none;" transform="matrix(1 0 0 1 339 1126)">
   <path d="M0.976562 0L3.66211 0L12.9883-24.4629L45.752-24.4629L55.127 0L57.7637 0L30.6152-70.459L28.125-70.459ZM29.3457-67.1387L29.4434-67.1387L44.873-26.709L13.8672-26.709Z"/>
  </g>
  <line id="Baseline-M" style="fill:none;stroke:#27AAE1;opacity:1;stroke-width:0.5;" x1="263" x2="3036" y1="1126" y2="1126"/>
  <line id="Capline-M" style="fill:none;stroke:#27AAE1;opacity:1;stroke-width:0.5;" x1="263" x2="3036" y1="1055.54" y2="1055.54"/>
  <g id="H-reference" style="fill:#27AAE1;stroke:none;" transform="matrix(1 0 0 1 339 1556)">
   <path d="M0.976562 0L3.66211 0L12.9883-24.4629L45.752-24.4629L55.127 0L57.7637 0L30.6152-70.459L28.125-70.459ZM29.3457-67.1387L29.4434-67.1387L44.873-26.709L13.8672-26.709Z"/>
  </g>
  <line id="Baseline-L" style="fill:none;stroke:#27AAE1;opacity:1;stroke-width:0.5;" x1="263" x2="3036" y1="1556" y2="1556"/>
  <line id="Capline-L" style="fill:none;stroke:#27AAE1;opacity:1;stroke-width:0.5;" x1="263" x2="3036" y1="1485.54" y2="1485.54"/>
  <line id="left-margin" style="fill:none;stroke:#00AEEF;stroke-width:0.5;opacity:1.0;" x1="1391.3" x2="1391.3" y1="1030.79" y2="1150.12"/>
  <line id="right-margin" style="fill:none;stroke:#00AEEF;stroke-width:0.5;opacity:1.0;" x1="1508.39" x2="1508.39" y1="1030.79" y2="1150.12"/>
 </g>
 <g id="Symbols">
  <g id="Black-L" transform="matrix(1 0 0 1 2854.05 1556)">
   <path d="M79.3457 32.9102C116.748 32.9102 147.412 2.29492 147.412-35.1074C147.412-72.5586 116.748-103.174 79.2969-103.174C41.8945-103.174 11.2793-72.5586 11.2793-35.1074C11.2793 2.29492 41.9434 32.9102 79.3457 32.9102ZM105.176-2.97852L47.168-60.8887C45.459-62.5977 45.459-65.4297 47.168-67.1875C48.9746-68.9453 51.8555-68.9453 53.5645-67.1875L111.475-9.32617C113.232-7.61719 113.232-4.78516 111.475-2.97852C109.717-1.26953 106.836-1.31836 105.176-2.97852ZM76.3672-53.0273L83.7402-59.7168C85.7422-61.5234 87.207-62.3047 89.1113-62.3047C92.041-62.3047 94.4824-59.9609 94.4824-56.9336L94.4824-34.8633ZM64.0137-21.5332C58.7402-21.5332 55.8105-24.5605 55.8105-30.127L55.8105-40.2832C55.8105-41.4551 55.957-42.5293 56.25-43.457L91.0156-8.54492L90.7715-8.34961C90.1855-8.10547 89.7461-8.00781 89.1113-8.00781C87.1582-8.00781 85.5957-8.83789 83.7402-10.498L71.875-21.3867C71.7773-21.4844 71.6309-21.5332 71.3867-21.5332Z"/>
  </g>
  <g id="Heavy-L" transform="matrix(1 0 0 1 2558.39 1556)">
   <path d="M78.2715 31.8848C115.088 31.8848 145.312 1.66016 145.312-35.1562C145.312-71.9238 115.039-102.148 78.2715-102.148C41.4551-102.148 11.2793-71.9238 11.2793-35.1562C11.2793 1.66016 41.5039 31.8848 78.2715 31.8848ZM105.322-2.39258L45.459-62.1582C43.9453-63.7207 43.8965-66.3086 45.459-67.8711C47.0703-69.4824 49.707-69.4824 51.2695-67.8711L111.035-8.10547C112.646-6.54297 112.646-4.00391 111.035-2.39258C109.473-0.830078 106.836-0.878906 105.322-2.39258ZM74.8535-52.3926L83.3984-60.3516C85.3027-62.0117 86.6211-62.793 88.4277-62.793C91.1621-62.793 93.3105-60.5957 93.3105-57.8613L93.3105-33.8867ZM62.4023-21.6309C57.373-21.6309 54.541-24.5605 54.541-29.834L54.541-40.5762C54.541-41.9434 54.9316-43.2129 55.4688-44.0918L55.6641-44.0918L90.5762-9.13086L90.2832-8.1543C89.7461-7.8125 89.209-7.56836 88.4766-7.56836C86.6211-7.56836 85.1562-8.34961 83.3984-9.91211L70.8984-21.4844C70.8008-21.582 70.6055-21.6309 70.3125-21.6309Z"/>
  </g>
  <g id="Bold-L" transform="matrix(1 0 0 1 2262.88 1556)">
   <path d="M77.0996 30.6641C113.232 30.6641 142.92 0.927734 142.92-35.1562C142.92-71.2891 113.184-100.977 77.0508-100.977C40.9668-100.977 11.2793-71.2891 11.2793-35.1562C11.2793 0.927734 41.0156 30.6641 77.0996 30.6641ZM105.518-1.70898L43.5547-63.5742C42.2363-64.9414 42.1875-67.2363 43.5547-68.6523C45.0195-70.0684 47.3145-70.0684 48.7305-68.6523L110.547-6.78711C111.963-5.37109 111.963-3.17383 110.547-1.70898C109.18-0.341797 106.885-0.390625 105.518-1.70898ZM73.0957-51.709L83.0566-61.0352C84.7656-62.5977 85.9863-63.3301 87.6953-63.3301C90.1367-63.3301 92.041-61.3281 92.041-58.8867L92.041-32.7637ZM60.5469-21.7773C55.8594-21.7773 53.125-24.5605 53.125-29.4922L53.125-40.8691C53.125-42.5293 53.8086-43.9941 54.6387-44.8242L55.0781-44.8242L90.0879-9.76562L89.6973-7.95898C89.209-7.42188 88.5742-7.08008 87.6953-7.08008C86.0352-7.08008 84.668-7.76367 83.0566-9.22852L69.873-21.582C69.6777-21.7285 69.4824-21.7773 69.1406-21.7773Z"/>
  </g>
  <g id="Semibold-L" transform="matrix(1 0 0 1 1966.97 1556)">
   <path d="M76.2695 29.834C111.914 29.834 141.309 0.439453 141.309-35.1562C141.309-70.8008 111.865-100.195 76.2695-100.195C40.625-100.195 11.2793-70.8008 11.2793-35.1562C11.2793 0.439453 40.6738 29.834 76.2695 29.834ZM105.615-1.26953L42.2852-64.5508C41.0156-65.8203 41.0156-67.9199 42.2852-69.1895C43.5547-70.459 45.6543-70.459 46.9238-69.1895L110.254-5.85938C111.523-4.58984 111.523-2.58789 110.254-1.26953C108.984 0 106.885-0.0488281 105.615-1.26953ZM71.9238-51.2695L82.8125-61.4746C84.4238-62.9883 85.5957-63.6719 87.1582-63.6719C89.4531-63.6719 91.2109-61.8652 91.2109-59.5703L91.2109-31.9824ZM59.2773-21.9238C54.7852-21.9238 52.1973-24.5605 52.1973-29.248L52.1973-41.1133C52.1973-42.9688 53.0273-44.5312 54.0527-45.3125L54.6387-45.3125L89.7949-10.2051L89.3555-7.8125C88.8672-7.17773 88.1836-6.73828 87.207-6.73828C85.5957-6.73828 84.2773-7.37305 82.8125-8.78906L69.1406-21.6309C68.9453-21.8262 68.7012-21.9238 68.3105-21.9238Z"/>
  </g>
  <g id="Medium-L" transform="matrix(1 0 0 1 1670.87 1556)">
   <path d="M75.6836 29.1992C110.938 29.1992 140.088 0.0976562 140.088-35.1562C140.088-70.459 110.889-99.5605 75.6348-99.5605C40.3809-99.5605 11.2793-70.459 11.2793-35.1562C11.2793 0.0976562 40.3809 29.1992 75.6836 29.1992ZM105.713-0.878906L41.2598-65.332C40.1367-66.4551 40.1367-68.4082 41.2598-69.5801C42.4805-70.752 44.3848-70.752 45.6055-69.5801L110.01-5.17578C111.133-3.95508 111.133-2.14844 110.01-0.878906C108.838 0.244141 106.885 0.244141 105.713-0.878906ZM71.0449-50.8789L82.6172-61.8652C84.1797-63.2812 85.2539-63.9648 86.7676-63.9648C88.9648-63.9648 90.5273-62.2559 90.5273-60.1074L90.5273-31.3965ZM58.3008-21.9727C54.0039-21.9727 51.4648-24.5605 51.4648-29.1016L51.4648-41.2598C51.4648-43.2617 52.4414-44.9219 53.6133-45.7031L54.3457-45.7031L89.5508-10.5469L89.0625-7.71484C88.5742-6.98242 87.8418-6.44531 86.8164-6.44531C85.2539-6.44531 84.0332-7.08008 82.6172-8.44727L68.6035-21.6797C68.3594-21.875 68.1152-21.9727 67.7246-21.9727Z"/>
  </g>
  <g id="Regular-L" transform="matrix(1 0 0 1 1374.97 1556)">
   <path d="M74.8535 28.418C109.668 28.418 138.477-0.390625 138.477-35.2051C138.477-69.9707 109.619-98.7793 74.8047-98.7793C40.0391-98.7793 11.2793-69.9707 11.2793-35.2051C11.2793-0.390625 40.0879 28.418 74.8535 28.418ZM105.859-0.439453L39.9902-66.3086C38.9648-67.334 38.9648-69.043 39.9902-70.1172C41.0645-71.1426 42.7246-71.1426 43.8477-70.1172L109.668-4.24805C110.693-3.17383 110.693-1.5625 109.668-0.439453C108.643 0.585938 106.885 0.537109 105.859-0.439453ZM69.873-50.4395L82.373-62.3047C83.8379-63.6719 84.8145-64.3555 86.2793-64.3555C88.2812-64.3555 89.6484-62.7441 89.6484-60.791L89.6484-30.6152ZM57.0312-22.0703C52.9785-22.0703 50.4883-24.5605 50.4883-28.8574L50.4883-41.4551C50.4883-43.6523 51.6602-45.459 53.0273-46.1914L53.9062-46.1914L89.209-10.9863L88.6719-7.56836C88.2324-6.73828 87.4512-6.10352 86.3281-6.10352C84.8633-6.10352 83.6914-6.73828 82.373-7.95898L67.8711-21.7285C67.627-21.9727 67.334-22.0703 66.8945-22.0703Z"/>
  </g>
  <g id="Light-L" transform="matrix(1 0 0 1 1079.18 1556)">
   <path d="M73.9258 27.4902C108.301 27.4902 136.621-0.830078 136.621-35.2051C136.621-69.5312 108.252-97.8516 73.9258-97.8516C39.5508-97.8516 11.2793-69.5312 11.2793-35.2051C11.2793-0.830078 39.5996 27.4902 73.9258 27.4902ZM105.469-0.488281L39.0625-66.8945C38.1836-67.7734 38.1348-69.2383 39.0625-70.166C39.9902-71.0449 41.4551-71.0449 42.334-70.166L108.74-3.71094C109.619-2.7832 109.619-1.41602 108.74-0.488281C107.861 0.439453 106.348 0.390625 105.469-0.488281ZM68.3594-49.5605L81.8359-62.5C83.0078-63.5742 83.8867-64.1602 85.1562-64.1602C86.9141-64.1602 88.0371-62.793 88.0371-61.084L88.0371-29.8828ZM55.4199-22.5586C51.8555-22.5586 49.4629-25 49.4629-28.7109L49.4629-41.6016C49.4629-43.9941 51.0254-45.9961 52.9297-46.4844L54.2969-46.4844L87.7441-13.1836L87.4023-8.1543C87.1582-7.17773 86.4258-6.34766 85.2051-6.34766C83.9355-6.34766 82.9102-6.98242 81.8359-7.95898L66.8945-22.168C66.5527-22.4121 66.2109-22.5586 65.7715-22.5586Z"/>
  </g>
  <g id="Thin-L" transform="matrix(1 0 0 1 783.693 1556)">
   <path d="M72.7051 26.2695C106.494 26.2695 134.18-1.41602 134.18-35.2051C134.18-68.9453 106.494-96.6309 72.7051-96.6309C38.9648-96.6309 11.2793-68.9453 11.2793-35.2051C11.2793-1.41602 38.9648 26.2695 72.7051 26.2695ZM104.98-0.537109L37.8906-67.7246C37.1582-68.4082 37.1094-69.4824 37.8906-70.2148C38.5742-70.9473 39.6973-70.9473 40.3809-70.2148L107.52-3.02734C108.203-2.34375 108.203-1.26953 107.52-0.537109C106.836 0.244141 105.664 0.195312 104.98-0.537109ZM66.4062-48.3887L81.1523-62.6953C81.9336-63.3789 82.666-63.9648 83.6914-63.9648C85.1562-63.9648 85.8887-62.8418 85.8887-61.4746L85.8887-28.8574ZM53.3203-23.1934C50.3906-23.1934 48.0469-25.5371 48.0469-28.5645L48.0469-41.7969C48.0469-44.4824 50.2441-46.7285 52.7832-46.8262L54.8828-46.8262L85.8398-16.0645L85.7422-8.93555C85.6934-7.71484 85.0586-6.68945 83.6914-6.68945C82.666-6.68945 81.8848-7.27539 81.1523-7.91016L65.5762-22.7539C65.1855-23.0469 64.7949-23.1934 64.2578-23.1934Z"/>
  </g>
  <g id="Ultralight-L" transform="matrix(1 0 0 1 487.616 1556)">
   <path d="M72.1191 25.6348C105.566 25.6348 132.91-1.70898 132.91-35.2051C132.91-68.6523 105.566-95.9961 72.1191-95.9961C38.623-95.9961 11.2793-68.6523 11.2793-35.2051C11.2793-1.70898 38.623 25.6348 72.1191 25.6348ZM104.736-0.537109L37.2559-68.1152C36.6699-68.7012 36.5723-69.5801 37.2559-70.2637C37.8418-70.8496 38.8184-70.8496 39.4043-70.2637L106.885-2.68555C107.471-2.09961 107.471-1.2207 106.885-0.537109C106.299 0.146484 105.322 0.0488281 104.736-0.537109ZM65.3809-47.7539L80.8105-62.8418C81.3477-63.2812 82.0312-63.8672 82.959-63.8672C84.2285-63.8672 84.8145-62.8418 84.8145-61.6699L84.8145-28.3691ZM52.2461-23.5352C49.6582-23.5352 47.3633-25.8301 47.3633-28.4668L47.3633-41.8945C47.3633-44.7266 49.8047-47.1191 52.7344-47.0215L55.127-47.0215L84.8633-17.5781L84.9121-9.32617C84.9609-7.95898 84.3262-6.88477 82.959-6.88477C82.0312-6.88477 81.3477-7.42188 80.8105-7.91016L64.8926-23.0469C64.4531-23.3398 64.0625-23.5352 63.4766-23.5352Z"/>
  </g>
  <g id="Black-M" transform="matrix(1 0 0 1 2870.97 1126)">
   <path d="M62.4023 18.5547C91.9922 18.5547 116.113-5.56641 116.113-35.1562C116.113-64.7461 91.9922-88.8184 62.4023-88.8184C32.8125-88.8184 8.74023-64.7461 8.74023-35.1562C8.74023-5.56641 32.8125 18.5547 62.4023 18.5547ZM81.0547-11.084L38.3789-53.7109C36.8652-55.1758 36.8652-57.6172 38.3789-59.1309C39.8926-60.6445 42.3828-60.6445 43.8477-59.1309L86.4746-16.5039C87.9883-15.0391 87.9883-12.5977 86.4746-11.084C84.9609-9.57031 82.5195-9.61914 81.0547-11.084ZM60.4492-49.3652L65.0391-53.4668C66.6016-54.834 67.8711-55.4688 69.3359-55.4688C71.7773-55.4688 73.877-53.5156 73.877-51.0254L73.877-35.8887ZM50.9766-24.6582C46.7285-24.6582 44.3359-27.1973 44.3359-31.5918L44.3359-38.8672C44.3359-39.502 44.4336-40.2344 44.5312-40.8691L70.3125-14.9902C69.9707-14.8926 69.7266-14.8926 69.3359-14.8926C67.7734-14.8926 66.5527-15.5762 65.0391-16.8945L56.3965-24.6094C56.3477-24.6582 56.2988-24.6582 56.1035-24.6582Z"/>
  </g>
  <g id="Heavy-M" transform="matrix(1 0 0 1 2575.19 1126)">
   <path d="M61.5234 17.627C90.5273 17.627 114.258-6.10352 114.258-35.1562C114.258-64.1602 90.5273-87.8906 61.4746-87.8906C32.4707-87.8906 8.74023-64.1602 8.74023-35.1562C8.74023-6.10352 32.4707 17.627 61.5234 17.627ZM81.3477-10.4004L36.7676-54.9316C35.4004-56.25 35.4004-58.4961 36.7676-59.8633C38.1348-61.2305 40.3809-61.2305 41.6992-59.8633L86.2305-15.332C87.5977-13.9648 87.5977-11.7676 86.2305-10.4004C84.8633-9.08203 82.666-9.13086 81.3477-10.4004ZM59.1797-48.9258L64.7949-54.1016C66.3086-55.4199 67.4805-56.0059 68.8965-56.0059C71.1914-56.0059 73.0469-54.248 73.0469-51.9043L73.0469-35.0098ZM49.6094-24.707C45.5566-24.707 43.2617-27.0508 43.2617-31.2988L43.2617-39.1113C43.2617-39.9902 43.457-40.8691 43.75-41.5039L43.8477-41.5039L70.2148-15.0391L70.1172-14.6484C69.7266-14.4043 69.3848-14.3066 68.8965-14.3066C67.4316-14.3066 66.2598-14.9414 64.7949-16.2109L55.6641-24.6094C55.5664-24.6582 55.4688-24.707 55.2734-24.707Z"/>
  </g>
  <g id="Bold-M" transform="matrix(1 0 0 1 2279.5 1126)">
   <path d="M60.498 16.5527C88.8672 16.5527 112.207-6.73828 112.207-35.1562C112.207-63.5742 88.8672-86.9141 60.4492-86.9141C32.0312-86.9141 8.74023-63.5742 8.74023-35.1562C8.74023-6.73828 32.0801 16.5527 60.498 16.5527ZM81.6406-9.66797L34.9121-56.3477C33.7402-57.5195 33.7402-59.4727 34.9121-60.6934C36.1328-61.8652 38.1348-61.8652 39.3066-60.6934L85.9863-14.0137C87.207-12.793 87.207-10.8887 85.9863-9.66797C84.7656-8.49609 82.8125-8.49609 81.6406-9.66797ZM57.7148-48.4375L64.5508-54.7852C66.0156-56.1035 67.041-56.6895 68.4082-56.6895C70.459-56.6895 72.1191-55.0293 72.1191-52.9297L72.1191-33.9844ZM48.0469-24.707C44.1895-24.707 42.041-26.9531 42.041-31.0059L42.041-39.4043C42.041-40.5273 42.3828-41.5527 42.8711-42.2363L43.0176-42.2363L70.1172-15.0879L69.873-14.209C69.4824-13.916 69.043-13.7207 68.457-13.7207C67.041-13.7207 65.918-14.3066 64.5508-15.4785L54.7852-24.5605C54.6875-24.6582 54.541-24.707 54.2969-24.707Z"/>
  </g>
  <g id="Semibold-M" transform="matrix(1 0 0 1 1983.5 1126)">
   <path d="M59.7656 15.8691C87.7441 15.8691 110.791-7.22656 110.791-35.1562C110.791-63.1348 87.6953-86.2305 59.7656-86.2305C31.7871-86.2305 8.74023-63.1348 8.74023-35.1562C8.74023-7.22656 31.7871 15.8691 59.7656 15.8691ZM81.8848-9.13086L33.6914-57.2754C32.6172-58.3496 32.6172-60.1562 33.6914-61.2305C34.8145-62.3047 36.5723-62.3047 37.6953-61.2305L85.791-13.0859C86.9141-12.0117 86.9141-10.2539 85.791-9.13086C84.7168-8.10547 82.9102-8.10547 81.8848-9.13086ZM56.7383-48.0957L64.4043-55.2734C65.8203-56.543 66.748-57.1289 68.0664-57.1289C70.0195-57.1289 71.4844-55.5664 71.4844-53.6133L71.4844-33.3008ZM46.9727-24.7559C43.3105-24.7559 41.2109-26.8555 41.2109-30.7617L41.2109-39.5996C41.2109-40.918 41.6504-41.9922 42.2363-42.7246L42.4805-42.7246L70.0684-15.1367L69.7266-13.916C69.2871-13.5742 68.7988-13.2812 68.1152-13.2812C66.748-13.2812 65.6738-13.8184 64.4043-14.9902L54.1992-24.5605C54.0527-24.707 53.9062-24.7559 53.6621-24.7559Z"/>
  </g>
  <g id="Medium-M" transform="matrix(1 0 0 1 1687.3 1126)">
   <path d="M59.2285 15.332C86.9141 15.332 109.766-7.51953 109.766-35.2051C109.766-62.8418 86.8652-85.6934 59.1797-85.6934C31.543-85.6934 8.74023-62.8418 8.74023-35.2051C8.74023-7.51953 31.5918 15.332 59.2285 15.332ZM82.0312-8.74023L32.7148-58.0078C31.7383-58.9844 31.7383-60.6445 32.7148-61.6699C33.7402-62.6465 35.4004-62.6465 36.4258-61.6699L85.6934-12.4023C86.6699-11.377 86.6699-9.81445 85.6934-8.74023C84.668-7.76367 83.0078-7.8125 82.0312-8.74023ZM55.957-47.8516L64.2578-55.6641C65.625-56.8848 66.5527-57.4707 67.8223-57.4707C69.6289-57.4707 71.0449-56.0059 71.0449-54.1504L71.0449-32.7637ZM46.1914-24.7559C42.5781-24.7559 40.5762-26.8066 40.5762-30.6152L40.5762-39.7949C40.5762-41.2109 41.1133-42.3828 41.748-43.0664L42.0898-43.0664L70.0195-15.1367L69.5801-13.7207C69.1406-13.2812 68.6035-12.9395 67.8711-12.9395C66.5527-12.9395 65.5273-13.4766 64.2578-14.5996L53.7598-24.5605C53.6133-24.707 53.418-24.7559 53.125-24.7559Z"/>
  </g>
  <g id="Regular-M" transform="matrix(1 0 0 1 1391.3 1126)">
   <path d="M58.5449 14.5996C85.791 14.5996 108.35-7.95898 108.35-35.2051C108.35-62.4023 85.7422-85.0098 58.4961-85.0098C31.2988-85.0098 8.74023-62.4023 8.74023-35.2051C8.74023-7.95898 31.3477 14.5996 58.5449 14.5996ZM82.2266-8.25195L31.4941-58.9355C30.6641-59.8633 30.6152-61.3281 31.4941-62.207C32.4219-63.1348 33.8867-63.1348 34.8145-62.207L85.498-11.5234C86.377-10.5957 86.377-9.17969 85.498-8.25195C84.6191-7.37305 83.1055-7.42188 82.2266-8.25195ZM54.9805-47.5098L64.1113-56.1523C65.4297-57.373 66.2598-57.9102 67.4805-57.9102C69.1895-57.9102 70.4102-56.543 70.4102-54.8828L70.4102-32.0801ZM45.1172-24.7559C41.6992-24.7559 39.7461-26.709 39.7461-30.3711L39.7461-39.9902C39.7461-41.5527 40.3809-42.8223 41.1621-43.5547L41.5527-43.5547L69.9707-15.1855L69.4336-13.4277C68.9941-12.9395 68.3594-12.5 67.5293-12.5C66.3086-12.5 65.2832-12.9883 64.1113-14.1113L53.1738-24.5605C52.9785-24.707 52.7832-24.7559 52.4902-24.7559Z"/>
  </g>
  <g id="Light-M" transform="matrix(1 0 0 1 1095.42 1126)">
   <path d="M57.7148 13.7695C84.5215 13.7695 106.689-8.34961 106.689-35.2051C106.689-62.0117 84.5215-84.1797 57.666-84.1797C30.8594-84.1797 8.74023-62.0117 8.74023-35.2051C8.74023-8.34961 30.9082 13.7695 57.7148 13.7695ZM81.8848-8.25195L30.6641-59.5215C29.9316-60.2539 29.9316-61.4746 30.6641-62.2559C31.4453-63.0371 32.7148-63.0371 33.4961-62.2559L84.668-11.0352C85.4492-10.2539 85.4492-9.08203 84.668-8.25195C83.9355-7.51953 82.666-7.56836 81.8848-8.25195ZM53.6621-46.7285L63.6719-56.2988C64.6973-57.2266 65.4297-57.7148 66.5039-57.7148C67.9688-57.7148 68.9453-56.5918 68.9453-55.127L68.9453-31.3965ZM43.7012-25.1953C40.6738-25.1953 38.7695-27.0996 38.7695-30.2734L38.7695-40.1367C38.7695-41.8945 39.7949-43.3105 41.0645-43.7988L41.8945-43.7988L68.6523-17.1387L68.3105-13.9648C68.0176-13.2812 67.4316-12.7441 66.5039-12.7441C65.4297-12.7441 64.5996-13.2324 63.6719-14.1113L52.2949-24.9023C52.0508-25.0977 51.8066-25.1953 51.4648-25.1953Z"/>
  </g>
  <g id="Thin-M" transform="matrix(1 0 0 1 799.806 1126)">
   <path d="M56.6406 12.6953C82.9102 12.6953 104.492-8.88672 104.492-35.2051C104.492-61.4746 82.9102-83.0566 56.5918-83.0566C30.3223-83.0566 8.74023-61.4746 8.74023-35.2051C8.74023-8.88672 30.3223 12.6953 56.6406 12.6953ZM81.4453-8.30078L29.5898-60.2051C29.0527-60.791 28.9551-61.7188 29.5898-62.3535C30.1758-62.9395 31.1523-62.9395 31.7383-62.3535L83.5938-10.4492C84.1797-9.86328 84.1797-8.93555 83.5938-8.30078C83.0078-7.71484 82.0312-7.76367 81.4453-8.30078ZM51.8555-45.6543L63.0371-56.4941C63.7207-57.0801 64.3066-57.5195 65.1855-57.5195C66.3574-57.5195 67.041-56.6406 67.041-55.4688L67.041-30.5176ZM41.7969-25.7812C39.3555-25.7812 37.5488-27.5879 37.5488-30.0781L37.5488-40.2832C37.5488-42.2852 39.1113-43.9941 40.918-44.1406L42.3828-44.1406L66.9434-19.7754L66.7969-14.6973C66.748-13.7695 66.2109-13.0371 65.1855-13.0371C64.3555-13.0371 63.6719-13.4766 63.0371-14.0625L51.0742-25.4395C50.8301-25.6348 50.5371-25.7812 50.0977-25.7812Z"/>
  </g>
  <g id="Ultralight-M" transform="matrix(1 0 0 1 503.656 1126)">
   <path d="M56.0547 12.1094C82.0801 12.1094 103.369-9.17969 103.369-35.2051C103.369-61.2305 82.0801-82.5195 56.0547-82.5195C30.0293-82.5195 8.74023-61.2305 8.74023-35.2051C8.74023-9.17969 30.0293 12.1094 56.0547 12.1094ZM81.25-8.34961L29.0527-60.5957C28.5645-61.084 28.5156-61.8164 29.0527-62.3535C29.541-62.8418 30.3223-62.8418 30.8105-62.3535L83.0078-10.1074C83.4961-9.61914 83.4961-8.88672 83.0078-8.34961C82.5195-7.76367 81.7383-7.86133 81.25-8.34961ZM50.9766-45.1172L62.7441-56.5918C63.2324-56.9824 63.7695-57.4219 64.502-57.4219C65.5762-57.4219 66.0156-56.6406 66.0156-55.6641L66.0156-30.0293ZM40.8203-26.0742C38.7207-26.0742 36.9141-27.8809 36.9141-30.0293L36.9141-40.3809C36.9141-42.5293 38.7207-44.3359 40.8691-44.2871L42.627-44.2871L66.0645-21.0938L66.0645-15.0391C66.0645-14.0137 65.5762-13.2324 64.502-13.2324C63.7695-13.2324 63.2324-13.623 62.7441-14.0625L50.4883-25.6836C50.1953-25.9277 49.8535-26.0742 49.4141-26.0742Z"/>
  </g>
  <g id="Black-S" transform="matrix(1 0 0 1 2884.57 696)">
   <path d="M48.8281 6.83594C71.9727 6.83594 90.8203-12.0117 90.8203-35.1562C90.8203-58.3008 71.9727-77.1484 48.8281-77.1484C25.6836-77.1484 6.83594-58.3008 6.83594-35.1562C6.83594-12.0117 25.6836 6.83594 48.8281 6.83594ZM63.5254-16.2598L29.9316-49.8047C28.7598-50.9277 28.7598-52.832 29.9316-54.0039C31.1035-55.1758 33.0566-55.1758 34.1797-54.0039L67.7246-20.459C68.8965-19.3359 68.8965-17.4316 67.7246-16.2598C66.5527-15.0879 64.6484-15.1367 63.5254-16.2598ZM47.2656-46.2891L50.9277-49.5605C52.1484-50.6348 53.125-51.123 54.2969-51.123C56.2012-51.123 57.8125-49.6094 57.8125-47.6562L57.8125-35.6934ZM39.8438-26.9531C36.5234-26.9531 34.668-28.9062 34.668-32.373L34.668-38.0859C34.668-38.623 34.7168-39.209 34.8145-39.6973L55.0781-19.3359C54.7852-19.2383 54.5898-19.2383 54.2969-19.2383C53.0762-19.2383 52.0996-19.7754 50.9277-20.8008L44.1406-26.9043C44.0918-26.9531 44.043-26.9531 43.8965-26.9531Z"/>
  </g>
  <g id="Heavy-S" transform="matrix(1 0 0 1 2588.47 696)">
   <path d="M48.2422 6.20117C70.9961 6.20117 89.5996-12.4023 89.5996-35.1562C89.5996-57.9102 70.9961-76.5625 48.1934-76.5625C25.4395-76.5625 6.83594-57.9102 6.83594-35.1562C6.83594-12.4023 25.4395 6.20117 48.2422 6.20117ZM63.7695-15.7227L28.8086-50.6836C27.7344-51.709 27.7344-53.4668 28.8086-54.541C29.8828-55.6152 31.6406-55.6152 32.7148-54.541L67.627-19.6289C68.75-18.5547 68.75-16.8457 67.627-15.7227C66.5527-14.6973 64.7949-14.6973 63.7695-15.7227ZM46.4355-46.0449L50.8301-50.0488C52.0508-51.123 52.9297-51.5625 54.1016-51.5625C55.8594-51.5625 57.373-50.1465 57.373-48.3398L57.373-35.0586ZM38.9648-26.9043C35.7422-26.9043 33.9355-28.7598 33.9355-32.1777L33.9355-38.2812C33.9355-38.9648 34.0332-39.5996 34.2285-40.1367L55.1758-19.1406L55.0293-18.9941C54.7363-18.8477 54.4434-18.7988 54.1016-18.7988C52.9297-18.7988 51.9531-19.2871 50.8301-20.3125L43.6523-26.8555C43.6035-26.9043 43.5059-26.9043 43.3594-26.9043Z"/>
  </g>
  <g id="Bold-S" transform="matrix(1 0 0 1 2292.44 696)">
   <path d="M47.5586 5.51758C69.873 5.51758 88.2324-12.8418 88.2324-35.2051C88.2324-57.5195 69.873-75.8789 47.5098-75.8789C25.1953-75.8789 6.83594-57.5195 6.83594-35.2051C6.83594-12.8418 25.1953 5.51758 47.5586 5.51758ZM64.0625-15.1855L27.4902-51.6602C26.5625-52.6367 26.5625-54.1992 27.4902-55.1758C28.5156-56.1523 30.0781-56.1523 31.0547-55.1758L67.5781-18.6523C68.5547-17.6758 68.5547-16.1621 67.5781-15.1855C66.6016-14.209 64.9902-14.2578 64.0625-15.1855ZM45.5078-45.752L50.6836-50.5371C51.9043-51.6113 52.7344-52.0996 53.8574-52.0996C55.5176-52.0996 56.8359-50.7812 56.8359-49.0723L56.8359-34.375ZM37.9395-26.9043C34.8633-26.9043 33.1543-28.6621 33.1543-31.9336L33.1543-38.4766C33.1543-39.3555 33.3008-40.0879 33.5449-40.6738L33.5938-40.6738L55.2734-18.9453L55.0293-18.6035C54.6875-18.4082 54.2969-18.2617 53.8574-18.2617C52.7344-18.2617 51.8066-18.75 50.6836-19.7266L43.1152-26.8066C43.0664-26.8555 42.9688-26.9043 42.7734-26.9043Z"/>
  </g>
  <g id="Semibold-S" transform="matrix(1 0 0 1 1996.2 696)">
   <path d="M47.0703 5.0293C69.0918 5.0293 87.3047-13.1348 87.3047-35.2051C87.3047-57.2266 69.0918-75.4395 47.0215-75.4395C25-75.4395 6.83594-57.2266 6.83594-35.2051C6.83594-13.1348 25.0488 5.0293 47.0703 5.0293ZM64.2578-14.7461L26.6113-52.3438C25.7812-53.2227 25.7812-54.7363 26.6113-55.6152C27.5391-56.4941 29.0039-56.4941 29.9316-55.6152L67.5293-18.0176C68.4082-17.0898 68.4082-15.6738 67.5293-14.7461C66.6016-13.916 65.1367-13.916 64.2578-14.7461ZM44.873-45.5566L50.6348-50.9277C51.8066-52.002 52.5879-52.4414 53.6621-52.4414C55.2734-52.4414 56.4941-51.1719 56.4941-49.5605L56.4941-33.9355ZM37.2559-26.8555C34.2285-26.8555 32.5684-28.5645 32.5684-31.7383L32.5684-38.623C32.5684-39.5996 32.8125-40.3809 33.1055-41.0156L33.1543-41.0156L55.3711-18.7988L54.9805-18.3594C54.6387-18.1152 54.1992-17.9199 53.7109-17.9199C52.5879-17.9199 51.709-18.3594 50.6348-19.3848L42.7734-26.7578C42.6758-26.8066 42.5293-26.8555 42.3828-26.8555Z"/>
  </g>
  <g id="Medium-S" transform="matrix(1 0 0 1 1699.83 696)">
   <path d="M46.7285 4.6875C68.5547 4.6875 86.6211-13.3789 86.6211-35.2051C86.6211-57.0312 68.5059-75.0977 46.6797-75.0977C24.8535-75.0977 6.83594-57.0312 6.83594-35.2051C6.83594-13.3789 24.9023 4.6875 46.7285 4.6875ZM64.4043-14.4531L25.9766-52.8809C25.1465-53.7109 25.1465-55.0781 25.9766-55.9082C26.8066-56.7871 28.1738-56.7871 29.0527-55.9082L67.4805-17.5293C68.3105-16.6504 68.3105-15.332 67.4805-14.4531C66.6504-13.6719 65.2344-13.6719 64.4043-14.4531ZM44.3848-45.4102L50.5371-51.1719C51.7578-52.2461 52.4902-52.6855 53.5645-52.6855C55.0781-52.6855 56.25-51.5137 56.25-49.9512L56.25-33.5449ZM36.7676-26.8555C33.7891-26.8555 32.1777-28.4668 32.1777-31.6406L32.1777-38.7207C32.1777-39.7949 32.4219-40.625 32.7637-41.3086L32.8125-41.3086L55.4199-18.7012L54.9805-18.1641C54.5898-17.8711 54.1016-17.6758 53.5645-17.6758C52.4902-17.6758 51.6113-18.0664 50.5371-19.0918L42.4805-26.709C42.3828-26.8066 42.2363-26.8555 42.041-26.8555Z"/>
  </g>
  <g id="Regular-S" transform="matrix(1 0 0 1 1403.58 696)">
   <path d="M46.2402 4.19922C67.7734 4.19922 85.6934-13.6719 85.6934-35.2051C85.6934-56.7383 67.7246-74.6094 46.1914-74.6094C24.707-74.6094 6.83594-56.7383 6.83594-35.2051C6.83594-13.6719 24.7559 4.19922 46.2402 4.19922ZM64.5996-14.0625L25.0977-53.5645C24.3652-54.2969 24.3652-55.6152 25.0977-56.3477C25.8789-57.1289 27.1484-57.1289 27.9297-56.3477L67.4316-16.8945C68.1641-16.0645 68.1641-14.8926 67.4316-14.0625C66.6504-13.3301 65.3809-13.3301 64.5996-14.0625ZM43.75-45.2148L50.4883-51.5137C51.6602-52.6367 52.3438-53.0762 53.3691-53.0762C54.7852-53.0762 55.9082-51.9043 55.9082-50.4883L55.9082-33.1055ZM36.084-26.8066C33.1543-26.8066 31.5918-28.3691 31.5918-31.4941L31.5918-38.8672C31.5918-40.0391 31.9336-40.9668 32.3242-41.6504L32.373-41.6504L55.4688-18.5547L54.9805-17.9199C54.541-17.5781 54.0039-17.334 53.418-17.334C52.3926-17.334 51.5137-17.7246 50.4883-18.7012L42.0898-26.6602C41.9922-26.7578 41.8457-26.8066 41.6504-26.8066Z"/>
  </g>
  <g id="Light-S" transform="matrix(1 0 0 1 1107.6 696)">
   <path d="M45.5078 3.4668C66.6992 3.4668 84.2285-14.0137 84.2285-35.2051C84.2285-56.3965 66.6504-73.877 45.5078-73.877C24.3164-73.877 6.83594-56.3965 6.83594-35.2051C6.83594-14.0137 24.3652 3.4668 45.5078 3.4668ZM64.3066-14.1113L24.3652-54.0527C23.7305-54.6875 23.7305-55.7617 24.3652-56.3965C25.0488-57.0312 26.0742-57.0312 26.7578-56.3965L66.6992-16.4551C67.334-15.7715 67.334-14.7949 66.6992-14.1113C66.0156-13.4766 64.9414-13.4766 64.3066-14.1113ZM42.5781-44.5312L50.0488-51.6602C50.9766-52.5391 51.6113-52.9297 52.4902-52.9297C53.7598-52.9297 54.5898-51.9531 54.5898-50.7324L54.5898-32.5195ZM34.8145-27.1973C32.2754-27.1973 30.7617-28.7109 30.7617-31.3965L30.7617-39.0137C30.7617-40.332 31.4453-41.4062 32.2266-41.8457L32.7148-41.8457L54.2969-20.3125L53.9551-18.3594C53.6621-17.9199 53.2227-17.5293 52.5391-17.5293C51.6113-17.5293 50.8789-17.9199 50.0488-18.7012L41.3086-27.002C41.1621-27.1484 40.9668-27.1973 40.7227-27.1973Z"/>
  </g>
  <g id="Thin-S" transform="matrix(1 0 0 1 811.867 696)">
   <path d="M44.5801 2.53906C65.2832 2.53906 82.2754-14.502 82.2754-35.2051C82.2754-55.9082 65.2344-72.9492 44.5312-72.9492C23.8281-72.9492 6.83594-55.9082 6.83594-35.2051C6.83594-14.502 23.877 2.53906 44.5801 2.53906ZM63.916-14.1113L23.4375-54.6875C22.9492-55.1758 22.9004-55.9082 23.4375-56.4453C23.9258-56.9336 24.707-56.9336 25.1953-56.4453L65.7227-15.918C66.2109-15.4297 66.2109-14.6973 65.7227-14.1113C65.2344-13.623 64.4043-13.6719 63.916-14.1113ZM41.0156-43.6035L49.5117-51.8555C50.1465-52.3926 50.6348-52.7344 51.3184-52.7344C52.3438-52.7344 52.8809-51.9531 52.8809-51.0254L52.8809-31.6895ZM33.1055-27.6855C31.1035-27.6855 29.6875-29.1504 29.6875-31.25L29.6875-39.1602C29.6875-40.6738 30.8105-41.9434 32.1289-42.1387L33.1543-42.1387L52.7832-22.6074L52.6367-18.9941C52.5391-18.3105 52.0996-17.7734 51.3672-17.7734C50.6348-17.7734 50.0977-18.1641 49.5117-18.6523L40.2832-27.4414C40.0879-27.6367 39.8438-27.6855 39.5508-27.6855Z"/>
  </g>
  <g id="Ultralight-S" transform="matrix(1 0 0 1 515.644 696)">
   <path d="M44.043 2.00195C64.502 2.00195 81.2988-14.7461 81.2988-35.2051C81.2988-55.6641 64.502-72.4121 44.043-72.4121C23.584-72.4121 6.83594-55.6641 6.83594-35.2051C6.83594-14.7461 23.584 2.00195 44.043 2.00195ZM63.7207-14.1602L22.9492-54.9805C22.5098-55.4199 22.4609-56.0547 22.9492-56.4941C23.3398-56.8848 24.0234-56.8848 24.4141-56.4941L65.2344-15.625C65.625-15.2344 65.625-14.5996 65.2344-14.1602C64.7949-13.7207 64.1602-13.7695 63.7207-14.1602ZM40.1855-43.1152L49.2676-51.9531C49.6582-52.2949 50.1465-52.6367 50.7324-52.6367C51.6113-52.6367 52.002-52.002 52.002-51.1719L52.002-31.2988ZM32.2266-27.9785C30.5176-27.9785 29.1016-29.3945 29.1016-31.1523L29.1016-39.2578C29.1016-40.8691 30.4688-42.2852 32.0801-42.2852L33.3496-42.2852L52.002-23.7793L52.002-19.3359C51.9531-18.5547 51.5625-17.9199 50.7324-17.9199C50.1465-17.9199 49.6582-18.2617 49.2676-18.6523L39.7461-27.6855C39.502-27.8809 39.2578-27.9785 38.916-27.9785Z"/>
  </g>
 </g>
</svg>
