<?xml version="1.0" encoding="UTF-8"?>
<!--Generator: Apple Native CoreSVG 149-->
<!DOCTYPE svg
PUBLIC "-//W3C//DTD SVG 1.1//EN"
       "http://www.w3.org/Graphics/SVG/1.1/DTD/svg11.dtd">
<svg version="1.1" xmlns="http://www.w3.org/2000/svg" xmlns:xlink="http://www.w3.org/1999/xlink" width="3300" height="2200">
 <!--glyph: "uni10057B.medium", point size: 100.000000, font version: "Version 16.0d18e1", template writer version: "8"-->
 <g id="Notes">
  <rect height="2200" id="artboard" style="fill:white;opacity:1" width="3300" x="0" y="0"/>
  <line id="" style="fill:none;stroke:black;opacity:1;stroke-width:0.5;" x1="263" x2="3036" y1="292" y2="292"/>
  <text style="stroke:none;fill:black;font-family:-apple-system,&quot;SF Pro Display&quot;,&quot;SF Pro Text&quot;,Helvetica,sans-serif;font-weight:bold;" transform="matrix(1 0 0 1 263 322)">Weight/Scale Variations</text>
  <text style="stroke:none;fill:black;font-family:-apple-system,&quot;SF Pro Display&quot;,&quot;SF Pro Text&quot;,Helvetica,sans-serif;text-anchor:middle;" transform="matrix(1 0 0 1 559.711 322)">Ultralight</text>
  <text style="stroke:none;fill:black;font-family:-apple-system,&quot;SF Pro Display&quot;,&quot;SF Pro Text&quot;,Helvetica,sans-serif;text-anchor:middle;" transform="matrix(1 0 0 1 856.422 322)">Thin</text>
  <text style="stroke:none;fill:black;font-family:-apple-system,&quot;SF Pro Display&quot;,&quot;SF Pro Text&quot;,Helvetica,sans-serif;text-anchor:middle;" transform="matrix(1 0 0 1 1153.13 322)">Light</text>
  <text style="stroke:none;fill:black;font-family:-apple-system,&quot;SF Pro Display&quot;,&quot;SF Pro Text&quot;,Helvetica,sans-serif;text-anchor:middle;" transform="matrix(1 0 0 1 1449.84 322)">Regular</text>
  <text style="stroke:none;fill:black;font-family:-apple-system,&quot;SF Pro Display&quot;,&quot;SF Pro Text&quot;,Helvetica,sans-serif;text-anchor:middle;" transform="matrix(1 0 0 1 1746.56 322)">Medium</text>
  <text style="stroke:none;fill:black;font-family:-apple-system,&quot;SF Pro Display&quot;,&quot;SF Pro Text&quot;,Helvetica,sans-serif;text-anchor:middle;" transform="matrix(1 0 0 1 2043.27 322)">Semibold</text>
  <text style="stroke:none;fill:black;font-family:-apple-system,&quot;SF Pro Display&quot;,&quot;SF Pro Text&quot;,Helvetica,sans-serif;text-anchor:middle;" transform="matrix(1 0 0 1 2339.98 322)">Bold</text>
  <text style="stroke:none;fill:black;font-family:-apple-system,&quot;SF Pro Display&quot;,&quot;SF Pro Text&quot;,Helvetica,sans-serif;text-anchor:middle;" transform="matrix(1 0 0 1 2636.69 322)">Heavy</text>
  <text style="stroke:none;fill:black;font-family:-apple-system,&quot;SF Pro Display&quot;,&quot;SF Pro Text&quot;,Helvetica,sans-serif;text-anchor:middle;" transform="matrix(1 0 0 1 2933.4 322)">Black</text>
  <line id="" style="fill:none;stroke:black;opacity:1;stroke-width:0.5;" x1="263" x2="3036" y1="1903" y2="1903"/>
  <g id="" transform="matrix(1 0 0 1 263 1933)">
   <path d="M9.24805 0.830078C13.5547 0.830078 17.1387-2.74414 17.1387-7.05078C17.1387-11.3574 13.5449-14.9316 9.23828-14.9316C4.94141-14.9316 1.36719-11.3574 1.36719-7.05078C1.36719-2.74414 4.95117 0.830078 9.24805 0.830078ZM9.24805-0.654297C5.70312-0.654297 2.87109-3.49609 2.87109-7.05078C2.87109-10.6055 5.69336-13.4473 9.23828-13.4473C12.793-13.4473 15.6348-10.6055 15.6445-7.05078C15.6543-3.49609 12.8027-0.654297 9.24805-0.654297ZM6.39648-6.31836L8.50586-6.31836L8.50586-4.19922C8.50586-3.75977 8.79883-3.45703 9.22852-3.45703C9.67773-3.45703 9.9707-3.75977 9.9707-4.19922L9.9707-6.31836L12.0996-6.31836C12.5391-6.31836 12.8418-6.61133 12.8418-7.04102C12.8418-7.48047 12.5391-7.7832 12.0996-7.7832L9.9707-7.7832L9.9707-9.89258C9.9707-10.3418 9.67773-10.6445 9.22852-10.6445C8.79883-10.6445 8.50586-10.3418 8.50586-9.89258L8.50586-7.7832L6.39648-7.7832C5.94727-7.7832 5.64453-7.48047 5.64453-7.04102C5.64453-6.61133 5.94727-6.31836 6.39648-6.31836Z"/>
  </g>
  <g id="" transform="matrix(1 0 0 1 281.506 1933)">
   <path d="M11.709 2.91016C17.1582 2.91016 21.6699-1.61133 21.6699-7.05078C21.6699-12.5 17.1484-17.0117 11.6992-17.0117C6.25977-17.0117 1.74805-12.5 1.74805-7.05078C1.74805-1.61133 6.26953 2.91016 11.709 2.91016ZM11.709 1.25C7.09961 1.25 3.41797-2.44141 3.41797-7.05078C3.41797-11.6602 7.08984-15.3516 11.6992-15.3516C16.3086-15.3516 20-11.6602 20.0098-7.05078C20.0195-2.44141 16.3184 1.25 11.709 1.25ZM7.98828-6.23047L10.8789-6.23047L10.8789-3.32031C10.8789-2.83203 11.2109-2.5 11.6895-2.5C12.1777-2.5 12.5195-2.83203 12.5195-3.32031L12.5195-6.23047L15.4297-6.23047C15.918-6.23047 16.25-6.5625 16.25-7.04102C16.25-7.5293 15.918-7.87109 15.4297-7.87109L12.5195-7.87109L12.5195-10.7617C12.5195-11.2695 12.1777-11.6016 11.6895-11.6016C11.2109-11.6016 10.8789-11.2598 10.8789-10.7617L10.8789-7.87109L7.98828-7.87109C7.48047-7.87109 7.14844-7.5293 7.14844-7.04102C7.14844-6.5625 7.49023-6.23047 7.98828-6.23047Z"/>
  </g>
  <g id="" transform="matrix(1 0 0 1 304.924 1933)">
   <path d="M14.9707 5.66406C21.9336 5.66406 27.6953-0.0976562 27.6953-7.05078C27.6953-14.0137 21.9238-19.7754 14.9609-19.7754C8.00781-19.7754 2.25586-14.0137 2.25586-7.05078C2.25586-0.0976562 8.01758 5.66406 14.9707 5.66406ZM14.9707 3.84766C8.93555 3.84766 4.08203-1.01562 4.08203-7.05078C4.08203-13.0957 8.92578-17.9492 14.9609-17.9492C21.0059-17.9492 25.8594-13.0957 25.8691-7.05078C25.8789-1.01562 21.0156 3.84766 14.9707 3.84766ZM10.0586-6.14258L14.0625-6.14258L14.0625-2.12891C14.0625-1.5918 14.4336-1.2207 14.9512-1.2207C15.4883-1.2207 15.8594-1.5918 15.8594-2.12891L15.8594-6.14258L19.8828-6.14258C20.4102-6.14258 20.791-6.51367 20.791-7.03125C20.791-7.56836 20.4199-7.94922 19.8828-7.94922L15.8594-7.94922L15.8594-11.9531C15.8594-12.5098 15.4883-12.8809 14.9512-12.8809C14.4336-12.8809 14.0625-12.5 14.0625-11.9531L14.0625-7.94922L10.0586-7.94922C9.50195-7.94922 9.13086-7.56836 9.13086-7.03125C9.13086-6.51367 9.51172-6.14258 10.0586-6.14258Z"/>
  </g>
  <text style="stroke:none;fill:black;font-family:-apple-system,&quot;SF Pro Display&quot;,&quot;SF Pro Text&quot;,Helvetica,sans-serif;font-weight:bold;" transform="matrix(1 0 0 1 263 1953)">Design Variations</text>
  <text style="stroke:none;fill:black;font-family:-apple-system,&quot;SF Pro Display&quot;,&quot;SF Pro Text&quot;,Helvetica,sans-serif;" transform="matrix(1 0 0 1 263 1971)">Symbols are supported in up to nine weights and three scales.</text>
  <text style="stroke:none;fill:black;font-family:-apple-system,&quot;SF Pro Display&quot;,&quot;SF Pro Text&quot;,Helvetica,sans-serif;" transform="matrix(1 0 0 1 263 1989)">For optimal layout with text and other symbols, vertically align</text>
  <text style="stroke:none;fill:black;font-family:-apple-system,&quot;SF Pro Display&quot;,&quot;SF Pro Text&quot;,Helvetica,sans-serif;" transform="matrix(1 0 0 1 263 2007)">symbols with the adjacent text.</text>
  <line id="" style="fill:none;stroke:#00AEEF;stroke-width:0.5;opacity:1.0;" x1="776" x2="776" y1="1919" y2="1933"/>
  <g id="" transform="matrix(1 0 0 1 776 1933)">
   <path d="M3.31055 0.126953C3.82812 0.126953 4.08203-0.0683594 4.26758-0.605469L5.52734-4.0625L11.2891-4.0625L12.5488-0.605469C12.7344-0.0683594 12.9883 0.126953 13.4961 0.126953C14.0137 0.126953 14.3457-0.185547 14.3457-0.673828C14.3457-0.839844 14.3164-0.986328 14.2383-1.20117L9.6582-13.3887C9.43359-13.9941 9.0332-14.2871 8.4082-14.2871C7.80273-14.2871 7.39258-13.9941 7.17773-13.3984L2.59766-1.19141C2.51953-0.976562 2.49023-0.830078 2.49023-0.664062C2.49023-0.175781 2.80273 0.126953 3.31055 0.126953ZM6.00586-5.53711L8.37891-12.1094L8.42773-12.1094L10.8008-5.53711Z"/>
  </g>
  <line id="" style="fill:none;stroke:#00AEEF;stroke-width:0.5;opacity:1.0;" x1="792.836" x2="792.836" y1="1919" y2="1933"/>
  <text style="stroke:none;fill:black;font-family:-apple-system,&quot;SF Pro Display&quot;,&quot;SF Pro Text&quot;,Helvetica,sans-serif;font-weight:bold;" transform="matrix(1 0 0 1 776 1953)">Margins</text>
  <text style="stroke:none;fill:black;font-family:-apple-system,&quot;SF Pro Display&quot;,&quot;SF Pro Text&quot;,Helvetica,sans-serif;" transform="matrix(1 0 0 1 776 1971)">Leading and trailing margins on the left and right side of each symbol</text>
  <text style="stroke:none;fill:black;font-family:-apple-system,&quot;SF Pro Display&quot;,&quot;SF Pro Text&quot;,Helvetica,sans-serif;" transform="matrix(1 0 0 1 776 1989)">can be adjusted by modifying the x-location of the margin guidelines.</text>
  <text style="stroke:none;fill:black;font-family:-apple-system,&quot;SF Pro Display&quot;,&quot;SF Pro Text&quot;,Helvetica,sans-serif;" transform="matrix(1 0 0 1 776 2007)">Modifications are automatically applied proportionally to all</text>
  <text style="stroke:none;fill:black;font-family:-apple-system,&quot;SF Pro Display&quot;,&quot;SF Pro Text&quot;,Helvetica,sans-serif;" transform="matrix(1 0 0 1 776 2025)">scales and weights.</text>
  <g id="" transform="matrix(1 0 0 1 1289 1933)">
   <path d="M2.8418 1.86523L4.54102 3.57422C5.40039 4.44336 6.38672 4.38477 7.31445 3.35938L17.4902-7.85156C17.7539-7.76367 18.0273-7.7832 18.3398-7.8418L19.4043-8.03711L20.0684-7.36328L20.0293-6.80664C19.9902-6.30859 20.1172-5.92773 20.6055-5.44922L21.3672-4.70703C21.8457-4.22852 22.4609-4.19922 22.9297-4.66797L25.8398-7.58789C26.3086-8.05664 26.2891-8.65234 25.8105-9.13086L25.0391-9.89258C24.5605-10.3711 24.1895-10.5273 23.7109-10.4883L23.1348-10.4395L22.4902-11.0742L22.7344-12.1973C22.8613-12.7637 22.7051-13.2031 22.1191-13.7891L19.9219-15.9766C16.582-19.2969 12.1484-19.2188 9.25781-16.3281C8.83789-15.918 8.80859-15.3418 9.04297-14.9512C9.27734-14.5898 9.73633-14.3555 10.3809-14.5215C11.8457-14.8633 13.3691-14.9219 14.7949-13.9844L14.209-12.5293C14.0137-12.0508 13.9844-11.6504 14.1113-11.2891L3.04688-0.898438C2.06055 0.0195312 1.98242 0.996094 2.8418 1.86523ZM10.752-15.957C13.1836-17.7344 16.4746-17.4316 18.7012-15.2051L21.1328-12.793C21.3672-12.5586 21.4062-12.373 21.3379-12.0312L21.0156-10.5469L22.5195-9.0625L23.5059-9.12109C23.7598-9.13086 23.8379-9.11133 24.0332-8.91602L24.6094-8.33984L22.168-5.89844L21.5918-6.47461C21.3965-6.66992 21.3672-6.74805 21.377-7.01172L21.4453-7.98828L19.9512-9.47266L18.4277-9.21875C18.1055-9.15039 17.959-9.17969 17.7148-9.41406L15.7129-11.416C15.459-11.6504 15.4297-11.8164 15.5859-12.1875L16.4648-14.2773C14.9023-15.7324 12.8711-16.3574 10.8398-15.7617C10.6836-15.7227 10.625-15.8496 10.752-15.957ZM5.27344 2.30469L4.10156 1.14258C3.63281 0.683594 3.74023 0.341797 4.14062-0.0195312L14.9512-10.1953L16.416-8.71094L6.42578 2.27539C6.07422 2.67578 5.74219 2.77344 5.27344 2.30469Z"/>
  </g>
  <text style="stroke:none;fill:black;font-family:-apple-system,&quot;SF Pro Display&quot;,&quot;SF Pro Text&quot;,Helvetica,sans-serif;font-weight:bold;" transform="matrix(1 0 0 1 1289 1953)">Exporting</text>
  <text style="stroke:none;fill:black;font-family:-apple-system,&quot;SF Pro Display&quot;,&quot;SF Pro Text&quot;,Helvetica,sans-serif;" transform="matrix(1 0 0 1 1289 1971)">Symbols should be outlined when exporting to ensure the</text>
  <text style="stroke:none;fill:black;font-family:-apple-system,&quot;SF Pro Display&quot;,&quot;SF Pro Text&quot;,Helvetica,sans-serif;" transform="matrix(1 0 0 1 1289 1989)">design is preserved when submitting to Xcode.</text>
  <text id="template-version" style="stroke:none;fill:black;font-family:-apple-system,&quot;SF Pro Display&quot;,&quot;SF Pro Text&quot;,Helvetica,sans-serif;text-anchor:end;" transform="matrix(1 0 0 1 3036 1933)">Template v.2.0</text>
  <text style="stroke:none;fill:black;font-family:-apple-system,&quot;SF Pro Display&quot;,&quot;SF Pro Text&quot;,Helvetica,sans-serif;text-anchor:end;" transform="matrix(1 0 0 1 3036 1951)">Requires Xcode 12 or greater</text>
  <text style="stroke:none;fill:black;font-family:-apple-system,&quot;SF Pro Display&quot;,&quot;SF Pro Text&quot;,Helvetica,sans-serif;text-anchor:end;" transform="matrix(1 0 0 1 3036 1969)">Generated from ellipsis.bubble.fill</text>
  <text style="stroke:none;fill:black;font-family:-apple-system,&quot;SF Pro Display&quot;,&quot;SF Pro Text&quot;,Helvetica,sans-serif;text-anchor:end;" transform="matrix(1 0 0 1 3036 1987)">Typeset at 100 points</text>
  <text style="stroke:none;fill:black;font-family:-apple-system,&quot;SF Pro Display&quot;,&quot;SF Pro Text&quot;,Helvetica,sans-serif;" transform="matrix(1 0 0 1 263 726)">Small</text>
  <text style="stroke:none;fill:black;font-family:-apple-system,&quot;SF Pro Display&quot;,&quot;SF Pro Text&quot;,Helvetica,sans-serif;" transform="matrix(1 0 0 1 263 1156)">Medium</text>
  <text style="stroke:none;fill:black;font-family:-apple-system,&quot;SF Pro Display&quot;,&quot;SF Pro Text&quot;,Helvetica,sans-serif;" transform="matrix(1 0 0 1 263 1586)">Large</text>
 </g>
 <g id="Guides">
  <g id="H-reference" style="fill:#27AAE1;stroke:none;" transform="matrix(1 0 0 1 339 696)">
   <path d="M0.976562 0L3.66211 0L12.9883-24.4629L45.752-24.4629L55.127 0L57.7637 0L30.6152-70.459L28.125-70.459ZM29.3457-67.1387L29.4434-67.1387L44.873-26.709L13.8672-26.709Z"/>
  </g>
  <line id="Baseline-S" style="fill:none;stroke:#27AAE1;opacity:1;stroke-width:0.5;" x1="263" x2="3036" y1="696" y2="696"/>
  <line id="Capline-S" style="fill:none;stroke:#27AAE1;opacity:1;stroke-width:0.5;" x1="263" x2="3036" y1="625.541" y2="625.541"/>
  <g id="H-reference" style="fill:#27AAE1;stroke:none;" transform="matrix(1 0 0 1 339 1126)">
   <path d="M0.976562 0L3.66211 0L12.9883-24.4629L45.752-24.4629L55.127 0L57.7637 0L30.6152-70.459L28.125-70.459ZM29.3457-67.1387L29.4434-67.1387L44.873-26.709L13.8672-26.709Z"/>
  </g>
  <line id="Baseline-M" style="fill:none;stroke:#27AAE1;opacity:1;stroke-width:0.5;" x1="263" x2="3036" y1="1126" y2="1126"/>
  <line id="Capline-M" style="fill:none;stroke:#27AAE1;opacity:1;stroke-width:0.5;" x1="263" x2="3036" y1="1055.54" y2="1055.54"/>
  <g id="H-reference" style="fill:#27AAE1;stroke:none;" transform="matrix(1 0 0 1 339 1556)">
   <path d="M0.976562 0L3.66211 0L12.9883-24.4629L45.752-24.4629L55.127 0L57.7637 0L30.6152-70.459L28.125-70.459ZM29.3457-67.1387L29.4434-67.1387L44.873-26.709L13.8672-26.709Z"/>
  </g>
  <line id="Baseline-L" style="fill:none;stroke:#27AAE1;opacity:1;stroke-width:0.5;" x1="263" x2="3036" y1="1556" y2="1556"/>
  <line id="Capline-L" style="fill:none;stroke:#27AAE1;opacity:1;stroke-width:0.5;" x1="263" x2="3036" y1="1485.54" y2="1485.54"/>
  <line id="left-margin" style="fill:none;stroke:#00AEEF;stroke-width:0.5;opacity:1.0;" x1="1383.58" x2="1383.58" y1="1030.79" y2="1150.12"/>
  <line id="right-margin" style="fill:none;stroke:#00AEEF;stroke-width:0.5;opacity:1.0;" x1="1516.1" x2="1516.1" y1="1030.79" y2="1150.12"/>
 </g>
 <g id="Symbols">
  <g id="Black-L" transform="matrix(1 0 0 1 2846.24 1556)">
   <path d="M55.1758 39.0625C58.3496 39.0625 60.9863 37.8418 64.8926 34.375L89.4043 12.8418L125.83 12.8418C145.703 12.8906 158.252 0.195312 158.252-19.5801L158.252-70.1172C158.252-89.8926 145.703-102.539 125.83-102.539L48.4863-102.539C28.6133-102.539 16.0645-89.8926 16.0645-70.1172L16.0645-19.5801C16.0645 0.195312 29.7852 12.8418 46.7285 12.8418L47.6562 12.8418L47.6562 30.8105C47.6562 35.9375 50.5371 39.0625 55.1758 39.0625ZM55.6641-33.3984C49.3164-33.3984 44.1895-38.5742 44.1895-44.873C44.1895-51.1719 49.3164-56.2988 55.6641-56.2988C61.9629-56.2988 67.041-51.1719 67.041-44.873C67.041-38.5742 61.9629-33.3984 55.6641-33.3984ZM87.2559-33.3984C80.957-33.3984 75.8301-38.5742 75.8301-44.873C75.8301-51.1719 80.957-56.2988 87.2559-56.2988C93.5547-56.2988 98.7305-51.1719 98.7305-44.873C98.7305-38.5742 93.5547-33.3984 87.2559-33.3984ZM118.848-33.3984C112.549-33.3984 107.471-38.5742 107.471-44.873C107.471-51.1719 112.549-56.2988 118.848-56.2988C125.244-56.2988 130.322-51.1719 130.322-44.873C130.322-38.5742 125.244-33.3984 118.848-33.3984Z"/>
  </g>
  <g id="Heavy-L" transform="matrix(1 0 0 1 2550.07 1556)">
   <path d="M54.4434 37.6953C57.4219 37.6953 59.8145 36.5234 63.3789 33.3008L87.5 12.0117L125.879 12.0117C145.264 12.0605 157.178-0.0488281 157.178-19.2383L157.178-69.6289C157.178-88.8184 145.264-100.879 125.879-100.879L47.3145-100.879C27.9785-100.879 16.0645-88.8672 16.0645-69.6289L16.0645-19.2383C16.0645 0 28.8574 12.0117 45.9961 12.0117L47.5586 12.0117L47.5586 30.0781C47.5586 34.7656 50.1465 37.6953 54.4434 37.6953ZM55.3223-33.6426C49.3164-33.6426 44.4824-38.4766 44.4824-44.4824C44.4824-50.4395 49.3164-55.2734 55.3223-55.2734C61.2793-55.2734 66.0645-50.4395 66.0645-44.4824C66.0645-38.4766 61.2793-33.6426 55.3223-33.6426ZM86.7188-33.6426C80.7129-33.6426 75.8789-38.4766 75.8789-44.4824C75.8789-50.4395 80.7129-55.2734 86.7188-55.2734C92.6758-55.2734 97.5098-50.4395 97.5098-44.4824C97.5098-38.4766 92.6758-33.6426 86.7188-33.6426ZM118.066-33.6426C112.109-33.6426 107.324-38.4766 107.324-44.4824C107.324-50.4395 112.109-55.2734 118.066-55.2734C124.072-55.2734 128.906-50.4395 128.906-44.4824C128.906-38.4766 124.072-33.6426 118.066-33.6426Z"/>
  </g>
  <g id="Bold-L" transform="matrix(1 0 0 1 2253.97 1556)">
   <path d="M53.6621 36.1816C56.3477 36.1816 58.4473 35.0098 61.6699 32.0801L85.3027 11.0352L125.977 11.084C144.727 11.1328 155.957-0.292969 155.957-18.8965L155.957-69.043C155.957-87.6465 144.727-99.0234 125.977-99.0234L46.0449-99.0234C27.2461-99.0234 16.0645-87.6953 16.0645-69.043L16.0645-18.8965C16.0645-0.244141 27.832 11.0352 45.166 11.0352L47.4121 11.0352L47.4121 29.1992C47.4121 33.4961 49.7559 36.1816 53.6621 36.1816ZM54.9316-33.8867C49.3164-33.8867 44.7754-38.4277 44.7754-43.9941C44.7754-49.6094 49.3164-54.1016 54.9316-54.1016C60.498-54.1016 64.9902-49.6094 64.9902-43.9941C64.9902-38.4277 60.498-33.8867 54.9316-33.8867ZM86.084-33.8867C80.4688-33.8867 75.9277-38.4277 75.9277-43.9941C75.9277-49.6094 80.4688-54.1016 86.084-54.1016C91.6504-54.1016 96.1426-49.6094 96.1426-43.9941C96.1426-38.4277 91.6504-33.8867 86.084-33.8867ZM117.188-33.8867C111.621-33.8867 107.129-38.4277 107.129-43.9941C107.129-49.6094 111.621-54.1016 117.188-54.1016C122.803-54.1016 127.344-49.6094 127.344-43.9941C127.344-38.4277 122.803-33.8867 117.188-33.8867Z"/>
  </g>
  <g id="Semibold-L" transform="matrix(1 0 0 1 1957.7 1556)">
   <path d="M53.0762 35.1074C55.6152 35.1074 57.5195 33.9355 60.4492 31.25L83.8379 10.4004L126.025 10.4492C144.385 10.498 155.078-0.439453 155.078-18.6035L155.078-68.6523C155.078-86.8164 144.385-97.7539 126.025-97.7539L45.166-97.7539C26.7578-97.7539 16.0645-86.8652 16.0645-68.6523L16.0645-18.6035C16.0645-0.390625 27.1484 10.4004 44.5801 10.4004L47.3633 10.4004L47.3633 28.6133C47.3633 32.5684 49.5117 35.1074 53.0762 35.1074ZM54.6387-34.082C49.3164-34.082 45.0195-38.3789 45.0195-43.7012C45.0195-49.0234 49.3164-53.3203 54.6387-53.3203C59.9609-53.3203 64.2578-49.0234 64.2578-43.7012C64.2578-38.3789 59.9609-34.082 54.6387-34.082ZM85.6445-34.082C80.3223-34.082 75.9766-38.3789 75.9766-43.7012C75.9766-49.0234 80.3223-53.3203 85.6445-53.3203C90.918-53.3203 95.2148-49.0234 95.2148-43.7012C95.2148-38.3789 90.918-34.082 85.6445-34.082ZM116.602-34.082C111.279-34.082 106.982-38.3789 106.982-43.7012C106.982-49.0234 111.279-53.3203 116.602-53.3203C121.924-53.3203 126.221-49.0234 126.221-43.7012C126.221-38.3789 121.924-34.082 116.602-34.082Z"/>
  </g>
  <g id="Medium-L" transform="matrix(1 0 0 1 1661.3 1556)">
   <path d="M52.6855 34.3262C55.0293 34.3262 56.7871 33.1543 59.5703 30.6152L82.7148 9.91211L126.025 9.96094C144.092 10.0098 154.443-0.585938 154.443-18.457L154.443-68.3594C154.443-86.2305 144.092-96.7773 126.025-96.7773L44.4824-96.7773C26.3672-96.7773 16.0645-86.2793 16.0645-68.3594L16.0645-18.457C16.0645-0.537109 26.6113 9.91211 44.1406 9.91211L47.2656 9.91211L47.2656 28.1738C47.2656 31.8848 49.3164 34.3262 52.6855 34.3262ZM54.4434-34.2285C49.3164-34.2285 45.166-38.3301 45.166-43.457C45.166-48.584 49.3164-52.6855 54.4434-52.6855C59.5215-52.6855 63.6719-48.584 63.6719-43.457C63.6719-38.3301 59.5215-34.2285 54.4434-34.2285ZM85.3027-34.2285C80.1758-34.2285 76.0254-38.3301 76.0254-43.457C76.0254-48.584 80.1758-52.6855 85.3027-52.6855C90.3809-52.6855 94.5312-48.584 94.5312-43.457C94.5312-38.3301 90.3809-34.2285 85.3027-34.2285ZM116.162-34.2285C111.035-34.2285 106.885-38.3301 106.885-43.457C106.885-48.584 111.035-52.6855 116.162-52.6855C121.24-52.6855 125.391-48.584 125.391-43.457C125.391-38.3301 121.24-34.2285 116.162-34.2285Z"/>
  </g>
  <g id="Regular-L" transform="matrix(1 0 0 1 1365.01 1556)">
   <path d="M52.1484 33.252C54.2969 33.252 55.9082 32.1289 58.3984 29.834L81.2012 9.27734L126.074 9.32617C143.75 9.375 153.613-0.78125 153.613-18.1641L153.613-67.9688C153.613-85.4004 143.75-95.5078 126.074-95.5078L43.6035-95.5078C25.8789-95.5078 16.0645-85.4492 16.0645-67.9688L16.0645-18.1641C16.0645-0.683594 25.8789 9.27734 43.6035 9.27734L47.2168 9.27734L47.2168 27.5879C47.2168 31.0059 49.0234 33.252 52.1484 33.252ZM54.1992-34.375C49.3164-34.375 45.3613-38.2812 45.3613-43.1641C45.3613-47.998 49.3164-51.9043 54.1992-51.9043C59.0332-51.9043 62.9395-47.998 62.9395-43.1641C62.9395-38.2812 59.0332-34.375 54.1992-34.375ZM84.8633-34.375C79.9805-34.375 76.0742-38.2812 76.0742-43.1641C76.0742-47.998 79.9805-51.9043 84.8633-51.9043C89.6973-51.9043 93.6035-47.998 93.6035-43.1641C93.6035-38.2812 89.6973-34.375 84.8633-34.375ZM115.576-34.375C110.693-34.375 106.787-38.2812 106.787-43.1641C106.787-47.998 110.693-51.9043 115.576-51.9043C120.41-51.9043 124.316-47.998 124.316-43.1641C124.316-38.2812 120.41-34.375 115.576-34.375Z"/>
  </g>
  <g id="Light-L" transform="matrix(1 0 0 1 1069.2 1556)">
   <path d="M50.293 31.7871C52.0508 31.7871 53.3691 30.8105 55.2734 29.1016L78.125 8.93555L126.074 8.98438C142.334 9.0332 151.807-0.683594 151.807-16.6992L151.807-68.6035C151.807-84.6191 142.334-94.2871 126.074-94.2871L41.7969-94.2871C25.5371-94.2871 16.0645-84.7168 16.0645-68.6035L16.0645-16.6992C16.0645-0.585938 25.5371 8.93555 41.7969 8.93555L46.2891 8.93555L46.2891 27.2461C46.2891 29.9805 47.8516 31.7871 50.293 31.7871ZM54.834-34.7168C50.3418-34.7168 46.7285-38.2812 46.7285-42.7246C46.7285-47.168 50.3418-50.7324 54.834-50.7324C59.2285-50.7324 62.793-47.168 62.793-42.7246C62.793-38.2812 59.2285-34.7168 54.834-34.7168ZM83.9844-34.7168C79.4922-34.7168 75.9277-38.2812 75.9277-42.7246C75.9277-47.168 79.4922-50.7324 83.9844-50.7324C88.3789-50.7324 91.9434-47.168 91.9434-42.7246C91.9434-38.2812 88.3789-34.7168 83.9844-34.7168ZM113.086-34.7168C108.643-34.7168 105.078-38.2812 105.078-42.7246C105.078-47.168 108.643-50.7324 113.086-50.7324C117.529-50.7324 121.143-47.168 121.143-42.7246C121.143-38.2812 117.529-34.7168 113.086-34.7168Z"/>
  </g>
  <g id="Thin-L" transform="matrix(1 0 0 1 773.683 1556)">
   <path d="M47.8516 29.834C49.0234 29.834 50 29.1016 51.123 28.1738L74.0234 8.49609L126.074 8.54492C140.43 8.54492 149.414-0.634766 149.414-14.7949L149.414-69.3848C149.414-83.5449 140.43-92.7246 126.074-92.7246L39.3555-92.7246C25.0488-92.7246 16.0645-83.6914 16.0645-69.3848L16.0645-14.7949C16.0645-0.488281 25.0488 8.49609 39.3555 8.49609L45.0684 8.49609L45.0684 26.709C45.0684 28.6133 46.2402 29.834 47.8516 29.834ZM55.6641-35.1562C51.7578-35.1562 48.584-38.2324 48.584-42.1875C48.584-46.0449 51.7578-49.1211 55.6641-49.1211C59.5215-49.1211 62.6465-46.0449 62.6465-42.1875C62.6465-38.2324 59.5215-35.1562 55.6641-35.1562ZM82.7637-35.1562C78.8574-35.1562 75.7324-38.2324 75.7324-42.1875C75.7324-46.0449 78.8574-49.1211 82.7637-49.1211C86.6211-49.1211 89.6973-46.0449 89.6973-42.1875C89.6973-38.2324 86.6211-35.1562 82.7637-35.1562ZM109.863-35.1562C105.908-35.1562 102.832-38.2324 102.832-42.1875C102.832-46.0449 105.908-49.1211 109.863-49.1211C113.672-49.1211 116.846-46.0449 116.846-42.1875C116.846-38.2324 113.672-35.1562 109.863-35.1562Z"/>
  </g>
  <g id="Ultralight-L" transform="matrix(1 0 0 1 477.607 1556)">
   <path d="M46.582 28.8086C47.5098 28.8086 48.291 28.2227 48.9746 27.7344L71.9238 8.30078L126.074 8.30078C139.453 8.30078 148.145-0.585938 148.145-13.8184L148.145-69.8242C148.145-83.0078 139.453-91.8945 126.074-91.8945L38.1348-91.8945C24.8047-91.8945 16.0645-83.2031 16.0645-69.8242L16.0645-13.8184C16.0645-0.439453 24.8047 8.30078 38.1348 8.30078L44.4824 8.30078L44.4824 26.4648C44.4824 27.9297 45.4102 28.8086 46.582 28.8086ZM56.1035-35.4004C52.4902-35.4004 49.5117-38.2324 49.5117-41.8945C49.5117-45.459 52.4902-48.291 56.1035-48.291C59.668-48.291 62.5488-45.459 62.5488-41.8945C62.5488-38.2324 59.668-35.4004 56.1035-35.4004ZM82.1289-35.4004C78.5156-35.4004 75.6348-38.2324 75.6348-41.8945C75.6348-45.459 78.5156-48.291 82.1289-48.291C85.6934-48.291 88.5742-45.459 88.5742-41.8945C88.5742-38.2324 85.6934-35.4004 82.1289-35.4004ZM108.203-35.4004C104.541-35.4004 101.66-38.2324 101.66-41.8945C101.66-45.459 104.541-48.291 108.203-48.291C111.719-48.291 114.697-45.459 114.697-41.8945C114.697-38.2324 111.719-35.4004 108.203-35.4004Z"/>
  </g>
  <g id="Black-M" transform="matrix(1 0 0 1 2865.58 1126)">
   <path d="M42.7246 23.3887C45.3125 23.3887 47.5586 22.5586 50.6836 19.7754L70.2637 2.97852L97.4609 2.97852C112.793 2.97852 123.193-7.42188 123.193-22.7539L123.193-63.2812C123.193-78.6133 112.793-89.0137 97.4609-89.0137L38.1836-89.0137C22.8516-89.0137 12.4512-78.6133 12.4512-63.2812L12.4512-22.7539C12.4512-7.42188 24.1211 2.97852 36.2793 2.97852L36.6211 2.97852L36.6211 16.7969C36.6211 20.8984 38.9648 23.3887 42.7246 23.3887ZM43.9453-33.6914C38.7695-33.6914 34.6191-37.8906 34.6191-43.0176C34.6191-48.1445 38.7695-52.3438 43.9453-52.3438C49.0723-52.3438 53.2227-48.1445 53.2227-43.0176C53.2227-37.8906 49.0723-33.6914 43.9453-33.6914ZM67.9199-33.6914C62.793-33.6914 58.5938-37.8906 58.5938-43.0176C58.5938-48.1445 62.793-52.3438 67.9199-52.3438C73.0469-52.3438 77.2461-48.1445 77.2461-43.0176C77.2461-37.8906 73.0469-33.6914 67.9199-33.6914ZM91.8457-33.6914C86.7188-33.6914 82.6172-37.8906 82.6172-43.0176C82.6172-48.1445 86.7188-52.3438 91.8457-52.3438C97.0703-52.3438 101.172-48.1445 101.172-43.0176C101.172-37.8906 97.0703-33.6914 91.8457-33.6914Z"/>
  </g>
  <g id="Heavy-M" transform="matrix(1 0 0 1 2569.23 1126)">
   <path d="M42.4316 22.3145C44.873 22.3145 46.875 21.3867 49.8047 18.7988L68.9453 2.14844L97.5098 2.14844C112.646 2.14844 122.461-7.71484 122.461-22.8027L122.461-62.5488C122.461-77.6367 112.646-87.5 97.5098-87.5L37.4023-87.5C22.2656-87.5 12.4512-77.6367 12.4512-62.5488L12.4512-22.8027C12.4512-7.71484 23.2422 2.14844 35.9375 2.14844L36.7188 2.14844L36.7188 16.0645C36.7188 19.9219 38.916 22.3145 42.4316 22.3145ZM43.4082-33.8379C38.4766-33.8379 34.5703-37.8418 34.5703-42.6758C34.5703-47.5586 38.4766-51.5137 43.4082-51.5137C48.291-51.5137 52.1973-47.5586 52.1973-42.6758C52.1973-37.8418 48.291-33.8379 43.4082-33.8379ZM67.5293-33.8379C62.6465-33.8379 58.6914-37.8418 58.6914-42.6758C58.6914-47.5586 62.6465-51.5137 67.5293-51.5137C72.4121-51.5137 76.3672-47.5586 76.3672-42.6758C76.3672-37.8418 72.4121-33.8379 67.5293-33.8379ZM91.6504-33.8379C86.7676-33.8379 82.8613-37.8418 82.8613-42.6758C82.8613-47.5586 86.7676-51.5137 91.6504-51.5137C96.582-51.5137 100.488-47.5586 100.488-42.6758C100.488-37.8418 96.582-33.8379 91.6504-33.8379Z"/>
  </g>
  <g id="Bold-M" transform="matrix(1 0 0 1 2272.94 1126)">
   <path d="M42.0898 21.0449C44.3359 21.0449 46.1426 20.1172 48.877 17.6758L67.4805 1.2207L97.5586 1.2207C112.5 1.26953 121.631-8.00781 121.631-22.8027L121.631-61.7676C121.631-76.5625 112.5-85.791 97.5586-85.791L36.4746-85.791C21.582-85.791 12.4512-76.6113 12.4512-61.7676L12.4512-22.8027C12.4512-7.95898 22.2168 1.2207 35.5469 1.2207L36.8652 1.2207L36.8652 15.2344C36.8652 18.7988 38.8184 21.0449 42.0898 21.0449ZM42.7734-34.0332C38.1836-34.0332 34.5215-37.7441 34.5215-42.334C34.5215-46.875 38.1836-50.5859 42.7734-50.5859C47.3633-50.5859 51.0254-46.875 51.0254-42.334C51.0254-37.7441 47.3633-34.0332 42.7734-34.0332ZM67.0898-34.0332C62.5488-34.0332 58.8379-37.7441 58.8379-42.334C58.8379-46.875 62.5488-50.5859 67.0898-50.5859C71.6797-50.5859 75.3906-46.875 75.3906-42.334C75.3906-37.7441 71.6797-34.0332 67.0898-34.0332ZM91.4062-34.0332C86.8652-34.0332 83.1543-37.7441 83.1543-42.334C83.1543-46.875 86.8652-50.5859 91.4062-50.5859C95.9961-50.5859 99.707-46.875 99.707-42.334C99.707-37.7441 95.9961-34.0332 91.4062-34.0332Z"/>
  </g>
  <g id="Semibold-M" transform="matrix(1 0 0 1 1976.52 1126)">
   <path d="M41.8457 20.2148C43.9941 20.2148 45.6543 19.2383 48.1934 16.9434L66.4551 0.585938L97.6074 0.585938C112.402 0.634766 121.045-8.20312 121.045-22.8027L121.045-61.2305C121.045-75.8301 112.402-84.668 97.6074-84.668L35.8887-84.668C21.0938-84.668 12.4512-75.8789 12.4512-61.2305L12.4512-22.8027C12.4512-8.1543 21.4844 0.585938 35.2539 0.585938L36.9141 0.585938L36.9141 14.6973C36.9141 18.0664 38.7695 20.2148 41.8457 20.2148ZM42.3828-34.1797C37.9883-34.1797 34.4727-37.6953 34.4727-42.041C34.4727-46.4355 37.9883-49.9512 42.3828-49.9512C46.7285-49.9512 50.2441-46.4355 50.2441-42.041C50.2441-37.6953 46.7285-34.1797 42.3828-34.1797ZM66.7969-34.1797C62.4512-34.1797 58.8867-37.6953 58.8867-42.041C58.8867-46.4355 62.4512-49.9512 66.7969-49.9512C71.1426-49.9512 74.707-46.4355 74.707-42.041C74.707-37.6953 71.1426-34.1797 66.7969-34.1797ZM91.2598-34.1797C86.8652-34.1797 83.3496-37.6953 83.3496-42.041C83.3496-46.4355 86.8652-49.9512 91.2598-49.9512C95.6055-49.9512 99.1211-46.4355 99.1211-42.041C99.1211-37.6953 95.6055-34.1797 91.2598-34.1797Z"/>
  </g>
  <g id="Medium-M" transform="matrix(1 0 0 1 1680.03 1126)">
   <path d="M41.6992 19.5312C43.75 19.5312 45.2637 18.5547 47.7051 16.3574L65.7227 0.0976562L97.6562 0.146484C112.354 0.146484 120.605-8.34961 120.605-22.8516L120.605-60.791C120.605-75.293 112.354-83.7891 97.6562-83.7891L35.4004-83.7891C20.752-83.7891 12.4512-75.293 12.4512-60.791L12.4512-22.8516C12.4512-8.30078 20.9961 0.0976562 35.0586 0.0976562L37.0117 0.0976562L37.0117 14.2578C37.0117 17.4805 38.7207 19.5312 41.6992 19.5312ZM42.041-34.2773C37.8418-34.2773 34.4238-37.6465 34.4238-41.8457C34.4238-46.0449 37.8418-49.4629 42.041-49.4629C46.2402-49.4629 49.6582-46.0449 49.6582-41.8457C49.6582-37.6465 46.2402-34.2773 42.041-34.2773ZM66.6016-34.2773C62.3535-34.2773 58.9844-37.6465 58.9844-41.8457C58.9844-46.0449 62.3535-49.4629 66.6016-49.4629C70.8008-49.4629 74.1699-46.0449 74.1699-41.8457C74.1699-37.6465 70.8008-34.2773 66.6016-34.2773ZM91.1133-34.2773C86.9141-34.2773 83.4961-37.6465 83.4961-41.8457C83.4961-46.0449 86.9141-49.4629 91.1133-49.4629C95.3125-49.4629 98.7305-46.0449 98.7305-41.8457C98.7305-37.6465 95.3125-34.2773 91.1133-34.2773Z"/>
  </g>
  <g id="Regular-M" transform="matrix(1 0 0 1 1383.58 1126)">
   <path d="M41.4551 18.7012C43.3594 18.7012 44.7754 17.7246 47.0703 15.5762L64.6973-0.537109L97.7051-0.488281C112.256-0.439453 120.068-8.54492 120.068-22.8516L120.068-60.2539C120.068-74.5605 112.256-82.6172 97.7051-82.6172L34.8145-82.6172C20.2637-82.6172 12.4512-74.6094 12.4512-60.2539L12.4512-22.8516C12.4512-8.49609 20.2637-0.537109 34.8145-0.537109L37.1094-0.537109L37.1094 13.6719C37.1094 16.6992 38.6719 18.7012 41.4551 18.7012ZM41.6016-34.375C37.6465-34.375 34.375-37.5977 34.375-41.6016C34.375-45.6055 37.6465-48.8281 41.6016-48.8281C45.6055-48.8281 48.8281-45.6055 48.8281-41.6016C48.8281-37.5977 45.6055-34.375 41.6016-34.375ZM66.3086-34.375C62.3047-34.375 59.0332-37.5977 59.0332-41.6016C59.0332-45.6055 62.3047-48.8281 66.3086-48.8281C70.2637-48.8281 73.5352-45.6055 73.5352-41.6016C73.5352-37.5977 70.2637-34.375 66.3086-34.375ZM90.9668-34.375C86.9629-34.375 83.7402-37.5977 83.7402-41.6016C83.7402-45.6055 86.9629-48.8281 90.9668-48.8281C94.9707-48.8281 98.1934-45.6055 98.1934-41.6016C98.1934-37.5977 94.9707-34.375 90.9668-34.375Z"/>
  </g>
  <g id="Light-M" transform="matrix(1 0 0 1 1087.68 1126)">
   <path d="M39.7949 17.3828C41.3574 17.3828 42.4805 16.5527 44.2383 14.9414L61.9141-0.830078L97.7051-0.830078C110.938-0.78125 118.457-8.49609 118.457-21.5332L118.457-60.791C118.457-73.877 110.938-81.543 97.7051-81.543L33.2031-81.543C19.9707-81.543 12.4512-73.9258 12.4512-60.791L12.4512-21.5332C12.4512-8.44727 19.9707-0.830078 33.2031-0.830078L36.2793-0.830078L36.2793 13.3301C36.2793 15.7715 37.5977 17.3828 39.7949 17.3828ZM42.1875-34.668C38.5742-34.668 35.5957-37.5977 35.5957-41.2598C35.5957-44.8242 38.5742-47.7539 42.1875-47.7539C45.8008-47.7539 48.7305-44.8242 48.7305-41.2598C48.7305-37.5977 45.8008-34.668 42.1875-34.668ZM65.4785-34.668C61.8652-34.668 58.9355-37.5977 58.9355-41.2598C58.9355-44.8242 61.8652-47.7539 65.4785-47.7539C69.0918-47.7539 72.0215-44.8242 72.0215-41.2598C72.0215-37.5977 69.0918-34.668 65.4785-34.668ZM88.7695-34.668C85.1074-34.668 82.1777-37.5977 82.1777-41.2598C82.1777-44.8242 85.1074-47.7539 88.7695-47.7539C92.3828-47.7539 95.3125-44.8242 95.3125-41.2598C95.3125-37.5977 92.3828-34.668 88.7695-34.668Z"/>
  </g>
  <g id="Thin-M" transform="matrix(1 0 0 1 792.042 1126)">
   <path d="M37.5977 15.625C38.6719 15.625 39.502 14.9902 40.5273 14.1113L58.252-1.2207L97.7051-1.2207C109.229-1.2207 116.309-8.44727 116.309-19.8242L116.309-61.5234C116.309-72.9004 109.229-80.127 97.7051-80.127L31.0547-80.127C19.5312-80.127 12.4512-72.998 12.4512-61.5234L12.4512-19.8242C12.4512-8.34961 19.5312-1.2207 31.0547-1.2207L35.2051-1.2207L35.2051 12.8906C35.2051 14.5508 36.1816 15.625 37.5977 15.625ZM42.9688-35.0586C39.7949-35.0586 37.2559-37.5977 37.2559-40.7227C37.2559-43.8477 39.7949-46.3379 42.9688-46.3379C46.0938-46.3379 48.584-43.8477 48.584-40.7227C48.584-37.5977 46.0938-35.0586 42.9688-35.0586ZM64.4043-35.0586C61.2305-35.0586 58.7402-37.5977 58.7402-40.7227C58.7402-43.8477 61.2305-46.3379 64.4043-46.3379C67.5293-46.3379 70.0195-43.8477 70.0195-40.7227C70.0195-37.5977 67.5293-35.0586 64.4043-35.0586ZM85.8398-35.0586C82.666-35.0586 80.1758-37.5977 80.1758-40.7227C80.1758-43.8477 82.666-46.3379 85.8398-46.3379C88.9648-46.3379 91.5039-43.8477 91.5039-40.7227C91.5039-37.5977 88.9648-35.0586 85.8398-35.0586Z"/>
  </g>
  <g id="Ultralight-M" transform="matrix(1 0 0 1 495.893 1126)">
   <path d="M36.4746 14.6973C37.2559 14.6973 37.9395 14.209 38.5742 13.6719L56.3477-1.41602L97.7051-1.41602C108.35-1.41602 115.186-8.39844 115.186-18.9453L115.186-61.9141C115.186-72.4121 108.35-79.3945 97.7051-79.3945L29.9316-79.3945C19.2871-79.3945 12.4512-72.5586 12.4512-61.9141L12.4512-18.9453C12.4512-8.25195 19.2871-1.41602 29.9316-1.41602L34.668-1.41602L34.668 12.6465C34.668 13.916 35.4492 14.6973 36.4746 14.6973ZM43.3594-35.2539C40.4785-35.2539 38.0859-37.5488 38.0859-40.4785C38.0859-43.3105 40.4785-45.6055 43.3594-45.6055C46.1914-45.6055 48.4863-43.3105 48.4863-40.4785C48.4863-37.5488 46.1914-35.2539 43.3594-35.2539ZM63.8672-35.2539C60.9375-35.2539 58.6426-37.5488 58.6426-40.4785C58.6426-43.3105 60.9375-45.6055 63.8672-45.6055C66.6992-45.6055 68.9941-43.3105 68.9941-40.4785C68.9941-37.5488 66.6992-35.2539 63.8672-35.2539ZM84.3262-35.2539C81.4453-35.2539 79.1504-37.5488 79.1504-40.4785C79.1504-43.3105 81.4453-45.6055 84.3262-45.6055C87.207-45.6055 89.5508-43.3105 89.5508-40.4785C89.5508-37.5488 87.207-35.2539 84.3262-35.2539Z"/>
  </g>
  <g id="Black-S" transform="matrix(1 0 0 1 2880.28 696)">
   <path d="M33.4961 10.6445C35.498 10.6445 37.2559 9.96094 39.6973 7.8125L54.9805-5.37109L76.3672-5.37109C88.3789-5.37109 96.4844-13.4766 96.4844-25.4883L96.4844-57.1289C96.4844-69.1406 88.3789-77.2461 76.3672-77.2461L29.8828-77.2461C17.8711-77.2461 9.76562-69.1406 9.76562-57.1289L9.76562-25.4883C9.76562-13.4766 18.8477-5.37109 28.418-5.37109L28.7109-5.37109L28.7109 5.46875C28.7109 8.69141 30.5664 10.6445 33.4961 10.6445ZM34.375-34.0332C30.3223-34.0332 27.0996-37.3047 27.0996-41.3086C27.0996-45.3125 30.3223-48.584 34.375-48.584C38.3789-48.584 41.6016-45.3125 41.6016-41.3086C41.6016-37.3047 38.3789-34.0332 34.375-34.0332ZM53.1738-34.0332C49.1699-34.0332 45.8984-37.3047 45.8984-41.3086C45.8984-45.3125 49.1699-48.584 53.1738-48.584C57.1777-48.584 60.4492-45.3125 60.4492-41.3086C60.4492-37.3047 57.1777-34.0332 53.1738-34.0332ZM71.9727-34.0332C67.9688-34.0332 64.7461-37.3047 64.7461-41.3086C64.7461-45.3125 67.9688-48.584 71.9727-48.584C76.0254-48.584 79.248-45.3125 79.248-41.3086C79.248-37.3047 76.0254-34.0332 71.9727-34.0332Z"/>
  </g>
  <g id="Heavy-S" transform="matrix(1 0 0 1 2583.76 696)">
   <path d="M33.4473 9.96094C35.4004 9.96094 37.0117 9.22852 39.3555 7.12891L54.2969-5.95703L76.416-5.95703C88.4277-5.95703 96.0938-13.6719 96.0938-25.6348L96.0938-56.543C96.0938-68.5059 88.4277-76.2207 76.416-76.2207L29.4434-76.2207C17.4316-76.2207 9.76562-68.5059 9.76562-56.543L9.76562-25.6348C9.76562-13.6719 18.2129-5.95703 28.3203-5.95703L28.9062-5.95703L28.9062 4.93164C28.9062 8.05664 30.6152 9.96094 33.4473 9.96094ZM33.8867-34.1309C30.0293-34.1309 26.9043-37.2559 26.9043-41.1133C26.9043-44.9219 30.0293-48.0957 33.8867-48.0957C37.7441-48.0957 40.8203-44.9219 40.8203-41.1133C40.8203-37.2559 37.7441-34.1309 33.8867-34.1309ZM52.9785-34.1309C49.1211-34.1309 45.9961-37.2559 45.9961-41.1133C45.9961-44.9219 49.1211-48.0957 52.9785-48.0957C56.7871-48.0957 59.9609-44.9219 59.9609-41.1133C59.9609-37.2559 56.7871-34.1309 52.9785-34.1309ZM72.0703-34.1309C68.2129-34.1309 65.1367-37.2559 65.1367-41.1133C65.1367-44.9219 68.2129-48.0957 72.0703-48.0957C75.9277-48.0957 79.0039-44.9219 79.0039-41.1133C79.0039-37.2559 75.9277-34.1309 72.0703-34.1309Z"/>
  </g>
  <g id="Bold-S" transform="matrix(1 0 0 1 2287.27 696)">
   <path d="M33.3984 9.13086C35.2539 9.13086 36.7188 8.39844 38.9648 6.34766L53.5156-6.64062L76.4648-6.64062C88.4766-6.5918 95.6543-13.916 95.6543-25.8301L95.6543-55.8594C95.6543-67.7734 88.4766-75.0488 76.4648-75.0488L28.9551-75.0488C16.9434-75.0488 9.76562-67.7734 9.76562-55.8594L9.76562-25.8301C9.76562-13.916 17.4316-6.64062 28.2227-6.64062L29.1016-6.64062L29.1016 4.3457C29.1016 7.32422 30.7129 9.13086 33.3984 9.13086ZM33.3496-34.2285C29.6875-34.2285 26.709-37.207 26.709-40.8691C26.709-44.5312 29.6875-47.5098 33.3496-47.5098C37.0117-47.5098 39.9414-44.5312 39.9414-40.8691C39.9414-37.207 37.0117-34.2285 33.3496-34.2285ZM52.7344-34.2285C49.0723-34.2285 46.0938-37.207 46.0938-40.8691C46.0938-44.5312 49.0723-47.5098 52.7344-47.5098C56.3965-47.5098 59.375-44.5312 59.375-40.8691C59.375-37.207 56.3965-34.2285 52.7344-34.2285ZM72.168-34.2285C68.5059-34.2285 65.5273-37.207 65.5273-40.8691C65.5273-44.5312 68.5059-47.5098 72.168-47.5098C75.8301-47.5098 78.7598-44.5312 78.7598-40.8691C78.7598-37.207 75.8301-34.2285 72.168-34.2285Z"/>
  </g>
  <g id="Semibold-S" transform="matrix(1 0 0 1 1990.7 696)">
   <path d="M33.3496 8.59375C35.1562 8.59375 36.5234 7.8125 38.7207 5.81055L52.9785-7.08008L76.5137-7.08008C88.5254-7.03125 95.3613-14.0625 95.3613-25.9277L95.3613-55.3711C95.3613-67.2852 88.5254-74.2676 76.5137-74.2676L28.6621-74.2676C16.6504-74.2676 9.76562-67.2852 9.76562-55.3711L9.76562-25.9277C9.76562-14.0625 16.9434-7.08008 28.1738-7.08008L29.248-7.08008L29.248 3.95508C29.248 6.78711 30.7617 8.59375 33.3496 8.59375ZM32.959-34.2773C29.4434-34.2773 26.5625-37.1582 26.5625-40.7227C26.5625-44.2383 29.4434-47.1191 32.959-47.1191C36.5234-47.1191 39.3555-44.2383 39.3555-40.7227C39.3555-37.1582 36.5234-34.2773 32.959-34.2773ZM52.5879-34.2773C49.0723-34.2773 46.1914-37.1582 46.1914-40.7227C46.1914-44.2383 49.0723-47.1191 52.5879-47.1191C56.1035-47.1191 58.9844-44.2383 58.9844-40.7227C58.9844-37.1582 56.1035-34.2773 52.5879-34.2773ZM72.2168-34.2773C68.6523-34.2773 65.8203-37.1582 65.8203-40.7227C65.8203-44.2383 68.6523-47.1191 72.2168-47.1191C75.7324-47.1191 78.6133-44.2383 78.6133-40.7227C78.6133-37.1582 75.7324-34.2773 72.2168-34.2773Z"/>
  </g>
  <g id="Medium-S" transform="matrix(1 0 0 1 1694.09 696)">
   <path d="M33.3496 8.20312C35.0586 8.20312 36.377 7.37305 38.4766 5.41992L52.5879-7.4707L76.5137-7.42188C88.5254-7.37305 95.166-14.209 95.166-26.0254L95.166-55.0293C95.166-66.8945 88.5254-73.6816 76.5137-73.6816L28.418-73.6816C16.4062-73.6816 9.76562-66.8945 9.76562-55.0293L9.76562-26.0254C9.76562-14.209 16.5527-7.4707 28.125-7.4707L29.3457-7.4707L29.3457 3.66211C29.3457 6.39648 30.8105 8.20312 33.3496 8.20312ZM32.666-34.375C29.248-34.375 26.4648-37.1582 26.4648-40.5762C26.4648-43.9941 29.248-46.8262 32.666-46.8262C36.1328-46.8262 38.916-43.9941 38.916-40.5762C38.916-37.1582 36.1328-34.375 32.666-34.375ZM52.4902-34.375C49.0234-34.375 46.2402-37.1582 46.2402-40.5762C46.2402-43.9941 49.0234-46.8262 52.4902-46.8262C55.9082-46.8262 58.6914-43.9941 58.6914-40.5762C58.6914-37.1582 55.9082-34.375 52.4902-34.375ZM72.2656-34.375C68.7988-34.375 66.0156-37.1582 66.0156-40.5762C66.0156-43.9941 68.7988-46.8262 72.2656-46.8262C75.6836-46.8262 78.4668-43.9941 78.4668-40.5762C78.4668-37.1582 75.6836-34.375 72.2656-34.375Z"/>
  </g>
  <g id="Regular-S" transform="matrix(1 0 0 1 1397.53 696)">
   <path d="M33.3008 7.66602C35.0098 7.66602 36.1816 6.78711 38.2324 4.88281L52.0508-7.91016L76.5625-7.86133C88.5742-7.8125 94.873-14.3555 94.873-26.1719L94.873-54.5898C94.873-66.4062 88.5742-72.9004 76.5625-72.9004L28.0762-72.9004C16.0645-72.9004 9.76562-66.4062 9.76562-54.5898L9.76562-26.1719C9.76562-14.3555 16.0645-7.91016 28.0762-7.91016L29.4434-7.91016L29.4434 3.27148C29.4434 5.9082 30.8594 7.66602 33.3008 7.66602ZM32.3242-34.4238C29.0039-34.4238 26.3184-37.1094 26.3184-40.4297C26.3184-43.75 29.0039-46.4355 32.3242-46.4355C35.6445-46.4355 38.3301-43.75 38.3301-40.4297C38.3301-37.1094 35.6445-34.4238 32.3242-34.4238ZM52.2949-34.4238C49.0234-34.4238 46.3379-37.1094 46.3379-40.4297C46.3379-43.75 49.0234-46.4355 52.2949-46.4355C55.6152-46.4355 58.3008-43.75 58.3008-40.4297C58.3008-37.1094 55.6152-34.4238 52.2949-34.4238ZM72.3145-34.4238C68.9941-34.4238 66.3086-37.1094 66.3086-40.4297C66.3086-43.75 68.9941-46.4355 72.3145-46.4355C75.6348-46.4355 78.3203-43.75 78.3203-40.4297C78.3203-37.1094 75.6348-34.4238 72.3145-34.4238Z"/>
  </g>
  <g id="Light-S" transform="matrix(1 0 0 1 1101.55 696)">
   <path d="M31.8359 6.49414C33.2031 6.49414 34.1797 5.76172 35.7422 4.3457L49.6094-8.1543L76.5625-8.1543C87.4023-8.10547 93.4082-14.3066 93.4082-25L93.4082-55.0781C93.4082-65.7715 87.4023-71.9238 76.5625-71.9238L26.6113-71.9238C15.7715-71.9238 9.76562-65.8203 9.76562-55.0781L9.76562-25C9.76562-14.2578 15.7715-8.1543 26.6113-8.1543L28.7598-8.1543L28.7598 2.97852C28.7598 5.07812 29.8828 6.49414 31.8359 6.49414ZM32.8125-34.668C29.834-34.668 27.3926-37.1094 27.3926-40.0879C27.3926-43.0664 29.834-45.459 32.8125-45.459C35.791-45.459 38.2324-43.0664 38.2324-40.0879C38.2324-37.1094 35.791-34.668 32.8125-34.668ZM51.6113-34.668C48.584-34.668 46.1914-37.1094 46.1914-40.0879C46.1914-43.0664 48.584-45.459 51.6113-45.459C54.5898-45.459 56.9824-43.0664 56.9824-40.0879C56.9824-37.1094 54.5898-34.668 51.6113-34.668ZM70.3613-34.668C67.3828-34.668 64.9902-37.1094 64.9902-40.0879C64.9902-43.0664 67.3828-45.459 70.3613-45.459C73.3398-45.459 75.7812-43.0664 75.7812-40.0879C75.7812-37.1094 73.3398-34.668 70.3613-34.668Z"/>
  </g>
  <g id="Thin-S" transform="matrix(1 0 0 1 805.763 696)">
   <path d="M29.8828 4.93164C30.8105 4.93164 31.4941 4.44336 32.4707 3.61328L46.3379-8.49609L76.5625-8.49609C85.9375-8.49609 91.5527-14.2578 91.5527-23.4863L91.5527-55.7129C91.5527-64.9414 85.9375-70.6543 76.5625-70.6543L24.7559-70.6543C15.3809-70.6543 9.76562-64.9902 9.76562-55.7129L9.76562-23.4863C9.76562-14.1602 15.3809-8.49609 24.7559-8.49609L27.7832-8.49609L27.7832 2.53906C27.7832 4.00391 28.6133 4.93164 29.8828 4.93164ZM33.4961-35.0098C30.957-35.0098 28.8574-37.0605 28.8574-39.6484C28.8574-42.1875 30.957-44.1895 33.4961-44.1895C36.0352-44.1895 38.0859-42.1875 38.0859-39.6484C38.0859-37.0605 36.0352-35.0098 33.4961-35.0098ZM50.6348-35.0098C48.0957-35.0098 46.0449-37.0605 46.0449-39.6484C46.0449-42.1875 48.0957-44.1895 50.6348-44.1895C53.1738-44.1895 55.2246-42.1875 55.2246-39.6484C55.2246-37.0605 53.1738-35.0098 50.6348-35.0098ZM67.7734-35.0098C65.2344-35.0098 63.1836-37.0605 63.1836-39.6484C63.1836-42.1875 65.2344-44.1895 67.7734-44.1895C70.3125-44.1895 72.4121-42.1875 72.4121-39.6484C72.4121-37.0605 70.3125-35.0098 67.7734-35.0098Z"/>
  </g>
  <g id="Ultralight-S" transform="matrix(1 0 0 1 509.54 696)">
   <path d="M28.9062 4.15039C29.5898 4.15039 30.127 3.71094 30.7617 3.22266L44.6777-8.69141L76.5625-8.69141C85.1562-8.69141 90.5762-14.209 90.5762-22.7051L90.5762-56.0059C90.5762-64.502 85.1562-70.0195 76.5625-70.0195L23.7793-70.0195C15.1855-70.0195 9.76562-64.5996 9.76562-56.0059L9.76562-22.7051C9.76562-14.1113 15.1855-8.69141 23.7793-8.69141L27.2949-8.69141L27.2949 2.34375C27.2949 3.4668 27.9785 4.15039 28.9062 4.15039ZM33.8379-35.2051C31.4941-35.2051 29.5898-37.0605 29.5898-39.4043C29.5898-41.6992 31.4941-43.5547 33.8379-43.5547C36.1328-43.5547 37.9883-41.6992 37.9883-39.4043C37.9883-37.0605 36.1328-35.2051 33.8379-35.2051ZM50.1465-35.2051C47.8027-35.2051 45.9473-37.0605 45.9473-39.4043C45.9473-41.6992 47.8027-43.5547 50.1465-43.5547C52.4414-43.5547 54.2969-41.6992 54.2969-39.4043C54.2969-37.0605 52.4414-35.2051 50.1465-35.2051ZM66.4551-35.2051C64.1113-35.2051 62.2559-37.0605 62.2559-39.4043C62.2559-41.6992 64.1113-43.5547 66.4551-43.5547C68.75-43.5547 70.6543-41.6992 70.6543-39.4043C70.6543-37.0605 68.75-35.2051 66.4551-35.2051Z"/>
  </g>
 </g>
</svg>
