<?xml version="1.0" encoding="UTF-8"?>
<!--Generator: Apple Native CoreSVG 149-->
<!DOCTYPE svg
PUBLIC "-//W3C//DTD SVG 1.1//EN"
       "http://www.w3.org/Graphics/SVG/1.1/DTD/svg11.dtd">
<svg version="1.1" xmlns="http://www.w3.org/2000/svg" xmlns:xlink="http://www.w3.org/1999/xlink" width="3300" height="2200">
 <!--glyph: "uni1006E5.medium", point size: 100.000000, font version: "Version 16.0d18e1", template writer version: "8"-->
 <g id="Notes">
  <rect height="2200" id="artboard" style="fill:white;opacity:1" width="3300" x="0" y="0"/>
  <line id="" style="fill:none;stroke:black;opacity:1;stroke-width:0.5;" x1="263" x2="3036" y1="292" y2="292"/>
  <text style="stroke:none;fill:black;font-family:-apple-system,&quot;SF Pro Display&quot;,&quot;SF Pro Text&quot;,Helvetica,sans-serif;font-weight:bold;" transform="matrix(1 0 0 1 263 322)">Weight/Scale Variations</text>
  <text style="stroke:none;fill:black;font-family:-apple-system,&quot;SF Pro Display&quot;,&quot;SF Pro Text&quot;,Helvetica,sans-serif;text-anchor:middle;" transform="matrix(1 0 0 1 559.711 322)">Ultralight</text>
  <text style="stroke:none;fill:black;font-family:-apple-system,&quot;SF Pro Display&quot;,&quot;SF Pro Text&quot;,Helvetica,sans-serif;text-anchor:middle;" transform="matrix(1 0 0 1 856.422 322)">Thin</text>
  <text style="stroke:none;fill:black;font-family:-apple-system,&quot;SF Pro Display&quot;,&quot;SF Pro Text&quot;,Helvetica,sans-serif;text-anchor:middle;" transform="matrix(1 0 0 1 1153.13 322)">Light</text>
  <text style="stroke:none;fill:black;font-family:-apple-system,&quot;SF Pro Display&quot;,&quot;SF Pro Text&quot;,Helvetica,sans-serif;text-anchor:middle;" transform="matrix(1 0 0 1 1449.84 322)">Regular</text>
  <text style="stroke:none;fill:black;font-family:-apple-system,&quot;SF Pro Display&quot;,&quot;SF Pro Text&quot;,Helvetica,sans-serif;text-anchor:middle;" transform="matrix(1 0 0 1 1746.56 322)">Medium</text>
  <text style="stroke:none;fill:black;font-family:-apple-system,&quot;SF Pro Display&quot;,&quot;SF Pro Text&quot;,Helvetica,sans-serif;text-anchor:middle;" transform="matrix(1 0 0 1 2043.27 322)">Semibold</text>
  <text style="stroke:none;fill:black;font-family:-apple-system,&quot;SF Pro Display&quot;,&quot;SF Pro Text&quot;,Helvetica,sans-serif;text-anchor:middle;" transform="matrix(1 0 0 1 2339.98 322)">Bold</text>
  <text style="stroke:none;fill:black;font-family:-apple-system,&quot;SF Pro Display&quot;,&quot;SF Pro Text&quot;,Helvetica,sans-serif;text-anchor:middle;" transform="matrix(1 0 0 1 2636.69 322)">Heavy</text>
  <text style="stroke:none;fill:black;font-family:-apple-system,&quot;SF Pro Display&quot;,&quot;SF Pro Text&quot;,Helvetica,sans-serif;text-anchor:middle;" transform="matrix(1 0 0 1 2933.4 322)">Black</text>
  <line id="" style="fill:none;stroke:black;opacity:1;stroke-width:0.5;" x1="263" x2="3036" y1="1903" y2="1903"/>
  <g id="" transform="matrix(1 0 0 1 263 1933)">
   <path d="M9.24805 0.830078C13.5547 0.830078 17.1387-2.74414 17.1387-7.05078C17.1387-11.3574 13.5449-14.9316 9.23828-14.9316C4.94141-14.9316 1.36719-11.3574 1.36719-7.05078C1.36719-2.74414 4.95117 0.830078 9.24805 0.830078ZM9.24805-0.654297C5.70312-0.654297 2.87109-3.49609 2.87109-7.05078C2.87109-10.6055 5.69336-13.4473 9.23828-13.4473C12.793-13.4473 15.6348-10.6055 15.6445-7.05078C15.6543-3.49609 12.8027-0.654297 9.24805-0.654297ZM6.39648-6.31836L8.50586-6.31836L8.50586-4.19922C8.50586-3.75977 8.79883-3.45703 9.22852-3.45703C9.67773-3.45703 9.9707-3.75977 9.9707-4.19922L9.9707-6.31836L12.0996-6.31836C12.5391-6.31836 12.8418-6.61133 12.8418-7.04102C12.8418-7.48047 12.5391-7.7832 12.0996-7.7832L9.9707-7.7832L9.9707-9.89258C9.9707-10.3418 9.67773-10.6445 9.22852-10.6445C8.79883-10.6445 8.50586-10.3418 8.50586-9.89258L8.50586-7.7832L6.39648-7.7832C5.94727-7.7832 5.64453-7.48047 5.64453-7.04102C5.64453-6.61133 5.94727-6.31836 6.39648-6.31836Z"/>
  </g>
  <g id="" transform="matrix(1 0 0 1 281.506 1933)">
   <path d="M11.709 2.91016C17.1582 2.91016 21.6699-1.61133 21.6699-7.05078C21.6699-12.5 17.1484-17.0117 11.6992-17.0117C6.25977-17.0117 1.74805-12.5 1.74805-7.05078C1.74805-1.61133 6.26953 2.91016 11.709 2.91016ZM11.709 1.25C7.09961 1.25 3.41797-2.44141 3.41797-7.05078C3.41797-11.6602 7.08984-15.3516 11.6992-15.3516C16.3086-15.3516 20-11.6602 20.0098-7.05078C20.0195-2.44141 16.3184 1.25 11.709 1.25ZM7.98828-6.23047L10.8789-6.23047L10.8789-3.32031C10.8789-2.83203 11.2109-2.5 11.6895-2.5C12.1777-2.5 12.5195-2.83203 12.5195-3.32031L12.5195-6.23047L15.4297-6.23047C15.918-6.23047 16.25-6.5625 16.25-7.04102C16.25-7.5293 15.918-7.87109 15.4297-7.87109L12.5195-7.87109L12.5195-10.7617C12.5195-11.2695 12.1777-11.6016 11.6895-11.6016C11.2109-11.6016 10.8789-11.2598 10.8789-10.7617L10.8789-7.87109L7.98828-7.87109C7.48047-7.87109 7.14844-7.5293 7.14844-7.04102C7.14844-6.5625 7.49023-6.23047 7.98828-6.23047Z"/>
  </g>
  <g id="" transform="matrix(1 0 0 1 304.924 1933)">
   <path d="M14.9707 5.66406C21.9336 5.66406 27.6953-0.0976562 27.6953-7.05078C27.6953-14.0137 21.9238-19.7754 14.9609-19.7754C8.00781-19.7754 2.25586-14.0137 2.25586-7.05078C2.25586-0.0976562 8.01758 5.66406 14.9707 5.66406ZM14.9707 3.84766C8.93555 3.84766 4.08203-1.01562 4.08203-7.05078C4.08203-13.0957 8.92578-17.9492 14.9609-17.9492C21.0059-17.9492 25.8594-13.0957 25.8691-7.05078C25.8789-1.01562 21.0156 3.84766 14.9707 3.84766ZM10.0586-6.14258L14.0625-6.14258L14.0625-2.12891C14.0625-1.5918 14.4336-1.2207 14.9512-1.2207C15.4883-1.2207 15.8594-1.5918 15.8594-2.12891L15.8594-6.14258L19.8828-6.14258C20.4102-6.14258 20.791-6.51367 20.791-7.03125C20.791-7.56836 20.4199-7.94922 19.8828-7.94922L15.8594-7.94922L15.8594-11.9531C15.8594-12.5098 15.4883-12.8809 14.9512-12.8809C14.4336-12.8809 14.0625-12.5 14.0625-11.9531L14.0625-7.94922L10.0586-7.94922C9.50195-7.94922 9.13086-7.56836 9.13086-7.03125C9.13086-6.51367 9.51172-6.14258 10.0586-6.14258Z"/>
  </g>
  <text style="stroke:none;fill:black;font-family:-apple-system,&quot;SF Pro Display&quot;,&quot;SF Pro Text&quot;,Helvetica,sans-serif;font-weight:bold;" transform="matrix(1 0 0 1 263 1953)">Design Variations</text>
  <text style="stroke:none;fill:black;font-family:-apple-system,&quot;SF Pro Display&quot;,&quot;SF Pro Text&quot;,Helvetica,sans-serif;" transform="matrix(1 0 0 1 263 1971)">Symbols are supported in up to nine weights and three scales.</text>
  <text style="stroke:none;fill:black;font-family:-apple-system,&quot;SF Pro Display&quot;,&quot;SF Pro Text&quot;,Helvetica,sans-serif;" transform="matrix(1 0 0 1 263 1989)">For optimal layout with text and other symbols, vertically align</text>
  <text style="stroke:none;fill:black;font-family:-apple-system,&quot;SF Pro Display&quot;,&quot;SF Pro Text&quot;,Helvetica,sans-serif;" transform="matrix(1 0 0 1 263 2007)">symbols with the adjacent text.</text>
  <line id="" style="fill:none;stroke:#00AEEF;stroke-width:0.5;opacity:1.0;" x1="776" x2="776" y1="1919" y2="1933"/>
  <g id="" transform="matrix(1 0 0 1 776 1933)">
   <path d="M3.31055 0.126953C3.82812 0.126953 4.08203-0.0683594 4.26758-0.605469L5.52734-4.0625L11.2891-4.0625L12.5488-0.605469C12.7344-0.0683594 12.9883 0.126953 13.4961 0.126953C14.0137 0.126953 14.3457-0.185547 14.3457-0.673828C14.3457-0.839844 14.3164-0.986328 14.2383-1.20117L9.6582-13.3887C9.43359-13.9941 9.0332-14.2871 8.4082-14.2871C7.80273-14.2871 7.39258-13.9941 7.17773-13.3984L2.59766-1.19141C2.51953-0.976562 2.49023-0.830078 2.49023-0.664062C2.49023-0.175781 2.80273 0.126953 3.31055 0.126953ZM6.00586-5.53711L8.37891-12.1094L8.42773-12.1094L10.8008-5.53711Z"/>
  </g>
  <line id="" style="fill:none;stroke:#00AEEF;stroke-width:0.5;opacity:1.0;" x1="792.836" x2="792.836" y1="1919" y2="1933"/>
  <text style="stroke:none;fill:black;font-family:-apple-system,&quot;SF Pro Display&quot;,&quot;SF Pro Text&quot;,Helvetica,sans-serif;font-weight:bold;" transform="matrix(1 0 0 1 776 1953)">Margins</text>
  <text style="stroke:none;fill:black;font-family:-apple-system,&quot;SF Pro Display&quot;,&quot;SF Pro Text&quot;,Helvetica,sans-serif;" transform="matrix(1 0 0 1 776 1971)">Leading and trailing margins on the left and right side of each symbol</text>
  <text style="stroke:none;fill:black;font-family:-apple-system,&quot;SF Pro Display&quot;,&quot;SF Pro Text&quot;,Helvetica,sans-serif;" transform="matrix(1 0 0 1 776 1989)">can be adjusted by modifying the x-location of the margin guidelines.</text>
  <text style="stroke:none;fill:black;font-family:-apple-system,&quot;SF Pro Display&quot;,&quot;SF Pro Text&quot;,Helvetica,sans-serif;" transform="matrix(1 0 0 1 776 2007)">Modifications are automatically applied proportionally to all</text>
  <text style="stroke:none;fill:black;font-family:-apple-system,&quot;SF Pro Display&quot;,&quot;SF Pro Text&quot;,Helvetica,sans-serif;" transform="matrix(1 0 0 1 776 2025)">scales and weights.</text>
  <g id="" transform="matrix(1 0 0 1 1289 1933)">
   <path d="M2.8418 1.86523L4.54102 3.57422C5.40039 4.44336 6.38672 4.38477 7.31445 3.35938L17.4902-7.85156C17.7539-7.76367 18.0273-7.7832 18.3398-7.8418L19.4043-8.03711L20.0684-7.36328L20.0293-6.80664C19.9902-6.30859 20.1172-5.92773 20.6055-5.44922L21.3672-4.70703C21.8457-4.22852 22.4609-4.19922 22.9297-4.66797L25.8398-7.58789C26.3086-8.05664 26.2891-8.65234 25.8105-9.13086L25.0391-9.89258C24.5605-10.3711 24.1895-10.5273 23.7109-10.4883L23.1348-10.4395L22.4902-11.0742L22.7344-12.1973C22.8613-12.7637 22.7051-13.2031 22.1191-13.7891L19.9219-15.9766C16.582-19.2969 12.1484-19.2188 9.25781-16.3281C8.83789-15.918 8.80859-15.3418 9.04297-14.9512C9.27734-14.5898 9.73633-14.3555 10.3809-14.5215C11.8457-14.8633 13.3691-14.9219 14.7949-13.9844L14.209-12.5293C14.0137-12.0508 13.9844-11.6504 14.1113-11.2891L3.04688-0.898438C2.06055 0.0195312 1.98242 0.996094 2.8418 1.86523ZM10.752-15.957C13.1836-17.7344 16.4746-17.4316 18.7012-15.2051L21.1328-12.793C21.3672-12.5586 21.4062-12.373 21.3379-12.0312L21.0156-10.5469L22.5195-9.0625L23.5059-9.12109C23.7598-9.13086 23.8379-9.11133 24.0332-8.91602L24.6094-8.33984L22.168-5.89844L21.5918-6.47461C21.3965-6.66992 21.3672-6.74805 21.377-7.01172L21.4453-7.98828L19.9512-9.47266L18.4277-9.21875C18.1055-9.15039 17.959-9.17969 17.7148-9.41406L15.7129-11.416C15.459-11.6504 15.4297-11.8164 15.5859-12.1875L16.4648-14.2773C14.9023-15.7324 12.8711-16.3574 10.8398-15.7617C10.6836-15.7227 10.625-15.8496 10.752-15.957ZM5.27344 2.30469L4.10156 1.14258C3.63281 0.683594 3.74023 0.341797 4.14062-0.0195312L14.9512-10.1953L16.416-8.71094L6.42578 2.27539C6.07422 2.67578 5.74219 2.77344 5.27344 2.30469Z"/>
  </g>
  <text style="stroke:none;fill:black;font-family:-apple-system,&quot;SF Pro Display&quot;,&quot;SF Pro Text&quot;,Helvetica,sans-serif;font-weight:bold;" transform="matrix(1 0 0 1 1289 1953)">Exporting</text>
  <text style="stroke:none;fill:black;font-family:-apple-system,&quot;SF Pro Display&quot;,&quot;SF Pro Text&quot;,Helvetica,sans-serif;" transform="matrix(1 0 0 1 1289 1971)">Symbols should be outlined when exporting to ensure the</text>
  <text style="stroke:none;fill:black;font-family:-apple-system,&quot;SF Pro Display&quot;,&quot;SF Pro Text&quot;,Helvetica,sans-serif;" transform="matrix(1 0 0 1 1289 1989)">design is preserved when submitting to Xcode.</text>
  <text id="template-version" style="stroke:none;fill:black;font-family:-apple-system,&quot;SF Pro Display&quot;,&quot;SF Pro Text&quot;,Helvetica,sans-serif;text-anchor:end;" transform="matrix(1 0 0 1 3036 1933)">Template v.2.0</text>
  <text style="stroke:none;fill:black;font-family:-apple-system,&quot;SF Pro Display&quot;,&quot;SF Pro Text&quot;,Helvetica,sans-serif;text-anchor:end;" transform="matrix(1 0 0 1 3036 1951)">Requires Xcode 12 or greater</text>
  <text style="stroke:none;fill:black;font-family:-apple-system,&quot;SF Pro Display&quot;,&quot;SF Pro Text&quot;,Helvetica,sans-serif;text-anchor:end;" transform="matrix(1 0 0 1 3036 1969)">Generated from bolt.heart.fill</text>
  <text style="stroke:none;fill:black;font-family:-apple-system,&quot;SF Pro Display&quot;,&quot;SF Pro Text&quot;,Helvetica,sans-serif;text-anchor:end;" transform="matrix(1 0 0 1 3036 1987)">Typeset at 100 points</text>
  <text style="stroke:none;fill:black;font-family:-apple-system,&quot;SF Pro Display&quot;,&quot;SF Pro Text&quot;,Helvetica,sans-serif;" transform="matrix(1 0 0 1 263 726)">Small</text>
  <text style="stroke:none;fill:black;font-family:-apple-system,&quot;SF Pro Display&quot;,&quot;SF Pro Text&quot;,Helvetica,sans-serif;" transform="matrix(1 0 0 1 263 1156)">Medium</text>
  <text style="stroke:none;fill:black;font-family:-apple-system,&quot;SF Pro Display&quot;,&quot;SF Pro Text&quot;,Helvetica,sans-serif;" transform="matrix(1 0 0 1 263 1586)">Large</text>
 </g>
 <g id="Guides">
  <g id="H-reference" style="fill:#27AAE1;stroke:none;" transform="matrix(1 0 0 1 339 696)">
   <path d="M0.976562 0L3.66211 0L12.9883-24.4629L45.752-24.4629L55.127 0L57.7637 0L30.6152-70.459L28.125-70.459ZM29.3457-67.1387L29.4434-67.1387L44.873-26.709L13.8672-26.709Z"/>
  </g>
  <line id="Baseline-S" style="fill:none;stroke:#27AAE1;opacity:1;stroke-width:0.5;" x1="263" x2="3036" y1="696" y2="696"/>
  <line id="Capline-S" style="fill:none;stroke:#27AAE1;opacity:1;stroke-width:0.5;" x1="263" x2="3036" y1="625.541" y2="625.541"/>
  <g id="H-reference" style="fill:#27AAE1;stroke:none;" transform="matrix(1 0 0 1 339 1126)">
   <path d="M0.976562 0L3.66211 0L12.9883-24.4629L45.752-24.4629L55.127 0L57.7637 0L30.6152-70.459L28.125-70.459ZM29.3457-67.1387L29.4434-67.1387L44.873-26.709L13.8672-26.709Z"/>
  </g>
  <line id="Baseline-M" style="fill:none;stroke:#27AAE1;opacity:1;stroke-width:0.5;" x1="263" x2="3036" y1="1126" y2="1126"/>
  <line id="Capline-M" style="fill:none;stroke:#27AAE1;opacity:1;stroke-width:0.5;" x1="263" x2="3036" y1="1055.54" y2="1055.54"/>
  <g id="H-reference" style="fill:#27AAE1;stroke:none;" transform="matrix(1 0 0 1 339 1556)">
   <path d="M0.976562 0L3.66211 0L12.9883-24.4629L45.752-24.4629L55.127 0L57.7637 0L30.6152-70.459L28.125-70.459ZM29.3457-67.1387L29.4434-67.1387L44.873-26.709L13.8672-26.709Z"/>
  </g>
  <line id="Baseline-L" style="fill:none;stroke:#27AAE1;opacity:1;stroke-width:0.5;" x1="263" x2="3036" y1="1556" y2="1556"/>
  <line id="Capline-L" style="fill:none;stroke:#27AAE1;opacity:1;stroke-width:0.5;" x1="263" x2="3036" y1="1485.54" y2="1485.54"/>
  <line id="left-margin" style="fill:none;stroke:#00AEEF;stroke-width:0.5;opacity:1.0;" x1="1389.3" x2="1389.3" y1="1030.79" y2="1150.12"/>
  <line id="right-margin" style="fill:none;stroke:#00AEEF;stroke-width:0.5;opacity:1.0;" x1="1510.39" x2="1510.39" y1="1030.79" y2="1150.12"/>
 </g>
 <g id="Symbols">
  <g id="Black-L" transform="matrix(1 0 0 1 2851.54 1556)">
   <path d="M81.8359 29.5898C84.4727 29.5898 88.3789 27.2461 92.1875 24.707C126.562 2.00195 149.365-25.293 149.365-52.5879C149.365-78.9062 130.957-96.1426 109.766-96.1426C96.4844-96.1426 87.3535-88.8672 81.8359-78.6621C76.416-88.8672 67.2363-96.1426 53.9551-96.1426C32.7637-96.1426 14.3555-78.9062 14.3555-52.5879C14.3555-25.293 37.1582 2.00195 71.5332 24.707C75.3418 27.2461 79.248 29.5898 81.8359 29.5898ZM62.2559-29.1016C62.2559-29.9316 62.5488-30.7617 63.1836-31.3965L88.1348-61.5234C90.7227-64.6484 95.0195-62.3047 93.5059-58.4961L85.8398-38.5254L100.293-38.5254C101.953-38.5254 103.271-37.3047 103.271-35.6934C103.271-34.8145 102.93-33.9844 102.295-33.3984L77.4414-3.27148C74.8047-0.146484 70.5078-2.44141 71.9727-6.29883L79.6387-26.2695L65.2344-26.2695C63.5254-26.2695 62.2559-27.4902 62.2559-29.1016Z"/>
  </g>
  <g id="Heavy-L" transform="matrix(1 0 0 1 2555.98 1556)">
   <path d="M80.7129 28.125C83.0078 28.125 86.377 26.1719 89.5996 24.0234C124.072 1.36719 146.875-25.6348 146.875-52.7344C146.875-77.9297 129.248-94.8242 108.447-94.8242C95.459-94.8242 86.1816-87.6465 80.7129-77.3926C75.2441-87.6465 65.918-94.8242 52.9297-94.8242C32.1777-94.8242 14.5508-77.9297 14.5508-52.7344C14.5508-25.6348 37.3535 1.36719 71.8262 24.0234C75 26.1719 78.418 28.125 80.7129 28.125ZM60.9375-28.5645C60.9375-29.3457 61.2305-30.0781 61.8164-30.7617L87.0605-61.5234C89.502-64.4531 93.5059-62.3047 92.0898-58.7402L84.1797-37.9395L99.0234-37.9395C100.537-37.9395 101.807-36.8164 101.807-35.3516C101.807-34.5703 101.465-33.7891 100.83-33.1543L75.6348-2.39258C73.1934 0.585938 69.2383-1.5625 70.6055-5.17578L78.5156-25.9277L63.6719-25.9277C62.1094-25.9277 60.9375-27.0508 60.9375-28.5645Z"/>
  </g>
  <g id="Bold-L" transform="matrix(1 0 0 1 2260.56 1556)">
   <path d="M79.3945 26.5137C81.2988 26.5137 84.1309 24.9512 86.6211 23.291C121.289 0.683594 144.092-25.9766 144.092-52.8809C144.092-76.9043 127.344-93.3105 106.982-93.3105C94.3359-93.3105 84.9121-86.2793 79.3945-75.9766C73.9258-86.2305 64.4531-93.3105 51.8066-93.3105C31.4453-93.3105 14.7461-76.9043 14.7461-52.8809C14.7461-25.9766 37.5488 0.683594 72.168 23.291C74.707 24.9512 77.4902 26.5137 79.3945 26.5137ZM59.4238-27.9297C59.4238-28.6621 59.7168-29.3457 60.2539-29.9805L85.8887-61.5234C88.0859-64.2578 91.748-62.3535 90.4785-58.9844L82.2754-37.3047L97.6562-37.3047C98.9746-37.3047 100.146-36.2793 100.146-34.9609C100.146-34.2285 99.8047-33.4961 99.2188-32.9102L73.6816-1.36719C71.4355 1.36719 67.7734-0.585938 69.043-3.90625L77.2949-25.5859L61.9141-25.5859C60.5469-25.5859 59.4238-26.6113 59.4238-27.9297Z"/>
  </g>
  <g id="Semibold-L" transform="matrix(1 0 0 1 1964.75 1556)">
   <path d="M78.5156 25.3906C80.1758 25.3906 82.5684 24.1211 84.6191 22.8027C119.385 0.195312 142.139-26.2207 142.139-52.9785C142.139-76.1719 126.074-92.2363 106.006-92.2363C93.5547-92.2363 84.0332-85.3516 78.5156-75.0488C73.0469-85.3027 63.4766-92.2363 51.0742-92.2363C30.957-92.2363 14.8926-76.1719 14.8926-52.9785C14.8926-26.2207 37.6465 0.195312 72.4121 22.8027C74.4629 24.1211 76.8555 25.3906 78.5156 25.3906ZM58.3984-27.5391C58.3984-28.2227 58.6914-28.8574 59.2285-29.4434L85.0586-61.5723C87.1582-64.1113 90.5762-62.3535 89.3555-59.1797L80.957-36.8652L96.6797-36.8652C97.9004-36.8652 98.9746-35.9375 98.9746-34.668C98.9746-34.0332 98.6816-33.3496 98.0957-32.7637L72.3145-0.683594C70.2148 1.9043 66.7969 0.0976562 68.0176-3.02734L76.416-25.3418L60.6934-25.3418C59.4238-25.3418 58.3984-26.3184 58.3984-27.5391Z"/>
  </g>
  <g id="Medium-L" transform="matrix(1 0 0 1 1668.72 1556)">
   <path d="M77.832 24.5117C79.2969 24.5117 81.3965 23.4863 83.1055 22.4121C117.92-0.146484 140.674-26.3672 140.674-53.0273C140.674-75.6348 125.098-91.4551 105.225-91.4551C92.9688-91.4551 83.3496-84.6191 77.832-74.3164C72.3633-84.5703 62.6953-91.4551 50.4883-91.4551C30.6152-91.4551 14.9902-75.6348 14.9902-53.0273C14.9902-26.3672 37.793-0.146484 72.6074 22.4121C74.2676 23.4863 76.3672 24.5117 77.832 24.5117ZM57.6172-27.1973C57.6172-27.832 57.9102-28.4668 58.3984-29.0527L84.4238-61.5723C86.4258-64.0137 89.6484-62.3535 88.4766-59.3262L79.9805-36.5234L95.9473-36.5234C97.1191-36.5234 98.1445-35.6445 98.1445-34.4727C98.1445-33.8379 97.8027-33.2031 97.2656-32.6172L71.2891-0.146484C69.2871 2.29492 66.0156 0.634766 67.1875-2.34375L75.7812-25.1953L59.7656-25.1953C58.5938-25.1953 57.6172-26.0742 57.6172-27.1973Z"/>
  </g>
  <g id="Regular-L" transform="matrix(1 0 0 1 1372.89 1556)">
   <path d="M76.9531 23.4375C78.1738 23.4375 79.8828 22.6562 81.1035 21.875C116.016-0.634766 138.77-26.6113 138.77-53.125C138.77-74.9023 123.779-90.4297 104.199-90.4297C92.2363-90.4297 82.4707-83.6914 76.9531-73.3398C71.4844-83.6426 61.7188-90.4297 49.707-90.4297C30.127-90.4297 15.1367-74.9023 15.1367-53.125C15.1367-26.6113 37.8906-0.634766 72.8516 21.875C74.0723 22.6562 75.7812 23.4375 76.9531 23.4375ZM56.5918-26.8066C56.5918-27.3926 56.8359-27.9297 57.373-28.5645L83.6426-61.5723C85.4492-63.8672 88.4766-62.3535 87.4023-59.5215L78.7109-36.084L94.9707-36.084C96.0449-36.084 96.9727-35.2539 96.9727-34.2285C96.9727-33.6426 96.6797-33.0078 96.1426-32.4707L69.9219 0.537109C68.1152 2.83203 65.0391 1.31836 66.1621-1.51367L74.9023-24.9512L58.5938-24.9512C57.5195-24.9512 56.5918-25.7324 56.5918-26.8066Z"/>
  </g>
  <g id="Light-L" transform="matrix(1 0 0 1 1077.74 1556)">
   <path d="M75.3906 21.9238C76.4648 21.9238 77.8809 21.2891 78.9062 20.6543C113.037-1.66016 136.23-27.0996 136.23-53.125C136.23-74.2676 121.631-89.4043 102.344-89.4043C90.7715-89.4043 80.6641-82.7637 75.3906-72.5586C70.166-82.7637 60.0098-89.4043 48.4375-89.4043C29.1992-89.4043 14.5996-74.2676 14.5996-53.125C14.5996-27.0996 37.7441-1.66016 71.875 20.6543C72.9004 21.2891 74.3652 21.9238 75.3906 21.9238ZM55.2734-26.6113C55.2734-27.1484 55.5176-27.6367 55.957-28.2227L82.6172-61.7188C84.2285-63.7695 86.8652-62.4023 85.9375-59.9121L77.002-35.9863L93.5547-35.9863C94.4824-35.9863 95.3125-35.2539 95.3125-34.375C95.3125-33.8379 95.0195-33.3496 94.5312-32.7637L67.9199 0.732422C66.3086 2.7832 63.623 1.41602 64.6484-1.07422L73.584-25.0977L56.9824-25.0977C56.0547-25.0977 55.2734-25.7324 55.2734-26.6113Z"/>
  </g>
  <g id="Thin-L" transform="matrix(1 0 0 1 783.082 1556)">
   <path d="M73.3398 19.9219C74.1699 19.9219 75.2441 19.4824 76.0254 18.9941C109.131-2.97852 132.812-27.7832 132.812-53.125C132.812-73.4375 118.75-88.0371 99.9023-88.0371C88.916-88.0371 78.2715-81.5918 73.3398-71.4844C68.4082-81.5918 57.7637-88.0371 46.7773-88.0371C27.9297-88.0371 13.8672-73.4375 13.8672-53.125C13.8672-27.7832 37.5488-2.97852 70.6055 18.9941C71.4355 19.4824 72.4609 19.9219 73.3398 19.9219ZM53.5645-26.416C53.5645-26.8066 53.7109-27.2461 54.1504-27.832L81.25-61.9141C82.6172-63.623 84.7656-62.5 83.9844-60.4492L74.8047-35.791L91.6992-35.791C92.4805-35.791 93.0664-35.2539 93.0664-34.5703C93.0664-34.1309 92.8223-33.7402 92.4316-33.1543L65.2832 0.927734C63.916 2.63672 61.7676 1.51367 62.6465-0.537109L71.8262-25.2441L54.9316-25.2441C54.1504-25.2441 53.5645-25.6836 53.5645-26.416Z"/>
  </g>
  <g id="Ultralight-L" transform="matrix(1 0 0 1 487.421 1556)">
   <path d="M72.2656 18.9453C73.0469 18.9453 73.9258 18.5547 74.5605 18.1152C107.129-3.66211 131.055-28.125 131.055-53.125C131.055-72.998 117.285-87.3535 98.6328-87.3535C87.9395-87.3535 77.002-80.957 72.2656-70.9473C67.5293-80.957 56.6406-87.3535 45.8984-87.3535C27.2949-87.3535 13.5254-72.998 13.5254-53.125C13.5254-28.125 37.4512-3.66211 69.9707 18.1152C70.6543 18.5547 71.5332 18.9453 72.2656 18.9453ZM52.6855-26.2695C52.6855-26.6602 52.832-27.0508 53.2227-27.5879L80.5664-62.0117C81.7871-63.5254 83.6914-62.5488 83.0078-60.7422L73.6816-35.6934L90.7715-35.6934C91.4551-35.6934 91.9434-35.2539 91.9434-34.668C91.9434-34.2773 91.6992-33.9355 91.3086-33.3496L63.916 1.07422C62.6953 2.58789 60.8398 1.61133 61.6211-0.244141L70.8984-25.3418L53.8574-25.3418C53.1738-25.3418 52.6855-25.6836 52.6855-26.2695Z"/>
  </g>
  <g id="Black-M" transform="matrix(1 0 0 1 2869.26 1126)">
   <path d="M64.1113 16.2109C66.5039 16.2109 70.1172 13.916 73.7793 11.4258C99.8047-6.05469 117.725-27.3926 117.725-48.5352C117.725-69.9707 102.539-83.7402 85.8398-83.7402C75.3418-83.7402 68.2129-77.9785 64.1113-70.1172C60.0098-77.9785 52.9297-83.7402 42.4316-83.7402C25.6836-83.7402 10.5469-69.9707 10.5469-48.5352C10.5469-27.3926 28.4668-6.05469 54.4434 11.4258C58.1055 13.916 61.7188 16.2109 64.1113 16.2109ZM49.3652-31.1523C49.3652-31.8359 49.6094-32.5195 50.0977-33.0078L69.1895-55.6641C71.3379-58.2031 74.9023-56.25 73.6328-53.125L67.9199-38.4766L78.6621-38.4766C80.0781-38.4766 81.1523-37.5 81.1523-36.1328C81.1523-35.4492 80.8594-34.7168 80.3711-34.2285L61.3281-11.6211C59.1309-9.0332 55.6152-10.9863 56.8359-14.1113L62.5488-28.7598L51.8555-28.7598C50.3906-28.7598 49.3652-29.7363 49.3652-31.1523Z"/>
  </g>
  <g id="Heavy-M" transform="matrix(1 0 0 1 2573.41 1126)">
   <path d="M63.2812 14.9902C65.332 14.9902 68.457 13.0859 71.4844 11.0352C97.8516-6.49414 115.674-27.5879 115.674-48.6816C115.674-69.1406 101.27-82.5195 84.8633-82.5195C74.6094-82.5195 67.4805-76.9043 63.2812-68.9941C59.1309-76.8555 51.9531-82.5195 41.6992-82.5195C25.293-82.5195 10.8887-69.1406 10.8887-48.6816C10.8887-27.5879 28.7109-6.49414 55.0781 11.0352C58.1055 13.0859 61.2305 14.9902 63.2812 14.9902ZM48.2422-30.5664C48.2422-31.25 48.4863-31.8848 48.9258-32.373L68.3105-55.6152C70.3125-58.0566 73.6328-56.25 72.4609-53.3203L66.5039-37.8906L77.6855-37.8906C78.9551-37.8906 79.9316-36.9629 79.9316-35.6934C79.9316-35.0586 79.6875-34.4238 79.1992-33.9355L59.9121-10.6445C57.8613-8.25195 54.5898-10.0586 55.7129-12.9883L61.6699-28.3691L50.5371-28.3691C49.2188-28.3691 48.2422-29.2969 48.2422-30.5664Z"/>
  </g>
  <g id="Bold-M" transform="matrix(1 0 0 1 2277.65 1126)">
   <path d="M62.3535 13.623C64.0625 13.623 66.6016 12.1582 68.9453 10.5957C95.7031-6.93359 113.379-27.832 113.379-48.8281C113.379-68.1641 99.8535-81.1523 83.8379-81.1523C73.8281-81.1523 66.6016-75.6348 62.3535-67.6758C58.1055-75.6348 50.8789-81.1523 40.8691-81.1523C24.8047-81.1523 11.3281-68.1641 11.3281-48.8281C11.3281-27.832 28.9551-6.93359 55.7129 10.5957C58.1055 12.1582 60.6445 13.623 62.3535 13.623ZM46.9727-29.9805C46.9727-30.5664 47.2168-31.1523 47.6562-31.6406L67.2852-55.6152C69.1406-57.8613 72.168-56.25 71.0938-53.4668L64.9414-37.2559L76.5625-37.2559C77.6855-37.2559 78.6133-36.377 78.6133-35.2539C78.6133-34.668 78.3691-34.0332 77.9297-33.5938L58.3496-9.61914C56.4453-7.37305 53.418-8.98438 54.4922-11.7188L60.6934-27.9785L49.0723-27.9785C47.9004-27.9785 46.9727-28.8086 46.9727-29.9805Z"/>
  </g>
  <g id="Semibold-M" transform="matrix(1 0 0 1 1981.57 1126)">
   <path d="M61.6699 12.6953C63.1348 12.6953 65.2832 11.5234 67.1875 10.3027C94.2383-7.27539 111.816-27.9785 111.816-48.9258C111.816-67.4805 98.877-80.2246 83.1055-80.2246C73.2422-80.2246 66.0156-74.8047 61.6699-66.7969C57.4219-74.7559 50.0977-80.2246 40.2832-80.2246C24.4629-80.2246 11.5723-67.4805 11.5723-48.9258C11.5723-27.9785 29.1504-7.27539 56.2012 10.3027C58.0566 11.5234 60.2539 12.6953 61.6699 12.6953ZM46.1426-29.541C46.1426-30.0781 46.3379-30.6152 46.7773-31.1035L66.6016-55.5664C68.3105-57.7148 71.1914-56.2012 70.166-53.6133L63.8672-36.7676L75.7812-36.7676C76.8066-36.7676 77.7344-35.9863 77.7344-34.9121C77.7344-34.375 77.4902-33.7891 77.002-33.3496L57.2266-8.88672C55.5176-6.73828 52.6367-8.25195 53.6133-10.8398L60.0098-27.6855L48.0469-27.6855C46.9727-27.6855 46.1426-28.4668 46.1426-29.541Z"/>
  </g>
  <g id="Medium-M" transform="matrix(1 0 0 1 1685.35 1126)">
   <path d="M61.1816 12.0117C62.4512 12.0117 64.3066 11.0352 65.8203 10.0586C93.1152-7.51953 110.596-28.125 110.596-48.9746C110.596-66.9922 98.1445-79.4922 82.5684-79.4922C72.8516-79.4922 65.5762-74.1211 61.1816-66.1133C56.8848-74.1211 49.5605-79.4922 39.8438-79.4922C24.2188-79.4922 11.7676-66.9922 11.7676-48.9746C11.7676-28.125 29.2969-7.51953 56.543 10.0586C58.0566 11.0352 59.9121 12.0117 61.1816 12.0117ZM45.459-29.1992C45.459-29.7363 45.7031-30.2246 46.1426-30.7129L66.0645-55.5664C67.7246-57.6172 70.459-56.2012 69.4824-53.7109L63.0371-36.4258L75.1953-36.4258C76.1719-36.4258 77.0508-35.6445 77.0508-34.668C77.0508-34.1309 76.8066-33.5938 76.3184-33.1543L56.3965-8.30078C54.7363-6.25 52.002-7.66602 52.9785-10.2051L59.4727-27.4902L47.3145-27.4902C46.2891-27.4902 45.459-28.2227 45.459-29.1992Z"/>
  </g>
  <g id="Regular-M" transform="matrix(1 0 0 1 1389.3 1126)">
   <path d="M60.5469 11.084C61.5723 11.084 63.0371 10.4004 64.1113 9.76562C91.6016-7.8125 109.033-28.2715 109.033-49.0723C109.033-66.3574 97.168-78.5645 81.8359-78.5645C72.3145-78.5645 64.9902-73.291 60.5469-65.2344C56.2012-73.2422 48.7793-78.5645 39.2578-78.5645C23.9258-78.5645 12.0605-66.3574 12.0605-49.0723C12.0605-28.2715 29.4922-7.8125 57.0312 9.76562C58.0566 10.4004 59.5215 11.084 60.5469 11.084ZM44.6289-28.7598C44.6289-29.2969 44.8242-29.7363 45.2637-30.2246L65.3809-55.5664C66.9434-57.4707 69.4824-56.2012 68.5547-53.8086L61.9141-35.9863L74.4141-35.9863C75.293-35.9863 76.123-35.2539 76.123-34.375C76.123-33.8867 75.8789-33.3496 75.4395-32.9102L55.3223-7.56836C53.8086-5.66406 51.2207-6.98242 52.1484-9.32617L58.7891-27.1973L46.2891-27.1973C45.4102-27.1973 44.6289-27.8809 44.6289-28.7598Z"/>
  </g>
  <g id="Light-M" transform="matrix(1 0 0 1 1094 1126)">
   <path d="M59.1309 9.7168C60.0098 9.7168 61.2305 9.17969 62.1582 8.64258C88.9648-8.74023 106.738-28.7109 106.738-49.0723C106.738-65.7715 95.2148-77.6855 80.1758-77.6855C70.9961-77.6855 63.3301-72.5098 59.1309-64.502C54.9805-72.4609 47.2656-77.6855 38.1348-77.6855C23.0469-77.6855 11.5723-65.7715 11.5723-49.0723C11.5723-28.7109 29.3457-8.74023 56.1523 8.64258C57.0312 9.17969 58.252 9.7168 59.1309 9.7168ZM43.457-28.6133C43.457-29.0527 43.6523-29.4922 43.9941-29.9316L64.502-55.7129C65.8203-57.373 68.0664-56.25 67.2363-54.1992L60.4492-35.8398L73.1445-35.8398C73.9258-35.8398 74.6094-35.2539 74.6094-34.5215C74.6094-34.082 74.4141-33.6426 73.9746-33.2031L53.5645-7.42188C52.1973-5.76172 49.9512-6.88477 50.7812-8.93555L57.6172-27.2949L44.873-27.2949C44.0918-27.2949 43.457-27.8809 43.457-28.6133Z"/>
  </g>
  <g id="Thin-M" transform="matrix(1 0 0 1 799.147 1126)">
   <path d="M57.2754 7.95898C57.959 7.95898 58.8867 7.56836 59.5703 7.12891C85.4004-9.96094 103.662-29.2969 103.662-49.0723C103.662-65.0391 92.627-76.4648 77.9297-76.4648C69.2871-76.4648 61.1816-71.4355 57.2754-63.5742C53.418-71.3867 45.2637-76.4648 36.6211-76.4648C21.9238-76.4648 10.8887-65.0391 10.8887-49.0723C10.8887-29.2969 29.1504-9.96094 54.9805 7.12891C55.6641 7.56836 56.5918 7.95898 57.2754 7.95898ZM41.8945-28.418C41.8945-28.8086 42.041-29.1504 42.3828-29.5898L63.2812-55.8594C64.4043-57.2754 66.1621-56.3477 65.5273-54.6875L58.4473-35.6934L71.4844-35.6934C72.1191-35.6934 72.6074-35.2539 72.6074-34.668C72.6074-34.3262 72.4121-33.9844 72.0703-33.5449L51.1719-7.22656C50.0488-5.85938 48.291-6.78711 48.9746-8.44727L56.0547-27.4414L43.0176-27.4414C42.3828-27.4414 41.8945-27.832 41.8945-28.418Z"/>
  </g>
  <g id="Ultralight-M" transform="matrix(1 0 0 1 503.388 1126)">
   <path d="M56.2988 7.03125C56.9336 7.03125 57.666 6.73828 58.2031 6.39648C83.5938-10.5469 102.1-29.5898 102.1-49.0723C102.1-64.6484 91.3086-75.8301 76.8066-75.8301C68.4082-75.8301 60.0586-70.8496 56.2988-63.0859C52.5879-70.8496 44.2383-75.8301 35.8398-75.8301C21.3379-75.8301 10.5469-64.6484 10.5469-49.0723C10.5469-29.5898 29.0527-10.5469 54.3945 6.39648C54.9805 6.73828 55.7129 7.03125 56.2988 7.03125ZM41.0645-28.3203C41.0645-28.6621 41.2109-28.9551 41.5039-29.3945L62.6465-55.957C63.6719-57.1777 65.1855-56.3965 64.6484-54.9316L57.4707-35.6445L70.6055-35.6445C71.1914-35.6445 71.6309-35.2539 71.6309-34.7656C71.6309-34.4727 71.4355-34.1309 71.0938-33.7402L49.9512-7.12891C48.9746-5.9082 47.4609-6.68945 48.0469-8.20312L55.2246-27.5391L42.0898-27.5391C41.5039-27.5391 41.0645-27.832 41.0645-28.3203Z"/>
  </g>
  <g id="Black-S" transform="matrix(1 0 0 1 2883.2 696)">
   <path d="M50.1953 4.98047C52.0508 4.98047 54.834 3.22266 57.666 1.31836C78.0762-12.4023 92.0898-29.1016 92.0898-45.6543C92.0898-62.4023 80.2734-73.1445 67.1875-73.1445C58.9844-73.1445 53.418-68.6523 50.1953-62.5C46.9727-68.6523 41.4062-73.1445 33.2031-73.1445C20.1172-73.1445 8.30078-62.4023 8.30078-45.6543C8.30078-29.1016 22.3145-12.4023 42.7246 1.31836C45.5566 3.22266 48.3398 4.98047 50.1953 4.98047ZM38.5742-31.9824C38.5742-32.5195 38.7695-33.0566 39.1602-33.4473L54.1504-51.2207C55.8105-53.2227 58.5938-51.709 57.6172-49.2676L53.125-37.7441L61.5723-37.7441C62.6465-37.7441 63.4766-36.9629 63.4766-35.8887C63.4766-35.3516 63.2812-34.8145 62.8906-34.4238L47.9492-16.6504C46.2402-14.6484 43.5059-16.1621 44.4336-18.6035L48.9258-30.127L40.5273-30.127C39.4043-30.127 38.5742-30.9082 38.5742-31.9824Z"/>
  </g>
  <g id="Heavy-S" transform="matrix(1 0 0 1 2586.98 696)">
   <path d="M49.707 4.19922C51.3184 4.19922 53.7598 2.73438 56.1035 1.12305C76.9043-12.5977 90.7715-29.1992 90.7715-45.752C90.7715-61.8164 79.541-72.3145 66.6504-72.3145C58.5938-72.3145 53.0273-67.9199 49.707-61.6699C46.3867-67.8711 40.8203-72.3145 32.7637-72.3145C19.873-72.3145 8.64258-61.8164 8.64258-45.752C8.64258-29.1992 22.5098-12.5977 43.2617 1.12305C45.6543 2.73438 48.0957 4.19922 49.707 4.19922ZM37.8418-31.5918C37.8418-32.0801 38.0371-32.5684 38.4277-32.959L53.5645-51.1719C55.127-53.125 57.7637-51.709 56.8359-49.3652L52.1973-37.3047L60.9375-37.3047C61.9629-37.3047 62.7441-36.5723 62.7441-35.5469C62.7441-35.0586 62.5488-34.5215 62.1582-34.1797L47.0703-15.918C45.459-14.0137 42.8711-15.4297 43.75-17.7734L48.3887-29.834L39.6973-29.834C38.623-29.834 37.8418-30.5664 37.8418-31.5918Z"/>
  </g>
  <g id="Bold-S" transform="matrix(1 0 0 1 2290.83 696)">
   <path d="M49.1699 3.32031C50.4883 3.32031 52.5391 2.19727 54.3945 0.927734C75.5859-12.8418 89.3066-29.3457 89.3066-45.8984C89.3066-61.1328 78.6621-71.3867 66.0645-71.3867C58.1055-71.3867 52.5391-67.041 49.1699-60.791C45.752-67.041 40.1855-71.3867 32.2266-71.3867C19.6289-71.3867 8.98438-61.1328 8.98438-45.8984C8.98438-29.3457 22.7539-12.8418 43.8965 0.927734C45.752 2.19727 47.8027 3.32031 49.1699 3.32031ZM37.0605-31.1035C37.0605-31.5918 37.2559-32.0801 37.5977-32.4707L52.9297-51.1719C54.3945-52.9785 56.8359-51.6602 55.957-49.4629L51.1719-36.8164L60.2539-36.8164C61.1328-36.8164 61.9141-36.1328 61.9141-35.2051C61.9141-34.7168 61.7188-34.2285 61.3281-33.8379L46.0938-15.1367C44.5801-13.3301 42.1387-14.6484 42.9688-16.8457L47.8027-29.4922L38.7207-29.4922C37.793-29.4922 37.0605-30.1758 37.0605-31.1035Z"/>
  </g>
  <g id="Semibold-S" transform="matrix(1 0 0 1 1994.51 696)">
   <path d="M48.7793 2.73438C49.9512 2.73438 51.709 1.80664 53.2227 0.78125C74.6582-13.0371 88.2812-29.3945 88.2812-45.9473C88.2812-60.6934 78.0762-70.752 65.625-70.752C57.8125-70.752 52.2461-66.4551 48.7793-60.1562C45.3125-66.4551 39.7461-70.752 31.8848-70.752C19.4336-70.752 9.22852-60.6934 9.22852-45.9473C9.22852-29.3945 22.9004-13.0371 44.3359 0.78125C45.8496 1.80664 47.6074 2.73438 48.7793 2.73438ZM36.4746-30.8105C36.4746-31.25 36.6699-31.6895 37.0117-32.0801L52.4414-51.123C53.8574-52.8809 56.2012-51.6602 55.3711-49.5117L50.4883-36.4746L59.7168-36.4746C60.5957-36.4746 61.3281-35.791 61.3281-34.9609C61.3281-34.4727 61.1816-34.0332 60.791-33.6426L45.4102-14.5996C43.9941-12.8418 41.6016-14.1113 42.4316-16.2109L47.3633-29.2969L38.0859-29.2969C37.207-29.2969 36.4746-29.9316 36.4746-30.8105Z"/>
  </g>
  <g id="Medium-S" transform="matrix(1 0 0 1 1698.07 696)">
   <path d="M48.4863 2.29492C49.5117 2.29492 51.0742 1.51367 52.2949 0.683594C73.9746-13.1348 87.5488-29.4922 87.5488-45.9961C87.5488-60.3516 77.6367-70.2637 65.332-70.2637C57.5684-70.2637 52.002-66.0156 48.4863-59.668C45.0195-65.9668 39.4043-70.2637 31.6406-70.2637C19.2871-70.2637 9.42383-60.3516 9.42383-45.9961C9.42383-29.4922 22.998-13.1348 44.6289 0.683594C45.8984 1.51367 47.4609 2.29492 48.4863 2.29492ZM36.084-30.5664C36.084-31.0059 36.2305-31.4453 36.6211-31.7871L52.0996-51.123C53.4668-52.832 55.7129-51.6602 54.9316-49.5605L49.9512-36.2305L59.375-36.2305C60.2051-36.2305 60.9375-35.5469 60.9375-34.7656C60.9375-34.2773 60.7422-33.8379 60.3516-33.4961L44.873-14.209C43.5059-12.5 41.2109-13.6719 42.041-15.7715L47.0703-29.1016L37.5977-29.1016C36.7676-29.1016 36.084-29.7363 36.084-30.5664Z"/>
  </g>
  <g id="Regular-S" transform="matrix(1 0 0 1 1401.75 696)">
   <path d="M48.0957 1.70898C48.9746 1.70898 50.2441 1.12305 51.123 0.537109C73.0469-13.3301 86.5234-29.541 86.5234-46.0938C86.5234-59.8633 77.0508-69.6289 64.8926-69.6289C57.2266-69.6289 51.6602-65.4297 48.0957-59.082C44.5801-65.3809 38.9648-69.6289 31.2988-69.6289C19.1406-69.6289 9.66797-59.8633 9.66797-46.0938C9.66797-29.541 23.1445-13.3301 45.0684 0.537109C45.9473 1.12305 47.2656 1.70898 48.0957 1.70898ZM35.498-30.2734C35.498-30.6641 35.6934-31.0547 36.0352-31.4453L51.6602-51.0742C52.9785-52.7344 55.0781-51.6113 54.3457-49.6094L49.2188-35.8887L58.8867-35.8887C59.668-35.8887 60.3516-35.2539 60.3516-34.4727C60.3516-34.082 60.1562-33.6426 59.7656-33.3008L44.1895-13.6719C42.9199-12.0117 40.7227-13.1348 41.5039-15.1367L46.6309-28.8574L36.9629-28.8574C36.1816-28.8574 35.498-29.4922 35.498-30.2734Z"/>
  </g>
  <g id="Light-S" transform="matrix(1 0 0 1 1106.28 696)">
   <path d="M46.875 0.488281C47.6074 0.488281 48.6328 0.0488281 49.4141-0.439453C70.7031-14.1113 84.4727-29.9805 84.4727-46.0938C84.4727-59.375 75.3418-68.8477 63.4277-68.8477C56.1035-68.8477 50.2441-64.7461 46.875-58.4473C43.5059-64.6973 37.5977-68.8477 30.2734-68.8477C18.3594-68.8477 9.22852-59.375 9.22852-46.0938C9.22852-29.9805 22.998-14.1113 44.2871-0.439453C45.0684 0.0488281 46.0938 0.488281 46.875 0.488281ZM34.4727-30.127C34.4727-30.4688 34.6191-30.8105 34.9609-31.2012L50.8789-51.2207C52.002-52.6367 53.8574-51.6602 53.1738-49.9512L47.9004-35.791L57.7637-35.791C58.4473-35.791 59.0332-35.2539 59.0332-34.6191C59.0332-34.2285 58.8379-33.8867 58.4961-33.5449L42.627-13.5254C41.5039-12.1094 39.5996-13.0371 40.2832-14.7949L45.6055-28.9551L35.6934-28.9551C35.0098-28.9551 34.4727-29.4922 34.4727-30.127Z"/>
  </g>
  <g id="Thin-S" transform="matrix(1 0 0 1 811.207 696)">
   <path d="M45.2148-1.07422C45.8008-1.07422 46.582-1.36719 47.1191-1.75781C67.5781-15.1855 81.7871-30.4688 81.7871-46.0938C81.7871-58.7402 73.0469-67.7734 61.4746-67.7734C54.5898-67.7734 48.291-63.7695 45.2148-57.6172C42.1387-63.7695 35.8398-67.7734 28.9551-67.7734C17.3828-67.7734 8.64258-58.7402 8.64258-46.0938C8.64258-30.4688 22.8516-15.1855 43.3105-1.75781C43.8477-1.36719 44.6289-1.07422 45.2148-1.07422ZM33.1055-29.9316C33.1055-30.2246 33.2031-30.5176 33.4961-30.8594L49.8047-51.3672C50.7324-52.5391 52.1973-51.7578 51.6602-50.3418L46.1914-35.6445L56.2988-35.6445C56.8359-35.6445 57.2754-35.2539 57.2754-34.7656C57.2754-34.4727 57.1289-34.1797 56.8359-33.8379L40.5273-13.3301C39.5996-12.207 38.1348-12.9395 38.7207-14.3555L44.1895-29.1016L34.0332-29.1016C33.5449-29.1016 33.1055-29.4434 33.1055-29.9316Z"/>
  </g>
  <g id="Ultralight-S" transform="matrix(1 0 0 1 515.351 696)">
   <path d="M44.3848-1.85547C44.873-1.85547 45.5078-2.14844 45.9473-2.44141C65.9668-15.7227 80.3711-30.7617 80.3711-46.0938C80.3711-58.3984 71.875-67.2363 60.4492-67.2363C53.8086-67.2363 47.3145-63.2812 44.3848-57.1777C41.4062-63.2812 34.9121-67.2363 28.2715-67.2363C16.8457-67.2363 8.34961-58.3984 8.34961-46.0938C8.34961-30.7617 22.7539-15.7227 42.7734-2.44141C43.2617-2.14844 43.8477-1.85547 44.3848-1.85547ZM32.373-29.834C32.373-30.127 32.4707-30.3711 32.7637-30.7129L49.2676-51.4648C50.0488-52.4414 51.3184-51.8066 50.8789-50.5859L45.2637-35.5469L55.5664-35.5469C56.0059-35.5469 56.3477-35.2539 56.3477-34.8633C56.3477-34.5703 56.2012-34.3262 55.957-33.9844L39.4531-13.2324C38.6719-12.2559 37.4023-12.8906 37.8906-14.1113L43.457-29.1992L33.2031-29.1992C32.7637-29.1992 32.373-29.4434 32.373-29.834Z"/>
  </g>
 </g>
</svg>
