<?xml version="1.0" encoding="UTF-8"?>
<!--Generator: Apple Native CoreSVG 123-->
<!DOCTYPE svg
PUBLIC "-//W3C//DTD SVG 1.1//EN"
       "http://www.w3.org/Graphics/SVG/1.1/DTD/svg11.dtd">
<svg version="1.1" xmlns="http://www.w3.org/2000/svg" xmlns:xlink="http://www.w3.org/1999/xlink" width="3300" height="2200">
 <!--glyph: "uni1003B8.medium", point size: 100.000000, font version: "Version 15.0d7e11", template writer version: "5"-->
 <g id="Notes">
  <rect height="2200" id="artboard" style="fill:white;opacity:1" width="3300" x="0" y="0"/>
  <line id="" style="fill:none;stroke:black;opacity:1;stroke-width:0.5;" x1="263" x2="3036" y1="292" y2="292"/>
  <text style="stroke:none;fill:black;font-family:-apple-system,&quot;SF Pro Display&quot;,&quot;SF Pro Text&quot;,Helvetica,sans-serif;font-weight:bold;" transform="matrix(1 0 0 1 263 322)">Weight/Scale Variations</text>
  <text style="stroke:none;fill:black;font-family:-apple-system,&quot;SF Pro Display&quot;,&quot;SF Pro Text&quot;,Helvetica,sans-serif;text-anchor:middle;" transform="matrix(1 0 0 1 559.711 322)">Ultralight</text>
  <text style="stroke:none;fill:black;font-family:-apple-system,&quot;SF Pro Display&quot;,&quot;SF Pro Text&quot;,Helvetica,sans-serif;text-anchor:middle;" transform="matrix(1 0 0 1 856.422 322)">Thin</text>
  <text style="stroke:none;fill:black;font-family:-apple-system,&quot;SF Pro Display&quot;,&quot;SF Pro Text&quot;,Helvetica,sans-serif;text-anchor:middle;" transform="matrix(1 0 0 1 1153.13 322)">Light</text>
  <text style="stroke:none;fill:black;font-family:-apple-system,&quot;SF Pro Display&quot;,&quot;SF Pro Text&quot;,Helvetica,sans-serif;text-anchor:middle;" transform="matrix(1 0 0 1 1449.84 322)">Regular</text>
  <text style="stroke:none;fill:black;font-family:-apple-system,&quot;SF Pro Display&quot;,&quot;SF Pro Text&quot;,Helvetica,sans-serif;text-anchor:middle;" transform="matrix(1 0 0 1 1746.56 322)">Medium</text>
  <text style="stroke:none;fill:black;font-family:-apple-system,&quot;SF Pro Display&quot;,&quot;SF Pro Text&quot;,Helvetica,sans-serif;text-anchor:middle;" transform="matrix(1 0 0 1 2043.27 322)">Semibold</text>
  <text style="stroke:none;fill:black;font-family:-apple-system,&quot;SF Pro Display&quot;,&quot;SF Pro Text&quot;,Helvetica,sans-serif;text-anchor:middle;" transform="matrix(1 0 0 1 2339.98 322)">Bold</text>
  <text style="stroke:none;fill:black;font-family:-apple-system,&quot;SF Pro Display&quot;,&quot;SF Pro Text&quot;,Helvetica,sans-serif;text-anchor:middle;" transform="matrix(1 0 0 1 2636.69 322)">Heavy</text>
  <text style="stroke:none;fill:black;font-family:-apple-system,&quot;SF Pro Display&quot;,&quot;SF Pro Text&quot;,Helvetica,sans-serif;text-anchor:middle;" transform="matrix(1 0 0 1 2933.4 322)">Black</text>
  <line id="" style="fill:none;stroke:black;opacity:1;stroke-width:0.5;" x1="263" x2="3036" y1="1903" y2="1903"/>
  <g id="" transform="matrix(1 0 0 1 263 1933)">
   <path d="M 9.24805 0.830078 C 13.5547 0.830078 17.1387 -2.74414 17.1387 -7.05078 C 17.1387 -11.3574 13.5449 -14.9316 9.23828 -14.9316 C 4.94141 -14.9316 1.36719 -11.3574 1.36719 -7.05078 C 1.36719 -2.74414 4.95117 0.830078 9.24805 0.830078 Z M 9.24805 -0.654297 C 5.70312 -0.654297 2.87109 -3.49609 2.87109 -7.05078 C 2.87109 -10.6055 5.69336 -13.4473 9.23828 -13.4473 C 12.793 -13.4473 15.6348 -10.6055 15.6445 -7.05078 C 15.6543 -3.49609 12.8027 -0.654297 9.24805 -0.654297 Z M 9.22852 -3.42773 C 9.69727 -3.42773 9.9707 -3.74023 9.9707 -4.25781 L 9.9707 -6.31836 L 12.1973 -6.31836 C 12.6953 -6.31836 13.0371 -6.57227 13.0371 -7.04102 C 13.0371 -7.51953 12.7148 -7.7832 12.1973 -7.7832 L 9.9707 -7.7832 L 9.9707 -10.0098 C 9.9707 -10.5273 9.69727 -10.8496 9.22852 -10.8496 C 8.75977 -10.8496 8.50586 -10.5078 8.50586 -10.0098 L 8.50586 -7.7832 L 6.29883 -7.7832 C 5.78125 -7.7832 5.44922 -7.51953 5.44922 -7.04102 C 5.44922 -6.57227 5.80078 -6.31836 6.29883 -6.31836 L 8.50586 -6.31836 L 8.50586 -4.25781 C 8.50586 -3.75977 8.75977 -3.42773 9.22852 -3.42773 Z"/>
  </g>
  <g id="" transform="matrix(1 0 0 1 281.506 1933)">
   <path d="M 11.709 2.91016 C 17.1582 2.91016 21.6699 -1.60156 21.6699 -7.05078 C 21.6699 -12.4902 17.1484 -17.0117 11.6992 -17.0117 C 6.25977 -17.0117 1.74805 -12.4902 1.74805 -7.05078 C 1.74805 -1.60156 6.26953 2.91016 11.709 2.91016 Z M 11.709 1.25 C 7.09961 1.25 3.41797 -2.44141 3.41797 -7.05078 C 3.41797 -11.6504 7.08984 -15.3516 11.6992 -15.3516 C 16.3086 -15.3516 20 -11.6504 20.0098 -7.05078 C 20.0195 -2.44141 16.3184 1.25 11.709 1.25 Z M 11.6895 -2.41211 C 12.207 -2.41211 12.5195 -2.77344 12.5195 -3.33984 L 12.5195 -6.23047 L 15.5762 -6.23047 C 16.123 -6.23047 16.5039 -6.51367 16.5039 -7.03125 C 16.5039 -7.55859 16.1426 -7.86133 15.5762 -7.86133 L 12.5195 -7.86133 L 12.5195 -10.9277 C 12.5195 -11.5039 12.207 -11.8555 11.6895 -11.8555 C 11.1719 -11.8555 10.8789 -11.4844 10.8789 -10.9277 L 10.8789 -7.86133 L 7.83203 -7.86133 C 7.26562 -7.86133 6.89453 -7.55859 6.89453 -7.03125 C 6.89453 -6.51367 7.28516 -6.23047 7.83203 -6.23047 L 10.8789 -6.23047 L 10.8789 -3.33984 C 10.8789 -2.79297 11.1719 -2.41211 11.6895 -2.41211 Z"/>
  </g>
  <g id="" transform="matrix(1 0 0 1 304.924 1933)">
   <path d="M 14.9707 5.67383 C 21.9336 5.67383 27.6953 -0.078125 27.6953 -7.04102 C 27.6953 -14.0039 21.9238 -19.7559 14.9609 -19.7559 C 8.00781 -19.7559 2.25586 -14.0039 2.25586 -7.04102 C 2.25586 -0.078125 8.01758 5.67383 14.9707 5.67383 Z M 14.9707 3.85742 C 8.93555 3.85742 4.08203 -1.00586 4.08203 -7.04102 C 4.08203 -13.0762 8.92578 -17.9395 14.9609 -17.9395 C 21.0059 -17.9395 25.8594 -13.0762 25.8691 -7.04102 C 25.8789 -1.00586 21.0156 3.85742 14.9707 3.85742 Z M 14.9512 -1.06445 C 15.5176 -1.06445 15.8691 -1.45508 15.8691 -2.06055 L 15.8691 -6.13281 L 20.1074 -6.13281 C 20.6934 -6.13281 21.1133 -6.46484 21.1133 -7.02148 C 21.1133 -7.59766 20.7227 -7.93945 20.1074 -7.93945 L 15.8691 -7.93945 L 15.8691 -12.1875 C 15.8691 -12.8027 15.5176 -13.1934 14.9512 -13.1934 C 14.3848 -13.1934 14.0625 -12.7832 14.0625 -12.1875 L 14.0625 -7.93945 L 9.83398 -7.93945 C 9.21875 -7.93945 8.80859 -7.59766 8.80859 -7.02148 C 8.80859 -6.46484 9.23828 -6.13281 9.83398 -6.13281 L 14.0625 -6.13281 L 14.0625 -2.06055 C 14.0625 -1.47461 14.3848 -1.06445 14.9512 -1.06445 Z"/>
  </g>
  <text style="stroke:none;fill:black;font-family:-apple-system,&quot;SF Pro Display&quot;,&quot;SF Pro Text&quot;,Helvetica,sans-serif;font-weight:bold;" transform="matrix(1 0 0 1 263 1953)">Design Variations</text>
  <text style="stroke:none;fill:black;font-family:-apple-system,&quot;SF Pro Display&quot;,&quot;SF Pro Text&quot;,Helvetica,sans-serif;" transform="matrix(1 0 0 1 263 1971)">Symbols are supported in up to nine weights and three scales.</text>
  <text style="stroke:none;fill:black;font-family:-apple-system,&quot;SF Pro Display&quot;,&quot;SF Pro Text&quot;,Helvetica,sans-serif;" transform="matrix(1 0 0 1 263 1989)">For optimal layout with text and other symbols, vertically align</text>
  <text style="stroke:none;fill:black;font-family:-apple-system,&quot;SF Pro Display&quot;,&quot;SF Pro Text&quot;,Helvetica,sans-serif;" transform="matrix(1 0 0 1 263 2007)">symbols with the adjacent text.</text>
  <rect height="14" id="" style="fill:#00AEEF;stroke:none;opacity:0.4;" width="3" x="776" y="1919"/>
  <g id="" transform="matrix(1 0 0 1 779 1933)">
   <path d="M 10.5273 0 L 12.373 0 L 7.17773 -14.0918 L 5.43945 -14.0918 L 0.244141 0 L 2.08984 0 L 3.50586 -4.0332 L 9.11133 -4.0332 Z M 6.2793 -11.9531 L 6.33789 -11.9531 L 8.59375 -5.52734 L 4.02344 -5.52734 Z"/>
  </g>
  <rect height="14" id="" style="fill:#00AEEF;stroke:none;opacity:0.4;" width="3" x="791.617" y="1919"/>
  <text style="stroke:none;fill:black;font-family:-apple-system,&quot;SF Pro Display&quot;,&quot;SF Pro Text&quot;,Helvetica,sans-serif;font-weight:bold;" transform="matrix(1 0 0 1 776 1953)">Margins</text>
  <text style="stroke:none;fill:black;font-family:-apple-system,&quot;SF Pro Display&quot;,&quot;SF Pro Text&quot;,Helvetica,sans-serif;" transform="matrix(1 0 0 1 776 1971)">Leading and trailing margins on the left and right side of each symbol</text>
  <text style="stroke:none;fill:black;font-family:-apple-system,&quot;SF Pro Display&quot;,&quot;SF Pro Text&quot;,Helvetica,sans-serif;" transform="matrix(1 0 0 1 776 1989)">can be adjusted by modifying the width of the blue rectangles.</text>
  <text style="stroke:none;fill:black;font-family:-apple-system,&quot;SF Pro Display&quot;,&quot;SF Pro Text&quot;,Helvetica,sans-serif;" transform="matrix(1 0 0 1 776 2007)">Modifications are automatically applied proportionally to all</text>
  <text style="stroke:none;fill:black;font-family:-apple-system,&quot;SF Pro Display&quot;,&quot;SF Pro Text&quot;,Helvetica,sans-serif;" transform="matrix(1 0 0 1 776 2025)">scales and weights.</text>
  <g id="" transform="matrix(1 0 0 1 1289 1933)">
   <path d="M 2.83203 3.11523 L 4.375 4.6582 C 5.22461 5.48828 6.19141 5.41992 7.06055 4.46289 L 17.2754 -6.66016 C 17.7051 -6.36719 18.0957 -6.37695 18.5645 -6.47461 L 19.6094 -6.68945 L 20.3027 -5.99609 L 20.2539 -5.47852 C 20.1855 -4.95117 20.3516 -4.53125 20.8496 -4.0332 L 21.6602 -3.22266 C 22.168 -2.71484 22.8223 -2.68555 23.3008 -3.16406 L 26.5527 -6.41602 C 27.0312 -6.89453 27.0117 -7.54883 26.5039 -8.05664 L 25.6836 -8.87695 C 25.1855 -9.375 24.7754 -9.55078 24.2383 -9.47266 L 23.7109 -9.41406 L 23.0566 -10.0781 L 23.3398 -11.2207 C 23.4863 -11.7871 23.3398 -12.2559 22.7148 -12.8613 L 20.3027 -15.2539 C 16.7578 -18.7793 12.2266 -18.6719 9.11133 -15.5371 C 8.69141 -15.1074 8.64258 -14.5215 8.91602 -14.0918 C 9.15039 -13.7207 9.62891 -13.4961 10.2734 -13.6621 C 11.7871 -14.043 13.3008 -13.9258 14.7852 -12.9199 L 14.1602 -11.3379 C 13.9258 -10.752 13.9453 -10.2734 14.1797 -9.83398 L 3.01758 0.439453 C 2.08008 1.30859 1.97266 2.25586 2.83203 3.11523 Z M 10.6738 -15.1465 C 13.3398 -17.1387 16.6504 -16.8262 19.0527 -14.4141 L 21.6797 -11.8066 C 21.9141 -11.5723 21.9434 -11.3867 21.8848 -11.0938 L 21.5039 -9.53125 L 23.0762 -7.95898 L 24.043 -8.04688 C 24.3262 -8.07617 24.4141 -8.05664 24.6387 -7.83203 L 25.2637 -7.20703 L 22.5098 -4.46289 L 21.8848 -5.07812 C 21.6602 -5.30273 21.6406 -5.40039 21.6699 -5.68359 L 21.7578 -6.64062 L 20.1953 -8.20312 L 18.5742 -7.89062 C 18.291 -7.83203 18.1445 -7.83203 17.9102 -8.07617 L 15.7324 -10.2539 C 15.5078 -10.4883 15.4785 -10.625 15.6055 -10.9473 L 16.5527 -13.2227 C 14.9512 -14.7559 12.8418 -15.6055 10.8008 -14.9512 C 10.7129 -14.9219 10.6445 -14.9414 10.6152 -14.9805 C 10.5859 -15.0293 10.5859 -15.0781 10.6738 -15.1465 Z M 4.10156 2.41211 C 3.61328 1.91406 3.78906 1.61133 4.12109 1.30859 L 15.0781 -8.80859 L 16.3086 -7.57812 L 6.15234 3.34961 C 5.84961 3.68164 5.46875 3.7793 5.06836 3.37891 Z"/>
  </g>
  <text style="stroke:none;fill:black;font-family:-apple-system,&quot;SF Pro Display&quot;,&quot;SF Pro Text&quot;,Helvetica,sans-serif;font-weight:bold;" transform="matrix(1 0 0 1 1289 1953)">Exporting</text>
  <text style="stroke:none;fill:black;font-family:-apple-system,&quot;SF Pro Display&quot;,&quot;SF Pro Text&quot;,Helvetica,sans-serif;" transform="matrix(1 0 0 1 1289 1971)">Symbols should be outlined when exporting to ensure the</text>
  <text style="stroke:none;fill:black;font-family:-apple-system,&quot;SF Pro Display&quot;,&quot;SF Pro Text&quot;,Helvetica,sans-serif;" transform="matrix(1 0 0 1 1289 1989)">design is preserved when submitting to Xcode.</text>
  <text id="template-version" style="stroke:none;fill:black;font-family:-apple-system,&quot;SF Pro Display&quot;,&quot;SF Pro Text&quot;,Helvetica,sans-serif;text-anchor:end;" transform="matrix(1 0 0 1 3036 1933)">Template v.1.0</text>
  <text style="stroke:none;fill:black;font-family:-apple-system,&quot;SF Pro Display&quot;,&quot;SF Pro Text&quot;,Helvetica,sans-serif;text-anchor:end;" transform="matrix(1 0 0 1 3036 1951)">Generated from smiley</text>
  <text style="stroke:none;fill:black;font-family:-apple-system,&quot;SF Pro Display&quot;,&quot;SF Pro Text&quot;,Helvetica,sans-serif;text-anchor:end;" transform="matrix(1 0 0 1 3036 1969)">Typeset at 100 points</text>
  <text style="stroke:none;fill:black;font-family:-apple-system,&quot;SF Pro Display&quot;,&quot;SF Pro Text&quot;,Helvetica,sans-serif;" transform="matrix(1 0 0 1 263 726)">Small</text>
  <text style="stroke:none;fill:black;font-family:-apple-system,&quot;SF Pro Display&quot;,&quot;SF Pro Text&quot;,Helvetica,sans-serif;" transform="matrix(1 0 0 1 263 1156)">Medium</text>
  <text style="stroke:none;fill:black;font-family:-apple-system,&quot;SF Pro Display&quot;,&quot;SF Pro Text&quot;,Helvetica,sans-serif;" transform="matrix(1 0 0 1 263 1586)">Large</text>
 </g>
 <g id="Guides">
  <g id="H-reference" style="fill:#27AAE1;stroke:none;" transform="matrix(1 0 0 1 339 696)">
   <path d="M 54.9316 0 L 57.666 0 L 30.5664 -70.459 L 28.0762 -70.459 L 0.976562 0 L 3.66211 0 L 12.9395 -24.4629 L 45.7031 -24.4629 Z M 29.1992 -67.0898 L 29.4434 -67.0898 L 44.8242 -26.709 L 13.8184 -26.709 Z"/>
  </g>
  <line id="Baseline-S" style="fill:none;stroke:#27AAE1;opacity:1;stroke-width:0.577;" x1="263" x2="3036" y1="696" y2="696"/>
  <line id="Capline-S" style="fill:none;stroke:#27AAE1;opacity:1;stroke-width:0.577;" x1="263" x2="3036" y1="625.541" y2="625.541"/>
  <g id="H-reference" style="fill:#27AAE1;stroke:none;" transform="matrix(1 0 0 1 339 1126)">
   <path d="M 54.9316 0 L 57.666 0 L 30.5664 -70.459 L 28.0762 -70.459 L 0.976562 0 L 3.66211 0 L 12.9395 -24.4629 L 45.7031 -24.4629 Z M 29.1992 -67.0898 L 29.4434 -67.0898 L 44.8242 -26.709 L 13.8184 -26.709 Z"/>
  </g>
  <line id="Baseline-M" style="fill:none;stroke:#27AAE1;opacity:1;stroke-width:0.577;" x1="263" x2="3036" y1="1126" y2="1126"/>
  <line id="Capline-M" style="fill:none;stroke:#27AAE1;opacity:1;stroke-width:0.577;" x1="263" x2="3036" y1="1055.54" y2="1055.54"/>
  <g id="H-reference" style="fill:#27AAE1;stroke:none;" transform="matrix(1 0 0 1 339 1556)">
   <path d="M 54.9316 0 L 57.666 0 L 30.5664 -70.459 L 28.0762 -70.459 L 0.976562 0 L 3.66211 0 L 12.9395 -24.4629 L 45.7031 -24.4629 Z M 29.1992 -67.0898 L 29.4434 -67.0898 L 44.8242 -26.709 L 13.8184 -26.709 Z"/>
  </g>
  <line id="Baseline-L" style="fill:none;stroke:#27AAE1;opacity:1;stroke-width:0.577;" x1="263" x2="3036" y1="1556" y2="1556"/>
  <line id="Capline-L" style="fill:none;stroke:#27AAE1;opacity:1;stroke-width:0.577;" x1="263" x2="3036" y1="1485.54" y2="1485.54"/>
  <rect height="119.336" id="left-margin" style="fill:#00AEEF;stroke:none;opacity:0.4;" width="8.74023" x="1391.3" y="1030.79"/>
  <rect height="119.336" id="right-margin" style="fill:#00AEEF;stroke:none;opacity:0.4;" width="8.74023" x="1499.65" y="1030.79"/>
 </g>
 <g id="Symbols">
  <g id="Black-L" transform="matrix(1 0 0 1 2854.05 1556)">
   <path d="M 79.3457 32.8613 C 116.748 32.8613 147.412 2.19727 147.412 -35.2051 C 147.412 -72.6074 116.748 -103.271 79.2969 -103.271 C 41.8945 -103.271 11.2793 -72.6074 11.2793 -35.2051 C 11.2793 2.19727 41.9434 32.8613 79.3457 32.8613 Z M 79.3457 12.4023 C 52.9785 12.4023 31.7383 -8.83789 31.7383 -35.2051 C 31.7383 -61.5723 52.9297 -82.8125 79.2969 -82.8125 C 105.664 -82.8125 126.953 -61.5723 126.953 -35.2051 C 127.002 -8.83789 105.713 12.4023 79.3457 12.4023 Z M 62.8906 -40.6738 C 66.3574 -40.6738 69.2871 -43.7012 69.2871 -47.998 C 69.2871 -52.2949 66.3574 -55.3223 62.8906 -55.3223 C 59.4238 -55.3223 56.5918 -52.2949 56.5918 -47.998 C 56.5918 -43.7012 59.4238 -40.6738 62.8906 -40.6738 Z M 95.8008 -40.6738 C 99.2676 -40.6738 102.295 -43.7012 102.295 -47.998 C 102.295 -52.2949 99.2676 -55.3223 95.8008 -55.3223 C 92.3828 -55.3223 89.502 -52.2949 89.502 -47.998 C 89.502 -43.7012 92.3828 -40.6738 95.8008 -40.6738 Z M 79.3457 -8.88672 C 91.5527 -8.88672 100.488 -17.4805 100.488 -21.9727 C 100.488 -22.8516 99.9023 -23.2422 99.1699 -22.7051 C 95.2148 -19.6289 87.7441 -16.6992 79.3457 -16.6992 C 70.9473 -16.6992 63.3789 -19.6777 59.5215 -22.7051 C 58.7891 -23.2422 58.2031 -22.8516 58.2031 -21.9727 C 58.2031 -17.4805 67.1387 -8.88672 79.3457 -8.88672 Z"/>
  </g>
  <g id="Heavy-L" transform="matrix(1 0 0 1 2558.39 1556)">
   <path d="M 78.2715 31.7871 C 115.088 31.7871 145.312 1.61133 145.312 -35.2051 C 145.312 -72.0215 115.039 -102.197 78.2715 -102.197 C 41.4551 -102.197 11.2793 -72.0215 11.2793 -35.2051 C 11.2793 1.61133 41.5039 31.7871 78.2715 31.7871 Z M 78.2715 14.0137 C 51.0254 14.0137 29.0527 -7.95898 29.0527 -35.2051 C 29.0527 -62.5 50.9766 -84.4727 78.2715 -84.4727 C 105.518 -84.4727 127.49 -62.5 127.539 -35.2051 C 127.539 -7.95898 105.566 14.0137 78.2715 14.0137 Z M 61.377 -40.8203 C 64.8926 -40.8203 67.8223 -43.8477 67.8223 -48.1934 C 67.8223 -52.5391 64.8926 -55.5664 61.377 -55.5664 C 57.9102 -55.5664 55.0293 -52.5391 55.0293 -48.1934 C 55.0293 -43.8477 57.9102 -40.8203 61.377 -40.8203 Z M 95.2148 -40.8203 C 98.7305 -40.8203 101.709 -43.8477 101.709 -48.1934 C 101.709 -52.5391 98.7305 -55.5664 95.2148 -55.5664 C 91.748 -55.5664 88.8672 -52.5391 88.8672 -48.1934 C 88.8672 -43.8477 91.748 -40.8203 95.2148 -40.8203 Z M 78.2715 -7.95898 C 91.0156 -7.95898 100.049 -16.9434 100.049 -21.3379 C 100.049 -22.168 99.4141 -22.6074 98.7305 -22.0215 C 94.6777 -18.7988 87.207 -15.7227 78.2715 -15.7227 C 69.3359 -15.7227 61.7676 -18.8965 57.8125 -22.0215 C 57.1289 -22.5586 56.543 -22.168 56.543 -21.3379 C 56.543 -16.9434 65.5273 -7.95898 78.2715 -7.95898 Z"/>
  </g>
  <g id="Bold-L" transform="matrix(1 0 0 1 2262.88 1556)">
   <path d="M 77.0996 30.6152 C 113.232 30.6152 142.92 0.878906 142.92 -35.2051 C 142.92 -71.3379 113.184 -101.025 77.0508 -101.025 C 40.9668 -101.025 11.2793 -71.3379 11.2793 -35.2051 C 11.2793 0.878906 41.0156 30.6152 77.0996 30.6152 Z M 77.0996 15.8691 C 48.8281 15.8691 26.0742 -6.93359 26.0742 -35.2051 C 26.0742 -63.4766 48.7793 -86.2793 77.0508 -86.2793 C 105.371 -86.2793 128.125 -63.4766 128.174 -35.2051 C 128.174 -6.93359 105.371 15.8691 77.0996 15.8691 Z M 59.7168 -40.9668 C 63.2324 -40.9668 66.2109 -44.043 66.2109 -48.4375 C 66.2109 -52.7832 63.2324 -55.8594 59.7168 -55.8594 C 56.2012 -55.8594 53.3203 -52.7832 53.3203 -48.4375 C 53.3203 -44.043 56.2012 -40.9668 59.7168 -40.9668 Z M 94.5801 -40.9668 C 98.0957 -40.9668 101.074 -44.043 101.074 -48.4375 C 101.074 -52.7832 98.0957 -55.8594 94.5801 -55.8594 C 91.0645 -55.8594 88.1836 -52.7832 88.1836 -48.4375 C 88.1836 -44.043 91.0645 -40.9668 94.5801 -40.9668 Z M 77.0996 -6.93359 C 90.4297 -6.93359 99.5605 -16.3574 99.5605 -20.6055 C 99.5605 -21.4355 98.9258 -21.8262 98.291 -21.2891 C 94.1406 -17.8711 86.6211 -14.5996 77.0996 -14.5996 C 67.5781 -14.5996 59.9609 -17.9688 55.9082 -21.2891 C 55.2734 -21.7773 54.6875 -21.4355 54.6875 -20.6055 C 54.6875 -16.3574 63.7695 -6.93359 77.0996 -6.93359 Z"/>
  </g>
  <g id="Semibold-L" transform="matrix(1 0 0 1 1966.97 1556)">
   <path d="M 76.2695 29.7852 C 111.914 29.7852 141.309 0.439453 141.309 -35.2051 C 141.309 -70.8496 111.865 -100.244 76.2695 -100.244 C 40.625 -100.244 11.2793 -70.8496 11.2793 -35.2051 C 11.2793 0.439453 40.6738 29.7852 76.2695 29.7852 Z M 76.2695 17.0898 C 47.3145 17.0898 24.0234 -6.25 24.0234 -35.2051 C 24.0234 -64.209 47.2656 -87.5 76.2695 -87.5 C 105.225 -87.5 128.564 -64.209 128.613 -35.2051 C 128.662 -6.25 105.273 17.0898 76.2695 17.0898 Z M 58.5449 -41.0645 C 62.1094 -41.0645 65.0391 -44.1895 65.0391 -48.584 C 65.0391 -52.9785 62.1094 -56.1035 58.5449 -56.1035 C 55.0293 -56.1035 52.1484 -52.9785 52.1484 -48.584 C 52.1484 -44.1895 55.0293 -41.0645 58.5449 -41.0645 Z M 94.1406 -41.0645 C 97.6562 -41.0645 100.635 -44.1895 100.635 -48.584 C 100.635 -52.9785 97.6562 -56.1035 94.1406 -56.1035 C 90.625 -56.1035 87.7441 -52.9785 87.7441 -48.584 C 87.7441 -44.1895 90.625 -41.0645 94.1406 -41.0645 Z M 76.2695 -6.20117 C 90.0391 -6.20117 99.2188 -15.9668 99.2188 -20.1172 C 99.2188 -20.9473 98.584 -21.2891 97.998 -20.8008 C 93.75 -17.2363 86.2305 -13.8184 76.2695 -13.8184 C 66.3574 -13.8184 58.7402 -17.334 54.5898 -20.752 C 53.9551 -21.2891 53.3691 -20.9473 53.3691 -20.1172 C 53.3691 -15.9668 62.5488 -6.20117 76.2695 -6.20117 Z"/>
  </g>
  <g id="Medium-L" transform="matrix(1 0 0 1 1670.87 1556)">
   <path d="M 75.6836 29.1992 C 110.938 29.1992 140.088 0.0488281 140.088 -35.2051 C 140.088 -70.459 110.889 -99.6094 75.6348 -99.6094 C 40.3809 -99.6094 11.2793 -70.459 11.2793 -35.2051 C 11.2793 0.0488281 40.3809 29.1992 75.6836 29.1992 Z M 75.6836 18.0664 C 46.1426 18.0664 22.4609 -5.71289 22.4609 -35.2051 C 22.4609 -64.6973 46.1426 -88.4766 75.6348 -88.4766 C 105.127 -88.4766 128.906 -64.6973 128.906 -35.2051 C 128.955 -5.71289 105.176 18.0664 75.6836 18.0664 Z M 57.7148 -41.1621 C 61.2305 -41.1621 64.209 -44.2871 64.209 -48.6816 C 64.209 -53.125 61.2305 -56.25 57.7148 -56.25 C 54.1504 -56.25 51.2695 -53.125 51.2695 -48.6816 C 51.2695 -44.2871 54.1504 -41.1621 57.7148 -41.1621 Z M 93.7988 -41.1621 C 97.3633 -41.1621 100.342 -44.2871 100.342 -48.6816 C 100.342 -53.125 97.3633 -56.25 93.7988 -56.25 C 90.2832 -56.25 87.3535 -53.125 87.3535 -48.6816 C 87.3535 -44.2871 90.2832 -41.1621 93.7988 -41.1621 Z M 75.6836 -5.66406 C 89.7461 -5.66406 98.9258 -15.6738 98.9258 -19.7754 C 98.9258 -20.5566 98.3398 -20.8984 97.7539 -20.4102 C 93.4082 -16.748 85.8887 -13.2324 75.6836 -13.2324 C 65.4297 -13.2324 57.8125 -16.8945 53.6133 -20.3613 C 52.9785 -20.8496 52.3926 -20.5566 52.3926 -19.7754 C 52.3926 -15.6738 61.6211 -5.66406 75.6836 -5.66406 Z"/>
  </g>
  <g id="Regular-L" transform="matrix(1 0 0 1 1374.97 1556)">
   <path d="M 74.8535 28.3691 C 109.668 28.3691 138.477 -0.390625 138.477 -35.2051 C 138.477 -70.0195 109.619 -98.7793 74.8047 -98.7793 C 40.0391 -98.7793 11.2793 -70.0195 11.2793 -35.2051 C 11.2793 -0.390625 40.0879 28.3691 74.8535 28.3691 Z M 74.8535 19.2871 C 44.6777 19.2871 20.4102 -5.0293 20.4102 -35.2051 C 20.4102 -65.3809 44.6289 -89.6973 74.8047 -89.6973 C 105.029 -89.6973 129.297 -65.3809 129.346 -35.2051 C 129.395 -5.0293 105.078 19.2871 74.8535 19.2871 Z M 56.543 -41.2598 C 60.1562 -41.2598 63.0859 -44.4336 63.0859 -48.877 C 63.0859 -53.2715 60.1562 -56.4453 56.543 -56.4453 C 52.9785 -56.4453 50.0977 -53.2715 50.0977 -48.877 C 50.0977 -44.4336 52.9785 -41.2598 56.543 -41.2598 Z M 93.3594 -41.2598 C 96.9238 -41.2598 99.9023 -44.4336 99.9023 -48.877 C 99.9023 -53.2715 96.9238 -56.4453 93.3594 -56.4453 C 89.7949 -56.4453 86.9141 -53.2715 86.9141 -48.877 C 86.9141 -44.4336 89.7949 -41.2598 93.3594 -41.2598 Z M 74.8535 -4.98047 C 89.3555 -4.98047 98.6328 -15.2344 98.6328 -19.2871 C 98.6328 -20.0195 97.998 -20.4102 97.4121 -19.9219 C 93.0176 -16.1133 85.498 -12.5 74.8535 -12.5 C 64.2578 -12.5 56.543 -16.2598 52.2949 -19.873 C 51.709 -20.3613 51.123 -20.0195 51.123 -19.2871 C 51.123 -15.2344 60.4004 -4.98047 74.8535 -4.98047 Z"/>
  </g>
  <g id="Light-L" transform="matrix(1 0 0 1 1079.18 1556)">
   <path d="M 73.9258 27.4902 C 108.301 27.4902 136.621 -0.830078 136.621 -35.1562 C 136.621 -69.5312 108.252 -97.8516 73.9258 -97.8516 C 39.5508 -97.8516 11.2793 -69.5312 11.2793 -35.1562 C 11.2793 -0.830078 39.5996 27.4902 73.9258 27.4902 Z M 73.9258 20.6055 C 43.1152 20.6055 18.2129 -4.3457 18.2129 -35.1562 C 18.2129 -66.0156 43.0664 -90.918 73.9258 -90.918 C 104.736 -90.918 129.688 -66.0156 129.736 -35.1562 C 129.736 -4.3457 104.785 20.6055 73.9258 20.6055 Z M 55.5664 -41.6504 C 58.9844 -41.6504 61.7676 -44.6777 61.7676 -48.877 C 61.7676 -53.0273 58.9844 -56.0547 55.5664 -56.0547 C 52.2461 -56.0547 49.5117 -53.0273 49.5117 -48.877 C 49.5117 -44.6777 52.2461 -41.6504 55.5664 -41.6504 Z M 92.3828 -41.6504 C 95.8008 -41.6504 98.5352 -44.6777 98.5352 -48.877 C 98.5352 -53.0273 95.8008 -56.0547 92.3828 -56.0547 C 89.0137 -56.0547 86.2793 -53.0273 86.2793 -48.877 C 86.2793 -44.6777 89.0137 -41.6504 92.3828 -41.6504 Z M 73.9258 -5.07812 C 87.4512 -5.07812 96.3379 -14.6973 96.3379 -18.6035 C 96.3379 -19.2871 95.752 -19.6289 95.2637 -19.1895 C 91.1621 -15.332 83.8867 -11.9629 73.9258 -11.9629 C 63.9648 -11.9629 56.6895 -15.4785 52.5879 -19.1406 C 52.0996 -19.5312 51.5137 -19.2871 51.5137 -18.6035 C 51.5137 -14.6973 60.4492 -5.07812 73.9258 -5.07812 Z"/>
  </g>
  <g id="Thin-L" transform="matrix(1 0 0 1 783.693 1556)">
   <path d="M 72.7051 26.3184 C 106.494 26.3184 134.18 -1.36719 134.18 -35.1074 C 134.18 -68.8965 106.494 -96.582 72.7051 -96.582 C 38.9648 -96.582 11.2793 -68.8965 11.2793 -35.1074 C 11.2793 -1.36719 38.9648 26.3184 72.7051 26.3184 Z M 72.7051 22.3145 C 41.0156 22.3145 15.2832 -3.41797 15.2832 -35.1074 C 15.2832 -66.8457 41.0156 -92.5781 72.7051 -92.5781 C 104.395 -92.5781 130.176 -66.8457 130.176 -35.1074 C 130.176 -3.41797 104.443 22.3145 72.7051 22.3145 Z M 54.2969 -42.1387 C 57.5195 -42.1387 60.0098 -45.0195 60.0098 -48.877 C 60.0098 -52.7344 57.5195 -55.5664 54.2969 -55.5664 C 51.2207 -55.5664 48.7305 -52.7344 48.7305 -48.877 C 48.7305 -45.0195 51.2207 -42.1387 54.2969 -42.1387 Z M 91.0645 -42.1387 C 94.2871 -42.1387 96.7773 -45.0195 96.7773 -48.877 C 96.7773 -52.7344 94.2871 -55.5664 91.0645 -55.5664 C 87.9395 -55.5664 85.498 -52.7344 85.498 -48.877 C 85.498 -45.0195 87.9395 -42.1387 91.0645 -42.1387 Z M 72.7051 -5.22461 C 84.9121 -5.22461 93.3594 -13.916 93.3594 -17.7246 C 93.3594 -18.3105 92.8223 -18.6523 92.4316 -18.2129 C 88.6719 -14.3555 81.7871 -11.3281 72.7051 -11.3281 C 63.623 -11.3281 56.8848 -14.4531 52.9785 -18.1641 C 52.5879 -18.5059 52.0508 -18.3105 52.0508 -17.7246 C 52.0508 -13.916 60.5469 -5.22461 72.7051 -5.22461 Z"/>
  </g>
  <g id="Ultralight-L" transform="matrix(1 0 0 1 487.616 1556)">
   <path d="M 72.1191 25.7324 C 105.566 25.7324 132.91 -1.61133 132.91 -35.1074 C 132.91 -68.5547 105.566 -95.8984 72.1191 -95.8984 C 38.623 -95.8984 11.2793 -68.5547 11.2793 -35.1074 C 11.2793 -1.61133 38.623 25.7324 72.1191 25.7324 Z M 72.1191 23.2422 C 39.9414 23.2422 13.7695 -2.97852 13.7695 -35.1074 C 13.7695 -67.2363 39.9414 -93.4082 72.1191 -93.4082 C 104.248 -93.4082 130.42 -67.2363 130.42 -35.1074 C 130.42 -2.97852 104.248 23.2422 72.1191 23.2422 Z M 53.6621 -42.3828 C 56.7383 -42.3828 59.082 -45.166 59.082 -48.877 C 59.082 -52.5391 56.7383 -55.3223 53.6621 -55.3223 C 50.6836 -55.3223 48.3398 -52.5391 48.3398 -48.877 C 48.3398 -45.166 50.6836 -42.3828 53.6621 -42.3828 Z M 90.4297 -42.3828 C 93.5059 -42.3828 95.8496 -45.166 95.8496 -48.877 C 95.8496 -52.5391 93.5059 -55.3223 90.4297 -55.3223 C 87.4023 -55.3223 85.0586 -52.5391 85.0586 -48.877 C 85.0586 -45.166 87.4023 -42.3828 90.4297 -42.3828 Z M 72.1191 -5.32227 C 83.5938 -5.32227 91.8457 -13.5254 91.8457 -17.2852 C 91.8457 -17.8223 91.3086 -18.1152 91.0156 -17.7246 C 87.4023 -13.8672 80.7129 -10.9863 72.1191 -10.9863 C 63.4766 -10.9863 56.9824 -13.9648 53.1738 -17.6758 C 52.832 -17.9688 52.3438 -17.8223 52.3438 -17.2852 C 52.3438 -13.5254 60.5957 -5.32227 72.1191 -5.32227 Z"/>
  </g>
  <g id="Black-M" transform="matrix(1 0 0 1 2870.97 1126)">
   <path d="M 62.4023 18.457 C 91.9922 18.457 116.113 -5.61523 116.113 -35.2051 C 116.113 -64.7949 91.9922 -88.8672 62.4023 -88.8672 C 32.8125 -88.8672 8.74023 -64.7949 8.74023 -35.2051 C 8.74023 -5.61523 32.8125 18.457 62.4023 18.457 Z M 62.4023 0.195312 C 42.8711 0.195312 27.002 -15.625 27.002 -35.2051 C 27.002 -54.7363 42.8711 -70.6055 62.4023 -70.6055 C 81.9824 -70.6055 97.8027 -54.7363 97.8027 -35.2051 C 97.8027 -15.625 81.9824 0.195312 62.4023 0.195312 Z M 50.2441 -39.4531 C 52.7832 -39.4531 54.9805 -41.6504 54.9805 -44.8242 C 54.9805 -47.998 52.7832 -50.2441 50.2441 -50.2441 C 47.7051 -50.2441 45.6055 -47.998 45.6055 -44.8242 C 45.6055 -41.6504 47.7051 -39.4531 50.2441 -39.4531 Z M 74.5117 -39.4531 C 77.0508 -39.4531 79.2969 -41.6504 79.2969 -44.8242 C 79.2969 -47.998 77.0508 -50.2441 74.5117 -50.2441 C 71.9727 -50.2441 69.873 -47.998 69.873 -44.8242 C 69.873 -41.6504 71.9727 -39.4531 74.5117 -39.4531 Z M 62.4023 -16.1133 C 70.6055 -16.1133 77.2461 -21.875 77.2461 -25.4395 C 77.2461 -26.123 76.8066 -26.4648 76.2695 -26.0254 C 73.4863 -23.8281 67.8711 -21.9727 62.4023 -21.9727 C 56.9336 -21.9727 51.3672 -23.8281 48.584 -26.0254 C 47.998 -26.4648 47.6074 -26.123 47.6074 -25.4395 C 47.6074 -21.875 54.248 -16.1133 62.4023 -16.1133 Z"/>
  </g>
  <g id="Heavy-M" transform="matrix(1 0 0 1 2575.19 1126)">
   <path d="M 61.5234 17.5781 C 90.5273 17.5781 114.258 -6.15234 114.258 -35.2051 C 114.258 -64.2578 90.5273 -87.9883 61.4746 -87.9883 C 32.4707 -87.9883 8.74023 -64.2578 8.74023 -35.2051 C 8.74023 -6.15234 32.4707 17.5781 61.5234 17.5781 Z M 61.5234 1.66016 C 41.1133 1.66016 24.6582 -14.8438 24.6582 -35.2051 C 24.6582 -55.5664 41.1133 -72.0703 61.4746 -72.0703 C 81.8848 -72.0703 98.3398 -55.5664 98.3398 -35.2051 C 98.3398 -14.8438 81.8848 1.66016 61.5234 1.66016 Z M 48.877 -39.502 C 51.4648 -39.502 53.7109 -41.7969 53.7109 -45.0684 C 53.7109 -48.3398 51.4648 -50.6348 48.877 -50.6348 C 46.2402 -50.6348 44.0918 -48.3398 44.0918 -45.0684 C 44.0918 -41.7969 46.2402 -39.502 48.877 -39.502 Z M 74.1211 -39.502 C 76.7578 -39.502 79.0527 -41.7969 79.0527 -45.0684 C 79.0527 -48.3398 76.7578 -50.6348 74.1211 -50.6348 C 71.5332 -50.6348 69.3359 -48.3398 69.3359 -45.0684 C 69.3359 -41.7969 71.5332 -39.502 74.1211 -39.502 Z M 61.5234 -15.0879 C 70.5566 -15.0879 77.3438 -21.4844 77.3438 -24.9512 C 77.3438 -25.5859 76.9043 -25.9277 76.3672 -25.4883 C 73.3887 -23.1445 67.7246 -20.9961 61.5234 -20.9961 C 55.3223 -20.9961 49.5605 -23.1934 46.6309 -25.4883 C 46.0938 -25.9277 45.6543 -25.5859 45.6543 -24.9512 C 45.6543 -21.4844 52.4414 -15.0879 61.5234 -15.0879 Z"/>
  </g>
  <g id="Bold-M" transform="matrix(1 0 0 1 2279.5 1126)">
   <path d="M 60.498 16.5039 C 88.8672 16.5039 112.207 -6.78711 112.207 -35.2051 C 112.207 -63.623 88.8672 -86.9629 60.4492 -86.9629 C 32.0312 -86.9629 8.74023 -63.623 8.74023 -35.2051 C 8.74023 -6.78711 32.0801 16.5039 60.498 16.5039 Z M 60.498 3.22266 C 39.1602 3.22266 22.0703 -13.916 22.0703 -35.2051 C 22.0703 -56.4941 39.1602 -73.6816 60.4492 -73.6816 C 81.7383 -73.6816 98.9258 -56.4941 98.9258 -35.2051 C 98.9746 -13.916 81.7871 3.22266 60.498 3.22266 Z M 47.3145 -39.5508 C 50 -39.5508 52.2949 -41.9434 52.2949 -45.3125 C 52.2949 -48.6816 50 -51.0742 47.3145 -51.0742 C 44.6289 -51.0742 42.3828 -48.6816 42.3828 -45.3125 C 42.3828 -41.9434 44.6289 -39.5508 47.3145 -39.5508 Z M 73.7305 -39.5508 C 76.416 -39.5508 78.7598 -41.9434 78.7598 -45.3125 C 78.7598 -48.6816 76.416 -51.0742 73.7305 -51.0742 C 70.9961 -51.0742 68.75 -48.6816 68.75 -45.3125 C 68.75 -41.9434 70.9961 -39.5508 73.7305 -39.5508 Z M 60.498 -13.916 C 70.459 -13.916 77.4902 -20.9961 77.4902 -24.3652 C 77.4902 -25 77.002 -25.293 76.4648 -24.9023 C 73.3398 -22.3145 67.5293 -19.9219 60.498 -19.9219 C 53.4668 -19.9219 47.5586 -22.4121 44.4824 -24.9023 C 43.9453 -25.293 43.5059 -25 43.5059 -24.3652 C 43.5059 -20.9961 50.4883 -13.916 60.498 -13.916 Z"/>
  </g>
  <g id="Semibold-M" transform="matrix(1 0 0 1 1983.5 1126)">
   <path d="M 59.7656 15.8203 C 87.7441 15.8203 110.791 -7.22656 110.791 -35.2051 C 110.791 -63.1836 87.6953 -86.2793 59.7656 -86.2793 C 31.7871 -86.2793 8.74023 -63.1836 8.74023 -35.2051 C 8.74023 -7.22656 31.7871 15.8203 59.7656 15.8203 Z M 59.7656 4.3457 C 37.8418 4.3457 20.2637 -13.2812 20.2637 -35.2051 C 20.2637 -57.1289 37.793 -74.8047 59.7656 -74.8047 C 81.6895 -74.8047 99.3164 -57.1289 99.3652 -35.2051 C 99.3652 -13.2812 81.6895 4.3457 59.7656 4.3457 Z M 46.2402 -39.5996 C 49.0234 -39.5996 51.3184 -42.041 51.3184 -45.5078 C 51.3184 -48.9258 49.0234 -51.3672 46.2402 -51.3672 C 43.5059 -51.3672 41.2109 -48.9258 41.2109 -45.5078 C 41.2109 -42.041 43.5059 -39.5996 46.2402 -39.5996 Z M 73.4375 -39.5996 C 76.1719 -39.5996 78.5156 -42.041 78.5156 -45.5078 C 78.5156 -48.9258 76.1719 -51.3672 73.4375 -51.3672 C 70.6543 -51.3672 68.3594 -48.9258 68.3594 -45.5078 C 68.3594 -42.041 70.6543 -39.5996 73.4375 -39.5996 Z M 59.7656 -13.1348 C 70.4102 -13.1348 77.5391 -20.6543 77.5391 -23.9258 C 77.5391 -24.6094 77.0996 -24.9023 76.5625 -24.4629 C 73.291 -21.7773 67.3828 -19.1895 59.7656 -19.1895 C 52.1484 -19.1895 46.1914 -21.875 42.9688 -24.4629 C 42.4316 -24.9023 41.9922 -24.6094 41.9922 -23.9258 C 41.9922 -20.6543 49.1211 -13.1348 59.7656 -13.1348 Z"/>
  </g>
  <g id="Medium-M" transform="matrix(1 0 0 1 1687.3 1126)">
   <path d="M 59.2285 15.2832 C 86.9141 15.2832 109.766 -7.56836 109.766 -35.2051 C 109.766 -62.8906 86.8652 -85.7422 59.1797 -85.7422 C 31.543 -85.7422 8.74023 -62.8906 8.74023 -35.2051 C 8.74023 -7.56836 31.5918 15.2832 59.2285 15.2832 Z M 59.2285 5.17578 C 36.8164 5.17578 18.8965 -12.8418 18.8965 -35.2051 C 18.8965 -57.6172 36.8164 -75.6348 59.1797 -75.6348 C 81.5918 -75.6348 99.6094 -57.6172 99.6582 -35.2051 C 99.707 -12.8418 81.6406 5.17578 59.2285 5.17578 Z M 45.4102 -39.6484 C 48.2422 -39.6484 50.5859 -42.1387 50.5859 -45.6055 C 50.5859 -49.1211 48.2422 -51.5625 45.4102 -51.5625 C 42.627 -51.5625 40.332 -49.1211 40.332 -45.6055 C 40.332 -42.1387 42.627 -39.6484 45.4102 -39.6484 Z M 73.1934 -39.6484 C 76.0254 -39.6484 78.3691 -42.1387 78.3691 -45.6055 C 78.3691 -49.1211 76.0254 -51.5625 73.1934 -51.5625 C 70.4102 -51.5625 68.0664 -49.1211 68.0664 -45.6055 C 68.0664 -42.1387 70.4102 -39.6484 73.1934 -39.6484 Z M 59.2285 -12.5 C 70.4102 -12.5 77.6367 -20.4102 77.6367 -23.6328 C 77.6367 -24.2676 77.1484 -24.5605 76.6602 -24.1699 C 73.2422 -21.3867 67.2852 -18.6035 59.2285 -18.6035 C 51.2207 -18.6035 45.1172 -21.4844 41.8457 -24.1699 C 41.3086 -24.5605 40.8691 -24.2676 40.8691 -23.6328 C 40.8691 -20.4102 48.0957 -12.5 59.2285 -12.5 Z"/>
  </g>
  <g id="Regular-M" transform="matrix(1 0 0 1 1391.3 1126)">
   <path d="M 58.5449 14.5508 C 85.791 14.5508 108.35 -8.00781 108.35 -35.2539 C 108.35 -62.4512 85.7422 -85.0586 58.4961 -85.0586 C 31.2988 -85.0586 8.74023 -62.4512 8.74023 -35.2539 C 8.74023 -8.00781 31.3477 14.5508 58.5449 14.5508 Z M 58.5449 6.25 C 35.498 6.25 17.0898 -12.207 17.0898 -35.2539 C 17.0898 -58.252 35.4492 -76.7578 58.4961 -76.7578 C 81.543 -76.7578 100 -58.252 100.049 -35.2539 C 100.098 -12.207 81.5918 6.25 58.5449 6.25 Z M 44.3848 -39.6973 C 47.2656 -39.6973 49.6582 -42.2363 49.6582 -45.8008 C 49.6582 -49.3652 47.2656 -51.9043 44.3848 -51.9043 C 41.5039 -51.9043 39.1602 -49.3652 39.1602 -45.8008 C 39.1602 -42.2363 41.5039 -39.6973 44.3848 -39.6973 Z M 72.9004 -39.6973 C 75.7812 -39.6973 78.1738 -42.2363 78.1738 -45.8008 C 78.1738 -49.3652 75.7812 -51.9043 72.9004 -51.9043 C 70.0684 -51.9043 67.6758 -49.3652 67.6758 -45.8008 C 67.6758 -42.2363 70.0684 -39.6973 72.9004 -39.6973 Z M 58.5449 -11.7188 C 70.3613 -11.7188 77.6855 -20.0684 77.6855 -23.2422 C 77.6855 -23.877 77.1973 -24.1699 76.709 -23.7793 C 73.1934 -20.8008 67.1387 -17.8711 58.5449 -17.8711 C 49.9512 -17.8711 43.75 -20.9961 40.3809 -23.7305 C 39.8438 -24.1699 39.4043 -23.877 39.4043 -23.2422 C 39.4043 -20.0684 46.7285 -11.7188 58.5449 -11.7188 Z"/>
  </g>
  <g id="Light-M" transform="matrix(1 0 0 1 1095.42 1126)">
   <path d="M 57.7148 13.7695 C 84.5215 13.7695 106.689 -8.39844 106.689 -35.2051 C 106.689 -62.0117 84.5215 -84.1797 57.666 -84.1797 C 30.8594 -84.1797 8.74023 -62.0117 8.74023 -35.2051 C 8.74023 -8.39844 30.9082 13.7695 57.7148 13.7695 Z M 57.7148 7.4707 C 34.082 7.4707 15.0879 -11.5723 15.0879 -35.2051 C 15.0879 -58.8379 34.082 -77.832 57.666 -77.832 C 81.2988 -77.832 100.342 -58.8379 100.391 -35.2051 C 100.391 -11.5723 81.3477 7.4707 57.7148 7.4707 Z M 43.5059 -40.0391 C 46.2402 -40.0391 48.4375 -42.4316 48.4375 -45.8008 C 48.4375 -49.1211 46.2402 -51.5625 43.5059 -51.5625 C 40.8203 -51.5625 38.623 -49.1211 38.623 -45.8008 C 38.623 -42.4316 40.8203 -40.0391 43.5059 -40.0391 Z M 72.0215 -40.0391 C 74.7559 -40.0391 76.9531 -42.4316 76.9531 -45.8008 C 76.9531 -49.1211 74.7559 -51.5625 72.0215 -51.5625 C 69.3359 -51.5625 67.1387 -49.1211 67.1387 -45.8008 C 67.1387 -42.4316 69.3359 -40.0391 72.0215 -40.0391 Z M 57.7148 -11.8164 C 68.6035 -11.8164 75.6836 -19.5801 75.6836 -22.6562 C 75.6836 -23.1934 75.1953 -23.4863 74.8047 -23.0957 C 71.4844 -20.166 65.7227 -17.4316 57.7148 -17.4316 C 49.707 -17.4316 43.8965 -20.2637 40.625 -23.0957 C 40.1855 -23.4375 39.7461 -23.1934 39.7461 -22.6562 C 39.7461 -19.5801 46.8262 -11.8164 57.7148 -11.8164 Z"/>
  </g>
  <g id="Thin-M" transform="matrix(1 0 0 1 799.806 1126)">
   <path d="M 56.6406 12.7441 C 82.9102 12.7441 104.492 -8.83789 104.492 -35.1562 C 104.492 -61.4746 82.9102 -83.0566 56.5918 -83.0566 C 30.3223 -83.0566 8.74023 -61.4746 8.74023 -35.1562 C 8.74023 -8.83789 30.3223 12.7441 56.6406 12.7441 Z M 56.6406 8.98438 C 32.2266 8.98438 12.4512 -10.791 12.4512 -35.1562 C 12.4512 -59.5215 32.2266 -79.2969 56.5918 -79.2969 C 81.0059 -79.2969 100.781 -59.5215 100.781 -35.1562 C 100.781 -10.791 81.0059 8.98438 56.6406 8.98438 Z M 42.3828 -40.4785 C 44.873 -40.4785 46.875 -42.7246 46.875 -45.8008 C 46.875 -48.877 44.873 -51.123 42.3828 -51.123 C 39.8926 -51.123 37.9395 -48.877 37.9395 -45.8008 C 37.9395 -42.7246 39.8926 -40.4785 42.3828 -40.4785 Z M 70.8496 -40.4785 C 73.3887 -40.4785 75.3906 -42.7246 75.3906 -45.8008 C 75.3906 -48.877 73.3887 -51.123 70.8496 -51.123 C 68.4082 -51.123 66.4062 -48.877 66.4062 -45.8008 C 66.4062 -42.7246 68.4082 -40.4785 70.8496 -40.4785 Z M 56.6406 -11.9629 C 66.3574 -11.9629 72.998 -18.8965 72.998 -21.875 C 72.998 -22.3145 72.5586 -22.6074 72.2656 -22.2656 C 69.2383 -19.2871 63.8672 -16.8457 56.6406 -16.8457 C 49.4141 -16.8457 44.043 -19.3848 40.9668 -22.2168 C 40.625 -22.5098 40.2344 -22.3145 40.2344 -21.875 C 40.2344 -18.8965 46.9238 -11.9629 56.6406 -11.9629 Z"/>
  </g>
  <g id="Ultralight-M" transform="matrix(1 0 0 1 503.656 1126)">
   <path d="M 56.0547 12.207 C 82.0801 12.207 103.369 -9.08203 103.369 -35.1562 C 103.369 -61.1816 82.0801 -82.4707 56.0547 -82.4707 C 30.0293 -82.4707 8.74023 -61.1816 8.74023 -35.1562 C 8.74023 -9.08203 30.0293 12.207 56.0547 12.207 Z M 56.0547 9.81445 C 31.2988 9.81445 11.1328 -10.3516 11.1328 -35.1562 C 11.1328 -59.9121 31.2988 -80.0781 56.0547 -80.0781 C 80.8594 -80.0781 100.977 -59.9121 100.977 -35.1562 C 100.977 -10.3516 80.8594 9.81445 56.0547 9.81445 Z M 41.7969 -40.7227 C 44.1895 -40.7227 46.0449 -42.8711 46.0449 -45.8008 C 46.0449 -48.7305 44.1895 -50.8789 41.7969 -50.8789 C 39.4043 -50.8789 37.5488 -48.7305 37.5488 -45.8008 C 37.5488 -42.8711 39.4043 -40.7227 41.7969 -40.7227 Z M 70.2637 -40.7227 C 72.7051 -40.7227 74.5605 -42.8711 74.5605 -45.8008 C 74.5605 -48.7305 72.7051 -50.8789 70.2637 -50.8789 C 67.9199 -50.8789 66.0645 -48.7305 66.0645 -45.8008 C 66.0645 -42.8711 67.9199 -40.7227 70.2637 -40.7227 Z M 56.0547 -12.0117 C 65.1855 -12.0117 71.6309 -18.5059 71.6309 -21.4355 C 71.6309 -21.875 71.1914 -22.1191 70.9473 -21.8262 C 68.1152 -18.8477 62.8906 -16.5527 56.0547 -16.5527 C 49.2188 -16.5527 44.1406 -18.8965 41.1621 -21.7773 C 40.8691 -22.0215 40.4785 -21.875 40.4785 -21.4355 C 40.4785 -18.5059 46.9727 -12.0117 56.0547 -12.0117 Z"/>
  </g>
  <g id="Black-S" transform="matrix(1 0 0 1 2884.57 696)">
   <path d="M 48.8281 6.78711 C 71.9727 6.78711 90.8203 -12.0605 90.8203 -35.2051 C 90.8203 -58.3496 71.9727 -77.1973 48.8281 -77.1973 C 25.6836 -77.1973 6.83594 -58.3496 6.83594 -35.2051 C 6.83594 -12.0605 25.6836 6.78711 48.8281 6.78711 Z M 48.8281 -7.37305 C 33.4473 -7.37305 20.9961 -19.8242 20.9961 -35.2051 C 20.9961 -50.5859 33.4473 -63.0371 48.8281 -63.0371 C 64.209 -63.0371 76.6602 -50.5859 76.6602 -35.2051 C 76.6602 -19.8242 64.209 -7.37305 48.8281 -7.37305 Z M 39.2578 -38.5254 C 41.2598 -38.5254 42.9688 -40.2832 42.9688 -42.7734 C 42.9688 -45.2637 41.2598 -47.0215 39.2578 -47.0215 C 37.2559 -47.0215 35.5957 -45.2637 35.5957 -42.7734 C 35.5957 -40.2832 37.2559 -38.5254 39.2578 -38.5254 Z M 58.3496 -38.5254 C 60.3516 -38.5254 62.1094 -40.2832 62.1094 -42.7734 C 62.1094 -45.2637 60.3516 -47.0215 58.3496 -47.0215 C 56.3477 -47.0215 54.6875 -45.2637 54.6875 -42.7734 C 54.6875 -40.2832 56.3477 -38.5254 58.3496 -38.5254 Z M 48.8281 -20.166 C 55.3223 -20.166 60.5469 -24.7559 60.5469 -27.5391 C 60.5469 -28.0762 60.2051 -28.3203 59.7656 -27.9785 C 57.5684 -26.2695 53.1738 -24.7559 48.8281 -24.7559 C 44.4824 -24.7559 40.0879 -26.2695 37.8906 -27.9785 C 37.4512 -28.3203 37.1094 -28.0762 37.1094 -27.5391 C 37.1094 -24.7559 42.334 -20.166 48.8281 -20.166 Z"/>
  </g>
  <g id="Heavy-S" transform="matrix(1 0 0 1 2588.47 696)">
   <path d="M 48.2422 6.15234 C 70.9961 6.15234 89.5996 -12.4512 89.5996 -35.2051 C 89.5996 -57.959 70.9961 -76.6113 48.1934 -76.6113 C 25.4395 -76.6113 6.83594 -57.959 6.83594 -35.2051 C 6.83594 -12.4512 25.4395 6.15234 48.2422 6.15234 Z M 48.2422 -6.39648 C 32.2754 -6.39648 19.4336 -19.2871 19.4336 -35.2051 C 19.4336 -51.1719 32.2754 -64.0137 48.1934 -64.0137 C 64.1602 -64.0137 77.002 -51.1719 77.0508 -35.2051 C 77.0508 -19.2871 64.1602 -6.39648 48.2422 -6.39648 Z M 38.2812 -38.5254 C 40.3809 -38.5254 42.1387 -40.3809 42.1387 -42.9688 C 42.1387 -45.5566 40.3809 -47.3633 38.2812 -47.3633 C 36.2305 -47.3633 34.4727 -45.5566 34.4727 -42.9688 C 34.4727 -40.3809 36.2305 -38.5254 38.2812 -38.5254 Z M 58.1543 -38.5254 C 60.2539 -38.5254 62.0605 -40.3809 62.0605 -42.9688 C 62.0605 -45.5566 60.2539 -47.3633 58.1543 -47.3633 C 56.1035 -47.3633 54.3457 -45.5566 54.3457 -42.9688 C 54.3457 -40.3809 56.1035 -38.5254 58.1543 -38.5254 Z M 48.2422 -19.3848 C 55.4688 -19.3848 60.8398 -24.4629 60.8398 -27.1973 C 60.8398 -27.7344 60.498 -27.9785 60.0586 -27.6367 C 57.7148 -25.7812 53.2227 -24.0723 48.2422 -24.0723 C 43.2617 -24.0723 38.7207 -25.8301 36.377 -27.6367 C 35.9375 -27.9785 35.5957 -27.7344 35.5957 -27.1973 C 35.5957 -24.4629 40.9668 -19.3848 48.2422 -19.3848 Z"/>
  </g>
  <g id="Bold-S" transform="matrix(1 0 0 1 2292.44 696)">
   <path d="M 47.5586 5.46875 C 69.873 5.46875 88.2324 -12.8906 88.2324 -35.2051 C 88.2324 -57.5684 69.873 -75.9277 47.5098 -75.9277 C 25.1953 -75.9277 6.83594 -57.5684 6.83594 -35.2051 C 6.83594 -12.8906 25.1953 5.46875 47.5586 5.46875 Z M 47.5586 -5.32227 C 30.957 -5.32227 17.6758 -18.6523 17.6758 -35.2051 C 17.6758 -51.8066 30.957 -65.1367 47.5098 -65.1367 C 64.1113 -65.1367 77.4414 -51.8066 77.4414 -35.2051 C 77.4414 -18.6523 64.1113 -5.32227 47.5586 -5.32227 Z M 37.207 -38.5742 C 39.3555 -38.5742 41.2109 -40.4297 41.2109 -43.1641 C 41.2109 -45.8496 39.3555 -47.7051 37.207 -47.7051 C 35.0586 -47.7051 33.252 -45.8496 33.252 -43.1641 C 33.252 -40.4297 35.0586 -38.5742 37.207 -38.5742 Z M 57.959 -38.5742 C 60.1074 -38.5742 61.9629 -40.4297 61.9629 -43.1641 C 61.9629 -45.8496 60.1074 -47.7051 57.959 -47.7051 C 55.7617 -47.7051 54.0039 -45.8496 54.0039 -43.1641 C 54.0039 -40.4297 55.7617 -38.5742 57.959 -38.5742 Z M 47.5586 -18.457 C 55.6152 -18.457 61.1816 -24.1699 61.1816 -26.8555 C 61.1816 -27.3438 60.8398 -27.5879 60.4004 -27.2461 C 57.8613 -25.2441 53.2227 -23.291 47.5586 -23.291 C 41.8457 -23.291 37.1582 -25.3418 34.668 -27.2461 C 34.2773 -27.5879 33.8867 -27.3438 33.8867 -26.8555 C 33.8867 -24.1699 39.4531 -18.457 47.5586 -18.457 Z"/>
  </g>
  <g id="Semibold-S" transform="matrix(1 0 0 1 1996.2 696)">
   <path d="M 47.0703 4.98047 C 69.0918 4.98047 87.3047 -13.1836 87.3047 -35.2539 C 87.3047 -57.2754 69.0918 -75.4883 47.0215 -75.4883 C 25 -75.4883 6.83594 -57.2754 6.83594 -35.2539 C 6.83594 -13.1836 25.0488 4.98047 47.0703 4.98047 Z M 47.0703 -4.58984 C 30.0781 -4.58984 16.4551 -18.2129 16.4551 -35.2539 C 16.4551 -52.2461 30.0293 -65.8691 47.0215 -65.8691 C 64.0625 -65.8691 77.6855 -52.2461 77.7344 -35.2539 C 77.7344 -18.2129 64.0625 -4.58984 47.0703 -4.58984 Z M 36.4746 -38.5742 C 38.6719 -38.5742 40.5762 -40.5273 40.5762 -43.2617 C 40.5762 -46.0449 38.6719 -47.998 36.4746 -47.998 C 34.2285 -47.998 32.4219 -46.0449 32.4219 -43.2617 C 32.4219 -40.5273 34.2285 -38.5742 36.4746 -38.5742 Z M 57.8125 -38.5742 C 60.0098 -38.5742 61.9141 -40.5273 61.9141 -43.2617 C 61.9141 -46.0449 60.0098 -47.998 57.8125 -47.998 C 55.5664 -47.998 53.7109 -46.0449 53.7109 -43.2617 C 53.7109 -40.5273 55.5664 -38.5742 57.8125 -38.5742 Z M 47.0703 -17.8223 C 55.7617 -17.8223 61.4258 -23.9746 61.4258 -26.5625 C 61.4258 -27.0996 61.0352 -27.3438 60.6445 -27.002 C 57.959 -24.9023 53.2715 -22.7539 47.0703 -22.7539 C 40.918 -22.7539 36.084 -25 33.5449 -27.002 C 33.1055 -27.3438 32.7148 -27.0996 32.7148 -26.5625 C 32.7148 -23.9746 38.4277 -17.8223 47.0703 -17.8223 Z"/>
  </g>
  <g id="Medium-S" transform="matrix(1 0 0 1 1699.83 696)">
   <path d="M 46.7285 4.63867 C 68.5547 4.63867 86.6211 -13.4277 86.6211 -35.2539 C 86.6211 -57.0312 68.5059 -75.1465 46.6797 -75.1465 C 24.8535 -75.1465 6.83594 -57.0312 6.83594 -35.2539 C 6.83594 -13.4277 24.9023 4.63867 46.7285 4.63867 Z M 46.7285 -4.00391 C 29.3945 -4.00391 15.5273 -17.9199 15.5273 -35.2539 C 15.5273 -52.5879 29.3457 -66.4551 46.6797 -66.4551 C 64.0137 -66.4551 77.8809 -52.5879 77.9297 -35.2539 C 77.9785 -17.9199 64.0625 -4.00391 46.7285 -4.00391 Z M 35.8887 -38.5742 C 38.1836 -38.5742 40.0879 -40.5273 40.0879 -43.3594 C 40.0879 -46.1914 38.1836 -48.1934 35.8887 -48.1934 C 33.6426 -48.1934 31.7871 -46.1914 31.7871 -43.3594 C 31.7871 -40.5273 33.6426 -38.5742 35.8887 -38.5742 Z M 57.666 -38.5742 C 59.9609 -38.5742 61.8652 -40.5273 61.8652 -43.3594 C 61.8652 -46.1914 59.9609 -48.1934 57.666 -48.1934 C 55.4199 -48.1934 53.5156 -46.1914 53.5156 -43.3594 C 53.5156 -40.5273 55.4199 -38.5742 57.666 -38.5742 Z M 46.7285 -17.3828 C 55.8105 -17.3828 61.6211 -23.8281 61.6211 -26.3672 C 61.6211 -26.9043 61.2305 -27.1484 60.791 -26.8066 C 58.0566 -24.6094 53.2715 -22.3633 46.7285 -22.3633 C 40.1855 -22.3633 35.2539 -24.7559 32.6172 -26.8066 C 32.2266 -27.1484 31.8359 -26.9043 31.8359 -26.3672 C 31.8359 -23.8281 37.5977 -17.3828 46.7285 -17.3828 Z"/>
  </g>
  <g id="Regular-S" transform="matrix(1 0 0 1 1403.58 696)">
   <path d="M 46.2402 4.15039 C 67.7734 4.15039 85.6934 -13.7207 85.6934 -35.2539 C 85.6934 -56.7871 67.7246 -74.6582 46.1914 -74.6582 C 24.707 -74.6582 6.83594 -56.7871 6.83594 -35.2539 C 6.83594 -13.7207 24.7559 4.15039 46.2402 4.15039 Z M 46.2402 -3.27148 C 28.5156 -3.27148 14.3555 -17.4805 14.3555 -35.2539 C 14.3555 -53.0273 28.4668 -67.2363 46.1914 -67.2363 C 63.9648 -67.2363 78.1738 -53.0273 78.2227 -35.2539 C 78.2715 -17.4805 64.0137 -3.27148 46.2402 -3.27148 Z M 35.1562 -38.5742 C 37.5 -38.5742 39.4531 -40.625 39.4531 -43.5059 C 39.4531 -46.3867 37.5 -48.4375 35.1562 -48.4375 C 32.8613 -48.4375 30.9082 -46.3867 30.9082 -43.5059 C 30.9082 -40.625 32.8613 -38.5742 35.1562 -38.5742 Z M 57.5195 -38.5742 C 59.8633 -38.5742 61.8164 -40.625 61.8164 -43.5059 C 61.8164 -46.3867 59.8633 -48.4375 57.5195 -48.4375 C 55.2246 -48.4375 53.2715 -46.3867 53.2715 -43.5059 C 53.2715 -40.625 55.2246 -38.5742 57.5195 -38.5742 Z M 46.2402 -16.748 C 55.957 -16.748 61.8652 -23.584 61.8652 -26.123 C 61.8652 -26.6602 61.4746 -26.9043 61.0352 -26.5625 C 58.1543 -24.2676 53.2715 -21.875 46.2402 -21.875 C 39.209 -21.875 34.1797 -24.4141 31.4941 -26.5625 C 31.0547 -26.9043 30.6641 -26.6602 30.6641 -26.123 C 30.6641 -23.584 36.5723 -16.748 46.2402 -16.748 Z"/>
  </g>
  <g id="Light-S" transform="matrix(1 0 0 1 1107.6 696)">
   <path d="M 45.5078 3.4668 C 66.6992 3.4668 84.2285 -14.0625 84.2285 -35.2051 C 84.2285 -56.3965 66.6504 -73.9258 45.5078 -73.9258 C 24.3164 -73.9258 6.83594 -56.3965 6.83594 -35.2051 C 6.83594 -14.0625 24.3652 3.4668 45.5078 3.4668 Z M 45.5078 -2.24609 C 27.2461 -2.24609 12.5977 -16.9434 12.5977 -35.2051 C 12.5977 -53.5156 27.1973 -68.2129 45.5078 -68.2129 C 63.7695 -68.2129 78.4668 -53.5156 78.5156 -35.2051 C 78.5156 -16.9434 63.8184 -2.24609 45.5078 -2.24609 Z M 34.4238 -38.8672 C 36.5723 -38.8672 38.4277 -40.8203 38.4277 -43.5059 C 38.4277 -46.1914 36.5723 -48.1445 34.4238 -48.1445 C 32.2266 -48.1445 30.4688 -46.1914 30.4688 -43.5059 C 30.4688 -40.8203 32.2266 -38.8672 34.4238 -38.8672 Z M 56.7383 -38.8672 C 58.9355 -38.8672 60.7422 -40.8203 60.7422 -43.5059 C 60.7422 -46.1914 58.9355 -48.1445 56.7383 -48.1445 C 54.5898 -48.1445 52.7832 -46.1914 52.7832 -43.5059 C 52.7832 -40.8203 54.5898 -38.8672 56.7383 -38.8672 Z M 45.5078 -16.8457 C 54.3945 -16.8457 60.0586 -23.1445 60.0586 -25.5859 C 60.0586 -26.0742 59.668 -26.3184 59.3262 -25.9766 C 56.6406 -23.6816 52.0508 -21.4355 45.5078 -21.4355 C 39.0137 -21.4355 34.3262 -23.7793 31.7383 -25.9766 C 31.3477 -26.2695 31.0059 -26.0742 31.0059 -25.5859 C 31.0059 -23.1445 36.6211 -16.8457 45.5078 -16.8457 Z"/>
  </g>
  <g id="Thin-S" transform="matrix(1 0 0 1 811.867 696)">
   <path d="M 44.5801 2.53906 C 65.2832 2.53906 82.2754 -14.4531 82.2754 -35.2051 C 82.2754 -55.9082 65.2344 -72.9004 44.5312 -72.9004 C 23.8281 -72.9004 6.83594 -55.9082 6.83594 -35.2051 C 6.83594 -14.4531 23.877 2.53906 44.5801 2.53906 Z M 44.5801 -0.878906 C 25.5859 -0.878906 10.2539 -16.2109 10.2539 -35.2051 C 10.2539 -54.1504 25.5859 -69.4824 44.5312 -69.4824 C 63.5254 -69.4824 78.8574 -54.1504 78.8574 -35.2051 C 78.8574 -16.2109 63.5254 -0.878906 44.5801 -0.878906 Z M 33.3984 -39.2578 C 35.4004 -39.2578 37.0117 -41.0645 37.0117 -43.5059 C 37.0117 -45.9473 35.4004 -47.7539 33.3984 -47.7539 C 31.4453 -47.7539 29.834 -45.9473 29.834 -43.5059 C 29.834 -41.0645 31.4453 -39.2578 33.3984 -39.2578 Z M 55.7129 -39.2578 C 57.7637 -39.2578 59.3262 -41.0645 59.3262 -43.5059 C 59.3262 -45.9473 57.7637 -47.7539 55.7129 -47.7539 C 53.7598 -47.7539 52.1484 -45.9473 52.1484 -43.5059 C 52.1484 -41.0645 53.7598 -39.2578 55.7129 -39.2578 Z M 44.5801 -16.9434 C 52.3926 -16.9434 57.7148 -22.5586 57.7148 -24.9023 C 57.7148 -25.293 57.3242 -25.4883 57.0801 -25.2441 C 54.6875 -22.9004 50.3906 -20.9473 44.5801 -20.9473 C 38.7695 -20.9473 34.4727 -22.998 32.0312 -25.1953 C 31.7383 -25.4395 31.3965 -25.293 31.3965 -24.9023 C 31.3965 -22.5586 36.7188 -16.9434 44.5801 -16.9434 Z"/>
  </g>
  <g id="Ultralight-S" transform="matrix(1 0 0 1 515.644 696)">
   <path d="M 44.043 2.05078 C 64.502 2.05078 81.2988 -14.6973 81.2988 -35.1562 C 81.2988 -55.6152 64.502 -72.3633 44.043 -72.3633 C 23.584 -72.3633 6.83594 -55.6152 6.83594 -35.1562 C 6.83594 -14.6973 23.584 2.05078 44.043 2.05078 Z M 44.043 -0.146484 C 24.7559 -0.146484 9.08203 -15.8691 9.08203 -35.1562 C 9.08203 -54.4434 24.7559 -70.166 44.043 -70.166 C 63.3789 -70.166 79.0527 -54.4434 79.0527 -35.1562 C 79.0527 -15.8691 63.3789 -0.146484 44.043 -0.146484 Z M 32.8613 -39.4531 C 34.8145 -39.4531 36.2793 -41.1621 36.2793 -43.5059 C 36.2793 -45.8496 34.8145 -47.5586 32.8613 -47.5586 C 31.0059 -47.5586 29.4922 -45.8496 29.4922 -43.5059 C 29.4922 -41.1621 31.0059 -39.4531 32.8613 -39.4531 Z M 55.1758 -39.4531 C 57.1289 -39.4531 58.5938 -41.1621 58.5938 -43.5059 C 58.5938 -45.8496 57.1289 -47.5586 55.1758 -47.5586 C 53.3203 -47.5586 51.8555 -45.8496 51.8555 -43.5059 C 51.8555 -41.1621 53.3203 -39.4531 55.1758 -39.4531 Z M 44.043 -17.041 C 51.3672 -17.041 56.4941 -22.2168 56.4941 -24.5605 C 56.4941 -24.9023 56.1523 -25.0977 55.9082 -24.8535 C 53.6621 -22.5098 49.5117 -20.6543 44.043 -20.6543 C 38.623 -20.6543 34.5703 -22.5586 32.1777 -24.8047 C 31.9336 -25 31.6406 -24.9023 31.6406 -24.5605 C 31.6406 -22.2168 36.7676 -17.041 44.043 -17.041 Z"/>
  </g>
 </g>
</svg>
