<?xml version="1.0" encoding="UTF-8"?>
<!--Generator: Apple Native CoreSVG 123-->
<!DOCTYPE svg
PUBLIC "-//W3C//DTD SVG 1.1//EN"
       "http://www.w3.org/Graphics/SVG/1.1/DTD/svg11.dtd">
<svg version="1.1" xmlns="http://www.w3.org/2000/svg" xmlns:xlink="http://www.w3.org/1999/xlink" width="3300" height="2200">
 <!--glyph: "uni100282.medium", point size: 100.000000, font version: "Version 15.0d7e11", template writer version: "5"-->
 <g id="Notes">
  <rect height="2200" id="artboard" style="fill:white;opacity:1" width="3300" x="0" y="0"/>
  <line id="" style="fill:none;stroke:black;opacity:1;stroke-width:0.5;" x1="263" x2="3036" y1="292" y2="292"/>
  <text style="stroke:none;fill:black;font-family:-apple-system,&quot;SF Pro Display&quot;,&quot;SF Pro Text&quot;,Helvetica,sans-serif;font-weight:bold;" transform="matrix(1 0 0 1 263 322)">Weight/Scale Variations</text>
  <text style="stroke:none;fill:black;font-family:-apple-system,&quot;SF Pro Display&quot;,&quot;SF Pro Text&quot;,Helvetica,sans-serif;text-anchor:middle;" transform="matrix(1 0 0 1 559.711 322)">Ultralight</text>
  <text style="stroke:none;fill:black;font-family:-apple-system,&quot;SF Pro Display&quot;,&quot;SF Pro Text&quot;,Helvetica,sans-serif;text-anchor:middle;" transform="matrix(1 0 0 1 856.422 322)">Thin</text>
  <text style="stroke:none;fill:black;font-family:-apple-system,&quot;SF Pro Display&quot;,&quot;SF Pro Text&quot;,Helvetica,sans-serif;text-anchor:middle;" transform="matrix(1 0 0 1 1153.13 322)">Light</text>
  <text style="stroke:none;fill:black;font-family:-apple-system,&quot;SF Pro Display&quot;,&quot;SF Pro Text&quot;,Helvetica,sans-serif;text-anchor:middle;" transform="matrix(1 0 0 1 1449.84 322)">Regular</text>
  <text style="stroke:none;fill:black;font-family:-apple-system,&quot;SF Pro Display&quot;,&quot;SF Pro Text&quot;,Helvetica,sans-serif;text-anchor:middle;" transform="matrix(1 0 0 1 1746.56 322)">Medium</text>
  <text style="stroke:none;fill:black;font-family:-apple-system,&quot;SF Pro Display&quot;,&quot;SF Pro Text&quot;,Helvetica,sans-serif;text-anchor:middle;" transform="matrix(1 0 0 1 2043.27 322)">Semibold</text>
  <text style="stroke:none;fill:black;font-family:-apple-system,&quot;SF Pro Display&quot;,&quot;SF Pro Text&quot;,Helvetica,sans-serif;text-anchor:middle;" transform="matrix(1 0 0 1 2339.98 322)">Bold</text>
  <text style="stroke:none;fill:black;font-family:-apple-system,&quot;SF Pro Display&quot;,&quot;SF Pro Text&quot;,Helvetica,sans-serif;text-anchor:middle;" transform="matrix(1 0 0 1 2636.69 322)">Heavy</text>
  <text style="stroke:none;fill:black;font-family:-apple-system,&quot;SF Pro Display&quot;,&quot;SF Pro Text&quot;,Helvetica,sans-serif;text-anchor:middle;" transform="matrix(1 0 0 1 2933.4 322)">Black</text>
  <line id="" style="fill:none;stroke:black;opacity:1;stroke-width:0.5;" x1="263" x2="3036" y1="1903" y2="1903"/>
  <g id="" transform="matrix(1 0 0 1 263 1933)">
   <path d="M 9.24805 0.830078 C 13.5547 0.830078 17.1387 -2.74414 17.1387 -7.05078 C 17.1387 -11.3574 13.5449 -14.9316 9.23828 -14.9316 C 4.94141 -14.9316 1.36719 -11.3574 1.36719 -7.05078 C 1.36719 -2.74414 4.95117 0.830078 9.24805 0.830078 Z M 9.24805 -0.654297 C 5.70312 -0.654297 2.87109 -3.49609 2.87109 -7.05078 C 2.87109 -10.6055 5.69336 -13.4473 9.23828 -13.4473 C 12.793 -13.4473 15.6348 -10.6055 15.6445 -7.05078 C 15.6543 -3.49609 12.8027 -0.654297 9.24805 -0.654297 Z M 9.22852 -3.42773 C 9.69727 -3.42773 9.9707 -3.74023 9.9707 -4.25781 L 9.9707 -6.31836 L 12.1973 -6.31836 C 12.6953 -6.31836 13.0371 -6.57227 13.0371 -7.04102 C 13.0371 -7.51953 12.7148 -7.7832 12.1973 -7.7832 L 9.9707 -7.7832 L 9.9707 -10.0098 C 9.9707 -10.5273 9.69727 -10.8496 9.22852 -10.8496 C 8.75977 -10.8496 8.50586 -10.5078 8.50586 -10.0098 L 8.50586 -7.7832 L 6.29883 -7.7832 C 5.78125 -7.7832 5.44922 -7.51953 5.44922 -7.04102 C 5.44922 -6.57227 5.80078 -6.31836 6.29883 -6.31836 L 8.50586 -6.31836 L 8.50586 -4.25781 C 8.50586 -3.75977 8.75977 -3.42773 9.22852 -3.42773 Z"/>
  </g>
  <g id="" transform="matrix(1 0 0 1 281.506 1933)">
   <path d="M 11.709 2.91016 C 17.1582 2.91016 21.6699 -1.60156 21.6699 -7.05078 C 21.6699 -12.4902 17.1484 -17.0117 11.6992 -17.0117 C 6.25977 -17.0117 1.74805 -12.4902 1.74805 -7.05078 C 1.74805 -1.60156 6.26953 2.91016 11.709 2.91016 Z M 11.709 1.25 C 7.09961 1.25 3.41797 -2.44141 3.41797 -7.05078 C 3.41797 -11.6504 7.08984 -15.3516 11.6992 -15.3516 C 16.3086 -15.3516 20 -11.6504 20.0098 -7.05078 C 20.0195 -2.44141 16.3184 1.25 11.709 1.25 Z M 11.6895 -2.41211 C 12.207 -2.41211 12.5195 -2.77344 12.5195 -3.33984 L 12.5195 -6.23047 L 15.5762 -6.23047 C 16.123 -6.23047 16.5039 -6.51367 16.5039 -7.03125 C 16.5039 -7.55859 16.1426 -7.86133 15.5762 -7.86133 L 12.5195 -7.86133 L 12.5195 -10.9277 C 12.5195 -11.5039 12.207 -11.8555 11.6895 -11.8555 C 11.1719 -11.8555 10.8789 -11.4844 10.8789 -10.9277 L 10.8789 -7.86133 L 7.83203 -7.86133 C 7.26562 -7.86133 6.89453 -7.55859 6.89453 -7.03125 C 6.89453 -6.51367 7.28516 -6.23047 7.83203 -6.23047 L 10.8789 -6.23047 L 10.8789 -3.33984 C 10.8789 -2.79297 11.1719 -2.41211 11.6895 -2.41211 Z"/>
  </g>
  <g id="" transform="matrix(1 0 0 1 304.924 1933)">
   <path d="M 14.9707 5.67383 C 21.9336 5.67383 27.6953 -0.078125 27.6953 -7.04102 C 27.6953 -14.0039 21.9238 -19.7559 14.9609 -19.7559 C 8.00781 -19.7559 2.25586 -14.0039 2.25586 -7.04102 C 2.25586 -0.078125 8.01758 5.67383 14.9707 5.67383 Z M 14.9707 3.85742 C 8.93555 3.85742 4.08203 -1.00586 4.08203 -7.04102 C 4.08203 -13.0762 8.92578 -17.9395 14.9609 -17.9395 C 21.0059 -17.9395 25.8594 -13.0762 25.8691 -7.04102 C 25.8789 -1.00586 21.0156 3.85742 14.9707 3.85742 Z M 14.9512 -1.06445 C 15.5176 -1.06445 15.8691 -1.45508 15.8691 -2.06055 L 15.8691 -6.13281 L 20.1074 -6.13281 C 20.6934 -6.13281 21.1133 -6.46484 21.1133 -7.02148 C 21.1133 -7.59766 20.7227 -7.93945 20.1074 -7.93945 L 15.8691 -7.93945 L 15.8691 -12.1875 C 15.8691 -12.8027 15.5176 -13.1934 14.9512 -13.1934 C 14.3848 -13.1934 14.0625 -12.7832 14.0625 -12.1875 L 14.0625 -7.93945 L 9.83398 -7.93945 C 9.21875 -7.93945 8.80859 -7.59766 8.80859 -7.02148 C 8.80859 -6.46484 9.23828 -6.13281 9.83398 -6.13281 L 14.0625 -6.13281 L 14.0625 -2.06055 C 14.0625 -1.47461 14.3848 -1.06445 14.9512 -1.06445 Z"/>
  </g>
  <text style="stroke:none;fill:black;font-family:-apple-system,&quot;SF Pro Display&quot;,&quot;SF Pro Text&quot;,Helvetica,sans-serif;font-weight:bold;" transform="matrix(1 0 0 1 263 1953)">Design Variations</text>
  <text style="stroke:none;fill:black;font-family:-apple-system,&quot;SF Pro Display&quot;,&quot;SF Pro Text&quot;,Helvetica,sans-serif;" transform="matrix(1 0 0 1 263 1971)">Symbols are supported in up to nine weights and three scales.</text>
  <text style="stroke:none;fill:black;font-family:-apple-system,&quot;SF Pro Display&quot;,&quot;SF Pro Text&quot;,Helvetica,sans-serif;" transform="matrix(1 0 0 1 263 1989)">For optimal layout with text and other symbols, vertically align</text>
  <text style="stroke:none;fill:black;font-family:-apple-system,&quot;SF Pro Display&quot;,&quot;SF Pro Text&quot;,Helvetica,sans-serif;" transform="matrix(1 0 0 1 263 2007)">symbols with the adjacent text.</text>
  <rect height="14" id="" style="fill:#00AEEF;stroke:none;opacity:0.4;" width="3" x="776" y="1919"/>
  <g id="" transform="matrix(1 0 0 1 779 1933)">
   <path d="M 10.5273 0 L 12.373 0 L 7.17773 -14.0918 L 5.43945 -14.0918 L 0.244141 0 L 2.08984 0 L 3.50586 -4.0332 L 9.11133 -4.0332 Z M 6.2793 -11.9531 L 6.33789 -11.9531 L 8.59375 -5.52734 L 4.02344 -5.52734 Z"/>
  </g>
  <rect height="14" id="" style="fill:#00AEEF;stroke:none;opacity:0.4;" width="3" x="791.617" y="1919"/>
  <text style="stroke:none;fill:black;font-family:-apple-system,&quot;SF Pro Display&quot;,&quot;SF Pro Text&quot;,Helvetica,sans-serif;font-weight:bold;" transform="matrix(1 0 0 1 776 1953)">Margins</text>
  <text style="stroke:none;fill:black;font-family:-apple-system,&quot;SF Pro Display&quot;,&quot;SF Pro Text&quot;,Helvetica,sans-serif;" transform="matrix(1 0 0 1 776 1971)">Leading and trailing margins on the left and right side of each symbol</text>
  <text style="stroke:none;fill:black;font-family:-apple-system,&quot;SF Pro Display&quot;,&quot;SF Pro Text&quot;,Helvetica,sans-serif;" transform="matrix(1 0 0 1 776 1989)">can be adjusted by modifying the width of the blue rectangles.</text>
  <text style="stroke:none;fill:black;font-family:-apple-system,&quot;SF Pro Display&quot;,&quot;SF Pro Text&quot;,Helvetica,sans-serif;" transform="matrix(1 0 0 1 776 2007)">Modifications are automatically applied proportionally to all</text>
  <text style="stroke:none;fill:black;font-family:-apple-system,&quot;SF Pro Display&quot;,&quot;SF Pro Text&quot;,Helvetica,sans-serif;" transform="matrix(1 0 0 1 776 2025)">scales and weights.</text>
  <g id="" transform="matrix(1 0 0 1 1289 1933)">
   <path d="M 2.83203 3.11523 L 4.375 4.6582 C 5.22461 5.48828 6.19141 5.41992 7.06055 4.46289 L 17.2754 -6.66016 C 17.7051 -6.36719 18.0957 -6.37695 18.5645 -6.47461 L 19.6094 -6.68945 L 20.3027 -5.99609 L 20.2539 -5.47852 C 20.1855 -4.95117 20.3516 -4.53125 20.8496 -4.0332 L 21.6602 -3.22266 C 22.168 -2.71484 22.8223 -2.68555 23.3008 -3.16406 L 26.5527 -6.41602 C 27.0312 -6.89453 27.0117 -7.54883 26.5039 -8.05664 L 25.6836 -8.87695 C 25.1855 -9.375 24.7754 -9.55078 24.2383 -9.47266 L 23.7109 -9.41406 L 23.0566 -10.0781 L 23.3398 -11.2207 C 23.4863 -11.7871 23.3398 -12.2559 22.7148 -12.8613 L 20.3027 -15.2539 C 16.7578 -18.7793 12.2266 -18.6719 9.11133 -15.5371 C 8.69141 -15.1074 8.64258 -14.5215 8.91602 -14.0918 C 9.15039 -13.7207 9.62891 -13.4961 10.2734 -13.6621 C 11.7871 -14.043 13.3008 -13.9258 14.7852 -12.9199 L 14.1602 -11.3379 C 13.9258 -10.752 13.9453 -10.2734 14.1797 -9.83398 L 3.01758 0.439453 C 2.08008 1.30859 1.97266 2.25586 2.83203 3.11523 Z M 10.6738 -15.1465 C 13.3398 -17.1387 16.6504 -16.8262 19.0527 -14.4141 L 21.6797 -11.8066 C 21.9141 -11.5723 21.9434 -11.3867 21.8848 -11.0938 L 21.5039 -9.53125 L 23.0762 -7.95898 L 24.043 -8.04688 C 24.3262 -8.07617 24.4141 -8.05664 24.6387 -7.83203 L 25.2637 -7.20703 L 22.5098 -4.46289 L 21.8848 -5.07812 C 21.6602 -5.30273 21.6406 -5.40039 21.6699 -5.68359 L 21.7578 -6.64062 L 20.1953 -8.20312 L 18.5742 -7.89062 C 18.291 -7.83203 18.1445 -7.83203 17.9102 -8.07617 L 15.7324 -10.2539 C 15.5078 -10.4883 15.4785 -10.625 15.6055 -10.9473 L 16.5527 -13.2227 C 14.9512 -14.7559 12.8418 -15.6055 10.8008 -14.9512 C 10.7129 -14.9219 10.6445 -14.9414 10.6152 -14.9805 C 10.5859 -15.0293 10.5859 -15.0781 10.6738 -15.1465 Z M 4.10156 2.41211 C 3.61328 1.91406 3.78906 1.61133 4.12109 1.30859 L 15.0781 -8.80859 L 16.3086 -7.57812 L 6.15234 3.34961 C 5.84961 3.68164 5.46875 3.7793 5.06836 3.37891 Z"/>
  </g>
  <text style="stroke:none;fill:black;font-family:-apple-system,&quot;SF Pro Display&quot;,&quot;SF Pro Text&quot;,Helvetica,sans-serif;font-weight:bold;" transform="matrix(1 0 0 1 1289 1953)">Exporting</text>
  <text style="stroke:none;fill:black;font-family:-apple-system,&quot;SF Pro Display&quot;,&quot;SF Pro Text&quot;,Helvetica,sans-serif;" transform="matrix(1 0 0 1 1289 1971)">Symbols should be outlined when exporting to ensure the</text>
  <text style="stroke:none;fill:black;font-family:-apple-system,&quot;SF Pro Display&quot;,&quot;SF Pro Text&quot;,Helvetica,sans-serif;" transform="matrix(1 0 0 1 1289 1989)">design is preserved when submitting to Xcode.</text>
  <text id="template-version" style="stroke:none;fill:black;font-family:-apple-system,&quot;SF Pro Display&quot;,&quot;SF Pro Text&quot;,Helvetica,sans-serif;text-anchor:end;" transform="matrix(1 0 0 1 3036 1933)">Template v.1.0</text>
  <text style="stroke:none;fill:black;font-family:-apple-system,&quot;SF Pro Display&quot;,&quot;SF Pro Text&quot;,Helvetica,sans-serif;text-anchor:end;" transform="matrix(1 0 0 1 3036 1951)">Generated from hand.thumbsdown.fill</text>
  <text style="stroke:none;fill:black;font-family:-apple-system,&quot;SF Pro Display&quot;,&quot;SF Pro Text&quot;,Helvetica,sans-serif;text-anchor:end;" transform="matrix(1 0 0 1 3036 1969)">Typeset at 100 points</text>
  <text style="stroke:none;fill:black;font-family:-apple-system,&quot;SF Pro Display&quot;,&quot;SF Pro Text&quot;,Helvetica,sans-serif;" transform="matrix(1 0 0 1 263 726)">Small</text>
  <text style="stroke:none;fill:black;font-family:-apple-system,&quot;SF Pro Display&quot;,&quot;SF Pro Text&quot;,Helvetica,sans-serif;" transform="matrix(1 0 0 1 263 1156)">Medium</text>
  <text style="stroke:none;fill:black;font-family:-apple-system,&quot;SF Pro Display&quot;,&quot;SF Pro Text&quot;,Helvetica,sans-serif;" transform="matrix(1 0 0 1 263 1586)">Large</text>
 </g>
 <g id="Guides">
  <g id="H-reference" style="fill:#27AAE1;stroke:none;" transform="matrix(1 0 0 1 339 696)">
   <path d="M 54.9316 0 L 57.666 0 L 30.5664 -70.459 L 28.0762 -70.459 L 0.976562 0 L 3.66211 0 L 12.9395 -24.4629 L 45.7031 -24.4629 Z M 29.1992 -67.0898 L 29.4434 -67.0898 L 44.8242 -26.709 L 13.8184 -26.709 Z"/>
  </g>
  <line id="Baseline-S" style="fill:none;stroke:#27AAE1;opacity:1;stroke-width:0.577;" x1="263" x2="3036" y1="696" y2="696"/>
  <line id="Capline-S" style="fill:none;stroke:#27AAE1;opacity:1;stroke-width:0.577;" x1="263" x2="3036" y1="625.541" y2="625.541"/>
  <g id="H-reference" style="fill:#27AAE1;stroke:none;" transform="matrix(1 0 0 1 339 1126)">
   <path d="M 54.9316 0 L 57.666 0 L 30.5664 -70.459 L 28.0762 -70.459 L 0.976562 0 L 3.66211 0 L 12.9395 -24.4629 L 45.7031 -24.4629 Z M 29.1992 -67.0898 L 29.4434 -67.0898 L 44.8242 -26.709 L 13.8184 -26.709 Z"/>
  </g>
  <line id="Baseline-M" style="fill:none;stroke:#27AAE1;opacity:1;stroke-width:0.577;" x1="263" x2="3036" y1="1126" y2="1126"/>
  <line id="Capline-M" style="fill:none;stroke:#27AAE1;opacity:1;stroke-width:0.577;" x1="263" x2="3036" y1="1055.54" y2="1055.54"/>
  <g id="H-reference" style="fill:#27AAE1;stroke:none;" transform="matrix(1 0 0 1 339 1556)">
   <path d="M 54.9316 0 L 57.666 0 L 30.5664 -70.459 L 28.0762 -70.459 L 0.976562 0 L 3.66211 0 L 12.9395 -24.4629 L 45.7031 -24.4629 Z M 29.1992 -67.0898 L 29.4434 -67.0898 L 44.8242 -26.709 L 13.8184 -26.709 Z"/>
  </g>
  <line id="Baseline-L" style="fill:none;stroke:#27AAE1;opacity:1;stroke-width:0.577;" x1="263" x2="3036" y1="1556" y2="1556"/>
  <line id="Capline-L" style="fill:none;stroke:#27AAE1;opacity:1;stroke-width:0.577;" x1="263" x2="3036" y1="1485.54" y2="1485.54"/>
  <rect height="119.336" id="left-margin" style="fill:#00AEEF;stroke:none;opacity:0.4;" width="8.74023" x="1392.42" y="1030.79"/>
  <rect height="119.336" id="right-margin" style="fill:#00AEEF;stroke:none;opacity:0.4;" width="8.74023" x="1498.53" y="1030.79"/>
 </g>
 <g id="Symbols">
  <g id="Black-L" transform="matrix(1 0 0 1 2852.52 1556)">
   <path d="M 33.252 -98.5352 C 27.832 -97.2656 22.4121 -93.7988 22.4121 -87.0605 C 22.4121 -84.375 23.1445 -82.4707 24.0723 -80.9082 C 24.6094 -79.9805 24.5117 -79.2969 23.7305 -78.9551 C 19.3359 -77.002 15.6738 -73.0957 15.6738 -67.4805 C 15.6738 -64.3066 16.5039 -61.4746 18.1152 -59.4727 C 18.8965 -58.4473 18.7012 -57.5684 17.5293 -56.8848 C 14.2578 -55.0293 12.1582 -50.9766 12.1582 -46.4355 C 12.1582 -43.1641 13.2324 -39.6484 15.0879 -37.9395 C 16.2109 -37.0117 16.0156 -36.2793 14.7949 -35.3027 C 12.5 -33.5449 11.2793 -30.2246 11.2793 -26.3184 C 11.2793 -19.4336 16.5039 -13.916 23.4375 -13.916 L 48.2422 -13.916 C 54.5898 -13.916 58.7891 -10.6934 58.7891 -5.51758 C 58.7891 4.05273 46.9238 21.3379 46.9238 33.7402 C 46.9238 40.2344 51.123 44.0918 56.6895 44.0918 C 61.6699 44.0918 64.2578 40.625 66.8945 35.3027 C 77.2461 14.9414 91.3086 -1.5625 102.002 -15.7227 C 111.035 -27.7832 115.381 -37.9395 115.625 -54.541 C 116.113 -80.2734 95.2148 -99.8047 62.5488 -100.098 L 52.9297 -100.195 C 43.7988 -100.244 37.1094 -99.5605 33.252 -98.5352 Z M 150.488 -55.0781 C 150.488 -75.9766 137.988 -93.4082 120.557 -93.4082 L 108.643 -93.4082 C 120.801 -84.0332 126.416 -70.0684 126.172 -54.3945 C 125.928 -37.1582 119.092 -24.2188 112.695 -16.5527 L 123.193 -16.5527 C 138.867 -16.5527 150.488 -33.4961 150.488 -55.0781 Z"/>
  </g>
  <g id="Heavy-L" transform="matrix(1 0 0 1 2557.61 1556)">
   <path d="M 32.7637 -96.875 C 27.4414 -95.6055 22.168 -92.1875 22.168 -85.6445 C 22.168 -83.0078 22.8516 -81.1523 23.7793 -79.6387 C 24.3164 -78.7109 24.2188 -78.0273 23.4375 -77.7344 C 19.1406 -75.8301 15.5762 -72.0215 15.5762 -66.5527 C 15.5762 -63.4277 16.4062 -60.6934 17.9688 -58.7402 C 18.75 -57.7148 18.5547 -56.8848 17.3828 -56.2012 C 14.209 -54.3945 12.1094 -50.4395 12.1094 -45.9961 C 12.1094 -42.8223 13.1836 -39.4043 15.0391 -37.6953 C 16.0645 -36.7676 15.918 -36.084 14.6973 -35.1074 C 12.5 -33.4473 11.2793 -30.1758 11.2793 -26.3184 C 11.2793 -19.6777 16.4062 -14.2578 23.1445 -14.2578 L 47.3633 -14.2578 C 53.5156 -14.2578 57.6172 -11.1328 57.6172 -6.05469 C 57.6172 3.27148 46.0938 20.1172 46.0938 32.2754 C 46.0938 38.5742 50.1953 42.3828 55.5664 42.3828 C 60.4492 42.3828 62.9395 38.9648 65.5762 33.7891 C 75.6836 13.8672 89.3555 -2.19727 99.8047 -16.0156 C 108.643 -27.7832 112.891 -37.6953 113.135 -53.9062 C 113.525 -79.0039 93.2129 -98.0469 61.2793 -98.3398 L 51.9043 -98.4375 C 43.0176 -98.4863 36.4746 -97.8027 32.7637 -96.875 Z M 146.875 -54.4434 C 146.875 -74.8047 134.619 -91.8457 117.578 -91.8457 L 105.664 -91.8457 C 117.725 -82.7637 123.242 -69.1406 122.998 -53.7598 C 122.754 -36.7676 116.064 -24.2676 109.912 -16.8457 L 120.166 -16.8457 C 135.449 -16.8457 146.875 -33.3496 146.875 -54.4434 Z"/>
  </g>
  <g id="Bold-L" transform="matrix(1 0 0 1 2262.93 1556)">
   <path d="M 32.1289 -94.9707 C 27.002 -93.75 21.875 -90.4297 21.875 -84.082 C 21.875 -81.4941 22.5098 -79.6875 23.4375 -78.1738 C 23.9258 -77.3438 23.877 -76.6602 23.0957 -76.3672 C 18.9453 -74.5117 15.4297 -70.8008 15.4297 -65.4785 C 15.4297 -62.4512 16.2598 -59.7656 17.7734 -57.8613 C 18.5547 -56.8848 18.3594 -56.0547 17.1875 -55.3711 C 14.1113 -53.6621 12.1094 -49.8047 12.1094 -45.5078 C 12.1094 -42.3828 13.1348 -39.0625 14.9414 -37.4512 C 15.918 -36.5234 15.7715 -35.8887 14.5996 -34.9121 C 12.4512 -33.252 11.2793 -30.127 11.2793 -26.3672 C 11.2793 -19.873 16.2598 -14.6484 22.8516 -14.6484 L 46.3867 -14.6484 C 52.3438 -14.6484 56.3477 -11.5723 56.3477 -6.64062 C 56.3477 2.39258 45.1172 18.7988 45.1172 30.5664 C 45.1172 36.7188 49.1211 40.3809 54.3457 40.3809 C 59.082 40.3809 61.5234 37.1094 64.0625 32.0801 C 73.877 12.7441 87.207 -2.92969 97.3633 -16.3086 C 105.908 -27.7832 110.107 -37.4512 110.303 -53.2227 C 110.645 -77.5879 90.918 -96.1426 59.9121 -96.3867 L 50.7812 -96.4844 C 42.1387 -96.5332 35.791 -95.8984 32.1289 -94.9707 Z M 142.822 -53.7109 C 142.822 -73.5352 130.811 -90.0391 114.258 -90.0391 L 102.393 -90.0391 C 114.258 -81.2988 119.727 -68.1152 119.482 -53.0762 C 119.238 -36.377 112.695 -24.3652 106.836 -17.1387 L 116.797 -17.1387 C 131.641 -17.1387 142.822 -33.2031 142.822 -53.7109 Z"/>
  </g>
  <g id="Semibold-L" transform="matrix(1 0 0 1 1967.61 1556)">
   <path d="M 31.7383 -93.6523 C 26.709 -92.4316 21.6309 -89.209 21.6309 -82.959 C 21.6309 -80.4688 22.3145 -78.6621 23.1934 -77.1973 C 23.6816 -76.3672 23.584 -75.7324 22.8516 -75.3906 C 18.7988 -73.584 15.3809 -69.9219 15.3809 -64.7461 C 15.3809 -61.7676 16.1621 -59.1797 17.6758 -57.2754 C 18.4082 -56.2988 18.2129 -55.5176 17.0898 -54.834 C 14.0625 -53.125 12.1094 -49.3652 12.1094 -45.166 C 12.1094 -42.1387 13.0859 -38.8672 14.8926 -37.2559 C 15.8691 -36.3281 15.6738 -35.6934 14.5508 -34.7656 C 12.4512 -33.1543 11.2793 -30.0781 11.2793 -26.416 C 11.2793 -20.0684 16.1621 -14.8926 22.6074 -14.8926 L 45.7031 -14.8926 C 51.5625 -14.8926 55.4688 -11.9141 55.4688 -7.08008 C 55.4688 1.80664 44.4336 17.8711 44.4336 29.4434 C 44.4336 35.4492 48.3887 39.0625 53.5156 39.0625 C 58.1543 39.0625 60.5469 35.791 63.0371 30.9082 C 72.6562 11.9141 85.7422 -3.41797 95.6543 -16.5527 C 104.053 -27.7832 108.203 -37.2559 108.35 -52.7344 C 108.691 -76.6113 89.3555 -94.7754 58.9844 -95.0195 L 50.0488 -95.1172 C 41.5039 -95.2148 35.3516 -94.5801 31.7383 -93.6523 Z M 140.039 -53.2227 C 140.039 -72.6074 128.223 -88.8672 112.012 -88.8672 L 100.098 -88.8672 C 111.865 -80.3223 117.285 -67.3828 117.041 -52.5879 C 116.797 -36.084 110.4 -24.4629 104.736 -17.334 L 114.453 -17.334 C 129.053 -17.334 140.039 -33.1055 140.039 -53.2227 Z"/>
  </g>
  <g id="Medium-L" transform="matrix(1 0 0 1 1671.95 1556)">
   <path d="M 31.4453 -92.627 C 26.4648 -91.4551 21.4844 -88.2324 21.4844 -82.1289 C 21.4844 -79.6387 22.1191 -77.8809 22.998 -76.4648 C 23.4863 -75.6348 23.4375 -75 22.7051 -74.6582 C 18.6523 -72.9004 15.332 -69.2871 15.332 -64.1602 C 15.332 -61.2793 16.1133 -58.6914 17.5781 -56.8359 C 18.3105 -55.8594 18.1152 -55.0781 16.9922 -54.4434 C 14.0137 -52.7832 12.1094 -49.0723 12.1094 -44.873 C 12.1094 -41.8945 13.0371 -38.6719 14.8438 -37.1094 C 15.7715 -36.2305 15.625 -35.5957 14.502 -34.668 C 12.4023 -33.0566 11.2793 -30.0293 11.2793 -26.416 C 11.2793 -20.166 16.1133 -15.0879 22.4609 -15.0879 L 45.166 -15.0879 C 50.9277 -15.0879 54.7852 -12.1582 54.7852 -7.42188 C 54.7852 1.31836 43.9453 17.1875 43.9453 28.5645 C 43.9453 34.5215 47.8027 38.0371 52.8809 38.0371 C 57.4707 38.0371 59.7656 34.8145 62.2559 29.9805 C 71.7285 11.2793 84.5703 -3.80859 94.3848 -16.6992 C 102.637 -27.7832 106.738 -37.1094 106.885 -52.3438 C 107.178 -75.8789 88.1836 -93.7988 58.252 -93.9941 L 49.4141 -94.0918 C 41.0645 -94.1895 34.9609 -93.5547 31.4453 -92.627 Z M 137.939 -52.832 C 137.939 -71.9238 126.221 -87.9395 110.254 -87.9395 L 98.3887 -87.9395 C 110.059 -79.541 115.43 -66.8457 115.186 -52.1973 C 114.941 -35.8887 108.643 -24.5117 103.125 -17.5293 L 112.646 -17.5293 C 127.051 -17.5293 137.939 -33.0078 137.939 -52.832 Z"/>
  </g>
  <g id="Regular-L" transform="matrix(1 0 0 1 1376.63 1556)">
   <path d="M 31.0547 -91.3574 C 26.1719 -90.1855 21.2891 -87.0605 21.2891 -81.0547 C 21.2891 -78.6133 21.9238 -76.9043 22.7539 -75.4883 C 23.2422 -74.6582 23.1934 -74.0723 22.4609 -73.7305 C 18.5059 -71.9727 15.2344 -68.457 15.2344 -63.4277 C 15.2344 -60.5957 16.0156 -58.0566 17.4316 -56.2988 C 18.1641 -55.3223 17.9688 -54.541 16.8457 -53.9062 C 13.9648 -52.2949 12.0605 -48.6328 12.0605 -44.5312 C 12.0605 -41.6504 13.0371 -38.4766 14.7461 -36.9141 C 15.6738 -36.0352 15.5273 -35.4492 14.4531 -34.5703 C 12.4023 -32.959 11.2793 -30.0293 11.2793 -26.4648 C 11.2793 -20.3125 16.0156 -15.3809 22.2168 -15.3809 L 44.4824 -15.3809 C 50.1465 -15.3809 53.9551 -12.4512 53.9551 -7.8125 C 53.9551 0.732422 43.3105 16.2598 43.3105 27.4414 C 43.3105 33.252 47.1191 36.7188 52.0508 36.7188 C 56.543 36.7188 58.7891 33.5938 61.2305 28.8574 C 70.5566 10.498 83.1055 -4.24805 92.7246 -16.9434 C 100.83 -27.7832 104.834 -36.9141 104.98 -51.8555 C 105.225 -74.9023 86.6699 -92.4805 57.3242 -92.6758 L 48.6816 -92.7734 C 40.4785 -92.8223 34.5215 -92.2363 31.0547 -91.3574 Z M 135.156 -52.3438 C 135.156 -71.0449 123.633 -86.7188 108.008 -86.7188 L 96.1426 -86.7188 C 107.666 -78.5645 112.988 -66.1133 112.793 -51.709 C 112.549 -35.5957 106.348 -24.5605 101.025 -17.7246 L 110.352 -17.7246 C 124.463 -17.7246 135.156 -32.9102 135.156 -52.3438 Z"/>
  </g>
  <g id="Light-L" transform="matrix(1 0 0 1 1081.09 1556)">
   <path d="M 30.7617 -90.4785 C 25.9766 -89.3555 21.1426 -86.2793 21.1426 -80.3711 C 21.1426 -77.9785 21.7773 -76.2207 22.6074 -74.8535 C 23.0957 -74.0234 23.0469 -73.4375 22.3145 -73.1445 C 18.4082 -71.3867 15.1855 -67.9199 15.1855 -62.9883 C 15.1855 -60.2051 15.9668 -57.666 17.334 -55.9082 C 18.0664 -54.9316 17.9199 -54.1992 16.7969 -53.5645 C 13.9648 -51.9531 12.0605 -48.3398 12.0605 -44.3359 C 12.0605 -41.4551 12.9883 -38.3301 14.6973 -36.8164 C 15.625 -35.9375 15.4785 -35.3516 14.4043 -34.4727 C 12.4023 -32.9102 11.2793 -29.9805 11.2793 -26.4648 C 11.2793 -20.459 15.9668 -15.5273 22.1191 -15.5273 L 44.0918 -15.5273 C 49.6094 -15.5273 53.3691 -12.6465 53.3691 -8.10547 C 53.3691 0.341797 42.8711 15.6738 42.8711 26.6602 C 42.8711 32.4219 46.6309 35.8398 51.5137 35.8398 C 55.957 35.8398 58.1543 32.7637 60.5469 28.0762 C 69.7754 10.0098 82.1777 -4.58984 91.6504 -17.0898 C 99.6094 -27.7832 103.662 -36.8164 103.76 -51.5625 C 103.906 -74.2676 85.6445 -91.6016 56.6895 -91.7969 L 48.1934 -91.8945 C 40.0879 -91.9922 34.2285 -91.3574 30.7617 -90.4785 Z M 132.812 -52.0508 C 132.812 -70.5078 121.582 -85.9375 106.201 -85.9375 L 93.457 -85.9375 C 105.225 -78.0762 110.645 -65.7715 110.4 -51.416 C 110.205 -35.1074 104.053 -24.6094 99.0723 -17.8223 L 108.496 -17.8223 C 122.412 -17.8223 132.812 -32.8125 132.812 -52.0508 Z"/>
  </g>
  <g id="Thin-L" transform="matrix(1 0 0 1 785.939 1556)">
   <path d="M 30.4199 -89.3555 C 25.7324 -88.2324 20.9961 -85.2539 20.9961 -79.4434 C 20.9961 -77.0996 21.6309 -75.3906 22.4121 -74.0234 C 22.9004 -73.1934 22.8516 -72.6562 22.1191 -72.3145 C 18.3105 -70.6055 15.1367 -67.2363 15.1367 -62.3535 C 15.1367 -59.6191 15.8691 -57.1289 17.2363 -55.4199 C 17.9688 -54.4434 17.8223 -53.7109 16.6992 -53.0762 C 13.916 -51.5625 12.0605 -47.998 12.0605 -44.043 C 12.0605 -41.2109 12.9883 -38.1348 14.6484 -36.6699 C 15.5762 -35.791 15.3809 -35.2051 14.3555 -34.3262 C 12.4023 -32.8125 11.2793 -29.9805 11.2793 -26.5137 C 11.2793 -20.6055 15.8691 -15.7715 21.9238 -15.7715 L 43.5059 -15.7715 C 48.9258 -15.7715 52.6367 -12.9395 52.6367 -8.49609 C 52.6367 -0.146484 42.2852 14.8926 42.2852 25.6836 C 42.2852 31.3477 46.0449 34.668 50.7812 34.668 C 55.1758 34.668 57.3242 31.6895 59.668 27.0996 C 68.75 9.32617 80.9082 -4.98047 90.2344 -17.2852 C 98.0469 -27.7832 102.1 -36.6699 102.1 -51.123 C 102.148 -73.4375 84.3262 -90.4785 55.9082 -90.6738 L 47.5586 -90.7227 C 39.5508 -90.8203 33.8379 -90.2344 30.4199 -89.3555 Z M 129.688 -51.6113 C 129.688 -69.7266 118.896 -84.9121 103.76 -84.9121 L 89.8926 -84.9121 C 101.953 -77.4414 107.568 -65.3809 107.324 -50.9766 C 107.08 -34.4727 101.025 -24.6582 96.4844 -18.0176 L 106.006 -18.0176 C 119.678 -18.0176 129.688 -32.7148 129.688 -51.6113 Z"/>
  </g>
  <g id="Ultralight-L" transform="matrix(1 0 0 1 490.033 1556)">
   <path d="M 30.2734 -88.7695 C 25.6348 -87.6953 20.8984 -84.7168 20.8984 -78.9551 C 20.8984 -76.6113 21.5332 -74.9512 22.3145 -73.584 C 22.8027 -72.8027 22.7539 -72.2168 22.0215 -71.9238 C 18.2617 -70.2148 15.1367 -66.8457 15.1367 -62.0605 C 15.1367 -59.3262 15.8691 -56.8359 17.1875 -55.1758 C 17.9199 -54.1992 17.7734 -53.4668 16.6504 -52.832 C 13.916 -51.3184 12.0605 -47.8027 12.0605 -43.8965 C 12.0605 -41.0645 12.9395 -38.0371 14.6484 -36.6211 C 15.5273 -35.6934 15.3809 -35.1562 14.3066 -34.2773 C 12.4023 -32.7637 11.2793 -29.9316 11.2793 -26.5137 C 11.2793 -20.6543 15.8691 -15.8691 21.875 -15.8691 L 43.2129 -15.8691 C 48.584 -15.8691 52.2949 -13.0371 52.2949 -8.64258 C 52.2949 -0.390625 42.041 14.502 42.041 25.1953 C 42.041 30.8105 45.7031 34.082 50.4395 34.082 C 54.7363 34.082 56.9336 31.1523 59.2285 26.5625 C 68.2129 8.93555 80.2734 -5.22461 89.502 -17.3828 C 97.2656 -27.7832 101.27 -36.6211 101.27 -50.9277 C 101.221 -72.998 83.6426 -89.9414 55.4688 -90.0879 L 47.2168 -90.1367 C 39.3066 -90.2344 33.6426 -89.6973 30.2734 -88.7695 Z M 128.076 -51.416 C 128.076 -69.3359 117.48 -84.375 102.539 -84.375 L 88.0859 -84.375 C 100.293 -77.0996 105.957 -65.1855 105.713 -50.7812 C 105.469 -34.1309 99.4629 -24.6582 95.166 -18.1152 L 104.736 -18.1152 C 118.311 -18.1152 128.076 -32.666 128.076 -51.416 Z"/>
  </g>
  <g id="Black-M" transform="matrix(1 0 0 1 2868.92 1126)">
   <path d="M 26.3672 -86.1328 C 21.9727 -85.1562 17.6758 -82.3242 17.6758 -76.9531 C 17.6758 -74.7559 18.2617 -73.291 18.9941 -72.0215 C 19.4336 -71.2891 19.3848 -70.7031 18.75 -70.459 C 15.1855 -68.8965 12.2559 -65.7715 12.2559 -61.2793 C 12.2559 -58.6914 12.9395 -56.4453 14.2578 -54.834 C 14.8438 -54.0039 14.6973 -53.3203 13.7207 -52.7832 C 11.1328 -51.2695 9.42383 -48.0469 9.42383 -44.3848 C 9.42383 -41.7969 10.3027 -38.9648 11.8164 -37.5977 C 12.6953 -36.8164 12.5488 -36.2793 11.5723 -35.4492 C 9.7168 -34.082 8.74023 -31.3965 8.74023 -28.2715 C 8.74023 -22.7539 12.9395 -18.3594 18.5059 -18.3594 L 38.3789 -18.3594 C 43.4082 -18.3594 46.7773 -15.7715 46.7773 -11.5723 C 46.7773 -3.95508 37.3047 9.91211 37.3047 19.8242 C 37.3047 25.0488 40.6738 28.1738 45.1172 28.1738 C 49.1211 28.1738 51.1719 25.3418 53.3203 21.0938 C 61.6211 4.78516 72.8516 -8.44727 81.3965 -19.7754 C 88.6719 -29.4434 92.1875 -37.5977 92.334 -50.8789 C 92.7246 -71.5332 75.9766 -87.1582 49.8047 -87.4023 L 42.0898 -87.4512 C 34.8145 -87.5 29.4434 -86.9629 26.3672 -86.1328 Z M 120.215 -51.3184 C 120.215 -68.0664 110.449 -82.0312 96.4355 -82.0312 L 86.7188 -82.0312 C 96.4844 -74.5117 100.977 -63.3301 100.781 -50.7812 C 100.586 -36.9629 95.1172 -26.6113 89.9902 -20.459 L 98.5352 -20.459 C 111.133 -20.459 120.215 -34.0332 120.215 -51.3184 Z"/>
  </g>
  <g id="Heavy-M" transform="matrix(1 0 0 1 2573.87 1126)">
   <path d="M 25.8301 -84.5215 C 21.6309 -83.5449 17.4316 -80.8105 17.4316 -75.5859 C 17.4316 -73.4863 17.9688 -72.0215 18.7012 -70.8008 C 19.0918 -70.0684 19.043 -69.5312 18.457 -69.2871 C 14.9902 -67.7734 12.1582 -64.6973 12.1582 -60.3516 C 12.1582 -57.8613 12.793 -55.6641 14.0625 -54.1016 C 14.6973 -53.3203 14.502 -52.6367 13.5742 -52.0996 C 11.0352 -50.6348 9.42383 -47.5098 9.42383 -43.9453 C 9.42383 -41.4062 10.2539 -38.6719 11.7188 -37.3535 C 12.5488 -36.6211 12.4512 -36.084 11.4746 -35.3027 C 9.7168 -33.9355 8.74023 -31.3477 8.74023 -28.3203 C 8.74023 -22.998 12.793 -18.6523 18.2129 -18.6523 L 37.5 -18.6523 C 42.4316 -18.6523 45.7031 -16.1621 45.7031 -12.1094 C 45.7031 -4.73633 36.4746 8.74023 36.4746 18.4082 C 36.4746 23.4375 39.7461 26.4648 44.043 26.4648 C 47.9492 26.4648 49.9512 23.7305 52.002 19.6289 C 60.0586 3.75977 70.9961 -9.08203 79.2969 -20.0684 C 86.3281 -29.4434 89.7461 -37.3535 89.9414 -50.293 C 90.2832 -70.3125 74.0234 -85.498 48.584 -85.6934 L 41.1621 -85.791 C 34.0332 -85.8398 28.8086 -85.3027 25.8301 -84.5215 Z M 116.895 -50.7324 C 116.895 -66.9434 107.275 -80.5176 93.6523 -80.5176 L 84.1797 -80.5176 C 93.75 -73.2422 98.1445 -62.4023 97.9492 -50.1465 C 97.7539 -36.6699 92.4316 -26.6602 87.5 -20.752 L 95.752 -20.752 C 107.91 -20.752 116.895 -33.8867 116.895 -50.7324 Z"/>
  </g>
  <g id="Bold-M" transform="matrix(1 0 0 1 2279.02 1126)">
   <path d="M 25.293 -82.666 C 21.1914 -81.6895 17.1387 -79.1016 17.1387 -74.0723 C 17.1387 -72.0215 17.627 -70.5566 18.3594 -69.3848 C 18.75 -68.7012 18.7012 -68.1641 18.1152 -67.9199 C 14.7949 -66.4551 12.0117 -63.5254 12.0117 -59.3262 C 12.0117 -56.9336 12.6953 -54.834 13.916 -53.2715 C 14.502 -52.5391 14.3066 -51.8555 13.4277 -51.3184 C 10.9863 -49.9512 9.375 -46.9238 9.375 -43.5059 C 9.375 -41.0156 10.2051 -38.3789 11.6211 -37.1094 C 12.4512 -36.377 12.3047 -35.8398 11.377 -35.1074 C 9.66797 -33.7891 8.74023 -31.2988 8.74023 -28.3691 C 8.74023 -23.1934 12.6953 -19.043 17.9199 -19.043 L 36.5234 -19.043 C 41.3086 -19.043 44.4336 -16.6016 44.4336 -12.6953 C 44.4336 -5.56641 35.5469 7.4707 35.5469 16.7969 C 35.5469 21.6797 38.7207 24.5605 42.8711 24.5605 C 46.6309 24.5605 48.5352 21.9238 50.5859 17.9688 C 58.3496 2.63672 68.8965 -9.76562 76.9531 -20.3613 C 83.7402 -29.4434 87.0605 -37.1094 87.207 -49.6094 C 87.5 -68.9453 71.8262 -83.5938 47.2656 -83.8379 L 40.0391 -83.8867 C 33.2031 -83.9355 28.1738 -83.3984 25.293 -82.666 Z M 113.184 -50 C 113.184 -65.7227 103.711 -78.8086 90.5762 -78.8086 L 81.3965 -78.8086 C 90.6738 -71.8262 94.9707 -61.3281 94.7754 -49.4629 C 94.5801 -36.377 89.4043 -26.7578 84.7168 -21.0449 L 92.5781 -21.0449 C 104.346 -21.0449 113.184 -33.7402 113.184 -50 Z"/>
  </g>
  <g id="Semibold-M" transform="matrix(1 0 0 1 1983.6 1126)">
   <path d="M 24.9023 -81.3965 C 20.8984 -80.4688 16.8945 -77.8809 16.8945 -72.998 C 16.8945 -70.9961 17.4316 -69.5801 18.1152 -68.457 C 18.5059 -67.7734 18.457 -67.2852 17.8711 -67.041 C 14.6484 -65.5762 11.9629 -62.6953 11.9629 -58.5938 C 11.9629 -56.2988 12.5977 -54.1992 13.7695 -52.7344 C 14.3555 -51.9531 14.209 -51.3184 13.3301 -50.8301 C 10.9375 -49.4629 9.375 -46.4844 9.375 -43.1641 C 9.375 -40.7715 10.1562 -38.1836 11.5723 -36.9141 C 12.3535 -36.2305 12.207 -35.6934 11.3281 -34.9609 C 9.66797 -33.6914 8.74023 -31.25 8.74023 -28.3691 C 8.74023 -23.3398 12.5977 -19.2871 17.6758 -19.2871 L 35.8887 -19.2871 C 40.5273 -19.2871 43.6035 -16.9434 43.6035 -13.1348 C 43.6035 -6.10352 34.9121 6.54297 34.9121 15.6738 C 34.9121 20.459 37.9883 23.291 42.041 23.291 C 45.7031 23.291 47.6074 20.7031 49.5605 16.8457 C 57.1777 1.85547 67.4805 -10.2539 75.293 -20.6055 C 81.9336 -29.4434 85.1562 -36.9141 85.3516 -49.1211 C 85.6445 -67.9688 70.3613 -82.3242 46.3379 -82.5195 L 39.3066 -82.5684 C 32.6172 -82.666 27.6855 -82.1289 24.9023 -81.3965 Z M 110.596 -49.5117 C 110.596 -64.8438 101.27 -77.6367 88.4766 -77.6367 L 79.4434 -77.6367 C 88.5254 -70.8496 92.7734 -60.5957 92.5781 -49.0234 C 92.3828 -36.1816 87.3535 -26.8066 82.7637 -21.2402 L 90.3809 -21.2402 C 101.904 -21.2402 110.596 -33.6426 110.596 -49.5117 Z"/>
  </g>
  <g id="Medium-M" transform="matrix(1 0 0 1 1687.86 1126)">
   <path d="M 24.5605 -80.4688 C 20.6543 -79.4922 16.748 -77.002 16.748 -72.168 C 16.748 -70.2148 17.2852 -68.8477 17.9688 -67.7246 C 18.3594 -67.0898 18.2617 -66.5527 17.7246 -66.3086 C 14.5508 -64.9414 11.9141 -62.1094 11.9141 -58.0566 C 11.9141 -55.7617 12.5488 -53.7598 13.6719 -52.2949 C 14.2578 -51.5625 14.1113 -50.9277 13.2324 -50.4395 C 10.8887 -49.0723 9.375 -46.1914 9.375 -42.9199 C 9.375 -40.5762 10.1562 -38.0371 11.5234 -36.7676 C 12.2559 -36.084 12.1582 -35.5957 11.2793 -34.8633 C 9.61914 -33.6426 8.74023 -31.25 8.74023 -28.3691 C 8.74023 -23.4863 12.5488 -19.4824 17.5293 -19.4824 L 35.4004 -19.4824 C 39.9414 -19.4824 42.9688 -17.1387 42.9688 -13.4277 C 42.9688 -6.54297 34.4238 5.9082 34.4238 14.8438 C 34.4238 19.5312 37.4512 22.3145 41.4551 22.3145 C 45.0195 22.3145 46.875 19.7754 48.8281 15.9668 C 56.25 1.26953 66.3574 -10.5957 74.0723 -20.752 C 80.5664 -29.4434 83.7402 -36.7676 83.9355 -48.7793 C 84.1797 -67.2852 69.1895 -81.3477 45.6543 -81.543 L 38.7207 -81.5918 C 32.1777 -81.6406 27.3438 -81.1523 24.5605 -80.4688 Z M 108.643 -49.1699 C 108.643 -64.1602 99.4141 -76.7578 86.8652 -76.7578 L 77.9297 -76.7578 C 86.9629 -70.0684 91.0645 -60.0586 90.918 -48.6328 C 90.7227 -35.9863 85.791 -26.8555 81.2988 -21.3867 L 88.7207 -21.3867 C 100.049 -21.3867 108.643 -33.5449 108.643 -49.1699 Z"/>
  </g>
  <g id="Regular-M" transform="matrix(1 0 0 1 1392.42 1126)">
   <path d="M 24.1699 -79.1992 C 20.3613 -78.2715 16.5527 -75.8301 16.5527 -71.1426 C 16.5527 -69.2383 17.041 -67.8711 17.7246 -66.7969 C 18.1152 -66.1621 18.0664 -65.6738 17.4805 -65.4297 C 14.4043 -64.0625 11.8164 -61.2793 11.8164 -57.373 C 11.8164 -55.127 12.4512 -53.1738 13.5254 -51.7578 C 14.1113 -51.0254 13.9648 -50.3906 13.1348 -49.9023 C 10.8398 -48.6328 9.375 -45.8008 9.375 -42.5781 C 9.375 -40.2832 10.1074 -37.8418 11.4746 -36.6211 C 12.207 -35.9375 12.0605 -35.4492 11.2305 -34.7656 C 9.61914 -33.5449 8.74023 -31.2012 8.74023 -28.418 C 8.74023 -23.6328 12.4512 -19.7266 17.2852 -19.7266 L 34.7168 -19.7266 C 39.1602 -19.7266 42.0898 -17.4805 42.0898 -13.8184 C 42.0898 -7.12891 33.7891 4.98047 33.7891 13.7695 C 33.7891 18.3105 36.7676 20.9961 40.625 20.9961 C 44.1406 20.9961 45.9473 18.5547 47.8516 14.8438 C 55.0781 0.488281 64.9414 -11.0352 72.4609 -20.9961 C 78.8086 -29.4434 81.9336 -36.6211 82.0801 -48.291 C 82.3242 -66.3574 67.7246 -80.0781 44.7754 -80.2246 L 37.9883 -80.3223 C 31.5918 -80.3711 26.9043 -79.8828 24.1699 -79.1992 Z M 106.104 -48.6816 C 106.104 -63.3301 96.9727 -75.5859 84.7656 -75.5859 L 76.0254 -75.5859 C 84.8633 -69.0918 88.916 -59.3262 88.7207 -48.1934 C 88.5254 -35.791 83.7402 -26.9531 79.3945 -21.582 L 86.5723 -21.582 C 97.6074 -21.582 106.104 -33.4473 106.104 -48.6816 Z"/>
  </g>
  <g id="Light-M" transform="matrix(1 0 0 1 1096.76 1126)">
   <path d="M 23.9746 -78.418 C 20.2148 -77.5391 16.4551 -75.1465 16.4551 -70.5078 C 16.4551 -68.6523 16.9434 -67.2852 17.5781 -66.2109 C 17.9688 -65.5762 17.9199 -65.1367 17.334 -64.8926 C 14.3066 -63.5254 11.8164 -60.791 11.8164 -56.9336 C 11.8164 -54.7852 12.4023 -52.7832 13.4766 -51.416 C 14.0625 -50.6836 13.916 -50.0977 13.0371 -49.5605 C 10.8398 -48.3398 9.375 -45.5078 9.375 -42.3828 C 9.375 -40.1367 10.0586 -37.6953 11.4258 -36.5234 C 12.1582 -35.8398 12.0117 -35.3516 11.1816 -34.668 C 9.61914 -33.4473 8.74023 -31.2012 8.74023 -28.418 C 8.74023 -23.7305 12.4023 -19.873 17.1875 -19.873 L 34.3262 -19.873 C 38.6719 -19.873 41.6016 -17.627 41.6016 -14.0625 C 41.6016 -7.4707 33.3984 4.49219 33.3984 13.0859 C 33.3984 17.5781 36.3281 20.2148 40.1367 20.2148 C 43.6035 20.2148 45.3613 17.8223 47.2168 14.1602 C 54.3945 0.0488281 64.1113 -11.3281 71.4844 -21.0938 C 77.7344 -29.4434 80.8594 -36.5234 80.957 -48.0469 C 81.1035 -65.7715 66.8457 -79.2969 44.1895 -79.4434 L 37.5488 -79.541 C 31.25 -79.5898 26.6602 -79.1016 23.9746 -78.418 Z M 104.004 -48.3887 C 104.004 -62.793 95.166 -74.9023 83.1055 -74.9023 L 73.6328 -74.9023 C 82.666 -68.6523 86.8164 -59.0332 86.6211 -47.9004 C 86.4258 -35.3516 81.6895 -26.9531 77.6367 -21.6797 L 84.9121 -21.6797 C 95.752 -21.6797 104.004 -33.3984 104.004 -48.3887 Z"/>
  </g>
  <g id="Thin-M" transform="matrix(1 0 0 1 801.466 1126)">
   <path d="M 23.6328 -77.4414 C 20.0195 -76.5625 16.3086 -74.2188 16.3086 -69.6777 C 16.3086 -67.8711 16.7969 -66.5527 17.4316 -65.4785 C 17.7734 -64.8438 17.7246 -64.4043 17.1875 -64.1602 C 14.209 -62.8418 11.7676 -60.1562 11.7676 -56.3965 C 11.7676 -54.248 12.3047 -52.2949 13.3789 -50.9766 C 13.9648 -50.2441 13.8184 -49.6582 12.9395 -49.1699 C 10.791 -47.9492 9.375 -45.2148 9.375 -42.1387 C 9.375 -39.8926 10.0586 -37.5488 11.377 -36.377 C 12.0605 -35.6934 11.9629 -35.2539 11.1328 -34.5703 C 9.61914 -33.3496 8.74023 -31.1523 8.74023 -28.4668 C 8.74023 -23.877 12.3047 -20.0684 17.041 -20.0684 L 33.8379 -20.0684 C 38.0859 -20.0684 40.9668 -17.8711 40.9668 -14.4043 C 40.9668 -7.91016 32.9102 3.75977 32.9102 12.207 C 32.9102 16.6016 35.791 19.1895 39.502 19.1895 C 42.9199 19.1895 44.6289 16.8457 46.4355 13.2812 C 53.4668 -0.585938 62.9883 -11.7188 70.2148 -21.2891 C 76.3184 -29.4434 79.4434 -36.377 79.4922 -47.6562 C 79.541 -65.0391 65.625 -78.3203 43.5059 -78.418 L 37.0117 -78.5156 C 30.7617 -78.5645 26.2695 -78.125 23.6328 -77.4414 Z M 101.172 -48.0469 C 101.172 -62.1094 92.7246 -73.9746 80.957 -73.9746 L 70.459 -73.9746 C 79.7363 -68.0664 84.0332 -58.6914 83.8379 -47.5098 C 83.6426 -34.7656 78.9551 -27.002 75.3418 -21.875 L 82.7148 -21.875 C 93.3594 -21.875 101.172 -33.3008 101.172 -48.0469 Z"/>
  </g>
  <g id="Ultralight-M" transform="matrix(1 0 0 1 505.463 1126)">
   <path d="M 23.4863 -76.9043 C 19.873 -76.0254 16.2109 -73.7305 16.2109 -69.2383 C 16.2109 -67.4316 16.6992 -66.1621 17.334 -65.0879 C 17.7246 -64.4531 17.627 -64.0137 17.0898 -63.7695 C 14.1602 -62.4512 11.7188 -59.8633 11.7188 -56.1035 C 11.7188 -54.0039 12.3047 -52.0508 13.3301 -50.7812 C 13.916 -50 13.7695 -49.4629 12.8906 -48.9746 C 10.791 -47.7539 9.375 -45.0195 9.375 -41.9922 C 9.375 -39.7949 10.0586 -37.4512 11.377 -36.3281 C 12.0605 -35.6445 11.9141 -35.2051 11.084 -34.5215 C 9.61914 -33.3008 8.74023 -31.1523 8.74023 -28.4668 C 8.74023 -23.9258 12.3047 -20.166 16.9434 -20.166 L 33.5938 -20.166 C 37.7441 -20.166 40.625 -18.0176 40.625 -14.5996 C 40.625 -8.1543 32.666 3.41797 32.666 11.7676 C 32.666 16.1133 35.498 18.6523 39.209 18.6523 C 42.5293 18.6523 44.2383 16.3574 46.0449 12.793 C 53.0273 -0.878906 62.4023 -11.9141 69.5801 -21.3867 C 75.6348 -29.4434 78.7109 -36.3281 78.7109 -47.4609 C 78.7109 -64.6484 65.0391 -77.7832 43.1152 -77.9297 L 36.7188 -77.9785 C 30.5176 -78.0273 26.123 -77.5879 23.4863 -76.9043 Z M 99.7559 -47.8516 C 99.7559 -61.7676 91.4551 -73.4863 79.834 -73.4863 L 68.7988 -73.4863 C 78.2227 -67.7734 82.6172 -58.4961 82.4219 -47.3145 C 82.2266 -34.4727 77.5391 -27.0508 74.1699 -21.9238 L 81.543 -21.9238 C 92.0898 -21.9238 99.7559 -33.252 99.7559 -47.8516 Z"/>
  </g>
  <g id="Black-S" transform="matrix(1 0 0 1 2883.01 696)">
   <path d="M 20.6055 -75 C 17.1875 -74.2188 13.8184 -72.0215 13.8184 -67.8223 C 13.8184 -66.1133 14.2578 -64.9414 14.8438 -63.9648 C 15.1855 -63.3789 15.1367 -62.9395 14.6484 -62.7441 C 11.8652 -61.5234 9.57031 -59.082 9.57031 -55.5664 C 9.57031 -53.5645 10.1074 -51.8066 11.1328 -50.5371 C 11.6211 -49.9023 11.4746 -49.3652 10.7422 -48.9258 C 8.69141 -47.7539 7.37305 -45.2148 7.37305 -42.3828 C 7.37305 -40.332 8.05664 -38.1348 9.22852 -37.0605 C 9.91211 -36.4746 9.81445 -36.0352 9.0332 -35.4004 C 7.61719 -34.3262 6.83594 -32.2266 6.83594 -29.7852 C 6.83594 -25.4883 10.1074 -22.0215 14.4531 -22.0215 L 29.9805 -22.0215 C 33.9355 -22.0215 36.5723 -20.0195 36.5723 -16.748 C 36.5723 -10.791 29.1504 0.0488281 29.1504 7.8125 C 29.1504 11.8652 31.7871 14.3066 35.2539 14.3066 C 38.3789 14.3066 39.9902 12.1094 41.6504 8.78906 C 48.1445 -3.95508 56.9336 -14.3066 63.623 -23.1445 C 69.2871 -30.7129 72.0215 -37.0605 72.168 -47.4609 C 72.4609 -63.5742 59.375 -75.7812 38.916 -75.9766 L 32.9102 -76.0254 C 27.1973 -76.0742 22.998 -75.6348 20.6055 -75 Z M 93.9453 -47.8027 C 93.9453 -60.8887 86.2793 -71.7773 75.3418 -71.7773 L 67.7734 -71.7773 C 75.3906 -65.918 78.9062 -57.1777 78.7598 -47.3633 C 78.6133 -36.5723 74.3164 -28.4668 70.3125 -23.6816 L 77.002 -23.6816 C 86.8164 -23.6816 93.9453 -34.2773 93.9453 -47.8027 Z"/>
  </g>
  <g id="Heavy-S" transform="matrix(1 0 0 1 2587.45 696)">
   <path d="M 20.2637 -73.8281 C 16.8945 -73.0469 13.623 -70.9473 13.623 -66.8457 C 13.623 -65.1855 14.0625 -64.0137 14.6484 -63.0859 C 14.9414 -62.5 14.8926 -62.1094 14.4531 -61.9141 C 11.7188 -60.6934 9.52148 -58.3496 9.52148 -54.8828 C 9.52148 -52.9785 10.0098 -51.2695 11.0352 -50 C 11.4746 -49.4141 11.377 -48.877 10.6445 -48.4375 C 8.64258 -47.3145 7.37305 -44.8242 7.37305 -42.0898 C 7.37305 -40.0879 8.00781 -37.9395 9.17969 -36.9141 C 9.81445 -36.3281 9.7168 -35.8887 8.98438 -35.3027 C 7.61719 -34.2285 6.83594 -32.1777 6.83594 -29.7852 C 6.83594 -25.6348 10.0098 -22.2656 14.2578 -22.2656 L 29.3457 -22.2656 C 33.2031 -22.2656 35.791 -20.3125 35.791 -17.1387 C 35.791 -11.3281 28.5645 -0.78125 28.5645 6.78711 C 28.5645 10.7422 31.1035 13.0859 34.5215 13.0859 C 37.5488 13.0859 39.1113 10.9863 40.7227 7.71484 C 47.0703 -4.6875 55.6152 -14.7461 62.1094 -23.3398 C 67.627 -30.7129 70.3125 -36.9141 70.4102 -47.0215 C 70.7031 -62.6953 57.959 -74.6094 38.0859 -74.7559 L 32.2266 -74.8047 C 26.6602 -74.8535 22.5586 -74.4629 20.2637 -73.8281 Z M 91.6504 -47.3633 C 91.6504 -60.1074 84.0332 -70.7031 73.4375 -70.7031 L 66.1133 -70.7031 C 73.5352 -64.9902 76.9531 -56.4941 76.8066 -46.9238 C 76.6602 -36.4258 72.5098 -28.5156 68.6035 -23.877 L 75.0488 -23.877 C 84.5703 -23.877 91.6504 -34.1797 91.6504 -47.3633 Z"/>
  </g>
  <g id="Bold-S" transform="matrix(1 0 0 1 2292.03 696)">
   <path d="M 19.8242 -72.5098 C 16.6016 -71.7773 13.4277 -69.6777 13.4277 -65.7715 C 13.4277 -64.1602 13.8184 -63.0371 14.4043 -62.1094 C 14.6973 -61.5723 14.6484 -61.1328 14.209 -60.9375 C 11.5723 -59.8145 9.42383 -57.4707 9.42383 -54.1504 C 9.42383 -52.2949 9.91211 -50.6348 10.8887 -49.4141 C 11.3281 -48.8281 11.2305 -48.3398 10.498 -47.9004 C 8.59375 -46.8262 7.37305 -44.4336 7.37305 -41.748 C 7.37305 -39.7949 7.95898 -37.7441 9.08203 -36.7188 C 9.7168 -36.1328 9.61914 -35.7422 8.88672 -35.1562 C 7.56836 -34.1309 6.83594 -32.1289 6.83594 -29.834 C 6.83594 -25.7812 9.91211 -22.5098 14.0137 -22.5098 L 28.6621 -22.5098 C 32.4219 -22.5098 34.9121 -20.6055 34.9121 -17.5293 C 34.9121 -11.9141 27.8809 -1.70898 27.8809 5.61523 C 27.8809 9.47266 30.3711 11.7676 33.6426 11.7676 C 36.6211 11.7676 38.1348 9.66797 39.6973 6.54297 C 45.8008 -5.46875 54.1016 -15.2344 60.4004 -23.584 C 65.7715 -30.7129 68.3594 -36.7188 68.5059 -46.5332 C 68.75 -61.7188 56.4453 -73.2422 37.1094 -73.4375 L 31.4453 -73.4863 C 26.0254 -73.5352 22.1191 -73.0957 19.8242 -72.5098 Z M 89.0625 -46.875 C 89.0625 -59.1797 81.5918 -69.4824 71.2402 -69.4824 L 64.2578 -69.4824 C 71.4844 -63.9648 74.8047 -55.7129 74.6582 -46.4355 C 74.5117 -36.2305 70.459 -28.6133 66.6992 -24.0723 L 72.8027 -24.0723 C 82.0801 -24.0723 89.0625 -34.082 89.0625 -46.875 Z"/>
  </g>
  <g id="Semibold-S" transform="matrix(1 0 0 1 1996.22 696)">
   <path d="M 19.5312 -71.6309 C 16.4062 -70.8984 13.2812 -68.8477 13.2812 -64.9902 C 13.2812 -63.4277 13.6719 -62.3047 14.209 -61.4258 C 14.5508 -60.8887 14.502 -60.498 14.0137 -60.3027 C 11.4746 -59.1797 9.375 -56.8848 9.375 -53.6621 C 9.375 -51.8066 9.86328 -50.1953 10.791 -49.0234 C 11.2305 -48.4375 11.1328 -47.9492 10.4492 -47.5098 C 8.54492 -46.4355 7.32422 -44.1406 7.32422 -41.5039 C 7.32422 -39.5996 7.95898 -37.5977 9.08203 -36.5723 C 9.66797 -36.0352 9.57031 -35.6445 8.88672 -35.0586 C 7.56836 -34.0332 6.83594 -32.1289 6.83594 -29.834 C 6.83594 -25.8789 9.86328 -22.7051 13.8672 -22.7051 L 28.2227 -22.7051 C 31.8359 -22.7051 34.2773 -20.8496 34.2773 -17.8223 C 34.2773 -12.3047 27.4414 -2.34375 27.4414 4.83398 C 27.4414 8.59375 29.8828 10.8398 33.0566 10.8398 C 35.9375 10.8398 37.4512 8.78906 39.0137 5.76172 C 44.9707 -6.05469 53.0762 -15.5762 59.2773 -23.7305 C 64.502 -30.7129 66.9922 -36.5723 67.1387 -46.1914 C 67.3828 -61.0352 55.3711 -72.3145 36.4746 -72.5098 L 30.9082 -72.5586 C 25.6348 -72.6074 21.7773 -72.168 19.5312 -71.6309 Z M 87.2559 -46.4844 C 87.2559 -58.5938 79.834 -68.6523 69.7754 -68.6523 L 62.9395 -68.6523 C 70.0195 -63.2324 73.291 -55.1758 73.1445 -46.0938 C 72.998 -36.084 69.043 -28.6133 65.3809 -24.2188 L 71.2891 -24.2188 C 80.3711 -24.2188 87.2559 -33.9844 87.2559 -46.4844 Z"/>
  </g>
  <g id="Medium-S" transform="matrix(1 0 0 1 1700.19 696)">
   <path d="M 19.3359 -70.9473 C 16.2598 -70.2148 13.1836 -68.2129 13.1836 -64.4043 C 13.1836 -62.8906 13.5742 -61.7676 14.1113 -60.8887 C 14.4043 -60.4004 14.3555 -60.0098 13.916 -59.8145 C 11.4258 -58.6914 9.32617 -56.4453 9.32617 -53.2715 C 9.32617 -51.4648 9.81445 -49.9023 10.7422 -48.7305 C 11.1816 -48.1445 11.084 -47.6562 10.3516 -47.2656 C 8.54492 -46.1914 7.32422 -43.8965 7.32422 -41.3086 C 7.32422 -39.4531 7.91016 -37.5 9.0332 -36.4746 C 9.61914 -35.9375 9.52148 -35.5469 8.83789 -35.0098 C 7.51953 -33.9844 6.83594 -32.0801 6.83594 -29.8828 C 6.83594 -25.9766 9.81445 -22.8516 13.7695 -22.8516 L 27.832 -22.8516 C 31.4453 -22.8516 33.8379 -20.9961 33.8379 -18.0664 C 33.8379 -12.6465 27.0996 -2.83203 27.0996 4.24805 C 27.0996 7.91016 29.4922 10.1074 32.6172 10.1074 C 35.4492 10.1074 36.9141 8.1543 38.4277 5.12695 C 44.3359 -6.44531 52.2949 -15.8203 58.3984 -23.8281 C 63.5254 -30.7129 66.0156 -36.4746 66.1621 -45.9473 C 66.4062 -60.5469 54.541 -71.6309 35.9863 -71.7773 L 30.4688 -71.8262 C 25.293 -71.875 21.5332 -71.4844 19.3359 -70.9473 Z M 85.8887 -46.2402 C 85.8887 -58.1055 78.5645 -68.0176 68.6523 -68.0176 L 61.9629 -68.0176 C 68.9453 -62.6953 72.168 -54.7852 72.0215 -45.8496 C 71.875 -35.9863 67.9688 -28.6621 64.3555 -24.3164 L 70.166 -24.3164 C 79.0527 -24.3164 85.8887 -33.9355 85.8887 -46.2402 Z"/>
  </g>
  <g id="Regular-S" transform="matrix(1 0 0 1 1404.36 696)">
   <path d="M 19.043 -70.0684 C 16.0156 -69.3359 13.0371 -67.3828 13.0371 -63.6719 C 13.0371 -62.1582 13.4277 -61.084 13.9648 -60.2051 C 14.2578 -59.7168 14.209 -59.3262 13.7695 -59.1309 C 11.3281 -58.0566 9.27734 -55.8594 9.27734 -52.7832 C 9.27734 -51.0254 9.76562 -49.4629 10.6445 -48.3398 C 11.084 -47.7539 10.9863 -47.2656 10.3027 -46.875 C 8.49609 -45.8496 7.32422 -43.6035 7.32422 -41.0645 C 7.32422 -39.2578 7.91016 -37.3535 8.98438 -36.377 C 9.57031 -35.8398 9.47266 -35.4492 8.78906 -34.9121 C 7.51953 -33.9355 6.83594 -32.0801 6.83594 -29.8828 C 6.83594 -26.0742 9.76562 -22.998 13.623 -22.998 L 27.3926 -22.998 C 30.9082 -22.998 33.2031 -21.2402 33.2031 -18.3594 C 33.2031 -13.0371 26.6602 -3.4668 26.6602 3.4668 C 26.6602 7.08008 29.0039 9.22852 32.0312 9.22852 C 34.8145 9.22852 36.2305 7.27539 37.7441 4.3457 C 43.5059 -6.98242 51.2695 -16.1621 57.2266 -23.9746 C 62.2559 -30.7129 64.6973 -36.377 64.7949 -45.6055 C 65.0391 -59.8633 53.4668 -70.752 35.3027 -70.8984 L 29.9805 -70.9473 C 24.9023 -70.9961 21.1914 -70.6055 19.043 -70.0684 Z M 84.1309 -45.8984 C 84.1309 -57.4707 76.8555 -67.1875 67.1875 -67.1875 L 60.6934 -67.1875 C 67.5293 -62.0117 70.6543 -54.248 70.5078 -45.5078 C 70.3613 -35.8887 66.5527 -28.7109 63.0371 -24.4629 L 68.6523 -24.4629 C 77.3438 -24.4629 84.1309 -33.8867 84.1309 -45.8984 Z"/>
  </g>
  <g id="Light-S" transform="matrix(1 0 0 1 1108.58 696)">
   <path d="M 18.8477 -69.3848 C 15.8691 -68.6523 12.9395 -66.748 12.9395 -63.1348 C 12.9395 -61.6211 13.3301 -60.5957 13.8184 -59.7168 C 14.1113 -59.2285 14.0625 -58.8379 13.623 -58.6426 C 11.2305 -57.6172 9.22852 -55.4688 9.22852 -52.3926 C 9.22852 -50.6836 9.7168 -49.1211 10.5957 -48.0469 C 11.0352 -47.4609 10.9375 -46.9727 10.2539 -46.582 C 8.49609 -45.6055 7.32422 -43.4082 7.32422 -40.918 C 7.32422 -39.1113 7.91016 -37.207 8.93555 -36.2793 C 9.52148 -35.7422 9.42383 -35.3516 8.74023 -34.8145 C 7.51953 -33.8867 6.83594 -32.0801 6.83594 -29.8828 C 6.83594 -26.1719 9.7168 -23.1445 13.5254 -23.1445 L 27.0508 -23.1445 C 30.4688 -23.1445 32.7637 -21.3867 32.7637 -18.5547 C 32.7637 -13.3301 26.3184 -3.90625 26.3184 2.88086 C 26.3184 6.39648 28.6133 8.49609 31.6406 8.49609 C 34.375 8.49609 35.7422 6.5918 37.207 3.75977 C 42.8711 -7.42188 50.5371 -16.4062 56.3965 -24.1211 C 61.2793 -30.7129 63.7207 -36.2793 63.8184 -45.3613 C 64.0137 -59.375 52.6855 -70.0684 34.8145 -70.166 L 29.5898 -70.2148 C 24.6094 -70.2637 20.9473 -69.9219 18.8477 -69.3848 Z M 82.2754 -45.6543 C 82.2754 -57.0312 75.2441 -66.5527 65.7227 -66.5527 L 58.5938 -66.5527 C 65.5762 -61.5723 68.7988 -54.0039 68.6523 -45.2637 C 68.5059 -35.498 64.7461 -28.7598 61.5234 -24.5605 L 67.1387 -24.5605 C 75.7324 -24.5605 82.2754 -33.8379 82.2754 -45.6543 Z"/>
  </g>
  <g id="Thin-S" transform="matrix(1 0 0 1 813.112 696)">
   <path d="M 18.6035 -68.5059 C 15.7227 -67.7734 12.793 -65.9668 12.793 -62.4023 C 12.793 -60.9375 13.1836 -59.9121 13.6719 -59.082 C 13.9648 -58.5938 13.916 -58.2031 13.4766 -58.0078 C 11.1328 -56.9824 9.22852 -54.8828 9.22852 -51.9043 C 9.22852 -50.2441 9.66797 -48.7305 10.498 -47.6562 C 10.9375 -47.0703 10.8398 -46.6309 10.1562 -46.2402 C 8.44727 -45.2637 7.32422 -43.1152 7.32422 -40.6738 C 7.32422 -38.9648 7.86133 -37.0605 8.93555 -36.1816 C 9.47266 -35.6445 9.375 -35.2539 8.74023 -34.7168 C 7.51953 -33.7891 6.83594 -32.0312 6.83594 -29.9316 C 6.83594 -26.2695 9.66797 -23.3398 13.3789 -23.3398 L 26.6113 -23.3398 C 29.9316 -23.3398 32.2266 -21.582 32.2266 -18.8477 C 32.2266 -13.7695 25.8789 -4.54102 25.8789 2.09961 C 25.8789 5.56641 28.125 7.61719 31.0547 7.61719 C 33.7402 7.61719 35.1074 5.76172 36.5234 2.92969 C 42.0898 -7.95898 49.5605 -16.748 55.2734 -24.2676 C 60.0586 -30.7129 62.5 -36.1816 62.5488 -45.0195 C 62.5977 -58.7402 51.6602 -69.1895 34.1797 -69.2871 L 29.1016 -69.3359 C 24.1699 -69.3848 20.6543 -69.043 18.6035 -68.5059 Z M 79.7852 -45.3125 C 79.7852 -56.4453 73.0957 -65.7715 63.8184 -65.7715 L 55.7617 -65.7715 C 62.9883 -61.084 66.3574 -53.6621 66.2109 -44.9219 C 66.0645 -35.0098 62.3535 -28.7598 59.4727 -24.707 L 65.1855 -24.707 C 73.584 -24.707 79.7852 -33.7402 79.7852 -45.3125 Z"/>
  </g>
  <g id="Ultralight-S" transform="matrix(1 0 0 1 517.035 696)">
   <path d="M 18.457 -68.0176 C 15.5762 -67.334 12.6953 -65.5273 12.6953 -62.0117 C 12.6953 -60.5957 13.0859 -59.5703 13.5742 -58.7402 C 13.8672 -58.252 13.8184 -57.9102 13.3789 -57.7148 C 11.084 -56.6406 9.17969 -54.5898 9.17969 -51.6602 C 9.17969 -50 9.61914 -48.4863 10.4492 -47.4609 C 10.8887 -46.875 10.791 -46.4355 10.1074 -46.0449 C 8.44727 -45.1172 7.32422 -42.9688 7.32422 -40.5762 C 7.32422 -38.8184 7.86133 -36.9629 8.88672 -36.084 C 9.42383 -35.5469 9.32617 -35.2051 8.69141 -34.668 C 7.51953 -33.7402 6.83594 -32.0312 6.83594 -29.9316 C 6.83594 -26.3672 9.61914 -23.4375 13.2812 -23.4375 L 26.3672 -23.4375 C 29.6387 -23.4375 31.8848 -21.6797 31.8848 -18.9941 C 31.8848 -13.9648 25.6348 -4.88281 25.6348 1.70898 C 25.6348 5.12695 27.8809 7.12891 30.7617 7.12891 C 33.3984 7.12891 34.7656 5.32227 36.1816 2.53906 C 41.6504 -8.25195 49.0234 -16.8945 54.6875 -24.3652 C 59.4238 -30.7129 61.8652 -36.084 61.8652 -44.873 C 61.8652 -58.3984 51.123 -68.7012 33.8867 -68.7988 L 28.8086 -68.8477 C 23.9746 -68.8965 20.5078 -68.5547 18.457 -68.0176 Z M 78.5156 -45.166 C 78.5156 -56.1035 71.9727 -65.332 62.8418 -65.332 L 54.3457 -65.332 C 61.6699 -60.791 65.0879 -53.5156 64.9414 -44.7754 C 64.7949 -34.7168 61.1328 -28.8086 58.3984 -24.8047 L 64.209 -24.8047 C 72.4609 -24.8047 78.5156 -33.6914 78.5156 -45.166 Z"/>
  </g>
 </g>
</svg>
