<?xml version="1.0" encoding="UTF-8"?>
<!--Generator: Apple Native CoreSVG 149-->
<!DOCTYPE svg
PUBLIC "-//W3C//DTD SVG 1.1//EN"
       "http://www.w3.org/Graphics/SVG/1.1/DTD/svg11.dtd">
<svg version="1.1" xmlns="http://www.w3.org/2000/svg" xmlns:xlink="http://www.w3.org/1999/xlink" width="3300" height="2200">
 <!--glyph: "uni1003A3.medium", point size: 100.000000, font version: "Version 16.0d18e1", template writer version: "8"-->
 <g id="Notes">
  <rect height="2200" id="artboard" style="fill:white;opacity:1" width="3300" x="0" y="0"/>
  <line id="" style="fill:none;stroke:black;opacity:1;stroke-width:0.5;" x1="263" x2="3036" y1="292" y2="292"/>
  <text style="stroke:none;fill:black;font-family:-apple-system,&quot;SF Pro Display&quot;,&quot;SF Pro Text&quot;,Helvetica,sans-serif;font-weight:bold;" transform="matrix(1 0 0 1 263 322)">Weight/Scale Variations</text>
  <text style="stroke:none;fill:black;font-family:-apple-system,&quot;SF Pro Display&quot;,&quot;SF Pro Text&quot;,Helvetica,sans-serif;text-anchor:middle;" transform="matrix(1 0 0 1 559.711 322)">Ultralight</text>
  <text style="stroke:none;fill:black;font-family:-apple-system,&quot;SF Pro Display&quot;,&quot;SF Pro Text&quot;,Helvetica,sans-serif;text-anchor:middle;" transform="matrix(1 0 0 1 856.422 322)">Thin</text>
  <text style="stroke:none;fill:black;font-family:-apple-system,&quot;SF Pro Display&quot;,&quot;SF Pro Text&quot;,Helvetica,sans-serif;text-anchor:middle;" transform="matrix(1 0 0 1 1153.13 322)">Light</text>
  <text style="stroke:none;fill:black;font-family:-apple-system,&quot;SF Pro Display&quot;,&quot;SF Pro Text&quot;,Helvetica,sans-serif;text-anchor:middle;" transform="matrix(1 0 0 1 1449.84 322)">Regular</text>
  <text style="stroke:none;fill:black;font-family:-apple-system,&quot;SF Pro Display&quot;,&quot;SF Pro Text&quot;,Helvetica,sans-serif;text-anchor:middle;" transform="matrix(1 0 0 1 1746.56 322)">Medium</text>
  <text style="stroke:none;fill:black;font-family:-apple-system,&quot;SF Pro Display&quot;,&quot;SF Pro Text&quot;,Helvetica,sans-serif;text-anchor:middle;" transform="matrix(1 0 0 1 2043.27 322)">Semibold</text>
  <text style="stroke:none;fill:black;font-family:-apple-system,&quot;SF Pro Display&quot;,&quot;SF Pro Text&quot;,Helvetica,sans-serif;text-anchor:middle;" transform="matrix(1 0 0 1 2339.98 322)">Bold</text>
  <text style="stroke:none;fill:black;font-family:-apple-system,&quot;SF Pro Display&quot;,&quot;SF Pro Text&quot;,Helvetica,sans-serif;text-anchor:middle;" transform="matrix(1 0 0 1 2636.69 322)">Heavy</text>
  <text style="stroke:none;fill:black;font-family:-apple-system,&quot;SF Pro Display&quot;,&quot;SF Pro Text&quot;,Helvetica,sans-serif;text-anchor:middle;" transform="matrix(1 0 0 1 2933.4 322)">Black</text>
  <line id="" style="fill:none;stroke:black;opacity:1;stroke-width:0.5;" x1="263" x2="3036" y1="1903" y2="1903"/>
  <g id="" transform="matrix(1 0 0 1 263 1933)">
   <path d="M9.24805 0.830078C13.5547 0.830078 17.1387-2.74414 17.1387-7.05078C17.1387-11.3574 13.5449-14.9316 9.23828-14.9316C4.94141-14.9316 1.36719-11.3574 1.36719-7.05078C1.36719-2.74414 4.95117 0.830078 9.24805 0.830078ZM9.24805-0.654297C5.70312-0.654297 2.87109-3.49609 2.87109-7.05078C2.87109-10.6055 5.69336-13.4473 9.23828-13.4473C12.793-13.4473 15.6348-10.6055 15.6445-7.05078C15.6543-3.49609 12.8027-0.654297 9.24805-0.654297ZM6.39648-6.31836L8.50586-6.31836L8.50586-4.19922C8.50586-3.75977 8.79883-3.45703 9.22852-3.45703C9.67773-3.45703 9.9707-3.75977 9.9707-4.19922L9.9707-6.31836L12.0996-6.31836C12.5391-6.31836 12.8418-6.61133 12.8418-7.04102C12.8418-7.48047 12.5391-7.7832 12.0996-7.7832L9.9707-7.7832L9.9707-9.89258C9.9707-10.3418 9.67773-10.6445 9.22852-10.6445C8.79883-10.6445 8.50586-10.3418 8.50586-9.89258L8.50586-7.7832L6.39648-7.7832C5.94727-7.7832 5.64453-7.48047 5.64453-7.04102C5.64453-6.61133 5.94727-6.31836 6.39648-6.31836Z"/>
  </g>
  <g id="" transform="matrix(1 0 0 1 281.506 1933)">
   <path d="M11.709 2.91016C17.1582 2.91016 21.6699-1.61133 21.6699-7.05078C21.6699-12.5 17.1484-17.0117 11.6992-17.0117C6.25977-17.0117 1.74805-12.5 1.74805-7.05078C1.74805-1.61133 6.26953 2.91016 11.709 2.91016ZM11.709 1.25C7.09961 1.25 3.41797-2.44141 3.41797-7.05078C3.41797-11.6602 7.08984-15.3516 11.6992-15.3516C16.3086-15.3516 20-11.6602 20.0098-7.05078C20.0195-2.44141 16.3184 1.25 11.709 1.25ZM7.98828-6.23047L10.8789-6.23047L10.8789-3.32031C10.8789-2.83203 11.2109-2.5 11.6895-2.5C12.1777-2.5 12.5195-2.83203 12.5195-3.32031L12.5195-6.23047L15.4297-6.23047C15.918-6.23047 16.25-6.5625 16.25-7.04102C16.25-7.5293 15.918-7.87109 15.4297-7.87109L12.5195-7.87109L12.5195-10.7617C12.5195-11.2695 12.1777-11.6016 11.6895-11.6016C11.2109-11.6016 10.8789-11.2598 10.8789-10.7617L10.8789-7.87109L7.98828-7.87109C7.48047-7.87109 7.14844-7.5293 7.14844-7.04102C7.14844-6.5625 7.49023-6.23047 7.98828-6.23047Z"/>
  </g>
  <g id="" transform="matrix(1 0 0 1 304.924 1933)">
   <path d="M14.9707 5.66406C21.9336 5.66406 27.6953-0.0976562 27.6953-7.05078C27.6953-14.0137 21.9238-19.7754 14.9609-19.7754C8.00781-19.7754 2.25586-14.0137 2.25586-7.05078C2.25586-0.0976562 8.01758 5.66406 14.9707 5.66406ZM14.9707 3.84766C8.93555 3.84766 4.08203-1.01562 4.08203-7.05078C4.08203-13.0957 8.92578-17.9492 14.9609-17.9492C21.0059-17.9492 25.8594-13.0957 25.8691-7.05078C25.8789-1.01562 21.0156 3.84766 14.9707 3.84766ZM10.0586-6.14258L14.0625-6.14258L14.0625-2.12891C14.0625-1.5918 14.4336-1.2207 14.9512-1.2207C15.4883-1.2207 15.8594-1.5918 15.8594-2.12891L15.8594-6.14258L19.8828-6.14258C20.4102-6.14258 20.791-6.51367 20.791-7.03125C20.791-7.56836 20.4199-7.94922 19.8828-7.94922L15.8594-7.94922L15.8594-11.9531C15.8594-12.5098 15.4883-12.8809 14.9512-12.8809C14.4336-12.8809 14.0625-12.5 14.0625-11.9531L14.0625-7.94922L10.0586-7.94922C9.50195-7.94922 9.13086-7.56836 9.13086-7.03125C9.13086-6.51367 9.51172-6.14258 10.0586-6.14258Z"/>
  </g>
  <text style="stroke:none;fill:black;font-family:-apple-system,&quot;SF Pro Display&quot;,&quot;SF Pro Text&quot;,Helvetica,sans-serif;font-weight:bold;" transform="matrix(1 0 0 1 263 1953)">Design Variations</text>
  <text style="stroke:none;fill:black;font-family:-apple-system,&quot;SF Pro Display&quot;,&quot;SF Pro Text&quot;,Helvetica,sans-serif;" transform="matrix(1 0 0 1 263 1971)">Symbols are supported in up to nine weights and three scales.</text>
  <text style="stroke:none;fill:black;font-family:-apple-system,&quot;SF Pro Display&quot;,&quot;SF Pro Text&quot;,Helvetica,sans-serif;" transform="matrix(1 0 0 1 263 1989)">For optimal layout with text and other symbols, vertically align</text>
  <text style="stroke:none;fill:black;font-family:-apple-system,&quot;SF Pro Display&quot;,&quot;SF Pro Text&quot;,Helvetica,sans-serif;" transform="matrix(1 0 0 1 263 2007)">symbols with the adjacent text.</text>
  <line id="" style="fill:none;stroke:#00AEEF;stroke-width:0.5;opacity:1.0;" x1="776" x2="776" y1="1919" y2="1933"/>
  <g id="" transform="matrix(1 0 0 1 776 1933)">
   <path d="M3.31055 0.126953C3.82812 0.126953 4.08203-0.0683594 4.26758-0.605469L5.52734-4.0625L11.2891-4.0625L12.5488-0.605469C12.7344-0.0683594 12.9883 0.126953 13.4961 0.126953C14.0137 0.126953 14.3457-0.185547 14.3457-0.673828C14.3457-0.839844 14.3164-0.986328 14.2383-1.20117L9.6582-13.3887C9.43359-13.9941 9.0332-14.2871 8.4082-14.2871C7.80273-14.2871 7.39258-13.9941 7.17773-13.3984L2.59766-1.19141C2.51953-0.976562 2.49023-0.830078 2.49023-0.664062C2.49023-0.175781 2.80273 0.126953 3.31055 0.126953ZM6.00586-5.53711L8.37891-12.1094L8.42773-12.1094L10.8008-5.53711Z"/>
  </g>
  <line id="" style="fill:none;stroke:#00AEEF;stroke-width:0.5;opacity:1.0;" x1="792.836" x2="792.836" y1="1919" y2="1933"/>
  <text style="stroke:none;fill:black;font-family:-apple-system,&quot;SF Pro Display&quot;,&quot;SF Pro Text&quot;,Helvetica,sans-serif;font-weight:bold;" transform="matrix(1 0 0 1 776 1953)">Margins</text>
  <text style="stroke:none;fill:black;font-family:-apple-system,&quot;SF Pro Display&quot;,&quot;SF Pro Text&quot;,Helvetica,sans-serif;" transform="matrix(1 0 0 1 776 1971)">Leading and trailing margins on the left and right side of each symbol</text>
  <text style="stroke:none;fill:black;font-family:-apple-system,&quot;SF Pro Display&quot;,&quot;SF Pro Text&quot;,Helvetica,sans-serif;" transform="matrix(1 0 0 1 776 1989)">can be adjusted by modifying the x-location of the margin guidelines.</text>
  <text style="stroke:none;fill:black;font-family:-apple-system,&quot;SF Pro Display&quot;,&quot;SF Pro Text&quot;,Helvetica,sans-serif;" transform="matrix(1 0 0 1 776 2007)">Modifications are automatically applied proportionally to all</text>
  <text style="stroke:none;fill:black;font-family:-apple-system,&quot;SF Pro Display&quot;,&quot;SF Pro Text&quot;,Helvetica,sans-serif;" transform="matrix(1 0 0 1 776 2025)">scales and weights.</text>
  <g id="" transform="matrix(1 0 0 1 1289 1933)">
   <path d="M2.8418 1.86523L4.54102 3.57422C5.40039 4.44336 6.38672 4.38477 7.31445 3.35938L17.4902-7.85156C17.7539-7.76367 18.0273-7.7832 18.3398-7.8418L19.4043-8.03711L20.0684-7.36328L20.0293-6.80664C19.9902-6.30859 20.1172-5.92773 20.6055-5.44922L21.3672-4.70703C21.8457-4.22852 22.4609-4.19922 22.9297-4.66797L25.8398-7.58789C26.3086-8.05664 26.2891-8.65234 25.8105-9.13086L25.0391-9.89258C24.5605-10.3711 24.1895-10.5273 23.7109-10.4883L23.1348-10.4395L22.4902-11.0742L22.7344-12.1973C22.8613-12.7637 22.7051-13.2031 22.1191-13.7891L19.9219-15.9766C16.582-19.2969 12.1484-19.2188 9.25781-16.3281C8.83789-15.918 8.80859-15.3418 9.04297-14.9512C9.27734-14.5898 9.73633-14.3555 10.3809-14.5215C11.8457-14.8633 13.3691-14.9219 14.7949-13.9844L14.209-12.5293C14.0137-12.0508 13.9844-11.6504 14.1113-11.2891L3.04688-0.898438C2.06055 0.0195312 1.98242 0.996094 2.8418 1.86523ZM10.752-15.957C13.1836-17.7344 16.4746-17.4316 18.7012-15.2051L21.1328-12.793C21.3672-12.5586 21.4062-12.373 21.3379-12.0312L21.0156-10.5469L22.5195-9.0625L23.5059-9.12109C23.7598-9.13086 23.8379-9.11133 24.0332-8.91602L24.6094-8.33984L22.168-5.89844L21.5918-6.47461C21.3965-6.66992 21.3672-6.74805 21.377-7.01172L21.4453-7.98828L19.9512-9.47266L18.4277-9.21875C18.1055-9.15039 17.959-9.17969 17.7148-9.41406L15.7129-11.416C15.459-11.6504 15.4297-11.8164 15.5859-12.1875L16.4648-14.2773C14.9023-15.7324 12.8711-16.3574 10.8398-15.7617C10.6836-15.7227 10.625-15.8496 10.752-15.957ZM5.27344 2.30469L4.10156 1.14258C3.63281 0.683594 3.74023 0.341797 4.14062-0.0195312L14.9512-10.1953L16.416-8.71094L6.42578 2.27539C6.07422 2.67578 5.74219 2.77344 5.27344 2.30469Z"/>
  </g>
  <text style="stroke:none;fill:black;font-family:-apple-system,&quot;SF Pro Display&quot;,&quot;SF Pro Text&quot;,Helvetica,sans-serif;font-weight:bold;" transform="matrix(1 0 0 1 1289 1953)">Exporting</text>
  <text style="stroke:none;fill:black;font-family:-apple-system,&quot;SF Pro Display&quot;,&quot;SF Pro Text&quot;,Helvetica,sans-serif;" transform="matrix(1 0 0 1 1289 1971)">Symbols should be outlined when exporting to ensure the</text>
  <text style="stroke:none;fill:black;font-family:-apple-system,&quot;SF Pro Display&quot;,&quot;SF Pro Text&quot;,Helvetica,sans-serif;" transform="matrix(1 0 0 1 1289 1989)">design is preserved when submitting to Xcode.</text>
  <text id="template-version" style="stroke:none;fill:black;font-family:-apple-system,&quot;SF Pro Display&quot;,&quot;SF Pro Text&quot;,Helvetica,sans-serif;text-anchor:end;" transform="matrix(1 0 0 1 3036 1933)">Template v.2.0</text>
  <text style="stroke:none;fill:black;font-family:-apple-system,&quot;SF Pro Display&quot;,&quot;SF Pro Text&quot;,Helvetica,sans-serif;text-anchor:end;" transform="matrix(1 0 0 1 3036 1951)">Requires Xcode 12 or greater</text>
  <text style="stroke:none;fill:black;font-family:-apple-system,&quot;SF Pro Display&quot;,&quot;SF Pro Text&quot;,Helvetica,sans-serif;text-anchor:end;" transform="matrix(1 0 0 1 3036 1969)">Generated from lock.slash.fill</text>
  <text style="stroke:none;fill:black;font-family:-apple-system,&quot;SF Pro Display&quot;,&quot;SF Pro Text&quot;,Helvetica,sans-serif;text-anchor:end;" transform="matrix(1 0 0 1 3036 1987)">Typeset at 100 points</text>
  <text style="stroke:none;fill:black;font-family:-apple-system,&quot;SF Pro Display&quot;,&quot;SF Pro Text&quot;,Helvetica,sans-serif;" transform="matrix(1 0 0 1 263 726)">Small</text>
  <text style="stroke:none;fill:black;font-family:-apple-system,&quot;SF Pro Display&quot;,&quot;SF Pro Text&quot;,Helvetica,sans-serif;" transform="matrix(1 0 0 1 263 1156)">Medium</text>
  <text style="stroke:none;fill:black;font-family:-apple-system,&quot;SF Pro Display&quot;,&quot;SF Pro Text&quot;,Helvetica,sans-serif;" transform="matrix(1 0 0 1 263 1586)">Large</text>
 </g>
 <g id="Guides">
  <g id="H-reference" style="fill:#27AAE1;stroke:none;" transform="matrix(1 0 0 1 339 696)">
   <path d="M0.976562 0L3.66211 0L12.9883-24.4629L45.752-24.4629L55.127 0L57.7637 0L30.6152-70.459L28.125-70.459ZM29.3457-67.1387L29.4434-67.1387L44.873-26.709L13.8672-26.709Z"/>
  </g>
  <line id="Baseline-S" style="fill:none;stroke:#27AAE1;opacity:1;stroke-width:0.5;" x1="263" x2="3036" y1="696" y2="696"/>
  <line id="Capline-S" style="fill:none;stroke:#27AAE1;opacity:1;stroke-width:0.5;" x1="263" x2="3036" y1="625.541" y2="625.541"/>
  <g id="H-reference" style="fill:#27AAE1;stroke:none;" transform="matrix(1 0 0 1 339 1126)">
   <path d="M0.976562 0L3.66211 0L12.9883-24.4629L45.752-24.4629L55.127 0L57.7637 0L30.6152-70.459L28.125-70.459ZM29.3457-67.1387L29.4434-67.1387L44.873-26.709L13.8672-26.709Z"/>
  </g>
  <line id="Baseline-M" style="fill:none;stroke:#27AAE1;opacity:1;stroke-width:0.5;" x1="263" x2="3036" y1="1126" y2="1126"/>
  <line id="Capline-M" style="fill:none;stroke:#27AAE1;opacity:1;stroke-width:0.5;" x1="263" x2="3036" y1="1055.54" y2="1055.54"/>
  <g id="H-reference" style="fill:#27AAE1;stroke:none;" transform="matrix(1 0 0 1 339 1556)">
   <path d="M0.976562 0L3.66211 0L12.9883-24.4629L45.752-24.4629L55.127 0L57.7637 0L30.6152-70.459L28.125-70.459ZM29.3457-67.1387L29.4434-67.1387L44.873-26.709L13.8672-26.709Z"/>
  </g>
  <line id="Baseline-L" style="fill:none;stroke:#27AAE1;opacity:1;stroke-width:0.5;" x1="263" x2="3036" y1="1556" y2="1556"/>
  <line id="Capline-L" style="fill:none;stroke:#27AAE1;opacity:1;stroke-width:0.5;" x1="263" x2="3036" y1="1485.54" y2="1485.54"/>
  <line id="left-margin" style="fill:none;stroke:#00AEEF;stroke-width:0.5;opacity:1.0;" x1="1396.6" x2="1396.6" y1="1030.79" y2="1150.12"/>
  <line id="right-margin" style="fill:none;stroke:#00AEEF;stroke-width:0.5;opacity:1.0;" x1="1503.09" x2="1503.09" y1="1030.79" y2="1150.12"/>
 </g>
 <g id="Symbols">
  <g id="Black-L" transform="matrix(1 0 0 1 2860.45 1556)">
   <path d="M72.9492-112.5C58.3496-112.5 43.9941-104.932 37.8418-89.0137C37.6953-88.6719 37.6953-88.623 37.5977-88.4277L54.2969-71.6797C54.2969-71.875 54.2969-72.0215 54.2969-72.168C54.7852-85.6445 62.3535-93.3594 72.9492-93.3594C82.8613-93.3594 91.6504-86.4258 91.6504-70.752L91.6504-54.0039L72.0215-53.9551L120.898-5.07812L120.898-38.8672C120.898-47.2168 117.822-52.002 111.426-53.4668L111.426-69.873C111.426-99.1699 92.3828-112.5 72.9492-112.5ZM131.104 34.2285C133.398 36.4258 137.061 36.5234 139.258 34.2285C141.406 31.9824 141.504 28.3691 139.258 26.123L17.7246-95.3125C15.4785-97.6074 11.7676-97.6074 9.52148-95.3125C7.32422-93.1641 7.32422-89.4043 9.52148-87.207ZM39.3555 27.6855L106.543 27.6855C108.301 27.6855 109.814 27.5391 111.182 27.2461L31.5918-52.3926C25.9766-49.5117 25-44.6777 25-37.1094L25 12.4512C25 22.9004 29.7852 27.6855 39.3555 27.6855Z"/>
  </g>
  <g id="Heavy-L" transform="matrix(1 0 0 1 2564.79 1556)">
   <path d="M71.9238-110.742C57.2266-110.742 43.0664-102.734 37.5977-86.2793C37.4512-85.9375 37.4512-85.8887 37.4023-85.6934L51.8555-71.1914C51.8555-71.4844 51.9043-71.7285 51.9043-72.0215C52.4902-86.1328 60.8398-94.1895 71.9238-94.1895C82.7148-94.1895 92.041-86.4258 92.041-70.2148L92.041-53.6133L69.4336-53.6133L118.896-4.15039L118.896-39.0137C118.896-47.3145 115.674-51.9043 109.18-53.2227L109.18-69.2871C109.18-97.5586 90.8691-110.742 71.9238-110.742ZM128.564 33.0078C130.664 35.0586 134.131 35.1074 136.133 33.0078C138.184 30.8594 138.281 27.4902 136.133 25.3906L17.9199-92.7734C15.8203-94.8242 12.4023-94.873 10.2539-92.7734C8.25195-90.7227 8.25195-87.207 10.2539-85.1562ZM38.8184 26.3672L105.371 26.3672C106.885 26.3672 108.203 26.2695 109.375 25.9766L31.3477-52.0508C26.1719-49.4141 24.9512-44.873 24.9512-37.6465L24.9512 11.6699C24.9512 21.7773 29.541 26.3672 38.8184 26.3672Z"/>
  </g>
  <g id="Bold-L" transform="matrix(1 0 0 1 2269.23 1556)">
   <path d="M70.752-108.789C55.957-108.789 41.9922-100.293 37.3047-83.2031C37.207-82.9102 37.207-82.8125 37.1582-82.6172L49.1211-70.6055C49.1211-70.9961 49.1699-71.3867 49.1699-71.7773C49.9512-86.6211 59.082-95.0684 70.752-95.0684C82.5684-95.0684 92.4316-86.4746 92.4316-69.5801L92.4316-53.2227L66.5527-53.1738L116.602-3.125L116.602-39.1113C116.602-47.4121 113.33-51.8555 106.641-52.8809L106.641-68.6523C106.641-95.8008 89.2578-108.789 70.752-108.789ZM125.684 31.5918C127.637 33.4961 130.811 33.4961 132.666 31.5918C134.57 29.6387 134.619 26.5137 132.666 24.5605L18.2129-89.8438C16.2598-91.7969 13.0859-91.7969 11.1328-89.8438C9.22852-87.9883 9.22852-84.7168 11.1328-82.8613ZM38.2324 24.9023L104.102 24.9023C105.273 24.9023 106.396 24.8047 107.373 24.6094L31.1035-51.6602C26.3672-49.3652 24.9023-45.1172 24.9023-38.2324L24.9023 10.7422C24.9023 20.459 29.2969 24.9023 38.2324 24.9023Z"/>
  </g>
  <g id="Semibold-L" transform="matrix(1 0 0 1 1973.32 1556)">
   <path d="M69.9707-107.422C55.0781-107.422 41.2598-98.584 37.1094-81.0547C37.0117-80.8105 37.0117-80.7129 36.9629-80.5176L47.2656-70.166C47.2656-70.7031 47.3145-71.1426 47.3145-71.6797C48.1934-86.9629 57.9102-95.7031 69.9707-95.7031C82.4219-95.7031 92.7246-86.4746 92.7246-69.1895L92.7246-52.9297L64.5508-52.8809L115.039-2.39258L115.039-39.209C115.039-47.5098 111.719-51.8066 104.932-52.6855L104.932-68.2129C104.932-94.5801 88.0859-107.422 69.9707-107.422ZM123.682 30.6152C125.537 32.4219 128.516 32.4219 130.322 30.6152C132.08 28.7598 132.129 25.8301 130.322 24.0234L18.3594-87.8418C16.5527-89.6484 13.5742-89.6973 11.7188-87.8418C9.96094-86.084 9.96094-83.0566 11.7188-81.25ZM37.793 23.877L103.174 23.877C104.199 23.877 105.127 23.7793 105.957 23.6816L30.9082-51.416C26.4648-49.3164 24.8535-45.2637 24.8535-38.623L24.8535 10.1562C24.8535 19.5801 29.1016 23.877 37.793 23.877Z"/>
  </g>
  <g id="Medium-L" transform="matrix(1 0 0 1 1677.22 1556)">
   <path d="M69.3359-106.348C54.3945-106.348 40.6738-97.3145 36.9629-79.4922C36.8652-79.248 36.8652-79.1016 36.8164-78.9062L45.8496-69.873C45.8496-70.459 45.8984-70.9961 45.8984-71.5332C46.8262-87.207 57.0312-96.1426 69.3359-96.1426C82.373-96.1426 92.9199-86.4746 92.9199-68.8477L92.9199-52.6855L63.0371-52.6367L113.867-1.85547L113.867-39.3066C113.867-47.5586 110.449-51.7578 103.613-52.5391L103.613-67.8711C103.613-93.6523 87.207-106.348 69.3359-106.348ZM122.217 29.8828C123.926 31.5918 126.807 31.5918 128.516 29.8828C130.225 28.0762 130.225 25.293 128.516 23.584L18.5059-86.377C16.7969-88.0859 13.916-88.1348 12.1582-86.377C10.498-84.668 10.498-81.7383 12.1582-80.0781ZM37.5 23.0957L102.49 23.0957C103.369 23.0957 104.199 23.0469 104.932 22.9492L30.7617-51.2207C26.5625-49.2676 24.8047-45.3613 24.8047-38.916L24.8047 9.66797C24.8047 18.9453 29.0039 23.0957 37.5 23.0957Z"/>
  </g>
  <g id="Regular-L" transform="matrix(1 0 0 1 1381.29 1556)">
   <path d="M68.5547-105.029C53.5156-105.029 39.9902-95.6055 36.7676-77.3926C36.7188-77.1484 36.7188-77.002 36.6699-76.8066L43.9941-69.4824C43.9941-70.1172 44.043-70.752 44.043-71.4355C45.0684-87.5488 55.8594-96.7773 68.5547-96.7773C82.2266-96.7773 93.2129-86.5234 93.2129-68.457L93.2129-52.3926L61.084-52.3438L112.305-1.12305L112.305-39.4043C112.305-47.6074 108.838-51.709 101.855-52.2949L101.855-67.4805C101.855-92.4805 86.084-105.029 68.5547-105.029ZM120.264 28.9062C121.875 30.5176 124.561 30.5176 126.123 28.9062C127.734 27.2461 127.783 24.6582 126.123 22.998L18.7012-84.375C17.0898-85.9863 14.4043-86.0352 12.7441-84.375C11.1816-82.8125 11.1816-80.0781 12.7441-78.5156ZM37.1094 22.1191L101.611 22.1191C102.295 22.1191 102.979 22.0703 103.564 22.0215L30.5664-50.9766C26.709-49.2188 24.7559-45.5078 24.7559-39.3555L24.7559 9.08203C24.7559 18.0664 28.8086 22.1191 37.1094 22.1191Z"/>
  </g>
  <g id="Light-L" transform="matrix(1 0 0 1 1084.8 1556)">
   <path d="M68.3105-104.004C52.4414-104.004 38.4277-93.457 36.4258-73.6328C36.377-73.3887 36.377-73.1934 36.377-72.9492L42.1387-67.1387C42.1387-68.0176 42.1875-68.9453 42.1875-69.8242C42.8223-87.3047 54.5898-97.7051 68.3105-97.7051C82.959-97.7051 94.5801-86.6699 94.5801-67.9688L94.5801-52.1484L57.1777-52.0996L112.109 2.83203L112.109-39.3555C112.109-47.7539 108.496-51.709 101.172-52.0996L101.172-67.4316C101.172-91.4551 85.8398-104.004 68.3105-104.004ZM120.312 29.4922C121.582 30.7129 123.633 30.7129 124.854 29.4922C126.123 28.1738 126.123 26.1719 124.854 24.9023L18.2129-81.6895C16.9922-82.9102 14.9414-83.0078 13.623-81.6895C12.4023-80.4688 12.4023-78.3691 13.623-77.1484ZM36.6211 22.3633L102.588 22.3633C103.125 22.3633 103.662 22.3145 104.102 22.3145L30.7617-51.0254C26.6113-49.4141 24.5117-45.7031 24.5117-39.3066L24.5117 9.57031C24.5117 18.457 28.5156 22.3633 36.6211 22.3633Z"/>
  </g>
  <g id="Thin-L" transform="matrix(1 0 0 1 788.38 1556)">
   <path d="M68.0176-102.686C51.0254-102.686 36.4258-90.5762 35.9863-68.6523C35.9863-68.3594 35.9863-68.1152 35.9863-67.8223L39.7461-64.0625C39.7461-65.2832 39.7461-66.4551 39.7461-67.6758C39.7949-86.9629 52.8809-98.9746 68.0176-98.9746C83.8867-98.9746 96.3379-86.8652 96.3379-67.2852L96.3379-51.7578L52.0508-51.7578L111.865 8.05664L111.865-39.3066C111.865-47.9492 108.057-51.6602 100.293-51.7578L100.293-67.3828C100.293-90.1367 85.498-102.686 68.0176-102.686ZM120.361 30.2246C121.143 31.0059 122.412 31.0059 123.145 30.2246C124.023 29.3945 123.926 28.2227 123.145 27.4414L17.627-78.125C16.8945-78.8086 15.6738-78.9551 14.7949-78.125C14.0625-77.3438 14.0625-76.0742 14.7949-75.293ZM36.0352 22.7051L103.857 22.7051C104.199 22.7051 104.541 22.7051 104.834 22.7051L31.0547-51.0742C26.5137-49.6582 24.2188-45.9961 24.2188-39.3066L24.2188 10.2539C24.2188 18.9453 28.0762 22.7051 36.0352 22.7051Z"/>
  </g>
  <g id="Ultralight-L" transform="matrix(1 0 0 1 491.84 1556)">
   <path d="M67.8711-102.002C50.293-102.002 35.3516-89.0625 35.7422-66.1133C35.7422-65.8203 35.7422-65.5273 35.791-65.1855L38.4766-62.5C38.4766-63.8672 38.4766-65.2344 38.4766-66.6016C38.2812-86.8164 52.002-99.6094 67.8711-99.6094C84.3262-99.6094 97.2656-86.9629 97.2656-66.9434L97.2656-51.5625L49.3652-51.6113L111.719 10.7422L111.719-39.2578C111.719-47.998 107.812-51.6602 99.8047-51.6113L99.8047-67.334C99.8047-89.4531 85.3027-102.002 67.8711-102.002ZM120.41 30.6152C120.947 31.1523 121.777 31.1523 122.314 30.6152C122.9 30.0293 122.803 29.248 122.314 28.7109L17.2852-76.2695C16.8457-76.709 16.0156-76.9043 15.4297-76.2695C14.8926-75.7812 14.8926-74.9023 15.4297-74.3652ZM35.6934 22.9004L104.541 22.9004C104.736 22.9004 105.029 22.9004 105.225 22.9004L31.2012-51.123C26.416-49.8047 24.0234-46.0938 24.0234-39.3066L24.0234 10.5957C24.0234 19.2383 27.8809 22.9004 35.6934 22.9004Z"/>
  </g>
  <g id="Black-M" transform="matrix(1 0 0 1 2875.59 1126)">
   <path d="M57.8125-96.9727C46.1914-96.9727 34.5703-91.0645 29.4922-78.6133C29.3457-78.2715 29.3457-78.2715 29.2969-78.0762L44.3848-62.9395C44.3848-63.0859 44.3848-63.1348 44.3848-63.2324C44.3359-73.584 49.707-79.7363 57.8125-79.7363C64.7949-79.7363 71.2402-74.9512 71.2402-63.2324L71.2402-50.1465L57.2266-50.1465L96.3379-10.9863L96.3379-37.8418C96.3379-44.4824 93.9453-48.291 89.0137-49.6094L89.0137-62.793C89.0137-86.377 73.4375-96.9727 57.8125-96.9727ZM105.127 20.6055C106.885 22.3145 109.717 22.3633 111.426 20.6055C113.086 18.8965 113.135 16.0645 111.426 14.3066L13.1836-83.8379C11.4258-85.5957 8.54492-85.5957 6.78711-83.8379C5.12695-82.1777 5.12695-79.248 6.78711-77.5391ZM30.957 15.4297L84.668 15.4297C86.2793 15.4297 87.6465 15.332 88.916 14.9902L24.9023-49.0234C19.873-46.4844 19.3359-42.4316 19.3359-35.9375L19.3359 3.07617C19.3359 11.5723 23.1934 15.4297 30.957 15.4297Z"/>
  </g>
  <g id="Heavy-M" transform="matrix(1 0 0 1 2579.95 1126)">
   <path d="M56.7383-95.3125C45.2148-95.3125 33.9355-89.209 29.2969-76.5625C29.1992-76.2695 29.1992-76.2695 29.1504-76.0742L42.1875-62.9883C42.1875-63.1836 42.1875-63.2812 42.1875-63.4766C42.4316-74.1211 48.3887-80.3223 56.7383-80.3223C64.4531-80.3223 71.2891-74.9512 71.2891-62.7441L71.2891-49.8047L55.4199-49.7559L94.1406-11.0352L94.1406-37.9883C94.1406-44.5312 91.748-48.2422 86.7676-49.3652L86.7676-62.207C86.7676-84.9121 71.875-95.3125 56.7383-95.3125ZM102.295 19.0918C103.955 20.7031 106.738 20.752 108.35 19.0918C109.961 17.4316 110.059 14.6973 108.35 13.0371L13.5254-81.7383C11.8652-83.3984 9.08203-83.3984 7.42188-81.7383C5.81055-80.127 5.81055-77.2949 7.42188-75.6836ZM30.5176 13.916L83.1543 13.916C84.5215 13.916 85.6934 13.8184 86.8164 13.5742L24.6094-48.6328C20.0684-46.3867 19.3359-42.5781 19.3359-36.5234L19.3359 2.05078C19.3359 10.2051 23.0469 13.916 30.5176 13.916Z"/>
  </g>
  <g id="Bold-M" transform="matrix(1 0 0 1 2284.44 1126)">
   <path d="M55.5176-93.4082C44.1406-93.4082 33.2031-87.1582 29.1016-74.3164C29.0039-74.0723 29.0039-74.0234 28.9551-73.877L39.7461-63.0371C39.7461-63.2812 39.7949-63.4766 39.7949-63.7207C40.2832-74.7559 46.875-81.0547 55.5176-81.0547C64.0625-81.0547 71.3867-74.9023 71.3867-62.2559L71.3867-49.4141L53.3691-49.4141L91.748-11.0352L91.748-38.1836C91.748-44.6289 89.2578-48.1445 84.1797-49.1211L84.1797-61.5234C84.1797-83.252 70.166-93.4082 55.5176-93.4082ZM99.1211 17.3828C100.732 18.9453 103.369 18.9941 104.932 17.3828C106.494 15.7715 106.543 13.1836 104.932 11.5723L13.9648-79.3457C12.3535-80.957 9.7168-80.957 8.10547-79.3457C6.54297-77.7832 6.54297-75.0977 8.10547-73.5352ZM29.9805 12.2559L81.4453 12.2559C82.5195 12.2559 83.5449 12.1582 84.4238 11.9629L24.2188-48.1934C20.3125-46.2402 19.3359-42.7246 19.3359-37.207L19.3359 0.927734C19.3359 8.69141 22.8516 12.2559 29.9805 12.2559Z"/>
  </g>
  <g id="Semibold-M" transform="matrix(1 0 0 1 1988.55 1126)">
   <path d="M54.6875-92.1387C43.4082-92.1387 32.7148-85.7422 28.9551-72.7539C28.8574-72.5586 28.8574-72.5098 28.8086-72.3145L38.0859-63.0371C38.0859-63.3301 38.0859-63.623 38.0859-63.8672C38.8184-75.1953 45.8008-81.543 54.6875-81.543C63.8184-81.543 71.3867-74.9023 71.3867-61.8652L71.3867-49.1699L52.002-49.1211L90.0879-11.0352L90.0879-38.2812C90.0879-44.6777 87.5488-48.0957 82.4219-48.9258L82.4219-61.0352C82.4219-82.1289 68.9453-92.1387 54.6875-92.1387ZM96.9727 16.2109C98.5352 17.7246 101.074 17.7734 102.588 16.2109C104.102 14.6484 104.15 12.1582 102.588 10.5957L14.2578-77.7344C12.6953-79.248 10.1074-79.2969 8.54492-77.7344C7.03125-76.2207 7.03125-73.584 8.54492-72.0703ZM29.6387 11.084L80.2734 11.084C81.2012 11.084 82.0312 11.0352 82.7637 10.8887L24.0234-47.9004C20.459-46.1426 19.3359-42.8711 19.3359-37.6465L19.3359 0.146484C19.3359 7.66602 22.7539 11.084 29.6387 11.084Z"/>
  </g>
  <g id="Medium-M" transform="matrix(1 0 0 1 1692.48 1126)">
   <path d="M54.0527-91.1621C42.8223-91.1621 32.3242-84.668 28.8086-71.582C28.7598-71.3867 28.7598-71.3379 28.7109-71.1426L36.7676-63.0859C36.7676-63.3789 36.8164-63.7207 36.8164-64.0137C37.6953-75.4883 45.0195-81.8848 54.0527-81.8848C63.623-81.8848 71.4355-74.9023 71.4355-61.6211L71.4355-48.9746L50.9277-48.9258L88.8184-11.0352L88.8184-38.3789C88.8184-44.7266 86.2793-48.0957 81.1035-48.7793L81.1035-60.6934C81.1035-81.25 68.0664-91.1621 54.0527-91.1621ZM95.3125 15.332C96.8262 16.8457 99.3164 16.8457 100.781 15.332C102.295 13.7695 102.344 11.3281 100.781 9.81445L14.4531-76.4648C12.9395-77.9785 10.4492-78.0273 8.93555-76.4648C7.42188-75 7.42188-72.4609 8.93555-70.9961ZM29.3457 10.2051L79.3457 10.2051C80.1758 10.2051 80.9082 10.1562 81.543 10.0586L23.8281-47.7051C20.6055-46.0449 19.3359-42.9688 19.3359-37.9883L19.3359-0.439453C19.3359 6.88477 22.6562 10.2051 29.3457 10.2051Z"/>
  </g>
  <g id="Regular-M" transform="matrix(1 0 0 1 1396.6 1126)">
   <path d="M53.2715-89.8926C42.0898-89.8926 31.8359-83.252 28.6621-70.0195C28.6133-69.873 28.6133-69.7754 28.5645-69.6289L35.1074-63.0859C35.1074-63.4766 35.1562-63.8184 35.1562-64.209C36.2305-75.9277 43.9941-82.373 53.2715-82.373C63.3301-82.373 71.4844-74.9023 71.4844-61.2793L71.4844-48.7305L49.5605-48.6816L87.1582-11.0352L87.1582-38.4766C87.1582-44.7754 84.5703-48.0469 79.3457-48.6328L79.3457-60.2051C79.3457-80.1758 66.8945-89.8926 53.2715-89.8926ZM93.1641 14.1602C94.6289 15.625 97.0703 15.625 98.4863 14.1602C99.9023 12.6465 99.9512 10.3027 98.4863 8.83789L14.7461-74.8535C13.2812-76.3184 10.8398-76.3672 9.375-74.8535C7.95898-73.4375 7.95898-70.9473 9.375-69.5312ZM29.0039 9.0332L78.1738 9.0332C78.8086 9.0332 79.3945 8.98438 79.9316 8.93555L23.584-47.4121C20.752-45.9473 19.3359-43.0664 19.3359-38.4277L19.3359-1.17188C19.3359 5.85938 22.5098 9.0332 29.0039 9.0332Z"/>
  </g>
  <g id="Light-M" transform="matrix(1 0 0 1 1100.08 1126)">
   <path d="M53.0273-88.9648C41.1133-88.9648 30.4688-81.2988 28.3691-66.6504C28.3203-66.5039 28.3203-66.3574 28.3203-66.1621L33.4961-60.9863C33.4961-61.5723 33.4961-62.1582 33.4961-62.7441C34.1797-75.6836 42.8711-83.2031 53.0273-83.2031C63.9648-83.2031 72.7051-75 72.7051-60.791L72.7051-48.4375L46.0449-48.4375L86.9629-7.51953L86.9629-38.4277C86.9629-44.873 84.2285-47.998 78.7109-48.3887L78.7109-60.2051C78.7109-79.248 66.6504-88.9648 53.0273-88.9648ZM93.2129 14.6484C94.3359 15.8203 96.2402 15.8203 97.3145 14.6484C98.4863 13.4766 98.4863 11.6699 97.3145 10.5469L14.3066-72.4609C13.2324-73.5352 11.3281-73.6328 10.1562-72.4609C9.08203-71.3379 9.08203-69.4336 10.1562-68.3105ZM28.6133 9.27734L79.0527 9.27734C79.541 9.27734 80.0293 9.27734 80.4199 9.22852L23.7793-47.4609C20.6543-46.1426 19.1406-43.2617 19.1406-38.4277L19.1406-0.732422C19.1406 6.20117 22.2168 9.27734 28.6133 9.27734Z"/>
  </g>
  <g id="Thin-M" transform="matrix(1 0 0 1 803.639 1126)">
   <path d="M52.7832-87.793C39.8438-87.793 28.6621-78.7109 27.9785-62.207C27.9785-62.0117 27.9785-61.8164 27.9785-61.6211L31.2988-58.252C31.2988-59.1309 31.2988-59.9609 31.2988-60.8398C31.4941-75.3906 41.3574-84.3262 52.7832-84.3262C64.7949-84.3262 74.2676-75.1953 74.2676-60.2051L74.2676-48.1445L41.4551-48.0957L86.7676-2.83203L86.7676-38.3789C86.7676-45.0195 83.8379-47.998 77.9297-48.0957L77.9297-60.1562C77.9297-78.0762 66.3086-87.793 52.7832-87.793ZM93.2617 15.332C93.9941 16.0645 95.1172 16.0645 95.8008 15.332C96.582 14.5996 96.5332 13.4766 95.8008 12.793L13.7695-69.2383C13.1348-69.873 11.9629-69.9707 11.2305-69.2383C10.5469-68.5547 10.5469-67.3828 11.2305-66.6992ZM28.0762 9.57031L80.2246 9.57031C80.5176 9.57031 80.8105 9.57031 81.1035 9.57031L24.0234-47.5098C20.5566-46.3867 18.8477-43.5059 18.8477-38.3789L18.8477-0.146484C18.8477 6.64062 21.875 9.57031 28.0762 9.57031Z"/>
  </g>
  <g id="Ultralight-M" transform="matrix(1 0 0 1 507.05 1126)">
   <path d="M52.6367-87.207C39.209-87.207 27.7344-77.3926 27.7832-59.9609C27.7832-59.668 27.7832-59.5215 27.7832-59.2285L30.1758-56.8359C30.1758-57.8613 30.1758-58.8379 30.1758-59.8633C30.127-75.2441 40.5762-84.9121 52.6367-84.9121C65.2344-84.9121 75.0977-75.293 75.0977-59.9121L75.0977-47.9492L39.0625-47.9492L86.6211-0.390625L86.6211-38.3789C86.6211-45.1172 83.6426-47.998 77.4902-47.9492L77.4902-60.1074C77.4902-77.4902 66.1621-87.207 52.6367-87.207ZM93.3105 15.6738C93.7988 16.1621 94.5801 16.1621 95.0195 15.6738C95.6055 15.1367 95.5078 14.4043 95.0195 13.9648L13.5254-67.5781C13.0859-68.0176 12.3047-68.1641 11.7676-67.5781C11.2793-67.1387 11.2793-66.3574 11.7676-65.8691ZM27.7832 9.76562L80.8105 9.76562C81.0059 9.76562 81.25 9.76562 81.4453 9.76562L24.1211-47.5586C20.5078-46.4844 18.7012-43.6035 18.7012-38.3789L18.7012 0.146484C18.7012 6.88477 21.6797 9.76562 27.7832 9.76562Z"/>
  </g>
  <g id="Black-S" transform="matrix(1 0 0 1 2888.19 696)">
   <path d="M45.2148-83.4961C36.1328-83.4961 27.0508-78.8574 23.0957-69.0918C22.998-68.8477 22.998-68.8477 22.9492-68.7012L34.6191-56.9824L34.6191-57.2266C34.6191-65.332 38.8672-70.1172 45.2148-70.1172C50.7324-70.1172 55.8105-66.3574 55.8105-57.1289L55.8105-46.875L44.7266-46.875L75.293-16.3086L75.293-37.3047C75.293-42.4805 73.4375-45.459 69.5801-46.4844L69.5801-56.7871C69.5801-75.1953 57.4219-83.4961 45.2148-83.4961ZM82.1289 8.39844C83.4961 9.7168 85.7422 9.76562 87.0605 8.39844C88.3789 7.03125 88.4277 4.83398 87.0605 3.4668L10.3516-73.1934C8.98438-74.5605 6.73828-74.5605 5.37109-73.1934C4.05273-71.875 4.05273-69.5801 5.37109-68.2617ZM24.2188 4.3457L66.2109 4.3457C67.4316 4.3457 68.5059 4.24805 69.4824 4.00391L19.4824-45.9961C15.5762-44.043 15.1367-40.8691 15.1367-35.8398L15.1367-5.32227C15.1367 1.31836 18.1641 4.3457 24.2188 4.3457Z"/>
  </g>
  <g id="Heavy-S" transform="matrix(1 0 0 1 2592.28 696)">
   <path d="M44.4336-82.3242C35.498-82.3242 26.709-77.6855 22.998-67.9199C22.9004-67.7246 22.9004-67.6758 22.8516-67.5781L33.1543-57.2266C33.1543-57.373 33.1543-57.4219 33.1543-57.5684C33.3984-65.7715 37.9395-70.5078 44.4336-70.5078C50.3906-70.5078 55.7129-66.3086 55.7129-56.8359L55.7129-46.6309L43.75-46.6309L73.6816-16.6992L73.6816-37.4023C73.6816-42.5293 71.7773-45.4102 67.9199-46.3379L67.9199-56.3477C67.9199-74.1699 56.25-82.3242 44.4336-82.3242ZM79.9805 7.17773C81.2988 8.49609 83.5449 8.54492 84.8633 7.17773C86.1816 5.81055 86.2305 3.66211 84.8633 2.29492L10.6934-71.8262C9.32617-73.1934 7.08008-73.1934 5.76172-71.8262C4.44336-70.5078 4.44336-68.2617 5.76172-66.9434ZM23.9258 3.17383L64.9414 3.17383C66.0156 3.17383 66.9434 3.07617 67.8223 2.88086L19.2383-45.7031C15.7227-43.9453 15.1855-40.9668 15.1855-36.2793L15.1855-6.15234C15.1855 0.244141 18.0664 3.17383 23.9258 3.17383Z"/>
  </g>
  <g id="Bold-S" transform="matrix(1 0 0 1 2296.47 696)">
   <path d="M43.5059-81.0059C34.7656-81.0059 26.3184-76.3184 22.8516-66.6016C22.8027-66.4551 22.8027-66.4062 22.7539-66.3086L31.4453-57.5195C31.4453-57.666 31.4941-57.7637 31.4941-57.9102C31.9824-66.2598 36.9629-70.9473 43.5059-70.9473C50.0488-70.9473 55.6152-66.3086 55.6152-56.4941L55.6152-46.3867L42.627-46.3867L71.8262-17.1387L71.8262-37.5488C71.8262-42.5781 69.9219-45.3613 66.0156-46.1426L66.0156-55.8105C66.0156-73.0469 54.9805-81.0059 43.5059-81.0059ZM77.5391 5.81055C78.9062 7.12891 81.1035 7.12891 82.373 5.81055C83.6914 4.44336 83.7402 2.29492 82.373 0.976562L11.0352-70.3125C9.7168-71.6797 7.51953-71.6797 6.15234-70.3125C4.88281-69.043 4.88281-66.7969 6.15234-65.4785ZM23.584 1.85547L63.5254 1.85547C64.4043 1.85547 65.1855 1.75781 65.918 1.61133L18.9453-45.3613C15.918-43.7988 15.1855-41.0645 15.1855-36.7676L15.1855-7.03125C15.1855-0.927734 17.9688 1.85547 23.584 1.85547Z"/>
  </g>
  <g id="Semibold-S" transform="matrix(1 0 0 1 2000.37 696)">
   <path d="M42.9199-80.0781C34.2773-80.0781 26.0742-75.4395 22.7539-65.7227C22.7051-65.5762 22.7051-65.5273 22.6562-65.3809L30.3223-57.7148C30.3223-57.8613 30.3711-58.0078 30.3711-58.1543C31.0547-66.6016 36.2305-71.2402 42.9199-71.2402C49.7559-71.2402 55.5176-66.2598 55.5176-56.25L55.5176-46.2402L41.8457-46.1914L70.5566-17.4805L70.5566-37.6465C70.5566-42.5781 68.6523-45.3125 64.6973-46.0449L64.6973-55.4688C64.6973-72.2168 54.0527-80.0781 42.9199-80.0781ZM75.8789 4.83398C77.1973 6.15234 79.3945 6.20117 80.6641 4.83398C81.9824 3.51562 82.0312 1.36719 80.6641 0.0488281L11.3281-69.2871C9.96094-70.6055 7.8125-70.6055 6.44531-69.2871C5.17578-67.9688 5.17578-65.7715 6.44531-64.4531ZM23.3398 0.927734L62.5488 0.927734C63.3301 0.927734 64.0137 0.878906 64.6484 0.78125L18.75-45.1172C16.0645-43.7012 15.2344-41.1621 15.2344-37.1582L15.2344-7.66602C15.2344-1.75781 17.9199 0.927734 23.3398 0.927734Z"/>
  </g>
  <g id="Medium-S" transform="matrix(1 0 0 1 1704.12 696)">
   <path d="M42.4316-79.3945C33.9355-79.3945 25.8789-74.707 22.7051-65.0391C22.6562-64.8926 22.6562-64.8438 22.6074-64.7461L29.4434-57.8613C29.4434-58.0566 29.4922-58.2031 29.4922-58.3496C30.3223-66.8457 35.7422-71.4844 42.4316-71.4844C49.5605-71.4844 55.4688-66.2598 55.4688-56.0547L55.4688-46.0938L41.2598-46.0449L69.6289-17.6758L69.6289-37.6953C69.6289-42.627 67.6758-45.3125 63.7207-45.9473L63.7207-55.1758C63.7207-71.6309 53.3691-79.3945 42.4316-79.3945ZM74.6094 4.15039C75.9277 5.46875 78.125 5.46875 79.3945 4.15039C80.6641 2.83203 80.7129 0.683594 79.3945-0.634766L11.5234-68.457C10.1562-69.8242 8.00781-69.8242 6.68945-68.457C5.37109-67.1875 5.37109-64.9902 6.68945-63.7207ZM23.1445 0.244141L61.8164 0.244141C62.5 0.244141 63.0859 0.195312 63.6719 0.0976562L18.6035-44.9707C16.1621-43.6035 15.2344-41.2109 15.2344-37.4023L15.2344-8.1543C15.2344-2.39258 17.8711 0.244141 23.1445 0.244141Z"/>
  </g>
  <g id="Regular-S" transform="matrix(1 0 0 1 1408.02 696)">
   <path d="M41.7969-78.4668C33.4473-78.4668 25.6348-73.8281 22.6074-64.1113C22.5586-64.0137 22.5586-63.9648 22.5098-63.8672L28.3203-58.0566C28.3203-58.252 28.3691-58.4473 28.3691-58.5938C29.3945-67.1875 35.0098-71.7773 41.7969-71.7773C49.3164-71.7773 55.4199-66.2109 55.4199-55.8594L55.4199-45.8984L40.5273-45.8496L68.3594-18.0176L68.3594-37.793C68.3594-42.627 66.4062-45.2637 62.4512-45.8008L62.4512-54.834C62.4512-70.8496 52.4902-78.4668 41.7969-78.4668ZM72.9492 3.22266C74.2676 4.54102 76.416 4.54102 77.6855 3.22266C78.9551 1.9043 79.0039-0.244141 77.6855-1.5625L11.7676-67.4316C10.4492-68.75 8.30078-68.75 6.98242-67.4316C5.71289-66.1621 5.71289-63.9648 6.98242-62.6953ZM22.9492-0.634766L60.8398-0.634766C61.377-0.634766 61.9141-0.683594 62.4023-0.732422L18.4082-44.7266C16.3086-43.5547 15.2344-41.3086 15.2344-37.7441L15.2344-8.78906C15.2344-3.22266 17.7734-0.634766 22.9492-0.634766Z"/>
  </g>
  <g id="Light-S" transform="matrix(1 0 0 1 1111.48 696)">
   <path d="M41.6504-77.6855C32.6172-77.6855 24.4141-72.0703 22.3633-61.1328C22.3145-61.0352 22.3145-60.9375 22.2656-60.791L26.8555-56.25C26.8555-56.5918 26.9043-56.9824 26.9043-57.3242C27.5879-66.9922 34.0332-72.5098 41.6504-72.5098C49.8535-72.5098 56.4941-66.3574 56.4941-55.4199L56.4941-45.7031L37.4512-45.6543L68.2129-14.8438L68.2129-37.7441C68.2129-42.7246 66.1133-45.2637 61.9141-45.6055L61.9141-54.7852C61.9141-70.0684 52.2949-77.6855 41.6504-77.6855ZM72.998 3.66211C74.0234 4.6875 75.6836 4.6875 76.709 3.66211C77.6855 2.63672 77.7344 0.976562 76.709-0.0488281L11.377-65.2832C10.4004-66.3086 8.69141-66.3574 7.66602-65.2832C6.68945-64.3066 6.68945-62.5977 7.66602-61.6211ZM22.5586-0.439453L61.6211-0.439453C62.0605-0.439453 62.4512-0.488281 62.8418-0.488281L18.5547-44.7754C16.2109-43.7012 15.0391-41.4551 15.0391-37.7441L15.0391-8.34961C15.0391-2.92969 17.5293-0.439453 22.5586-0.439453Z"/>
  </g>
  <g id="Thin-S" transform="matrix(1 0 0 1 815.016 696)">
   <path d="M41.4062-76.6602C31.4941-76.6602 22.8027-69.8242 22.0215-57.2266C21.9727-57.0312 21.9727-56.9336 21.9727-56.7383L24.9512-53.8086C24.9512-54.3945 24.9512-55.0293 24.9512-55.6641C25.1953-66.748 32.666-73.4863 41.4062-73.4863C50.5859-73.4863 57.9102-66.5039 57.9102-54.9316L57.9102-45.4102L33.3496-45.4102L68.0176-10.7422L68.0176-37.7441C68.0176-42.8711 65.7715-45.2148 61.1816-45.3613L61.1816-54.7852C61.1816-69.043 52.0508-76.6602 41.4062-76.6602ZM73.0469 4.24805C73.6816 4.88281 74.7559 4.88281 75.3418 4.24805C76.0254 3.56445 75.9766 2.58789 75.3418 1.95312L10.8887-62.5C10.3027-63.0859 9.27734-63.1348 8.59375-62.5C7.95898-61.8652 7.95898-60.791 8.59375-60.2051ZM22.0703-0.195312L62.6465-0.195312C62.8906-0.195312 63.1836-0.195312 63.3789-0.195312L18.75-44.8242C16.1133-43.8965 14.7949-41.6504 14.7949-37.6953L14.7949-7.86133C14.7949-2.49023 17.1875-0.195312 22.0703-0.195312Z"/>
  </g>
  <g id="Ultralight-S" transform="matrix(1 0 0 1 518.427 696)">
   <path d="M41.3086-76.123C30.9082-76.123 21.9727-68.6523 21.8262-55.1758C21.8262-55.0293 21.8262-54.8828 21.8262-54.6875L23.9746-52.5391C23.9746-53.2715 23.9746-54.0527 23.9746-54.7852C23.9746-66.6504 31.9824-74.0234 41.3086-74.0234C50.9766-74.0234 58.6426-66.6016 58.6426-54.6387L58.6426-45.2637L31.25-45.2637L67.9199-8.59375L67.9199-37.6953C67.9199-42.9688 65.5762-45.2148 60.8398-45.2637L60.8398-54.7363C60.8398-68.5059 51.9043-76.123 41.3086-76.123ZM73.0957 4.58984C73.5352 4.98047 74.2188 4.98047 74.6582 4.58984C75.1465 4.10156 75.0977 3.41797 74.6582 2.97852L10.6445-61.0352C10.2539-61.4258 9.57031-61.5234 9.08203-61.0352C8.64258-60.5957 8.64258-59.8633 9.08203-59.4238ZM21.8262-0.0488281L63.1836-0.0488281C63.3301-0.0488281 63.5254-0.0488281 63.7207-0.0488281L18.8477-44.873C16.0645-43.9941 14.6973-41.748 14.6973-37.6953L14.6973-7.56836C14.6973-2.29492 17.041-0.0488281 21.8262-0.0488281Z"/>
  </g>
 </g>
</svg>
