<?xml version="1.0" encoding="UTF-8"?>
<!--Generator: Apple Native CoreSVG 149-->
<!DOCTYPE svg
PUBLIC "-//W3C//DTD SVG 1.1//EN"
       "http://www.w3.org/Graphics/SVG/1.1/DTD/svg11.dtd">
<svg version="1.1" xmlns="http://www.w3.org/2000/svg" xmlns:xlink="http://www.w3.org/1999/xlink" width="3300" height="2200">
 <!--glyph: "uni1002B3.medium", point size: 100.000000, font version: "Version 16.0d18e1", template writer version: "8"-->
 <g id="Notes">
  <rect height="2200" id="artboard" style="fill:white;opacity:1" width="3300" x="0" y="0"/>
  <line id="" style="fill:none;stroke:black;opacity:1;stroke-width:0.5;" x1="263" x2="3036" y1="292" y2="292"/>
  <text style="stroke:none;fill:black;font-family:-apple-system,&quot;SF Pro Display&quot;,&quot;SF Pro Text&quot;,Helvetica,sans-serif;font-weight:bold;" transform="matrix(1 0 0 1 263 322)">Weight/Scale Variations</text>
  <text style="stroke:none;fill:black;font-family:-apple-system,&quot;SF Pro Display&quot;,&quot;SF Pro Text&quot;,Helvetica,sans-serif;text-anchor:middle;" transform="matrix(1 0 0 1 559.711 322)">Ultralight</text>
  <text style="stroke:none;fill:black;font-family:-apple-system,&quot;SF Pro Display&quot;,&quot;SF Pro Text&quot;,Helvetica,sans-serif;text-anchor:middle;" transform="matrix(1 0 0 1 856.422 322)">Thin</text>
  <text style="stroke:none;fill:black;font-family:-apple-system,&quot;SF Pro Display&quot;,&quot;SF Pro Text&quot;,Helvetica,sans-serif;text-anchor:middle;" transform="matrix(1 0 0 1 1153.13 322)">Light</text>
  <text style="stroke:none;fill:black;font-family:-apple-system,&quot;SF Pro Display&quot;,&quot;SF Pro Text&quot;,Helvetica,sans-serif;text-anchor:middle;" transform="matrix(1 0 0 1 1449.84 322)">Regular</text>
  <text style="stroke:none;fill:black;font-family:-apple-system,&quot;SF Pro Display&quot;,&quot;SF Pro Text&quot;,Helvetica,sans-serif;text-anchor:middle;" transform="matrix(1 0 0 1 1746.56 322)">Medium</text>
  <text style="stroke:none;fill:black;font-family:-apple-system,&quot;SF Pro Display&quot;,&quot;SF Pro Text&quot;,Helvetica,sans-serif;text-anchor:middle;" transform="matrix(1 0 0 1 2043.27 322)">Semibold</text>
  <text style="stroke:none;fill:black;font-family:-apple-system,&quot;SF Pro Display&quot;,&quot;SF Pro Text&quot;,Helvetica,sans-serif;text-anchor:middle;" transform="matrix(1 0 0 1 2339.98 322)">Bold</text>
  <text style="stroke:none;fill:black;font-family:-apple-system,&quot;SF Pro Display&quot;,&quot;SF Pro Text&quot;,Helvetica,sans-serif;text-anchor:middle;" transform="matrix(1 0 0 1 2636.69 322)">Heavy</text>
  <text style="stroke:none;fill:black;font-family:-apple-system,&quot;SF Pro Display&quot;,&quot;SF Pro Text&quot;,Helvetica,sans-serif;text-anchor:middle;" transform="matrix(1 0 0 1 2933.4 322)">Black</text>
  <line id="" style="fill:none;stroke:black;opacity:1;stroke-width:0.5;" x1="263" x2="3036" y1="1903" y2="1903"/>
  <g id="" transform="matrix(1 0 0 1 263 1933)">
   <path d="M9.24805 0.830078C13.5547 0.830078 17.1387-2.74414 17.1387-7.05078C17.1387-11.3574 13.5449-14.9316 9.23828-14.9316C4.94141-14.9316 1.36719-11.3574 1.36719-7.05078C1.36719-2.74414 4.95117 0.830078 9.24805 0.830078ZM9.24805-0.654297C5.70312-0.654297 2.87109-3.49609 2.87109-7.05078C2.87109-10.6055 5.69336-13.4473 9.23828-13.4473C12.793-13.4473 15.6348-10.6055 15.6445-7.05078C15.6543-3.49609 12.8027-0.654297 9.24805-0.654297ZM6.39648-6.31836L8.50586-6.31836L8.50586-4.19922C8.50586-3.75977 8.79883-3.45703 9.22852-3.45703C9.67773-3.45703 9.9707-3.75977 9.9707-4.19922L9.9707-6.31836L12.0996-6.31836C12.5391-6.31836 12.8418-6.61133 12.8418-7.04102C12.8418-7.48047 12.5391-7.7832 12.0996-7.7832L9.9707-7.7832L9.9707-9.89258C9.9707-10.3418 9.67773-10.6445 9.22852-10.6445C8.79883-10.6445 8.50586-10.3418 8.50586-9.89258L8.50586-7.7832L6.39648-7.7832C5.94727-7.7832 5.64453-7.48047 5.64453-7.04102C5.64453-6.61133 5.94727-6.31836 6.39648-6.31836Z"/>
  </g>
  <g id="" transform="matrix(1 0 0 1 281.506 1933)">
   <path d="M11.709 2.91016C17.1582 2.91016 21.6699-1.61133 21.6699-7.05078C21.6699-12.5 17.1484-17.0117 11.6992-17.0117C6.25977-17.0117 1.74805-12.5 1.74805-7.05078C1.74805-1.61133 6.26953 2.91016 11.709 2.91016ZM11.709 1.25C7.09961 1.25 3.41797-2.44141 3.41797-7.05078C3.41797-11.6602 7.08984-15.3516 11.6992-15.3516C16.3086-15.3516 20-11.6602 20.0098-7.05078C20.0195-2.44141 16.3184 1.25 11.709 1.25ZM7.98828-6.23047L10.8789-6.23047L10.8789-3.32031C10.8789-2.83203 11.2109-2.5 11.6895-2.5C12.1777-2.5 12.5195-2.83203 12.5195-3.32031L12.5195-6.23047L15.4297-6.23047C15.918-6.23047 16.25-6.5625 16.25-7.04102C16.25-7.5293 15.918-7.87109 15.4297-7.87109L12.5195-7.87109L12.5195-10.7617C12.5195-11.2695 12.1777-11.6016 11.6895-11.6016C11.2109-11.6016 10.8789-11.2598 10.8789-10.7617L10.8789-7.87109L7.98828-7.87109C7.48047-7.87109 7.14844-7.5293 7.14844-7.04102C7.14844-6.5625 7.49023-6.23047 7.98828-6.23047Z"/>
  </g>
  <g id="" transform="matrix(1 0 0 1 304.924 1933)">
   <path d="M14.9707 5.66406C21.9336 5.66406 27.6953-0.0976562 27.6953-7.05078C27.6953-14.0137 21.9238-19.7754 14.9609-19.7754C8.00781-19.7754 2.25586-14.0137 2.25586-7.05078C2.25586-0.0976562 8.01758 5.66406 14.9707 5.66406ZM14.9707 3.84766C8.93555 3.84766 4.08203-1.01562 4.08203-7.05078C4.08203-13.0957 8.92578-17.9492 14.9609-17.9492C21.0059-17.9492 25.8594-13.0957 25.8691-7.05078C25.8789-1.01562 21.0156 3.84766 14.9707 3.84766ZM10.0586-6.14258L14.0625-6.14258L14.0625-2.12891C14.0625-1.5918 14.4336-1.2207 14.9512-1.2207C15.4883-1.2207 15.8594-1.5918 15.8594-2.12891L15.8594-6.14258L19.8828-6.14258C20.4102-6.14258 20.791-6.51367 20.791-7.03125C20.791-7.56836 20.4199-7.94922 19.8828-7.94922L15.8594-7.94922L15.8594-11.9531C15.8594-12.5098 15.4883-12.8809 14.9512-12.8809C14.4336-12.8809 14.0625-12.5 14.0625-11.9531L14.0625-7.94922L10.0586-7.94922C9.50195-7.94922 9.13086-7.56836 9.13086-7.03125C9.13086-6.51367 9.51172-6.14258 10.0586-6.14258Z"/>
  </g>
  <text style="stroke:none;fill:black;font-family:-apple-system,&quot;SF Pro Display&quot;,&quot;SF Pro Text&quot;,Helvetica,sans-serif;font-weight:bold;" transform="matrix(1 0 0 1 263 1953)">Design Variations</text>
  <text style="stroke:none;fill:black;font-family:-apple-system,&quot;SF Pro Display&quot;,&quot;SF Pro Text&quot;,Helvetica,sans-serif;" transform="matrix(1 0 0 1 263 1971)">Symbols are supported in up to nine weights and three scales.</text>
  <text style="stroke:none;fill:black;font-family:-apple-system,&quot;SF Pro Display&quot;,&quot;SF Pro Text&quot;,Helvetica,sans-serif;" transform="matrix(1 0 0 1 263 1989)">For optimal layout with text and other symbols, vertically align</text>
  <text style="stroke:none;fill:black;font-family:-apple-system,&quot;SF Pro Display&quot;,&quot;SF Pro Text&quot;,Helvetica,sans-serif;" transform="matrix(1 0 0 1 263 2007)">symbols with the adjacent text.</text>
  <line id="" style="fill:none;stroke:#00AEEF;stroke-width:0.5;opacity:1.0;" x1="776" x2="776" y1="1919" y2="1933"/>
  <g id="" transform="matrix(1 0 0 1 776 1933)">
   <path d="M3.31055 0.126953C3.82812 0.126953 4.08203-0.0683594 4.26758-0.605469L5.52734-4.0625L11.2891-4.0625L12.5488-0.605469C12.7344-0.0683594 12.9883 0.126953 13.4961 0.126953C14.0137 0.126953 14.3457-0.185547 14.3457-0.673828C14.3457-0.839844 14.3164-0.986328 14.2383-1.20117L9.6582-13.3887C9.43359-13.9941 9.0332-14.2871 8.4082-14.2871C7.80273-14.2871 7.39258-13.9941 7.17773-13.3984L2.59766-1.19141C2.51953-0.976562 2.49023-0.830078 2.49023-0.664062C2.49023-0.175781 2.80273 0.126953 3.31055 0.126953ZM6.00586-5.53711L8.37891-12.1094L8.42773-12.1094L10.8008-5.53711Z"/>
  </g>
  <line id="" style="fill:none;stroke:#00AEEF;stroke-width:0.5;opacity:1.0;" x1="792.836" x2="792.836" y1="1919" y2="1933"/>
  <text style="stroke:none;fill:black;font-family:-apple-system,&quot;SF Pro Display&quot;,&quot;SF Pro Text&quot;,Helvetica,sans-serif;font-weight:bold;" transform="matrix(1 0 0 1 776 1953)">Margins</text>
  <text style="stroke:none;fill:black;font-family:-apple-system,&quot;SF Pro Display&quot;,&quot;SF Pro Text&quot;,Helvetica,sans-serif;" transform="matrix(1 0 0 1 776 1971)">Leading and trailing margins on the left and right side of each symbol</text>
  <text style="stroke:none;fill:black;font-family:-apple-system,&quot;SF Pro Display&quot;,&quot;SF Pro Text&quot;,Helvetica,sans-serif;" transform="matrix(1 0 0 1 776 1989)">can be adjusted by modifying the x-location of the margin guidelines.</text>
  <text style="stroke:none;fill:black;font-family:-apple-system,&quot;SF Pro Display&quot;,&quot;SF Pro Text&quot;,Helvetica,sans-serif;" transform="matrix(1 0 0 1 776 2007)">Modifications are automatically applied proportionally to all</text>
  <text style="stroke:none;fill:black;font-family:-apple-system,&quot;SF Pro Display&quot;,&quot;SF Pro Text&quot;,Helvetica,sans-serif;" transform="matrix(1 0 0 1 776 2025)">scales and weights.</text>
  <g id="" transform="matrix(1 0 0 1 1289 1933)">
   <path d="M2.8418 1.86523L4.54102 3.57422C5.40039 4.44336 6.38672 4.38477 7.31445 3.35938L17.4902-7.85156C17.7539-7.76367 18.0273-7.7832 18.3398-7.8418L19.4043-8.03711L20.0684-7.36328L20.0293-6.80664C19.9902-6.30859 20.1172-5.92773 20.6055-5.44922L21.3672-4.70703C21.8457-4.22852 22.4609-4.19922 22.9297-4.66797L25.8398-7.58789C26.3086-8.05664 26.2891-8.65234 25.8105-9.13086L25.0391-9.89258C24.5605-10.3711 24.1895-10.5273 23.7109-10.4883L23.1348-10.4395L22.4902-11.0742L22.7344-12.1973C22.8613-12.7637 22.7051-13.2031 22.1191-13.7891L19.9219-15.9766C16.582-19.2969 12.1484-19.2188 9.25781-16.3281C8.83789-15.918 8.80859-15.3418 9.04297-14.9512C9.27734-14.5898 9.73633-14.3555 10.3809-14.5215C11.8457-14.8633 13.3691-14.9219 14.7949-13.9844L14.209-12.5293C14.0137-12.0508 13.9844-11.6504 14.1113-11.2891L3.04688-0.898438C2.06055 0.0195312 1.98242 0.996094 2.8418 1.86523ZM10.752-15.957C13.1836-17.7344 16.4746-17.4316 18.7012-15.2051L21.1328-12.793C21.3672-12.5586 21.4062-12.373 21.3379-12.0312L21.0156-10.5469L22.5195-9.0625L23.5059-9.12109C23.7598-9.13086 23.8379-9.11133 24.0332-8.91602L24.6094-8.33984L22.168-5.89844L21.5918-6.47461C21.3965-6.66992 21.3672-6.74805 21.377-7.01172L21.4453-7.98828L19.9512-9.47266L18.4277-9.21875C18.1055-9.15039 17.959-9.17969 17.7148-9.41406L15.7129-11.416C15.459-11.6504 15.4297-11.8164 15.5859-12.1875L16.4648-14.2773C14.9023-15.7324 12.8711-16.3574 10.8398-15.7617C10.6836-15.7227 10.625-15.8496 10.752-15.957ZM5.27344 2.30469L4.10156 1.14258C3.63281 0.683594 3.74023 0.341797 4.14062-0.0195312L14.9512-10.1953L16.416-8.71094L6.42578 2.27539C6.07422 2.67578 5.74219 2.77344 5.27344 2.30469Z"/>
  </g>
  <text style="stroke:none;fill:black;font-family:-apple-system,&quot;SF Pro Display&quot;,&quot;SF Pro Text&quot;,Helvetica,sans-serif;font-weight:bold;" transform="matrix(1 0 0 1 1289 1953)">Exporting</text>
  <text style="stroke:none;fill:black;font-family:-apple-system,&quot;SF Pro Display&quot;,&quot;SF Pro Text&quot;,Helvetica,sans-serif;" transform="matrix(1 0 0 1 1289 1971)">Symbols should be outlined when exporting to ensure the</text>
  <text style="stroke:none;fill:black;font-family:-apple-system,&quot;SF Pro Display&quot;,&quot;SF Pro Text&quot;,Helvetica,sans-serif;" transform="matrix(1 0 0 1 1289 1989)">design is preserved when submitting to Xcode.</text>
  <text id="template-version" style="stroke:none;fill:black;font-family:-apple-system,&quot;SF Pro Display&quot;,&quot;SF Pro Text&quot;,Helvetica,sans-serif;text-anchor:end;" transform="matrix(1 0 0 1 3036 1933)">Template v.2.0</text>
  <text style="stroke:none;fill:black;font-family:-apple-system,&quot;SF Pro Display&quot;,&quot;SF Pro Text&quot;,Helvetica,sans-serif;text-anchor:end;" transform="matrix(1 0 0 1 3036 1951)">Requires Xcode 12 or greater</text>
  <text style="stroke:none;fill:black;font-family:-apple-system,&quot;SF Pro Display&quot;,&quot;SF Pro Text&quot;,Helvetica,sans-serif;text-anchor:end;" transform="matrix(1 0 0 1 3036 1969)">Generated from mic.slash.fill</text>
  <text style="stroke:none;fill:black;font-family:-apple-system,&quot;SF Pro Display&quot;,&quot;SF Pro Text&quot;,Helvetica,sans-serif;text-anchor:end;" transform="matrix(1 0 0 1 3036 1987)">Typeset at 100 points</text>
  <text style="stroke:none;fill:black;font-family:-apple-system,&quot;SF Pro Display&quot;,&quot;SF Pro Text&quot;,Helvetica,sans-serif;" transform="matrix(1 0 0 1 263 726)">Small</text>
  <text style="stroke:none;fill:black;font-family:-apple-system,&quot;SF Pro Display&quot;,&quot;SF Pro Text&quot;,Helvetica,sans-serif;" transform="matrix(1 0 0 1 263 1156)">Medium</text>
  <text style="stroke:none;fill:black;font-family:-apple-system,&quot;SF Pro Display&quot;,&quot;SF Pro Text&quot;,Helvetica,sans-serif;" transform="matrix(1 0 0 1 263 1586)">Large</text>
 </g>
 <g id="Guides">
  <g id="H-reference" style="fill:#27AAE1;stroke:none;" transform="matrix(1 0 0 1 339 696)">
   <path d="M0.976562 0L3.66211 0L12.9883-24.4629L45.752-24.4629L55.127 0L57.7637 0L30.6152-70.459L28.125-70.459ZM29.3457-67.1387L29.4434-67.1387L44.873-26.709L13.8672-26.709Z"/>
  </g>
  <line id="Baseline-S" style="fill:none;stroke:#27AAE1;opacity:1;stroke-width:0.5;" x1="263" x2="3036" y1="696" y2="696"/>
  <line id="Capline-S" style="fill:none;stroke:#27AAE1;opacity:1;stroke-width:0.5;" x1="263" x2="3036" y1="625.541" y2="625.541"/>
  <g id="H-reference" style="fill:#27AAE1;stroke:none;" transform="matrix(1 0 0 1 339 1126)">
   <path d="M0.976562 0L3.66211 0L12.9883-24.4629L45.752-24.4629L55.127 0L57.7637 0L30.6152-70.459L28.125-70.459ZM29.3457-67.1387L29.4434-67.1387L44.873-26.709L13.8672-26.709Z"/>
  </g>
  <line id="Baseline-M" style="fill:none;stroke:#27AAE1;opacity:1;stroke-width:0.5;" x1="263" x2="3036" y1="1126" y2="1126"/>
  <line id="Capline-M" style="fill:none;stroke:#27AAE1;opacity:1;stroke-width:0.5;" x1="263" x2="3036" y1="1055.54" y2="1055.54"/>
  <g id="H-reference" style="fill:#27AAE1;stroke:none;" transform="matrix(1 0 0 1 339 1556)">
   <path d="M0.976562 0L3.66211 0L12.9883-24.4629L45.752-24.4629L55.127 0L57.7637 0L30.6152-70.459L28.125-70.459ZM29.3457-67.1387L29.4434-67.1387L44.873-26.709L13.8672-26.709Z"/>
  </g>
  <line id="Baseline-L" style="fill:none;stroke:#27AAE1;opacity:1;stroke-width:0.5;" x1="263" x2="3036" y1="1556" y2="1556"/>
  <line id="Capline-L" style="fill:none;stroke:#27AAE1;opacity:1;stroke-width:0.5;" x1="263" x2="3036" y1="1485.54" y2="1485.54"/>
  <line id="left-margin" style="fill:none;stroke:#00AEEF;stroke-width:0.5;opacity:1.0;" x1="1400.09" x2="1400.09" y1="1030.79" y2="1150.12"/>
  <line id="right-margin" style="fill:none;stroke:#00AEEF;stroke-width:0.5;opacity:1.0;" x1="1499.6" x2="1499.6" y1="1030.79" y2="1150.12"/>
 </g>
 <g id="Symbols">
  <g id="Black-L" transform="matrix(1 0 0 1 2858.16 1556)">
   <path d="M75.2441-112.646C64.7949-112.646 55.3711-106.396 51.6602-96.3379L101.123-46.875L101.123-86.5723C101.123-102.295 88.7207-112.646 75.2441-112.646ZM131.006 12.1582C133.301 14.3555 136.963 14.4043 139.16 12.1582C141.309 9.91211 141.406 6.29883 139.16 4.00391L27.2461-107.764C25-110.059 21.2891-110.059 19.043-107.764C16.8945-105.615 16.8945-101.855 19.043-99.6582ZM17.6758-41.7969C17.6758-11.5723 38.2324 7.86133 65.8691 11.4258L65.8691 18.0664L43.75 18.0664C38.2812 18.0664 33.5449 22.5098 33.5449 27.9785C33.5449 33.3008 38.2812 37.8418 43.75 37.8418L106.738 37.8418C112.207 37.8418 116.943 33.3008 116.943 27.9785C116.943 22.5098 112.207 18.0664 106.738 18.0664L84.6191 18.0664L84.6191 11.4258C93.6035 10.2539 101.855 7.42188 108.838 3.07617L94.2871-11.5723C88.7207-8.74023 82.2266-7.22656 75.2441-7.22656C54.1016-7.22656 37.9395-20.8984 37.9395-42.3828L37.9395-53.3203C37.9395-58.7402 33.252-62.9395 27.7344-62.9395C22.2168-62.9395 17.6758-58.7402 17.6758-53.3203ZM111.963-36.0352L128.467-19.5312C131.299-26.0742 132.812-33.5449 132.812-41.7969L132.812-53.3203C132.812-58.7402 128.271-62.9395 122.754-62.9395C117.236-62.9395 112.549-58.7402 112.549-53.3203L112.549-42.3828C112.549-40.1367 112.354-38.0371 111.963-36.0352ZM75.2441-18.4082C78.7109-18.4082 82.1777-19.1895 85.3027-20.5078L49.2188-56.5918L49.2188-44.4336C49.2188-28.6621 61.7188-18.4082 75.2441-18.4082Z"/>
  </g>
  <g id="Heavy-L" transform="matrix(1 0 0 1 2564.33 1556)">
   <path d="M72.3633-111.182C61.4746-111.182 52.3438-104.248 49.4629-93.5547L49.4629-92.4805L96.9238-45.0684C96.9727-45.459 96.9727-45.8984 96.9727-46.3379L96.9727-85.9375C96.9727-101.074 85.5957-111.182 72.3633-111.182ZM125.879 11.2793C127.979 13.3789 131.445 13.3789 133.496 11.2793C135.498 9.17969 135.596 5.81055 133.496 3.71094L25.293-104.395C23.1934-106.494 19.7754-106.494 17.627-104.395C15.625-102.344 15.625-98.8281 17.627-96.7773ZM17.9688-41.4551C17.9688-12.6953 37.4512 6.20117 64.2578 9.27734L64.2578 18.2129L41.6504 18.2129C36.9629 18.2129 32.8613 22.0215 32.8613 26.7578C32.8613 31.3965 36.9629 35.2539 41.6504 35.2539L103.027 35.2539C107.764 35.2539 111.816 31.3965 111.816 26.7578C111.816 22.0215 107.764 18.2129 103.027 18.2129L80.4688 18.2129L80.4688 9.27734C89.1113 8.30078 97.0215 5.66406 103.711 1.51367L91.2109-11.0352C85.7422-8.25195 79.3457-6.68945 72.3633-6.68945C51.0742-6.68945 35.4004-20.5566 35.4004-41.9922L35.4004-53.2227C35.4004-57.9102 31.3965-61.5234 26.6113-61.5234C21.875-61.5234 17.9688-57.9102 17.9688-53.2227ZM108.203-33.7402L122.363-19.6289C125.195-26.0254 126.709-33.3496 126.709-41.4551L126.709-53.2227C126.709-57.9102 122.852-61.5234 118.066-61.5234C113.33-61.5234 109.326-57.9102 109.326-53.2227L109.326-41.9922C109.326-39.0625 108.936-36.2793 108.203-33.7402ZM72.3633-18.6523C75.5859-18.6523 78.7598-19.3359 81.6406-20.5566L47.6074-54.6387L47.6074-43.7988C47.6074-28.6621 59.082-18.6523 72.3633-18.6523Z"/>
  </g>
  <g id="Bold-L" transform="matrix(1 0 0 1 2270.86 1556)">
   <path d="M69.1406-109.521C57.7637-109.521 48.9746-101.855 47.0215-90.4297L47.0215-88.1836L92.1875-43.0176C92.2852-43.5547 92.3828-44.1406 92.3828-44.7754L92.3828-85.2539C92.3828-99.707 82.0312-109.521 69.1406-109.521ZM120.117 10.3516C122.07 12.2559 125.244 12.3047 127.148 10.3516C129.004 8.39844 129.053 5.27344 127.148 3.32031L23.1445-100.586C21.1914-102.49 18.0176-102.539 16.0645-100.586C14.1602-98.7305 14.1602-95.459 16.0645-93.5547ZM18.3105-41.1133C18.3105-13.916 36.6211 4.29688 62.4023 6.93359L62.4023 18.4082L39.3066 18.4082C35.4492 18.4082 32.1289 21.5332 32.1289 25.3906C32.1289 29.1992 35.4492 32.373 39.3066 32.373L98.9258 32.373C102.783 32.373 106.104 29.1992 106.104 25.3906C106.104 21.5332 102.783 18.4082 98.9258 18.4082L75.8301 18.4082L75.8301 6.93359C84.1309 6.10352 91.6016 3.66211 97.9004-0.244141L87.7441-10.4492C82.4219-7.66602 76.123-6.15234 69.1406-6.15234C47.6562-6.15234 32.5195-20.166 32.5195-41.5527L32.5195-53.125C32.5195-56.9824 29.2969-59.9609 25.3906-59.9609C21.4844-59.9609 18.3105-56.9824 18.3105-53.125ZM104.053-31.2012L115.479-19.7754C118.359-25.9766 119.922-33.1543 119.922-41.1133L119.922-53.125C119.922-56.9824 116.748-59.9609 112.842-59.9609C108.936-59.9609 105.713-56.9824 105.713-53.125L105.713-41.5527C105.713-37.793 105.127-34.3262 104.053-31.2012ZM69.1406-18.9453C72.0703-18.9453 75-19.5312 77.5391-20.6055L45.8008-52.3926L45.8008-43.1152C45.8008-28.7109 56.1523-18.9453 69.1406-18.9453Z"/>
  </g>
  <g id="Semibold-L" transform="matrix(1 0 0 1 1976.37 1556)">
   <path d="M66.8945-108.35C55.2246-108.35 46.6797-100.195 45.3125-88.2812L45.3125-85.2539L88.9648-41.6016C89.1113-42.2852 89.1602-42.9688 89.1602-43.7012L89.1602-84.8145C89.1602-98.7305 79.6387-108.35 66.8945-108.35ZM116.162 9.66797C117.969 11.5234 120.996 11.5234 122.754 9.66797C124.561 7.86133 124.561 4.93164 122.754 3.07617L21.6309-97.9492C19.8242-99.7559 16.7969-99.8047 14.9414-97.9492C13.1836-96.1914 13.1836-93.1152 14.9414-91.3574ZM18.5547-40.8691C18.5547-14.7949 36.0352 2.97852 61.1328 5.32227L61.1328 18.5059L37.6953 18.5059C34.375 18.5059 31.6406 21.1426 31.6406 24.4629C31.6406 27.6855 34.375 30.3711 37.6953 30.3711L96.0938 30.3711C99.3652 30.3711 102.148 27.6855 102.148 24.4629C102.148 21.1426 99.3652 18.5059 96.0938 18.5059L72.6562 18.5059L72.6562 5.32227C80.6641 4.58984 87.8906 2.29492 93.9453-1.41602L85.3516-10.0586C80.127-7.27539 73.877-5.71289 66.8945-5.71289C45.3125-5.71289 30.5664-19.9219 30.5664-41.2598L30.5664-53.0273C30.5664-56.2988 27.8809-58.8867 24.5605-58.8867C21.2402-58.8867 18.5547-56.2988 18.5547-53.0273ZM101.172-29.4434L110.742-19.873C113.623-25.9766 115.186-33.0566 115.186-40.8691L115.186-53.0273C115.186-56.2988 112.549-58.8867 109.229-58.8867C105.908-58.8867 103.223-56.2988 103.223-53.0273L103.223-41.2598C103.223-36.9629 102.49-33.0078 101.172-29.4434ZM66.8945-19.1406C69.6777-19.1406 72.3633-19.6777 74.7559-20.6543L44.5312-50.8301L44.5312-42.6758C44.5312-28.7109 54.1504-19.1406 66.8945-19.1406Z"/>
  </g>
  <g id="Medium-L" transform="matrix(1 0 0 1 1681.37 1556)">
   <path d="M65.1855-107.52C53.2715-107.52 44.9219-98.9746 44.043-86.6699L44.043-83.0078L86.4746-40.5273C86.6699-41.2598 86.7676-42.0898 86.7676-42.9199L86.7676-84.4238C86.7676-98.0469 77.7832-107.52 65.1855-107.52ZM113.135 9.17969C114.893 10.9375 117.773 10.9375 119.434 9.17969C121.143 7.42188 121.191 4.63867 119.434 2.88086L20.459-95.9961C18.75-97.7051 15.918-97.7539 14.1113-95.9961C12.4512-94.2871 12.4512-91.3574 14.1113-89.6973ZM18.75-40.6738C18.75-15.4297 35.5957 2.00195 60.1562 4.10156L60.1562 18.6035L36.4746 18.6035C33.5938 18.6035 31.25 20.8984 31.25 23.7305C31.25 26.5625 33.5938 28.8574 36.4746 28.8574L93.9453 28.8574C96.7773 28.8574 99.1211 26.5625 99.1211 23.7305C99.1211 20.8984 96.7773 18.6035 93.9453 18.6035L70.2148 18.6035L70.2148 4.10156C78.0273 3.4668 85.0586 1.26953 90.918-2.34375L83.5449-9.76562C78.3691-6.98242 72.168-5.41992 65.1855-5.41992C43.5547-5.41992 29.1016-19.7266 29.1016-41.0156L29.1016-52.9785C29.1016-55.8105 26.7578-58.0566 23.9258-58.0566C21.0449-58.0566 18.75-55.8105 18.75-52.9785ZM98.9746-28.0762L107.129-19.9219C110.059-25.9766 111.621-32.959 111.621-40.6738L111.621-52.9785C111.621-55.8105 109.326-58.0566 106.494-58.0566C103.613-58.0566 101.318-55.8105 101.318-52.9785L101.318-41.0156C101.318-36.2793 100.488-31.9824 98.9746-28.0762ZM65.1855-19.2871C67.8711-19.2871 70.4102-19.7754 72.6074-20.7031L43.6035-49.707L43.6035-42.2852C43.6035-28.7109 52.5879-19.2871 65.1855-19.2871Z"/>
  </g>
  <g id="Regular-L" transform="matrix(1 0 0 1 1386.86 1556)">
   <path d="M62.9883-106.396C50.7324-106.396 42.627-97.3145 42.3828-84.5215L42.3828-80.0781L83.252-39.1602C83.4961-39.9902 83.5938-40.918 83.5938-41.8457L83.5938-83.9844C83.5938-97.0703 75.3906-106.396 62.9883-106.396ZM109.229 8.54492C110.84 10.1562 113.525 10.1562 115.088 8.54492C116.699 6.88477 116.748 4.29688 115.088 2.63672L18.9941-93.3594C17.3828-94.9707 14.6973-95.0195 13.0371-93.3594C11.4746-91.7969 11.4746-89.0625 13.0371-87.5ZM18.9941-40.4297C18.9941-16.3086 35.0098 0.732422 58.9355 2.49023L58.9355 18.75L34.8633 18.75C32.5684 18.75 30.7617 20.5566 30.7617 22.8027C30.7617 25.0488 32.5684 26.9043 34.8633 26.9043L91.1621 26.9043C93.4082 26.9043 95.2148 25.0488 95.2148 22.8027C95.2148 20.5566 93.4082 18.75 91.1621 18.75L67.0898 18.75L67.0898 2.49023C74.6582 1.95312 81.3477-0.0976562 87.0117-3.51562L81.2012-9.375C76.123-6.5918 69.9707-5.0293 62.9883-5.0293C41.2598-5.0293 27.1484-19.4336 27.1484-40.7227L27.1484-52.9297C27.1484-55.1758 25.3418-56.9824 23.0469-56.9824C20.8008-56.9824 18.9941-55.1758 18.9941-52.9297ZM96.1426-26.3184L102.441-20.0195C105.371-25.9277 106.982-32.8125 106.982-40.4297L106.982-52.9297C106.982-55.1758 105.176-56.9824 102.93-56.9824C100.635-56.9824 98.8281-55.1758 98.8281-52.9297L98.8281-40.7227C98.8281-35.4492 97.9004-30.6152 96.1426-26.3184ZM62.9883-19.4336C65.4785-19.4336 67.8223-19.873 69.8242-20.7031L42.3828-48.1934L42.3828-41.8457C42.3828-28.7109 50.5859-19.4336 62.9883-19.4336Z"/>
  </g>
  <g id="Light-L" transform="matrix(1 0 0 1 1091.81 1556)">
   <path d="M61.3281-106.201C49.2676-106.201 41.4062-97.1191 41.2598-84.668L41.2598-77.5391L80.8594-37.9883C81.2012-39.3066 81.3965-40.7227 81.3965-42.1875L81.3965-84.375C81.3965-96.9727 73.4863-106.201 61.3281-106.201ZM107.52 6.93359C108.74 8.20312 110.84 8.20312 112.061 6.93359C113.33 5.66406 113.33 3.66211 112.061 2.39258L17.7734-91.8457C16.5527-93.0176 14.4531-93.1641 13.1836-91.8457C11.9141-90.5762 11.9141-88.5254 13.1836-87.2559ZM18.7988-40.2344C18.7988-16.9434 34.4727-0.341797 58.1543 1.02539L58.1543 19.4824L33.2031 19.4824C31.4453 19.4824 30.0293 20.8496 30.0293 22.6074C30.0293 24.3652 31.4453 25.7812 33.2031 25.7812L89.4531 25.7812C91.2109 25.7812 92.627 24.3652 92.627 22.6074C92.627 20.8496 91.2109 19.4824 89.4531 19.4824L64.502 19.4824L64.502 1.02539C72.6562 0.585938 79.8828-1.66016 85.7422-5.51758L81.25-10.0098C75.7812-6.73828 69.0918-4.88281 61.3281-4.88281C39.3066-4.88281 25.0977-19.3848 25.0977-40.4297L25.0977-52.3438C25.0977-54.1016 23.7305-55.5176 21.9727-55.5176C20.2148-55.5176 18.7988-54.1016 18.7988-52.3438ZM94.1895-24.6582L99.0723-19.7754C102.148-25.6836 103.857-32.5684 103.857-40.2344L103.857-52.3438C103.857-54.1016 102.441-55.5176 100.684-55.5176C98.9258-55.5176 97.5586-54.1016 97.5586-52.3438L97.5586-40.4297C97.5586-34.6191 96.3867-29.2969 94.1895-24.6582ZM61.3281-20.3613C64.2578-20.3613 66.8945-20.9961 69.1406-22.0703L41.2598-49.9512L41.2598-42.1875C41.2598-29.5898 49.1699-20.3613 61.3281-20.3613Z"/>
  </g>
  <g id="Thin-L" transform="matrix(1 0 0 1 797.291 1556)">
   <path d="M59.1309-105.957C47.3145-105.957 39.8438-96.875 39.7949-84.9121L39.7949-74.2676L77.6367-36.4258C78.1738-38.4277 78.4668-40.4785 78.4668-42.6758L78.4668-84.8633C78.4668-96.8262 70.9473-105.957 59.1309-105.957ZM105.225 4.83398C106.006 5.61523 107.275 5.61523 108.008 4.83398C108.887 4.00391 108.789 2.83203 108.008 2.05078L16.1133-89.7949C15.4297-90.4785 14.1602-90.625 13.3301-89.7949C12.5488-89.0137 12.5488-87.7441 13.3301-86.9629ZM18.5547-39.9902C18.5547-17.7734 33.7402-1.70898 57.1777-0.830078L57.1777 20.459L31.0059 20.459C29.9316 20.459 29.0527 21.2891 29.0527 22.3633C29.0527 23.4375 29.9316 24.3164 31.0059 24.3164L87.2559 24.3164C88.3301 24.3164 89.209 23.4375 89.209 22.3633C89.209 21.2891 88.3301 20.459 87.2559 20.459L61.084 20.459L61.084-0.830078C70.0684-1.17188 77.8809-3.75977 84.082-8.10547L81.2988-10.8887C75.3906-6.93359 67.8711-4.58984 59.1309-4.58984C36.7676-4.58984 22.4121-19.3359 22.4121-40.0391L22.4121-51.6113C22.4121-52.6855 21.582-53.5645 20.5078-53.5645C19.4336-53.5645 18.5547-52.6855 18.5547-51.6113ZM91.6504-22.4121L94.5801-19.4824C97.9004-25.3906 99.707-32.2754 99.707-39.9902L99.707-51.6113C99.707-52.6855 98.8281-53.5645 97.7539-53.5645C96.6797-53.5645 95.8496-52.6855 95.8496-51.6113L95.8496-40.0391C95.8496-33.4961 94.3848-27.5391 91.6504-22.4121ZM59.1309-21.582C62.5977-21.582 65.7227-22.4121 68.2617-23.877L39.7949-52.3438L39.7949-42.6758C39.7949-30.7129 47.3145-21.582 59.1309-21.582Z"/>
  </g>
  <g id="Ultralight-L" transform="matrix(1 0 0 1 501.703 1556)">
   <path d="M58.0078-105.811C46.3379-105.811 39.0137-96.7285 39.0625-85.0098L39.0625-72.5586L76.0254-35.5957C76.6113-37.9395 76.9531-40.332 76.9531-42.9688L76.9531-85.1074C76.9531-96.7773 69.6777-105.811 58.0078-105.811ZM104.053 3.75977C104.59 4.29688 105.42 4.29688 105.957 3.75977C106.592 3.17383 106.494 2.39258 105.957 1.9043L15.2832-88.7207C14.8438-89.1602 14.0137-89.3555 13.3789-88.7207C12.8418-88.1836 12.8418-87.3535 13.3789-86.8164ZM58.0078-22.2168C61.7676-22.2168 65.0879-23.1445 67.8223-24.7559L39.0625-53.5645L39.0625-42.9688C39.0625-31.2988 46.3379-22.2168 58.0078-22.2168ZM18.457-39.8926C18.457-18.1641 33.3496-2.39258 56.6895-1.80664L56.6895 20.9473L29.834 20.9473C29.1504 20.9473 28.5645 21.5332 28.5645 22.2656C28.5645 22.9492 29.1504 23.5352 29.834 23.5352L86.1328 23.5352C86.8652 23.5352 87.4512 22.9492 87.4512 22.2656C87.4512 21.5332 86.8652 20.9473 86.1328 20.9473L59.3262 20.9473L59.3262-1.80664C68.75-2.09961 76.8555-4.83398 83.2031-9.47266L81.2988-11.377C75.1465-6.98242 67.2363-4.49219 58.0078-4.49219C35.498-4.49219 21.0449-19.3359 21.0449-39.8438L21.0449-51.2695C21.0449-51.9531 20.459-52.5391 19.7266-52.5391C19.043-52.5391 18.457-51.9531 18.457-51.2695ZM90.332-21.2891L92.2363-19.3359C95.7031-25.1953 97.5586-32.1289 97.5586-39.8926L97.5586-51.2695C97.5586-51.9531 96.9727-52.5391 96.2402-52.5391C95.5566-52.5391 94.9707-51.9531 94.9707-51.2695L94.9707-39.8438C94.9707-32.9102 93.3594-26.6113 90.332-21.2891Z"/>
  </g>
  <g id="Black-M" transform="matrix(1 0 0 1 2872.07 1126)">
   <path d="M61.3281-97.1191C53.9062-97.1191 46.3379-93.1152 42.3828-86.4258L82.7637-46.0449L82.7637-76.0254C82.7637-88.8184 72.0215-97.1191 61.3281-97.1191ZM107.568 1.80664C109.326 3.4668 112.158 3.51562 113.867 1.80664C115.527 0.0488281 115.625-2.7832 113.867-4.49219L23.0957-95.2148C21.3379-96.9727 18.5059-96.9727 16.748-95.2148C15.0391-93.5059 15.0391-90.625 16.748-88.916ZM13.1836-40.625C13.1836-15.7227 30.3711-0.0976562 52.8809 2.97852L52.8809 6.25L35.8887 6.25C30.9082 6.25 26.4648 10.3027 26.4648 15.2832C26.4648 20.166 30.9082 24.3164 35.8887 24.3164L86.7676 24.3164C91.748 24.3164 96.1914 20.166 96.1914 15.2832C96.1914 10.3027 91.748 6.25 86.7676 6.25L69.7754 6.25L69.7754 2.97852C77.4902 1.9043 84.668-0.585938 90.625-4.49219L77.2461-17.9688C72.6074-15.4297 67.1387-14.1113 61.3281-14.1113C45.0195-14.1113 31.7383-24.5605 31.7383-41.1621L31.7383-49.0723C31.7383-54.0039 27.4414-57.7637 22.3633-57.7637C17.334-57.7637 13.1836-54.0039 13.1836-49.0723ZM90.7715-38.0371L106.055-22.7539C108.301-28.0273 109.473-34.0332 109.473-40.625L109.473-49.0723C109.473-54.0039 105.322-57.7637 100.244-57.7637C95.2148-57.7637 90.918-54.0039 90.918-49.0723L90.918-41.1621C90.918-40.0879 90.8691-39.0625 90.7715-38.0371ZM61.3281-22.3633C64.5508-22.3633 67.7734-23.1445 70.6543-24.4629L39.6973-55.4199L39.6973-43.4082C39.6973-30.5664 50.5859-22.3633 61.3281-22.3633Z"/>
  </g>
  <g id="Heavy-M" transform="matrix(1 0 0 1 2578.1 1126)">
   <path d="M58.5938-95.5566C50.6836-95.5566 43.3594-90.8691 40.2832-83.3496L40.2832-82.8613L78.7598-44.3848C78.8086-44.7266 78.8086-45.0195 78.8086-45.3613L78.8086-75.293C78.8086-87.5 69.043-95.5566 58.5938-95.5566ZM102.393 1.26953C104.053 2.88086 106.836 2.92969 108.447 1.26953C110.059-0.439453 110.156-3.125 108.447-4.78516L21.2891-91.8945C19.6289-93.5547 16.8457-93.6035 15.1855-91.8945C13.5254-90.2832 13.5254-87.4512 15.1855-85.8398ZM13.5742-40.332C13.5742-16.7969 29.6875-1.66016 51.2695 1.07422L51.2695 6.25L33.9844 6.25C29.6875 6.25 25.9277 9.7168 25.9277 14.0137C25.9277 18.2129 29.6875 21.7773 33.9844 21.7773L83.2031 21.7773C87.5 21.7773 91.2598 18.2129 91.2598 14.0137C91.2598 9.7168 87.5 6.25 83.2031 6.25L65.918 6.25L65.918 1.07422C73.1445 0.146484 79.7852-2.14844 85.3027-5.71289L73.877-17.2363C69.4336-14.8438 64.209-13.623 58.5938-13.623C42.1875-13.623 29.4922-24.2188 29.4922-40.8203L29.4922-49.1211C29.4922-53.3691 25.8301-56.6406 21.4844-56.6406C17.1387-56.6406 13.5742-53.3691 13.5742-49.1211ZM87.207-35.9863L100.195-22.9492C102.441-28.0762 103.613-33.8867 103.613-40.332L103.613-49.1211C103.613-53.3691 100.049-56.6406 95.7031-56.6406C91.3574-56.6406 87.6953-53.3691 87.6953-49.1211L87.6953-40.8203C87.6953-39.1113 87.5488-37.5 87.207-35.9863ZM58.5938-22.4121C61.4746-22.4121 64.3066-23.0469 66.8457-24.1699L38.2324-52.7832L38.2324-42.627C38.2324-30.3711 48.0957-22.4121 58.5938-22.4121Z"/>
  </g>
  <g id="Bold-M" transform="matrix(1 0 0 1 2284.44 1126)">
   <path d="M55.5664-93.7988C47.0215-93.7988 40.0391-88.3301 37.9395-79.8828L37.9395-78.9062L74.3164-42.5293C74.3652-42.8711 74.4141-43.2129 74.4141-43.5547L74.4141-74.4141C74.4141-86.0352 65.7715-93.7988 55.5664-93.7988ZM96.582 0.683594C98.1934 2.24609 100.83 2.29492 102.393 0.683594C103.955-0.927734 104.004-3.51562 102.393-5.12695L19.2383-88.1836C17.6758-89.7949 14.9902-89.7949 13.3789-88.1836C11.8652-86.6211 11.8652-83.9355 13.3789-82.373ZM14.0137-39.9902C14.0137-17.9688 28.9062-3.41797 49.4629-1.12305L49.4629 6.20117L31.9336 6.20117C28.3691 6.20117 25.3418 9.0332 25.3418 12.5488C25.3418 16.0156 28.3691 18.9453 31.9336 18.9453L79.1992 18.9453C82.7148 18.9453 85.7422 16.0156 85.7422 12.5488C85.7422 9.0332 82.7148 6.20117 79.1992 6.20117L61.6211 6.20117L61.6211-1.12305C68.2129-1.85547 74.2676-3.85742 79.3945-7.03125L70.0684-16.4062C65.8691-14.209 60.9375-13.0371 55.5664-13.0371C39.0137-13.0371 26.9531-23.7793 26.9531-40.3809L26.9531-49.1699C26.9531-52.6367 23.9746-55.3711 20.459-55.3711C16.8945-55.3711 14.0137-52.6367 14.0137-49.1699ZM83.2031-33.6914L93.7012-23.1934C95.8984-28.0762 97.0703-33.7402 97.0703-39.9902L97.0703-49.1699C97.0703-52.6367 94.1895-55.3711 90.625-55.3711C87.1094-55.3711 84.1309-52.6367 84.1309-49.1699L84.1309-40.3809C84.1309-37.9883 83.7891-35.7422 83.2031-33.6914ZM55.5664-22.4121C58.0078-22.4121 60.4004-22.9492 62.5977-23.8281L36.5723-49.8535L36.5723-41.748C36.5723-30.127 45.3125-22.4121 55.5664-22.4121Z"/>
  </g>
  <g id="Semibold-M" transform="matrix(1 0 0 1 1989.82 1126)">
   <path d="M53.418-92.5781C44.5312-92.5781 37.7441-86.5723 36.2793-77.4902L36.2793-76.1719L71.2891-41.2109C71.3379-41.5527 71.3867-41.9434 71.3867-42.334L71.3867-73.8281C71.3867-85.0098 63.4766-92.5781 53.418-92.5781ZM92.5781 0.292969C94.1406 1.85547 96.7285 1.85547 98.2422 0.292969C99.7559-1.26953 99.8047-3.75977 98.2422-5.32227L17.8711-85.6445C16.3086-87.207 13.7695-87.207 12.1582-85.6445C10.6934-84.1309 10.6934-81.543 12.1582-80.0293ZM14.3066-39.7949C14.3066-18.7988 28.3691-4.63867 48.2422-2.58789L48.2422 6.20117L30.4688 6.20117C27.4902 6.20117 24.9512 8.59375 24.9512 11.5723C24.9512 14.502 27.4902 16.9434 30.4688 16.9434L76.416 16.9434C79.3945 16.9434 81.9336 14.502 81.9336 11.5723C81.9336 8.59375 79.3945 6.20117 76.416 6.20117L58.6426 6.20117L58.6426-2.58789C64.8438-3.22266 70.5078-5.0293 75.293-7.95898L67.4805-15.8203C63.4277-13.7695 58.6914-12.6465 53.418-12.6465C36.8652-12.6465 25.2441-23.5352 25.2441-40.1367L25.2441-49.2188C25.2441-52.1484 22.7539-54.4922 19.7266-54.4922C16.748-54.4922 14.3066-52.1484 14.3066-49.2188ZM80.4199-32.0801L89.209-23.291C91.4062-28.125 92.5781-33.6426 92.5781-39.7949L92.5781-49.2188C92.5781-52.1484 90.1367-54.4922 87.1582-54.4922C84.1309-54.4922 81.6406-52.1484 81.6406-49.2188L81.6406-40.1367C81.6406-37.207 81.25-34.5215 80.4199-32.0801ZM53.418-22.4609C55.6152-22.4609 57.7148-22.8516 59.6191-23.6328L35.4492-47.8027L35.4492-41.1621C35.4492-29.9805 43.4082-22.4609 53.418-22.4609Z"/>
  </g>
  <g id="Medium-M" transform="matrix(1 0 0 1 1694.7 1126)">
   <path d="M51.8555-91.6504C42.627-91.6504 35.9863-85.2051 35.0586-75.6836L35.0586-74.1211L68.9453-40.2344C69.043-40.5762 69.043-40.9668 69.043-41.3574L69.043-73.3887C69.043-84.2285 61.7676-91.6504 51.8555-91.6504ZM89.5508 0C91.1133 1.51367 93.6035 1.51367 95.0684 0C96.5332-1.5625 96.582-4.00391 95.0684-5.51758L16.7969-83.6914C15.2832-85.2051 12.793-85.2539 11.2793-83.6914C9.76562-82.2266 9.76562-79.6875 11.2793-78.2227ZM14.502-39.5996C14.502-19.3848 27.9785-5.56641 47.3145-3.71094L47.3145 6.20117L29.3945 6.20117C26.8066 6.20117 24.6582 8.25195 24.6582 10.8398C24.6582 13.3789 26.8066 15.4785 29.3945 15.4785L74.3164 15.4785C76.9043 15.4785 79.0527 13.3789 79.0527 10.8398C79.0527 8.25195 76.9043 6.20117 74.3164 6.20117L56.3965 6.20117L56.3965-3.71094C62.3047-4.29688 67.627-5.95703 72.168-8.64258L65.4785-15.3809C61.5723-13.4277 56.9824-12.3535 51.8555-12.3535C35.2051-12.3535 23.9258-23.291 23.9258-39.9414L23.9258-49.2188C23.9258-51.8066 21.7773-53.8086 19.1895-53.8086C16.6016-53.8086 14.502-51.8066 14.502-49.2188ZM78.3203-30.8594L85.791-23.4375C87.9883-28.125 89.1602-33.5938 89.1602-39.5996L89.1602-49.2188C89.1602-51.8066 87.0605-53.8086 84.4727-53.8086C81.8848-53.8086 79.7852-51.8066 79.7852-49.2188L79.7852-39.9414C79.7852-36.6211 79.2969-33.5938 78.3203-30.8594ZM51.8555-22.4609C53.8086-22.4609 55.7129-22.8027 57.4219-23.4375L34.5703-46.2402L34.5703-40.7227C34.5703-29.8828 41.9434-22.4609 51.8555-22.4609Z"/>
  </g>
  <g id="Regular-M" transform="matrix(1 0 0 1 1400.09 1126)">
   <path d="M49.7559-90.4785C40.1855-90.4785 33.6914-83.4961 33.4473-73.3398L33.4473-71.3867L65.918-38.9648C66.0156-39.3066 66.0645-39.7461 66.0645-40.1367L66.0645-72.8027C66.0645-83.252 59.5215-90.4785 49.7559-90.4785ZM85.6445-0.390625C87.1094 1.07422 89.502 1.07422 90.9668-0.390625C92.3828-1.9043 92.4316-4.24805 90.9668-5.71289L15.4297-81.2012C13.9648-82.6172 11.5234-82.666 10.0586-81.2012C8.64258-79.7363 8.64258-77.2949 10.0586-75.8789ZM14.8438-39.3555C14.8438-20.2148 27.4414-6.78711 46.0938-5.22461L46.0938 6.15234L27.9297 6.15234C25.8789 6.15234 24.2676 7.8125 24.2676 9.86328C24.2676 11.9141 25.8789 13.5254 27.9297 13.5254L71.582 13.5254C73.6328 13.5254 75.2441 11.9141 75.2441 9.86328C75.2441 7.8125 73.6328 6.15234 71.582 6.15234L53.4668 6.15234L53.4668-5.22461C58.9355-5.66406 63.916-7.12891 68.1152-9.52148L62.8906-14.7949C59.1797-12.9883 54.7363-11.9629 49.7559-11.9629C33.0566-11.9629 22.2168-22.998 22.2168-39.6484L22.2168-49.2676C22.2168-51.3184 20.5566-52.9297 18.5059-52.9297C16.4551-52.9297 14.8438-51.3184 14.8438-49.2676ZM75.6348-29.2969L81.3477-23.584C83.4961-28.1738 84.7168-33.4961 84.7168-39.3555L84.7168-49.2676C84.7168-51.3184 83.0566-52.9297 81.0059-52.9297C78.9551-52.9297 77.3438-51.3184 77.3438-49.2676L77.3438-39.6484C77.3438-35.8887 76.7578-32.4219 75.6348-29.2969ZM49.7559-22.4609C51.4648-22.4609 53.0762-22.7051 54.4922-23.2422L33.4473-44.2383L33.4473-40.1367C33.4473-29.7363 40.0391-22.4609 49.7559-22.4609Z"/>
  </g>
  <g id="Light-M" transform="matrix(1 0 0 1 1104.87 1126)">
   <path d="M48.291-90.2832C38.8672-90.2832 32.6172-83.3008 32.4707-73.4863L32.4707-69.1406L63.7207-37.8906C63.9648-38.7207 64.0625-39.5508 64.0625-40.4785L64.0625-73.1445C64.0625-83.1543 57.8125-90.2832 48.291-90.2832ZM84.082-1.80664C85.2051-0.683594 87.1094-0.683594 88.2324-1.80664C89.3555-2.97852 89.3555-4.83398 88.2324-5.95703L14.3066-79.7852C13.1836-80.9082 11.3281-80.957 10.1562-79.7852C9.0332-78.6621 9.0332-76.7578 10.1562-75.6836ZM14.6484-39.209C14.6484-20.752 26.9531-7.71484 45.4102-6.49414L45.4102 6.83594L26.4648 6.83594C24.8535 6.83594 23.584 8.10547 23.584 9.66797C23.584 11.2793 24.8535 12.5488 26.4648 12.5488L70.0684 12.5488C71.6797 12.5488 72.9492 11.2793 72.9492 9.66797C72.9492 8.10547 71.6797 6.83594 70.0684 6.83594L51.123 6.83594L51.123-6.49414C57.1777-6.83594 62.5488-8.54492 66.9922-11.3281L62.9395-15.3809C58.8867-13.0859 53.9551-11.7676 48.291-11.7676C31.3477-11.7676 20.3613-22.998 20.3613-39.4043L20.3613-48.7305C20.3613-50.3418 19.0918-51.6113 17.5293-51.6113C15.918-51.6113 14.6484-50.3418 14.6484-48.7305ZM73.877-27.7832L78.2715-23.3887C80.6152-27.9297 81.8848-33.3008 81.8848-39.209L81.8848-48.7305C81.8848-50.3418 80.6152-51.6113 79.0527-51.6113C77.4414-51.6113 76.1719-50.3418 76.1719-48.7305L76.1719-39.4043C76.1719-35.1074 75.3906-31.2012 73.877-27.7832ZM48.291-23.291C50.3418-23.291 52.2461-23.6816 53.9062-24.4141L32.4707-45.8496L32.4707-40.4785C32.4707-30.4688 38.7695-23.291 48.291-23.291Z"/>
  </g>
  <g id="Thin-M" transform="matrix(1 0 0 1 810.133 1126)">
   <path d="M46.2891-90.0879C37.1094-90.0879 31.2012-83.0566 31.1523-73.6816L31.1523-66.2109L60.8887-36.4746C61.2305-37.8906 61.4258-39.3555 61.4258-40.918L61.4258-73.584C61.4258-83.0078 55.5176-90.0879 46.2891-90.0879ZM82.0312-3.71094C82.7637-3.02734 83.8867-3.02734 84.5703-3.71094C85.3516-4.44336 85.3027-5.56641 84.5703-6.25L12.8418-77.9297C12.207-78.6133 11.0352-78.7109 10.3027-77.9297C9.57031-77.2461 9.57031-76.0742 10.3027-75.3906ZM14.4531-38.9648C14.4531-21.5332 26.3184-8.93555 44.5312-8.1543L44.5312 7.71484L24.4629 7.71484C23.5352 7.71484 22.7051 8.49609 22.7051 9.47266C22.7051 10.4492 23.5352 11.2305 24.4629 11.2305L68.1152 11.2305C69.0918 11.2305 69.873 10.4492 69.873 9.47266C69.873 8.49609 69.0918 7.71484 68.1152 7.71484L48.0469 7.71484L48.0469-8.1543C54.8828-8.44727 60.791-10.4004 65.5273-13.6719L62.9883-16.2109C58.4961-13.2324 52.8809-11.5723 46.2891-11.5723C29.0527-11.5723 17.9688-22.9492 17.9688-39.0625L17.9688-48.0957C17.9688-49.0723 17.1875-49.8535 16.2109-49.8535C15.2344-49.8535 14.4531-49.0723 14.4531-48.0957ZM71.582-25.7812L74.2676-23.0957C76.7578-27.6855 78.1738-33.0078 78.1738-38.9648L78.1738-48.0957C78.1738-49.0723 77.3926-49.8535 76.416-49.8535C75.4395-49.8535 74.6582-49.0723 74.6582-48.0957L74.6582-39.0625C74.6582-34.1309 73.584-29.6387 71.582-25.7812ZM46.2891-24.4141C48.877-24.4141 51.1719-25 53.0762-26.0254L31.1523-47.9492L31.1523-40.918C31.1523-31.4941 37.0605-24.4141 46.2891-24.4141Z"/>
  </g>
  <g id="Ultralight-M" transform="matrix(1 0 0 1 514.423 1126)">
   <path d="M45.3125-89.9902C36.1816-89.9902 30.4688-82.9102 30.4688-73.7793L30.4688-64.6973L59.4238-35.7422C59.8633-37.4512 60.1074-39.2578 60.1074-41.1133L60.1074-73.7793C60.1074-82.9102 54.3945-89.9902 45.3125-89.9902ZM81.0059-4.6875C81.4941-4.19922 82.2754-4.19922 82.7637-4.6875C83.3008-5.22461 83.2031-5.95703 82.7637-6.39648L12.1094-77.002C11.6699-77.4414 10.8887-77.5391 10.3516-77.002C9.86328-76.5137 9.86328-75.7324 10.3516-75.2441ZM45.3125-24.9512C48.0957-24.9512 50.6348-25.6348 52.6855-26.8555L30.4688-49.0723L30.4688-41.1133C30.4688-31.9824 36.1816-24.9512 45.3125-24.9512ZM14.3066-38.8672C14.3066-21.875 25.9766-9.57031 44.0918-9.0332L44.0918 8.1543L23.4863 8.1543C22.8027 8.1543 22.2656 8.69141 22.2656 9.375C22.2656 10.0098 22.8027 10.5469 23.4863 10.5469L67.0898 10.5469C67.7734 10.5469 68.3105 10.0098 68.3105 9.375C68.3105 8.69141 67.7734 8.1543 67.0898 8.1543L46.4844 8.1543L46.4844-9.0332C53.7109-9.27734 59.8633-11.3281 64.7461-14.8438L62.9883-16.6016C58.3008-13.3301 52.2949-11.4258 45.3125-11.4258C27.8809-11.4258 16.748-22.9004 16.748-38.8672L16.748-47.7539C16.748-48.4375 16.1621-48.9746 15.5273-48.9746C14.8438-48.9746 14.3066-48.4375 14.3066-47.7539ZM70.4102-24.7559L72.168-22.9492C74.8047-27.5391 76.2695-32.8613 76.2695-38.8672L76.2695-47.7539C76.2695-48.4375 75.7324-48.9746 75.0488-48.9746C74.4141-48.9746 73.877-48.4375 73.877-47.7539L73.877-38.8672C73.877-33.5938 72.6562-28.8574 70.4102-24.7559Z"/>
  </g>
  <g id="Black-S" transform="matrix(1 0 0 1 2885.55 696)">
   <path d="M47.8516-83.5938C41.9922-83.5938 36.084-80.4199 33.0566-75.0977L64.5508-43.6035L64.5508-67.1387C64.5508-77.0996 56.2012-83.5938 47.8516-83.5938ZM83.8867-6.25C85.2539-4.93164 87.5-4.88281 88.8184-6.25C90.1367-7.61719 90.1855-9.81445 88.8184-11.1816L17.9688-81.9824C16.6016-83.3496 14.3555-83.3496 12.9883-81.9824C11.6699-80.6641 11.6699-78.3691 12.9883-77.0508ZM10.3516-39.4531C10.3516-20.0195 23.7305-7.8125 41.3086-5.41992L41.3086-2.73438L27.9785-2.73438C24.1211-2.73438 20.7031 0.390625 20.7031 4.24805C20.7031 8.00781 24.1211 11.2305 27.9785 11.2305L67.7246 11.2305C71.582 11.2305 75 8.00781 75 4.24805C75 0.390625 71.582-2.73438 67.7246-2.73438L54.3945-2.73438L54.3945-5.41992C60.4004-6.25 65.9668-8.20312 70.6055-11.2305L60.2539-21.6309C56.6406-19.6777 52.3926-18.6523 47.8516-18.6523C35.0586-18.6523 24.707-26.8555 24.707-39.8438L24.707-46.0938C24.707-49.9023 21.3867-52.832 17.4805-52.832C13.5742-52.832 10.3516-49.9023 10.3516-46.0938ZM70.8496-37.3047L82.666-25.4883C84.4238-29.5898 85.3516-34.2773 85.3516-39.4531L85.3516-46.0938C85.3516-49.9023 82.1289-52.832 78.2227-52.832C74.3164-52.832 70.9961-49.9023 70.9961-46.0938L70.9961-39.8438C70.9961-38.9648 70.9473-38.1348 70.8496-37.3047ZM47.8516-25.1465C50.3418-25.1465 52.832-25.7324 55.0781-26.7578L31.0059-50.8301L31.0059-41.5527C31.0059-31.543 39.4531-25.1465 47.8516-25.1465Z"/>
  </g>
  <g id="Heavy-S" transform="matrix(1 0 0 1 2590.77 696)">
   <path d="M45.9473-82.4219C39.6484-82.4219 33.9355-78.7109 31.543-72.7051L31.543-72.6074L61.7676-42.4316C61.7676-42.627 61.7676-42.8223 61.7676-43.0176L61.7676-66.5039C61.7676-76.123 54.1504-82.4219 45.9473-82.4219ZM80.0781-6.49414C81.4453-5.17578 83.6914-5.12695 84.9609-6.49414C86.2793-7.86133 86.3281-10.0098 84.9609-11.377L16.6992-79.5898C15.332-80.957 13.1348-80.957 11.7676-79.5898C10.4492-78.3203 10.4492-76.0254 11.7676-74.707ZM10.6445-39.2578C10.6445-20.752 23.2422-8.93555 40.1367-6.73828L40.1367-2.83203L26.709-2.83203C23.3398-2.83203 20.3613-0.0976562 20.3613 3.27148C20.3613 6.5918 23.3398 9.375 26.709 9.375L65.1367 9.375C68.5059 9.375 71.4844 6.5918 71.4844 3.27148C71.4844-0.0976562 68.5059-2.83203 65.1367-2.83203L51.709-2.83203L51.709-6.73828C57.2266-7.4707 62.3535-9.22852 66.6504-11.9629L57.666-20.9961C54.248-19.2383 50.2441-18.2617 45.9473-18.2617C33.1055-18.2617 23.1934-26.5625 23.1934-39.5996L23.1934-46.1914C23.1934-49.5117 20.3125-52.0996 16.8945-52.0996C13.4766-52.0996 10.6445-49.5117 10.6445-46.1914ZM68.3105-35.8887L78.5645-25.6348C80.2734-29.6387 81.2012-34.1797 81.2012-39.2578L81.2012-46.1914C81.2012-49.5117 78.3691-52.0996 74.9512-52.0996C71.5332-52.0996 68.6523-49.5117 68.6523-46.1914L68.6523-39.5996C68.6523-38.2812 68.5547-37.0605 68.3105-35.8887ZM45.9473-25.0488C48.0957-25.0488 50.2441-25.5371 52.1973-26.416L29.9805-48.6328L29.9805-40.918C29.9805-31.2988 37.6953-25.0488 45.9473-25.0488Z"/>
  </g>
  <g id="Bold-S" transform="matrix(1 0 0 1 2296.2 696)">
   <path d="M43.7988-81.1035C37.0605-81.1035 31.4941-76.7578 29.8828-70.0684L29.8828-69.873L58.6426-41.1133C58.6426-41.3086 58.6426-41.4551 58.6426-41.6016L58.6426-65.8203C58.6426-75 51.8066-81.1035 43.7988-81.1035ZM75.8789-6.73828C77.1973-5.41992 79.3945-5.41992 80.7129-6.73828C81.9824-8.10547 82.0312-10.2539 80.7129-11.5723L15.2832-76.9531C13.9648-78.2715 11.7676-78.2715 10.4004-76.9531C9.13086-75.6348 9.13086-73.3887 10.4004-72.1191ZM11.0352-39.0137C11.0352-21.582 22.7539-10.1562 38.8672-8.25195L38.8672-2.92969L25.293-2.92969C22.4609-2.92969 20.0195-0.634766 20.0195 2.19727C20.0195 5.0293 22.4609 7.32422 25.293 7.32422L62.2559 7.32422C65.0879 7.32422 67.5293 5.0293 67.5293 2.19727C67.5293-0.634766 65.0879-2.92969 62.2559-2.92969L48.6816-2.92969L48.6816-8.25195C53.7109-8.83789 58.3496-10.3516 62.2559-12.7441L54.7852-20.2637C51.5625-18.7012 47.8516-17.8711 43.7988-17.8711C30.9082-17.8711 21.4844-26.2695 21.4844-39.3555L21.4844-46.2891C21.4844-49.0723 19.0918-51.2695 16.2109-51.2695C13.3789-51.2695 11.0352-49.0723 11.0352-46.2891ZM65.4785-34.3262L73.9258-25.8301C75.6348-29.6875 76.5625-34.1309 76.5625-39.0137L76.5625-46.2891C76.5625-49.0723 74.2188-51.2695 71.3379-51.2695C68.457-51.2695 66.0645-49.0723 66.0645-46.2891L66.0645-39.3555C66.0645-37.5488 65.8691-35.8887 65.4785-34.3262ZM43.7988-25C45.6055-25 47.4121-25.3418 49.0234-25.9766L28.8574-46.1914L28.8574-40.2344C28.8574-31.0547 35.6934-25 43.7988-25Z"/>
  </g>
  <g id="Semibold-S" transform="matrix(1 0 0 1 2000.96 696)">
   <path d="M42.2852-80.1758C35.2539-80.1758 29.834-75.4395 28.7109-68.2129L28.7109-67.9688L56.4453-40.2344C56.4941-40.332 56.4941-40.4785 56.4941-40.625L56.4941-65.332C56.4941-74.2188 50.2441-80.1758 42.2852-80.1758ZM72.9492-6.93359C74.2676-5.61523 76.4648-5.61523 77.7344-6.93359C79.0039-8.25195 79.0527-10.4004 77.7344-11.7188L14.3066-75.0977C12.9883-76.416 10.791-76.4648 9.47266-75.0977C8.20312-73.8281 8.20312-71.582 9.47266-70.3125ZM11.2793-38.8184C11.2793-22.168 22.3633-10.9863 37.9883-9.27734L37.9883-2.97852L24.3164-2.97852C21.8262-2.97852 19.7754-1.02539 19.7754 1.46484C19.7754 3.90625 21.8262 5.9082 24.3164 5.9082L60.2539 5.9082C62.7441 5.9082 64.8438 3.90625 64.8438 1.46484C64.8438-1.02539 62.7441-2.97852 60.2539-2.97852L46.6309-2.97852L46.6309-9.27734C51.2695-9.81445 55.5664-11.1328 59.2285-13.2812L52.7832-19.7754C49.707-18.3594 46.1914-17.5781 42.2852-17.5781C29.3945-17.5781 20.3125-26.0742 20.3125-39.1602L20.3125-46.3379C20.3125-48.7793 18.2617-50.7324 15.7715-50.7324C13.2812-50.7324 11.2793-48.7793 11.2793-46.3379ZM63.5254-33.2031L70.752-25.9766C72.4121-29.7363 73.3398-34.0332 73.3398-38.8184L73.3398-46.3379C73.3398-48.7793 71.2891-50.7324 68.7988-50.7324C66.3086-50.7324 64.2578-48.7793 64.2578-46.3379L64.2578-39.1602C64.2578-37.0117 64.0137-35.0586 63.5254-33.2031ZM42.2852-24.9512C43.8477-24.9512 45.4102-25.1953 46.8262-25.7324L28.0762-44.4824L28.0762-39.7461C28.0762-30.8594 34.375-24.9512 42.2852-24.9512Z"/>
  </g>
  <g id="Medium-S" transform="matrix(1 0 0 1 1705.37 696)">
   <path d="M41.1621-79.4922C33.8867-79.4922 28.5645-74.4141 27.832-66.8457L27.832-66.5039L54.834-39.5508C54.834-39.6484 54.834-39.7949 54.834-39.8926L54.834-64.9902C54.834-73.6328 49.0234-79.4922 41.1621-79.4922ZM70.7031-7.08008C72.0215-5.76172 74.2188-5.76172 75.4883-7.08008C76.7578-8.39844 76.8066-10.5469 75.4883-11.8652L13.5742-73.7305C12.2559-75.0488 10.1074-75.0488 8.74023-73.7305C7.4707-72.4609 7.4707-70.2148 8.74023-68.9453ZM11.4746-38.7207C11.4746-22.6074 22.1191-11.6699 37.3047-10.0586L37.3047-3.02734L23.584-3.02734C21.3867-3.02734 19.5801-1.26953 19.5801 0.927734C19.5801 3.07617 21.3867 4.83398 23.584 4.83398L58.7891 4.83398C60.9863 4.83398 62.793 3.07617 62.793 0.927734C62.793-1.26953 60.9863-3.02734 58.7891-3.02734L45.0684-3.02734L45.0684-10.0586C49.4629-10.5469 53.4668-11.7676 56.9336-13.7207L51.2695-19.4336C48.3398-18.1152 44.9219-17.334 41.1621-17.334C28.2227-17.334 19.4336-25.8789 19.4336-39.0137L19.4336-46.3867C19.4336-48.584 17.627-50.293 15.4297-50.293C13.2324-50.293 11.4746-48.584 11.4746-46.3867ZM62.0117-32.373L68.3594-26.0742C70.0195-29.7852 70.8984-34.0332 70.8984-38.7207L70.8984-46.3867C70.8984-48.584 69.1406-50.293 66.9434-50.293C64.6973-50.293 62.9395-48.584 62.9395-46.3867L62.9395-39.0137C62.9395-36.6211 62.5977-34.4238 62.0117-32.373ZM41.1621-24.9023C42.5293-24.9023 43.8965-25.0977 45.166-25.4883L27.4902-43.1641L27.4902-39.4043C27.4902-30.7129 33.3008-24.9023 41.1621-24.9023Z"/>
  </g>
  <g id="Regular-S" transform="matrix(1 0 0 1 1410.12 696)">
   <path d="M39.6973-78.5645C32.1289-78.5645 26.9531-73.0957 26.709-64.9902L26.709-64.6484L52.6855-38.6719C52.6855-38.7207 52.7344-38.8184 52.7344-38.916L52.7344-64.502C52.7344-72.9004 47.4609-78.5645 39.6973-78.5645ZM67.8223-7.27539C69.1406-5.95703 71.2891-5.95703 72.5586-7.27539C73.8281-8.59375 73.877-10.6934 72.5586-12.0117L12.5977-71.9238C11.3281-73.1934 9.13086-73.2422 7.8125-71.9238C6.54297-70.6543 6.54297-68.4082 7.8125-67.1387ZM11.6699-38.5254C11.6699-23.1934 21.7285-12.5 36.4258-11.084L36.4258-3.125L22.6074-3.125C20.8008-3.125 19.3359-1.66016 19.3359 0.146484C19.3359 2.00195 20.8008 3.4668 22.6074 3.4668L56.7871 3.4668C58.6426 3.4668 60.1074 2.00195 60.1074 0.146484C60.1074-1.66016 58.6426-3.125 56.7871-3.125L43.0176-3.125L43.0176-11.084C47.0215-11.4746 50.7324-12.5 53.9062-14.2578L49.2676-18.9453C46.4844-17.7246 43.2617-17.041 39.6973-17.041C26.7578-17.041 18.2617-25.6836 18.2617-38.8184L18.2617-46.4355C18.2617-48.291 16.7969-49.7559 14.9902-49.7559C13.1348-49.7559 11.6699-48.291 11.6699-46.4355ZM60.0586-31.2988L65.1855-26.1719C66.8457-29.7852 67.7246-33.9355 67.7246-38.5254L67.7246-46.4355C67.7246-48.291 66.2598-49.7559 64.4531-49.7559C62.5977-49.7559 61.1328-48.291 61.1328-46.4355L61.1328-38.8184C61.1328-36.1328 60.791-33.5938 60.0586-31.2988ZM39.6973-24.8535C40.8203-24.8535 41.9434-24.9512 42.9688-25.2441L26.709-41.5039L26.709-38.916C26.709-30.5176 31.9824-24.8535 39.6973-24.8535Z"/>
  </g>
  <g id="Light-S" transform="matrix(1 0 0 1 1114.75 696)">
   <path d="M38.3789-78.418C30.957-78.418 25.9766-72.9492 25.8301-65.1367L25.8301-62.6465L50.7812-37.6953C50.8789-38.1836 50.9766-38.6719 50.9766-39.209L50.9766-64.7949C50.9766-72.8027 45.9473-78.418 38.3789-78.418ZM66.4551-8.49609C67.4805-7.4707 69.1406-7.4707 70.166-8.49609C71.1426-9.57031 71.1914-11.1816 70.166-12.207L11.6211-70.6543C10.6445-71.6797 8.93555-71.7285 7.91016-70.6543C6.93359-69.6777 6.93359-67.9688 7.91016-66.9922ZM11.5234-38.3789C11.5234-23.6816 21.2891-13.3301 35.8398-12.207L35.8398-2.53906L21.2891-2.53906C19.873-2.53906 18.75-1.41602 18.75 0C18.75 1.46484 19.873 2.58789 21.2891 2.58789L55.4688 2.58789C56.8848 2.58789 58.0566 1.46484 58.0566 0C58.0566-1.41602 56.8848-2.53906 55.4688-2.53906L40.9668-2.53906L40.9668-12.207C45.5078-12.5488 49.5117-13.7695 52.9297-15.8203L49.3164-19.4824C46.2402-17.8223 42.5781-16.8945 38.3789-16.8945C25.1953-16.8945 16.6504-25.6348 16.6504-38.5742L16.6504-45.9961C16.6504-47.4609 15.5273-48.584 14.1113-48.584C12.6953-48.584 11.5234-47.4609 11.5234-45.9961ZM58.5449-29.9805L62.5-26.0254C64.2578-29.5898 65.2344-33.7891 65.2344-38.3789L65.2344-45.9961C65.2344-47.4609 64.1113-48.584 62.6953-48.584C61.2793-48.584 60.1074-47.4609 60.1074-45.9961L60.1074-38.5742C60.1074-35.4492 59.5703-32.5684 58.5449-29.9805ZM38.3789-25.5859C39.8438-25.5859 41.2598-25.8301 42.4316-26.3184L25.8301-42.9199L25.8301-39.209C25.8301-31.2012 30.8594-25.5859 38.3789-25.5859Z"/>
  </g>
  <g id="Thin-S" transform="matrix(1 0 0 1 819.777 696)">
   <path d="M36.6699-78.2715C29.3945-78.2715 24.707-72.7539 24.6582-65.332L24.6582-60.0586L48.2422-36.4746C48.4863-37.4512 48.6328-38.5254 48.6328-39.5996L48.6328-65.1855C48.6328-72.7051 43.9453-78.2715 36.6699-78.2715ZM64.6484-10.1562C65.2832-9.52148 66.3574-9.52148 66.9434-10.1562C67.627-10.8398 67.5781-11.8164 66.9434-12.4512L10.3516-69.043C9.76562-69.6289 8.69141-69.7266 8.00781-69.043C7.42188-68.4082 7.42188-67.3828 8.00781-66.748ZM11.377-38.2324C11.377-24.3164 20.752-14.4043 35.0586-13.7207L35.0586-1.75781L19.5801-1.75781C18.7012-1.75781 17.9688-1.07422 17.9688-0.146484C17.9688 0.732422 18.7012 1.41602 19.5801 1.41602L53.7598 1.41602C54.6387 1.41602 55.3223 0.732422 55.3223-0.146484C55.3223-1.07422 54.6387-1.75781 53.7598-1.75781L38.2324-1.75781L38.2324-13.7207C43.457-13.9648 47.9492-15.4297 51.6113-17.8711L49.3164-20.166C45.8984-17.9688 41.6016-16.748 36.6699-16.748C23.1934-16.748 14.5508-25.6348 14.5508-38.2812L14.5508-45.459C14.5508-46.3379 13.8184-47.0215 12.9395-47.0215C12.0605-47.0215 11.377-46.3379 11.377-45.459ZM56.4941-28.2227L58.9355-25.7812C60.8887-29.3457 61.9629-33.5449 61.9629-38.2324L61.9629-45.459C61.9629-46.3379 61.2305-47.0215 60.3516-47.0215C59.4727-47.0215 58.7891-46.3379 58.7891-45.459L58.7891-38.2812C58.7891-34.5703 58.0078-31.1523 56.4941-28.2227ZM36.6699-26.5137C38.5742-26.5137 40.2832-26.9531 41.748-27.7344L24.6582-44.8242L24.6582-39.5996C24.6582-32.0801 29.3457-26.5137 36.6699-26.5137Z"/>
  </g>
  <g id="Ultralight-S" transform="matrix(1 0 0 1 523.969 696)">
   <path d="M35.7422-78.125C28.6133-78.125 24.0723-72.6562 24.0723-65.4297L24.0723-58.6914L46.9238-35.8398C47.2656-37.1094 47.4609-38.3789 47.4609-39.7949L47.4609-65.3809C47.4609-72.6074 42.9199-78.125 35.7422-78.125ZM63.7207-11.0352C64.1602-10.5957 64.8926-10.5957 65.332-11.0352C65.8203-11.5234 65.7715-12.1582 65.332-12.5977L9.66797-68.2129C9.27734-68.6035 8.59375-68.7012 8.10547-68.2129C7.66602-67.7734 7.66602-67.041 8.10547-66.6504ZM11.2305-38.0859C11.2305-24.6582 20.4102-14.9414 34.668-14.4531L34.668-1.36719L18.6523-1.36719C18.0664-1.36719 17.5781-0.878906 17.5781-0.292969C17.5781 0.341797 18.0664 0.830078 18.6523 0.830078L52.832 0.830078C53.4668 0.830078 53.9551 0.341797 53.9551-0.292969C53.9551-0.878906 53.4668-1.36719 52.832-1.36719L36.8652-1.36719L36.8652-14.4531C42.3828-14.6973 47.168-16.2598 50.9277-18.9453L49.3652-20.5078C45.752-18.0664 41.1133-16.6016 35.7422-16.6016C22.168-16.6016 13.4277-25.5859 13.4277-38.1348L13.4277-45.1172C13.4277-45.752 12.9395-46.2402 12.3535-46.2402C11.7188-46.2402 11.2305-45.752 11.2305-45.1172ZM55.4688-27.2949L57.1289-25.6836C59.1309-29.248 60.2539-33.4473 60.2539-38.0859L60.2539-45.1172C60.2539-45.752 59.7656-46.2402 59.1797-46.2402C58.5449-46.2402 58.0566-45.752 58.0566-45.1172L58.0566-38.1348C58.0566-34.082 57.1777-30.4199 55.4688-27.2949ZM35.7422-27.0508C37.8906-27.0508 39.7949-27.5391 41.4062-28.4668L24.0723-45.752L24.0723-39.7949C24.0723-32.5684 28.6133-27.0508 35.7422-27.0508Z"/>
  </g>
 </g>
</svg>
