<?xml version="1.0" encoding="UTF-8"?>
<!--Generator: Apple Native CoreSVG 123-->
<!DOCTYPE svg
PUBLIC "-//W3C//DTD SVG 1.1//EN"
       "http://www.w3.org/Graphics/SVG/1.1/DTD/svg11.dtd">
<svg version="1.1" xmlns="http://www.w3.org/2000/svg" xmlns:xlink="http://www.w3.org/1999/xlink" width="3300" height="2200">
 <!--glyph: "uni10007A.medium", point size: 100.000000, font version: "Version 15.0d7e11", template writer version: "5"-->
 <g id="Notes">
  <rect height="2200" id="artboard" style="fill:white;opacity:1" width="3300" x="0" y="0"/>
  <line id="" style="fill:none;stroke:black;opacity:1;stroke-width:0.5;" x1="263" x2="3036" y1="292" y2="292"/>
  <text style="stroke:none;fill:black;font-family:-apple-system,&quot;SF Pro Display&quot;,&quot;SF Pro Text&quot;,Helvetica,sans-serif;font-weight:bold;" transform="matrix(1 0 0 1 263 322)">Weight/Scale Variations</text>
  <text style="stroke:none;fill:black;font-family:-apple-system,&quot;SF Pro Display&quot;,&quot;SF Pro Text&quot;,Helvetica,sans-serif;text-anchor:middle;" transform="matrix(1 0 0 1 559.711 322)">Ultralight</text>
  <text style="stroke:none;fill:black;font-family:-apple-system,&quot;SF Pro Display&quot;,&quot;SF Pro Text&quot;,Helvetica,sans-serif;text-anchor:middle;" transform="matrix(1 0 0 1 856.422 322)">Thin</text>
  <text style="stroke:none;fill:black;font-family:-apple-system,&quot;SF Pro Display&quot;,&quot;SF Pro Text&quot;,Helvetica,sans-serif;text-anchor:middle;" transform="matrix(1 0 0 1 1153.13 322)">Light</text>
  <text style="stroke:none;fill:black;font-family:-apple-system,&quot;SF Pro Display&quot;,&quot;SF Pro Text&quot;,Helvetica,sans-serif;text-anchor:middle;" transform="matrix(1 0 0 1 1449.84 322)">Regular</text>
  <text style="stroke:none;fill:black;font-family:-apple-system,&quot;SF Pro Display&quot;,&quot;SF Pro Text&quot;,Helvetica,sans-serif;text-anchor:middle;" transform="matrix(1 0 0 1 1746.56 322)">Medium</text>
  <text style="stroke:none;fill:black;font-family:-apple-system,&quot;SF Pro Display&quot;,&quot;SF Pro Text&quot;,Helvetica,sans-serif;text-anchor:middle;" transform="matrix(1 0 0 1 2043.27 322)">Semibold</text>
  <text style="stroke:none;fill:black;font-family:-apple-system,&quot;SF Pro Display&quot;,&quot;SF Pro Text&quot;,Helvetica,sans-serif;text-anchor:middle;" transform="matrix(1 0 0 1 2339.98 322)">Bold</text>
  <text style="stroke:none;fill:black;font-family:-apple-system,&quot;SF Pro Display&quot;,&quot;SF Pro Text&quot;,Helvetica,sans-serif;text-anchor:middle;" transform="matrix(1 0 0 1 2636.69 322)">Heavy</text>
  <text style="stroke:none;fill:black;font-family:-apple-system,&quot;SF Pro Display&quot;,&quot;SF Pro Text&quot;,Helvetica,sans-serif;text-anchor:middle;" transform="matrix(1 0 0 1 2933.4 322)">Black</text>
  <line id="" style="fill:none;stroke:black;opacity:1;stroke-width:0.5;" x1="263" x2="3036" y1="1903" y2="1903"/>
  <g id="" transform="matrix(1 0 0 1 263 1933)">
   <path d="M 9.24805 0.830078 C 13.5547 0.830078 17.1387 -2.74414 17.1387 -7.05078 C 17.1387 -11.3574 13.5449 -14.9316 9.23828 -14.9316 C 4.94141 -14.9316 1.36719 -11.3574 1.36719 -7.05078 C 1.36719 -2.74414 4.95117 0.830078 9.24805 0.830078 Z M 9.24805 -0.654297 C 5.70312 -0.654297 2.87109 -3.49609 2.87109 -7.05078 C 2.87109 -10.6055 5.69336 -13.4473 9.23828 -13.4473 C 12.793 -13.4473 15.6348 -10.6055 15.6445 -7.05078 C 15.6543 -3.49609 12.8027 -0.654297 9.24805 -0.654297 Z M 9.22852 -3.42773 C 9.69727 -3.42773 9.9707 -3.74023 9.9707 -4.25781 L 9.9707 -6.31836 L 12.1973 -6.31836 C 12.6953 -6.31836 13.0371 -6.57227 13.0371 -7.04102 C 13.0371 -7.51953 12.7148 -7.7832 12.1973 -7.7832 L 9.9707 -7.7832 L 9.9707 -10.0098 C 9.9707 -10.5273 9.69727 -10.8496 9.22852 -10.8496 C 8.75977 -10.8496 8.50586 -10.5078 8.50586 -10.0098 L 8.50586 -7.7832 L 6.29883 -7.7832 C 5.78125 -7.7832 5.44922 -7.51953 5.44922 -7.04102 C 5.44922 -6.57227 5.80078 -6.31836 6.29883 -6.31836 L 8.50586 -6.31836 L 8.50586 -4.25781 C 8.50586 -3.75977 8.75977 -3.42773 9.22852 -3.42773 Z"/>
  </g>
  <g id="" transform="matrix(1 0 0 1 281.506 1933)">
   <path d="M 11.709 2.91016 C 17.1582 2.91016 21.6699 -1.60156 21.6699 -7.05078 C 21.6699 -12.4902 17.1484 -17.0117 11.6992 -17.0117 C 6.25977 -17.0117 1.74805 -12.4902 1.74805 -7.05078 C 1.74805 -1.60156 6.26953 2.91016 11.709 2.91016 Z M 11.709 1.25 C 7.09961 1.25 3.41797 -2.44141 3.41797 -7.05078 C 3.41797 -11.6504 7.08984 -15.3516 11.6992 -15.3516 C 16.3086 -15.3516 20 -11.6504 20.0098 -7.05078 C 20.0195 -2.44141 16.3184 1.25 11.709 1.25 Z M 11.6895 -2.41211 C 12.207 -2.41211 12.5195 -2.77344 12.5195 -3.33984 L 12.5195 -6.23047 L 15.5762 -6.23047 C 16.123 -6.23047 16.5039 -6.51367 16.5039 -7.03125 C 16.5039 -7.55859 16.1426 -7.86133 15.5762 -7.86133 L 12.5195 -7.86133 L 12.5195 -10.9277 C 12.5195 -11.5039 12.207 -11.8555 11.6895 -11.8555 C 11.1719 -11.8555 10.8789 -11.4844 10.8789 -10.9277 L 10.8789 -7.86133 L 7.83203 -7.86133 C 7.26562 -7.86133 6.89453 -7.55859 6.89453 -7.03125 C 6.89453 -6.51367 7.28516 -6.23047 7.83203 -6.23047 L 10.8789 -6.23047 L 10.8789 -3.33984 C 10.8789 -2.79297 11.1719 -2.41211 11.6895 -2.41211 Z"/>
  </g>
  <g id="" transform="matrix(1 0 0 1 304.924 1933)">
   <path d="M 14.9707 5.67383 C 21.9336 5.67383 27.6953 -0.078125 27.6953 -7.04102 C 27.6953 -14.0039 21.9238 -19.7559 14.9609 -19.7559 C 8.00781 -19.7559 2.25586 -14.0039 2.25586 -7.04102 C 2.25586 -0.078125 8.01758 5.67383 14.9707 5.67383 Z M 14.9707 3.85742 C 8.93555 3.85742 4.08203 -1.00586 4.08203 -7.04102 C 4.08203 -13.0762 8.92578 -17.9395 14.9609 -17.9395 C 21.0059 -17.9395 25.8594 -13.0762 25.8691 -7.04102 C 25.8789 -1.00586 21.0156 3.85742 14.9707 3.85742 Z M 14.9512 -1.06445 C 15.5176 -1.06445 15.8691 -1.45508 15.8691 -2.06055 L 15.8691 -6.13281 L 20.1074 -6.13281 C 20.6934 -6.13281 21.1133 -6.46484 21.1133 -7.02148 C 21.1133 -7.59766 20.7227 -7.93945 20.1074 -7.93945 L 15.8691 -7.93945 L 15.8691 -12.1875 C 15.8691 -12.8027 15.5176 -13.1934 14.9512 -13.1934 C 14.3848 -13.1934 14.0625 -12.7832 14.0625 -12.1875 L 14.0625 -7.93945 L 9.83398 -7.93945 C 9.21875 -7.93945 8.80859 -7.59766 8.80859 -7.02148 C 8.80859 -6.46484 9.23828 -6.13281 9.83398 -6.13281 L 14.0625 -6.13281 L 14.0625 -2.06055 C 14.0625 -1.47461 14.3848 -1.06445 14.9512 -1.06445 Z"/>
  </g>
  <text style="stroke:none;fill:black;font-family:-apple-system,&quot;SF Pro Display&quot;,&quot;SF Pro Text&quot;,Helvetica,sans-serif;font-weight:bold;" transform="matrix(1 0 0 1 263 1953)">Design Variations</text>
  <text style="stroke:none;fill:black;font-family:-apple-system,&quot;SF Pro Display&quot;,&quot;SF Pro Text&quot;,Helvetica,sans-serif;" transform="matrix(1 0 0 1 263 1971)">Symbols are supported in up to nine weights and three scales.</text>
  <text style="stroke:none;fill:black;font-family:-apple-system,&quot;SF Pro Display&quot;,&quot;SF Pro Text&quot;,Helvetica,sans-serif;" transform="matrix(1 0 0 1 263 1989)">For optimal layout with text and other symbols, vertically align</text>
  <text style="stroke:none;fill:black;font-family:-apple-system,&quot;SF Pro Display&quot;,&quot;SF Pro Text&quot;,Helvetica,sans-serif;" transform="matrix(1 0 0 1 263 2007)">symbols with the adjacent text.</text>
  <rect height="14" id="" style="fill:#00AEEF;stroke:none;opacity:0.4;" width="3" x="776" y="1919"/>
  <g id="" transform="matrix(1 0 0 1 779 1933)">
   <path d="M 10.5273 0 L 12.373 0 L 7.17773 -14.0918 L 5.43945 -14.0918 L 0.244141 0 L 2.08984 0 L 3.50586 -4.0332 L 9.11133 -4.0332 Z M 6.2793 -11.9531 L 6.33789 -11.9531 L 8.59375 -5.52734 L 4.02344 -5.52734 Z"/>
  </g>
  <rect height="14" id="" style="fill:#00AEEF;stroke:none;opacity:0.4;" width="3" x="791.617" y="1919"/>
  <text style="stroke:none;fill:black;font-family:-apple-system,&quot;SF Pro Display&quot;,&quot;SF Pro Text&quot;,Helvetica,sans-serif;font-weight:bold;" transform="matrix(1 0 0 1 776 1953)">Margins</text>
  <text style="stroke:none;fill:black;font-family:-apple-system,&quot;SF Pro Display&quot;,&quot;SF Pro Text&quot;,Helvetica,sans-serif;" transform="matrix(1 0 0 1 776 1971)">Leading and trailing margins on the left and right side of each symbol</text>
  <text style="stroke:none;fill:black;font-family:-apple-system,&quot;SF Pro Display&quot;,&quot;SF Pro Text&quot;,Helvetica,sans-serif;" transform="matrix(1 0 0 1 776 1989)">can be adjusted by modifying the width of the blue rectangles.</text>
  <text style="stroke:none;fill:black;font-family:-apple-system,&quot;SF Pro Display&quot;,&quot;SF Pro Text&quot;,Helvetica,sans-serif;" transform="matrix(1 0 0 1 776 2007)">Modifications are automatically applied proportionally to all</text>
  <text style="stroke:none;fill:black;font-family:-apple-system,&quot;SF Pro Display&quot;,&quot;SF Pro Text&quot;,Helvetica,sans-serif;" transform="matrix(1 0 0 1 776 2025)">scales and weights.</text>
  <g id="" transform="matrix(1 0 0 1 1289 1933)">
   <path d="M 2.83203 3.11523 L 4.375 4.6582 C 5.22461 5.48828 6.19141 5.41992 7.06055 4.46289 L 17.2754 -6.66016 C 17.7051 -6.36719 18.0957 -6.37695 18.5645 -6.47461 L 19.6094 -6.68945 L 20.3027 -5.99609 L 20.2539 -5.47852 C 20.1855 -4.95117 20.3516 -4.53125 20.8496 -4.0332 L 21.6602 -3.22266 C 22.168 -2.71484 22.8223 -2.68555 23.3008 -3.16406 L 26.5527 -6.41602 C 27.0312 -6.89453 27.0117 -7.54883 26.5039 -8.05664 L 25.6836 -8.87695 C 25.1855 -9.375 24.7754 -9.55078 24.2383 -9.47266 L 23.7109 -9.41406 L 23.0566 -10.0781 L 23.3398 -11.2207 C 23.4863 -11.7871 23.3398 -12.2559 22.7148 -12.8613 L 20.3027 -15.2539 C 16.7578 -18.7793 12.2266 -18.6719 9.11133 -15.5371 C 8.69141 -15.1074 8.64258 -14.5215 8.91602 -14.0918 C 9.15039 -13.7207 9.62891 -13.4961 10.2734 -13.6621 C 11.7871 -14.043 13.3008 -13.9258 14.7852 -12.9199 L 14.1602 -11.3379 C 13.9258 -10.752 13.9453 -10.2734 14.1797 -9.83398 L 3.01758 0.439453 C 2.08008 1.30859 1.97266 2.25586 2.83203 3.11523 Z M 10.6738 -15.1465 C 13.3398 -17.1387 16.6504 -16.8262 19.0527 -14.4141 L 21.6797 -11.8066 C 21.9141 -11.5723 21.9434 -11.3867 21.8848 -11.0938 L 21.5039 -9.53125 L 23.0762 -7.95898 L 24.043 -8.04688 C 24.3262 -8.07617 24.4141 -8.05664 24.6387 -7.83203 L 25.2637 -7.20703 L 22.5098 -4.46289 L 21.8848 -5.07812 C 21.6602 -5.30273 21.6406 -5.40039 21.6699 -5.68359 L 21.7578 -6.64062 L 20.1953 -8.20312 L 18.5742 -7.89062 C 18.291 -7.83203 18.1445 -7.83203 17.9102 -8.07617 L 15.7324 -10.2539 C 15.5078 -10.4883 15.4785 -10.625 15.6055 -10.9473 L 16.5527 -13.2227 C 14.9512 -14.7559 12.8418 -15.6055 10.8008 -14.9512 C 10.7129 -14.9219 10.6445 -14.9414 10.6152 -14.9805 C 10.5859 -15.0293 10.5859 -15.0781 10.6738 -15.1465 Z M 4.10156 2.41211 C 3.61328 1.91406 3.78906 1.61133 4.12109 1.30859 L 15.0781 -8.80859 L 16.3086 -7.57812 L 6.15234 3.34961 C 5.84961 3.68164 5.46875 3.7793 5.06836 3.37891 Z"/>
  </g>
  <text style="stroke:none;fill:black;font-family:-apple-system,&quot;SF Pro Display&quot;,&quot;SF Pro Text&quot;,Helvetica,sans-serif;font-weight:bold;" transform="matrix(1 0 0 1 1289 1953)">Exporting</text>
  <text style="stroke:none;fill:black;font-family:-apple-system,&quot;SF Pro Display&quot;,&quot;SF Pro Text&quot;,Helvetica,sans-serif;" transform="matrix(1 0 0 1 1289 1971)">Symbols should be outlined when exporting to ensure the</text>
  <text style="stroke:none;fill:black;font-family:-apple-system,&quot;SF Pro Display&quot;,&quot;SF Pro Text&quot;,Helvetica,sans-serif;" transform="matrix(1 0 0 1 1289 1989)">design is preserved when submitting to Xcode.</text>
  <text id="template-version" style="stroke:none;fill:black;font-family:-apple-system,&quot;SF Pro Display&quot;,&quot;SF Pro Text&quot;,Helvetica,sans-serif;text-anchor:end;" transform="matrix(1 0 0 1 3036 1933)">Template v.1.0</text>
  <text style="stroke:none;fill:black;font-family:-apple-system,&quot;SF Pro Display&quot;,&quot;SF Pro Text&quot;,Helvetica,sans-serif;text-anchor:end;" transform="matrix(1 0 0 1 3036 1951)">Generated from arrow.left.circle</text>
  <text style="stroke:none;fill:black;font-family:-apple-system,&quot;SF Pro Display&quot;,&quot;SF Pro Text&quot;,Helvetica,sans-serif;text-anchor:end;" transform="matrix(1 0 0 1 3036 1969)">Typeset at 100 points</text>
  <text style="stroke:none;fill:black;font-family:-apple-system,&quot;SF Pro Display&quot;,&quot;SF Pro Text&quot;,Helvetica,sans-serif;" transform="matrix(1 0 0 1 263 726)">Small</text>
  <text style="stroke:none;fill:black;font-family:-apple-system,&quot;SF Pro Display&quot;,&quot;SF Pro Text&quot;,Helvetica,sans-serif;" transform="matrix(1 0 0 1 263 1156)">Medium</text>
  <text style="stroke:none;fill:black;font-family:-apple-system,&quot;SF Pro Display&quot;,&quot;SF Pro Text&quot;,Helvetica,sans-serif;" transform="matrix(1 0 0 1 263 1586)">Large</text>
 </g>
 <g id="Guides">
  <g id="H-reference" style="fill:#27AAE1;stroke:none;" transform="matrix(1 0 0 1 339 696)">
   <path d="M 54.9316 0 L 57.666 0 L 30.5664 -70.459 L 28.0762 -70.459 L 0.976562 0 L 3.66211 0 L 12.9395 -24.4629 L 45.7031 -24.4629 Z M 29.1992 -67.0898 L 29.4434 -67.0898 L 44.8242 -26.709 L 13.8184 -26.709 Z"/>
  </g>
  <line id="Baseline-S" style="fill:none;stroke:#27AAE1;opacity:1;stroke-width:0.577;" x1="263" x2="3036" y1="696" y2="696"/>
  <line id="Capline-S" style="fill:none;stroke:#27AAE1;opacity:1;stroke-width:0.577;" x1="263" x2="3036" y1="625.541" y2="625.541"/>
  <g id="H-reference" style="fill:#27AAE1;stroke:none;" transform="matrix(1 0 0 1 339 1126)">
   <path d="M 54.9316 0 L 57.666 0 L 30.5664 -70.459 L 28.0762 -70.459 L 0.976562 0 L 3.66211 0 L 12.9395 -24.4629 L 45.7031 -24.4629 Z M 29.1992 -67.0898 L 29.4434 -67.0898 L 44.8242 -26.709 L 13.8184 -26.709 Z"/>
  </g>
  <line id="Baseline-M" style="fill:none;stroke:#27AAE1;opacity:1;stroke-width:0.577;" x1="263" x2="3036" y1="1126" y2="1126"/>
  <line id="Capline-M" style="fill:none;stroke:#27AAE1;opacity:1;stroke-width:0.577;" x1="263" x2="3036" y1="1055.54" y2="1055.54"/>
  <g id="H-reference" style="fill:#27AAE1;stroke:none;" transform="matrix(1 0 0 1 339 1556)">
   <path d="M 54.9316 0 L 57.666 0 L 30.5664 -70.459 L 28.0762 -70.459 L 0.976562 0 L 3.66211 0 L 12.9395 -24.4629 L 45.7031 -24.4629 Z M 29.1992 -67.0898 L 29.4434 -67.0898 L 44.8242 -26.709 L 13.8184 -26.709 Z"/>
  </g>
  <line id="Baseline-L" style="fill:none;stroke:#27AAE1;opacity:1;stroke-width:0.577;" x1="263" x2="3036" y1="1556" y2="1556"/>
  <line id="Capline-L" style="fill:none;stroke:#27AAE1;opacity:1;stroke-width:0.577;" x1="263" x2="3036" y1="1485.54" y2="1485.54"/>
  <rect height="119.336" id="left-margin" style="fill:#00AEEF;stroke:none;opacity:0.4;" width="8.74023" x="1391.3" y="1030.79"/>
  <rect height="119.336" id="right-margin" style="fill:#00AEEF;stroke:none;opacity:0.4;" width="8.74023" x="1499.65" y="1030.79"/>
 </g>
 <g id="Symbols">
  <g id="Black-L" transform="matrix(1 0 0 1 2854.05 1556)">
   <path d="M 79.3457 32.8613 C 116.748 32.8613 147.412 2.19727 147.412 -35.2051 C 147.412 -72.6074 116.748 -103.271 79.2969 -103.271 C 41.8945 -103.271 11.2793 -72.6074 11.2793 -35.2051 C 11.2793 2.19727 41.9434 32.8613 79.3457 32.8613 Z M 79.3457 12.4023 C 52.9785 12.4023 31.7383 -8.83789 31.7383 -35.2051 C 31.7383 -61.5723 52.9297 -82.8125 79.2969 -82.8125 C 105.664 -82.8125 126.953 -61.5723 126.953 -35.2051 C 127.002 -8.83789 105.713 12.4023 79.3457 12.4023 Z M 46.3379 -35.1562 C 46.3379 -32.2754 47.4121 -29.9316 49.4629 -28.0273 L 70.8496 -8.05664 C 72.6562 -6.39648 74.1699 -5.76172 76.4648 -5.76172 C 80.5176 -5.76172 83.3496 -8.74023 83.3496 -13.0371 C 83.3496 -15.1855 82.4707 -17.2363 80.957 -18.457 L 74.5117 -23.8281 L 69.043 -27.3926 L 81.1523 -26.5137 L 104.395 -26.5137 C 109.082 -26.5137 112.402 -30.3223 112.402 -35.1562 C 112.402 -40.0391 109.082 -43.7988 104.395 -43.7988 L 81.1523 -43.7988 L 69.0918 -42.9688 L 74.707 -46.5332 L 80.957 -51.9043 C 82.373 -53.1738 83.3496 -55.2246 83.3496 -57.3242 C 83.3496 -61.5723 80.5176 -64.5508 76.4648 -64.5508 C 74.1699 -64.5508 72.6562 -63.9648 70.8496 -62.3047 L 49.4629 -42.334 C 47.4121 -40.3809 46.3379 -38.0859 46.3379 -35.1562 Z"/>
  </g>
  <g id="Heavy-L" transform="matrix(1 0 0 1 2558.39 1556)">
   <path d="M 78.2715 31.7871 C 115.088 31.7871 145.312 1.61133 145.312 -35.2051 C 145.312 -72.0215 115.039 -102.197 78.2715 -102.197 C 41.4551 -102.197 11.2793 -72.0215 11.2793 -35.2051 C 11.2793 1.61133 41.5039 31.7871 78.2715 31.7871 Z M 78.2715 14.0137 C 51.0254 14.0137 29.0527 -7.95898 29.0527 -35.2051 C 29.0527 -62.5 50.9766 -84.4727 78.2715 -84.4727 C 105.518 -84.4727 127.49 -62.5 127.539 -35.2051 C 127.539 -7.95898 105.566 14.0137 78.2715 14.0137 Z M 45.4102 -35.2051 C 45.4102 -32.666 46.3867 -30.6641 48.1445 -29.0039 L 69.7266 -8.54492 C 71.2402 -7.08008 72.6562 -6.49414 74.6582 -6.49414 C 78.2715 -6.49414 80.8594 -9.22852 80.8594 -12.9883 C 80.8594 -14.8926 80.0293 -16.6992 78.7109 -17.8223 L 71.6309 -24.0723 L 65.625 -28.3691 L 77.7832 -27.6367 L 104.15 -27.6367 C 108.301 -27.6367 111.23 -30.957 111.23 -35.2051 C 111.23 -39.4531 108.252 -42.7734 104.15 -42.7734 L 77.7832 -42.7734 L 65.6738 -41.9922 L 71.7773 -46.3379 L 78.7109 -52.5879 C 79.9805 -53.7109 80.8594 -55.5176 80.8594 -57.4219 C 80.8594 -61.1816 78.2715 -63.8672 74.6582 -63.8672 C 72.6562 -63.8672 71.2402 -63.3301 69.7266 -61.8652 L 48.1445 -41.4062 C 46.3379 -39.6484 45.4102 -37.6953 45.4102 -35.2051 Z"/>
  </g>
  <g id="Bold-L" transform="matrix(1 0 0 1 2262.88 1556)">
   <path d="M 77.0996 30.6152 C 113.232 30.6152 142.92 0.878906 142.92 -35.2051 C 142.92 -71.3379 113.184 -101.025 77.0508 -101.025 C 40.9668 -101.025 11.2793 -71.3379 11.2793 -35.2051 C 11.2793 0.878906 41.0156 30.6152 77.0996 30.6152 Z M 77.0996 15.8691 C 48.8281 15.8691 26.0742 -6.93359 26.0742 -35.2051 C 26.0742 -63.4766 48.7793 -86.2793 77.0508 -86.2793 C 105.371 -86.2793 128.125 -63.4766 128.174 -35.2051 C 128.174 -6.93359 105.371 15.8691 77.0996 15.8691 Z M 44.3848 -35.2539 C 44.3848 -33.1543 45.2148 -31.543 46.7285 -30.0781 L 68.4082 -9.08203 C 69.6777 -7.86133 70.9473 -7.37305 72.6562 -7.37305 C 75.7812 -7.37305 78.0273 -9.7168 78.0273 -12.9395 C 78.0273 -14.5996 77.3438 -16.1133 76.2207 -17.0898 L 68.4082 -24.3652 L 61.8164 -29.4922 L 74.0234 -28.8574 L 103.857 -28.8574 C 107.373 -28.8574 109.863 -31.6406 109.863 -35.2051 C 109.863 -38.8672 107.373 -41.6016 103.857 -41.6016 L 74.0234 -41.6016 L 61.8652 -40.918 L 68.5059 -46.0938 L 76.2207 -53.3691 C 77.2949 -54.3457 78.0273 -55.8594 78.0273 -57.5195 C 78.0273 -60.7422 75.7812 -63.0859 72.6562 -63.0859 C 70.9473 -63.0859 69.6777 -62.5977 68.4082 -61.377 L 46.7285 -40.332 C 45.166 -38.8672 44.3848 -37.2559 44.3848 -35.2539 Z"/>
  </g>
  <g id="Semibold-L" transform="matrix(1 0 0 1 1966.97 1556)">
   <path d="M 76.2695 29.7852 C 111.914 29.7852 141.309 0.439453 141.309 -35.2051 C 141.309 -70.8496 111.865 -100.244 76.2695 -100.244 C 40.625 -100.244 11.2793 -70.8496 11.2793 -35.2051 C 11.2793 0.439453 40.6738 29.7852 76.2695 29.7852 Z M 76.2695 17.0898 C 47.3145 17.0898 24.0234 -6.25 24.0234 -35.2051 C 24.0234 -64.209 47.2656 -87.5 76.2695 -87.5 C 105.225 -87.5 128.564 -64.209 128.613 -35.2051 C 128.662 -6.25 105.273 17.0898 76.2695 17.0898 Z M 43.7012 -35.2539 C 43.7012 -33.4961 44.3848 -32.0801 45.7031 -30.8105 L 67.5293 -9.42383 C 68.6035 -8.44727 69.7266 -7.91016 71.2402 -7.91016 C 74.0723 -7.91016 76.0742 -10.0586 76.0742 -12.9395 C 76.0742 -14.4043 75.4883 -15.7227 74.4629 -16.6016 L 66.1621 -24.5117 L 59.1797 -30.2734 L 71.3867 -29.7363 L 103.662 -29.7363 C 106.738 -29.7363 108.984 -32.1289 108.984 -35.2539 C 108.984 -38.4277 106.738 -40.7715 103.662 -40.7715 L 71.3867 -40.7715 L 59.2285 -40.1855 L 66.2598 -45.9473 L 74.4629 -53.8574 C 75.4395 -54.7852 76.0742 -56.1035 76.0742 -57.5684 C 76.0742 -60.4492 74.0723 -62.5488 71.2402 -62.5488 C 69.7266 -62.5488 68.6035 -62.0605 67.5293 -61.0352 L 45.7031 -39.6484 C 44.3359 -38.2812 43.7012 -36.9141 43.7012 -35.2539 Z"/>
  </g>
  <g id="Medium-L" transform="matrix(1 0 0 1 1670.87 1556)">
   <path d="M 75.6836 29.1992 C 110.938 29.1992 140.088 0.0488281 140.088 -35.2051 C 140.088 -70.459 110.889 -99.6094 75.6348 -99.6094 C 40.3809 -99.6094 11.2793 -70.459 11.2793 -35.2051 C 11.2793 0.0488281 40.3809 29.1992 75.6836 29.1992 Z M 75.6836 18.0664 C 46.1426 18.0664 22.4609 -5.71289 22.4609 -35.2051 C 22.4609 -64.6973 46.1426 -88.4766 75.6348 -88.4766 C 105.127 -88.4766 128.906 -64.6973 128.906 -35.2051 C 128.955 -5.71289 105.176 18.0664 75.6836 18.0664 Z M 43.1641 -35.2539 C 43.1641 -33.7402 43.7988 -32.5195 44.9707 -31.3965 L 66.8945 -9.7168 C 67.7734 -8.83789 68.8477 -8.34961 70.2148 -8.34961 C 72.7539 -8.34961 74.6094 -10.3027 74.6094 -12.8906 C 74.6094 -14.2578 74.1211 -15.4297 73.1934 -16.2598 L 64.502 -24.6582 L 57.1777 -30.8594 L 69.4336 -30.3711 L 103.516 -30.3711 C 106.299 -30.3711 108.252 -32.4707 108.252 -35.2539 C 108.252 -38.0859 106.25 -40.1367 103.516 -40.1367 L 69.4336 -40.1367 L 57.2266 -39.6484 L 64.5508 -45.8496 L 73.1934 -54.2969 C 74.0234 -55.127 74.6094 -56.2988 74.6094 -57.666 C 74.6094 -60.2051 72.7539 -62.1094 70.2148 -62.1094 C 68.8477 -62.1094 67.7734 -61.7188 66.8945 -60.791 L 44.9707 -39.1113 C 43.7012 -37.8906 43.1641 -36.7188 43.1641 -35.2539 Z"/>
  </g>
  <g id="Regular-L" transform="matrix(1 0 0 1 1374.97 1556)">
   <path d="M 74.8535 28.3691 C 109.668 28.3691 138.477 -0.390625 138.477 -35.2051 C 138.477 -70.0195 109.619 -98.7793 74.8047 -98.7793 C 40.0391 -98.7793 11.2793 -70.0195 11.2793 -35.2051 C 11.2793 -0.390625 40.0879 28.3691 74.8535 28.3691 Z M 74.8535 19.2871 C 44.6777 19.2871 20.4102 -5.0293 20.4102 -35.2051 C 20.4102 -65.3809 44.6289 -89.6973 74.8047 -89.6973 C 105.029 -89.6973 129.297 -65.3809 129.346 -35.2051 C 129.395 -5.0293 105.078 19.2871 74.8535 19.2871 Z M 42.4805 -35.3027 C 42.4805 -34.082 43.0176 -33.1055 43.9941 -32.1289 L 66.0156 -10.1074 C 66.6992 -9.375 67.6758 -8.93555 68.8477 -8.93555 C 71.0449 -8.93555 72.7051 -10.6934 72.7051 -12.8418 C 72.7051 -14.0625 72.2656 -15.0391 71.4844 -15.7715 L 62.3047 -24.8535 L 54.5898 -31.6406 L 66.8457 -31.25 L 103.32 -31.25 C 105.664 -31.25 107.373 -32.959 107.373 -35.2539 C 107.373 -37.6465 105.664 -39.3555 103.32 -39.3555 L 66.8457 -39.3555 L 54.5898 -38.916 L 62.3047 -45.7031 L 71.4844 -54.7852 C 72.2168 -55.5664 72.7051 -56.4941 72.7051 -57.7148 C 72.7051 -59.9121 71.0449 -61.5723 68.8477 -61.5723 C 67.6758 -61.5723 66.6992 -61.1816 66.0156 -60.498 L 43.9941 -38.3789 C 42.9199 -37.3047 42.4805 -36.377 42.4805 -35.3027 Z"/>
  </g>
  <g id="Light-L" transform="matrix(1 0 0 1 1079.18 1556)">
   <path d="M 73.9258 27.4902 C 108.301 27.4902 136.621 -0.830078 136.621 -35.1562 C 136.621 -69.5312 108.252 -97.8516 73.9258 -97.8516 C 39.5508 -97.8516 11.2793 -69.5312 11.2793 -35.1562 C 11.2793 -0.830078 39.5996 27.4902 73.9258 27.4902 Z M 73.9258 20.6055 C 43.1152 20.6055 18.2129 -4.3457 18.2129 -35.1562 C 18.2129 -66.0156 43.0664 -90.918 73.9258 -90.918 C 104.736 -90.918 129.688 -66.0156 129.736 -35.1562 C 129.736 -4.3457 104.785 20.6055 73.9258 20.6055 Z M 41.5527 -35.2539 C 41.5527 -34.3262 41.9434 -33.5449 42.6758 -32.8613 L 65.6738 -9.86328 C 66.2598 -9.27734 66.9922 -8.93555 67.9199 -8.93555 C 69.6289 -8.93555 70.8984 -10.2539 70.8984 -11.9141 C 70.8984 -12.8906 70.5078 -13.623 69.873 -14.209 L 58.9844 -25.0488 L 51.123 -32.373 L 61.9141 -32.0801 L 103.271 -32.0801 C 105.127 -32.0801 106.445 -33.3984 106.445 -35.2051 C 106.445 -37.1094 105.078 -38.4277 103.271 -38.4277 L 61.9141 -38.4277 L 51.0742 -38.0371 L 58.9844 -45.4102 L 69.873 -56.2988 C 70.459 -56.8848 70.8984 -57.6172 70.8984 -58.5938 C 70.8984 -60.2539 69.6289 -61.5723 67.9199 -61.5723 C 66.9922 -61.5723 66.2598 -61.2305 65.6738 -60.6445 L 42.6758 -37.5977 C 41.8945 -36.8164 41.5527 -36.084 41.5527 -35.2539 Z"/>
  </g>
  <g id="Thin-L" transform="matrix(1 0 0 1 783.693 1556)">
   <path d="M 72.7051 26.3184 C 106.494 26.3184 134.18 -1.36719 134.18 -35.1074 C 134.18 -68.8965 106.494 -96.582 72.7051 -96.582 C 38.9648 -96.582 11.2793 -68.8965 11.2793 -35.1074 C 11.2793 -1.36719 38.9648 26.3184 72.7051 26.3184 Z M 72.7051 22.3145 C 41.0156 22.3145 15.2832 -3.41797 15.2832 -35.1074 C 15.2832 -66.8457 41.0156 -92.5781 72.7051 -92.5781 C 104.395 -92.5781 130.176 -66.8457 130.176 -35.1074 C 130.176 -3.41797 104.443 22.3145 72.7051 22.3145 Z M 40.332 -35.2051 C 40.332 -34.6191 40.5762 -34.1309 40.918 -33.7891 L 65.2832 -9.52148 C 65.625 -9.17969 66.0645 -8.88672 66.6992 -8.88672 C 67.7734 -8.88672 68.457 -9.66797 68.457 -10.6934 C 68.457 -11.3281 68.2129 -11.7188 67.7246 -12.1582 L 54.5898 -25.293 L 46.5332 -33.3984 L 55.3711 -33.2031 L 103.223 -33.2031 C 104.443 -33.2031 105.225 -34.0332 105.225 -35.1074 C 105.225 -36.4258 104.346 -37.207 103.223 -37.207 L 55.3711 -37.207 L 46.4355 -36.9141 L 54.5898 -45.0684 L 67.7246 -58.252 C 68.1641 -58.6914 68.457 -59.082 68.457 -59.7168 C 68.457 -60.7422 67.7734 -61.5234 66.6992 -61.5234 C 66.0645 -61.5234 65.625 -61.2305 65.2832 -60.8887 L 40.918 -36.5723 C 40.5273 -36.1816 40.332 -35.6445 40.332 -35.2051 Z"/>
  </g>
  <g id="Ultralight-L" transform="matrix(1 0 0 1 487.616 1556)">
   <path d="M 72.1191 25.7324 C 105.566 25.7324 132.91 -1.61133 132.91 -35.1074 C 132.91 -68.5547 105.566 -95.8984 72.1191 -95.8984 C 38.623 -95.8984 11.2793 -68.5547 11.2793 -35.1074 C 11.2793 -1.61133 38.623 25.7324 72.1191 25.7324 Z M 72.1191 23.2422 C 39.9414 23.2422 13.7695 -2.97852 13.7695 -35.1074 C 13.7695 -67.2363 39.9414 -93.4082 72.1191 -93.4082 C 104.248 -93.4082 130.42 -67.2363 130.42 -35.1074 C 130.42 -2.97852 104.248 23.2422 72.1191 23.2422 Z M 39.6973 -35.1562 C 39.6973 -34.7656 39.8926 -34.4727 40.0391 -34.2773 L 65.0391 -9.375 C 65.332 -9.08203 65.5762 -8.88672 66.0645 -8.88672 C 66.7969 -8.88672 67.2363 -9.375 67.2363 -10.0098 C 67.2363 -10.498 66.9922 -10.7422 66.6504 -11.1328 L 52.3438 -25.4395 L 44.1406 -33.8867 L 52.0508 -33.7891 L 103.174 -33.7891 C 104.053 -33.7891 104.59 -34.375 104.59 -35.1074 C 104.59 -36.0352 104.004 -36.5723 103.174 -36.5723 L 52.0508 -36.5723 L 44.0918 -36.377 L 52.3438 -44.9219 L 66.6504 -59.2285 C 66.9922 -59.6191 67.2363 -59.8145 67.2363 -60.3027 C 67.2363 -60.9375 66.7969 -61.4746 66.0645 -61.4746 C 65.5762 -61.4746 65.332 -61.2305 65.0391 -60.9863 L 40.0391 -36.084 C 39.7949 -35.8398 39.6973 -35.4004 39.6973 -35.1562 Z"/>
  </g>
  <g id="Black-M" transform="matrix(1 0 0 1 2870.97 1126)">
   <path d="M 62.4023 18.457 C 91.9922 18.457 116.113 -5.61523 116.113 -35.2051 C 116.113 -64.7949 91.9922 -88.8672 62.4023 -88.8672 C 32.8125 -88.8672 8.74023 -64.7949 8.74023 -35.2051 C 8.74023 -5.61523 32.8125 18.457 62.4023 18.457 Z M 62.4023 0.195312 C 42.8711 0.195312 27.002 -15.625 27.002 -35.2051 C 27.002 -54.7363 42.8711 -70.6055 62.4023 -70.6055 C 81.9824 -70.6055 97.8027 -54.7363 97.8027 -35.2051 C 97.8027 -15.625 81.9824 0.195312 62.4023 0.195312 Z M 36.6699 -35.1074 C 36.6699 -32.4707 37.5977 -30.3223 39.3555 -28.7109 L 56.2988 -13.3789 C 57.9102 -11.8652 59.1797 -11.377 61.1816 -11.377 C 64.6484 -11.377 67.041 -13.8672 67.041 -17.5781 C 67.041 -19.3848 66.2109 -21.2402 64.8926 -22.2168 L 59.8145 -26.2207 L 56.25 -28.2227 L 64.7949 -27.4414 L 81.25 -27.4414 C 85.3516 -27.4414 88.2324 -30.8594 88.2324 -35.1074 C 88.2324 -39.4043 85.3516 -42.8223 81.25 -42.8223 L 64.7949 -42.8223 L 56.25 -42.041 L 60.1074 -44.1406 L 64.8926 -48.0469 C 66.1621 -49.0723 67.041 -50.9277 67.041 -52.6855 C 67.041 -56.3965 64.6484 -58.8867 61.1816 -58.8867 C 59.1797 -58.8867 57.9102 -58.3984 56.2988 -56.8848 L 39.3555 -41.5527 C 37.5977 -39.9414 36.6699 -37.793 36.6699 -35.1074 Z"/>
  </g>
  <g id="Heavy-M" transform="matrix(1 0 0 1 2575.19 1126)">
   <path d="M 61.5234 17.5781 C 90.5273 17.5781 114.258 -6.15234 114.258 -35.2051 C 114.258 -64.2578 90.5273 -87.9883 61.4746 -87.9883 C 32.4707 -87.9883 8.74023 -64.2578 8.74023 -35.2051 C 8.74023 -6.15234 32.4707 17.5781 61.5234 17.5781 Z M 61.5234 1.66016 C 41.1133 1.66016 24.6582 -14.8438 24.6582 -35.2051 C 24.6582 -55.5664 41.1133 -72.0703 61.4746 -72.0703 C 81.8848 -72.0703 98.3398 -55.5664 98.3398 -35.2051 C 98.3398 -14.8438 81.8848 1.66016 61.5234 1.66016 Z M 35.8887 -35.1562 C 35.8887 -32.8613 36.7188 -31.0547 38.2812 -29.5898 L 55.127 -13.9648 C 56.4941 -12.6465 57.666 -12.207 59.4727 -12.207 C 62.5977 -12.207 64.7461 -14.502 64.7461 -17.7734 C 64.7461 -19.4336 64.0137 -21.0449 62.8418 -21.9727 L 57.5684 -26.416 L 53.418 -29.1016 L 62.4023 -28.418 L 80.957 -28.418 C 84.6191 -28.418 87.1582 -31.3965 87.1582 -35.1562 C 87.1582 -38.9648 84.6191 -41.8945 80.957 -41.8945 L 62.4023 -41.8945 L 53.4668 -41.2598 L 57.7637 -43.9941 L 62.8418 -48.3887 C 63.9648 -49.3652 64.7461 -50.9766 64.7461 -52.5391 C 64.7461 -55.8594 62.5977 -58.1543 59.4727 -58.1543 C 57.666 -58.1543 56.4941 -57.666 55.127 -56.3477 L 38.2812 -40.7715 C 36.7188 -39.2578 35.8887 -37.4512 35.8887 -35.1562 Z"/>
  </g>
  <g id="Bold-M" transform="matrix(1 0 0 1 2279.5 1126)">
   <path d="M 60.498 16.5039 C 88.8672 16.5039 112.207 -6.78711 112.207 -35.2051 C 112.207 -63.623 88.8672 -86.9629 60.4492 -86.9629 C 32.0312 -86.9629 8.74023 -63.623 8.74023 -35.2051 C 8.74023 -6.78711 32.0801 16.5039 60.498 16.5039 Z M 60.498 3.22266 C 39.1602 3.22266 22.0703 -13.916 22.0703 -35.2051 C 22.0703 -56.4941 39.1602 -73.6816 60.4492 -73.6816 C 81.7383 -73.6816 98.9258 -56.4941 98.9258 -35.2051 C 98.9746 -13.916 81.7871 3.22266 60.498 3.22266 Z M 35.0586 -35.2051 C 35.0586 -33.3496 35.7422 -31.8359 37.1094 -30.5664 L 53.8086 -14.6484 C 54.9316 -13.5742 56.0059 -13.1348 57.5195 -13.1348 C 60.2539 -13.1348 62.207 -15.1367 62.207 -18.0176 C 62.207 -19.4336 61.6211 -20.8008 60.5957 -21.6309 L 55.0293 -26.6113 L 50.293 -30.127 L 59.7168 -29.541 L 80.6641 -29.541 C 83.7891 -29.541 85.9863 -32.0312 85.9863 -35.2051 C 85.9863 -38.4277 83.7402 -40.8691 80.6641 -40.8691 L 59.7168 -40.8691 L 50.293 -40.332 L 55.127 -43.7988 L 60.5957 -48.7793 C 61.5723 -49.6582 62.207 -51.0254 62.207 -52.4414 C 62.207 -55.2734 60.2539 -57.2754 57.5195 -57.2754 C 56.0059 -57.2754 54.9316 -56.8848 53.8086 -55.8105 L 37.1094 -39.8438 C 35.7422 -38.5254 35.0586 -37.0605 35.0586 -35.2051 Z"/>
  </g>
  <g id="Semibold-M" transform="matrix(1 0 0 1 1983.5 1126)">
   <path d="M 59.7656 15.8203 C 87.7441 15.8203 110.791 -7.22656 110.791 -35.2051 C 110.791 -63.1836 87.6953 -86.2793 59.7656 -86.2793 C 31.7871 -86.2793 8.74023 -63.1836 8.74023 -35.2051 C 8.74023 -7.22656 31.7871 15.8203 59.7656 15.8203 Z M 59.7656 4.3457 C 37.8418 4.3457 20.2637 -13.2812 20.2637 -35.2051 C 20.2637 -57.1289 37.793 -74.8047 59.7656 -74.8047 C 81.6895 -74.8047 99.3164 -57.1289 99.3652 -35.2051 C 99.3652 -13.2812 81.6895 4.3457 59.7656 4.3457 Z M 34.4727 -35.2539 C 34.4727 -33.6426 35.1074 -32.373 36.2793 -31.25 L 52.8809 -15.0879 C 53.8574 -14.1602 54.8828 -13.7695 56.2012 -13.7695 C 58.6426 -13.7695 60.4492 -15.625 60.4492 -18.1641 C 60.4492 -19.4824 59.9121 -20.6543 59.0332 -21.4355 L 53.2715 -26.8066 L 48.0957 -30.8105 L 57.8613 -30.3223 L 80.4688 -30.3223 C 83.2031 -30.3223 85.1562 -32.4219 85.1562 -35.2539 C 85.1562 -38.0371 83.2031 -40.1855 80.4688 -40.1855 L 57.8613 -40.1855 L 48.0957 -39.6973 L 53.3203 -43.7012 L 59.0332 -49.0723 C 59.8633 -49.8535 60.4492 -51.0254 60.4492 -52.3438 C 60.4492 -54.8828 58.6426 -56.6895 56.2012 -56.6895 C 54.8828 -56.6895 53.8574 -56.2988 52.8809 -55.3711 L 36.2793 -39.209 C 35.0586 -38.0371 34.4727 -36.7676 34.4727 -35.2539 Z"/>
  </g>
  <g id="Medium-M" transform="matrix(1 0 0 1 1687.3 1126)">
   <path d="M 59.2285 15.2832 C 86.9141 15.2832 109.766 -7.56836 109.766 -35.2051 C 109.766 -62.8906 86.8652 -85.7422 59.1797 -85.7422 C 31.543 -85.7422 8.74023 -62.8906 8.74023 -35.2051 C 8.74023 -7.56836 31.5918 15.2832 59.2285 15.2832 Z M 59.2285 5.17578 C 36.8164 5.17578 18.8965 -12.8418 18.8965 -35.2051 C 18.8965 -57.6172 36.8164 -75.6348 59.1797 -75.6348 C 81.5918 -75.6348 99.6094 -57.6172 99.6582 -35.2051 C 99.707 -12.8418 81.6406 5.17578 59.2285 5.17578 Z M 34.0332 -35.2539 C 34.0332 -33.8867 34.5703 -32.8125 35.6445 -31.7383 L 52.1973 -15.4297 C 53.0273 -14.6484 54.0039 -14.2578 55.1758 -14.2578 C 57.4707 -14.2578 59.1309 -15.9668 59.1309 -18.2617 C 59.1309 -19.4824 58.6426 -20.5566 57.8613 -21.2402 L 51.9043 -26.9043 L 46.4355 -31.3477 L 56.4453 -30.9082 L 80.2734 -30.9082 C 82.7637 -30.9082 84.5215 -32.7637 84.5215 -35.2539 C 84.5215 -37.793 82.7637 -39.6484 80.2734 -39.6484 L 56.4453 -39.6484 L 46.4844 -39.209 L 51.9531 -43.6035 L 57.8613 -49.2676 C 58.5938 -50 59.1309 -51.0742 59.1309 -52.2461 C 59.1309 -54.541 57.4707 -56.25 55.1758 -56.25 C 54.0039 -56.25 53.0273 -55.9082 52.1973 -55.0781 L 35.6445 -38.7207 C 34.5215 -37.6465 34.0332 -36.5723 34.0332 -35.2539 Z"/>
  </g>
  <g id="Regular-M" transform="matrix(1 0 0 1 1391.3 1126)">
   <path d="M 58.5449 14.5508 C 85.791 14.5508 108.35 -8.00781 108.35 -35.2539 C 108.35 -62.4512 85.7422 -85.0586 58.4961 -85.0586 C 31.2988 -85.0586 8.74023 -62.4512 8.74023 -35.2539 C 8.74023 -8.00781 31.3477 14.5508 58.5449 14.5508 Z M 58.5449 6.25 C 35.498 6.25 17.0898 -12.207 17.0898 -35.2539 C 17.0898 -58.252 35.4492 -76.7578 58.4961 -76.7578 C 81.543 -76.7578 100 -58.252 100.049 -35.2539 C 100.098 -12.207 81.5918 6.25 58.5449 6.25 Z M 33.4473 -35.3027 C 33.4473 -34.1797 33.8867 -33.3496 34.8145 -32.4219 L 51.3184 -15.8691 C 51.9531 -15.2344 52.832 -14.8438 53.8574 -14.8438 C 55.8594 -14.8438 57.373 -16.4551 57.373 -18.4082 C 57.373 -19.4824 56.9824 -20.3613 56.2988 -21.0449 L 50.1953 -27.0508 L 44.2871 -32.0312 L 54.6387 -31.6406 L 80.0781 -31.6406 C 82.2266 -31.6406 83.7402 -33.2031 83.7402 -35.3027 C 83.7402 -37.4023 82.1777 -38.9648 80.0781 -38.9648 L 54.6387 -38.9648 L 44.3359 -38.5742 L 50.1953 -43.5059 L 56.2988 -49.5605 C 56.9336 -50.1953 57.373 -51.0742 57.373 -52.1484 C 57.373 -54.1504 55.8594 -55.6641 53.8574 -55.6641 C 52.832 -55.6641 51.9531 -55.3223 51.3184 -54.6875 L 34.8145 -38.1348 C 33.8379 -37.1582 33.4473 -36.3281 33.4473 -35.3027 Z"/>
  </g>
  <g id="Light-M" transform="matrix(1 0 0 1 1095.42 1126)">
   <path d="M 57.7148 13.7695 C 84.5215 13.7695 106.689 -8.39844 106.689 -35.2051 C 106.689 -62.0117 84.5215 -84.1797 57.666 -84.1797 C 30.8594 -84.1797 8.74023 -62.0117 8.74023 -35.2051 C 8.74023 -8.39844 30.9082 13.7695 57.7148 13.7695 Z M 57.7148 7.4707 C 34.082 7.4707 15.0879 -11.5723 15.0879 -35.2051 C 15.0879 -58.8379 34.082 -77.832 57.666 -77.832 C 81.2988 -77.832 100.342 -58.8379 100.391 -35.2051 C 100.391 -11.5723 81.3477 7.4707 57.7148 7.4707 Z M 32.6172 -35.2539 C 32.6172 -34.4238 32.959 -33.7402 33.6426 -33.0566 L 51.0254 -15.6738 C 51.5625 -15.1855 52.1973 -14.8438 53.0273 -14.8438 C 54.5898 -14.8438 55.7617 -16.0645 55.7617 -17.5781 C 55.7617 -18.457 55.4199 -19.0918 54.8828 -19.6289 L 47.2168 -27.2461 L 41.1621 -32.7148 L 50.1953 -32.4219 L 80.0293 -32.4219 C 81.7383 -32.4219 82.9102 -33.5938 82.9102 -35.2539 C 82.9102 -36.9629 81.6895 -38.1348 80.0293 -38.1348 L 50.1953 -38.1348 L 41.1621 -37.793 L 47.2168 -43.2617 L 54.8828 -50.8789 C 55.4199 -51.416 55.7617 -52.0996 55.7617 -52.9297 C 55.7617 -54.4434 54.5898 -55.6641 53.0273 -55.6641 C 52.1973 -55.6641 51.5625 -55.3711 51.0254 -54.834 L 33.6426 -37.4023 C 32.9102 -36.6699 32.6172 -36.0352 32.6172 -35.2539 Z"/>
  </g>
  <g id="Thin-M" transform="matrix(1 0 0 1 799.806 1126)">
   <path d="M 56.6406 12.7441 C 82.9102 12.7441 104.492 -8.83789 104.492 -35.1562 C 104.492 -61.4746 82.9102 -83.0566 56.5918 -83.0566 C 30.3223 -83.0566 8.74023 -61.4746 8.74023 -35.1562 C 8.74023 -8.83789 30.3223 12.7441 56.6406 12.7441 Z M 56.6406 8.98438 C 32.2266 8.98438 12.4512 -10.791 12.4512 -35.1562 C 12.4512 -59.5215 32.2266 -79.2969 56.5918 -79.2969 C 81.0059 -79.2969 100.781 -59.5215 100.781 -35.1562 C 100.781 -10.791 81.0059 8.98438 56.6406 8.98438 Z M 31.4941 -35.2051 C 31.4941 -34.668 31.7383 -34.2773 32.0801 -33.9355 L 50.6836 -15.3809 C 51.0254 -15.0391 51.3672 -14.8438 51.9531 -14.8438 C 52.9297 -14.8438 53.5645 -15.5762 53.5645 -16.4551 C 53.5645 -17.041 53.3691 -17.4316 52.9297 -17.8223 L 43.2617 -27.4902 L 37.0605 -33.5938 L 44.3359 -33.3984 L 79.9805 -33.3984 C 81.1035 -33.3984 81.7871 -34.1797 81.7871 -35.1562 C 81.7871 -36.3281 81.0547 -37.0117 79.9805 -37.0117 L 44.3359 -37.0117 L 37.0117 -36.8164 L 43.2617 -42.9688 L 52.9297 -52.6367 C 53.3203 -53.0273 53.5645 -53.418 53.5645 -53.9551 C 53.5645 -54.8828 52.9297 -55.6152 51.9531 -55.6152 C 51.3672 -55.6152 51.0254 -55.3711 50.6836 -55.0293 L 32.0801 -36.5234 C 31.6895 -36.084 31.4941 -35.6445 31.4941 -35.2051 Z"/>
  </g>
  <g id="Ultralight-M" transform="matrix(1 0 0 1 503.656 1126)">
   <path d="M 56.0547 12.207 C 82.0801 12.207 103.369 -9.08203 103.369 -35.1562 C 103.369 -61.1816 82.0801 -82.4707 56.0547 -82.4707 C 30.0293 -82.4707 8.74023 -61.1816 8.74023 -35.1562 C 8.74023 -9.08203 30.0293 12.207 56.0547 12.207 Z M 56.0547 9.81445 C 31.2988 9.81445 11.1328 -10.3516 11.1328 -35.1562 C 11.1328 -59.9121 31.2988 -80.0781 56.0547 -80.0781 C 80.8594 -80.0781 100.977 -59.9121 100.977 -35.1562 C 100.977 -10.3516 80.8594 9.81445 56.0547 9.81445 Z M 30.957 -35.2051 C 30.957 -34.8145 31.1035 -34.5215 31.2988 -34.375 L 50.4883 -15.2344 C 50.7324 -14.9902 50.9766 -14.7949 51.3672 -14.7949 C 52.0508 -14.7949 52.4414 -15.2832 52.4414 -15.918 C 52.4414 -16.3086 52.2949 -16.5527 51.9531 -16.8457 L 41.2109 -27.5879 L 34.9121 -34.0332 L 41.3574 -33.9355 L 79.9805 -33.9355 C 80.7617 -33.9355 81.25 -34.4727 81.25 -35.1562 C 81.25 -35.9863 80.7129 -36.4746 79.9805 -36.4746 L 41.3574 -36.4746 L 34.8633 -36.2793 L 41.2109 -42.7734 L 51.9531 -53.5156 C 52.2949 -53.8574 52.4414 -54.0527 52.4414 -54.4922 C 52.4414 -55.0781 52.0508 -55.5664 51.3672 -55.5664 C 50.9766 -55.5664 50.7324 -55.3711 50.4883 -55.127 L 31.2988 -36.0352 C 31.0547 -35.791 30.957 -35.4492 30.957 -35.2051 Z"/>
  </g>
  <g id="Black-S" transform="matrix(1 0 0 1 2884.57 696)">
   <path d="M 48.8281 6.78711 C 71.9727 6.78711 90.8203 -12.0605 90.8203 -35.2051 C 90.8203 -58.3496 71.9727 -77.1973 48.8281 -77.1973 C 25.6836 -77.1973 6.83594 -58.3496 6.83594 -35.2051 C 6.83594 -12.0605 25.6836 6.78711 48.8281 6.78711 Z M 48.8281 -7.37305 C 33.4473 -7.37305 20.9961 -19.8242 20.9961 -35.2051 C 20.9961 -50.5859 33.4473 -63.0371 48.8281 -63.0371 C 64.209 -63.0371 76.6602 -50.5859 76.6602 -35.2051 C 76.6602 -19.8242 64.209 -7.37305 48.8281 -7.37305 Z M 28.6621 -35.1562 C 28.6621 -33.1055 29.3945 -31.4453 30.7617 -30.1758 L 43.9941 -18.1641 C 45.2637 -16.9922 46.2402 -16.6016 47.8027 -16.6016 C 50.4883 -16.6016 52.3438 -18.5547 52.3438 -21.4355 C 52.3438 -22.8516 51.709 -24.2676 50.6836 -25.0488 L 46.7285 -28.1738 L 43.8965 -29.7852 L 50.6348 -29.1992 L 63.623 -29.1992 C 66.7969 -29.1992 69.043 -31.8359 69.043 -35.1562 C 69.043 -38.4766 66.7969 -41.1133 63.623 -41.1133 L 50.6348 -41.1133 L 43.8965 -40.5273 L 46.9238 -42.1875 L 50.6836 -45.2637 C 51.6602 -46.0938 52.3438 -47.5098 52.3438 -48.877 C 52.3438 -51.7578 50.4883 -53.7109 47.8027 -53.7109 C 46.2402 -53.7109 45.2637 -53.3203 43.9941 -52.1484 L 30.7617 -40.1367 C 29.3945 -38.8672 28.6621 -37.207 28.6621 -35.1562 Z"/>
  </g>
  <g id="Heavy-S" transform="matrix(1 0 0 1 2588.47 696)">
   <path d="M 48.2422 6.15234 C 70.9961 6.15234 89.5996 -12.4512 89.5996 -35.2051 C 89.5996 -57.959 70.9961 -76.6113 48.1934 -76.6113 C 25.4395 -76.6113 6.83594 -57.959 6.83594 -35.2051 C 6.83594 -12.4512 25.4395 6.15234 48.2422 6.15234 Z M 48.2422 -6.39648 C 32.2754 -6.39648 19.4336 -19.2871 19.4336 -35.2051 C 19.4336 -51.1719 32.2754 -64.0137 48.1934 -64.0137 C 64.1602 -64.0137 77.002 -51.1719 77.0508 -35.2051 C 77.0508 -19.2871 64.1602 -6.39648 48.2422 -6.39648 Z M 28.1738 -35.2051 C 28.1738 -33.3984 28.8086 -31.9336 30.0781 -30.7617 L 43.1152 -18.6523 C 44.2383 -17.627 45.166 -17.2363 46.582 -17.2363 C 49.0234 -17.2363 50.7812 -19.043 50.7812 -21.6797 C 50.7812 -22.998 50.2441 -24.2676 49.3164 -25 L 45.3125 -28.3203 L 42.0898 -30.4199 L 49.2676 -29.8828 L 63.4277 -29.8828 C 66.2598 -29.8828 68.3105 -32.2266 68.3105 -35.2051 C 68.3105 -38.1836 66.2598 -40.5273 63.4277 -40.5273 L 49.2676 -40.5273 L 42.0898 -39.9902 L 45.459 -42.0898 L 49.3164 -45.4102 C 50.1953 -46.1426 50.7812 -47.4121 50.7812 -48.6816 C 50.7812 -51.3184 49.0234 -53.125 46.582 -53.125 C 45.166 -53.125 44.2383 -52.7832 43.1152 -51.7578 L 30.0781 -39.5996 C 28.8086 -38.4277 28.1738 -36.9629 28.1738 -35.2051 Z"/>
  </g>
  <g id="Bold-S" transform="matrix(1 0 0 1 2292.44 696)">
   <path d="M 47.5586 5.46875 C 69.873 5.46875 88.2324 -12.8906 88.2324 -35.2051 C 88.2324 -57.5684 69.873 -75.9277 47.5098 -75.9277 C 25.1953 -75.9277 6.83594 -57.5684 6.83594 -35.2051 C 6.83594 -12.8906 25.1953 5.46875 47.5586 5.46875 Z M 47.5586 -5.32227 C 30.957 -5.32227 17.6758 -18.6523 17.6758 -35.2051 C 17.6758 -51.8066 30.957 -65.1367 47.5098 -65.1367 C 64.1113 -65.1367 77.4414 -51.8066 77.4414 -35.2051 C 77.4414 -18.6523 64.1113 -5.32227 47.5586 -5.32227 Z M 27.6367 -35.2051 C 27.6367 -33.6914 28.2227 -32.5195 29.2969 -31.4453 L 42.1875 -19.1895 C 43.0664 -18.3105 43.9941 -17.9199 45.2148 -17.9199 C 47.4121 -17.9199 49.0234 -19.6289 49.0234 -21.9727 C 49.0234 -23.1445 48.584 -24.2188 47.7539 -24.9023 L 43.75 -28.4668 L 40.0391 -31.1035 L 47.7539 -30.6152 L 63.1836 -30.6152 C 65.7227 -30.6152 67.5293 -32.6172 67.5293 -35.2051 C 67.5293 -37.8418 65.7227 -39.8438 63.1836 -39.8438 L 47.7539 -39.8438 L 40.0879 -39.3555 L 43.8477 -41.9922 L 47.7539 -45.5566 C 48.5352 -46.2402 49.0234 -47.3633 49.0234 -48.4863 C 49.0234 -50.8301 47.4121 -52.4902 45.2148 -52.4902 C 43.9941 -52.4902 43.0664 -52.1484 42.1875 -51.2695 L 29.2969 -38.9648 C 28.1738 -37.8906 27.6367 -36.7188 27.6367 -35.2051 Z"/>
  </g>
  <g id="Semibold-S" transform="matrix(1 0 0 1 1996.2 696)">
   <path d="M 47.0703 4.98047 C 69.0918 4.98047 87.3047 -13.1836 87.3047 -35.2539 C 87.3047 -57.2754 69.0918 -75.4883 47.0215 -75.4883 C 25 -75.4883 6.83594 -57.2754 6.83594 -35.2539 C 6.83594 -13.1836 25.0488 4.98047 47.0703 4.98047 Z M 47.0703 -4.58984 C 30.0781 -4.58984 16.4551 -18.2129 16.4551 -35.2539 C 16.4551 -52.2461 30.0293 -65.8691 47.0215 -65.8691 C 64.0625 -65.8691 77.6855 -52.2461 77.7344 -35.2539 C 77.7344 -18.2129 64.0625 -4.58984 47.0703 -4.58984 Z M 27.2461 -35.2539 C 27.2461 -33.9355 27.7832 -32.9102 28.7598 -31.8848 L 41.5039 -19.5312 C 42.2852 -18.7988 43.1641 -18.4082 44.2383 -18.4082 C 46.3379 -18.4082 47.8516 -20.0195 47.8516 -22.168 C 47.8516 -23.2422 47.4121 -24.2188 46.6797 -24.8535 L 42.627 -28.5645 L 38.623 -31.543 L 46.7285 -31.1523 L 63.0371 -31.1523 C 65.332 -31.1523 66.9434 -32.9102 66.9434 -35.2539 C 66.9434 -37.5977 65.332 -39.3555 63.0371 -39.3555 L 46.7285 -39.3555 L 38.6719 -38.9648 L 42.7246 -41.9434 L 46.6797 -45.6543 C 47.3633 -46.2891 47.8516 -47.2656 47.8516 -48.3398 C 47.8516 -50.4883 46.3379 -52.0508 44.2383 -52.0508 C 43.1641 -52.0508 42.2852 -51.709 41.5039 -50.9766 L 28.7598 -38.5742 C 27.7344 -37.5488 27.2461 -36.5234 27.2461 -35.2539 Z"/>
  </g>
  <g id="Medium-S" transform="matrix(1 0 0 1 1699.83 696)">
   <path d="M 46.7285 4.63867 C 68.5547 4.63867 86.6211 -13.4277 86.6211 -35.2539 C 86.6211 -57.0312 68.5059 -75.1465 46.6797 -75.1465 C 24.8535 -75.1465 6.83594 -57.0312 6.83594 -35.2539 C 6.83594 -13.4277 24.9023 4.63867 46.7285 4.63867 Z M 46.7285 -4.00391 C 29.3945 -4.00391 15.5273 -17.9199 15.5273 -35.2539 C 15.5273 -52.5879 29.3457 -66.4551 46.6797 -66.4551 C 64.0137 -66.4551 77.8809 -52.5879 77.9297 -35.2539 C 77.9785 -17.9199 64.0625 -4.00391 46.7285 -4.00391 Z M 26.9531 -35.2539 C 26.9531 -34.082 27.4414 -33.1543 28.3691 -32.2754 L 41.0156 -19.8242 C 41.6992 -19.1406 42.5293 -18.7988 43.5547 -18.7988 C 45.459 -18.7988 46.9238 -20.3125 46.9238 -22.2656 C 46.9238 -23.3398 46.5332 -24.2188 45.8496 -24.8535 L 41.8457 -28.6133 L 37.5977 -31.9336 L 45.9473 -31.543 L 62.8906 -31.543 C 64.9902 -31.543 66.5527 -33.1543 66.5527 -35.2539 C 66.5527 -37.4023 64.9902 -39.0137 62.8906 -39.0137 L 45.9473 -39.0137 L 37.5977 -38.623 L 41.8457 -41.8945 L 45.8496 -45.7031 C 46.4844 -46.3379 46.9238 -47.2168 46.9238 -48.2422 C 46.9238 -50.2441 45.459 -51.709 43.5547 -51.709 C 42.5293 -51.709 41.6992 -51.416 41.0156 -50.7324 L 28.3691 -38.2324 C 27.3926 -37.3047 26.9531 -36.4258 26.9531 -35.2539 Z"/>
  </g>
  <g id="Regular-S" transform="matrix(1 0 0 1 1403.58 696)">
   <path d="M 46.2402 4.15039 C 67.7734 4.15039 85.6934 -13.7207 85.6934 -35.2539 C 85.6934 -56.7871 67.7246 -74.6582 46.1914 -74.6582 C 24.707 -74.6582 6.83594 -56.7871 6.83594 -35.2539 C 6.83594 -13.7207 24.7559 4.15039 46.2402 4.15039 Z M 46.2402 -3.27148 C 28.5156 -3.27148 14.3555 -17.4805 14.3555 -35.2539 C 14.3555 -53.0273 28.4668 -67.2363 46.1914 -67.2363 C 63.9648 -67.2363 78.1738 -53.0273 78.2227 -35.2539 C 78.2715 -17.4805 64.0137 -3.27148 46.2402 -3.27148 Z M 26.5625 -35.3027 C 26.5625 -34.3262 27.002 -33.5449 27.832 -32.7148 L 40.332 -20.166 C 40.918 -19.6289 41.6992 -19.2871 42.5781 -19.2871 C 44.3848 -19.2871 45.752 -20.7031 45.752 -22.4609 C 45.752 -23.4375 45.4102 -24.2188 44.7754 -24.8047 L 40.7715 -28.7598 L 36.1816 -32.373 L 44.9219 -32.0312 L 62.7441 -32.0312 C 64.5996 -32.0312 65.9668 -33.3984 65.9668 -35.3027 C 65.9668 -37.1582 64.5996 -38.5254 62.7441 -38.5254 L 44.9219 -38.5254 L 36.2305 -38.2324 L 40.7715 -41.7969 L 44.7754 -45.8008 C 45.3613 -46.3867 45.752 -47.168 45.752 -48.0957 C 45.752 -49.9023 44.3848 -51.2695 42.5781 -51.2695 C 41.6992 -51.2695 40.918 -50.9766 40.332 -50.3906 L 27.832 -37.8418 C 26.9531 -36.9629 26.5625 -36.2305 26.5625 -35.3027 Z"/>
  </g>
  <g id="Light-S" transform="matrix(1 0 0 1 1107.6 696)">
   <path d="M 45.5078 3.4668 C 66.6992 3.4668 84.2285 -14.0625 84.2285 -35.2051 C 84.2285 -56.3965 66.6504 -73.9258 45.5078 -73.9258 C 24.3164 -73.9258 6.83594 -56.3965 6.83594 -35.2051 C 6.83594 -14.0625 24.3652 3.4668 45.5078 3.4668 Z M 45.5078 -2.24609 C 27.2461 -2.24609 12.5977 -16.9434 12.5977 -35.2051 C 12.5977 -53.5156 27.1973 -68.2129 45.5078 -68.2129 C 63.7695 -68.2129 78.4668 -53.5156 78.5156 -35.2051 C 78.5156 -16.9434 63.8184 -2.24609 45.5078 -2.24609 Z M 25.8301 -35.2539 C 25.8301 -34.5215 26.1719 -33.8867 26.8066 -33.3008 L 40.0879 -19.9707 C 40.5273 -19.5312 41.1621 -19.2871 41.8457 -19.2871 C 43.2617 -19.2871 44.2871 -20.3613 44.2871 -21.7285 C 44.2871 -22.4609 43.9941 -23.0957 43.5059 -23.5352 L 38.0859 -28.9062 L 33.4473 -32.959 L 41.0156 -32.7148 L 62.6953 -32.7148 C 64.209 -32.7148 65.2344 -33.7891 65.2344 -35.2539 C 65.2344 -36.7676 64.1602 -37.793 62.6953 -37.793 L 41.0156 -37.793 L 33.4473 -37.5488 L 38.0859 -41.6016 L 43.5059 -46.9727 C 43.9941 -47.4609 44.2871 -48.0469 44.2871 -48.8281 C 44.2871 -50.1953 43.2617 -51.2207 41.8457 -51.2207 C 41.1621 -51.2207 40.5273 -50.9766 40.0879 -50.5371 L 26.8066 -37.207 C 26.123 -36.5234 25.8301 -35.9863 25.8301 -35.2539 Z"/>
  </g>
  <g id="Thin-S" transform="matrix(1 0 0 1 811.867 696)">
   <path d="M 44.5801 2.53906 C 65.2832 2.53906 82.2754 -14.4531 82.2754 -35.2051 C 82.2754 -55.9082 65.2344 -72.9004 44.5312 -72.9004 C 23.8281 -72.9004 6.83594 -55.9082 6.83594 -35.2051 C 6.83594 -14.4531 23.877 2.53906 44.5801 2.53906 Z M 44.5801 -0.878906 C 25.5859 -0.878906 10.2539 -16.2109 10.2539 -35.2051 C 10.2539 -54.1504 25.5859 -69.4824 44.5312 -69.4824 C 63.5254 -69.4824 78.8574 -54.1504 78.8574 -35.2051 C 78.8574 -16.2109 63.5254 -0.878906 44.5801 -0.878906 Z M 24.9023 -35.2539 C 24.9023 -34.7656 25.0977 -34.375 25.4395 -34.0332 L 39.7461 -19.7266 C 40.0391 -19.4336 40.4297 -19.2383 40.918 -19.2383 C 41.748 -19.2383 42.3828 -19.9219 42.3828 -20.752 C 42.3828 -21.2402 42.1875 -21.582 41.8457 -21.9238 L 34.6191 -29.1016 L 29.7852 -33.7891 L 35.8398 -33.5938 L 62.6953 -33.5938 C 63.623 -33.5938 64.3066 -34.2773 64.3066 -35.2051 C 64.3066 -36.1816 63.623 -36.8652 62.6953 -36.8652 L 35.8398 -36.8652 L 29.7852 -36.6699 L 34.6191 -41.3574 L 41.8457 -48.5352 C 42.1875 -48.877 42.3828 -49.2188 42.3828 -49.707 C 42.3828 -50.5371 41.748 -51.2207 40.918 -51.2207 C 40.4297 -51.2207 40.0391 -51.0254 39.7461 -50.7324 L 25.4395 -36.4258 C 25.0488 -36.0352 24.9023 -35.6445 24.9023 -35.2539 Z"/>
  </g>
  <g id="Ultralight-S" transform="matrix(1 0 0 1 515.644 696)">
   <path d="M 44.043 2.05078 C 64.502 2.05078 81.2988 -14.6973 81.2988 -35.1562 C 81.2988 -55.6152 64.502 -72.3633 44.043 -72.3633 C 23.584 -72.3633 6.83594 -55.6152 6.83594 -35.1562 C 6.83594 -14.6973 23.584 2.05078 44.043 2.05078 Z M 44.043 -0.146484 C 24.7559 -0.146484 9.08203 -15.8691 9.08203 -35.1562 C 9.08203 -54.4434 24.7559 -70.166 44.043 -70.166 C 63.3789 -70.166 79.0527 -54.4434 79.0527 -35.1562 C 79.0527 -15.8691 63.3789 -0.146484 44.043 -0.146484 Z M 24.3652 -35.2051 C 24.3652 -34.8633 24.5605 -34.6191 24.707 -34.4238 L 39.5996 -19.6289 C 39.7949 -19.3848 40.0391 -19.2383 40.3809 -19.2383 C 41.0156 -19.2383 41.4062 -19.6777 41.4062 -20.2148 C 41.4062 -20.6055 41.2109 -20.8496 40.9668 -21.0938 L 32.8125 -29.1992 L 27.9297 -34.1797 L 33.1543 -34.082 L 62.6465 -34.082 C 63.3301 -34.082 63.7695 -34.5703 63.7695 -35.1562 C 63.7695 -35.8887 63.2812 -36.3281 62.6465 -36.3281 L 33.1543 -36.3281 L 27.8809 -36.1816 L 32.8125 -41.2109 L 40.9668 -49.3164 C 41.2109 -49.6094 41.4062 -49.8047 41.4062 -50.1953 C 41.4062 -50.7324 41.0156 -51.1719 40.3809 -51.1719 C 40.0391 -51.1719 39.7949 -51.0254 39.5996 -50.8301 L 24.707 -35.9863 C 24.5117 -35.7422 24.3652 -35.4492 24.3652 -35.2051 Z"/>
  </g>
 </g>
</svg>
