<?xml version="1.0" encoding="UTF-8"?>
<!--Generator: Apple Native CoreSVG 123-->
<!DOCTYPE svg
PUBLIC "-//W3C//DTD SVG 1.1//EN"
       "http://www.w3.org/Graphics/SVG/1.1/DTD/svg11.dtd">
<svg version="1.1" xmlns="http://www.w3.org/2000/svg" xmlns:xlink="http://www.w3.org/1999/xlink" width="3300" height="2200">
 <!--glyph: "uni10007B.medium", point size: 100.000000, font version: "Version 15.0d7e11", template writer version: "5"-->
 <g id="Notes">
  <rect height="2200" id="artboard" style="fill:white;opacity:1" width="3300" x="0" y="0"/>
  <line id="" style="fill:none;stroke:black;opacity:1;stroke-width:0.5;" x1="263" x2="3036" y1="292" y2="292"/>
  <text style="stroke:none;fill:black;font-family:-apple-system,&quot;SF Pro Display&quot;,&quot;SF Pro Text&quot;,Helvetica,sans-serif;font-weight:bold;" transform="matrix(1 0 0 1 263 322)">Weight/Scale Variations</text>
  <text style="stroke:none;fill:black;font-family:-apple-system,&quot;SF Pro Display&quot;,&quot;SF Pro Text&quot;,Helvetica,sans-serif;text-anchor:middle;" transform="matrix(1 0 0 1 559.711 322)">Ultralight</text>
  <text style="stroke:none;fill:black;font-family:-apple-system,&quot;SF Pro Display&quot;,&quot;SF Pro Text&quot;,Helvetica,sans-serif;text-anchor:middle;" transform="matrix(1 0 0 1 856.422 322)">Thin</text>
  <text style="stroke:none;fill:black;font-family:-apple-system,&quot;SF Pro Display&quot;,&quot;SF Pro Text&quot;,Helvetica,sans-serif;text-anchor:middle;" transform="matrix(1 0 0 1 1153.13 322)">Light</text>
  <text style="stroke:none;fill:black;font-family:-apple-system,&quot;SF Pro Display&quot;,&quot;SF Pro Text&quot;,Helvetica,sans-serif;text-anchor:middle;" transform="matrix(1 0 0 1 1449.84 322)">Regular</text>
  <text style="stroke:none;fill:black;font-family:-apple-system,&quot;SF Pro Display&quot;,&quot;SF Pro Text&quot;,Helvetica,sans-serif;text-anchor:middle;" transform="matrix(1 0 0 1 1746.56 322)">Medium</text>
  <text style="stroke:none;fill:black;font-family:-apple-system,&quot;SF Pro Display&quot;,&quot;SF Pro Text&quot;,Helvetica,sans-serif;text-anchor:middle;" transform="matrix(1 0 0 1 2043.27 322)">Semibold</text>
  <text style="stroke:none;fill:black;font-family:-apple-system,&quot;SF Pro Display&quot;,&quot;SF Pro Text&quot;,Helvetica,sans-serif;text-anchor:middle;" transform="matrix(1 0 0 1 2339.98 322)">Bold</text>
  <text style="stroke:none;fill:black;font-family:-apple-system,&quot;SF Pro Display&quot;,&quot;SF Pro Text&quot;,Helvetica,sans-serif;text-anchor:middle;" transform="matrix(1 0 0 1 2636.69 322)">Heavy</text>
  <text style="stroke:none;fill:black;font-family:-apple-system,&quot;SF Pro Display&quot;,&quot;SF Pro Text&quot;,Helvetica,sans-serif;text-anchor:middle;" transform="matrix(1 0 0 1 2933.4 322)">Black</text>
  <line id="" style="fill:none;stroke:black;opacity:1;stroke-width:0.5;" x1="263" x2="3036" y1="1903" y2="1903"/>
  <g id="" transform="matrix(1 0 0 1 263 1933)">
   <path d="M 9.24805 0.830078 C 13.5547 0.830078 17.1387 -2.74414 17.1387 -7.05078 C 17.1387 -11.3574 13.5449 -14.9316 9.23828 -14.9316 C 4.94141 -14.9316 1.36719 -11.3574 1.36719 -7.05078 C 1.36719 -2.74414 4.95117 0.830078 9.24805 0.830078 Z M 9.24805 -0.654297 C 5.70312 -0.654297 2.87109 -3.49609 2.87109 -7.05078 C 2.87109 -10.6055 5.69336 -13.4473 9.23828 -13.4473 C 12.793 -13.4473 15.6348 -10.6055 15.6445 -7.05078 C 15.6543 -3.49609 12.8027 -0.654297 9.24805 -0.654297 Z M 9.22852 -3.42773 C 9.69727 -3.42773 9.9707 -3.74023 9.9707 -4.25781 L 9.9707 -6.31836 L 12.1973 -6.31836 C 12.6953 -6.31836 13.0371 -6.57227 13.0371 -7.04102 C 13.0371 -7.51953 12.7148 -7.7832 12.1973 -7.7832 L 9.9707 -7.7832 L 9.9707 -10.0098 C 9.9707 -10.5273 9.69727 -10.8496 9.22852 -10.8496 C 8.75977 -10.8496 8.50586 -10.5078 8.50586 -10.0098 L 8.50586 -7.7832 L 6.29883 -7.7832 C 5.78125 -7.7832 5.44922 -7.51953 5.44922 -7.04102 C 5.44922 -6.57227 5.80078 -6.31836 6.29883 -6.31836 L 8.50586 -6.31836 L 8.50586 -4.25781 C 8.50586 -3.75977 8.75977 -3.42773 9.22852 -3.42773 Z"/>
  </g>
  <g id="" transform="matrix(1 0 0 1 281.506 1933)">
   <path d="M 11.709 2.91016 C 17.1582 2.91016 21.6699 -1.60156 21.6699 -7.05078 C 21.6699 -12.4902 17.1484 -17.0117 11.6992 -17.0117 C 6.25977 -17.0117 1.74805 -12.4902 1.74805 -7.05078 C 1.74805 -1.60156 6.26953 2.91016 11.709 2.91016 Z M 11.709 1.25 C 7.09961 1.25 3.41797 -2.44141 3.41797 -7.05078 C 3.41797 -11.6504 7.08984 -15.3516 11.6992 -15.3516 C 16.3086 -15.3516 20 -11.6504 20.0098 -7.05078 C 20.0195 -2.44141 16.3184 1.25 11.709 1.25 Z M 11.6895 -2.41211 C 12.207 -2.41211 12.5195 -2.77344 12.5195 -3.33984 L 12.5195 -6.23047 L 15.5762 -6.23047 C 16.123 -6.23047 16.5039 -6.51367 16.5039 -7.03125 C 16.5039 -7.55859 16.1426 -7.86133 15.5762 -7.86133 L 12.5195 -7.86133 L 12.5195 -10.9277 C 12.5195 -11.5039 12.207 -11.8555 11.6895 -11.8555 C 11.1719 -11.8555 10.8789 -11.4844 10.8789 -10.9277 L 10.8789 -7.86133 L 7.83203 -7.86133 C 7.26562 -7.86133 6.89453 -7.55859 6.89453 -7.03125 C 6.89453 -6.51367 7.28516 -6.23047 7.83203 -6.23047 L 10.8789 -6.23047 L 10.8789 -3.33984 C 10.8789 -2.79297 11.1719 -2.41211 11.6895 -2.41211 Z"/>
  </g>
  <g id="" transform="matrix(1 0 0 1 304.924 1933)">
   <path d="M 14.9707 5.67383 C 21.9336 5.67383 27.6953 -0.078125 27.6953 -7.04102 C 27.6953 -14.0039 21.9238 -19.7559 14.9609 -19.7559 C 8.00781 -19.7559 2.25586 -14.0039 2.25586 -7.04102 C 2.25586 -0.078125 8.01758 5.67383 14.9707 5.67383 Z M 14.9707 3.85742 C 8.93555 3.85742 4.08203 -1.00586 4.08203 -7.04102 C 4.08203 -13.0762 8.92578 -17.9395 14.9609 -17.9395 C 21.0059 -17.9395 25.8594 -13.0762 25.8691 -7.04102 C 25.8789 -1.00586 21.0156 3.85742 14.9707 3.85742 Z M 14.9512 -1.06445 C 15.5176 -1.06445 15.8691 -1.45508 15.8691 -2.06055 L 15.8691 -6.13281 L 20.1074 -6.13281 C 20.6934 -6.13281 21.1133 -6.46484 21.1133 -7.02148 C 21.1133 -7.59766 20.7227 -7.93945 20.1074 -7.93945 L 15.8691 -7.93945 L 15.8691 -12.1875 C 15.8691 -12.8027 15.5176 -13.1934 14.9512 -13.1934 C 14.3848 -13.1934 14.0625 -12.7832 14.0625 -12.1875 L 14.0625 -7.93945 L 9.83398 -7.93945 C 9.21875 -7.93945 8.80859 -7.59766 8.80859 -7.02148 C 8.80859 -6.46484 9.23828 -6.13281 9.83398 -6.13281 L 14.0625 -6.13281 L 14.0625 -2.06055 C 14.0625 -1.47461 14.3848 -1.06445 14.9512 -1.06445 Z"/>
  </g>
  <text style="stroke:none;fill:black;font-family:-apple-system,&quot;SF Pro Display&quot;,&quot;SF Pro Text&quot;,Helvetica,sans-serif;font-weight:bold;" transform="matrix(1 0 0 1 263 1953)">Design Variations</text>
  <text style="stroke:none;fill:black;font-family:-apple-system,&quot;SF Pro Display&quot;,&quot;SF Pro Text&quot;,Helvetica,sans-serif;" transform="matrix(1 0 0 1 263 1971)">Symbols are supported in up to nine weights and three scales.</text>
  <text style="stroke:none;fill:black;font-family:-apple-system,&quot;SF Pro Display&quot;,&quot;SF Pro Text&quot;,Helvetica,sans-serif;" transform="matrix(1 0 0 1 263 1989)">For optimal layout with text and other symbols, vertically align</text>
  <text style="stroke:none;fill:black;font-family:-apple-system,&quot;SF Pro Display&quot;,&quot;SF Pro Text&quot;,Helvetica,sans-serif;" transform="matrix(1 0 0 1 263 2007)">symbols with the adjacent text.</text>
  <rect height="14" id="" style="fill:#00AEEF;stroke:none;opacity:0.4;" width="3" x="776" y="1919"/>
  <g id="" transform="matrix(1 0 0 1 779 1933)">
   <path d="M 10.5273 0 L 12.373 0 L 7.17773 -14.0918 L 5.43945 -14.0918 L 0.244141 0 L 2.08984 0 L 3.50586 -4.0332 L 9.11133 -4.0332 Z M 6.2793 -11.9531 L 6.33789 -11.9531 L 8.59375 -5.52734 L 4.02344 -5.52734 Z"/>
  </g>
  <rect height="14" id="" style="fill:#00AEEF;stroke:none;opacity:0.4;" width="3" x="791.617" y="1919"/>
  <text style="stroke:none;fill:black;font-family:-apple-system,&quot;SF Pro Display&quot;,&quot;SF Pro Text&quot;,Helvetica,sans-serif;font-weight:bold;" transform="matrix(1 0 0 1 776 1953)">Margins</text>
  <text style="stroke:none;fill:black;font-family:-apple-system,&quot;SF Pro Display&quot;,&quot;SF Pro Text&quot;,Helvetica,sans-serif;" transform="matrix(1 0 0 1 776 1971)">Leading and trailing margins on the left and right side of each symbol</text>
  <text style="stroke:none;fill:black;font-family:-apple-system,&quot;SF Pro Display&quot;,&quot;SF Pro Text&quot;,Helvetica,sans-serif;" transform="matrix(1 0 0 1 776 1989)">can be adjusted by modifying the width of the blue rectangles.</text>
  <text style="stroke:none;fill:black;font-family:-apple-system,&quot;SF Pro Display&quot;,&quot;SF Pro Text&quot;,Helvetica,sans-serif;" transform="matrix(1 0 0 1 776 2007)">Modifications are automatically applied proportionally to all</text>
  <text style="stroke:none;fill:black;font-family:-apple-system,&quot;SF Pro Display&quot;,&quot;SF Pro Text&quot;,Helvetica,sans-serif;" transform="matrix(1 0 0 1 776 2025)">scales and weights.</text>
  <g id="" transform="matrix(1 0 0 1 1289 1933)">
   <path d="M 2.83203 3.11523 L 4.375 4.6582 C 5.22461 5.48828 6.19141 5.41992 7.06055 4.46289 L 17.2754 -6.66016 C 17.7051 -6.36719 18.0957 -6.37695 18.5645 -6.47461 L 19.6094 -6.68945 L 20.3027 -5.99609 L 20.2539 -5.47852 C 20.1855 -4.95117 20.3516 -4.53125 20.8496 -4.0332 L 21.6602 -3.22266 C 22.168 -2.71484 22.8223 -2.68555 23.3008 -3.16406 L 26.5527 -6.41602 C 27.0312 -6.89453 27.0117 -7.54883 26.5039 -8.05664 L 25.6836 -8.87695 C 25.1855 -9.375 24.7754 -9.55078 24.2383 -9.47266 L 23.7109 -9.41406 L 23.0566 -10.0781 L 23.3398 -11.2207 C 23.4863 -11.7871 23.3398 -12.2559 22.7148 -12.8613 L 20.3027 -15.2539 C 16.7578 -18.7793 12.2266 -18.6719 9.11133 -15.5371 C 8.69141 -15.1074 8.64258 -14.5215 8.91602 -14.0918 C 9.15039 -13.7207 9.62891 -13.4961 10.2734 -13.6621 C 11.7871 -14.043 13.3008 -13.9258 14.7852 -12.9199 L 14.1602 -11.3379 C 13.9258 -10.752 13.9453 -10.2734 14.1797 -9.83398 L 3.01758 0.439453 C 2.08008 1.30859 1.97266 2.25586 2.83203 3.11523 Z M 10.6738 -15.1465 C 13.3398 -17.1387 16.6504 -16.8262 19.0527 -14.4141 L 21.6797 -11.8066 C 21.9141 -11.5723 21.9434 -11.3867 21.8848 -11.0938 L 21.5039 -9.53125 L 23.0762 -7.95898 L 24.043 -8.04688 C 24.3262 -8.07617 24.4141 -8.05664 24.6387 -7.83203 L 25.2637 -7.20703 L 22.5098 -4.46289 L 21.8848 -5.07812 C 21.6602 -5.30273 21.6406 -5.40039 21.6699 -5.68359 L 21.7578 -6.64062 L 20.1953 -8.20312 L 18.5742 -7.89062 C 18.291 -7.83203 18.1445 -7.83203 17.9102 -8.07617 L 15.7324 -10.2539 C 15.5078 -10.4883 15.4785 -10.625 15.6055 -10.9473 L 16.5527 -13.2227 C 14.9512 -14.7559 12.8418 -15.6055 10.8008 -14.9512 C 10.7129 -14.9219 10.6445 -14.9414 10.6152 -14.9805 C 10.5859 -15.0293 10.5859 -15.0781 10.6738 -15.1465 Z M 4.10156 2.41211 C 3.61328 1.91406 3.78906 1.61133 4.12109 1.30859 L 15.0781 -8.80859 L 16.3086 -7.57812 L 6.15234 3.34961 C 5.84961 3.68164 5.46875 3.7793 5.06836 3.37891 Z"/>
  </g>
  <text style="stroke:none;fill:black;font-family:-apple-system,&quot;SF Pro Display&quot;,&quot;SF Pro Text&quot;,Helvetica,sans-serif;font-weight:bold;" transform="matrix(1 0 0 1 1289 1953)">Exporting</text>
  <text style="stroke:none;fill:black;font-family:-apple-system,&quot;SF Pro Display&quot;,&quot;SF Pro Text&quot;,Helvetica,sans-serif;" transform="matrix(1 0 0 1 1289 1971)">Symbols should be outlined when exporting to ensure the</text>
  <text style="stroke:none;fill:black;font-family:-apple-system,&quot;SF Pro Display&quot;,&quot;SF Pro Text&quot;,Helvetica,sans-serif;" transform="matrix(1 0 0 1 1289 1989)">design is preserved when submitting to Xcode.</text>
  <text id="template-version" style="stroke:none;fill:black;font-family:-apple-system,&quot;SF Pro Display&quot;,&quot;SF Pro Text&quot;,Helvetica,sans-serif;text-anchor:end;" transform="matrix(1 0 0 1 3036 1933)">Template v.1.0</text>
  <text style="stroke:none;fill:black;font-family:-apple-system,&quot;SF Pro Display&quot;,&quot;SF Pro Text&quot;,Helvetica,sans-serif;text-anchor:end;" transform="matrix(1 0 0 1 3036 1951)">Generated from arrow.left.circle.fill</text>
  <text style="stroke:none;fill:black;font-family:-apple-system,&quot;SF Pro Display&quot;,&quot;SF Pro Text&quot;,Helvetica,sans-serif;text-anchor:end;" transform="matrix(1 0 0 1 3036 1969)">Typeset at 100 points</text>
  <text style="stroke:none;fill:black;font-family:-apple-system,&quot;SF Pro Display&quot;,&quot;SF Pro Text&quot;,Helvetica,sans-serif;" transform="matrix(1 0 0 1 263 726)">Small</text>
  <text style="stroke:none;fill:black;font-family:-apple-system,&quot;SF Pro Display&quot;,&quot;SF Pro Text&quot;,Helvetica,sans-serif;" transform="matrix(1 0 0 1 263 1156)">Medium</text>
  <text style="stroke:none;fill:black;font-family:-apple-system,&quot;SF Pro Display&quot;,&quot;SF Pro Text&quot;,Helvetica,sans-serif;" transform="matrix(1 0 0 1 263 1586)">Large</text>
 </g>
 <g id="Guides">
  <g id="H-reference" style="fill:#27AAE1;stroke:none;" transform="matrix(1 0 0 1 339 696)">
   <path d="M 54.9316 0 L 57.666 0 L 30.5664 -70.459 L 28.0762 -70.459 L 0.976562 0 L 3.66211 0 L 12.9395 -24.4629 L 45.7031 -24.4629 Z M 29.1992 -67.0898 L 29.4434 -67.0898 L 44.8242 -26.709 L 13.8184 -26.709 Z"/>
  </g>
  <line id="Baseline-S" style="fill:none;stroke:#27AAE1;opacity:1;stroke-width:0.577;" x1="263" x2="3036" y1="696" y2="696"/>
  <line id="Capline-S" style="fill:none;stroke:#27AAE1;opacity:1;stroke-width:0.577;" x1="263" x2="3036" y1="625.541" y2="625.541"/>
  <g id="H-reference" style="fill:#27AAE1;stroke:none;" transform="matrix(1 0 0 1 339 1126)">
   <path d="M 54.9316 0 L 57.666 0 L 30.5664 -70.459 L 28.0762 -70.459 L 0.976562 0 L 3.66211 0 L 12.9395 -24.4629 L 45.7031 -24.4629 Z M 29.1992 -67.0898 L 29.4434 -67.0898 L 44.8242 -26.709 L 13.8184 -26.709 Z"/>
  </g>
  <line id="Baseline-M" style="fill:none;stroke:#27AAE1;opacity:1;stroke-width:0.577;" x1="263" x2="3036" y1="1126" y2="1126"/>
  <line id="Capline-M" style="fill:none;stroke:#27AAE1;opacity:1;stroke-width:0.577;" x1="263" x2="3036" y1="1055.54" y2="1055.54"/>
  <g id="H-reference" style="fill:#27AAE1;stroke:none;" transform="matrix(1 0 0 1 339 1556)">
   <path d="M 54.9316 0 L 57.666 0 L 30.5664 -70.459 L 28.0762 -70.459 L 0.976562 0 L 3.66211 0 L 12.9395 -24.4629 L 45.7031 -24.4629 Z M 29.1992 -67.0898 L 29.4434 -67.0898 L 44.8242 -26.709 L 13.8184 -26.709 Z"/>
  </g>
  <line id="Baseline-L" style="fill:none;stroke:#27AAE1;opacity:1;stroke-width:0.577;" x1="263" x2="3036" y1="1556" y2="1556"/>
  <line id="Capline-L" style="fill:none;stroke:#27AAE1;opacity:1;stroke-width:0.577;" x1="263" x2="3036" y1="1485.54" y2="1485.54"/>
  <rect height="119.336" id="left-margin" style="fill:#00AEEF;stroke:none;opacity:0.4;" width="8.74023" x="1391.3" y="1030.79"/>
  <rect height="119.336" id="right-margin" style="fill:#00AEEF;stroke:none;opacity:0.4;" width="8.74023" x="1499.65" y="1030.79"/>
 </g>
 <g id="Symbols">
  <g id="Black-L" transform="matrix(1 0 0 1 2854.05 1556)">
   <path d="M 79.3457 32.8613 C 116.748 32.8613 147.412 2.19727 147.412 -35.2051 C 147.412 -72.6074 116.748 -103.271 79.2969 -103.271 C 41.8945 -103.271 11.2793 -72.6074 11.2793 -35.2051 C 11.2793 2.19727 41.9434 32.8613 79.3457 32.8613 Z M 43.75 -35.1562 C 43.75 -38.2324 44.8242 -40.7715 47.0215 -42.8223 L 70.1172 -64.3555 C 72.0703 -66.1133 73.6816 -66.7969 76.123 -66.7969 C 80.5176 -66.7969 83.5938 -63.623 83.5938 -59.0332 C 83.5938 -56.8359 82.5195 -54.5898 80.957 -53.2227 L 74.2188 -47.4121 L 68.1152 -43.5059 L 81.2012 -44.4336 L 106.445 -44.4336 C 111.475 -44.4336 115.039 -40.332 115.039 -35.1562 C 115.039 -30.0293 111.475 -25.9277 106.445 -25.9277 L 81.2012 -25.9277 L 68.0664 -26.9043 L 74.0234 -22.998 L 80.957 -17.0898 C 82.5684 -15.8203 83.5938 -13.5742 83.5938 -11.3281 C 83.5938 -6.73828 80.5176 -3.51562 76.123 -3.51562 C 73.6816 -3.51562 72.0703 -4.24805 70.1172 -6.00586 L 47.0215 -27.5391 C 44.873 -29.541 43.75 -32.0801 43.75 -35.1562 Z"/>
  </g>
  <g id="Heavy-L" transform="matrix(1 0 0 1 2558.39 1556)">
   <path d="M 78.2715 31.7871 C 115.088 31.7871 145.312 1.61133 145.312 -35.2051 C 145.312 -72.0215 115.039 -102.197 78.2715 -102.197 C 41.4551 -102.197 11.2793 -72.0215 11.2793 -35.2051 C 11.2793 1.61133 41.5039 31.7871 78.2715 31.7871 Z M 42.5293 -35.2051 C 42.5293 -37.8418 43.5059 -40.0391 45.459 -41.8945 L 68.8965 -64.1113 C 70.6055 -65.6738 72.0215 -66.2598 74.2188 -66.2598 C 78.1738 -66.2598 81.0059 -63.4277 81.0059 -59.3262 C 81.0059 -57.3242 80.0293 -55.3223 78.6621 -54.1016 L 71.1426 -47.3145 L 64.4043 -42.5293 L 77.6855 -43.3594 L 106.445 -43.3594 C 110.938 -43.3594 114.062 -39.7949 114.111 -35.2051 C 114.111 -30.6152 110.938 -27.0508 106.445 -27.0508 L 77.6855 -27.0508 L 64.4043 -27.8809 L 70.9473 -23.1445 L 78.6621 -16.3086 C 80.0781 -15.1367 81.0059 -13.1348 81.0059 -11.084 C 81.0059 -6.98242 78.1738 -4.10156 74.2188 -4.10156 C 72.0215 -4.10156 70.6055 -4.78516 68.8965 -6.29883 L 45.459 -28.5156 C 43.5547 -30.3223 42.5293 -32.5195 42.5293 -35.2051 Z"/>
  </g>
  <g id="Bold-L" transform="matrix(1 0 0 1 2262.88 1556)">
   <path d="M 77.0996 30.6152 C 113.232 30.6152 142.92 0.878906 142.92 -35.2051 C 142.92 -71.3379 113.184 -101.025 77.0508 -101.025 C 40.9668 -101.025 11.2793 -71.3379 11.2793 -35.2051 C 11.2793 0.878906 41.0156 30.6152 77.0996 30.6152 Z M 41.2109 -35.2539 C 41.2109 -37.4023 41.9922 -39.209 43.7012 -40.8203 L 67.5293 -63.8672 C 68.8965 -65.1367 70.2148 -65.7227 72.1191 -65.7227 C 75.5859 -65.7227 78.0762 -63.1836 78.0762 -59.6191 C 78.0762 -57.8613 77.2461 -56.1523 76.0742 -55.0781 L 67.6758 -47.168 L 60.3027 -41.4551 L 73.7305 -42.1875 L 106.445 -42.1875 C 110.352 -42.1875 113.037 -39.1602 113.037 -35.2051 C 113.037 -31.2988 110.352 -28.2715 106.445 -28.2715 L 73.7305 -28.2715 L 60.3027 -29.0039 L 67.5293 -23.291 L 76.0742 -15.3809 C 77.2949 -14.3555 78.0762 -12.6465 78.0762 -10.8398 C 78.0762 -7.27539 75.5859 -4.73633 72.1191 -4.73633 C 70.2148 -4.73633 68.8965 -5.32227 67.5293 -6.5918 L 43.7012 -29.5898 C 42.041 -31.1523 41.2109 -33.0078 41.2109 -35.2539 Z"/>
  </g>
  <g id="Semibold-L" transform="matrix(1 0 0 1 1966.97 1556)">
   <path d="M 76.2695 29.7852 C 111.914 29.7852 141.309 0.439453 141.309 -35.2051 C 141.309 -70.8496 111.865 -100.244 76.2695 -100.244 C 40.625 -100.244 11.2793 -70.8496 11.2793 -35.2051 C 11.2793 0.439453 40.6738 29.7852 76.2695 29.7852 Z M 40.2832 -35.2539 C 40.2832 -37.1094 40.9668 -38.623 42.4805 -40.1367 L 66.5527 -63.6719 C 67.7246 -64.7949 68.9941 -65.2832 70.6543 -65.2832 C 73.7793 -65.2832 76.0742 -62.9883 76.0742 -59.8145 C 76.0742 -58.2031 75.293 -56.7383 74.2676 -55.7617 L 65.2344 -47.0703 L 57.4707 -40.6738 L 71.0449 -41.3574 L 106.445 -41.3574 C 109.912 -41.3574 112.305 -38.7207 112.305 -35.2539 C 112.354 -31.7871 109.961 -29.1504 106.445 -29.1504 L 71.0449 -29.1504 L 57.4707 -29.7852 L 65.1855 -23.3887 L 74.2676 -14.7461 C 75.3418 -13.7695 76.0742 -12.3047 76.0742 -10.6934 C 76.0742 -7.51953 73.7793 -5.17578 70.6543 -5.17578 C 68.9941 -5.17578 67.7246 -5.76172 66.5527 -6.83594 L 42.4805 -30.3223 C 41.0156 -31.7383 40.2832 -33.3496 40.2832 -35.2539 Z"/>
  </g>
  <g id="Medium-L" transform="matrix(1 0 0 1 1670.87 1556)">
   <path d="M 75.6836 29.1992 C 110.938 29.1992 140.088 0.0488281 140.088 -35.2051 C 140.088 -70.459 110.889 -99.6094 75.6348 -99.6094 C 40.3809 -99.6094 11.2793 -70.459 11.2793 -35.2051 C 11.2793 0.0488281 40.3809 29.1992 75.6836 29.1992 Z M 39.5996 -35.2539 C 39.5996 -36.8652 40.1855 -38.2324 41.5527 -39.5996 L 65.8203 -63.5254 C 66.8457 -64.5508 68.0176 -64.9902 69.5312 -64.9902 C 72.4121 -64.9902 74.5605 -62.8906 74.5605 -60.0098 C 74.5605 -58.4961 73.8281 -57.1777 72.9004 -56.2988 L 63.4277 -47.0215 L 55.3223 -40.1367 L 68.9941 -40.7227 L 106.494 -40.7227 C 109.619 -40.7227 111.768 -38.4277 111.768 -35.2539 C 111.816 -32.1289 109.619 -29.7852 106.494 -29.7852 L 68.9941 -29.7852 L 55.3223 -30.3711 L 63.3789 -23.4863 L 72.9004 -14.2578 C 73.877 -13.3789 74.5605 -12.0605 74.5605 -10.5469 C 74.5605 -7.66602 72.4121 -5.51758 69.5312 -5.51758 C 68.0176 -5.51758 66.8457 -6.05469 65.8203 -7.03125 L 41.5527 -30.9082 C 40.2344 -32.2266 39.5996 -33.5938 39.5996 -35.2539 Z"/>
  </g>
  <g id="Regular-L" transform="matrix(1 0 0 1 1374.97 1556)">
   <path d="M 74.8535 28.3691 C 109.668 28.3691 138.477 -0.390625 138.477 -35.2051 C 138.477 -70.0195 109.619 -98.7793 74.8047 -98.7793 C 40.0391 -98.7793 11.2793 -70.0195 11.2793 -35.2051 C 11.2793 -0.390625 40.0879 28.3691 74.8535 28.3691 Z M 38.6719 -35.3027 C 38.6719 -36.5723 39.1602 -37.6465 40.3809 -38.8672 L 64.8926 -63.3301 C 65.7227 -64.209 66.7969 -64.5996 68.0664 -64.5996 C 70.6543 -64.5996 72.5586 -62.7441 72.5586 -60.2051 C 72.5586 -58.8379 71.9238 -57.7637 71.1426 -56.9336 L 61.084 -46.9238 L 52.4902 -39.4043 L 66.3086 -39.9414 L 106.494 -39.9414 C 109.18 -39.9414 111.035 -37.9883 111.084 -35.2539 C 111.084 -32.6172 109.229 -30.6641 106.494 -30.6641 L 66.3086 -30.6641 L 52.4902 -31.1523 L 61.084 -23.6328 L 71.1426 -13.623 C 71.9727 -12.8418 72.5586 -11.7188 72.5586 -10.3516 C 72.5586 -7.86133 70.6543 -5.9082 68.0664 -5.9082 C 66.7969 -5.9082 65.7227 -6.44531 64.8926 -7.22656 L 40.3809 -31.6406 C 39.209 -32.8125 38.6719 -33.9355 38.6719 -35.3027 Z"/>
  </g>
  <g id="Light-L" transform="matrix(1 0 0 1 1079.18 1556)">
   <path d="M 73.9258 27.4902 C 108.301 27.4902 136.621 -0.830078 136.621 -35.1562 C 136.621 -69.5312 108.252 -97.8516 73.9258 -97.8516 C 39.5508 -97.8516 11.2793 -69.5312 11.2793 -35.1562 C 11.2793 -0.830078 39.5996 27.4902 73.9258 27.4902 Z M 38.5254 -35.2539 C 38.5254 -36.1816 38.916 -37.0605 39.7949 -37.9395 L 64.7949 -62.9395 C 65.4785 -63.623 66.2598 -63.916 67.2852 -63.916 C 69.2383 -63.916 70.6543 -62.5 70.6543 -60.5957 C 70.6543 -59.5215 70.166 -58.7402 69.5312 -58.0566 L 57.8125 -46.3867 L 49.2188 -38.3789 L 61.1816 -38.8184 L 105.811 -38.8184 C 107.91 -38.8184 109.277 -37.3535 109.326 -35.2051 C 109.375 -33.2031 107.959 -31.6895 105.811 -31.6895 L 61.1816 -31.6895 L 49.2676 -32.0801 L 57.8125 -24.0723 L 69.5312 -12.4512 C 70.2148 -11.7676 70.6543 -10.9863 70.6543 -9.91211 C 70.6543 -8.00781 69.2383 -6.54297 67.2852 -6.54297 C 66.2598 -6.54297 65.4785 -6.93359 64.7949 -7.56836 L 39.7949 -32.5195 C 38.9648 -33.3496 38.5254 -34.2285 38.5254 -35.2539 Z"/>
  </g>
  <g id="Thin-L" transform="matrix(1 0 0 1 783.693 1556)">
   <path d="M 72.7051 26.3184 C 106.494 26.3184 134.18 -1.36719 134.18 -35.1074 C 134.18 -68.8965 106.494 -96.582 72.7051 -96.582 C 38.9648 -96.582 11.2793 -68.8965 11.2793 -35.1074 C 11.2793 -1.36719 38.9648 26.3184 72.7051 26.3184 Z M 38.3301 -35.2051 C 38.3301 -35.6445 38.5742 -36.2793 39.0137 -36.7188 L 64.6973 -62.3535 C 65.1855 -62.8418 65.5762 -63.0371 66.2598 -63.0371 C 67.4316 -63.0371 68.1641 -62.207 68.1641 -61.1328 C 68.1641 -60.4492 67.8711 -60.0098 67.4316 -59.5703 L 53.5156 -45.6543 L 44.9219 -37.0605 L 54.3945 -37.3535 L 104.883 -37.3535 C 106.152 -37.3535 106.934 -36.5234 107.031 -35.1074 C 107.08 -33.9355 106.25 -33.0566 104.883 -33.0566 L 54.3945 -33.0566 L 44.9707 -33.252 L 53.5156 -24.707 L 67.4316 -10.8398 C 67.8711 -10.4004 68.1641 -9.96094 68.1641 -9.27734 C 68.1641 -8.20312 67.4316 -7.37305 66.2598 -7.37305 C 65.5762 -7.37305 65.1855 -7.56836 64.6973 -8.05664 L 39.0137 -33.6914 C 38.623 -34.0332 38.3301 -34.6191 38.3301 -35.2051 Z"/>
  </g>
  <g id="Ultralight-L" transform="matrix(1 0 0 1 487.616 1556)">
   <path d="M 72.1191 25.7324 C 105.566 25.7324 132.91 -1.61133 132.91 -35.1074 C 132.91 -68.5547 105.566 -95.8984 72.1191 -95.8984 C 38.623 -95.8984 11.2793 -68.5547 11.2793 -35.1074 C 11.2793 -1.61133 38.623 25.7324 72.1191 25.7324 Z M 38.2324 -35.1562 C 38.2324 -35.4004 38.3789 -35.8887 38.5742 -36.084 L 64.6484 -62.0605 C 64.9902 -62.4023 65.2344 -62.5488 65.7227 -62.5488 C 66.4551 -62.5488 66.8945 -62.0605 66.8945 -61.377 C 66.8945 -60.8887 66.6992 -60.6934 66.3086 -60.3516 L 51.3184 -45.3125 L 42.6758 -36.377 L 50.9277 -36.5723 L 104.443 -36.5723 C 105.273 -36.5723 105.762 -36.1328 105.859 -35.1074 C 105.957 -34.3262 105.371 -33.7402 104.443 -33.7402 L 50.9277 -33.7402 L 42.7734 -33.8867 L 51.3184 -25.0488 L 66.3086 -10.0098 C 66.6504 -9.66797 66.8945 -9.47266 66.8945 -8.98438 C 66.8945 -8.30078 66.4551 -7.8125 65.7227 -7.8125 C 65.2344 -7.8125 64.9902 -7.91016 64.6484 -8.30078 L 38.5742 -34.2773 C 38.4766 -34.4238 38.2324 -34.8145 38.2324 -35.1562 Z"/>
  </g>
  <g id="Black-M" transform="matrix(1 0 0 1 2870.97 1126)">
   <path d="M 62.4023 18.457 C 91.9922 18.457 116.113 -5.61523 116.113 -35.2051 C 116.113 -64.7949 91.9922 -88.8672 62.4023 -88.8672 C 32.8125 -88.8672 8.74023 -64.7949 8.74023 -35.2051 C 8.74023 -5.61523 32.8125 18.457 62.4023 18.457 Z M 35.4004 -35.1074 C 35.4004 -37.8906 36.4258 -40.1855 38.2324 -41.8457 L 56.0059 -57.9102 C 57.7637 -59.4727 58.9844 -60.0098 61.1328 -60.0098 C 64.7949 -60.0098 67.2852 -57.4219 67.2852 -53.5156 C 67.2852 -51.709 66.4062 -49.7559 65.0391 -48.6328 L 59.9609 -44.5312 L 56.0059 -42.4316 L 64.9414 -43.1641 L 82.1289 -43.1641 C 86.377 -43.1641 89.502 -39.5996 89.502 -35.1074 C 89.502 -30.6641 86.377 -27.0996 82.1289 -27.0996 L 64.9414 -27.0996 L 56.0059 -27.8809 L 59.7168 -25.7812 L 65.0391 -21.6309 C 66.4062 -20.6055 67.2852 -18.6523 67.2852 -16.748 C 67.2852 -12.8418 64.7949 -10.2539 61.1328 -10.2539 C 58.9844 -10.2539 57.7637 -10.791 56.0059 -12.3535 L 38.2324 -28.418 C 36.4258 -30.0781 35.4004 -32.373 35.4004 -35.1074 Z"/>
  </g>
  <g id="Heavy-M" transform="matrix(1 0 0 1 2575.19 1126)">
   <path d="M 61.5234 17.5781 C 90.5273 17.5781 114.258 -6.15234 114.258 -35.2051 C 114.258 -64.2578 90.5273 -87.9883 61.4746 -87.9883 C 32.4707 -87.9883 8.74023 -64.2578 8.74023 -35.2051 C 8.74023 -6.15234 32.4707 17.5781 61.5234 17.5781 Z M 34.1309 -35.1562 C 34.1309 -37.5488 35.0098 -39.5508 36.6699 -41.1133 L 54.6387 -57.7637 C 56.2012 -59.1309 57.373 -59.6191 59.2773 -59.6191 C 62.5977 -59.6191 64.9414 -57.2266 64.9414 -53.7109 C 64.9414 -52.0508 64.1113 -50.293 62.8906 -49.2676 L 57.4219 -44.5312 L 52.832 -41.6016 L 62.4023 -42.334 L 82.3242 -42.334 C 86.1328 -42.334 88.916 -39.1602 88.916 -35.1562 C 88.916 -31.2012 86.1816 -28.0273 82.3242 -28.0273 L 62.4023 -28.0273 L 52.832 -28.7598 L 57.2266 -25.8301 L 62.8906 -21.0449 C 64.1602 -20.0684 64.9414 -18.3594 64.9414 -16.6504 C 64.9414 -13.1348 62.5977 -10.6934 59.2773 -10.6934 C 57.373 -10.6934 56.2012 -11.2305 54.6387 -12.5977 L 36.6699 -29.248 C 35.0586 -30.7617 34.1309 -32.7637 34.1309 -35.1562 Z"/>
  </g>
  <g id="Bold-M" transform="matrix(1 0 0 1 2279.5 1126)">
   <path d="M 60.498 16.5039 C 88.8672 16.5039 112.207 -6.78711 112.207 -35.2051 C 112.207 -63.623 88.8672 -86.9629 60.4492 -86.9629 C 32.0312 -86.9629 8.74023 -63.623 8.74023 -35.2051 C 8.74023 -6.78711 32.0801 16.5039 60.498 16.5039 Z M 32.7637 -35.2051 C 32.7637 -37.207 33.4473 -38.8184 34.9121 -40.2344 L 53.1738 -57.5684 C 54.3945 -58.7402 55.5176 -59.2285 57.1777 -59.2285 C 60.1562 -59.2285 62.3047 -57.0312 62.3047 -53.9551 C 62.3047 -52.4414 61.5723 -50.9277 60.5469 -50 L 54.5898 -44.5801 L 49.2676 -40.7227 L 59.6191 -41.3574 L 82.5195 -41.3574 C 85.8887 -41.3574 88.2812 -38.6719 88.2812 -35.2051 C 88.2812 -31.7871 85.8887 -29.1016 82.5195 -29.1016 L 59.6191 -29.1016 L 49.2676 -29.7363 L 54.4434 -25.8789 L 60.5469 -20.4102 C 61.6211 -19.5312 62.3047 -18.0176 62.3047 -16.5039 C 62.3047 -13.3789 60.1562 -11.1816 57.1777 -11.1816 C 55.5176 -11.1816 54.3945 -11.7188 53.1738 -12.8418 L 34.9121 -30.1758 C 33.4961 -31.543 32.7637 -33.2031 32.7637 -35.2051 Z"/>
  </g>
  <g id="Semibold-M" transform="matrix(1 0 0 1 1983.5 1126)">
   <path d="M 59.7656 15.8203 C 87.7441 15.8203 110.791 -7.22656 110.791 -35.2051 C 110.791 -63.1836 87.6953 -86.2793 59.7656 -86.2793 C 31.7871 -86.2793 8.74023 -63.1836 8.74023 -35.2051 C 8.74023 -7.22656 31.7871 15.8203 59.7656 15.8203 Z M 31.7871 -35.2539 C 31.7871 -36.9141 32.373 -38.3301 33.7402 -39.5996 L 52.0996 -57.4707 C 53.1738 -58.4961 54.248 -58.8867 55.7617 -58.8867 C 58.4473 -58.8867 60.498 -56.8848 60.498 -54.1016 C 60.498 -52.6855 59.8145 -51.3672 58.8867 -50.5371 L 52.6367 -44.5801 L 46.8262 -40.0879 L 57.666 -40.6738 L 82.666 -40.6738 C 85.6934 -40.6738 87.8418 -38.3301 87.8418 -35.2539 C 87.8418 -32.1777 85.6934 -29.834 82.666 -29.834 L 57.666 -29.834 L 46.8262 -30.4199 L 52.5391 -25.8789 L 58.8867 -19.9707 C 59.8633 -19.1406 60.498 -17.8223 60.498 -16.4062 C 60.498 -13.5742 58.4473 -11.5723 55.7617 -11.5723 C 54.248 -11.5723 53.1738 -12.0605 52.0996 -13.0371 L 33.7402 -30.8105 C 32.4219 -32.0801 31.7871 -33.4961 31.7871 -35.2539 Z"/>
  </g>
  <g id="Medium-M" transform="matrix(1 0 0 1 1687.3 1126)">
   <path d="M 59.2285 15.2832 C 86.9141 15.2832 109.766 -7.56836 109.766 -35.2051 C 109.766 -62.8906 86.8652 -85.7422 59.1797 -85.7422 C 31.543 -85.7422 8.74023 -62.8906 8.74023 -35.2051 C 8.74023 -7.56836 31.5918 15.2832 59.2285 15.2832 Z M 31.0547 -35.2539 C 31.0547 -36.7188 31.543 -37.9395 32.8125 -39.1602 L 51.3184 -57.373 C 52.2949 -58.252 53.3203 -58.6914 54.6387 -58.6914 C 57.1777 -58.6914 59.1309 -56.7871 59.1309 -54.1992 C 59.1309 -52.8809 58.4961 -51.709 57.666 -50.9277 L 51.123 -44.5801 L 44.9707 -39.6484 L 56.2012 -40.1367 L 82.7637 -40.1367 C 85.5469 -40.1367 87.5 -38.0859 87.5 -35.2539 C 87.5 -32.4707 85.5469 -30.3711 82.7637 -30.3711 L 56.2012 -30.3711 L 44.9707 -30.9082 L 51.0742 -25.9277 L 57.666 -19.6289 C 58.5449 -18.8477 59.1309 -17.6758 59.1309 -16.3086 C 59.1309 -13.7207 57.1777 -11.8164 54.6387 -11.8164 C 53.3203 -11.8164 52.2949 -12.3047 51.3184 -13.1348 L 32.8125 -31.3477 C 31.5918 -32.5195 31.0547 -33.7402 31.0547 -35.2539 Z"/>
  </g>
  <g id="Regular-M" transform="matrix(1 0 0 1 1391.3 1126)">
   <path d="M 58.5449 14.5508 C 85.791 14.5508 108.35 -8.00781 108.35 -35.2539 C 108.35 -62.4512 85.7422 -85.0586 58.4961 -85.0586 C 31.2988 -85.0586 8.74023 -62.4512 8.74023 -35.2539 C 8.74023 -8.00781 31.3477 14.5508 58.5449 14.5508 Z M 30.0781 -35.3027 C 30.0781 -36.4746 30.4688 -37.4512 31.6406 -38.5742 L 50.3418 -57.2754 C 51.0742 -58.0078 52.0508 -58.3984 53.2227 -58.3984 C 55.5176 -58.3984 57.3242 -56.6406 57.3242 -54.3457 C 57.3242 -53.1738 56.7383 -52.0996 56.0547 -51.416 L 49.1699 -44.5801 L 42.5781 -39.0137 L 54.2969 -39.502 L 82.9102 -39.502 C 85.3516 -39.502 87.0605 -37.7441 87.0605 -35.3027 C 87.0605 -32.8613 85.4004 -31.1035 82.9102 -31.1035 L 54.2969 -31.1035 L 42.5293 -31.543 L 49.1699 -25.9277 L 56.0547 -19.1895 C 56.7871 -18.457 57.3242 -17.4316 57.3242 -16.2109 C 57.3242 -13.916 55.5176 -12.1582 53.2227 -12.1582 C 52.0508 -12.1582 51.0742 -12.6465 50.3418 -13.3301 L 31.6406 -31.9824 C 30.5664 -33.0566 30.0781 -34.0332 30.0781 -35.3027 Z"/>
  </g>
  <g id="Light-M" transform="matrix(1 0 0 1 1095.42 1126)">
   <path d="M 57.7148 13.7695 C 84.5215 13.7695 106.689 -8.39844 106.689 -35.2051 C 106.689 -62.0117 84.5215 -84.1797 57.666 -84.1797 C 30.8594 -84.1797 8.74023 -62.0117 8.74023 -35.2051 C 8.74023 -8.39844 30.9082 13.7695 57.7148 13.7695 Z M 29.9316 -35.2539 C 29.9316 -36.1328 30.2734 -36.9141 31.1035 -37.7441 L 50.2441 -56.8848 C 50.8301 -57.4707 51.5625 -57.7637 52.4902 -57.7637 C 54.2969 -57.7637 55.6152 -56.4453 55.6152 -54.7363 C 55.6152 -53.7598 55.1758 -52.9785 54.5898 -52.4414 L 46.2402 -44.0918 L 39.5996 -38.1348 L 49.707 -38.5254 L 82.2754 -38.5254 C 84.1797 -38.5254 85.4492 -37.1582 85.498 -35.2539 C 85.5469 -33.3984 84.2285 -32.0312 82.2754 -32.0312 L 49.707 -32.0312 L 39.5996 -32.373 L 46.2402 -26.3672 L 54.5898 -18.1152 C 55.2246 -17.5293 55.6152 -16.748 55.6152 -15.8203 C 55.6152 -14.0625 54.2969 -12.7441 52.4902 -12.7441 C 51.5625 -12.7441 50.8301 -13.0859 50.2441 -13.623 L 31.1035 -32.7637 C 30.3223 -33.4961 29.9316 -34.3262 29.9316 -35.2539 Z"/>
  </g>
  <g id="Thin-M" transform="matrix(1 0 0 1 799.806 1126)">
   <path d="M 56.6406 12.7441 C 82.9102 12.7441 104.492 -8.83789 104.492 -35.1562 C 104.492 -61.4746 82.9102 -83.0566 56.5918 -83.0566 C 30.3223 -83.0566 8.74023 -61.4746 8.74023 -35.1562 C 8.74023 -8.83789 30.3223 12.7441 56.6406 12.7441 Z M 29.7852 -35.2051 C 29.7852 -35.6445 29.9316 -36.2305 30.3711 -36.6699 L 50.1465 -56.3965 C 50.5859 -56.7871 50.9766 -56.9336 51.5625 -56.9336 C 52.6367 -56.9336 53.3691 -56.2012 53.3691 -55.1758 C 53.3691 -54.5898 53.0762 -54.1504 52.6855 -53.7598 L 42.3828 -43.457 L 35.7422 -36.9629 L 43.6523 -37.207 L 81.4941 -37.207 C 82.6172 -37.207 83.3984 -36.4258 83.4473 -35.1562 C 83.4961 -34.082 82.7148 -33.252 81.4941 -33.252 L 43.6523 -33.252 L 35.791 -33.4473 L 42.3828 -26.9531 L 52.6855 -16.6504 C 53.125 -16.2598 53.3691 -15.8691 53.3691 -15.2832 C 53.3691 -14.2578 52.6367 -13.4766 51.5625 -13.4766 C 50.9766 -13.4766 50.5859 -13.6719 50.1465 -14.0625 L 30.3711 -33.7891 C 30.0293 -34.1309 29.7852 -34.668 29.7852 -35.2051 Z"/>
  </g>
  <g id="Ultralight-M" transform="matrix(1 0 0 1 503.656 1126)">
   <path d="M 56.0547 12.207 C 82.0801 12.207 103.369 -9.08203 103.369 -35.1562 C 103.369 -61.1816 82.0801 -82.4707 56.0547 -82.4707 C 30.0293 -82.4707 8.74023 -61.1816 8.74023 -35.1562 C 8.74023 -9.08203 30.0293 12.207 56.0547 12.207 Z M 29.6875 -35.2051 C 29.6875 -35.4492 29.7852 -35.8398 30.0293 -36.084 L 50.0977 -56.1035 C 50.4395 -56.4453 50.6348 -56.543 51.0742 -56.543 C 51.8066 -56.543 52.1973 -56.0547 52.1973 -55.4199 C 52.1973 -54.9805 52.0508 -54.7363 51.709 -54.4434 L 40.4297 -43.1641 L 33.7402 -36.3281 L 40.5273 -36.5234 L 81.0547 -36.5234 C 81.8359 -36.5234 82.3242 -36.0352 82.373 -35.1562 C 82.4707 -34.4238 81.8848 -33.8867 81.0547 -33.8867 L 40.5273 -33.8867 L 33.8379 -33.9844 L 40.4297 -27.2461 L 51.709 -15.9668 C 52.0508 -15.625 52.1973 -15.3809 52.1973 -14.9902 C 52.1973 -14.3066 51.8066 -13.8672 51.0742 -13.8672 C 50.6348 -13.8672 50.4395 -13.9648 50.0977 -14.2578 L 30.0293 -34.3262 C 29.834 -34.4727 29.6875 -34.8633 29.6875 -35.2051 Z"/>
  </g>
  <g id="Black-S" transform="matrix(1 0 0 1 2884.57 696)">
   <path d="M 48.8281 6.78711 C 71.9727 6.78711 90.8203 -12.0605 90.8203 -35.2051 C 90.8203 -58.3496 71.9727 -77.1973 48.8281 -77.1973 C 25.6836 -77.1973 6.83594 -58.3496 6.83594 -35.2051 C 6.83594 -12.0605 25.6836 6.78711 48.8281 6.78711 Z M 27.6367 -35.1562 C 27.6367 -37.3047 28.418 -39.0625 29.834 -40.3809 L 43.75 -52.9785 C 45.1172 -54.1992 46.0938 -54.6387 47.7539 -54.6387 C 50.5859 -54.6387 52.5391 -52.5879 52.5391 -49.5605 C 52.5391 -48.1445 51.8555 -46.6309 50.7812 -45.752 L 46.8262 -42.5293 L 43.6523 -40.8203 L 50.7324 -41.4062 L 64.3555 -41.4062 C 67.6758 -41.4062 70.0684 -38.623 70.0684 -35.1562 C 70.0684 -31.6895 67.6758 -28.9062 64.3555 -28.9062 L 50.7324 -28.9062 L 43.6523 -29.541 L 46.6309 -27.832 L 50.7812 -24.5605 C 51.8555 -23.7305 52.5391 -22.2168 52.5391 -20.752 C 52.5391 -17.7246 50.5859 -15.6738 47.7539 -15.6738 C 46.0938 -15.6738 45.1172 -16.1133 43.75 -17.334 L 29.834 -29.9316 C 28.418 -31.25 27.6367 -33.0078 27.6367 -35.1562 Z"/>
  </g>
  <g id="Heavy-S" transform="matrix(1 0 0 1 2588.47 696)">
   <path d="M 48.2422 6.15234 C 70.9961 6.15234 89.5996 -12.4512 89.5996 -35.2051 C 89.5996 -57.959 70.9961 -76.6113 48.1934 -76.6113 C 25.4395 -76.6113 6.83594 -57.959 6.83594 -35.2051 C 6.83594 -12.4512 25.4395 6.15234 48.2422 6.15234 Z M 26.709 -35.2051 C 26.709 -37.0605 27.3926 -38.623 28.7109 -39.8926 L 42.7246 -52.9297 C 43.9453 -54.0039 44.873 -54.3945 46.3867 -54.3945 C 49.0723 -54.3945 50.9277 -52.4902 50.9277 -49.6582 C 50.9277 -48.3398 50.293 -46.9727 49.3164 -46.1426 L 45.2148 -42.5781 L 41.5527 -40.2832 L 49.3164 -40.8691 L 64.5508 -40.8691 C 67.627 -40.8691 69.8242 -38.3301 69.8242 -35.2051 C 69.8242 -32.0312 67.627 -29.541 64.5508 -29.541 L 49.3164 -29.541 L 41.5527 -30.127 L 45.0684 -27.832 L 49.3164 -24.2188 C 50.293 -23.4375 50.9277 -22.0703 50.9277 -20.7031 C 50.9277 -17.9199 49.0723 -15.9668 46.3867 -15.9668 C 44.873 -15.9668 43.9453 -16.4062 42.7246 -17.4805 L 28.7109 -30.4688 C 27.3926 -31.7383 26.709 -33.3008 26.709 -35.2051 Z"/>
  </g>
  <g id="Bold-S" transform="matrix(1 0 0 1 2292.44 696)">
   <path d="M 47.5586 5.46875 C 69.873 5.46875 88.2324 -12.8906 88.2324 -35.2051 C 88.2324 -57.5684 69.873 -75.9277 47.5098 -75.9277 C 25.1953 -75.9277 6.83594 -57.5684 6.83594 -35.2051 C 6.83594 -12.8906 25.1953 5.46875 47.5586 5.46875 Z M 25.6348 -35.2051 C 25.6348 -36.8164 26.2207 -38.1348 27.4414 -39.3066 L 41.6016 -52.832 C 42.627 -53.7598 43.5547 -54.1504 44.873 -54.1504 C 47.3633 -54.1504 49.1211 -52.3438 49.1211 -49.8047 C 49.1211 -48.5352 48.5352 -47.3145 47.7051 -46.582 L 43.3594 -42.6758 L 39.209 -39.7461 L 47.7539 -40.2344 L 64.7949 -40.2344 C 67.5781 -40.2344 69.5312 -38.0371 69.5312 -35.2051 C 69.5312 -32.4219 67.5781 -30.2246 64.7949 -30.2246 L 47.7539 -30.2246 L 39.1602 -30.7617 L 43.2617 -27.7832 L 47.7051 -23.877 C 48.5352 -23.1445 49.1211 -21.9238 49.1211 -20.6543 C 49.1211 -18.1152 47.3633 -16.2598 44.873 -16.2598 C 43.5547 -16.2598 42.627 -16.6992 41.6016 -17.627 L 27.4414 -31.1035 C 26.2207 -32.2754 25.6348 -33.5938 25.6348 -35.2051 Z"/>
  </g>
  <g id="Semibold-S" transform="matrix(1 0 0 1 1996.2 696)">
   <path d="M 47.0703 4.98047 C 69.0918 4.98047 87.3047 -13.1836 87.3047 -35.2539 C 87.3047 -57.2754 69.0918 -75.4883 47.0215 -75.4883 C 25 -75.4883 6.83594 -57.2754 6.83594 -35.2539 C 6.83594 -13.1836 25.0488 4.98047 47.0703 4.98047 Z M 24.9023 -35.2539 C 24.9023 -36.6699 25.3906 -37.793 26.5625 -38.916 L 40.8203 -52.7832 C 41.6992 -53.6133 42.627 -53.9551 43.8477 -53.9551 C 46.1426 -53.9551 47.9004 -52.2461 47.9004 -49.9023 C 47.9004 -48.7305 47.3145 -47.6074 46.582 -46.875 L 42.1387 -42.7246 L 37.5977 -39.3066 L 46.6309 -39.7949 L 64.9414 -39.7949 C 67.5293 -39.7949 69.2871 -37.8418 69.2871 -35.2539 C 69.2871 -32.666 67.5293 -30.7129 64.9414 -30.7129 L 46.6309 -30.7129 L 37.5488 -31.2012 L 42.041 -27.7832 L 46.582 -23.6328 C 47.3633 -22.9492 47.9004 -21.8262 47.9004 -20.6055 C 47.9004 -18.2617 46.1426 -16.5039 43.8477 -16.5039 C 42.627 -16.5039 41.6992 -16.9434 40.8203 -17.7246 L 26.5625 -31.543 C 25.4395 -32.6172 24.9023 -33.7891 24.9023 -35.2539 Z"/>
  </g>
  <g id="Medium-S" transform="matrix(1 0 0 1 1699.83 696)">
   <path d="M 46.7285 4.63867 C 68.5547 4.63867 86.6211 -13.4277 86.6211 -35.2539 C 86.6211 -57.0312 68.5059 -75.1465 46.6797 -75.1465 C 24.8535 -75.1465 6.83594 -57.0312 6.83594 -35.2539 C 6.83594 -13.4277 24.9023 4.63867 46.7285 4.63867 Z M 24.3164 -35.2539 C 24.3164 -36.5234 24.8047 -37.5488 25.8789 -38.623 L 40.2344 -52.7344 C 41.0156 -53.4668 41.8945 -53.8574 43.0664 -53.8574 C 45.2637 -53.8574 46.9727 -52.1973 46.9727 -49.9512 C 46.9727 -48.8281 46.3867 -47.8027 45.7031 -47.1191 L 41.1621 -42.7246 L 36.377 -39.0137 L 45.8008 -39.502 L 65.0879 -39.502 C 67.4805 -39.502 69.1406 -37.6465 69.1406 -35.2539 C 69.1406 -32.8613 67.4805 -31.0547 65.0879 -31.0547 L 45.8008 -31.0547 L 36.3281 -31.543 L 41.1133 -27.7832 L 45.7031 -23.4375 C 46.4355 -22.7539 46.9727 -21.7285 46.9727 -20.5566 C 46.9727 -18.3594 45.2637 -16.6504 43.0664 -16.6504 C 41.8945 -16.6504 41.0156 -17.0898 40.2344 -17.8223 L 25.8789 -31.8848 C 24.8047 -32.9102 24.3164 -33.9844 24.3164 -35.2539 Z"/>
  </g>
  <g id="Regular-S" transform="matrix(1 0 0 1 1403.58 696)">
   <path d="M 46.2402 4.15039 C 67.7734 4.15039 85.6934 -13.7207 85.6934 -35.2539 C 85.6934 -56.7871 67.7246 -74.6582 46.1914 -74.6582 C 24.707 -74.6582 6.83594 -56.7871 6.83594 -35.2539 C 6.83594 -13.7207 24.7559 4.15039 46.2402 4.15039 Z M 23.6328 -35.3027 C 23.6328 -36.377 23.9746 -37.207 25 -38.2324 L 39.4531 -52.6855 C 40.0879 -53.3203 41.0156 -53.6621 42.041 -53.6621 C 44.0918 -53.6621 45.752 -52.0996 45.752 -50.0488 C 45.752 -48.9746 45.2148 -48.0469 44.5801 -47.4121 L 39.9414 -42.7734 L 34.7656 -38.623 L 44.7266 -39.0625 L 65.2344 -39.0625 C 67.4316 -39.0625 68.9453 -37.4512 68.9453 -35.3027 C 68.9453 -33.1543 67.4316 -31.543 65.2344 -31.543 L 44.7266 -31.543 L 34.7168 -31.9824 L 39.9414 -27.7344 L 44.5801 -23.1934 C 45.2637 -22.5586 45.752 -21.6309 45.752 -20.5566 C 45.752 -18.457 44.0918 -16.8945 42.041 -16.8945 C 41.0156 -16.8945 40.0879 -17.2852 39.4531 -17.9199 L 25 -32.2754 C 24.0234 -33.3008 23.6328 -34.1797 23.6328 -35.3027 Z"/>
  </g>
  <g id="Light-S" transform="matrix(1 0 0 1 1107.6 696)">
   <path d="M 45.5078 3.4668 C 66.6992 3.4668 84.2285 -14.0625 84.2285 -35.2051 C 84.2285 -56.3965 66.6504 -73.9258 45.5078 -73.9258 C 24.3164 -73.9258 6.83594 -56.3965 6.83594 -35.2051 C 6.83594 -14.0625 24.3652 3.4668 45.5078 3.4668 Z M 23.4863 -35.2539 C 23.4863 -36.084 23.7793 -36.7676 24.5605 -37.5 L 39.4043 -52.3438 C 39.8926 -52.8809 40.5762 -53.125 41.4062 -53.125 C 43.0176 -53.125 44.2383 -51.9531 44.2383 -50.3418 C 44.2383 -49.5117 43.7988 -48.8281 43.3105 -48.3398 L 37.3535 -42.3828 L 32.1777 -37.8418 L 40.6738 -38.1836 L 64.6973 -38.1836 C 66.4062 -38.1836 67.5293 -36.9629 67.5781 -35.2539 C 67.5781 -33.5938 66.4062 -32.373 64.6973 -32.373 L 40.6738 -32.373 L 32.1289 -32.666 L 37.3535 -28.125 L 43.3105 -22.2168 C 43.8477 -21.7285 44.2383 -21.0449 44.2383 -20.166 C 44.2383 -18.6035 43.0176 -17.3828 41.4062 -17.3828 C 40.5762 -17.3828 39.8926 -17.7246 39.4043 -18.2129 L 24.5605 -33.0078 C 23.8281 -33.6914 23.4863 -34.4238 23.4863 -35.2539 Z"/>
  </g>
  <g id="Thin-S" transform="matrix(1 0 0 1 811.867 696)">
   <path d="M 44.5801 2.53906 C 65.2832 2.53906 82.2754 -14.4531 82.2754 -35.2051 C 82.2754 -55.9082 65.2344 -72.9004 44.5312 -72.9004 C 23.8281 -72.9004 6.83594 -55.9082 6.83594 -35.2051 C 6.83594 -14.4531 23.877 2.53906 44.5801 2.53906 Z M 23.3398 -35.2539 C 23.3398 -35.6445 23.5352 -36.1328 23.9258 -36.5723 L 39.3066 -51.9043 C 39.6484 -52.2461 40.0391 -52.3926 40.5762 -52.3926 C 41.5527 -52.3926 42.2363 -51.709 42.2363 -50.7812 C 42.2363 -50.2441 41.9922 -49.8535 41.6504 -49.5117 L 33.9355 -41.7969 L 28.7109 -36.8164 L 35.3027 -37.0117 L 63.9648 -37.0117 C 65.0391 -37.0117 65.7227 -36.3281 65.7715 -35.2051 C 65.7715 -34.1797 65.0879 -33.4473 63.9648 -33.4473 L 35.3027 -33.4473 L 28.7598 -33.6426 L 33.9355 -28.6133 L 41.6504 -20.9473 C 41.9922 -20.6055 42.2363 -20.2148 42.2363 -19.6777 C 42.2363 -18.75 41.5527 -18.0176 40.5762 -18.0176 C 40.0391 -18.0176 39.6484 -18.2129 39.3066 -18.5547 L 23.9258 -33.8867 C 23.584 -34.2773 23.3398 -34.7168 23.3398 -35.2539 Z"/>
  </g>
  <g id="Ultralight-S" transform="matrix(1 0 0 1 515.644 696)">
   <path d="M 44.043 2.05078 C 64.502 2.05078 81.2988 -14.6973 81.2988 -35.1562 C 81.2988 -55.6152 64.502 -72.3633 44.043 -72.3633 C 23.584 -72.3633 6.83594 -55.6152 6.83594 -35.1562 C 6.83594 -14.6973 23.584 2.05078 44.043 2.05078 Z M 23.2422 -35.2051 C 23.2422 -35.4492 23.3887 -35.791 23.584 -36.0352 L 39.2578 -51.6602 C 39.5508 -51.9043 39.7461 -52.0508 40.1367 -52.0508 C 40.8203 -52.0508 41.2109 -51.6113 41.2109 -50.9766 C 41.2109 -50.5859 41.0156 -50.3906 40.7715 -50.0977 L 32.1777 -41.5039 L 26.9531 -36.2793 L 32.5684 -36.4258 L 63.623 -36.4258 C 64.3066 -36.4258 64.7461 -35.9863 64.7949 -35.1562 C 64.8438 -34.5215 64.3555 -33.9844 63.623 -33.9844 L 32.5684 -33.9844 L 27.002 -34.1309 L 32.1777 -28.9062 L 40.7715 -20.3125 C 41.0156 -20.0684 41.2109 -19.8242 41.2109 -19.4336 C 41.2109 -18.8477 40.8203 -18.3594 40.1367 -18.3594 C 39.7461 -18.3594 39.5508 -18.5059 39.2578 -18.75 L 23.584 -34.375 C 23.4375 -34.5703 23.2422 -34.8633 23.2422 -35.2051 Z"/>
  </g>
 </g>
</svg>
