<?xml version="1.0" encoding="UTF-8"?>
<!--Generator: Apple Native CoreSVG 123-->
<!DOCTYPE svg
PUBLIC "-//W3C//DTD SVG 1.1//EN"
       "http://www.w3.org/Graphics/SVG/1.1/DTD/svg11.dtd">
<svg version="1.1" xmlns="http://www.w3.org/2000/svg" xmlns:xlink="http://www.w3.org/1999/xlink" width="3300" height="2200">
 <!--glyph: "uni100341.medium", point size: 100.000000, font version: "Version 15.0d7e11", template writer version: "5"-->
 <g id="Notes">
  <rect height="2200" id="artboard" style="fill:white;opacity:1" width="3300" x="0" y="0"/>
  <line id="" style="fill:none;stroke:black;opacity:1;stroke-width:0.5;" x1="263" x2="3036" y1="292" y2="292"/>
  <text style="stroke:none;fill:black;font-family:-apple-system,&quot;SF Pro Display&quot;,&quot;SF Pro Text&quot;,Helvetica,sans-serif;font-weight:bold;" transform="matrix(1 0 0 1 263 322)">Weight/Scale Variations</text>
  <text style="stroke:none;fill:black;font-family:-apple-system,&quot;SF Pro Display&quot;,&quot;SF Pro Text&quot;,Helvetica,sans-serif;text-anchor:middle;" transform="matrix(1 0 0 1 559.711 322)">Ultralight</text>
  <text style="stroke:none;fill:black;font-family:-apple-system,&quot;SF Pro Display&quot;,&quot;SF Pro Text&quot;,Helvetica,sans-serif;text-anchor:middle;" transform="matrix(1 0 0 1 856.422 322)">Thin</text>
  <text style="stroke:none;fill:black;font-family:-apple-system,&quot;SF Pro Display&quot;,&quot;SF Pro Text&quot;,Helvetica,sans-serif;text-anchor:middle;" transform="matrix(1 0 0 1 1153.13 322)">Light</text>
  <text style="stroke:none;fill:black;font-family:-apple-system,&quot;SF Pro Display&quot;,&quot;SF Pro Text&quot;,Helvetica,sans-serif;text-anchor:middle;" transform="matrix(1 0 0 1 1449.84 322)">Regular</text>
  <text style="stroke:none;fill:black;font-family:-apple-system,&quot;SF Pro Display&quot;,&quot;SF Pro Text&quot;,Helvetica,sans-serif;text-anchor:middle;" transform="matrix(1 0 0 1 1746.56 322)">Medium</text>
  <text style="stroke:none;fill:black;font-family:-apple-system,&quot;SF Pro Display&quot;,&quot;SF Pro Text&quot;,Helvetica,sans-serif;text-anchor:middle;" transform="matrix(1 0 0 1 2043.27 322)">Semibold</text>
  <text style="stroke:none;fill:black;font-family:-apple-system,&quot;SF Pro Display&quot;,&quot;SF Pro Text&quot;,Helvetica,sans-serif;text-anchor:middle;" transform="matrix(1 0 0 1 2339.98 322)">Bold</text>
  <text style="stroke:none;fill:black;font-family:-apple-system,&quot;SF Pro Display&quot;,&quot;SF Pro Text&quot;,Helvetica,sans-serif;text-anchor:middle;" transform="matrix(1 0 0 1 2636.69 322)">Heavy</text>
  <text style="stroke:none;fill:black;font-family:-apple-system,&quot;SF Pro Display&quot;,&quot;SF Pro Text&quot;,Helvetica,sans-serif;text-anchor:middle;" transform="matrix(1 0 0 1 2933.4 322)">Black</text>
  <line id="" style="fill:none;stroke:black;opacity:1;stroke-width:0.5;" x1="263" x2="3036" y1="1903" y2="1903"/>
  <g id="" transform="matrix(1 0 0 1 263 1933)">
   <path d="M 9.24805 0.830078 C 13.5547 0.830078 17.1387 -2.74414 17.1387 -7.05078 C 17.1387 -11.3574 13.5449 -14.9316 9.23828 -14.9316 C 4.94141 -14.9316 1.36719 -11.3574 1.36719 -7.05078 C 1.36719 -2.74414 4.95117 0.830078 9.24805 0.830078 Z M 9.24805 -0.654297 C 5.70312 -0.654297 2.87109 -3.49609 2.87109 -7.05078 C 2.87109 -10.6055 5.69336 -13.4473 9.23828 -13.4473 C 12.793 -13.4473 15.6348 -10.6055 15.6445 -7.05078 C 15.6543 -3.49609 12.8027 -0.654297 9.24805 -0.654297 Z M 9.22852 -3.42773 C 9.69727 -3.42773 9.9707 -3.74023 9.9707 -4.25781 L 9.9707 -6.31836 L 12.1973 -6.31836 C 12.6953 -6.31836 13.0371 -6.57227 13.0371 -7.04102 C 13.0371 -7.51953 12.7148 -7.7832 12.1973 -7.7832 L 9.9707 -7.7832 L 9.9707 -10.0098 C 9.9707 -10.5273 9.69727 -10.8496 9.22852 -10.8496 C 8.75977 -10.8496 8.50586 -10.5078 8.50586 -10.0098 L 8.50586 -7.7832 L 6.29883 -7.7832 C 5.78125 -7.7832 5.44922 -7.51953 5.44922 -7.04102 C 5.44922 -6.57227 5.80078 -6.31836 6.29883 -6.31836 L 8.50586 -6.31836 L 8.50586 -4.25781 C 8.50586 -3.75977 8.75977 -3.42773 9.22852 -3.42773 Z"/>
  </g>
  <g id="" transform="matrix(1 0 0 1 281.506 1933)">
   <path d="M 11.709 2.91016 C 17.1582 2.91016 21.6699 -1.60156 21.6699 -7.05078 C 21.6699 -12.4902 17.1484 -17.0117 11.6992 -17.0117 C 6.25977 -17.0117 1.74805 -12.4902 1.74805 -7.05078 C 1.74805 -1.60156 6.26953 2.91016 11.709 2.91016 Z M 11.709 1.25 C 7.09961 1.25 3.41797 -2.44141 3.41797 -7.05078 C 3.41797 -11.6504 7.08984 -15.3516 11.6992 -15.3516 C 16.3086 -15.3516 20 -11.6504 20.0098 -7.05078 C 20.0195 -2.44141 16.3184 1.25 11.709 1.25 Z M 11.6895 -2.41211 C 12.207 -2.41211 12.5195 -2.77344 12.5195 -3.33984 L 12.5195 -6.23047 L 15.5762 -6.23047 C 16.123 -6.23047 16.5039 -6.51367 16.5039 -7.03125 C 16.5039 -7.55859 16.1426 -7.86133 15.5762 -7.86133 L 12.5195 -7.86133 L 12.5195 -10.9277 C 12.5195 -11.5039 12.207 -11.8555 11.6895 -11.8555 C 11.1719 -11.8555 10.8789 -11.4844 10.8789 -10.9277 L 10.8789 -7.86133 L 7.83203 -7.86133 C 7.26562 -7.86133 6.89453 -7.55859 6.89453 -7.03125 C 6.89453 -6.51367 7.28516 -6.23047 7.83203 -6.23047 L 10.8789 -6.23047 L 10.8789 -3.33984 C 10.8789 -2.79297 11.1719 -2.41211 11.6895 -2.41211 Z"/>
  </g>
  <g id="" transform="matrix(1 0 0 1 304.924 1933)">
   <path d="M 14.9707 5.67383 C 21.9336 5.67383 27.6953 -0.078125 27.6953 -7.04102 C 27.6953 -14.0039 21.9238 -19.7559 14.9609 -19.7559 C 8.00781 -19.7559 2.25586 -14.0039 2.25586 -7.04102 C 2.25586 -0.078125 8.01758 5.67383 14.9707 5.67383 Z M 14.9707 3.85742 C 8.93555 3.85742 4.08203 -1.00586 4.08203 -7.04102 C 4.08203 -13.0762 8.92578 -17.9395 14.9609 -17.9395 C 21.0059 -17.9395 25.8594 -13.0762 25.8691 -7.04102 C 25.8789 -1.00586 21.0156 3.85742 14.9707 3.85742 Z M 14.9512 -1.06445 C 15.5176 -1.06445 15.8691 -1.45508 15.8691 -2.06055 L 15.8691 -6.13281 L 20.1074 -6.13281 C 20.6934 -6.13281 21.1133 -6.46484 21.1133 -7.02148 C 21.1133 -7.59766 20.7227 -7.93945 20.1074 -7.93945 L 15.8691 -7.93945 L 15.8691 -12.1875 C 15.8691 -12.8027 15.5176 -13.1934 14.9512 -13.1934 C 14.3848 -13.1934 14.0625 -12.7832 14.0625 -12.1875 L 14.0625 -7.93945 L 9.83398 -7.93945 C 9.21875 -7.93945 8.80859 -7.59766 8.80859 -7.02148 C 8.80859 -6.46484 9.23828 -6.13281 9.83398 -6.13281 L 14.0625 -6.13281 L 14.0625 -2.06055 C 14.0625 -1.47461 14.3848 -1.06445 14.9512 -1.06445 Z"/>
  </g>
  <text style="stroke:none;fill:black;font-family:-apple-system,&quot;SF Pro Display&quot;,&quot;SF Pro Text&quot;,Helvetica,sans-serif;font-weight:bold;" transform="matrix(1 0 0 1 263 1953)">Design Variations</text>
  <text style="stroke:none;fill:black;font-family:-apple-system,&quot;SF Pro Display&quot;,&quot;SF Pro Text&quot;,Helvetica,sans-serif;" transform="matrix(1 0 0 1 263 1971)">Symbols are supported in up to nine weights and three scales.</text>
  <text style="stroke:none;fill:black;font-family:-apple-system,&quot;SF Pro Display&quot;,&quot;SF Pro Text&quot;,Helvetica,sans-serif;" transform="matrix(1 0 0 1 263 1989)">For optimal layout with text and other symbols, vertically align</text>
  <text style="stroke:none;fill:black;font-family:-apple-system,&quot;SF Pro Display&quot;,&quot;SF Pro Text&quot;,Helvetica,sans-serif;" transform="matrix(1 0 0 1 263 2007)">symbols with the adjacent text.</text>
  <rect height="14" id="" style="fill:#00AEEF;stroke:none;opacity:0.4;" width="3" x="776" y="1919"/>
  <g id="" transform="matrix(1 0 0 1 779 1933)">
   <path d="M 10.5273 0 L 12.373 0 L 7.17773 -14.0918 L 5.43945 -14.0918 L 0.244141 0 L 2.08984 0 L 3.50586 -4.0332 L 9.11133 -4.0332 Z M 6.2793 -11.9531 L 6.33789 -11.9531 L 8.59375 -5.52734 L 4.02344 -5.52734 Z"/>
  </g>
  <rect height="14" id="" style="fill:#00AEEF;stroke:none;opacity:0.4;" width="3" x="791.617" y="1919"/>
  <text style="stroke:none;fill:black;font-family:-apple-system,&quot;SF Pro Display&quot;,&quot;SF Pro Text&quot;,Helvetica,sans-serif;font-weight:bold;" transform="matrix(1 0 0 1 776 1953)">Margins</text>
  <text style="stroke:none;fill:black;font-family:-apple-system,&quot;SF Pro Display&quot;,&quot;SF Pro Text&quot;,Helvetica,sans-serif;" transform="matrix(1 0 0 1 776 1971)">Leading and trailing margins on the left and right side of each symbol</text>
  <text style="stroke:none;fill:black;font-family:-apple-system,&quot;SF Pro Display&quot;,&quot;SF Pro Text&quot;,Helvetica,sans-serif;" transform="matrix(1 0 0 1 776 1989)">can be adjusted by modifying the width of the blue rectangles.</text>
  <text style="stroke:none;fill:black;font-family:-apple-system,&quot;SF Pro Display&quot;,&quot;SF Pro Text&quot;,Helvetica,sans-serif;" transform="matrix(1 0 0 1 776 2007)">Modifications are automatically applied proportionally to all</text>
  <text style="stroke:none;fill:black;font-family:-apple-system,&quot;SF Pro Display&quot;,&quot;SF Pro Text&quot;,Helvetica,sans-serif;" transform="matrix(1 0 0 1 776 2025)">scales and weights.</text>
  <g id="" transform="matrix(1 0 0 1 1289 1933)">
   <path d="M 2.83203 3.11523 L 4.375 4.6582 C 5.22461 5.48828 6.19141 5.41992 7.06055 4.46289 L 17.2754 -6.66016 C 17.7051 -6.36719 18.0957 -6.37695 18.5645 -6.47461 L 19.6094 -6.68945 L 20.3027 -5.99609 L 20.2539 -5.47852 C 20.1855 -4.95117 20.3516 -4.53125 20.8496 -4.0332 L 21.6602 -3.22266 C 22.168 -2.71484 22.8223 -2.68555 23.3008 -3.16406 L 26.5527 -6.41602 C 27.0312 -6.89453 27.0117 -7.54883 26.5039 -8.05664 L 25.6836 -8.87695 C 25.1855 -9.375 24.7754 -9.55078 24.2383 -9.47266 L 23.7109 -9.41406 L 23.0566 -10.0781 L 23.3398 -11.2207 C 23.4863 -11.7871 23.3398 -12.2559 22.7148 -12.8613 L 20.3027 -15.2539 C 16.7578 -18.7793 12.2266 -18.6719 9.11133 -15.5371 C 8.69141 -15.1074 8.64258 -14.5215 8.91602 -14.0918 C 9.15039 -13.7207 9.62891 -13.4961 10.2734 -13.6621 C 11.7871 -14.043 13.3008 -13.9258 14.7852 -12.9199 L 14.1602 -11.3379 C 13.9258 -10.752 13.9453 -10.2734 14.1797 -9.83398 L 3.01758 0.439453 C 2.08008 1.30859 1.97266 2.25586 2.83203 3.11523 Z M 10.6738 -15.1465 C 13.3398 -17.1387 16.6504 -16.8262 19.0527 -14.4141 L 21.6797 -11.8066 C 21.9141 -11.5723 21.9434 -11.3867 21.8848 -11.0938 L 21.5039 -9.53125 L 23.0762 -7.95898 L 24.043 -8.04688 C 24.3262 -8.07617 24.4141 -8.05664 24.6387 -7.83203 L 25.2637 -7.20703 L 22.5098 -4.46289 L 21.8848 -5.07812 C 21.6602 -5.30273 21.6406 -5.40039 21.6699 -5.68359 L 21.7578 -6.64062 L 20.1953 -8.20312 L 18.5742 -7.89062 C 18.291 -7.83203 18.1445 -7.83203 17.9102 -8.07617 L 15.7324 -10.2539 C 15.5078 -10.4883 15.4785 -10.625 15.6055 -10.9473 L 16.5527 -13.2227 C 14.9512 -14.7559 12.8418 -15.6055 10.8008 -14.9512 C 10.7129 -14.9219 10.6445 -14.9414 10.6152 -14.9805 C 10.5859 -15.0293 10.5859 -15.0781 10.6738 -15.1465 Z M 4.10156 2.41211 C 3.61328 1.91406 3.78906 1.61133 4.12109 1.30859 L 15.0781 -8.80859 L 16.3086 -7.57812 L 6.15234 3.34961 C 5.84961 3.68164 5.46875 3.7793 5.06836 3.37891 Z"/>
  </g>
  <text style="stroke:none;fill:black;font-family:-apple-system,&quot;SF Pro Display&quot;,&quot;SF Pro Text&quot;,Helvetica,sans-serif;font-weight:bold;" transform="matrix(1 0 0 1 1289 1953)">Exporting</text>
  <text style="stroke:none;fill:black;font-family:-apple-system,&quot;SF Pro Display&quot;,&quot;SF Pro Text&quot;,Helvetica,sans-serif;" transform="matrix(1 0 0 1 1289 1971)">Symbols should be outlined when exporting to ensure the</text>
  <text style="stroke:none;fill:black;font-family:-apple-system,&quot;SF Pro Display&quot;,&quot;SF Pro Text&quot;,Helvetica,sans-serif;" transform="matrix(1 0 0 1 1289 1989)">design is preserved when submitting to Xcode.</text>
  <text id="template-version" style="stroke:none;fill:black;font-family:-apple-system,&quot;SF Pro Display&quot;,&quot;SF Pro Text&quot;,Helvetica,sans-serif;text-anchor:end;" transform="matrix(1 0 0 1 3036 1933)">Template v.1.0</text>
  <text style="stroke:none;fill:black;font-family:-apple-system,&quot;SF Pro Display&quot;,&quot;SF Pro Text&quot;,Helvetica,sans-serif;text-anchor:end;" transform="matrix(1 0 0 1 3036 1951)">Generated from phone.fill.arrow.up.right</text>
  <text style="stroke:none;fill:black;font-family:-apple-system,&quot;SF Pro Display&quot;,&quot;SF Pro Text&quot;,Helvetica,sans-serif;text-anchor:end;" transform="matrix(1 0 0 1 3036 1969)">Typeset at 100 points</text>
  <text style="stroke:none;fill:black;font-family:-apple-system,&quot;SF Pro Display&quot;,&quot;SF Pro Text&quot;,Helvetica,sans-serif;" transform="matrix(1 0 0 1 263 726)">Small</text>
  <text style="stroke:none;fill:black;font-family:-apple-system,&quot;SF Pro Display&quot;,&quot;SF Pro Text&quot;,Helvetica,sans-serif;" transform="matrix(1 0 0 1 263 1156)">Medium</text>
  <text style="stroke:none;fill:black;font-family:-apple-system,&quot;SF Pro Display&quot;,&quot;SF Pro Text&quot;,Helvetica,sans-serif;" transform="matrix(1 0 0 1 263 1586)">Large</text>
 </g>
 <g id="Guides">
  <g id="H-reference" style="fill:#27AAE1;stroke:none;" transform="matrix(1 0 0 1 339 696)">
   <path d="M 54.9316 0 L 57.666 0 L 30.5664 -70.459 L 28.0762 -70.459 L 0.976562 0 L 3.66211 0 L 12.9395 -24.4629 L 45.7031 -24.4629 Z M 29.1992 -67.0898 L 29.4434 -67.0898 L 44.8242 -26.709 L 13.8184 -26.709 Z"/>
  </g>
  <line id="Baseline-S" style="fill:none;stroke:#27AAE1;opacity:1;stroke-width:0.577;" x1="263" x2="3036" y1="696" y2="696"/>
  <line id="Capline-S" style="fill:none;stroke:#27AAE1;opacity:1;stroke-width:0.577;" x1="263" x2="3036" y1="625.541" y2="625.541"/>
  <g id="H-reference" style="fill:#27AAE1;stroke:none;" transform="matrix(1 0 0 1 339 1126)">
   <path d="M 54.9316 0 L 57.666 0 L 30.5664 -70.459 L 28.0762 -70.459 L 0.976562 0 L 3.66211 0 L 12.9395 -24.4629 L 45.7031 -24.4629 Z M 29.1992 -67.0898 L 29.4434 -67.0898 L 44.8242 -26.709 L 13.8184 -26.709 Z"/>
  </g>
  <line id="Baseline-M" style="fill:none;stroke:#27AAE1;opacity:1;stroke-width:0.577;" x1="263" x2="3036" y1="1126" y2="1126"/>
  <line id="Capline-M" style="fill:none;stroke:#27AAE1;opacity:1;stroke-width:0.577;" x1="263" x2="3036" y1="1055.54" y2="1055.54"/>
  <g id="H-reference" style="fill:#27AAE1;stroke:none;" transform="matrix(1 0 0 1 339 1556)">
   <path d="M 54.9316 0 L 57.666 0 L 30.5664 -70.459 L 28.0762 -70.459 L 0.976562 0 L 3.66211 0 L 12.9395 -24.4629 L 45.7031 -24.4629 Z M 29.1992 -67.0898 L 29.4434 -67.0898 L 44.8242 -26.709 L 13.8184 -26.709 Z"/>
  </g>
  <line id="Baseline-L" style="fill:none;stroke:#27AAE1;opacity:1;stroke-width:0.577;" x1="263" x2="3036" y1="1556" y2="1556"/>
  <line id="Capline-L" style="fill:none;stroke:#27AAE1;opacity:1;stroke-width:0.577;" x1="263" x2="3036" y1="1485.54" y2="1485.54"/>
  <rect height="119.336" id="left-margin" style="fill:#00AEEF;stroke:none;opacity:0.4;" width="11.2305" x="1392.18" y="1030.79"/>
  <rect height="119.336" id="right-margin" style="fill:#00AEEF;stroke:none;opacity:0.4;" width="11.2305" x="1496.28" y="1030.79"/>
 </g>
 <g id="Symbols">
  <g id="Black-L" transform="matrix(1 0 0 1 2855.23 1556)">
   <path d="M 49.707 -4.98047 C 69.7266 15.0879 93.6523 30.3223 113.135 30.3223 C 121.729 30.3223 129.443 27.3438 135.498 20.5078 C 139.111 16.5039 140.967 12.1582 140.967 7.66602 C 140.967 3.61328 139.307 -0.292969 135.547 -3.02734 L 115.967 -16.9434 C 112.598 -19.3848 109.814 -20.459 107.422 -20.459 C 104.199 -20.459 101.465 -18.6035 98.4375 -15.5762 L 93.6523 -10.791 C 92.9199 -10.0586 91.9922 -9.76562 91.1133 -9.76562 C 90.0879 -9.76562 89.0137 -10.1562 88.2812 -10.5957 C 84.082 -12.9883 77.002 -19.2383 70.459 -25.7324 C 63.9648 -32.2266 57.7148 -39.3555 55.3223 -43.5547 C 54.8828 -44.2871 54.4922 -45.3613 54.4922 -46.3867 C 54.4922 -47.2656 54.7852 -48.1934 55.5176 -48.9258 L 60.3027 -53.7109 C 63.3301 -56.7383 65.1855 -59.4727 65.1855 -62.6953 C 65.1855 -65.0879 64.1113 -67.8711 61.6699 -71.2402 L 47.7539 -90.8203 C 45.0684 -94.5801 41.1133 -96.1914 37.0117 -96.1914 C 32.4219 -96.1914 28.0762 -94.3848 24.2188 -90.7715 C 17.4316 -84.6191 14.4531 -76.9043 14.4531 -68.3105 C 14.4531 -48.8281 29.6387 -25 49.707 -4.98047 Z M 95.8496 -77.5879 L 103.906 -77.5879 L 114.355 -78.7598 L 107.666 -73.1934 L 87.8906 -53.418 C 86.2305 -51.709 85.3516 -49.6094 85.3516 -47.2656 C 85.3516 -42.8711 88.7695 -39.6973 93.457 -39.6973 C 95.6543 -39.6973 97.6562 -40.5273 99.2188 -42.0898 L 118.994 -61.7676 L 124.609 -68.1641 L 123.486 -58.1543 L 123.486 -50.4883 C 123.486 -46.2891 126.807 -43.0664 131.299 -43.0176 C 135.742 -43.0176 139.16 -46.1914 139.16 -50.3906 L 139.16 -82.6172 C 139.16 -89.4531 135.303 -93.3105 128.467 -93.3105 L 95.752 -93.3105 C 91.5039 -93.3105 88.3301 -89.8438 88.3301 -85.4004 C 88.3301 -80.9082 91.6016 -77.5879 95.8496 -77.5879 Z"/>
  </g>
  <g id="Heavy-L" transform="matrix(1 0 0 1 2559.56 1556)">
   <path d="M 48.8281 -5.51758 C 68.3105 14.0137 91.7969 28.9551 110.889 28.9551 C 119.434 28.9551 126.953 26.0254 133.008 19.2871 C 136.475 15.4297 138.428 11.084 138.428 6.64062 C 138.428 2.7832 136.914 -0.878906 133.301 -3.4668 L 113.818 -17.334 C 110.596 -19.6289 107.91 -20.6543 105.518 -20.6543 C 102.441 -20.6543 99.707 -18.8965 96.7285 -15.918 L 91.9922 -11.2305 C 91.2598 -10.498 90.332 -10.2051 89.502 -10.2051 C 88.4766 -10.2051 87.4512 -10.5957 86.7676 -10.9863 C 82.666 -13.2812 75.6348 -19.3848 69.1406 -25.8301 C 62.6953 -32.2754 56.5918 -39.3066 54.3457 -43.4082 C 53.9062 -44.1406 53.5156 -45.166 53.5156 -46.1426 C 53.5156 -46.9727 53.8086 -47.9004 54.541 -48.6328 L 59.2285 -53.3691 C 62.207 -56.3965 63.9648 -59.082 63.9648 -62.207 C 63.9648 -64.5996 62.9395 -67.2852 60.6445 -70.5078 L 46.8262 -89.8926 C 44.2383 -93.5059 40.4785 -95.0684 36.5723 -95.0684 C 32.1289 -95.0684 27.832 -93.2129 23.9746 -89.6484 C 17.3828 -83.5449 14.4531 -75.9277 14.4531 -67.4805 C 14.4531 -48.3398 29.2969 -25 48.8281 -5.51758 Z M 94.8242 -79.5898 L 103.613 -79.5898 L 116.016 -80.6641 L 108.447 -74.1211 L 86.6211 -52.2949 C 85.1074 -50.7812 84.375 -48.9746 84.375 -46.875 C 84.375 -43.0664 87.4023 -40.2344 91.5527 -40.2344 C 93.457 -40.2344 95.2148 -40.9668 96.582 -42.334 L 118.408 -64.0625 L 124.951 -71.3867 L 123.926 -59.375 L 123.926 -50.9277 C 123.926 -47.2168 126.855 -44.3848 130.762 -44.3359 C 134.668 -44.2871 137.744 -47.1191 137.744 -50.8789 L 137.744 -84.2285 C 137.744 -90.1367 134.473 -93.4082 128.564 -93.4082 L 94.7266 -93.4082 C 90.9668 -93.4082 88.1348 -90.332 88.1348 -86.377 C 88.1836 -82.4707 91.0645 -79.5898 94.8242 -79.5898 Z"/>
  </g>
  <g id="Bold-L" transform="matrix(1 0 0 1 2264 1556)">
   <path d="M 47.8027 -6.10352 C 66.6992 12.8418 89.6973 27.4414 108.447 27.4414 C 116.846 27.4414 124.219 24.5117 130.127 17.9688 C 133.545 14.209 135.645 9.81445 135.645 5.46875 C 135.645 1.9043 134.229 -1.51367 130.811 -3.95508 L 111.426 -17.7246 C 108.35 -19.9219 105.762 -20.9473 103.467 -20.9473 C 100.439 -20.9473 97.7539 -19.2383 94.7754 -16.3086 L 90.1367 -11.6699 C 89.4043 -10.9863 88.5254 -10.6934 87.6465 -10.6934 C 86.6699 -10.6934 85.6934 -11.0352 85.0098 -11.4258 C 81.0547 -13.623 74.0723 -19.5312 67.6758 -25.9277 C 61.2793 -32.3242 55.3711 -39.2578 53.1738 -43.2617 C 52.832 -43.9453 52.4414 -44.9219 52.4414 -45.8496 C 52.4414 -46.6797 52.7344 -47.5586 53.418 -48.291 L 58.0566 -53.0273 C 60.9863 -56.0059 62.6953 -58.6914 62.6953 -61.7188 C 62.6953 -64.0137 61.6699 -66.6016 59.4727 -69.6777 L 45.8496 -88.8672 C 43.3594 -92.334 39.8438 -93.7988 36.084 -93.7988 C 31.7871 -93.7988 27.4902 -91.9434 23.7305 -88.3301 C 17.2852 -82.3242 14.4531 -74.8535 14.4531 -66.5527 C 14.4531 -47.7539 28.9062 -24.9512 47.8027 -6.10352 Z M 93.6523 -81.7871 L 103.271 -81.7871 L 117.822 -82.7637 L 109.277 -75.1465 L 85.2051 -51.0742 C 83.8867 -49.7559 83.3008 -48.2422 83.3008 -46.4355 C 83.3008 -43.2129 85.8398 -40.8203 89.3555 -40.8203 C 91.0156 -40.8203 92.4805 -41.4062 93.6523 -42.5781 L 117.725 -66.6504 L 125.391 -75.0488 L 124.414 -60.6934 L 124.414 -51.4648 C 124.414 -48.2422 126.855 -45.8496 130.176 -45.752 C 133.447 -45.7031 136.133 -48.1445 136.133 -51.3672 L 136.133 -86.0352 C 136.133 -90.8691 133.496 -93.5547 128.613 -93.5547 L 93.6035 -93.5547 C 90.3809 -93.5547 87.8906 -90.8691 87.9395 -87.5488 C 87.9883 -84.2285 90.4785 -81.7871 93.6523 -81.7871 Z"/>
  </g>
  <g id="Semibold-L" transform="matrix(1 0 0 1 1968.1 1556)">
   <path d="M 92.8711 -83.3008 L 103.027 -83.3008 L 119.141 -84.2285 L 109.863 -75.8789 L 84.2285 -50.1953 C 83.0566 -49.0234 82.5195 -47.7051 82.5195 -46.1914 C 82.5195 -43.3594 84.8145 -41.2109 87.8906 -41.2109 C 89.3066 -41.2109 90.5762 -41.748 91.6504 -42.7734 L 117.285 -68.457 L 125.635 -77.5391 L 124.707 -61.6211 L 124.707 -51.8066 C 124.707 -48.9746 126.904 -46.8262 129.736 -46.7773 C 132.666 -46.6797 135.01 -48.877 135.01 -51.7578 L 135.01 -87.3047 C 135.01 -91.3574 132.812 -93.6035 128.711 -93.6035 L 92.8223 -93.6035 C 89.9902 -93.6035 87.7441 -91.2598 87.793 -88.3301 C 87.8906 -85.4492 90.0879 -83.3008 92.8711 -83.3008 Z M 47.1191 -6.49414 C 65.625 12.0117 88.2324 26.3672 106.738 26.3672 C 115.039 26.3672 122.314 23.4863 128.174 17.041 C 131.543 13.3301 133.691 8.98438 133.691 4.63867 C 133.691 1.26953 132.373 -1.95312 129.102 -4.29688 L 109.766 -18.0176 C 106.787 -20.1172 104.297 -21.0938 102.002 -21.0938 C 99.0723 -21.0938 96.3867 -19.4824 93.457 -16.5527 L 88.8184 -12.0117 C 88.1348 -11.2793 87.2559 -11.0352 86.4258 -11.0352 C 85.4492 -11.0352 84.5215 -11.377 83.8379 -11.7188 C 79.9316 -13.8672 73.0469 -19.5801 66.6504 -25.9766 C 60.3027 -32.373 54.4922 -39.209 52.4414 -43.1641 C 52.0508 -43.8477 51.709 -44.7754 51.709 -45.7031 C 51.709 -46.4844 52.002 -47.3633 52.6855 -48.0469 L 57.2266 -52.7344 C 60.1074 -55.7617 61.7676 -58.3984 61.7676 -61.3281 C 61.7676 -63.6719 60.7422 -66.1621 58.6914 -69.0918 L 45.1172 -88.1836 C 42.7734 -91.5039 39.4043 -92.9199 35.791 -92.9199 C 31.543 -92.9199 27.2949 -91.0156 23.5352 -87.4512 C 17.2363 -81.4453 14.4531 -74.0723 14.4531 -65.918 C 14.4531 -47.3633 28.6133 -24.9512 47.1191 -6.49414 Z"/>
  </g>
  <g id="Medium-L" transform="matrix(1 0 0 1 1672 1556)">
   <path d="M 92.2852 -84.4727 L 102.881 -84.4727 L 120.068 -85.3516 L 110.303 -76.416 L 83.4961 -49.5605 C 82.4219 -48.4863 81.9336 -47.3145 81.9336 -45.9473 C 81.9336 -43.4082 83.9844 -41.5039 86.7188 -41.5039 C 88.0371 -41.5039 89.1602 -41.9922 90.0879 -42.9199 L 116.943 -69.8242 L 125.879 -79.4434 L 124.951 -62.3047 L 124.951 -52.0508 C 124.951 -49.5605 126.904 -47.6074 129.443 -47.5098 C 132.031 -47.4121 134.18 -49.4629 134.18 -52.002 L 134.18 -88.2324 C 134.18 -91.748 132.324 -93.6523 128.76 -93.6523 L 92.2363 -93.6523 C 89.6484 -93.6523 87.6465 -91.5039 87.6953 -88.916 C 87.793 -86.377 89.7949 -84.4727 92.2852 -84.4727 Z M 46.582 -6.78711 C 64.7949 11.4258 87.1094 25.5371 105.42 25.5371 C 113.721 25.5371 120.898 22.7051 126.709 16.3086 C 130.029 12.6953 132.227 8.34961 132.227 4.05273 C 132.227 0.830078 131.006 -2.29492 127.832 -4.54102 L 108.496 -18.2617 C 105.664 -20.2637 103.174 -21.2402 100.928 -21.2402 C 97.998 -21.2402 95.3613 -19.6289 92.4316 -16.748 L 87.8418 -12.2559 C 87.1582 -11.5723 86.2793 -11.2793 85.4492 -11.2793 C 84.5215 -11.2793 83.5938 -11.6211 82.9102 -11.9629 C 79.0527 -14.0137 72.2656 -19.6777 65.8691 -26.0254 C 59.5215 -32.373 53.8574 -39.1602 51.8066 -43.0664 C 51.4648 -43.75 51.1719 -44.6289 51.1719 -45.5566 C 51.1719 -46.3379 51.416 -47.168 52.0996 -47.8516 L 56.6406 -52.5391 C 59.4727 -55.5664 61.084 -58.2031 61.084 -61.084 C 61.084 -63.3301 60.1074 -65.8203 58.0566 -68.6523 L 44.6289 -87.6465 C 42.2852 -90.8691 39.0137 -92.2363 35.5469 -92.2363 C 31.3965 -92.2363 27.0996 -90.332 23.3887 -86.7676 C 17.1875 -80.8105 14.4531 -73.4863 14.4531 -65.4297 C 14.4531 -47.0703 28.418 -24.9512 46.582 -6.78711 Z"/>
  </g>
  <g id="Regular-L" transform="matrix(1 0 0 1 1376.09 1556)">
   <path d="M 91.5039 -85.9375 L 102.637 -85.9375 L 121.338 -86.8164 L 110.889 -77.1484 L 82.5195 -48.7305 C 81.5918 -47.8027 81.2012 -46.8262 81.2012 -45.6543 C 81.2012 -43.5547 82.959 -41.8945 85.2539 -41.8945 C 86.377 -41.8945 87.3047 -42.2852 88.0859 -43.1152 L 116.455 -71.582 L 126.172 -81.9336 L 125.293 -63.2324 L 125.293 -52.3926 C 125.293 -50.2441 126.904 -48.584 129.053 -48.4863 C 131.201 -48.3887 133.057 -50.1465 133.057 -52.3926 L 133.057 -89.502 C 133.057 -92.2852 131.641 -93.75 128.809 -93.75 L 91.5039 -93.75 C 89.2578 -93.75 87.5 -91.8945 87.5977 -89.6484 C 87.6953 -87.5488 89.3555 -85.9375 91.5039 -85.9375 Z M 45.9473 -7.17773 C 63.7207 10.5957 85.6934 24.5117 103.76 24.5117 C 111.914 24.5117 119.043 21.6797 124.805 15.4297 C 128.027 11.8652 130.322 7.51953 130.322 3.22266 C 130.322 0.195312 129.15 -2.7832 126.123 -4.88281 L 106.836 -18.5059 C 104.102 -20.459 101.709 -21.4355 99.4629 -21.4355 C 96.6797 -21.4355 94.043 -19.873 91.1133 -17.041 L 86.5723 -12.5488 C 85.8887 -11.8652 85.0586 -11.6211 84.1797 -11.6211 C 83.3008 -11.6211 82.4219 -11.9629 81.7383 -12.2559 C 77.9785 -14.2578 71.1914 -19.7754 64.8926 -26.123 C 58.5449 -32.4219 52.9785 -39.1113 51.0742 -42.9688 C 50.7324 -43.6523 50.4395 -44.4824 50.4395 -45.3613 C 50.4395 -46.1426 50.6836 -46.9238 51.3672 -47.6562 L 55.8105 -52.2949 C 58.6426 -55.2734 60.2051 -57.9102 60.2051 -60.6934 C 60.2051 -62.9883 59.1797 -65.332 57.2754 -68.1152 L 43.9453 -86.9141 C 41.6992 -90.0391 38.5742 -91.3574 35.2051 -91.3574 C 31.1523 -91.3574 26.9043 -89.4531 23.1934 -85.8887 C 17.1387 -79.9805 14.4531 -72.7539 14.4531 -64.7949 C 14.4531 -46.6797 28.125 -24.9512 45.9473 -7.17773 Z"/>
  </g>
  <g id="Light-L" transform="matrix(1 0 0 1 1080.21 1556)">
   <path d="M 89.7949 -87.4512 L 103.125 -87.4512 L 122.119 -88.1348 L 111.914 -78.418 L 81.7871 -48.291 C 81.0547 -47.5098 80.7129 -46.7773 80.7129 -45.8496 C 80.7129 -44.1895 82.0801 -42.9688 83.8867 -42.9688 C 84.7168 -42.9688 85.498 -43.2617 86.1328 -43.8965 L 116.211 -74.0723 L 125.928 -84.2773 L 125.342 -65.2832 L 125.342 -52.4414 C 125.342 -50.7812 126.611 -49.4629 128.271 -49.3652 C 129.932 -49.3164 131.396 -50.6836 131.396 -52.4414 L 131.396 -90.332 C 131.396 -92.4805 130.273 -93.6035 128.076 -93.6035 L 89.7949 -93.6035 C 88.0859 -93.6035 86.6699 -92.1387 86.7188 -90.4297 C 86.7676 -88.7695 88.1348 -87.4512 89.7949 -87.4512 Z M 45.2148 -7.8125 C 62.4023 9.42383 84.1309 23.0957 102.148 23.0957 C 110.449 23.0957 117.529 20.2148 123.34 14.0625 C 126.465 10.791 129.053 6.39648 129.053 2.14844 C 129.053 -0.78125 127.881 -3.61328 124.805 -5.76172 L 105.566 -19.2871 C 103.174 -20.9961 100.879 -21.9238 98.6328 -21.9238 C 95.8984 -21.9238 93.2129 -20.5078 90.2344 -17.6758 L 85.6445 -13.1836 C 84.9609 -12.5 84.1309 -12.207 83.252 -12.207 C 82.4219 -12.207 81.5918 -12.5 80.9082 -12.8418 C 77.2949 -14.6973 70.459 -19.9707 63.916 -26.5137 C 57.4219 -32.959 52.0996 -39.6973 50.293 -43.5059 C 50 -44.1895 49.707 -44.9707 49.707 -45.7031 C 49.707 -46.4355 49.9512 -47.2168 50.6348 -47.9004 L 55.127 -52.7344 C 57.9102 -55.8105 59.375 -58.4961 59.375 -61.2305 C 59.375 -63.4766 58.3984 -65.7227 56.6406 -68.2129 L 43.6035 -86.7188 C 41.3574 -89.8926 38.2324 -91.2598 34.9609 -91.2598 C 30.957 -91.2598 26.7578 -89.3066 23.0957 -85.6934 C 17.0898 -79.834 14.4531 -72.5586 14.4531 -64.6484 C 14.4531 -46.582 27.9297 -25 45.2148 -7.8125 Z"/>
  </g>
  <g id="Thin-L" transform="matrix(1 0 0 1 784.62 1556)">
   <path d="M 87.5977 -89.4531 L 103.809 -89.4531 L 123.145 -89.8438 L 113.184 -80.0781 L 80.8105 -47.7051 C 80.2734 -47.168 80.0781 -46.7285 80.0781 -46.1426 C 80.0781 -45.0684 80.957 -44.3359 82.0801 -44.3359 C 82.5684 -44.3359 83.1055 -44.5801 83.4961 -44.9707 L 115.869 -77.3926 L 125.586 -87.3535 L 125.342 -68.0176 L 125.342 -52.4902 C 125.342 -51.416 126.172 -50.5859 127.246 -50.5371 C 128.271 -50.5371 129.15 -51.416 129.15 -52.4902 L 129.15 -91.5039 C 129.15 -92.7246 128.467 -93.4082 127.148 -93.4082 L 87.5977 -93.4082 C 86.5234 -93.4082 85.5957 -92.4316 85.5957 -91.4062 C 85.5957 -90.332 86.5234 -89.4531 87.5977 -89.4531 Z M 44.2871 -8.59375 C 60.7422 7.86133 82.0801 21.1914 100.098 21.1914 C 108.496 21.1914 115.527 18.3105 121.436 12.3047 C 124.365 9.32617 127.344 4.93164 127.344 0.683594 C 127.344 -2.05078 126.221 -4.73633 123.096 -6.88477 L 103.906 -20.2637 C 101.904 -21.7285 99.7559 -22.6074 97.5098 -22.6074 C 94.873 -22.6074 92.0898 -21.3867 89.0625 -18.5059 L 84.375 -13.9648 C 83.6914 -13.3301 82.9102 -13.0371 82.0312 -13.0371 C 81.25 -13.0371 80.5176 -13.2812 79.7852 -13.5742 C 76.3672 -15.332 69.4336 -20.2637 62.6465 -27.002 C 55.957 -33.6914 50.8789 -40.5273 49.3164 -44.1895 C 48.9746 -44.873 48.7793 -45.5566 48.7793 -46.1426 C 48.7793 -46.875 49.0234 -47.6074 49.707 -48.291 L 54.1992 -53.2715 C 56.9824 -56.4941 58.252 -59.2773 58.252 -61.8652 C 58.252 -64.1113 57.373 -66.2598 55.8594 -68.3594 L 43.2129 -86.4258 C 40.8691 -89.6973 37.793 -91.1133 34.5703 -91.1133 C 30.7617 -91.1133 26.6113 -89.1113 22.9492 -85.4492 C 17.041 -79.541 14.4531 -72.3145 14.4531 -64.4531 C 14.4531 -46.4844 27.6855 -25.0977 44.2871 -8.59375 Z"/>
  </g>
  <g id="Ultralight-L" transform="matrix(1 0 0 1 488.471 1556)">
   <path d="M 86.4258 -90.4297 L 104.102 -90.4297 L 123.682 -90.7227 L 113.867 -80.957 L 80.3223 -47.4121 C 79.8828 -47.0215 79.7363 -46.6797 79.7363 -46.2891 C 79.7363 -45.5566 80.3711 -45.0195 81.1523 -45.0195 C 81.4941 -45.0195 81.8848 -45.2637 82.1777 -45.5078 L 115.674 -79.1016 L 125.439 -88.9648 L 125.342 -69.3848 L 125.342 -52.4902 C 125.342 -51.7578 125.977 -51.1719 126.709 -51.1719 C 127.441 -51.1719 128.027 -51.7578 128.027 -52.4902 L 128.027 -92.0898 C 128.027 -92.8223 127.539 -93.2617 126.66 -93.2617 L 86.4258 -93.2617 C 85.7422 -93.2617 85.0586 -92.627 85.0098 -91.8945 C 85.0098 -91.1621 85.6934 -90.4297 86.4258 -90.4297 Z M 43.7988 -9.0332 C 59.8633 7.03125 81.0059 20.2148 99.0234 20.2148 C 107.52 20.2148 114.502 17.334 120.459 11.4258 C 123.291 8.59375 126.465 4.19922 126.465 -0.0976562 C 126.465 -2.68555 125.342 -5.32227 122.168 -7.4707 L 103.076 -20.8008 C 101.221 -22.1191 99.1699 -22.998 96.9238 -22.998 C 94.3848 -22.998 91.5527 -21.8262 88.4766 -18.8965 L 83.6914 -14.4043 C 83.0566 -13.7695 82.2754 -13.4277 81.3965 -13.4277 C 80.6641 -13.4277 79.9805 -13.6719 79.248 -13.9648 C 75.9277 -15.625 68.8965 -20.3613 62.0117 -27.2949 C 55.1758 -34.082 50.2441 -40.918 48.7793 -44.5312 C 48.4863 -45.2637 48.3398 -45.8984 48.3398 -46.3867 C 48.3398 -47.1191 48.584 -47.8516 49.2188 -48.4863 L 53.7109 -53.5645 C 56.543 -56.8359 57.666 -59.668 57.666 -62.207 C 57.666 -64.4531 56.8359 -66.5039 55.4199 -68.457 L 42.9688 -86.2793 C 40.625 -89.5996 37.5977 -91.0645 34.375 -91.0645 C 30.6641 -91.0645 26.5625 -89.0137 22.8516 -85.3027 C 16.9922 -79.4434 14.4531 -72.2168 14.4531 -64.3555 C 14.4531 -46.4355 27.5879 -25.1465 43.7988 -9.0332 Z"/>
  </g>
  <g id="Black-M" transform="matrix(1 0 0 1 2871.88 1126)">
   <path d="M 39.3066 -11.4258 C 55.2246 4.58984 74.2676 16.6992 89.7461 16.6992 C 96.6309 16.6992 102.734 14.3066 107.617 8.88672 C 110.449 5.76172 111.865 2.39258 111.865 -1.17188 C 111.865 -4.54102 110.498 -7.8125 107.275 -10.1562 L 92.0898 -20.9961 C 89.4043 -22.9004 87.207 -23.7305 85.2539 -23.7305 C 82.7148 -23.7305 80.5176 -22.3145 78.0762 -19.873 L 74.2676 -16.0645 C 73.7305 -15.4785 72.9492 -15.2344 72.2656 -15.2344 C 71.4844 -15.2344 70.6055 -15.5273 70.0195 -15.918 C 66.6992 -17.8711 61.0352 -22.8027 55.8594 -27.9785 C 50.6836 -33.1543 45.752 -38.8672 43.7988 -42.1387 C 43.4082 -42.7246 43.1152 -43.6035 43.1152 -44.3848 C 43.1152 -45.0684 43.3594 -45.8496 43.8965 -46.3867 L 47.7051 -50.1953 C 50.1465 -52.6367 51.6113 -54.834 51.6113 -57.373 C 51.6113 -59.3262 50.7812 -61.5234 48.8281 -64.209 L 37.9883 -79.3945 C 35.7422 -82.6172 32.4219 -83.9355 29.0527 -83.9355 C 25.4395 -83.9355 22.0703 -82.5684 18.9941 -79.7363 C 13.5742 -74.9023 11.1816 -68.75 11.1816 -61.9141 C 11.1816 -46.3867 23.291 -27.3438 39.3066 -11.4258 Z M 74.707 -66.2109 L 81.1523 -66.2109 L 86.7676 -67.0898 L 82.8613 -64.0625 L 69.3848 -50.5859 C 67.9199 -49.1211 67.1875 -47.2168 67.1875 -45.166 C 67.1875 -41.3086 70.1172 -38.5742 74.2676 -38.5742 C 76.1719 -38.5742 77.9785 -39.3066 79.2969 -40.625 L 92.8223 -54.0039 L 95.8984 -57.6172 L 95.0684 -52.4902 L 95.0684 -46.4844 C 95.0684 -42.7734 98.0469 -40.0391 102.002 -40.0391 C 105.908 -40.0391 108.887 -42.7246 108.887 -46.3867 L 108.887 -70.2148 C 108.887 -76.4648 105.273 -80.0781 99.0234 -80.0781 L 74.6094 -80.0781 C 70.9473 -80.0781 68.2617 -77.0508 68.2129 -73.1445 C 68.1152 -69.1895 70.9961 -66.2109 74.707 -66.2109 Z"/>
  </g>
  <g id="Heavy-M" transform="matrix(1 0 0 1 2576.07 1126)">
   <path d="M 38.5254 -11.8164 C 54.0039 3.71094 72.6074 15.5273 87.7441 15.5273 C 94.4824 15.5273 100.488 13.2324 105.273 7.91016 C 108.008 4.83398 109.473 1.46484 109.473 -2.00195 C 109.473 -5.17578 108.203 -8.25195 105.225 -10.4004 L 90.0391 -21.1914 C 87.4512 -23.0469 85.3516 -23.8281 83.4473 -23.8281 C 80.957 -23.8281 78.8574 -22.4609 76.4648 -20.0684 L 72.7051 -16.3574 C 72.168 -15.7715 71.4355 -15.5273 70.752 -15.5273 C 69.9707 -15.5273 69.1406 -15.8691 68.5547 -16.2109 C 65.332 -18.0664 59.7656 -22.8516 54.6875 -27.9785 C 49.5605 -33.0566 44.7754 -38.623 42.9199 -41.8457 C 42.5781 -42.4316 42.2363 -43.2617 42.2363 -44.043 C 42.2363 -44.7266 42.4805 -45.459 43.0664 -45.9961 L 46.7773 -49.7559 C 49.1699 -52.1484 50.5371 -54.2969 50.5371 -56.7383 C 50.5371 -58.6426 49.7559 -60.791 47.9004 -63.3789 L 37.1094 -78.4668 C 35.0098 -81.4941 31.8848 -82.7148 28.6621 -82.7148 C 25.1465 -82.7148 21.7773 -81.3477 18.7988 -78.5156 C 13.4766 -73.7305 11.1816 -67.7246 11.1816 -61.0352 C 11.1816 -45.8984 22.998 -27.2949 38.5254 -11.8164 Z M 74.0723 -67.9688 L 80.7129 -67.9688 L 88.3789 -68.8477 L 83.4961 -64.7461 L 68.2129 -49.4629 C 66.8945 -48.1934 66.2598 -46.5332 66.2598 -44.6777 C 66.2598 -41.3086 68.8965 -38.8672 72.5586 -38.8672 C 74.2188 -38.8672 75.7812 -39.502 77.002 -40.6738 L 92.2363 -55.8594 L 96.3867 -60.5469 L 95.5566 -53.2715 L 95.5566 -46.9727 C 95.5566 -43.7012 98.1445 -41.2109 101.66 -41.2109 C 105.078 -41.1621 107.764 -43.6035 107.764 -46.875 L 107.764 -71.7773 C 107.764 -77.1484 104.688 -80.1758 99.3164 -80.1758 L 73.9746 -80.1758 C 70.7031 -80.1758 68.2617 -77.4902 68.2129 -74.0723 C 68.2129 -70.5566 70.752 -67.9688 74.0723 -67.9688 Z"/>
  </g>
  <g id="Bold-M" transform="matrix(1 0 0 1 2280.38 1126)">
   <path d="M 37.6465 -12.3047 C 52.6855 2.7832 70.8008 14.2578 85.5469 14.2578 C 92.1387 14.2578 97.9492 12.0117 102.588 6.83594 C 105.273 3.80859 106.836 0.439453 106.836 -2.97852 C 106.836 -5.9082 105.664 -8.69141 102.881 -10.6934 L 87.793 -21.4355 C 85.3516 -23.1934 83.3008 -23.9746 81.4453 -23.9746 C 79.0527 -23.9746 76.9531 -22.6074 74.6094 -20.3125 L 70.9961 -16.6992 C 70.4102 -16.1133 69.7266 -15.918 69.043 -15.918 C 68.2617 -15.918 67.4805 -16.2109 66.9434 -16.5039 C 63.7695 -18.2617 58.3496 -22.9492 53.3691 -27.9785 C 48.3398 -32.959 43.6523 -38.3789 41.8945 -41.5527 C 41.6016 -42.0898 41.3086 -42.8711 41.3086 -43.6523 C 41.3086 -44.2871 41.5039 -44.9707 42.0898 -45.5566 L 45.7031 -49.2188 C 47.998 -51.5625 49.3652 -53.6621 49.3652 -56.0547 C 49.3652 -57.9102 48.584 -59.9609 46.7773 -62.4023 L 36.1328 -77.4414 C 34.1309 -80.1758 31.25 -81.3477 28.2715 -81.3477 C 24.8535 -81.3477 21.4844 -79.9316 18.5547 -77.1484 C 13.4277 -72.4609 11.2305 -66.6016 11.2305 -60.0586 C 11.2305 -45.2637 22.6074 -27.2949 37.6465 -12.3047 Z M 73.291 -69.9707 L 80.2246 -69.9707 L 90.1855 -70.8008 L 84.1309 -65.5273 L 66.8945 -48.2422 C 65.7715 -47.1191 65.1855 -45.752 65.1855 -44.1895 C 65.1855 -41.3086 67.4805 -39.209 70.6055 -39.209 C 72.0215 -39.209 73.3398 -39.7461 74.3652 -40.7715 L 91.6504 -57.959 L 96.9238 -63.8672 L 96.0938 -54.1504 L 96.0938 -47.5098 C 96.0938 -44.6777 98.291 -42.5781 101.221 -42.5293 C 104.15 -42.4805 106.494 -44.6289 106.494 -47.4121 L 106.494 -73.4863 C 106.494 -77.8809 104.053 -80.3711 99.6582 -80.3711 L 73.2422 -80.3711 C 70.4102 -80.3711 68.2617 -78.0273 68.3105 -75.0488 C 68.3105 -72.1191 70.5078 -69.9707 73.291 -69.9707 Z"/>
  </g>
  <g id="Semibold-M" transform="matrix(1 0 0 1 1984.38 1126)">
   <path d="M 72.8027 -71.2891 L 79.8828 -71.2891 L 91.4551 -72.1191 L 84.6191 -66.0645 L 65.9668 -47.4121 C 64.9902 -46.3867 64.502 -45.2148 64.502 -43.7988 C 64.502 -41.3086 66.5039 -39.4043 69.2383 -39.4043 C 70.5078 -39.4043 71.6309 -39.8926 72.5586 -40.8203 L 91.2109 -59.4238 L 97.2656 -66.1133 L 96.4844 -54.7363 L 96.4844 -47.8516 C 96.4844 -45.3613 98.3887 -43.5059 100.977 -43.4082 C 103.516 -43.3594 105.615 -45.3125 105.615 -47.8027 L 105.615 -74.707 C 105.615 -78.418 103.613 -80.4688 99.8535 -80.4688 L 72.7539 -80.4688 C 70.2148 -80.4688 68.2617 -78.3691 68.3105 -75.7812 C 68.3594 -73.1934 70.3125 -71.2891 72.8027 -71.2891 Z M 37.0605 -12.5977 C 51.7578 2.09961 69.5312 13.4277 83.9844 13.4277 C 90.4785 13.4277 96.1914 11.1328 100.781 6.10352 C 103.418 3.125 104.98 -0.244141 104.98 -3.61328 C 104.98 -6.39648 103.906 -9.0332 101.318 -10.8887 L 86.2793 -21.582 C 83.8379 -23.291 81.8359 -24.0723 80.0293 -24.0723 C 77.6855 -24.0723 75.6348 -22.7539 73.3398 -20.459 L 69.7754 -16.8945 C 69.2383 -16.3574 68.5059 -16.1621 67.8711 -16.1621 C 67.0898 -16.1621 66.3574 -16.4551 65.8203 -16.748 C 62.6953 -18.457 57.373 -23.0469 52.4414 -27.9297 C 47.5098 -32.8613 42.9199 -38.1836 41.2109 -41.3086 C 40.918 -41.8457 40.6738 -42.627 40.6738 -43.3594 C 40.6738 -43.9941 40.8691 -44.6777 41.4062 -45.2148 L 44.9707 -48.877 C 47.2168 -51.1719 48.584 -53.2227 48.584 -55.5664 C 48.584 -57.373 47.7539 -59.375 46.0449 -61.7676 L 35.4492 -76.709 C 33.5449 -79.2969 30.8594 -80.4199 27.9785 -80.4199 C 24.6094 -80.4199 21.2891 -79.0039 18.3594 -76.2207 C 13.3789 -71.582 11.2305 -65.8203 11.2305 -59.375 C 11.2305 -44.873 22.3633 -27.2461 37.0605 -12.5977 Z"/>
  </g>
  <g id="Medium-M" transform="matrix(1 0 0 1 1688.18 1126)">
   <path d="M 72.4121 -72.3633 L 79.6387 -72.3633 L 92.3828 -73.1445 L 84.9609 -66.4551 L 65.2832 -46.7773 C 64.3555 -45.8496 63.9648 -44.7754 63.9648 -43.5547 C 63.9648 -41.3086 65.7715 -39.5996 68.2129 -39.5996 C 69.3848 -39.5996 70.3613 -39.9902 71.1914 -40.8203 L 90.8691 -60.5469 L 97.5586 -67.8223 L 96.7773 -55.1758 L 96.7773 -48.1445 C 96.7773 -45.8984 98.4863 -44.1895 100.732 -44.0918 C 103.076 -44.043 104.98 -45.8008 104.98 -48.0957 L 104.98 -75.5859 C 104.98 -78.8086 103.271 -80.5664 100.049 -80.5664 L 72.3633 -80.5664 C 70.0684 -80.5664 68.2617 -78.6621 68.3594 -76.3184 C 68.4082 -74.0234 70.166 -72.3633 72.4121 -72.3633 Z M 36.6211 -12.8418 C 51.0254 1.61133 68.5547 12.7441 82.8613 12.7441 C 89.2578 12.7441 94.873 10.498 99.3652 5.51758 C 102.002 2.58789 103.613 -0.78125 103.613 -4.15039 C 103.613 -6.73828 102.588 -9.27734 100.098 -11.0352 L 85.0586 -21.6797 C 82.7148 -23.3398 80.7617 -24.1211 79.0039 -24.1211 C 76.709 -24.1211 74.6582 -22.8516 72.4121 -20.6055 L 68.8477 -17.0898 C 68.3105 -16.5527 67.627 -16.3086 66.9922 -16.3086 C 66.2109 -16.3086 65.4785 -16.6016 64.9414 -16.8945 C 61.9141 -18.5547 56.6406 -23.0469 51.7578 -27.9297 C 46.875 -32.8125 42.334 -38.0371 40.7227 -41.1621 C 40.4297 -41.6992 40.1367 -42.3828 40.1367 -43.1641 C 40.1367 -43.75 40.332 -44.4336 40.918 -45.0195 L 44.4336 -48.584 C 46.6309 -50.8789 47.9492 -52.8809 47.9492 -55.1758 C 47.9492 -56.9824 47.168 -58.9355 45.5078 -61.2793 L 34.9121 -76.123 C 33.1055 -78.6621 30.5176 -79.7363 27.7832 -79.7363 C 24.4629 -79.7363 21.1426 -78.2715 18.2129 -75.4883 C 13.3789 -70.8984 11.2305 -65.1855 11.2305 -58.8867 C 11.2305 -44.5801 22.168 -27.2461 36.6211 -12.8418 Z"/>
  </g>
  <g id="Regular-M" transform="matrix(1 0 0 1 1392.18 1126)">
   <path d="M 71.875 -73.6816 L 79.2969 -73.6816 L 93.6523 -74.4629 L 85.4492 -66.9922 L 64.4043 -45.8984 C 63.623 -45.1172 63.2324 -44.2383 63.2324 -43.2129 C 63.2324 -41.3086 64.7949 -39.8438 66.8945 -39.8438 C 67.8711 -39.8438 68.7012 -40.1367 69.4336 -40.8691 L 90.4297 -61.9629 L 97.9492 -70.0684 L 97.1191 -55.7617 L 97.1191 -48.4863 C 97.1191 -46.582 98.584 -45.1172 100.488 -45.0195 C 102.441 -44.9219 104.102 -46.4844 104.102 -48.4863 L 104.102 -76.7578 C 104.102 -79.3457 102.832 -80.6641 100.244 -80.6641 L 71.875 -80.6641 C 69.873 -80.6641 68.2617 -79.0039 68.3594 -77.002 C 68.457 -75.0977 69.9707 -73.6816 71.875 -73.6816 Z M 36.0352 -13.1348 C 50.1465 0.976562 67.2852 11.8652 81.2988 11.8652 C 87.5977 11.8652 93.1152 9.66797 97.5586 4.78516 C 100.146 1.9043 101.758 -1.46484 101.758 -4.78516 C 101.758 -7.22656 100.83 -9.57031 98.5352 -11.2305 L 83.5449 -21.875 C 81.25 -23.4375 79.3457 -24.2188 77.5879 -24.2188 C 75.3906 -24.2188 73.3887 -22.9492 71.1426 -20.752 L 67.6758 -17.334 C 67.1387 -16.7969 66.4551 -16.5527 65.8203 -16.5527 C 65.0879 -16.5527 64.3555 -16.8457 63.8672 -17.0898 C 60.8398 -18.7012 55.6641 -23.1445 50.8301 -27.9297 C 46.0449 -32.7148 41.6016 -37.8906 40.0391 -40.918 C 39.7949 -41.4551 39.502 -42.1387 39.502 -42.8711 C 39.502 -43.5059 39.6973 -44.1406 40.2344 -44.6777 L 43.7012 -48.2422 C 45.8496 -50.4883 47.168 -52.4414 47.168 -54.6875 C 47.168 -56.4453 46.3379 -58.3496 44.7266 -60.6445 L 34.2285 -75.4395 C 32.5195 -77.7832 30.127 -78.8086 27.4902 -78.8086 C 24.2676 -78.8086 20.9473 -77.3438 18.0664 -74.5605 C 13.3301 -70.0195 11.2305 -64.4043 11.2305 -58.2031 C 11.2305 -44.1895 21.9238 -27.1973 36.0352 -13.1348 Z"/>
  </g>
  <g id="Light-M" transform="matrix(1 0 0 1 1096.22 1126)">
   <path d="M 70.3613 -75.0488 L 79.7363 -75.0488 L 94.3359 -75.6348 L 86.3281 -68.1152 L 63.7695 -45.5566 C 63.0859 -44.873 62.793 -44.1895 62.793 -43.3594 C 62.793 -41.8945 64.0137 -40.7715 65.6738 -40.7715 C 66.4062 -40.7715 67.0898 -41.0156 67.6758 -41.6016 L 90.2344 -64.209 L 97.7051 -72.168 L 97.1191 -57.6172 L 97.1191 -48.5352 C 97.1191 -47.0215 98.291 -45.8496 99.7559 -45.8008 C 101.318 -45.752 102.588 -46.9727 102.588 -48.5352 L 102.588 -77.5391 C 102.588 -79.4922 101.611 -80.5176 99.6094 -80.5176 L 70.3613 -80.5176 C 68.8477 -80.5176 67.5781 -79.1992 67.627 -77.6367 C 67.6758 -76.1719 68.8965 -75.0488 70.3613 -75.0488 Z M 35.4004 -13.6719 C 48.9746 -0.0976562 65.918 10.5957 79.9316 10.5957 C 86.2793 10.5957 91.7969 8.39844 96.2402 3.56445 C 98.7305 0.927734 100.635 -2.49023 100.635 -5.76172 C 100.635 -8.10547 99.707 -10.3516 97.3633 -12.0117 L 82.4219 -22.5098 C 80.4199 -23.9258 78.6133 -24.707 76.8555 -24.707 C 74.707 -24.707 72.6562 -23.5352 70.3613 -21.3379 L 66.7969 -17.8711 C 66.3086 -17.334 65.625 -17.1387 64.9902 -17.1387 C 64.3066 -17.1387 63.623 -17.3828 63.0859 -17.627 C 60.2051 -19.1406 54.9805 -23.291 50 -28.2715 C 45.0684 -33.252 40.7715 -38.4277 39.3555 -41.4062 C 39.1113 -41.9434 38.8672 -42.5781 38.8672 -43.1641 C 38.8672 -43.7988 39.0625 -44.3848 39.5996 -44.9219 L 43.0664 -48.584 C 45.2148 -50.9277 46.3867 -52.9785 46.3867 -55.127 C 46.3867 -56.8848 45.6543 -58.6914 44.1895 -60.7422 L 33.9844 -75.2441 C 32.2266 -77.6367 29.834 -78.7109 27.2461 -78.7109 C 24.1211 -78.7109 20.8496 -77.1973 17.9688 -74.4141 C 13.2812 -69.873 11.2305 -64.2578 11.2305 -58.0566 C 11.2305 -44.0918 21.7773 -27.2949 35.4004 -13.6719 Z"/>
  </g>
  <g id="Thin-M" transform="matrix(1 0 0 1 800.514 1126)">
   <path d="M 68.4082 -76.8066 L 80.3223 -76.8066 L 95.2637 -77.1484 L 87.4512 -69.6289 L 62.8906 -45.0195 C 62.4023 -44.5801 62.207 -44.1406 62.207 -43.6035 C 62.207 -42.6758 62.9883 -41.9922 64.0137 -41.9922 C 64.502 -41.9922 64.9414 -42.1875 65.332 -42.5293 L 89.8926 -67.1875 L 97.4121 -74.9512 L 97.168 -60.0586 L 97.168 -48.584 C 97.168 -47.6562 97.9004 -46.875 98.877 -46.875 C 99.8047 -46.8262 100.586 -47.6074 100.586 -48.584 L 100.586 -78.6133 C 100.586 -79.7363 100 -80.3223 98.7793 -80.3223 L 68.4082 -80.3223 C 67.4316 -80.3223 66.6016 -79.4922 66.6016 -78.5156 C 66.6504 -77.5879 67.4316 -76.8066 68.4082 -76.8066 Z M 34.5703 -14.4043 C 47.4609 -1.51367 64.0625 8.88672 78.0273 8.88672 C 84.5215 8.88672 89.9902 6.68945 94.5312 2.00195 C 96.875 -0.390625 99.0723 -3.80859 99.0723 -7.08008 C 99.0723 -9.22852 98.1934 -11.3281 95.8008 -13.0371 L 80.9082 -23.4375 C 79.248 -24.6094 77.5879 -25.293 75.8301 -25.293 C 73.7793 -25.293 71.6309 -24.3164 69.3359 -22.0703 L 65.6738 -18.6035 C 65.1855 -18.0664 64.5508 -17.8223 63.8672 -17.8223 C 63.2812 -17.8223 62.6465 -18.0664 62.1094 -18.3105 C 59.4238 -19.6777 54.0527 -23.5352 48.8281 -28.7598 C 43.7012 -33.8867 39.6973 -39.1602 38.4766 -41.9922 C 38.1836 -42.5781 38.0371 -43.1152 38.0371 -43.6035 C 38.0371 -44.1895 38.2324 -44.7754 38.7207 -45.2637 L 42.2363 -49.1211 C 44.3848 -51.5625 45.4102 -53.7109 45.4102 -55.7129 C 45.4102 -57.4707 44.7266 -59.1797 43.457 -60.8887 L 33.5938 -74.9512 C 31.7871 -77.4902 29.4434 -78.5645 26.9043 -78.5645 C 23.9258 -78.5645 20.7031 -77.0508 17.8223 -74.1699 C 13.2324 -69.6289 11.2305 -64.0137 11.2305 -57.9102 C 11.2305 -43.9941 21.5332 -27.3438 34.5703 -14.4043 Z"/>
  </g>
  <g id="Ultralight-M" transform="matrix(1 0 0 1 504.291 1126)">
   <path d="M 67.3828 -77.7344 L 80.6152 -77.7344 L 95.7031 -77.9785 L 88.0859 -70.4102 L 62.4023 -44.7754 C 62.0605 -44.4336 61.9629 -44.0918 61.9629 -43.75 C 61.9629 -43.0664 62.5 -42.627 63.1836 -42.627 C 63.5254 -42.627 63.8672 -42.7734 64.1113 -43.0176 L 89.7461 -68.75 L 97.2656 -76.3672 L 97.168 -61.2793 L 97.168 -48.584 C 97.168 -47.9492 97.7051 -47.4121 98.3887 -47.4121 C 99.0234 -47.4121 99.6094 -47.9492 99.6094 -48.584 L 99.6094 -79.1016 C 99.6094 -79.834 99.1699 -80.2734 98.3398 -80.2734 L 67.3828 -80.2734 C 66.6992 -80.2734 66.1133 -79.6387 66.1133 -79.0039 C 66.1133 -78.3203 66.6992 -77.7344 67.3828 -77.7344 Z M 34.1309 -14.7949 C 46.6797 -2.24609 63.1348 8.05664 77.0996 8.05664 C 83.6426 8.05664 89.0625 5.81055 93.6523 1.17188 C 95.8984 -1.02539 98.291 -4.44336 98.291 -7.76367 C 98.291 -9.81445 97.4121 -11.8652 94.9707 -13.5742 L 80.1758 -23.877 C 78.6621 -24.9512 77.0508 -25.6348 75.3418 -25.6348 C 73.3398 -25.6348 71.1426 -24.707 68.75 -22.4609 L 65.0879 -18.9453 C 64.5996 -18.457 63.9648 -18.2129 63.2812 -18.2129 C 62.7441 -18.2129 62.1582 -18.4082 61.6211 -18.6523 C 58.9844 -19.9707 53.5645 -23.6816 48.2422 -29.0039 C 43.0176 -34.2285 39.1602 -39.5508 37.9883 -42.334 C 37.7441 -42.8711 37.5977 -43.4082 37.5977 -43.7988 C 37.5977 -44.3848 37.793 -44.9219 38.3301 -45.4102 L 41.7969 -49.3652 C 43.9941 -51.8555 44.9219 -54.0527 44.9219 -56.0547 C 44.9219 -57.7637 44.2383 -59.375 43.1152 -60.9375 L 33.3984 -74.8047 C 31.5918 -77.3926 29.248 -78.5156 26.7578 -78.5156 C 23.8281 -78.5156 20.6543 -76.9531 17.7734 -74.0723 C 13.2324 -69.5312 11.2305 -63.916 11.2305 -57.8125 C 11.2305 -43.8965 21.4355 -27.3926 34.1309 -14.7949 Z"/>
  </g>
  <g id="Black-S" transform="matrix(1 0 0 1 2885.26 696)">
   <path d="M 30.7617 -16.6016 C 43.2129 -4.10156 58.1055 5.37109 70.2148 5.37109 C 75.5859 5.37109 80.3711 3.51562 84.1797 -0.732422 C 86.377 -3.17383 87.5 -5.81055 87.5 -8.59375 C 87.5 -11.2305 86.4258 -13.7695 83.9355 -15.5762 L 72.0215 -24.0723 C 69.9219 -25.5859 68.2129 -26.2207 66.6992 -26.2207 C 64.6973 -26.2207 62.9883 -25.0977 61.084 -23.1934 L 58.1055 -20.2148 C 57.666 -19.7754 57.0801 -19.5801 56.543 -19.5801 C 55.9082 -19.5801 55.2246 -19.8242 54.7852 -20.1172 C 52.1973 -21.6309 47.7539 -25.4883 43.7012 -29.541 C 39.6484 -33.5938 35.791 -38.0371 34.2773 -40.625 C 33.9844 -41.0645 33.7402 -41.748 33.7402 -42.3828 C 33.7402 -42.9199 33.9355 -43.5059 34.375 -43.9453 L 37.3535 -46.9238 C 39.2578 -48.8281 40.3809 -50.5371 40.3809 -52.5391 C 40.3809 -54.0527 39.7461 -55.7617 38.2324 -57.8613 L 29.7363 -69.7754 C 27.9785 -72.2656 25.3906 -73.291 22.7539 -73.291 C 19.9219 -73.291 17.2852 -72.2168 14.8926 -70.0195 C 10.6445 -66.2109 8.78906 -61.4258 8.78906 -56.0547 C 8.78906 -43.9453 18.2617 -29.0527 30.7617 -16.6016 Z M 58.5449 -59.6191 L 63.5742 -59.6191 L 68.1152 -60.3027 L 64.9902 -57.8613 L 54.2969 -47.168 C 53.1738 -46.0449 52.5879 -44.5801 52.5879 -42.9688 C 52.5879 -39.9902 54.8828 -37.8418 58.1055 -37.8418 C 59.5703 -37.8418 60.9863 -38.4277 62.0117 -39.4531 L 72.7051 -50.0488 L 75.1953 -52.9785 L 74.5605 -48.7793 L 74.5605 -44.0918 C 74.5605 -41.2109 76.8555 -39.0625 79.9316 -39.0625 C 82.959 -39.0625 85.2539 -41.1621 85.2539 -43.9941 L 85.2539 -62.7441 C 85.2539 -67.5781 82.4707 -70.3613 77.6367 -70.3613 L 58.4473 -70.3613 C 55.6152 -70.3613 53.5156 -68.0176 53.4668 -64.9902 C 53.418 -61.9141 55.6641 -59.6191 58.5449 -59.6191 Z"/>
  </g>
  <g id="Heavy-S" transform="matrix(1 0 0 1 2589.15 696)">
   <path d="M 30.2246 -16.8457 C 42.4316 -4.63867 56.9824 4.63867 68.8477 4.63867 C 74.1211 4.63867 78.7598 2.83203 82.5195 -1.31836 C 84.668 -3.75977 85.791 -6.39648 85.791 -9.13086 C 85.791 -11.6211 84.8145 -14.0137 82.4707 -15.6738 L 70.6055 -24.1699 C 68.5547 -25.6348 66.8945 -26.2695 65.3809 -26.2695 C 63.4277 -26.2695 61.7676 -25.1465 59.9121 -23.291 L 56.9824 -20.3613 C 56.543 -19.9219 56.0059 -19.7754 55.4688 -19.7754 C 54.834 -19.7754 54.1504 -20.0195 53.7598 -20.2637 C 51.1719 -21.7285 46.875 -25.5371 42.8711 -29.4922 C 38.916 -33.4473 35.1074 -37.793 33.6426 -40.332 C 33.3984 -40.7715 33.1543 -41.4551 33.1543 -42.0898 C 33.1543 -42.5781 33.3496 -43.1641 33.7891 -43.6035 L 36.6699 -46.5332 C 38.5254 -48.3887 39.6484 -50.0488 39.6484 -52.002 C 39.6484 -53.4668 39.0137 -55.1758 37.5488 -57.2266 L 29.1016 -69.0918 C 27.4414 -71.3867 25 -72.3633 22.5098 -72.3633 C 19.7266 -72.3633 17.0898 -71.2891 14.7461 -69.0918 C 10.5957 -65.332 8.78906 -60.6445 8.78906 -55.4199 C 8.78906 -43.5547 18.0176 -29.0039 30.2246 -16.8457 Z M 58.2031 -60.8398 L 63.1836 -60.8398 L 69.2871 -61.5234 L 65.332 -58.252 L 53.4668 -46.3867 C 52.4414 -45.3613 51.9043 -44.043 51.9043 -42.5781 C 51.9043 -39.9414 54.0039 -37.9883 56.8848 -37.9883 C 58.2031 -37.9883 59.4727 -38.4766 60.4004 -39.4043 L 72.3145 -51.2207 L 75.5859 -54.9805 L 74.9023 -49.1699 L 74.9023 -44.4336 C 74.9023 -41.8457 76.9531 -39.8926 79.7363 -39.8926 C 82.4219 -39.8438 84.5703 -41.7969 84.5703 -44.3848 L 84.5703 -63.8672 C 84.5703 -68.0664 82.1777 -70.459 77.9297 -70.459 L 58.1055 -70.459 C 55.5176 -70.459 53.6133 -68.3594 53.5645 -65.625 C 53.5645 -62.8418 55.5664 -60.8398 58.2031 -60.8398 Z"/>
  </g>
  <g id="Bold-S" transform="matrix(1 0 0 1 2293.13 696)">
   <path d="M 29.6387 -17.1387 C 41.5039 -5.22461 55.7617 3.80859 67.2852 3.80859 C 72.4121 3.80859 77.002 2.05078 80.6152 -2.00195 C 82.7637 -4.44336 83.8867 -7.08008 83.8867 -9.76562 C 83.8867 -12.0605 83.0078 -14.2578 80.8594 -15.8203 L 68.9941 -24.2676 C 66.9922 -25.6836 65.3809 -26.3184 63.916 -26.3184 C 62.0117 -26.3184 60.4004 -25.1953 58.5938 -23.3887 L 55.7617 -20.5566 C 55.3223 -20.1172 54.7852 -19.9707 54.248 -19.9707 C 53.6133 -19.9707 52.9785 -20.2148 52.5879 -20.459 C 50.0977 -21.875 45.8496 -25.5859 41.9922 -29.4434 C 38.0859 -33.3008 34.375 -37.5488 32.959 -40.0391 C 32.7148 -40.4785 32.5195 -41.1133 32.5195 -41.748 C 32.5195 -42.2363 32.666 -42.7734 33.1055 -43.2129 L 35.9375 -46.0938 C 37.7441 -47.9004 38.8184 -49.5117 38.8184 -51.416 C 38.8184 -52.832 38.1836 -54.4922 36.7676 -56.4941 L 28.3691 -68.3105 C 26.8066 -70.459 24.5605 -71.3379 22.2168 -71.3379 C 19.4824 -71.3379 16.8457 -70.2637 14.5508 -68.0664 C 10.5469 -64.4043 8.78906 -59.8145 8.78906 -54.6875 C 8.78906 -43.1152 17.7734 -29.0039 29.6387 -17.1387 Z M 57.8125 -62.1582 L 62.7441 -62.1582 L 70.5566 -62.8418 L 65.7227 -58.6914 L 52.5391 -45.459 C 51.6113 -44.5801 51.1719 -43.457 51.1719 -42.1875 C 51.1719 -39.8438 53.0273 -38.0859 55.5664 -38.0859 C 56.7383 -38.0859 57.7637 -38.5254 58.6426 -39.4043 L 71.8262 -52.5879 L 76.0254 -57.2266 L 75.3418 -49.6094 L 75.3418 -44.873 C 75.3418 -42.5781 77.0996 -40.8203 79.4922 -40.7715 C 81.8848 -40.7227 83.7891 -42.4805 83.7891 -44.8242 L 83.7891 -65.0879 C 83.7891 -68.6523 81.8359 -70.6055 78.2227 -70.6055 L 57.7637 -70.6055 C 55.4199 -70.6055 53.6621 -68.7012 53.7109 -66.3086 C 53.7109 -63.916 55.5176 -62.1582 57.8125 -62.1582 Z"/>
  </g>
  <g id="Semibold-S" transform="matrix(1 0 0 1 1996.9 696)">
   <path d="M 57.5195 -63.0859 L 62.4023 -63.0859 L 71.4355 -63.7695 L 66.0156 -59.0332 L 51.9043 -44.873 C 51.0742 -44.043 50.6348 -43.0664 50.6348 -41.8945 C 50.6348 -39.7949 52.3438 -38.1836 54.5898 -38.1836 C 55.6641 -38.1836 56.6406 -38.5742 57.373 -39.3555 L 71.5332 -53.4668 L 76.3184 -58.7891 L 75.5859 -49.9023 L 75.5859 -45.1172 C 75.5859 -43.0664 77.1973 -41.4551 79.3457 -41.4062 C 81.4941 -41.3574 83.252 -42.9688 83.252 -45.1172 L 83.252 -65.918 C 83.252 -69.043 81.5918 -70.7031 78.4668 -70.7031 L 57.4707 -70.7031 C 55.3711 -70.7031 53.7598 -68.9941 53.8086 -66.7969 C 53.8574 -64.6484 55.4688 -63.0859 57.5195 -63.0859 Z M 29.248 -17.334 C 40.918 -5.66406 54.8828 3.27148 66.2598 3.27148 C 71.2891 3.27148 75.7812 1.51367 79.2969 -2.49023 C 81.4453 -4.88281 82.5684 -7.51953 82.5684 -10.1562 C 82.5684 -12.3535 81.7383 -14.4531 79.7363 -15.8691 L 67.9199 -24.3164 C 65.918 -25.6836 64.3555 -26.3184 62.9395 -26.3184 C 61.084 -26.3184 59.4727 -25.2441 57.7148 -23.4863 L 54.9316 -20.7031 C 54.4922 -20.2637 53.9062 -20.1172 53.418 -20.1172 C 52.7832 -20.1172 52.1973 -20.3613 51.7578 -20.5566 C 49.3164 -21.9238 45.166 -25.5859 41.3574 -29.3945 C 37.5488 -33.2031 33.8867 -37.3535 32.5195 -39.8438 C 32.2754 -40.2344 32.0312 -40.8691 32.0312 -41.5039 C 32.0312 -41.9922 32.2266 -42.5293 32.666 -42.9688 L 35.4004 -45.752 C 37.207 -47.5586 38.2812 -49.1211 38.2812 -50.9766 C 38.2812 -52.3926 37.6465 -54.0039 36.2305 -55.957 L 27.832 -67.7734 C 26.3672 -69.7754 24.2676 -70.6543 21.9727 -70.6543 C 19.3359 -70.6543 16.6992 -69.5312 14.4043 -67.3828 C 10.498 -63.7207 8.78906 -59.2285 8.78906 -54.1992 C 8.78906 -42.8223 17.5781 -28.9551 29.248 -17.334 Z"/>
  </g>
  <g id="Medium-S" transform="matrix(1 0 0 1 1700.56 696)">
   <path d="M 57.3242 -63.7695 L 62.207 -63.7695 L 72.1191 -64.502 L 66.2109 -59.2285 L 51.416 -44.3848 C 50.6348 -43.6035 50.2441 -42.7246 50.2441 -41.6504 C 50.2441 -39.7461 51.8066 -38.2812 53.9062 -38.2812 C 54.8828 -38.2812 55.7129 -38.623 56.4453 -39.3555 L 71.2891 -54.1992 L 76.5137 -59.9609 L 75.7812 -50.1465 L 75.7812 -45.3613 C 75.7812 -43.4082 77.2461 -41.9434 79.1992 -41.8945 C 81.1523 -41.7969 82.8125 -43.3594 82.8125 -45.3125 L 82.8125 -66.5527 C 82.8125 -69.3359 81.3965 -70.8008 78.6133 -70.8008 L 57.2754 -70.8008 C 55.3223 -70.8008 53.7598 -69.1895 53.8574 -67.1387 C 53.9062 -65.2344 55.4199 -63.7695 57.3242 -63.7695 Z M 28.9062 -17.4805 C 40.4297 -5.95703 54.248 2.83203 65.4297 2.83203 C 70.4102 2.83203 74.8535 1.12305 78.3203 -2.83203 C 80.4199 -5.22461 81.5918 -7.86133 81.5918 -10.498 C 81.5918 -12.5977 80.8105 -14.5996 78.8574 -15.9668 L 67.0898 -24.3652 C 65.1367 -25.7324 63.5742 -26.3672 62.1582 -26.3672 C 60.3027 -26.3672 58.7891 -25.293 57.0312 -23.5352 L 54.248 -20.8008 C 53.8574 -20.3613 53.2715 -20.2148 52.7832 -20.2148 C 52.1484 -20.2148 51.5625 -20.459 51.1719 -20.6543 C 48.7305 -22.0215 44.6289 -25.6348 40.8691 -29.3945 C 37.1094 -33.1543 33.4961 -37.207 32.1289 -39.6973 C 31.9336 -40.0879 31.6895 -40.6738 31.6895 -41.3086 C 31.6895 -41.7969 31.8359 -42.334 32.2754 -42.7734 L 35.0098 -45.5078 C 36.7676 -47.2656 37.8418 -48.8281 37.8418 -50.6836 C 37.8418 -52.0508 37.207 -53.6621 35.8398 -55.6152 L 27.4414 -67.334 C 26.0742 -69.2871 24.0234 -70.1172 21.8262 -70.1172 C 19.2383 -70.1172 16.6016 -68.9941 14.3066 -66.8457 C 10.498 -63.2324 8.78906 -58.7402 8.78906 -53.8086 C 8.78906 -42.5781 17.4316 -28.9551 28.9062 -17.4805 Z"/>
  </g>
  <g id="Regular-S" transform="matrix(1 0 0 1 1404.31 696)">
   <path d="M 57.0312 -64.6973 L 61.8652 -64.6973 L 72.998 -65.4297 L 66.5039 -59.5703 L 50.7812 -43.7988 C 50.0488 -43.0664 49.7559 -42.334 49.7559 -41.4062 C 49.7559 -39.6973 51.1719 -38.3789 52.9785 -38.3789 C 53.8574 -38.3789 54.5898 -38.6719 55.2246 -39.3066 L 70.9473 -55.0781 L 76.8066 -61.5234 L 76.0742 -50.4395 L 76.0742 -45.6055 C 76.0742 -43.8965 77.3438 -42.5781 79.0527 -42.5293 C 80.7617 -42.4316 82.2754 -43.8477 82.2754 -45.6055 L 82.2754 -67.3828 C 82.2754 -69.7266 81.1523 -70.8984 78.8574 -70.8984 L 57.0312 -70.8984 C 55.2734 -70.8984 53.8574 -69.4336 53.9551 -67.627 C 54.0039 -65.918 55.3711 -64.6973 57.0312 -64.6973 Z M 28.5156 -17.6758 C 39.7949 -6.34766 53.418 2.29492 64.4043 2.29492 C 69.2871 2.29492 73.6328 0.585938 77.0508 -3.32031 C 79.1504 -5.66406 80.2734 -8.30078 80.2734 -10.8887 C 80.2734 -12.8906 79.541 -14.7461 77.7344 -16.0156 L 65.9668 -24.4141 C 64.0625 -25.7812 62.5488 -26.3672 61.1816 -26.3672 C 59.375 -26.3672 57.8613 -25.3418 56.1035 -23.6328 L 53.418 -20.9473 C 52.9785 -20.5078 52.4414 -20.3613 51.9531 -20.3613 C 51.3672 -20.3613 50.7812 -20.6055 50.3906 -20.8008 C 47.9492 -22.0703 43.9453 -25.6836 40.2344 -29.3457 C 36.5723 -33.0566 32.959 -37.0605 31.6895 -39.4531 C 31.4941 -39.8926 31.25 -40.4297 31.25 -41.0645 C 31.25 -41.5527 31.3965 -42.0898 31.8359 -42.5293 L 34.5215 -45.2148 C 36.2305 -46.9238 37.3047 -48.4863 37.3047 -50.2441 C 37.3047 -51.6113 36.6699 -53.1738 35.3027 -55.0781 L 26.9531 -66.7969 C 25.6348 -68.6523 23.7305 -69.4336 21.6309 -69.4336 C 19.0918 -69.4336 16.4551 -68.3105 14.209 -66.1133 C 10.4492 -62.5488 8.78906 -58.1543 8.78906 -53.3203 C 8.78906 -42.2852 17.2363 -28.9062 28.5156 -17.6758 Z"/>
  </g>
  <g id="Light-S" transform="matrix(1 0 0 1 1108.26 696)">
   <path d="M 55.7129 -65.918 L 62.3047 -65.918 L 73.6328 -66.4551 L 67.2852 -60.5469 L 50.1953 -43.457 C 49.6094 -42.8711 49.3652 -42.2852 49.3652 -41.5527 C 49.3652 -40.2344 50.4395 -39.209 51.9043 -39.209 C 52.5879 -39.209 53.1738 -39.4531 53.6621 -39.9414 L 70.752 -57.0801 L 76.6113 -63.3789 L 76.0742 -52.0508 L 76.0742 -45.6543 C 76.0742 -44.3359 77.0996 -43.2617 78.418 -43.2129 C 79.7852 -43.1641 80.957 -44.2383 80.957 -45.6543 L 80.957 -68.1152 C 80.957 -69.873 80.0781 -70.752 78.2715 -70.752 L 55.7129 -70.752 C 54.2969 -70.752 53.1738 -69.6289 53.2715 -68.2129 C 53.3203 -66.8945 54.3945 -65.918 55.7129 -65.918 Z M 27.9785 -18.1641 C 38.8184 -7.32422 52.1484 1.17188 63.1348 1.17188 C 68.1152 1.17188 72.4121 -0.585938 75.8789 -4.3457 C 77.8809 -6.54297 79.248 -9.17969 79.248 -11.7676 C 79.248 -13.623 78.5645 -15.4297 76.709 -16.748 L 64.9902 -25 C 63.3301 -26.2207 61.8652 -26.8066 60.498 -26.8066 C 58.7891 -26.8066 57.1777 -25.8301 55.4199 -24.1211 L 52.6855 -21.4355 C 52.2461 -20.9961 51.709 -20.8496 51.2207 -20.8496 C 50.6348 -20.8496 50.0977 -21.0449 49.707 -21.2402 C 47.4121 -22.4609 43.3105 -25.8301 39.502 -29.6387 C 35.6445 -33.4961 32.2754 -37.5488 31.1035 -39.8926 C 30.9082 -40.2832 30.7129 -40.8203 30.7129 -41.3574 C 30.7129 -41.7969 30.8594 -42.334 31.25 -42.7246 L 33.9844 -45.5566 C 35.6934 -47.3633 36.6211 -48.9258 36.6211 -50.6836 C 36.6211 -52.0508 36.0352 -53.4668 34.8145 -55.1758 L 26.709 -66.6504 C 25.3418 -68.5059 23.4863 -69.3359 21.4355 -69.3359 C 18.9453 -69.3359 16.3574 -68.1641 14.1113 -65.9668 C 10.4004 -62.4023 8.78906 -58.0078 8.78906 -53.1738 C 8.78906 -42.1875 17.0898 -28.9551 27.9785 -18.1641 Z"/>
  </g>
  <g id="Thin-S" transform="matrix(1 0 0 1 812.428 696)">
   <path d="M 53.9551 -67.4805 L 62.793 -67.4805 L 74.4141 -67.7734 L 68.3105 -61.9141 L 49.4141 -43.0176 C 49.0234 -42.627 48.877 -42.2363 48.877 -41.748 C 48.877 -40.918 49.5605 -40.2832 50.4883 -40.2832 C 50.8789 -40.2832 51.2695 -40.4785 51.6113 -40.7715 L 70.5078 -59.7168 L 76.3672 -65.8203 L 76.123 -54.1992 L 76.123 -45.6543 C 76.123 -44.8242 76.7578 -44.1406 77.6367 -44.1406 C 78.4668 -44.0918 79.1992 -44.8242 79.1992 -45.6543 L 79.1992 -68.9941 C 79.1992 -70.0195 78.6621 -70.6055 77.5391 -70.6055 L 53.9551 -70.6055 C 53.0762 -70.6055 52.3438 -69.873 52.3926 -68.9941 C 52.3926 -68.1641 53.125 -67.4805 53.9551 -67.4805 Z M 27.2461 -18.7988 C 37.4512 -8.54492 50.5371 -0.341797 61.4746 -0.341797 C 66.5527 -0.341797 70.8496 -2.05078 74.4141 -5.76172 C 76.2207 -7.66602 77.9297 -10.3516 77.9297 -12.9395 C 77.9297 -14.6484 77.1973 -16.3086 75.3418 -17.627 L 63.6719 -25.8301 C 62.3047 -26.7578 60.9863 -27.3438 59.6191 -27.3438 C 57.959 -27.3438 56.2988 -26.5137 54.4922 -24.7559 L 51.6602 -22.0703 C 51.2695 -21.6309 50.7812 -21.4844 50.2441 -21.4844 C 49.7559 -21.4844 49.2676 -21.6309 48.8281 -21.8262 C 46.6797 -22.9492 42.5293 -26.0254 38.4766 -30.0781 C 34.4727 -34.0332 31.2988 -38.1836 30.2734 -40.4297 C 30.0781 -40.8691 29.9805 -41.3086 29.9805 -41.6992 C 29.9805 -42.1387 30.127 -42.627 30.5176 -43.0176 L 33.252 -45.9961 C 34.9609 -47.9004 35.7422 -49.5605 35.7422 -51.1719 C 35.7422 -52.5391 35.2051 -53.9062 34.1797 -55.2734 L 26.3672 -66.4062 C 25 -68.3594 23.1445 -69.2383 21.1426 -69.2383 C 18.75 -69.2383 16.2598 -68.0176 14.0137 -65.8203 C 10.4004 -62.2559 8.78906 -57.8613 8.78906 -53.0273 C 8.78906 -42.0898 16.9434 -29.0527 27.2461 -18.7988 Z"/>
  </g>
  <g id="Ultralight-S" transform="matrix(1 0 0 1 516.181 696)">
   <path d="M 53.0273 -68.2617 L 63.0859 -68.2617 L 74.8535 -68.5059 L 68.8477 -62.5977 L 49.0234 -42.7734 C 48.6816 -42.4805 48.584 -42.1875 48.584 -41.8457 C 48.584 -41.2598 49.0723 -40.8203 49.707 -40.8203 C 50 -40.8203 50.3418 -41.0156 50.5371 -41.2109 L 70.3613 -61.084 L 76.2695 -67.0898 L 76.123 -55.3223 L 76.123 -45.7031 C 76.123 -45.1172 76.6113 -44.6289 77.1973 -44.6289 C 77.7832 -44.6289 78.2715 -45.1172 78.2715 -45.7031 L 78.2715 -69.4824 C 78.2715 -70.166 77.8809 -70.5078 77.1484 -70.5078 L 53.0273 -70.5078 C 52.4414 -70.5078 51.9043 -69.9707 51.9043 -69.3848 C 51.9043 -68.7988 52.4414 -68.2617 53.0273 -68.2617 Z M 26.8555 -19.0918 C 36.7676 -9.17969 49.707 -1.07422 60.6445 -1.07422 C 65.7715 -1.07422 70.0195 -2.83203 73.6328 -6.49414 C 75.3906 -8.25195 77.1973 -10.9375 77.1973 -13.5254 C 77.1973 -15.1855 76.5137 -16.7969 74.6094 -18.1152 L 62.9883 -26.2207 C 61.7676 -27.0996 60.498 -27.6367 59.1309 -27.6367 C 57.5684 -27.6367 55.8594 -26.8555 54.0039 -25.0977 L 51.123 -22.3633 C 50.7324 -21.9727 50.2441 -21.7773 49.707 -21.7773 C 49.2676 -21.7773 48.8281 -21.9727 48.3887 -22.168 C 46.3379 -23.1934 42.0898 -26.123 37.9395 -30.2734 C 33.8867 -34.375 30.8105 -38.4766 29.8828 -40.7227 C 29.6875 -41.1621 29.5898 -41.5527 29.5898 -41.8945 C 29.5898 -42.334 29.7363 -42.7734 30.127 -43.1641 L 32.8613 -46.2402 C 34.5703 -48.1934 35.3027 -49.9023 35.3027 -51.4648 C 35.3027 -52.832 34.7656 -54.1016 33.8867 -55.3711 L 26.2207 -66.3086 C 24.8047 -68.2617 22.9492 -69.1406 20.9961 -69.1406 C 18.6523 -69.1406 16.1621 -67.9199 13.916 -65.6738 C 10.3516 -62.1094 8.78906 -57.7148 8.78906 -52.9297 C 8.78906 -42.041 16.7969 -29.1016 26.8555 -19.0918 Z"/>
  </g>
 </g>
</svg>
