<?xml version="1.0" encoding="UTF-8"?>
<!--Generator: Apple Native CoreSVG 149-->
<!DOCTYPE svg
PUBLIC "-//W3C//DTD SVG 1.1//EN"
       "http://www.w3.org/Graphics/SVG/1.1/DTD/svg11.dtd">
<svg version="1.1" xmlns="http://www.w3.org/2000/svg" xmlns:xlink="http://www.w3.org/1999/xlink" width="3300" height="2200">
 <!--glyph: "uni100AD4.medium", point size: 100.000000, font version: "Version 16.0d18e1", template writer version: "8"-->
 <g id="Notes">
  <rect height="2200" id="artboard" style="fill:white;opacity:1" width="3300" x="0" y="0"/>
  <line id="" style="fill:none;stroke:black;opacity:1;stroke-width:0.5;" x1="263" x2="3036" y1="292" y2="292"/>
  <text style="stroke:none;fill:black;font-family:-apple-system,&quot;SF Pro Display&quot;,&quot;SF Pro Text&quot;,Helvetica,sans-serif;font-weight:bold;" transform="matrix(1 0 0 1 263 322)">Weight/Scale Variations</text>
  <text style="stroke:none;fill:black;font-family:-apple-system,&quot;SF Pro Display&quot;,&quot;SF Pro Text&quot;,Helvetica,sans-serif;text-anchor:middle;" transform="matrix(1 0 0 1 559.711 322)">Ultralight</text>
  <text style="stroke:none;fill:black;font-family:-apple-system,&quot;SF Pro Display&quot;,&quot;SF Pro Text&quot;,Helvetica,sans-serif;text-anchor:middle;" transform="matrix(1 0 0 1 856.422 322)">Thin</text>
  <text style="stroke:none;fill:black;font-family:-apple-system,&quot;SF Pro Display&quot;,&quot;SF Pro Text&quot;,Helvetica,sans-serif;text-anchor:middle;" transform="matrix(1 0 0 1 1153.13 322)">Light</text>
  <text style="stroke:none;fill:black;font-family:-apple-system,&quot;SF Pro Display&quot;,&quot;SF Pro Text&quot;,Helvetica,sans-serif;text-anchor:middle;" transform="matrix(1 0 0 1 1449.84 322)">Regular</text>
  <text style="stroke:none;fill:black;font-family:-apple-system,&quot;SF Pro Display&quot;,&quot;SF Pro Text&quot;,Helvetica,sans-serif;text-anchor:middle;" transform="matrix(1 0 0 1 1746.56 322)">Medium</text>
  <text style="stroke:none;fill:black;font-family:-apple-system,&quot;SF Pro Display&quot;,&quot;SF Pro Text&quot;,Helvetica,sans-serif;text-anchor:middle;" transform="matrix(1 0 0 1 2043.27 322)">Semibold</text>
  <text style="stroke:none;fill:black;font-family:-apple-system,&quot;SF Pro Display&quot;,&quot;SF Pro Text&quot;,Helvetica,sans-serif;text-anchor:middle;" transform="matrix(1 0 0 1 2339.98 322)">Bold</text>
  <text style="stroke:none;fill:black;font-family:-apple-system,&quot;SF Pro Display&quot;,&quot;SF Pro Text&quot;,Helvetica,sans-serif;text-anchor:middle;" transform="matrix(1 0 0 1 2636.69 322)">Heavy</text>
  <text style="stroke:none;fill:black;font-family:-apple-system,&quot;SF Pro Display&quot;,&quot;SF Pro Text&quot;,Helvetica,sans-serif;text-anchor:middle;" transform="matrix(1 0 0 1 2933.4 322)">Black</text>
  <line id="" style="fill:none;stroke:black;opacity:1;stroke-width:0.5;" x1="263" x2="3036" y1="1903" y2="1903"/>
  <g id="" transform="matrix(1 0 0 1 263 1933)">
   <path d="M9.24805 0.830078C13.5547 0.830078 17.1387-2.74414 17.1387-7.05078C17.1387-11.3574 13.5449-14.9316 9.23828-14.9316C4.94141-14.9316 1.36719-11.3574 1.36719-7.05078C1.36719-2.74414 4.95117 0.830078 9.24805 0.830078ZM9.24805-0.654297C5.70312-0.654297 2.87109-3.49609 2.87109-7.05078C2.87109-10.6055 5.69336-13.4473 9.23828-13.4473C12.793-13.4473 15.6348-10.6055 15.6445-7.05078C15.6543-3.49609 12.8027-0.654297 9.24805-0.654297ZM6.39648-6.31836L8.50586-6.31836L8.50586-4.19922C8.50586-3.75977 8.79883-3.45703 9.22852-3.45703C9.67773-3.45703 9.9707-3.75977 9.9707-4.19922L9.9707-6.31836L12.0996-6.31836C12.5391-6.31836 12.8418-6.61133 12.8418-7.04102C12.8418-7.48047 12.5391-7.7832 12.0996-7.7832L9.9707-7.7832L9.9707-9.89258C9.9707-10.3418 9.67773-10.6445 9.22852-10.6445C8.79883-10.6445 8.50586-10.3418 8.50586-9.89258L8.50586-7.7832L6.39648-7.7832C5.94727-7.7832 5.64453-7.48047 5.64453-7.04102C5.64453-6.61133 5.94727-6.31836 6.39648-6.31836Z"/>
  </g>
  <g id="" transform="matrix(1 0 0 1 281.506 1933)">
   <path d="M11.709 2.91016C17.1582 2.91016 21.6699-1.61133 21.6699-7.05078C21.6699-12.5 17.1484-17.0117 11.6992-17.0117C6.25977-17.0117 1.74805-12.5 1.74805-7.05078C1.74805-1.61133 6.26953 2.91016 11.709 2.91016ZM11.709 1.25C7.09961 1.25 3.41797-2.44141 3.41797-7.05078C3.41797-11.6602 7.08984-15.3516 11.6992-15.3516C16.3086-15.3516 20-11.6602 20.0098-7.05078C20.0195-2.44141 16.3184 1.25 11.709 1.25ZM7.98828-6.23047L10.8789-6.23047L10.8789-3.32031C10.8789-2.83203 11.2109-2.5 11.6895-2.5C12.1777-2.5 12.5195-2.83203 12.5195-3.32031L12.5195-6.23047L15.4297-6.23047C15.918-6.23047 16.25-6.5625 16.25-7.04102C16.25-7.5293 15.918-7.87109 15.4297-7.87109L12.5195-7.87109L12.5195-10.7617C12.5195-11.2695 12.1777-11.6016 11.6895-11.6016C11.2109-11.6016 10.8789-11.2598 10.8789-10.7617L10.8789-7.87109L7.98828-7.87109C7.48047-7.87109 7.14844-7.5293 7.14844-7.04102C7.14844-6.5625 7.49023-6.23047 7.98828-6.23047Z"/>
  </g>
  <g id="" transform="matrix(1 0 0 1 304.924 1933)">
   <path d="M14.9707 5.66406C21.9336 5.66406 27.6953-0.0976562 27.6953-7.05078C27.6953-14.0137 21.9238-19.7754 14.9609-19.7754C8.00781-19.7754 2.25586-14.0137 2.25586-7.05078C2.25586-0.0976562 8.01758 5.66406 14.9707 5.66406ZM14.9707 3.84766C8.93555 3.84766 4.08203-1.01562 4.08203-7.05078C4.08203-13.0957 8.92578-17.9492 14.9609-17.9492C21.0059-17.9492 25.8594-13.0957 25.8691-7.05078C25.8789-1.01562 21.0156 3.84766 14.9707 3.84766ZM10.0586-6.14258L14.0625-6.14258L14.0625-2.12891C14.0625-1.5918 14.4336-1.2207 14.9512-1.2207C15.4883-1.2207 15.8594-1.5918 15.8594-2.12891L15.8594-6.14258L19.8828-6.14258C20.4102-6.14258 20.791-6.51367 20.791-7.03125C20.791-7.56836 20.4199-7.94922 19.8828-7.94922L15.8594-7.94922L15.8594-11.9531C15.8594-12.5098 15.4883-12.8809 14.9512-12.8809C14.4336-12.8809 14.0625-12.5 14.0625-11.9531L14.0625-7.94922L10.0586-7.94922C9.50195-7.94922 9.13086-7.56836 9.13086-7.03125C9.13086-6.51367 9.51172-6.14258 10.0586-6.14258Z"/>
  </g>
  <text style="stroke:none;fill:black;font-family:-apple-system,&quot;SF Pro Display&quot;,&quot;SF Pro Text&quot;,Helvetica,sans-serif;font-weight:bold;" transform="matrix(1 0 0 1 263 1953)">Design Variations</text>
  <text style="stroke:none;fill:black;font-family:-apple-system,&quot;SF Pro Display&quot;,&quot;SF Pro Text&quot;,Helvetica,sans-serif;" transform="matrix(1 0 0 1 263 1971)">Symbols are supported in up to nine weights and three scales.</text>
  <text style="stroke:none;fill:black;font-family:-apple-system,&quot;SF Pro Display&quot;,&quot;SF Pro Text&quot;,Helvetica,sans-serif;" transform="matrix(1 0 0 1 263 1989)">For optimal layout with text and other symbols, vertically align</text>
  <text style="stroke:none;fill:black;font-family:-apple-system,&quot;SF Pro Display&quot;,&quot;SF Pro Text&quot;,Helvetica,sans-serif;" transform="matrix(1 0 0 1 263 2007)">symbols with the adjacent text.</text>
  <line id="" style="fill:none;stroke:#00AEEF;stroke-width:0.5;opacity:1.0;" x1="776" x2="776" y1="1919" y2="1933"/>
  <g id="" transform="matrix(1 0 0 1 776 1933)">
   <path d="M3.31055 0.126953C3.82812 0.126953 4.08203-0.0683594 4.26758-0.605469L5.52734-4.0625L11.2891-4.0625L12.5488-0.605469C12.7344-0.0683594 12.9883 0.126953 13.4961 0.126953C14.0137 0.126953 14.3457-0.185547 14.3457-0.673828C14.3457-0.839844 14.3164-0.986328 14.2383-1.20117L9.6582-13.3887C9.43359-13.9941 9.0332-14.2871 8.4082-14.2871C7.80273-14.2871 7.39258-13.9941 7.17773-13.3984L2.59766-1.19141C2.51953-0.976562 2.49023-0.830078 2.49023-0.664062C2.49023-0.175781 2.80273 0.126953 3.31055 0.126953ZM6.00586-5.53711L8.37891-12.1094L8.42773-12.1094L10.8008-5.53711Z"/>
  </g>
  <line id="" style="fill:none;stroke:#00AEEF;stroke-width:0.5;opacity:1.0;" x1="792.836" x2="792.836" y1="1919" y2="1933"/>
  <text style="stroke:none;fill:black;font-family:-apple-system,&quot;SF Pro Display&quot;,&quot;SF Pro Text&quot;,Helvetica,sans-serif;font-weight:bold;" transform="matrix(1 0 0 1 776 1953)">Margins</text>
  <text style="stroke:none;fill:black;font-family:-apple-system,&quot;SF Pro Display&quot;,&quot;SF Pro Text&quot;,Helvetica,sans-serif;" transform="matrix(1 0 0 1 776 1971)">Leading and trailing margins on the left and right side of each symbol</text>
  <text style="stroke:none;fill:black;font-family:-apple-system,&quot;SF Pro Display&quot;,&quot;SF Pro Text&quot;,Helvetica,sans-serif;" transform="matrix(1 0 0 1 776 1989)">can be adjusted by modifying the x-location of the margin guidelines.</text>
  <text style="stroke:none;fill:black;font-family:-apple-system,&quot;SF Pro Display&quot;,&quot;SF Pro Text&quot;,Helvetica,sans-serif;" transform="matrix(1 0 0 1 776 2007)">Modifications are automatically applied proportionally to all</text>
  <text style="stroke:none;fill:black;font-family:-apple-system,&quot;SF Pro Display&quot;,&quot;SF Pro Text&quot;,Helvetica,sans-serif;" transform="matrix(1 0 0 1 776 2025)">scales and weights.</text>
  <g id="" transform="matrix(1 0 0 1 1289 1933)">
   <path d="M2.8418 1.86523L4.54102 3.57422C5.40039 4.44336 6.38672 4.38477 7.31445 3.35938L17.4902-7.85156C17.7539-7.76367 18.0273-7.7832 18.3398-7.8418L19.4043-8.03711L20.0684-7.36328L20.0293-6.80664C19.9902-6.30859 20.1172-5.92773 20.6055-5.44922L21.3672-4.70703C21.8457-4.22852 22.4609-4.19922 22.9297-4.66797L25.8398-7.58789C26.3086-8.05664 26.2891-8.65234 25.8105-9.13086L25.0391-9.89258C24.5605-10.3711 24.1895-10.5273 23.7109-10.4883L23.1348-10.4395L22.4902-11.0742L22.7344-12.1973C22.8613-12.7637 22.7051-13.2031 22.1191-13.7891L19.9219-15.9766C16.582-19.2969 12.1484-19.2188 9.25781-16.3281C8.83789-15.918 8.80859-15.3418 9.04297-14.9512C9.27734-14.5898 9.73633-14.3555 10.3809-14.5215C11.8457-14.8633 13.3691-14.9219 14.7949-13.9844L14.209-12.5293C14.0137-12.0508 13.9844-11.6504 14.1113-11.2891L3.04688-0.898438C2.06055 0.0195312 1.98242 0.996094 2.8418 1.86523ZM10.752-15.957C13.1836-17.7344 16.4746-17.4316 18.7012-15.2051L21.1328-12.793C21.3672-12.5586 21.4062-12.373 21.3379-12.0312L21.0156-10.5469L22.5195-9.0625L23.5059-9.12109C23.7598-9.13086 23.8379-9.11133 24.0332-8.91602L24.6094-8.33984L22.168-5.89844L21.5918-6.47461C21.3965-6.66992 21.3672-6.74805 21.377-7.01172L21.4453-7.98828L19.9512-9.47266L18.4277-9.21875C18.1055-9.15039 17.959-9.17969 17.7148-9.41406L15.7129-11.416C15.459-11.6504 15.4297-11.8164 15.5859-12.1875L16.4648-14.2773C14.9023-15.7324 12.8711-16.3574 10.8398-15.7617C10.6836-15.7227 10.625-15.8496 10.752-15.957ZM5.27344 2.30469L4.10156 1.14258C3.63281 0.683594 3.74023 0.341797 4.14062-0.0195312L14.9512-10.1953L16.416-8.71094L6.42578 2.27539C6.07422 2.67578 5.74219 2.77344 5.27344 2.30469Z"/>
  </g>
  <text style="stroke:none;fill:black;font-family:-apple-system,&quot;SF Pro Display&quot;,&quot;SF Pro Text&quot;,Helvetica,sans-serif;font-weight:bold;" transform="matrix(1 0 0 1 1289 1953)">Exporting</text>
  <text style="stroke:none;fill:black;font-family:-apple-system,&quot;SF Pro Display&quot;,&quot;SF Pro Text&quot;,Helvetica,sans-serif;" transform="matrix(1 0 0 1 1289 1971)">Symbols should be outlined when exporting to ensure the</text>
  <text style="stroke:none;fill:black;font-family:-apple-system,&quot;SF Pro Display&quot;,&quot;SF Pro Text&quot;,Helvetica,sans-serif;" transform="matrix(1 0 0 1 1289 1989)">design is preserved when submitting to Xcode.</text>
  <text id="template-version" style="stroke:none;fill:black;font-family:-apple-system,&quot;SF Pro Display&quot;,&quot;SF Pro Text&quot;,Helvetica,sans-serif;text-anchor:end;" transform="matrix(1 0 0 1 3036 1933)">Template v.2.0</text>
  <text style="stroke:none;fill:black;font-family:-apple-system,&quot;SF Pro Display&quot;,&quot;SF Pro Text&quot;,Helvetica,sans-serif;text-anchor:end;" transform="matrix(1 0 0 1 3036 1951)">Requires Xcode 12 or greater</text>
  <text style="stroke:none;fill:black;font-family:-apple-system,&quot;SF Pro Display&quot;,&quot;SF Pro Text&quot;,Helvetica,sans-serif;text-anchor:end;" transform="matrix(1 0 0 1 3036 1969)">Generated from graduationcap.fill</text>
  <text style="stroke:none;fill:black;font-family:-apple-system,&quot;SF Pro Display&quot;,&quot;SF Pro Text&quot;,Helvetica,sans-serif;text-anchor:end;" transform="matrix(1 0 0 1 3036 1987)">Typeset at 100 points</text>
  <text style="stroke:none;fill:black;font-family:-apple-system,&quot;SF Pro Display&quot;,&quot;SF Pro Text&quot;,Helvetica,sans-serif;" transform="matrix(1 0 0 1 263 726)">Small</text>
  <text style="stroke:none;fill:black;font-family:-apple-system,&quot;SF Pro Display&quot;,&quot;SF Pro Text&quot;,Helvetica,sans-serif;" transform="matrix(1 0 0 1 263 1156)">Medium</text>
  <text style="stroke:none;fill:black;font-family:-apple-system,&quot;SF Pro Display&quot;,&quot;SF Pro Text&quot;,Helvetica,sans-serif;" transform="matrix(1 0 0 1 263 1586)">Large</text>
 </g>
 <g id="Guides">
  <g id="H-reference" style="fill:#27AAE1;stroke:none;" transform="matrix(1 0 0 1 339 696)">
   <path d="M0.976562 0L3.66211 0L12.9883-24.4629L45.752-24.4629L55.127 0L57.7637 0L30.6152-70.459L28.125-70.459ZM29.3457-67.1387L29.4434-67.1387L44.873-26.709L13.8672-26.709Z"/>
  </g>
  <line id="Baseline-S" style="fill:none;stroke:#27AAE1;opacity:1;stroke-width:0.5;" x1="263" x2="3036" y1="696" y2="696"/>
  <line id="Capline-S" style="fill:none;stroke:#27AAE1;opacity:1;stroke-width:0.5;" x1="263" x2="3036" y1="625.541" y2="625.541"/>
  <g id="H-reference" style="fill:#27AAE1;stroke:none;" transform="matrix(1 0 0 1 339 1126)">
   <path d="M0.976562 0L3.66211 0L12.9883-24.4629L45.752-24.4629L55.127 0L57.7637 0L30.6152-70.459L28.125-70.459ZM29.3457-67.1387L29.4434-67.1387L44.873-26.709L13.8672-26.709Z"/>
  </g>
  <line id="Baseline-M" style="fill:none;stroke:#27AAE1;opacity:1;stroke-width:0.5;" x1="263" x2="3036" y1="1126" y2="1126"/>
  <line id="Capline-M" style="fill:none;stroke:#27AAE1;opacity:1;stroke-width:0.5;" x1="263" x2="3036" y1="1055.54" y2="1055.54"/>
  <g id="H-reference" style="fill:#27AAE1;stroke:none;" transform="matrix(1 0 0 1 339 1556)">
   <path d="M0.976562 0L3.66211 0L12.9883-24.4629L45.752-24.4629L55.127 0L57.7637 0L30.6152-70.459L28.125-70.459ZM29.3457-67.1387L29.4434-67.1387L44.873-26.709L13.8672-26.709Z"/>
  </g>
  <line id="Baseline-L" style="fill:none;stroke:#27AAE1;opacity:1;stroke-width:0.5;" x1="263" x2="3036" y1="1556" y2="1556"/>
  <line id="Capline-L" style="fill:none;stroke:#27AAE1;opacity:1;stroke-width:0.5;" x1="263" x2="3036" y1="1485.54" y2="1485.54"/>
  <line id="left-margin" style="fill:none;stroke:#00AEEF;stroke-width:0.5;opacity:1.0;" x1="1371.89" x2="1371.89" y1="1030.79" y2="1150.12"/>
  <line id="right-margin" style="fill:none;stroke:#00AEEF;stroke-width:0.5;opacity:1.0;" x1="1527.8" x2="1527.8" y1="1030.79" y2="1150.12"/>
 </g>
 <g id="Symbols">
  <g id="Black-L" transform="matrix(1 0 0 1 2828.59 1556)">
   <path d="M184.717-68.4082L123.584-96.3379C116.504-99.5117 110.498-101.074 104.834-101.025C99.1699-101.074 93.1152-99.5117 86.0352-96.3379L24.9512-68.4082C19.3848-65.8691 16.0645-61.084 16.0645-55.6641C16.0645-50.1953 19.3848-45.3125 24.9512-42.9199L44.043-34.668L88.2812-54.9316C88.2812-55.1758 88.2812-55.4199 88.2812-55.6641C88.2812-62.1094 96.4355-66.2598 104.932-66.2598C113.33-66.2598 121.484-62.207 121.484-55.6641C121.484-49.1211 113.379-44.873 104.932-44.873C102.197-44.873 99.5605-45.3125 97.168-46.0938L57.373-28.0762L86.0352-14.9902C93.1152-11.7188 99.1699-10.2539 104.834-10.3027C110.498-10.2539 116.504-11.7676 123.584-14.9902L184.717-42.9199C190.283-45.459 193.555-50.1953 193.555-55.6641C193.555-61.084 190.283-65.8691 184.717-68.4082ZM57.2754-15.5762L57.2754 17.1875C69.3848 24.2676 86.2305 28.3691 104.834 28.3691C141.602 28.3691 171.387 12.2559 171.387-10.0586L171.387-24.3652L128.32-4.58984C119.873-0.732422 112.012 1.17188 104.834 1.07422C97.6562 1.17188 89.8438-0.732422 81.3477-4.58984ZM38.2324-24.2676L38.2324-10.0586C38.2324-4.58984 40.3809 1.02539 44.1895 6.00586L44.1895-21.582ZM36.8652 32.1289L36.8652 47.7051C36.8652 54.4434 41.3574 58.8867 48.0469 58.8867L53.3203 58.8867C60.0586 58.8867 64.502 54.4434 64.502 47.7051L64.502 32.1289C64.502 26.8066 61.7188 22.9492 57.2754 21.5332L57.2754 17.1875C51.8066 13.9648 47.3633 10.2051 44.1895 6.00586L44.1895 21.4844C39.6973 22.9004 36.8652 26.8066 36.8652 32.1289Z"/>
  </g>
  <g id="Heavy-L" transform="matrix(1 0 0 1 2532.93 1556)">
   <path d="M183.35-67.1875L122.021-95.2148C115.088-98.3398 109.277-99.8047 103.76-99.7559C98.2422-99.8047 92.4316-98.3398 85.498-95.2148L24.1211-67.1875C19.043-64.8438 16.0645-60.498 16.0645-55.6152C16.0645-50.7324 19.043-46.2891 24.1211-44.043L45.2637-34.7656L88.2812-54.6387C88.1348-54.9805 88.0859-55.2734 88.0859-55.6152C88.0859-61.4258 95.752-65.2832 103.857-65.2832C111.914-65.2832 119.58-61.4746 119.58-55.6152C119.58-49.707 111.963-45.752 103.857-45.752C101.318-45.752 98.7793-46.1426 96.4844-46.875L57.2266-28.9062L85.498-16.0156C92.4316-12.793 98.2422-11.377 103.76-11.4746C109.277-11.377 115.088-12.8418 122.021-16.0156L183.35-44.043C188.477-46.4355 191.455-50.7324 191.455-55.6152C191.455-60.498 188.477-64.8438 183.35-67.1875ZM57.1289-17.3828L57.1289 16.6016C68.8477 23.5352 85.2539 27.6367 103.76 27.6367C140.527 27.6367 168.75 11.5234 168.75-9.61914L168.75-25.8301L126.416-6.39648C118.262-2.68555 110.742-0.830078 103.76-0.927734C96.7773-0.830078 89.3066-2.68555 81.1035-6.39648ZM38.7695-25.7812L38.7695-9.61914C38.7695-4.19922 41.1621 1.66016 45.459 6.78711L45.459-22.7051ZM38.7207 31.3477L38.7207 47.2168C38.7207 53.418 42.8223 57.5195 49.0723 57.5195L53.4668 57.5195C59.7168 57.5195 63.8184 53.418 63.8184 47.2168L63.8184 31.3477C63.8184 26.416 61.2793 22.8516 57.1289 21.5332L57.1289 16.6016C52.3438 13.7695 48.3887 10.498 45.459 6.78711L45.459 21.4844C41.3086 22.8027 38.7207 26.416 38.7207 31.3477Z"/>
  </g>
  <g id="Bold-L" transform="matrix(1 0 0 1 2237.41 1556)">
   <path d="M181.885-65.7715L120.312-93.9453C113.525-97.0215 107.959-98.4375 102.588-98.3398C97.2168-98.4375 91.6016-97.0215 84.8633-93.9453L23.2422-65.7715C18.6523-63.6719 16.0645-59.7656 16.0645-55.5664C16.0645-51.3184 18.6523-47.4121 23.2422-45.3613L46.6797-34.9121L88.2324-54.3457C87.9395-54.7363 87.8418-55.127 87.8418-55.5664C87.8418-60.6445 95.0195-64.209 102.734-64.209C110.352-64.209 117.529-60.6445 117.529-55.5664C117.529-50.3906 110.4-46.7773 102.734-46.7773C100.244-46.7773 97.8516-47.1191 95.752-47.8027L57.1289-29.834L84.8633-17.1875C91.6504-14.0137 97.2168-12.6953 102.588-12.7441C107.959-12.6953 113.525-14.0625 120.312-17.1875L181.885-45.3613C186.523-47.5098 189.062-51.3184 189.062-55.5664C189.062-59.7656 186.523-63.6719 181.885-65.7715ZM56.9824-19.3359L56.9824 16.0156C68.2129 22.7051 84.082 26.8066 102.588 26.8066C139.307 26.8066 165.771 10.6445 165.771-9.13086L165.771-27.4414L124.268-8.44727C116.455-4.83398 109.277-3.07617 102.588-3.17383C95.8496-3.07617 88.7207-4.83398 80.8594-8.44727ZM39.3555-27.3926L39.3555-9.13086C39.3555-3.75977 42.041 2.34375 46.875 7.66602L46.875-23.9746ZM40.7715 30.4688L40.7715 46.582C40.7715 52.2949 44.4824 56.0059 50.1465 56.0059L53.6621 56.0059C59.3262 56.0059 63.0371 52.2949 63.0371 46.582L63.0371 30.4688C63.0371 25.9766 60.7422 22.7051 56.9824 21.5332L56.9824 16.0156C52.9297 13.5742 49.4629 10.791 46.875 7.66602L46.875 21.5332C43.1152 22.7051 40.7715 25.9277 40.7715 30.4688Z"/>
  </g>
  <g id="Semibold-L" transform="matrix(1 0 0 1 1941.51 1556)">
   <path d="M180.859-64.7949L119.092-93.0664C112.402-96.0938 107.031-97.4609 101.758-97.3633C96.4844-97.4609 91.0645-96.0938 84.375-93.0664L22.6562-64.7949C18.3594-62.8906 16.0645-59.2773 16.0645-55.5176C16.0645-51.709 18.3594-48.1934 22.6562-46.2402L47.6562-35.0098L88.1836-54.1016C87.8418-54.5898 87.6953-55.0781 87.6953-55.5176C87.6953-60.1074 94.5312-63.4766 101.904-63.4766C109.277-63.4766 116.064-60.1074 116.064-55.5176C116.064-50.8789 109.277-47.4121 101.904-47.4121C99.5605-47.4121 97.2656-47.7539 95.2148-48.3887L57.0312-30.4688L84.375-17.9688C91.1133-14.8438 96.4844-13.5742 101.758-13.6719C107.031-13.5742 112.402-14.8926 119.092-17.9688L180.859-46.2402C185.156-48.2422 187.451-51.709 187.451-55.5176C187.451-59.2773 185.156-62.8906 180.859-64.7949ZM56.8848-20.752L56.8848 15.5762C67.7734 22.1191 83.3008 26.2207 101.758 26.2207C138.477 26.2207 163.672 10.0586 163.672-8.78906L163.672-28.5645L122.803-9.81445C115.234-6.34766 108.301-4.63867 101.758-4.6875C95.2148-4.63867 88.2812-6.34766 80.6641-9.81445ZM39.7949-28.5645L39.7949-8.78906C39.7949-3.41797 42.627 2.83203 47.8516 8.25195L47.8516-24.8047ZM42.1875 29.834L42.1875 46.1914C42.1875 51.5137 45.6055 54.9316 50.9277 54.9316L53.7598 54.9316C59.082 54.9316 62.5 51.5137 62.5 46.1914L62.5 29.834C62.5 25.6836 60.4004 22.6562 56.8848 21.5332L56.8848 15.5762C53.3203 13.4277 50.2441 10.9863 47.8516 8.25195L47.8516 21.5332C44.3359 22.6074 42.1875 25.6348 42.1875 29.834Z"/>
  </g>
  <g id="Medium-L" transform="matrix(1 0 0 1 1645.43 1556)">
   <path d="M180.078-64.0625L118.213-92.3828C111.572-95.4102 106.299-96.7285 101.123-96.6309C95.9473-96.7285 90.6738-95.4102 84.082-92.3828L22.168-64.0625C18.1641-62.2559 16.0645-58.9355 16.0645-55.4688C16.0645-52.002 18.1641-48.7305 22.168-46.9238L48.3887-35.0586L88.1836-53.9551C87.7441-54.4434 87.5488-54.9805 87.5488-55.5176C87.5488-59.668 94.1406-62.8906 101.318-62.8906C108.447-62.8906 114.99-59.7168 114.99-55.5176C114.99-51.2207 108.447-47.9492 101.318-47.9492C99.0234-47.9492 96.7773-48.291 94.8242-48.877L56.9824-30.957L84.082-18.5547C90.6738-15.5273 95.9473-14.2578 101.123-14.3066C106.299-14.2578 111.572-15.5273 118.213-18.5547L180.078-46.9238C184.131-48.7793 186.182-52.002 186.182-55.4688C186.182-58.9355 184.131-62.2559 180.078-64.0625ZM56.7871-21.7773L56.7871 15.2344C67.4805 21.7285 82.7148 25.7812 101.123 25.7812C137.891 25.7812 162.158 9.61914 162.158-8.54492L162.158-29.4434L121.729-10.8887C114.258-7.4707 107.568-5.81055 101.123-5.9082C94.7266-5.81055 87.9883-7.4707 80.5664-10.8887ZM40.0879-29.3945L40.0879-8.54492C40.0879-3.17383 43.1152 3.22266 48.6328 8.69141L48.6328-25.4883ZM43.2617 29.3945L43.2617 45.8984C43.2617 50.9277 46.4844 54.1504 51.5137 54.1504L53.8574 54.1504C58.8867 54.1504 62.1094 50.9277 62.1094 45.8984L62.1094 29.3945C62.1094 25.4395 60.1074 22.5586 56.7871 21.5332L56.7871 15.2344C53.6133 13.3301 50.8301 11.1328 48.6328 8.69141L48.6328 21.5332C45.2637 22.5586 43.2617 25.3906 43.2617 29.3945Z"/>
  </g>
  <g id="Regular-L" transform="matrix(1 0 0 1 1349.53 1556)">
   <path d="M179.053-63.1348L116.992-91.5527C110.498-94.4824 105.42-95.752 100.342-95.6543C95.2148-95.752 90.1367-94.4824 83.6426-91.5527L21.582-63.1348C17.8711-61.4746 16.0645-58.4473 16.0645-55.4199C16.0645-52.3926 17.8711-49.5117 21.582-47.8027L49.3652-35.1562L88.1836-53.7109C87.6465-54.2969 87.4023-54.8828 87.4023-55.4688C87.4023-59.1309 93.6523-62.1582 100.537-62.1582C107.373-62.1582 113.574-59.1309 113.574-55.4688C113.574-51.6602 107.373-48.6328 100.537-48.6328C98.291-48.6328 96.1914-48.9258 94.2871-49.5117L56.8848-31.5918L83.6426-19.3359C90.1367-16.3574 95.2148-15.1367 100.342-15.1855C105.42-15.1367 110.498-16.3574 116.992-19.3359L179.053-47.8027C182.764-49.5117 184.57-52.3926 184.57-55.4199C184.57-58.4473 182.764-61.4746 179.053-63.1348ZM56.6895-23.1445L56.6895 14.8438C67.041 21.1426 81.9336 25.2441 100.342 25.2441C137.061 25.2441 160.107 9.08203 160.107-8.20312L160.107-30.5664L120.264-12.3047C113.037-8.98438 106.592-7.32422 100.342-7.42188C94.043-7.32422 87.5977-8.98438 80.3711-12.3047ZM40.5273-30.5176L40.5273-8.20312C40.5273-2.88086 43.7012 3.71094 49.6094 9.32617L49.6094-26.3672ZM44.6777 28.7598L44.6777 45.459C44.6777 50.1465 47.6074 53.0762 52.2461 53.0762L53.9551 53.0762C58.6426 53.0762 61.5723 50.1465 61.5723 45.459L61.5723 28.7598C61.5723 25.0977 59.7656 22.5098 56.6895 21.582L56.6895 14.8438C54.0039 13.1836 51.6113 11.3281 49.6094 9.32617L49.6094 21.5332C46.5332 22.4609 44.6777 25.0977 44.6777 28.7598Z"/>
  </g>
  <g id="Light-L" transform="matrix(1 0 0 1 1053.16 1556)">
   <path d="M179.004-62.1094L116.406-90.7715C109.863-93.7988 104.932-94.9219 99.9512-94.873C95.0195-94.9219 90.0391-93.7988 83.5449-90.7715L20.9473-62.1094C17.7246-60.6445 16.0645-58.0078 16.0645-55.2246C16.0645-52.4902 17.7246-49.9023 20.9473-48.3887L51.1719-34.668L88.5742-53.0762C87.793-53.8086 87.4023-54.541 87.4023-55.2734C87.4023-58.4961 93.1152-61.5234 100.098-61.5234C107.08-61.5234 112.695-58.4961 112.695-55.2734C112.695-51.9043 107.08-48.877 100.098-48.877C97.7051-48.877 95.5078-49.2188 93.6035-49.8535L57.0801-31.7871L83.5449-19.6777C90.1367-16.6504 95.0195-15.5273 99.9512-15.625C104.932-15.5273 109.863-16.6504 116.406-19.6777L179.004-48.3887C182.227-49.9023 183.887-52.4902 183.887-55.2246C183.887-58.0078 182.227-60.6445 179.004-62.1094ZM56.9824-24.5117L56.9824 12.8906C66.9434 19.1406 81.5918 23.3887 99.9512 23.3887C136.182 23.3887 158.008 6.93359 158.008-8.1543L158.008-31.4453L119.189-13.623C112.158-10.4004 106.006-8.83789 99.9512-8.93555C93.8965-8.83789 87.7441-10.4004 80.7617-13.623ZM41.8945-31.3965L41.8945-8.1543C41.8945-3.02734 45.2148 3.22266 51.3184 8.59375L51.3184-27.0508ZM46.4355 25.3906L46.4355 42.2363C46.4355 46.4844 49.0234 49.0723 53.2715 49.0723L54.9805 49.0723C59.2285 49.0723 61.8164 46.4844 61.8164 42.2363L61.8164 25.3906C61.8164 21.8262 60.0098 19.4336 56.9824 18.75L56.9824 12.8906C54.834 11.5723 52.9297 10.2051 51.3184 8.59375L51.3184 18.75C48.2422 19.4336 46.4355 21.8262 46.4355 25.3906Z"/>
  </g>
  <g id="Thin-L" transform="matrix(1 0 0 1 756.911 1556)">
   <path d="M178.955-60.7422L115.576-89.7949C109.033-92.8711 104.297-93.8477 99.5117-93.7988C94.7266-93.8477 89.9902-92.8711 83.3984-89.7949L20.0684-60.7422C17.4805-59.5215 16.0645-57.373 16.0645-54.9805C16.0645-52.5391 17.4805-50.3906 20.0684-49.2188L53.5645-33.9844L89.1113-52.2461C87.9883-53.125 87.4023-54.1016 87.4023-55.0293C87.4023-57.666 92.4316-60.7422 99.5117-60.7422C106.641-60.7422 111.572-57.666 111.572-55.0293C111.572-52.2461 106.641-49.1699 99.5117-49.1699C96.9238-49.1699 94.6289-49.5605 92.7246-50.293L57.3242-32.0801L83.3984-20.1172C90.0879-17.041 94.7266-16.0645 99.5117-16.1621C104.297-16.0645 109.033-17.041 115.576-20.1172L178.955-49.2188C181.494-50.3906 182.959-52.5391 182.959-54.9805C182.959-57.373 181.494-59.5215 178.955-60.7422ZM57.3242-26.3184L57.3242 10.3516C66.8457 16.4062 81.1035 20.9961 99.5117 20.9961C135.01 20.9961 155.225 4.10156 155.225-8.05664L155.225-32.6172L117.773-15.4297C111.035-12.3047 105.273-10.8398 99.5117-10.9375C93.7012-10.8398 87.9883-12.3047 81.25-15.4297ZM43.75-32.5684L43.75-8.05664C43.75-3.22266 47.168 2.53906 53.5645 7.66602L53.5645-28.0273ZM48.7305 20.8984L48.7305 37.9395C48.7305 41.6992 50.8789 43.7988 54.6387 43.7988L56.25 43.7988C60.0098 43.7988 62.1582 41.6992 62.1582 37.9395L62.1582 20.8984C62.1582 17.5293 60.4004 15.4785 57.3242 15.0879L57.3242 10.3516C55.957 9.52148 54.6875 8.64258 53.5645 7.66602L53.5645 15.0879C50.4883 15.4785 48.7305 17.5293 48.7305 20.8984Z"/>
  </g>
  <g id="Ultralight-L" transform="matrix(1 0 0 1 460.444 1556)">
   <path d="M178.906-60.0098L115.186-89.3066C108.594-92.3828 103.955-93.3105 99.2676-93.2129C94.5801-93.3105 89.9414-92.3828 83.3496-89.3066L19.6289-60.0098C17.3828-58.9844 16.0645-57.0801 16.0645-54.834C16.0645-52.5879 17.3828-50.6836 19.6289-49.6094L54.7852-33.6426L89.3555-51.8066C88.0859-52.7832 87.4023-53.9062 87.4023-54.9316C87.4023-57.2754 92.041-60.3027 99.2188-60.3027C106.445-60.3027 110.986-57.2754 110.986-54.9316C110.986-52.3926 106.445-49.3652 99.2188-49.3652C96.5332-49.3652 94.1895-49.7559 92.2363-50.4883L57.4707-32.1777L83.3496-20.3613C90.0391-17.2852 94.5801-16.3574 99.2676-16.4062C103.955-16.3574 108.594-17.2852 115.186-20.3613L178.906-49.6094C181.152-50.6836 182.471-52.5879 182.471-54.834C182.471-57.0801 181.152-58.9844 178.906-60.0098ZM57.4707-27.2949L57.4707 9.0332C66.7969 15.0391 80.8594 19.7754 99.2676 19.7754C134.375 19.7754 153.76 2.63672 153.76-7.95898L153.76-33.252L117.041-16.3086C110.449-13.2812 104.932-11.8652 99.2676-11.9629C93.6035-11.8652 88.0859-13.2812 81.4941-16.3086ZM44.6777-33.1543L44.6777-7.95898C44.6777-3.32031 48.1445 2.19727 54.7363 7.22656L54.7363-28.5156ZM49.9512 18.6523L49.9512 35.7422C49.9512 39.209 51.8066 41.1133 55.3223 41.1133L56.9336 41.1133C60.4004 41.1133 62.3047 39.209 62.3047 35.7422L62.3047 18.6523C62.3047 15.332 60.5957 13.4766 57.4707 13.2812L57.4707 9.0332C56.543 8.44727 55.5664 7.86133 54.7363 7.22656L54.7363 13.2812C51.6113 13.4766 49.9512 15.332 49.9512 18.6523Z"/>
  </g>
  <g id="Black-M" transform="matrix(1 0 0 1 2850.93 1126)">
   <path d="M144.922-62.1094L97.5586-83.7402C91.8457-86.2793 86.9629-87.5488 82.4707-87.4512C77.9785-87.5488 73.0957-86.2793 67.4316-83.7402L20.0684-62.1094C15.4297-59.9609 12.4512-55.8594 12.4512-51.0254C12.4512-46.1914 15.4297-41.8945 20.0684-39.9414L33.3984-34.375L68.7012-50.5371C68.7012-50.7324 68.7012-50.8301 68.7012-51.0254C68.7012-56.6895 75.3418-60.2539 82.4707-60.2539C89.5508-60.2539 96.1914-56.7383 96.1914-51.0254C96.1914-45.3125 89.6484-41.6504 82.4707-41.6504C80.127-41.6504 77.8809-42.041 75.8789-42.7246L44.6777-28.7109L67.4316-18.3105C73.0957-15.7227 77.9785-14.502 82.4707-14.5996C86.9629-14.502 91.8457-15.7715 97.5586-18.3105L144.922-39.9414C149.561-42.0898 152.49-46.1914 152.49-51.0254C152.49-55.8594 149.561-59.9609 144.922-62.1094ZM44.6777-18.3594L44.6777 5.12695C54.4434 10.791 68.0176 14.1113 82.4707 14.1113C110.693 14.1113 135.303 1.41602 135.303-16.3086L135.303-25.293L101.416-9.76562C94.6289-6.64062 88.2324-5.12695 82.4707-5.17578C76.709-5.12695 70.4102-6.64062 63.5254-9.76562ZM29.6387-25.2441L29.6387-16.3086C29.6387-12.1094 31.0059-8.25195 33.4473-4.73633L33.4473-23.5352ZM27.0508 16.2109L27.0508 28.0273C27.0508 33.6914 30.8105 37.4512 36.4258 37.4512L41.6504 37.4512C47.3145 37.4512 51.0742 33.6914 51.0742 28.0273L51.0742 16.2109C51.0742 11.6699 48.584 8.34961 44.6777 7.22656L44.6777 5.12695C39.8926 2.34375 36.084-0.976562 33.4473-4.73633L33.4473 7.22656C29.4922 8.30078 27.0508 11.6211 27.0508 16.2109Z"/>
  </g>
  <g id="Heavy-M" transform="matrix(1 0 0 1 2555.27 1126)">
   <path d="M143.457-60.9863L95.9961-82.666C90.4785-85.1562 85.791-86.377 81.3965-86.2793C77.0508-86.377 72.3633-85.1562 66.7969-82.666L19.3359-60.9863C15.0879-59.0332 12.4512-55.3223 12.4512-51.0254C12.4512-46.7285 15.0879-42.8711 19.3359-41.0645L34.2773-34.6191L68.5547-50.3906C68.5059-50.6348 68.457-50.7812 68.457-51.0254C68.457-56.1035 74.7559-59.375 81.4453-59.375C88.0859-59.375 94.3848-56.1523 94.3848-51.0254C94.3848-45.8984 88.1348-42.5781 81.4453-42.5781C79.2969-42.5781 77.1973-42.9199 75.293-43.5059L44.5312-29.541L66.7969-19.3848C72.3633-16.7969 77.0508-15.6738 81.3965-15.7227C85.791-15.6738 90.4785-16.8457 95.9961-19.3848L143.457-41.0645C147.754-43.0176 150.391-46.7285 150.391-51.0254C150.391-55.3223 147.754-59.0332 143.457-60.9863ZM44.4824-19.9219L44.4824 4.98047C53.8574 10.498 66.9922 13.7695 81.3965 13.7695C109.766 13.7695 132.959 1.17188 132.959-15.8203L132.959-26.6602L99.6094-11.377C93.0664-8.39844 86.9629-6.93359 81.3965-6.98242C75.8301-6.93359 69.7754-8.39844 63.1836-11.377ZM29.8828-26.6113L29.8828-15.8203C29.8828-11.6211 31.4941-7.42188 34.375-3.66211L34.375-24.5605ZM28.5645 16.2598L28.5645 28.3203C28.5645 33.5449 32.0312 36.9629 37.2559 36.9629L41.5527 36.9629C46.7773 36.9629 50.2441 33.5449 50.2441 28.3203L50.2441 16.2598C50.2441 12.0605 48.0469 9.0332 44.4824 7.95898L44.4824 4.98047C40.2832 2.53906 36.8164-0.390625 34.375-3.66211L34.375 7.95898C30.8105 8.98438 28.5645 12.0605 28.5645 16.2598Z"/>
  </g>
  <g id="Bold-M" transform="matrix(1 0 0 1 2259.75 1126)">
   <path d="M141.846-59.7656L94.2871-81.4941C88.916-83.9355 84.4727-85.0586 80.2246-85.0098C75.9766-85.0586 71.4844-83.9355 66.1621-81.4941L18.5547-59.7656C14.6973-58.0078 12.4512-54.6875 12.4512-51.0254C12.4512-47.3633 14.6973-43.9941 18.5547-42.2852L35.3027-34.9121L68.4082-50.2441C68.2617-50.4883 68.2129-50.7324 68.2129-51.0254C68.2129-55.4199 74.1211-58.3496 80.3223-58.3496C86.4746-58.3496 92.334-55.4199 92.334-51.0254C92.334-46.582 86.5234-43.5547 80.3223-43.5547C78.3203-43.5547 76.416-43.8477 74.6582-44.4336L44.3359-30.5176L66.1621-20.5078C71.4844-18.0664 75.9766-16.9922 80.2246-17.041C84.4727-16.9922 88.916-18.0664 94.2871-20.5078L141.846-42.2852C145.752-44.0918 147.998-47.3633 147.998-51.0254C147.998-54.6875 145.752-58.0078 141.846-59.7656ZM44.2383-21.7285L44.2383 4.88281C53.2227 10.2051 65.8691 13.3789 80.2246 13.3789C108.691 13.3789 130.273 0.878906 130.273-15.332L130.273-28.2227L97.6074-13.2324C91.3574-10.3516 85.5469-8.93555 80.2246-8.98438C74.8535-8.93555 69.0918-10.3516 62.793-13.2324ZM30.127-28.1738L30.127-15.332C30.127-11.084 32.0312-6.49414 35.4492-2.49023L35.4492-25.7324ZM30.3223 16.2598L30.3223 28.6133C30.3223 33.3496 33.4473 36.4746 38.1836 36.4746L41.4551 36.4746C46.1914 36.4746 49.3164 33.3496 49.3164 28.6133L49.3164 16.2598C49.3164 12.5488 47.3633 9.81445 44.2383 8.78906L44.2383 4.88281C40.625 2.73438 37.6465 0.244141 35.4492-2.49023L35.4492 8.78906C32.2754 9.76562 30.3223 12.5 30.3223 16.2598Z"/>
  </g>
  <g id="Semibold-M" transform="matrix(1 0 0 1 1963.87 1126)">
   <path d="M140.723-58.9355L93.1152-80.7129C87.8906-83.0566 83.5449-84.1797 79.3945-84.082C75.1953-84.1797 70.8984-83.0566 65.6738-80.7129L18.0176-58.9355C14.4043-57.2754 12.4512-54.248 12.4512-51.0254C12.4512-47.7539 14.4043-44.7266 18.0176-43.1152L35.9863-35.1074L68.2617-50.1465C68.1152-50.4395 68.0176-50.7324 68.0176-51.0254C68.0176-54.9316 73.6816-57.666 79.541-57.666C85.3516-57.666 90.918-54.9805 90.918-51.0254C90.918-47.0215 85.4004-44.2383 79.541-44.2383C77.6855-44.2383 75.8789-44.5312 74.2188-45.0195L44.2383-31.1523L65.6738-21.3379C70.8984-18.8965 75.1953-17.8711 79.3945-17.9199C83.5449-17.8711 87.8906-18.9453 93.1152-21.3379L140.723-43.1152C144.385-44.8242 146.338-47.7539 146.338-51.0254C146.338-54.248 144.385-57.2754 140.723-58.9355ZM44.0918-22.9492L44.0918 4.78516C52.7832 10.0098 65.0879 13.1348 79.3945 13.1348C108.008 13.1348 128.467 0.683594 128.467-14.9414L128.467-29.248L96.2402-14.4531C90.1855-11.7188 84.6191-10.3027 79.3945-10.4004C74.1699-10.3027 68.6035-11.7188 62.5488-14.4531ZM30.3223-29.248L30.3223-14.9414C30.3223-10.7422 32.373-5.85938 36.1816-1.70898L36.1816-26.5137ZM31.543 16.2598L31.543 28.8086C31.543 33.2031 34.4238 36.1328 38.8184 36.1328L41.4062 36.1328C45.8008 36.1328 48.6816 33.2031 48.6816 28.8086L48.6816 16.2598C48.6816 12.8418 46.9238 10.3516 44.0918 9.375L44.0918 4.78516C40.918 2.88086 38.2324 0.732422 36.1816-1.70898L36.1816 9.375C33.3008 10.3027 31.543 12.8418 31.543 16.2598Z"/>
  </g>
  <g id="Medium-M" transform="matrix(1 0 0 1 1667.8 1126)">
   <path d="M139.893-58.252L92.1875-80.0781C87.0605-82.4219 82.8613-83.4961 78.7598-83.3984C74.6582-83.4961 70.459-82.4219 65.332-80.0781L17.627-58.252C14.209-56.7383 12.4512-53.9062 12.4512-51.0254C12.4512-48.0957 14.209-45.3125 17.627-43.7988L36.5234-35.2539L68.2129-50.0488C68.0176-50.3906 67.9199-50.6836 67.9199-51.0254C67.9199-54.5898 73.3398-57.1289 78.9062-57.1289C84.5215-57.1289 89.8926-54.5898 89.8926-51.0254C89.8926-47.3633 84.5215-44.7754 78.9062-44.7754C77.1973-44.7754 75.4395-45.0195 73.877-45.5078L44.1406-31.6406L65.332-21.9238C70.459-19.5801 74.6582-18.5547 78.7598-18.6035C82.8613-18.5547 87.0605-19.5801 92.1875-21.9238L139.893-43.7988C143.311-45.3613 145.068-48.0957 145.068-51.0254C145.068-53.9062 143.311-56.7383 139.893-58.252ZM43.9453-23.8281L43.9453 4.73633C52.4414 9.81445 64.502 12.8906 78.7598 12.8906C107.422 12.8906 127.1 0.537109 127.1-14.6973L127.1-30.0781L95.166-15.4297C89.2578-12.7441 83.8867-11.377 78.7598-11.4258C73.6816-11.377 68.2617-12.7441 62.3535-15.4297ZM30.4199-30.0293L30.4199-14.6973C30.4199-10.4492 32.666-5.41992 36.7188-1.12305L36.7188-27.1484ZM32.4219 16.3086L32.4219 28.9551C32.4219 33.1055 35.1562 35.8398 39.3066 35.8398L41.3574 35.8398C45.5078 35.8398 48.1934 33.1055 48.1934 28.9551L48.1934 16.3086C48.1934 13.0859 46.582 10.7422 43.9453 9.81445L43.9453 4.73633C41.1133 3.02734 38.6719 1.07422 36.7188-1.12305L36.7188 9.81445C34.082 10.6934 32.4219 13.0859 32.4219 16.3086Z"/>
  </g>
  <g id="Regular-M" transform="matrix(1 0 0 1 1371.89 1126)">
   <path d="M138.818-57.4219L91.0156-79.2969C86.0352-81.543 81.9824-82.6172 77.9297-82.5195C73.9258-82.6172 69.873-81.543 64.8438-79.2969L17.0898-57.4219C13.9648-56.0059 12.4512-53.5156 12.4512-51.0254C12.4512-48.5352 13.9648-46.0938 17.0898-44.6289L37.207-35.4492L68.1152-49.9512C67.8223-50.293 67.7246-50.6836 67.7246-51.0254C67.7246-54.1016 72.9004-56.4453 78.125-56.4453C83.3984-56.4453 88.4766-54.1016 88.4766-51.0254C88.4766-47.8516 83.3984-45.459 78.125-45.459C76.5137-45.459 74.9023-45.7031 73.4863-46.0938L43.9941-32.2754L64.8438-22.7051C69.873-20.4102 73.9258-19.4336 77.9297-19.4824C81.9824-19.4336 86.0352-20.4102 91.0156-22.7051L138.818-44.6289C141.943-46.0938 143.457-48.5352 143.457-51.0254C143.457-53.5156 141.943-56.0059 138.818-57.4219ZM43.7988-25.0488L43.7988 4.63867C52.002 9.61914 63.7207 12.6465 77.9297 12.6465C106.738 12.6465 125.293 0.292969 125.293-14.3066L125.293-31.1035L93.7988-16.6992C88.0859-14.0625 82.9102-12.7441 77.9297-12.793C72.998-12.7441 67.7734-14.0625 62.0605-16.6992ZM30.6152-31.1035L30.6152-14.3066C30.6152-10.0586 33.0566-4.78516 37.4512-0.292969L37.4512-27.9297ZM33.5938 16.3086L33.5938 29.1504C33.5938 33.0078 36.084 35.498 39.9414 35.498L41.2598 35.498C45.1172 35.498 47.6074 33.0078 47.6074 29.1504L47.6074 16.3086C47.6074 13.3789 46.1426 11.2793 43.7988 10.4004L43.7988 4.63867C41.3574 3.17383 39.209 1.51367 37.4512-0.292969L37.4512 10.4004C35.0586 11.2305 33.5938 13.3789 33.5938 16.3086Z"/>
  </g>
  <g id="Light-M" transform="matrix(1 0 0 1 1075.5 1126)">
   <path d="M138.77-56.4941L90.4785-78.6133C85.4492-80.9082 81.543-81.8848 77.6367-81.7871C73.7305-81.8848 69.8242-80.9082 64.7949-78.6133L16.5039-56.4941C13.8184-55.2734 12.4512-53.0762 12.4512-50.8301C12.4512-48.584 13.8184-46.4355 16.5039-45.166L38.8184-35.0098L68.457-49.3652C67.9688-49.8535 67.7246-50.3418 67.7246-50.8301C67.7246-53.5645 72.4121-55.9082 77.7832-55.9082C83.1055-55.9082 87.7441-53.5645 87.7441-50.8301C87.7441-48.0469 83.1055-45.7031 77.7832-45.7031C75.9766-45.7031 74.3164-45.9473 72.8516-46.3867L44.1406-32.4707L64.7949-23.0469C69.873-20.7031 73.7305-19.7754 77.6367-19.8242C81.543-19.7754 85.4492-20.7031 90.4785-23.0469L138.77-45.166C141.455-46.4355 142.822-48.584 142.822-50.8301C142.822-53.0762 141.455-55.2734 138.77-56.4941ZM44.043-26.3184L44.043 2.92969C51.9531 7.8125 63.3789 11.0352 77.6367 11.0352C105.908 11.0352 123.389-1.61133 123.389-14.2578L123.389-31.8848L92.8711-17.8711C87.3047-15.3809 82.4219-14.1113 77.6367-14.1602C72.8516-14.1113 67.9199-15.3809 62.4023-17.8711ZM31.8359-31.8848L31.8359-14.2578C31.8359-10.2051 34.375-5.22461 39.0137-0.927734L39.0137-28.5645ZM35.2051 13.2812L35.2051 26.2695C35.2051 29.7363 37.3535 31.8848 40.8203 31.8848L42.1387 31.8848C45.6543 31.8848 47.8027 29.7363 47.8027 26.2695L47.8027 13.2812C47.8027 10.4492 46.3867 8.49609 44.043 7.86133L44.043 2.92969C42.1387 1.75781 40.4297 0.488281 39.0137-0.927734L39.0137 7.86133C36.6211 8.49609 35.2051 10.4492 35.2051 13.2812Z"/>
  </g>
  <g id="Thin-M" transform="matrix(1 0 0 1 779.201 1126)">
   <path d="M138.672-55.2734L89.7461-77.7344C84.668-80.0781 80.957-80.9082 77.1973-80.8594C73.4863-80.9082 69.7754-80.0781 64.6484-77.7344L15.7227-55.2734C13.623-54.2969 12.4512-52.5391 12.4512-50.5859C12.4512-48.6328 13.623-46.875 15.7227-45.8984L40.9668-34.4238L68.9453-48.584C68.1641-49.2676 67.7246-49.9512 67.7246-50.6348C67.7246-52.832 71.7773-55.1758 77.2461-55.1758C82.7637-55.1758 86.7188-52.832 86.7188-50.6348C86.7188-48.3398 82.7637-45.9473 77.2461-45.9473C75.293-45.9473 73.5352-46.2402 72.0215-46.7773L44.3848-32.7148L64.6484-23.4375C69.8242-21.0449 73.4863-20.2637 77.1973-20.3125C80.957-20.2637 84.668-21.0449 89.7461-23.4375L138.672-45.8984C140.82-46.875 141.992-48.6328 141.992-50.5859C141.992-52.5391 140.82-54.2969 138.672-55.2734ZM44.3359-27.9297L44.3359 0.634766C51.8066 5.37109 62.9395 8.88672 77.1973 8.88672C104.883 8.88672 120.898-4.15039 120.898-14.1602L120.898-32.959L91.6016-19.4824C86.2793-17.0898 81.7383-15.918 77.1973-15.9668C72.6562-15.918 68.1152-17.0898 62.8418-19.4824ZM33.4961-32.9102L33.4961-14.1602C33.4961-10.3516 36.1328-5.81055 41.0156-1.75781L41.0156-29.4434ZM37.2559 9.27734L37.2559 22.4121C37.2559 25.4395 39.0137 27.1484 42.041 27.1484L43.3105 27.1484C46.3379 27.1484 48.0957 25.4395 48.0957 22.4121L48.0957 9.27734C48.0957 6.5918 46.7285 4.93164 44.3359 4.54102L44.3359 0.634766C43.1152-0.0976562 41.9922-0.878906 41.0156-1.75781L41.0156 4.54102C38.623 4.93164 37.2559 6.5918 37.2559 9.27734Z"/>
  </g>
  <g id="Ultralight-M" transform="matrix(1 0 0 1 482.709 1126)">
   <path d="M138.672-54.6387L89.4043-77.2949C84.2773-79.6875 80.6641-80.4199 77.002-80.3223C73.3398-80.4199 69.7266-79.6875 64.5996-77.2949L15.332-54.6387C13.5254-53.8086 12.4512-52.2461 12.4512-50.4395C12.4512-48.6816 13.5254-47.1191 15.332-46.2402L42.0898-34.1309L69.1895-48.1934C68.2617-48.9258 67.7246-49.7559 67.7246-50.5371C67.7246-52.4414 71.4355-54.7852 77.002-54.7852C82.5684-54.7852 86.1816-52.4414 86.1816-50.5371C86.1816-48.4863 82.5684-46.0938 77.002-46.0938C74.9512-46.0938 73.1445-46.4355 71.6309-46.9727L44.4824-32.8613L64.5996-23.6328C69.7754-21.2402 73.3398-20.5078 77.002-20.5566C80.6641-20.5078 84.2773-21.2402 89.4043-23.6328L138.672-46.2402C140.479-47.1191 141.553-48.6816 141.553-50.4395C141.553-52.2461 140.479-53.8086 138.672-54.6387ZM44.4824-28.8086L44.4824-0.537109C51.7578 4.15039 62.7441 7.76367 77.002 7.76367C104.346 7.76367 119.629-5.46875 119.629-14.1113L119.629-33.4961L90.918-20.3125C85.7422-17.9199 81.3965-16.8457 77.002-16.8945C72.6074-16.8457 68.2617-17.9199 63.0859-20.3125ZM34.3262-33.4473L34.3262-14.1113C34.3262-10.4492 37.0117-6.10352 42.0898-2.19727L42.0898-29.8828ZM38.3301 7.17773L38.3301 20.4102C38.3301 23.1934 39.8926 24.7559 42.6758 24.7559L43.8965 24.7559C46.6797 24.7559 48.2422 23.1934 48.2422 20.4102L48.2422 7.17773C48.2422 4.63867 46.9238 3.125 44.4824 2.88086L44.4824-0.537109C43.6523-1.07422 42.8223-1.61133 42.0898-2.19727L42.0898 2.88086C39.6484 3.125 38.3301 4.63867 38.3301 7.17773Z"/>
  </g>
  <g id="Black-S" transform="matrix(1 0 0 1 2868.85 696)">
   <path d="M113.428-56.2012L76.3184-73.1445C71.875-75.1465 68.0664-76.123 64.5508-76.0742C61.0352-76.123 57.2266-75.1465 52.7832-73.1445L15.6738-56.2012C12.0605-54.541 9.76562-51.3672 9.76562-47.6074C9.76562-43.8477 12.0605-40.5273 15.6738-39.0137L26.2207-34.5703L53.8086-47.2168L53.8086-47.6074C53.8086-52.002 58.9844-54.7852 64.5508-54.7852C70.0684-54.7852 75.2441-52.0508 75.2441-47.6074C75.2441-43.1641 70.1172-40.332 64.5508-40.332C62.7441-40.332 60.9863-40.625 59.4238-41.1621L35.0098-30.1758L52.7832-22.0703C57.2266-20.0195 61.0352-19.0918 64.5508-19.1406C68.0664-19.0918 71.875-20.0684 76.3184-22.0703L113.428-39.0137C117.041-40.6738 119.336-43.8477 119.336-47.6074C119.336-51.3672 117.041-54.541 113.428-56.2012ZM35.0098-22.1191L35.0098-3.61328C42.627 0.830078 53.2227 3.41797 64.5508 3.41797C86.6699 3.41797 105.859-6.49414 105.859-20.3613L105.859-27.5391L79.3457-15.3809C74.0234-12.9395 69.043-11.7676 64.5508-11.8164C60.0586-11.7676 55.127-12.9395 49.7559-15.3809ZM23.2422-27.4902L23.2422-20.3613C23.2422-17.0898 24.3164-14.0137 26.2695-11.2305L26.2695-26.123ZM21.2891 5.12695L21.2891 14.4043C21.2891 18.7988 24.2188 21.7285 28.6133 21.7285L32.6172 21.7285C37.0117 21.7285 39.9414 18.7988 39.9414 14.4043L39.9414 5.12695C39.9414 1.61133 38.0371-0.976562 35.0098-1.85547L35.0098-3.61328C31.2988-5.76172 28.3203-8.34961 26.2695-11.2305L26.2695-1.9043C23.1934-1.02539 21.2891 1.5625 21.2891 5.12695Z"/>
  </g>
  <g id="Heavy-S" transform="matrix(1 0 0 1 2572.92 696)">
   <path d="M112.354-55.4688L75.1953-72.4121C70.8984-74.3652 67.1875-75.293 63.7695-75.2441C60.3027-75.293 56.6406-74.3652 52.3438-72.4121L15.1855-55.4688C11.8164-53.9062 9.76562-50.9766 9.76562-47.6074C9.76562-44.2871 11.8164-41.2598 15.1855-39.7949L26.709-34.8145L53.6621-47.168C53.6621-47.3145 53.6133-47.4609 53.6133-47.6074C53.6133-51.6113 58.5938-54.1504 63.8184-54.1504C68.9941-54.1504 73.9258-51.6602 73.9258-47.6074C73.9258-43.6035 69.043-41.0156 63.8184-41.0156C62.1582-41.0156 60.498-41.2598 59.0332-41.748L34.8633-30.8105L52.3438-22.8516C56.6406-20.8496 60.3027-19.9219 63.7695-19.9707C67.1875-19.9219 70.8984-20.8496 75.1953-22.8516L112.354-39.7949C115.723-41.3574 117.773-44.2871 117.773-47.6074C117.773-50.9766 115.723-53.9062 112.354-55.4688ZM34.8145-23.1934L34.8145-3.51562C42.1875 0.830078 52.4902 3.32031 63.7695 3.32031C86.0352 3.32031 104.248-6.49414 104.248-20.0195L104.248-28.5156L78.0762-16.5039C72.9492-14.1602 68.1152-12.9883 63.7695-13.0371C59.375-12.9883 54.6387-14.1602 49.4629-16.5039ZM23.291-28.4668L23.291-20.0195C23.291-16.6992 24.5605-13.3301 26.8066-10.3516L26.8066-26.8555ZM22.3145 5.46875L22.3145 14.9414C22.3145 19.043 25.0488 21.7773 29.1504 21.7773L32.4707 21.7773C36.5723 21.7773 39.3066 19.043 39.3066 14.9414L39.3066 5.46875C39.3066 2.24609 37.5977-0.146484 34.8145-1.02539L34.8145-3.51562C31.4941-5.46875 28.7598-7.76367 26.8066-10.3516L26.8066-1.02539C24.0234-0.195312 22.3145 2.19727 22.3145 5.46875Z"/>
  </g>
  <g id="Bold-S" transform="matrix(1 0 0 1 2277.09 696)">
   <path d="M111.084-54.6387L73.9746-71.582C69.7754-73.4863 66.2598-74.4141 62.8906-74.3652C59.5215-74.4141 56.0059-73.4863 51.8066-71.582L14.6973-54.6387C11.5234-53.2227 9.76562-50.5371 9.76562-47.6562C9.76562-44.7266 11.5234-42.041 14.6973-40.6738L27.2949-35.1074L53.5156-47.1191C53.4668-47.3145 53.4668-47.4609 53.4668-47.6562C53.4668-51.1719 58.1543-53.4668 62.9883-53.4668C67.7734-53.4668 72.4609-51.1719 72.4609-47.6562C72.4609-44.0918 67.8223-41.748 62.9883-41.748C61.4746-41.748 60.0098-41.9434 58.6426-42.3828L34.7168-31.4941L51.8066-23.6816C56.0059-21.7285 59.5215-20.8984 62.8906-20.9473C66.2598-20.8984 69.7754-21.7773 73.9746-23.6816L111.084-40.6738C114.258-42.1387 116.016-44.7266 116.016-47.6562C116.016-50.5371 114.258-53.2227 111.084-54.6387ZM34.6191-24.3652L34.6191-3.36914C41.6992 0.830078 51.6602 3.22266 62.8906 3.22266C85.3516 3.22266 102.49-6.49414 102.49-19.6289L102.49-29.5898L76.6602-17.7246C71.7285-15.4785 67.1387-14.3555 62.8906-14.4043C58.6426-14.3555 54.1016-15.4785 49.1211-17.7246ZM23.291-29.541L23.291-19.6289C23.291-16.2598 24.8047-12.5977 27.4414-9.42383L27.4414-27.6855ZM23.4375 5.85938L23.4375 15.5273C23.4375 19.2871 25.9766 21.8262 29.7363 21.8262L32.2754 21.8262C36.0352 21.8262 38.5742 19.2871 38.5742 15.5273L38.5742 5.85938C38.5742 2.92969 37.0605 0.78125 34.6191-0.0488281L34.6191-3.36914C31.6895-5.12695 29.248-7.12891 27.4414-9.42383L27.4414-0.0976562C24.9512 0.732422 23.4375 2.92969 23.4375 5.85938Z"/>
  </g>
  <g id="Semibold-S" transform="matrix(1 0 0 1 1980.99 696)">
   <path d="M110.254-54.0527L73.0957-71.0449C68.9941-72.9004 65.5762-73.7793 62.3047-73.7305C58.9844-73.7793 55.5664-72.9004 51.4648-71.0449L14.3066-54.0527C11.3281-52.7344 9.76562-50.2441 9.76562-47.6562C9.76562-45.0684 11.3281-42.5781 14.3066-41.2598L27.6855-35.3027L53.3691-47.0703C53.3203-47.2656 53.3203-47.4609 53.3203-47.6562C53.3203-50.8301 57.8613-52.9785 62.4023-52.9785C66.9434-52.9785 71.4844-50.8789 71.4844-47.6562C71.4844-44.4336 66.9434-42.2363 62.4023-42.2363C61.0352-42.2363 59.6191-42.4316 58.3496-42.8223L34.5703-31.9824L51.4648-24.2676C55.5664-22.3633 58.9844-21.5332 62.3047-21.582C65.5762-21.5332 68.9941-22.4121 73.0957-24.2676L110.254-41.2598C113.232-42.627 114.795-45.0684 114.795-47.6562C114.795-50.2441 113.232-52.7344 110.254-54.0527ZM34.4727-25.1953L34.4727-3.32031C41.4062 0.78125 51.0742 3.17383 62.3047 3.17383C84.8633 3.17383 101.221-6.44531 101.221-19.3359L101.221-30.3223L75.6836-18.6035C70.8984-16.4062 66.4062-15.332 62.3047-15.3809C58.1543-15.332 53.7109-16.4062 48.877-18.6035ZM23.3398-30.3223L23.3398-19.3359C23.3398-15.9668 24.9512-12.0605 27.8809-8.74023L27.8809-28.2227ZM24.2188 6.15234L24.2188 15.918C24.2188 19.4824 26.5625 21.8262 30.127 21.8262L32.1289 21.8262C35.6934 21.8262 38.0859 19.4824 38.0859 15.918L38.0859 6.15234C38.0859 3.41797 36.7188 1.41602 34.4727 0.585938L34.4727-3.32031C31.8359-4.88281 29.5898-6.68945 27.8809-8.74023L27.8809 0.585938C25.5859 1.36719 24.2188 3.41797 24.2188 6.15234Z"/>
  </g>
  <g id="Medium-S" transform="matrix(1 0 0 1 1684.74 696)">
   <path d="M109.619-53.6621L72.4609-70.6055C68.457-72.4121 65.0879-73.291 61.8164-73.2422C58.5449-73.291 55.2246-72.4121 51.2207-70.6055L14.0625-53.6621C11.1816-52.3438 9.76562-50.0488 9.76562-47.6562C9.76562-45.3125 11.1816-43.0176 14.0625-41.748L27.9785-35.4492L53.2715-47.0703C53.2227-47.2656 53.2227-47.4609 53.2227-47.6562C53.2227-50.5859 57.666-52.5879 61.9629-52.5879C66.3086-52.5879 70.7031-50.6348 70.7031-47.6562C70.7031-44.6777 66.3086-42.627 61.9629-42.627C60.6934-42.627 59.3262-42.8223 58.1543-43.1641L34.5215-32.373L51.2207-24.707C55.2246-22.8516 58.5449-22.0215 61.8164-22.0703C65.0879-22.0215 68.457-22.8516 72.4609-24.707L109.619-41.748C112.451-43.0176 113.867-45.3125 113.867-47.6562C113.867-50.0488 112.451-52.3438 109.619-53.6621ZM34.375-25.8301L34.375-3.22266C41.1133 0.78125 50.6348 3.125 61.8164 3.125C84.4727 3.125 100.293-6.44531 100.293-19.1406L100.293-30.8594L74.9512-19.2383C70.2637-17.0898 65.918-16.0156 61.8164-16.0645C57.7637-16.0156 53.418-17.0898 48.7305-19.2383ZM23.3398-30.8594L23.3398-19.1406C23.3398-15.7227 25.0977-11.6699 28.1738-8.25195L28.1738-28.6621ZM24.8047 6.34766L24.8047 16.2598C24.8047 19.6289 27.0508 21.875 30.4688 21.875L32.0312 21.875C35.4492 21.875 37.6953 19.6289 37.6953 16.2598L37.6953 6.34766C37.6953 3.80859 36.4258 1.9043 34.375 1.12305L34.375-3.22266C31.9336-4.6875 29.834-6.34766 28.1738-8.25195L28.1738 1.07422C26.0742 1.85547 24.8047 3.75977 24.8047 6.34766Z"/>
  </g>
  <g id="Regular-S" transform="matrix(1 0 0 1 1388.61 696)">
   <path d="M108.789-53.0762L71.582-70.0684C67.6758-71.8262 64.4531-72.7051 61.2305-72.6562C58.0078-72.7051 54.7852-71.8262 50.8789-70.0684L13.6719-53.0762C11.0352-51.9043 9.76562-49.7559 9.76562-47.6562C9.76562-45.6055 11.0352-43.5547 13.6719-42.334L28.3691-35.6445L53.1738-47.0215C53.0762-47.2656 53.0762-47.4609 53.0762-47.6562C53.0762-50.293 57.3242-52.0996 61.4258-52.0996C65.4785-52.0996 69.7266-50.293 69.7266-47.6562C69.7266-45.0195 65.4785-43.1641 61.4258-43.1641C60.2051-43.1641 58.9844-43.3105 57.8613-43.6035L34.4238-32.8613L50.8789-25.293C54.7852-23.4863 58.0078-22.6562 61.2305-22.7051C64.4531-22.6562 67.6758-23.4863 71.582-25.293L108.789-42.334C111.426-43.5547 112.695-45.6055 112.695-47.6562C112.695-49.7559 111.426-51.9043 108.789-53.0762ZM34.2285-26.6602L34.2285-3.125C40.8203 0.78125 50.0977 3.07617 61.2305 3.07617C83.9844 3.07617 99.0723-6.44531 99.0723-18.8965L99.0723-31.6406L73.9746-20.1172C69.4336-18.0176 65.1855-16.9434 61.2305-16.9922C57.2754-16.9434 53.0273-18.0176 48.4863-20.1172ZM23.3887-31.5918L23.3887-18.8965C23.3887-15.4297 25.2441-11.1328 28.6133-7.56836L28.6133-29.1992ZM25.5859 6.5918L25.5859 16.6504C25.5859 19.8242 27.6855 21.9238 30.8594 21.9238L31.9336 21.9238C35.1074 21.9238 37.207 19.8242 37.207 16.6504L37.207 6.5918C37.207 4.29688 36.084 2.53906 34.2285 1.75781L34.2285-3.125C32.0312-4.44336 30.1758-5.9082 28.6133-7.56836L28.6133 1.75781C26.709 2.49023 25.5859 4.24805 25.5859 6.5918Z"/>
  </g>
  <g id="Light-S" transform="matrix(1 0 0 1 1092.17 696)">
   <path d="M108.74-52.2461L71.0938-69.4824C67.1875-71.2891 64.0625-72.0215 60.9375-71.9727C57.8613-72.0215 54.7363-71.2891 50.7812-69.4824L13.1836-52.2461C10.8887-51.2207 9.76562-49.3652 9.76562-47.5098C9.76562-45.6543 10.8887-43.8477 13.1836-42.8223L29.834-35.2051L53.5156-46.5332C53.2227-46.8262 53.0762-47.2168 53.0762-47.5098C53.0762-49.8047 56.9336-51.6113 61.084-51.6113C65.2344-51.6113 69.043-49.8047 69.043-47.5098C69.043-45.2148 65.2344-43.3594 61.084-43.3594C59.7656-43.3594 58.4473-43.5059 57.3242-43.8477L34.5703-33.0078L50.7812-25.5371C54.7363-23.7305 57.8613-22.998 60.9375-23.0469C64.0625-22.998 67.1875-23.7305 71.0938-25.5371L108.74-42.8223C111.035-43.8477 112.158-45.6543 112.158-47.5098C112.158-49.3652 111.035-51.2207 108.74-52.2461ZM34.4238-27.7344L34.4238-4.6875C40.7227-0.830078 49.8047 1.61133 60.9375 1.61133C83.3008 1.61133 97.4121-8.1543 97.4121-18.8477L97.4121-32.3242L73.1445-21.1914C68.7012-19.1895 64.7461-18.1641 60.9375-18.2129C57.1289-18.1641 53.1738-19.1895 48.7793-21.1914ZM24.4629-32.3242L24.4629-18.8477C24.4629-15.5762 26.416-11.5723 29.9805-8.10547L29.9805-29.7852ZM27.002 3.90625L27.002 14.0625C27.002 16.8945 28.8086 18.75 31.6406 18.75L32.7148 18.75C35.5469 18.75 37.4023 16.8945 37.4023 14.0625L37.4023 3.90625C37.4023 1.70898 36.2793 0.0976562 34.4238-0.488281L34.4238-4.6875C32.7148-5.71289 31.2012-6.83594 29.9805-8.10547L29.9805-0.488281C28.125 0.0976562 27.002 1.66016 27.002 3.90625Z"/>
  </g>
  <g id="Thin-S" transform="matrix(1 0 0 1 795.827 696)">
   <path d="M108.691-51.1719L70.459-68.7012C66.5039-70.5566 63.5742-71.1914 60.5957-71.1426C57.6172-71.1914 54.6875-70.5566 50.6836-68.7012L12.5-51.1719C10.6934-50.3418 9.76562-48.877 9.76562-47.3145C9.76562-45.7031 10.6934-44.2871 12.5-43.457L31.6895-34.7168L53.9062-45.8496C53.3691-46.3379 53.0762-46.875 53.0762-47.3633C53.0762-49.1699 56.3477-50.9766 60.6445-50.9766C64.8926-50.9766 68.1641-49.1699 68.1641-47.3633C68.1641-45.459 64.8926-43.6035 60.6445-43.6035C59.1309-43.6035 57.7637-43.7988 56.5918-44.1895L34.7168-33.2031L50.6836-25.8789C54.7363-24.0723 57.6172-23.3887 60.5957-23.4375C63.5742-23.3887 66.5039-24.0723 70.459-25.8789L108.691-43.457C110.449-44.2871 111.426-45.7031 111.426-47.3145C111.426-48.877 110.449-50.3418 108.691-51.1719ZM34.668-29.1992L34.668-6.68945C40.625-2.92969 49.4141-0.244141 60.5957-0.244141C82.373-0.244141 95.2148-10.4004 95.2148-18.75L95.2148-33.252L72.0215-22.6074C67.8223-20.6543 64.209-19.7266 60.5957-19.7754C56.9824-19.7266 53.3691-20.6543 49.1699-22.6074ZM25.9277-33.2031L25.9277-18.75C25.9277-15.7227 27.9785-12.0605 31.7871-8.83789L31.7871-30.5176ZM28.8086 0.390625L28.8086 10.6445C28.8086 13.0859 30.2734 14.5508 32.7148 14.5508L33.7402 14.5508C36.1816 14.5508 37.6465 13.0859 37.6465 10.6445L37.6465 0.390625C37.6465-1.70898 36.5723-3.125 34.668-3.4668L34.668-6.68945C33.5938-7.37305 32.6172-8.05664 31.7871-8.83789L31.7871-3.4668C29.8828-3.125 28.8086-1.75781 28.8086 0.390625Z"/>
  </g>
  <g id="Ultralight-S" transform="matrix(1 0 0 1 499.311 696)">
   <path d="M108.643-50.6348L70.166-68.3105C66.1621-70.166 63.2812-70.752 60.4004-70.7031C57.5195-70.752 54.6387-70.166 50.6348-68.3105L12.1582-50.6348C10.5957-49.9023 9.76562-48.6328 9.76562-47.2168C9.76562-45.752 10.5957-44.4824 12.1582-43.75L32.666-34.4238L54.1504-45.5078C53.4668-46.0449 53.0762-46.6797 53.0762-47.2168C53.0762-48.8281 56.0547-50.6836 60.4004-50.6836C64.7461-50.6836 67.6758-48.8281 67.6758-47.2168C67.6758-45.5566 64.7461-43.7012 60.4004-43.7012C58.7891-43.7012 57.4219-43.9453 56.25-44.3848L34.8633-33.3008L50.6348-26.0742C54.6875-24.2188 57.5195-23.6328 60.4004-23.6816C63.2812-23.6328 66.1621-24.2188 70.166-26.0742L108.643-43.75C110.156-44.4824 111.035-45.752 111.035-47.2168C111.035-48.6328 110.156-49.9023 108.643-50.6348ZM34.8145-29.9316L34.8145-7.71484C40.5762-4.05273 49.2188-1.2207 60.4004-1.2207C81.8848-1.2207 94.043-11.5723 94.043-18.7012L94.043-33.7402L71.4355-23.3398C67.334-21.4355 63.8672-20.5566 60.4004-20.6055C56.8848-20.5566 53.4668-21.4355 49.3652-23.3398ZM26.6602-33.6914L26.6602-18.7012C26.6602-15.8203 28.7598-12.3535 32.7148-9.22852L32.7148-30.9082ZM29.7852-1.41602L29.7852 8.88672C29.7852 11.1328 31.0059 12.4023 33.252 12.4023L34.2773 12.4023C36.5234 12.4023 37.7441 11.1328 37.7441 8.88672L37.7441-1.41602C37.7441-3.4668 36.7188-4.73633 34.8145-4.93164L34.8145-7.71484C34.082-8.20312 33.3496-8.69141 32.7148-9.22852L32.7148-4.93164C30.8105-4.73633 29.7852-3.4668 29.7852-1.41602Z"/>
  </g>
 </g>
</svg>
